<?xml version="1.0" encoding="UTF-8" standalone="no"?>
<!DOCTYPE svg PUBLIC "-//W3C//DTD SVG 1.1//EN"
 "http://www.w3.org/Graphics/SVG/1.1/DTD/svg11.dtd">
<!-- Generated by graphviz version 2.43.0 (0)
 -->
<!-- Title: clk::si3_sim::Si3Sim::nextMeasurementEvent Pages: 1 -->
<svg width="507pt" height="268pt"
 viewBox="0.00 0.00 507.00 268.00" xmlns="http://www.w3.org/2000/svg" xmlns:xlink="http://www.w3.org/1999/xlink">
<g id="graph0" class="graph" transform="scale(1 1) rotate(0) translate(4 264)">
<title>clk::si3_sim::Si3Sim::nextMeasurementEvent</title>
<!-- Node1 -->
<g id="Node000001" class="node">
<title>Node1</title>
<g id="a_Node000001"><a xlink:title="find the first measurement event after the current time">
<polygon fill="#999999" stroke="#666666" points="140,-140 0,-140 0,-110 140,-110 140,-140"/>
<text text-anchor="start" x="8" y="-128" font-family="Helvetica,sans-Serif" font-size="10.00">clk::si3_sim::Si3Sim</text>
<text text-anchor="middle" x="70" y="-117" font-family="Helvetica,sans-Serif" font-size="10.00">::nextMeasurementEvent</text>
</a>
</g>
</g>
<!-- Node2 -->
<g id="Node000002" class="node">
<title>Node2</title>
<g id="a_Node000002"><a xlink:href="structclk_1_1si3__sim_1_1Config.html#a4a62ed93612e6e9ce4119903d0ae85b2" target="_top" xlink:title=" ">
<polygon fill="white" stroke="#666666" points="303.5,-188 179.5,-188 179.5,-158 303.5,-158 303.5,-188"/>
<text text-anchor="start" x="187.5" y="-176" font-family="Helvetica,sans-Serif" font-size="10.00">clk::si3_sim::Config</text>
<text text-anchor="middle" x="241.5" y="-165" font-family="Helvetica,sans-Serif" font-size="10.00">::measurementEvents</text>
</a>
</g>
</g>
<!-- Node1&#45;&gt;Node2 -->
<g id="edge1_Node000001_Node000002" class="edge">
<title>Node1&#45;&gt;Node2</title>
<g id="a_edge1_Node000001_Node000002"><a xlink:title=" ">
<path fill="none" stroke="#63b8ff" d="M124.17,-140.06C141.2,-144.88 160.23,-150.27 177.88,-155.27"/>
<polygon fill="#63b8ff" stroke="#63b8ff" points="176.95,-158.64 187.52,-158 178.85,-151.91 176.95,-158.64"/>
</a>
</g>
</g>
<!-- Node3 -->
<g id="Node000003" class="node">
<title>Node3</title>
<g id="a_Node000003"><a xlink:href="structclk_1_1si3__sim_1_1Si3Sim.html#aad0b41bfeec82f9da4e8447639bb8819" target="_top" xlink:title="Get the current schedule day.">
<polygon fill="white" stroke="#666666" points="298.5,-140 184.5,-140 184.5,-110 298.5,-110 298.5,-140"/>
<text text-anchor="start" x="192.5" y="-128" font-family="Helvetica,sans-Serif" font-size="10.00">clk::si3_sim::Si3Sim</text>
<text text-anchor="middle" x="241.5" y="-117" font-family="Helvetica,sans-Serif" font-size="10.00">::scheduleDay</text>
</a>
</g>
</g>
<!-- Node1&#45;&gt;Node3 -->
<g id="edge2_Node000001_Node000003" class="edge">
<title>Node1&#45;&gt;Node3</title>
<g id="a_edge2_Node000001_Node000003"><a xlink:title=" ">
<path fill="none" stroke="#63b8ff" d="M140.43,-125C151.63,-125 163.2,-125 174.32,-125"/>
<polygon fill="#63b8ff" stroke="#63b8ff" points="174.38,-128.5 184.38,-125 174.38,-121.5 174.38,-128.5"/>
</a>
</g>
</g>
<!-- Node10 -->
<g id="Node000010" class="node">
<title>Node10</title>
<g id="a_Node000010"><a xlink:href="structclk_1_1misc__lib_1_1DateTime.html#ae13f5a3680b8cb0f362850c43d86b329" target="_top" xlink:title="Get the time of day of the time point.">
<polygon fill="white" stroke="#666666" points="307,-92 176,-92 176,-62 307,-62 307,-92"/>
<text text-anchor="start" x="184" y="-80" font-family="Helvetica,sans-Serif" font-size="10.00">clk::misc_lib::DateTime</text>
<text text-anchor="middle" x="241.5" y="-69" font-family="Helvetica,sans-Serif" font-size="10.00">::timeOfDay</text>
</a>
</g>
</g>
<!-- Node1&#45;&gt;Node10 -->
<g id="edge9_Node000001_Node000010" class="edge">
<title>Node1&#45;&gt;Node10</title>
<g id="a_edge9_Node000001_Node000010"><a xlink:title=" ">
<path fill="none" stroke="#63b8ff" d="M124.17,-109.94C141.2,-105.12 160.23,-99.73 177.88,-94.73"/>
<polygon fill="#63b8ff" stroke="#63b8ff" points="178.85,-98.09 187.52,-92 176.95,-91.36 178.85,-98.09"/>
</a>
</g>
</g>
<!-- Node4 -->
<g id="Node000004" class="node">
<title>Node4</title>
<g id="a_Node000004"><a xlink:href="structclk_1_1misc__lib_1_1DateTime.html#aa39a8d12e8298c9d2839d00655a40e25" target="_top" xlink:title="Get the day of the month of the time point.">
<polygon fill="white" stroke="#666666" points="486.5,-260 355.5,-260 355.5,-230 486.5,-230 486.5,-260"/>
<text text-anchor="start" x="363.5" y="-248" font-family="Helvetica,sans-Serif" font-size="10.00">clk::misc_lib::DateTime</text>
<text text-anchor="middle" x="421" y="-237" font-family="Helvetica,sans-Serif" font-size="10.00">::dayOfMonth</text>
</a>
</g>
</g>
<!-- Node3&#45;&gt;Node4 -->
<g id="edge3_Node000003_Node000004" class="edge">
<title>Node3&#45;&gt;Node4</title>
<g id="a_edge3_Node000003_Node000004"><a xlink:title=" ">
<path fill="none" stroke="#63b8ff" d="M294.21,-140.07C298.82,-142.61 303.18,-145.57 307,-149 333.62,-172.9 315.74,-197.82 343,-221 344.52,-222.29 346.11,-223.52 347.76,-224.67"/>
<polygon fill="#63b8ff" stroke="#63b8ff" points="346.04,-227.73 356.4,-229.93 349.68,-221.74 346.04,-227.73"/>
</a>
</g>
</g>
<!-- Node5 -->
<g id="Node000005" class="node">
<title>Node5</title>
<g id="a_Node000005"><a xlink:href="structclk_1_1misc__lib_1_1DateTime.html#a745eee7ebd157f7f9090a5ef0f70ed67" target="_top" xlink:title="Get the weekday of the time point.">
<polygon fill="white" stroke="#666666" points="486.5,-212 355.5,-212 355.5,-182 486.5,-182 486.5,-212"/>
<text text-anchor="start" x="363.5" y="-200" font-family="Helvetica,sans-Serif" font-size="10.00">clk::misc_lib::DateTime</text>
<text text-anchor="middle" x="421" y="-189" font-family="Helvetica,sans-Serif" font-size="10.00">::dayOfWeek</text>
</a>
</g>
</g>
<!-- Node3&#45;&gt;Node5 -->
<g id="edge4_Node000003_Node000005" class="edge">
<title>Node3&#45;&gt;Node5</title>
<g id="a_edge4_Node000003_Node000005"><a xlink:title=" ">
<path fill="none" stroke="#63b8ff" d="M287.15,-140.07C293.91,-142.79 300.72,-145.79 307,-149 324.13,-157.75 325.64,-164.72 343,-173 347.02,-174.92 351.23,-176.73 355.52,-178.43"/>
<polygon fill="#63b8ff" stroke="#63b8ff" points="354.4,-181.75 364.99,-181.98 356.85,-175.19 354.4,-181.75"/>
</a>
</g>
</g>
<!-- Node6 -->
<g id="Node000006" class="node">
<title>Node6</title>
<g id="a_Node000006"><a xlink:href="structclk_1_1misc__lib_1_1DateTime.html#a9ecea33a44b419d4c7f1eb9ddfb45aaa" target="_top" xlink:title="Get the day of the year of the time point.">
<polygon fill="white" stroke="#666666" points="486.5,-164 355.5,-164 355.5,-134 486.5,-134 486.5,-164"/>
<text text-anchor="start" x="363.5" y="-152" font-family="Helvetica,sans-Serif" font-size="10.00">clk::misc_lib::DateTime</text>
<text text-anchor="middle" x="421" y="-141" font-family="Helvetica,sans-Serif" font-size="10.00">::dayOfYear</text>
</a>
</g>
</g>
<!-- Node3&#45;&gt;Node6 -->
<g id="edge5_Node000003_Node000006" class="edge">
<title>Node3&#45;&gt;Node6</title>
<g id="a_edge5_Node000003_Node000006"><a xlink:title=" ">
<path fill="none" stroke="#63b8ff" d="M298.66,-132.59C313.41,-134.59 329.55,-136.77 345.11,-138.87"/>
<polygon fill="#63b8ff" stroke="#63b8ff" points="344.85,-142.37 355.23,-140.24 345.79,-135.43 344.85,-142.37"/>
</a>
</g>
</g>
<!-- Node7 -->
<g id="Node000007" class="node">
<title>Node7</title>
<g id="a_Node000007"><a xlink:href="structclk_1_1si3__sim_1_1Config.html#aab4332af945fefc2b44e8694b0ba1caf" target="_top" xlink:title="Get the interval for the current schedule.">
<polygon fill="white" stroke="#666666" points="476.5,-116 365.5,-116 365.5,-86 476.5,-86 476.5,-116"/>
<text text-anchor="start" x="373.5" y="-104" font-family="Helvetica,sans-Serif" font-size="10.00">clk::si3_sim::Config</text>
<text text-anchor="middle" x="421" y="-93" font-family="Helvetica,sans-Serif" font-size="10.00">::interval</text>
</a>
</g>
</g>
<!-- Node3&#45;&gt;Node7 -->
<g id="edge6_Node000003_Node000007" class="edge">
<title>Node3&#45;&gt;Node7</title>
<g id="a_edge6_Node000003_Node000007"><a xlink:title=" ">
<path fill="none" stroke="#63b8ff" d="M298.66,-117.41C316.66,-114.97 336.73,-112.26 355.29,-109.75"/>
<polygon fill="#63b8ff" stroke="#63b8ff" points="355.98,-113.19 365.42,-108.38 355.04,-106.25 355.98,-113.19"/>
</a>
</g>
</g>
<!-- Node8 -->
<g id="Node000008" class="node">
<title>Node8</title>
<g id="a_Node000008"><a xlink:href="structclk_1_1misc__lib_1_1DateTime.html#a01d736f8e2fb0537bb0b94619c14a27f" target="_top" xlink:title="Get the Modified Julian Date (MJD) of the time point.">
<polygon fill="white" stroke="#666666" points="499,-67.5 343,-67.5 343,-48.5 499,-48.5 499,-67.5"/>
<text text-anchor="middle" x="421" y="-55.5" font-family="Helvetica,sans-Serif" font-size="10.00">clk::misc_lib::DateTime::mjd</text>
</a>
</g>
</g>
<!-- Node3&#45;&gt;Node8 -->
<g id="edge7_Node000003_Node000008" class="edge">
<title>Node3&#45;&gt;Node8</title>
<g id="a_edge7_Node000003_Node000008"><a xlink:title=" ">
<path fill="none" stroke="#63b8ff" d="M287.15,-109.93C293.91,-107.21 300.72,-104.21 307,-101 324.13,-92.25 325.4,-84.75 343,-77 348.49,-74.58 354.34,-72.44 360.27,-70.54"/>
<polygon fill="#63b8ff" stroke="#63b8ff" points="361.68,-73.77 370.28,-67.58 359.69,-67.06 361.68,-73.77"/>
</a>
</g>
</g>
<!-- Node9 -->
<g id="Node000009" class="node">
<title>Node9</title>
<g id="a_Node000009"><a xlink:href="structclk_1_1si3__sim_1_1Config.html#a9f523338979bcb682cbd847579a6239d" target="_top" xlink:title=" ">
<polygon fill="white" stroke="#666666" points="476.5,-30 365.5,-30 365.5,0 476.5,0 476.5,-30"/>
<text text-anchor="start" x="373.5" y="-18" font-family="Helvetica,sans-Serif" font-size="10.00">clk::si3_sim::Config</text>
<text text-anchor="middle" x="421" y="-7" font-family="Helvetica,sans-Serif" font-size="10.00">::runSchedule</text>
</a>
</g>
</g>
<!-- Node3&#45;&gt;Node9 -->
<g id="edge8_Node000003_Node000009" class="edge">
<title>Node3&#45;&gt;Node9</title>
<g id="a_edge8_Node000003_Node000009"><a xlink:title=" ">
<path fill="none" stroke="#63b8ff" d="M293.67,-109.85C298.44,-107.32 302.98,-104.39 307,-101 331.36,-80.46 318.09,-58.87 343,-39 347,-35.81 351.43,-33.04 356.08,-30.63"/>
<polygon fill="#63b8ff" stroke="#63b8ff" points="357.61,-33.78 365.26,-26.45 354.7,-27.42 357.61,-33.78"/>
</a>
</g>
</g>
</g>
</svg>
