<?xml version="1.0" encoding="UTF-8" standalone="no"?>
<!DOCTYPE svg PUBLIC "-//W3C//DTD SVG 1.1//EN"
 "http://www.w3.org/Graphics/SVG/1.1/DTD/svg11.dtd">
<!-- Generated by graphviz version 2.43.0 (0)
 -->
<!-- Title: clk::misc_lib::DateTime::fractionalMJD Pages: 1 -->
<svg width="331pt" height="124pt"
 viewBox="0.00 0.00 331.00 124.00" xmlns="http://www.w3.org/2000/svg" xmlns:xlink="http://www.w3.org/1999/xlink">
<g id="graph0" class="graph" transform="scale(1 1) rotate(0) translate(4 120)">
<title>clk::misc_lib::DateTime::fractionalMJD</title>
<!-- Node1 -->
<g id="Node000001" class="node">
<title>Node1</title>
<g id="a_Node000001"><a xlink:title="Get the fractional Modified Julian Date (MJD) of the time point.">
<polygon fill="#999999" stroke="#666666" points="131,-73 0,-73 0,-43 131,-43 131,-73"/>
<text text-anchor="start" x="8" y="-61" font-family="Helvetica,sans-Serif" font-size="10.00">clk::misc_lib::DateTime</text>
<text text-anchor="middle" x="65.5" y="-50" font-family="Helvetica,sans-Serif" font-size="10.00">::fractionalMJD</text>
</a>
</g>
</g>
<!-- Node2 -->
<g id="Node000002" class="node">
<title>Node2</title>
<g id="a_Node000002"><a xlink:href="structclk_1_1misc__lib_1_1Time.html#a9f4b6d42d1279f20a1562049b2d55011" target="_top" xlink:title="Computes the fraction of the day elapsed since midnight.">
<polygon fill="white" stroke="#666666" points="299,-116 191,-116 191,-86 299,-86 299,-116"/>
<text text-anchor="start" x="199" y="-104" font-family="Helvetica,sans-Serif" font-size="10.00">clk::misc_lib::Time</text>
<text text-anchor="middle" x="245" y="-93" font-family="Helvetica,sans-Serif" font-size="10.00">::fraction</text>
</a>
</g>
</g>
<!-- Node1&#45;&gt;Node2 -->
<g id="edge1_Node000001_Node000002" class="edge">
<title>Node1&#45;&gt;Node2</title>
<g id="a_edge1_Node000001_Node000002"><a xlink:title=" ">
<path fill="none" stroke="#63b8ff" d="M128.58,-73.04C145.55,-77.15 163.94,-81.61 180.96,-85.73"/>
<polygon fill="#63b8ff" stroke="#63b8ff" points="180.26,-89.16 190.8,-88.11 181.91,-82.36 180.26,-89.16"/>
</a>
</g>
</g>
<!-- Node3 -->
<g id="Node000003" class="node">
<title>Node3</title>
<g id="a_Node000003"><a xlink:href="structclk_1_1misc__lib_1_1DateTime.html#a01d736f8e2fb0537bb0b94619c14a27f" target="_top" xlink:title="Get the Modified Julian Date (MJD) of the time point.">
<polygon fill="white" stroke="#666666" points="323,-67.5 167,-67.5 167,-48.5 323,-48.5 323,-67.5"/>
<text text-anchor="middle" x="245" y="-55.5" font-family="Helvetica,sans-Serif" font-size="10.00">clk::misc_lib::DateTime::mjd</text>
</a>
</g>
</g>
<!-- Node1&#45;&gt;Node3 -->
<g id="edge2_Node000001_Node000003" class="edge">
<title>Node1&#45;&gt;Node3</title>
<g id="a_edge2_Node000001_Node000003"><a xlink:title=" ">
<path fill="none" stroke="#63b8ff" d="M131.08,-58C139.42,-58 148.06,-58 156.69,-58"/>
<polygon fill="#63b8ff" stroke="#63b8ff" points="156.79,-61.5 166.79,-58 156.79,-54.5 156.79,-61.5"/>
</a>
</g>
</g>
<!-- Node4 -->
<g id="Node000004" class="node">
<title>Node4</title>
<g id="a_Node000004"><a xlink:href="structclk_1_1misc__lib_1_1DateTime.html#ae13f5a3680b8cb0f362850c43d86b329" target="_top" xlink:title="Get the time of day of the time point.">
<polygon fill="white" stroke="#666666" points="310.5,-30 179.5,-30 179.5,0 310.5,0 310.5,-30"/>
<text text-anchor="start" x="187.5" y="-18" font-family="Helvetica,sans-Serif" font-size="10.00">clk::misc_lib::DateTime</text>
<text text-anchor="middle" x="245" y="-7" font-family="Helvetica,sans-Serif" font-size="10.00">::timeOfDay</text>
</a>
</g>
</g>
<!-- Node1&#45;&gt;Node4 -->
<g id="edge3_Node000001_Node000004" class="edge">
<title>Node1&#45;&gt;Node4</title>
<g id="a_edge3_Node000001_Node000004"><a xlink:title=" ">
<path fill="none" stroke="#63b8ff" d="M128.58,-42.96C142.63,-39.56 157.67,-35.91 172.09,-32.42"/>
<polygon fill="#63b8ff" stroke="#63b8ff" points="173.06,-35.79 181.95,-30.03 171.41,-28.98 173.06,-35.79"/>
</a>
</g>
</g>
</g>
</svg>
