<?xml version="1.0" encoding="UTF-8" standalone="no"?>
<!DOCTYPE svg PUBLIC "-//W3C//DTD SVG 1.1//EN"
 "http://www.w3.org/Graphics/SVG/1.1/DTD/svg11.dtd">
<!-- Generated by graphviz version 2.43.0 (0)
 -->
<!-- Title: clk::misc_lib::Time::Time Pages: 1 -->
<svg width="299pt" height="51pt"
 viewBox="0.00 0.00 299.00 50.50" xmlns="http://www.w3.org/2000/svg" xmlns:xlink="http://www.w3.org/1999/xlink">
<g id="graph0" class="graph" transform="scale(1 1) rotate(0) translate(4 46.5)">
<title>clk::misc_lib::Time::Time</title>
<!-- Node1 -->
<g id="Node000001" class="node">
<title>Node1</title>
<g id="a_Node000001"><a xlink:title="Constructor for Time with specific hours, minutes, and seconds.">
<polygon fill="#999999" stroke="#666666" points="108,-30 0,-30 0,0 108,0 108,-30"/>
<text text-anchor="start" x="8" y="-18" font-family="Helvetica,sans-Serif" font-size="10.00">clk::misc_lib::Time</text>
<text text-anchor="middle" x="54" y="-7" font-family="Helvetica,sans-Serif" font-size="10.00">::Time</text>
</a>
</g>
</g>
<!-- Node2 -->
<g id="Node000002" class="node">
<title>Node2</title>
<g id="a_Node000002"><a xlink:href="time_8hpp.html#a74d8a41ad2acb8e76c8947bbfd8c40bd" target="_top" xlink:title="Convert seconds to a Boost time_duration.">
<polygon fill="white" stroke="#666666" points="291,-24.5 144,-24.5 144,-5.5 291,-5.5 291,-24.5"/>
<text text-anchor="middle" x="217.5" y="-12.5" font-family="Helvetica,sans-Serif" font-size="10.00">clk::misc_lib::fromSeconds</text>
</a>
</g>
</g>
<!-- Node1&#45;&gt;Node2 -->
<g id="edge1_Node000001_Node000002" class="edge">
<title>Node1&#45;&gt;Node2</title>
<g id="a_edge1_Node000001_Node000002"><a xlink:title=" ">
<path fill="none" stroke="#63b8ff" d="M108.33,-15C116.52,-15 125.13,-15 133.78,-15"/>
<polygon fill="#63b8ff" stroke="#63b8ff" points="133.92,-18.5 143.92,-15 133.92,-11.5 133.92,-18.5"/>
</a>
</g>
</g>
<!-- Node2&#45;&gt;Node2 -->
<g id="edge2_Node000002_Node000002" class="edge">
<title>Node2&#45;&gt;Node2</title>
<g id="a_edge2_Node000002_Node000002"><a xlink:title=" ">
<path fill="none" stroke="#63b8ff" d="M192.53,-24.58C180.38,-33.23 188.71,-42.5 217.5,-42.5 236.4,-42.5 246.48,-38.51 247.74,-33.32"/>
<polygon fill="#63b8ff" stroke="#63b8ff" points="250.63,-31.34 242.47,-24.58 244.64,-34.95 250.63,-31.34"/>
</a>
</g>
</g>
</g>
</svg>
