<?xml version="1.0" encoding="UTF-8" standalone="no"?>
<!DOCTYPE svg PUBLIC "-//W3C//DTD SVG 1.1//EN"
 "http://www.w3.org/Graphics/SVG/1.1/DTD/svg11.dtd">
<!-- Generated by graphviz version 2.43.0 (0)
 -->
<!-- Title: clk::si3_sim::Si3Sim::scheduleDay Pages: 1 -->
<svg width="314pt" height="268pt"
 viewBox="0.00 0.00 314.00 268.00" xmlns="http://www.w3.org/2000/svg" xmlns:xlink="http://www.w3.org/1999/xlink">
<g id="graph0" class="graph" transform="scale(1 1) rotate(0) translate(4 264)">
<title>clk::si3_sim::Si3Sim::scheduleDay</title>
<!-- Node1 -->
<g id="Node000001" class="node">
<title>Node1</title>
<g id="a_Node000001"><a xlink:title="Get the current schedule day.">
<polygon fill="#999999" stroke="#666666" points="114,-140 0,-140 0,-110 114,-110 114,-140"/>
<text text-anchor="start" x="8" y="-128" font-family="Helvetica,sans-Serif" font-size="10.00">clk::si3_sim::Si3Sim</text>
<text text-anchor="middle" x="57" y="-117" font-family="Helvetica,sans-Serif" font-size="10.00">::scheduleDay</text>
</a>
</g>
</g>
<!-- Node2 -->
<g id="Node000002" class="node">
<title>Node2</title>
<g id="a_Node000002"><a xlink:href="structclk_1_1misc__lib_1_1DateTime.html#aa39a8d12e8298c9d2839d00655a40e25" target="_top" xlink:title="Get the day of the month of the time point.">
<polygon fill="white" stroke="#666666" points="293.5,-260 162.5,-260 162.5,-230 293.5,-230 293.5,-260"/>
<text text-anchor="start" x="170.5" y="-248" font-family="Helvetica,sans-Serif" font-size="10.00">clk::misc_lib::DateTime</text>
<text text-anchor="middle" x="228" y="-237" font-family="Helvetica,sans-Serif" font-size="10.00">::dayOfMonth</text>
</a>
</g>
</g>
<!-- Node1&#45;&gt;Node2 -->
<g id="edge1_Node000001_Node000002" class="edge">
<title>Node1&#45;&gt;Node2</title>
<g id="a_edge1_Node000001_Node000002"><a xlink:title=" ">
<path fill="none" stroke="#63b8ff" d="M68.69,-140.28C84.23,-161.41 115.06,-199.37 150,-221 152.65,-222.64 155.43,-224.18 158.28,-225.62"/>
<polygon fill="#63b8ff" stroke="#63b8ff" points="157.07,-228.92 167.62,-229.89 159.98,-222.55 157.07,-228.92"/>
</a>
</g>
</g>
<!-- Node3 -->
<g id="Node000003" class="node">
<title>Node3</title>
<g id="a_Node000003"><a xlink:href="structclk_1_1misc__lib_1_1DateTime.html#a745eee7ebd157f7f9090a5ef0f70ed67" target="_top" xlink:title="Get the weekday of the time point.">
<polygon fill="white" stroke="#666666" points="293.5,-212 162.5,-212 162.5,-182 293.5,-182 293.5,-212"/>
<text text-anchor="start" x="170.5" y="-200" font-family="Helvetica,sans-Serif" font-size="10.00">clk::misc_lib::DateTime</text>
<text text-anchor="middle" x="228" y="-189" font-family="Helvetica,sans-Serif" font-size="10.00">::dayOfWeek</text>
</a>
</g>
</g>
<!-- Node1&#45;&gt;Node3 -->
<g id="edge2_Node000001_Node000003" class="edge">
<title>Node1&#45;&gt;Node3</title>
<g id="a_edge2_Node000001_Node000003"><a xlink:title=" ">
<path fill="none" stroke="#63b8ff" d="M83.97,-140.15C102.08,-150.31 127.02,-163.51 150,-173 154.73,-174.95 159.68,-176.84 164.69,-178.64"/>
<polygon fill="#63b8ff" stroke="#63b8ff" points="163.77,-182.02 174.36,-181.97 166.05,-175.4 163.77,-182.02"/>
</a>
</g>
</g>
<!-- Node4 -->
<g id="Node000004" class="node">
<title>Node4</title>
<g id="a_Node000004"><a xlink:href="structclk_1_1misc__lib_1_1DateTime.html#a9ecea33a44b419d4c7f1eb9ddfb45aaa" target="_top" xlink:title="Get the day of the year of the time point.">
<polygon fill="white" stroke="#666666" points="293.5,-164 162.5,-164 162.5,-134 293.5,-134 293.5,-164"/>
<text text-anchor="start" x="170.5" y="-152" font-family="Helvetica,sans-Serif" font-size="10.00">clk::misc_lib::DateTime</text>
<text text-anchor="middle" x="228" y="-141" font-family="Helvetica,sans-Serif" font-size="10.00">::dayOfYear</text>
</a>
</g>
</g>
<!-- Node1&#45;&gt;Node4 -->
<g id="edge3_Node000001_Node000004" class="edge">
<title>Node1&#45;&gt;Node4</title>
<g id="a_edge3_Node000001_Node000004"><a xlink:title=" ">
<path fill="none" stroke="#63b8ff" d="M114.27,-132.99C126.47,-134.72 139.56,-136.58 152.34,-138.4"/>
<polygon fill="#63b8ff" stroke="#63b8ff" points="152.11,-141.9 162.5,-139.84 153.09,-134.97 152.11,-141.9"/>
</a>
</g>
</g>
<!-- Node5 -->
<g id="Node000005" class="node">
<title>Node5</title>
<g id="a_Node000005"><a xlink:href="structclk_1_1si3__sim_1_1Config.html#aab4332af945fefc2b44e8694b0ba1caf" target="_top" xlink:title="Get the interval for the current schedule.">
<polygon fill="white" stroke="#666666" points="283.5,-116 172.5,-116 172.5,-86 283.5,-86 283.5,-116"/>
<text text-anchor="start" x="180.5" y="-104" font-family="Helvetica,sans-Serif" font-size="10.00">clk::si3_sim::Config</text>
<text text-anchor="middle" x="228" y="-93" font-family="Helvetica,sans-Serif" font-size="10.00">::interval</text>
</a>
</g>
</g>
<!-- Node1&#45;&gt;Node5 -->
<g id="edge4_Node000001_Node000005" class="edge">
<title>Node1&#45;&gt;Node5</title>
<g id="a_edge4_Node000001_Node000005"><a xlink:title=" ">
<path fill="none" stroke="#63b8ff" d="M114.27,-117.01C129.63,-114.83 146.4,-112.45 162.19,-110.2"/>
<polygon fill="#63b8ff" stroke="#63b8ff" points="163,-113.62 172.41,-108.75 162.01,-106.69 163,-113.62"/>
</a>
</g>
</g>
<!-- Node6 -->
<g id="Node000006" class="node">
<title>Node6</title>
<g id="a_Node000006"><a xlink:href="structclk_1_1misc__lib_1_1DateTime.html#a01d736f8e2fb0537bb0b94619c14a27f" target="_top" xlink:title="Get the Modified Julian Date (MJD) of the time point.">
<polygon fill="white" stroke="#666666" points="306,-67.5 150,-67.5 150,-48.5 306,-48.5 306,-67.5"/>
<text text-anchor="middle" x="228" y="-55.5" font-family="Helvetica,sans-Serif" font-size="10.00">clk::misc_lib::DateTime::mjd</text>
</a>
</g>
</g>
<!-- Node1&#45;&gt;Node6 -->
<g id="edge5_Node000001_Node000006" class="edge">
<title>Node1&#45;&gt;Node6</title>
<g id="a_edge5_Node000001_Node000006"><a xlink:title=" ">
<path fill="none" stroke="#63b8ff" d="M83.02,-109.86C101.1,-99.44 126.41,-85.92 150,-77 156.49,-74.55 163.41,-72.32 170.34,-70.33"/>
<polygon fill="#63b8ff" stroke="#63b8ff" points="171.71,-73.59 180.44,-67.59 169.87,-66.83 171.71,-73.59"/>
</a>
</g>
</g>
<!-- Node7 -->
<g id="Node000007" class="node">
<title>Node7</title>
<g id="a_Node000007"><a xlink:href="structclk_1_1si3__sim_1_1Config.html#a9f523338979bcb682cbd847579a6239d" target="_top" xlink:title=" ">
<polygon fill="white" stroke="#666666" points="283.5,-30 172.5,-30 172.5,0 283.5,0 283.5,-30"/>
<text text-anchor="start" x="180.5" y="-18" font-family="Helvetica,sans-Serif" font-size="10.00">clk::si3_sim::Config</text>
<text text-anchor="middle" x="228" y="-7" font-family="Helvetica,sans-Serif" font-size="10.00">::runSchedule</text>
</a>
</g>
</g>
<!-- Node1&#45;&gt;Node7 -->
<g id="edge6_Node000001_Node000007" class="edge">
<title>Node1&#45;&gt;Node7</title>
<g id="a_edge6_Node000001_Node000007"><a xlink:title=" ">
<path fill="none" stroke="#63b8ff" d="M70.5,-109.99C86.94,-91.15 117.54,-59.02 150,-40 154.1,-37.6 158.47,-35.39 162.95,-33.37"/>
<polygon fill="#63b8ff" stroke="#63b8ff" points="164.39,-36.56 172.28,-29.49 161.71,-30.1 164.39,-36.56"/>
</a>
</g>
</g>
</g>
</svg>
