<?xml version="1.0" encoding="UTF-8" standalone="no"?>
<!DOCTYPE svg PUBLIC "-//W3C//DTD SVG 1.1//EN"
 "http://www.w3.org/Graphics/SVG/1.1/DTD/svg11.dtd">
<!-- Generated by graphviz version 2.43.0 (0)
 -->
<!-- Title: clk::si3_sim::Config::writeToFile Pages: 1 -->
<svg width="433pt" height="38pt"
 viewBox="0.00 0.00 433.00 38.00" xmlns="http://www.w3.org/2000/svg" xmlns:xlink="http://www.w3.org/1999/xlink">
<g id="graph0" class="graph" transform="scale(1 1) rotate(0) translate(4 34)">
<title>clk::si3_sim::Config::writeToFile</title>
<!-- Node1 -->
<g id="Node000001" class="node">
<title>Node1</title>
<g id="a_Node000001"><a xlink:title="Write the configuration to a file.">
<polygon fill="#999999" stroke="#666666" points="111,-30 0,-30 0,0 111,0 111,-30"/>
<text text-anchor="start" x="8" y="-18" font-family="Helvetica,sans-Serif" font-size="10.00">clk::si3_sim::Config</text>
<text text-anchor="middle" x="55.5" y="-7" font-family="Helvetica,sans-Serif" font-size="10.00">::writeToFile</text>
</a>
</g>
</g>
<!-- Node2 -->
<g id="Node000002" class="node">
<title>Node2</title>
<g id="a_Node000002"><a xlink:href="structclk_1_1si3__sim_1_1Config.html#a7a987d6de2f2cc60fcfc53a1ffb94cf4" target="_top" xlink:title="write the configuration to a stream.">
<polygon fill="white" stroke="#666666" points="258,-30 147,-30 147,0 258,0 258,-30"/>
<text text-anchor="start" x="155" y="-18" font-family="Helvetica,sans-Serif" font-size="10.00">clk::si3_sim::Config</text>
<text text-anchor="middle" x="202.5" y="-7" font-family="Helvetica,sans-Serif" font-size="10.00">::write</text>
</a>
</g>
</g>
<!-- Node1&#45;&gt;Node2 -->
<g id="edge1_Node000001_Node000002" class="edge">
<title>Node1&#45;&gt;Node2</title>
<g id="a_edge1_Node000001_Node000002"><a xlink:title=" ">
<path fill="none" stroke="#63b8ff" d="M111.32,-15C119.53,-15 128.06,-15 136.46,-15"/>
<polygon fill="#63b8ff" stroke="#63b8ff" points="136.6,-18.5 146.6,-15 136.6,-11.5 136.6,-18.5"/>
</a>
</g>
</g>
<!-- Node3 -->
<g id="Node000003" class="node">
<title>Node3</title>
<g id="a_Node000003"><a xlink:href="structclk_1_1misc__lib_1_1DateTime.html#a8b223c0f6e3f0282852414c2a6d0fd54" target="_top" xlink:title="Convert the Time object to an ISO 8601 string.">
<polygon fill="white" stroke="#666666" points="425,-30 294,-30 294,0 425,0 425,-30"/>
<text text-anchor="start" x="302" y="-18" font-family="Helvetica,sans-Serif" font-size="10.00">clk::misc_lib::DateTime</text>
<text text-anchor="middle" x="359.5" y="-7" font-family="Helvetica,sans-Serif" font-size="10.00">::toString</text>
</a>
</g>
</g>
<!-- Node2&#45;&gt;Node3 -->
<g id="edge2_Node000002_Node000003" class="edge">
<title>Node2&#45;&gt;Node3</title>
<g id="a_edge2_Node000002_Node000003"><a xlink:title=" ">
<path fill="none" stroke="#63b8ff" d="M258.15,-15C266.48,-15 275.2,-15 283.87,-15"/>
<polygon fill="#63b8ff" stroke="#63b8ff" points="284,-18.5 294,-15 284,-11.5 284,-18.5"/>
</a>
</g>
</g>
</g>
</svg>
