<?xml version="1.0" encoding="UTF-8" standalone="no"?>
<!DOCTYPE svg PUBLIC "-//W3C//DTD SVG 1.1//EN"
 "http://www.w3.org/Graphics/SVG/1.1/DTD/svg11.dtd">
<!-- Generated by graphviz version 2.43.0 (0)
 -->
<!-- Title: clk::misc_lib::DateTime::fromISO Pages: 1 -->
<svg width="605pt" height="60pt"
 viewBox="0.00 0.00 605.00 60.00" xmlns="http://www.w3.org/2000/svg" xmlns:xlink="http://www.w3.org/1999/xlink">
<g id="graph0" class="graph" transform="scale(1 1) rotate(0) translate(4 56)">
<title>clk::misc_lib::DateTime::fromISO</title>
<!-- Node1 -->
<g id="Node000001" class="node">
<title>Node1</title>
<g id="a_Node000001"><a xlink:title="Factory method to create a Time object from an ISO 8601 string.">
<polygon fill="#999999" stroke="#666666" points="597,-30 466,-30 466,0 597,0 597,-30"/>
<text text-anchor="start" x="474" y="-18" font-family="Helvetica,sans-Serif" font-size="10.00">clk::misc_lib::DateTime</text>
<text text-anchor="middle" x="531.5" y="-7" font-family="Helvetica,sans-Serif" font-size="10.00">::fromISO</text>
</a>
</g>
</g>
<!-- Node2 -->
<g id="Node000002" class="node">
<title>Node2</title>
<g id="a_Node000002"><a xlink:href="structclk_1_1misc__lib_1_1RunRecord.html#ae4a219a613811bf5bb91961ac43c2f19" target="_top" xlink:title="Factory method to construct a RunRecord from a JSON object.">
<polygon fill="white" stroke="#666666" points="430,-52 294,-52 294,-22 430,-22 430,-52"/>
<text text-anchor="start" x="302" y="-40" font-family="Helvetica,sans-Serif" font-size="10.00">clk::misc_lib::RunRecord</text>
<text text-anchor="middle" x="362" y="-29" font-family="Helvetica,sans-Serif" font-size="10.00">::fromJson</text>
</a>
</g>
</g>
<!-- Node1&#45;&gt;Node2 -->
<g id="edge1_Node000001_Node000002" class="edge">
<title>Node1&#45;&gt;Node2</title>
<g id="a_edge1_Node000001_Node000002"><a xlink:title=" ">
<path fill="none" stroke="#63b8ff" d="M455.77,-24.81C447.22,-25.94 438.53,-27.08 430.08,-28.19"/>
<polygon fill="#63b8ff" stroke="#63b8ff" points="456.28,-28.28 465.74,-23.51 455.37,-21.34 456.28,-28.28"/>
</a>
</g>
</g>
<!-- Node3 -->
<g id="Node000003" class="node">
<title>Node3</title>
<g id="a_Node000003"><a xlink:href="structclk_1_1si3__sim_1_1Config.html#ae133c6ff4f7f1fb61db327e051de8812" target="_top" xlink:title="read a configuration from a stream.">
<polygon fill="white" stroke="#666666" points="258,-30 147,-30 147,0 258,0 258,-30"/>
<text text-anchor="start" x="155" y="-18" font-family="Helvetica,sans-Serif" font-size="10.00">clk::si3_sim::Config</text>
<text text-anchor="middle" x="202.5" y="-7" font-family="Helvetica,sans-Serif" font-size="10.00">::read</text>
</a>
</g>
</g>
<!-- Node1&#45;&gt;Node3 -->
<g id="edge4_Node000001_Node000003" class="edge">
<title>Node1&#45;&gt;Node3</title>
<g id="a_edge4_Node000001_Node000003"><a xlink:title=" ">
<path fill="none" stroke="#63b8ff" d="M455.75,-13.35C447.07,-13.2 438.34,-13.08 430,-13 369.56,-12.4 354.44,-12.33 294,-13 282.37,-13.13 269.9,-13.35 258.05,-13.6"/>
<polygon fill="#63b8ff" stroke="#63b8ff" points="455.84,-16.85 465.9,-13.52 455.96,-9.85 455.84,-16.85"/>
</a>
</g>
</g>
<!-- Node2&#45;&gt;Node3 -->
<g id="edge2_Node000002_Node000003" class="edge">
<title>Node2&#45;&gt;Node3</title>
<g id="a_edge2_Node000002_Node000003"><a xlink:title=" ">
<path fill="none" stroke="#63b8ff" d="M283.67,-26.2C275.06,-25 266.42,-23.79 258.17,-22.64"/>
<polygon fill="#63b8ff" stroke="#63b8ff" points="283.36,-29.69 293.75,-27.61 284.33,-22.76 283.36,-29.69"/>
</a>
</g>
</g>
<!-- Node4 -->
<g id="Node000004" class="node">
<title>Node4</title>
<g id="a_Node000004"><a xlink:href="structclk_1_1si3__sim_1_1Config.html#a09f0cc8c38c23a276f293cf8edcd1925" target="_top" xlink:title="Read a configuration from a file.">
<polygon fill="white" stroke="#666666" points="111,-30 0,-30 0,0 111,0 111,-30"/>
<text text-anchor="start" x="8" y="-18" font-family="Helvetica,sans-Serif" font-size="10.00">clk::si3_sim::Config</text>
<text text-anchor="middle" x="55.5" y="-7" font-family="Helvetica,sans-Serif" font-size="10.00">::readFromFile</text>
</a>
</g>
</g>
<!-- Node3&#45;&gt;Node4 -->
<g id="edge3_Node000003_Node000004" class="edge">
<title>Node3&#45;&gt;Node4</title>
<g id="a_edge3_Node000003_Node000004"><a xlink:title=" ">
<path fill="none" stroke="#63b8ff" d="M136.54,-15C128.14,-15 119.61,-15 111.4,-15"/>
<polygon fill="#63b8ff" stroke="#63b8ff" points="136.68,-18.5 146.68,-15 136.68,-11.5 136.68,-18.5"/>
</a>
</g>
</g>
</g>
</svg>
