<?xml version="1.0" encoding="UTF-8" standalone="no"?>
<!DOCTYPE svg PUBLIC "-//W3C//DTD SVG 1.1//EN"
 "http://www.w3.org/Graphics/SVG/1.1/DTD/svg11.dtd">
<!-- Generated by graphviz version 2.43.0 (0)
 -->
<!-- Title: clk::si3_sim::Si3Sim::scheduleDay Pages: 1 -->
<svg width="448pt" height="86pt"
 viewBox="0.00 0.00 448.00 86.00" xmlns="http://www.w3.org/2000/svg" xmlns:xlink="http://www.w3.org/1999/xlink">
<g id="graph0" class="graph" transform="scale(1 1) rotate(0) translate(4 82)">
<title>clk::si3_sim::Si3Sim::scheduleDay</title>
<!-- Node1 -->
<g id="Node000001" class="node">
<title>Node1</title>
<g id="a_Node000001"><a xlink:title="Get the current schedule day.">
<polygon fill="#999999" stroke="#666666" points="440,-54 326,-54 326,-24 440,-24 440,-54"/>
<text text-anchor="start" x="334" y="-42" font-family="Helvetica,sans-Serif" font-size="10.00">clk::si3_sim::Si3Sim</text>
<text text-anchor="middle" x="383" y="-31" font-family="Helvetica,sans-Serif" font-size="10.00">::scheduleDay</text>
</a>
</g>
</g>
<!-- Node2 -->
<g id="Node000002" class="node">
<title>Node2</title>
<g id="a_Node000002"><a xlink:href="structclk_1_1si3__sim_1_1Si3Sim.html#ac25a7d32cb0802f01b1796c979cd9771" target="_top" xlink:title="find the first measurement event after the current time">
<polygon fill="white" stroke="#666666" points="290,-78 150,-78 150,-48 290,-48 290,-78"/>
<text text-anchor="start" x="158" y="-66" font-family="Helvetica,sans-Serif" font-size="10.00">clk::si3_sim::Si3Sim</text>
<text text-anchor="middle" x="220" y="-55" font-family="Helvetica,sans-Serif" font-size="10.00">::nextMeasurementEvent</text>
</a>
</g>
</g>
<!-- Node1&#45;&gt;Node2 -->
<g id="edge1_Node000001_Node000002" class="edge">
<title>Node1&#45;&gt;Node2</title>
<g id="a_edge1_Node000001_Node000002"><a xlink:title=" ">
<path fill="none" stroke="#63b8ff" d="M315.55,-48.91C307.12,-50.16 298.49,-51.45 290.03,-52.71"/>
<polygon fill="#63b8ff" stroke="#63b8ff" points="316.32,-52.33 325.69,-47.39 315.28,-45.41 316.32,-52.33"/>
</a>
</g>
</g>
<!-- Node4 -->
<g id="Node000004" class="node">
<title>Node4</title>
<g id="a_Node000004"><a xlink:href="structclk_1_1si3__sim_1_1Si3Sim.html#a9e67ccf25001ad917a3d183febee082a" target="_top" xlink:title="Get the start time for the next occurance of the measurement event.">
<polygon fill="white" stroke="#666666" points="277,-30 163,-30 163,0 277,0 277,-30"/>
<text text-anchor="start" x="171" y="-18" font-family="Helvetica,sans-Serif" font-size="10.00">clk::si3_sim::Si3Sim</text>
<text text-anchor="middle" x="220" y="-7" font-family="Helvetica,sans-Serif" font-size="10.00">::nextStart</text>
</a>
</g>
</g>
<!-- Node1&#45;&gt;Node4 -->
<g id="edge3_Node000001_Node000004" class="edge">
<title>Node1&#45;&gt;Node4</title>
<g id="a_edge3_Node000001_Node000004"><a xlink:title=" ">
<path fill="none" stroke="#63b8ff" d="M315.55,-29.09C302.74,-27.18 289.44,-25.2 277.01,-23.35"/>
<polygon fill="#63b8ff" stroke="#63b8ff" points="315.28,-32.59 325.69,-30.61 316.32,-25.67 315.28,-32.59"/>
</a>
</g>
</g>
<!-- Node3 -->
<g id="Node000003" class="node">
<title>Node3</title>
<g id="a_Node000003"><a xlink:href="structclk_1_1si3__sim_1_1Si3Sim.html#a64baf869324064ea80664905356dc872" target="_top" xlink:title="Generate the data for the si3 sim.">
<polygon fill="white" stroke="#666666" points="114,-54 0,-54 0,-24 114,-24 114,-54"/>
<text text-anchor="start" x="8" y="-42" font-family="Helvetica,sans-Serif" font-size="10.00">clk::si3_sim::Si3Sim</text>
<text text-anchor="middle" x="57" y="-31" font-family="Helvetica,sans-Serif" font-size="10.00">::generateData</text>
</a>
</g>
</g>
<!-- Node2&#45;&gt;Node3 -->
<g id="edge2_Node000002_Node000003" class="edge">
<title>Node2&#45;&gt;Node3</title>
<g id="a_edge2_Node000002_Node000003"><a xlink:title=" ">
<path fill="none" stroke="#63b8ff" d="M139.66,-51.17C131.01,-49.88 122.34,-48.59 114.06,-47.36"/>
<polygon fill="#63b8ff" stroke="#63b8ff" points="139.38,-54.67 149.79,-52.68 140.41,-47.75 139.38,-54.67"/>
</a>
</g>
</g>
<!-- Node4&#45;&gt;Node3 -->
<g id="edge4_Node000004_Node000003" class="edge">
<title>Node4&#45;&gt;Node3</title>
<g id="a_edge4_Node000004_Node000003"><a xlink:title=" ">
<path fill="none" stroke="#63b8ff" d="M152.55,-24.91C139.74,-26.82 126.44,-28.8 114.01,-30.65"/>
<polygon fill="#63b8ff" stroke="#63b8ff" points="153.32,-28.33 162.69,-23.39 152.28,-21.41 153.32,-28.33"/>
</a>
</g>
</g>
</g>
</svg>
