<?xml version="1.0" encoding="UTF-8" standalone="no"?>
<!DOCTYPE svg PUBLIC "-//W3C//DTD SVG 1.1//EN"
 "http://www.w3.org/Graphics/SVG/1.1/DTD/svg11.dtd">
<!-- Generated by graphviz version 2.43.0 (0)
 -->
<!-- Title: clk::si3_sim::Si3Sim::generateData Pages: 1 -->
<svg width="681pt" height="666pt"
 viewBox="0.00 0.00 681.00 666.00" xmlns="http://www.w3.org/2000/svg" xmlns:xlink="http://www.w3.org/1999/xlink">
<g id="graph0" class="graph" transform="scale(1 1) rotate(0) translate(4 662)">
<title>clk::si3_sim::Si3Sim::generateData</title>
<!-- Node1 -->
<g id="Node000001" class="node">
<title>Node1</title>
<g id="a_Node000001"><a xlink:title="Generate the data for the si3 sim.">
<polygon fill="#999999" stroke="#666666" points="114,-363 0,-363 0,-333 114,-333 114,-363"/>
<text text-anchor="start" x="8" y="-351" font-family="Helvetica,sans-Serif" font-size="10.00">clk::si3_sim::Si3Sim</text>
<text text-anchor="middle" x="57" y="-340" font-family="Helvetica,sans-Serif" font-size="10.00">::generateData</text>
</a>
</g>
</g>
<!-- Node2 -->
<g id="Node000002" class="node">
<title>Node2</title>
<g id="a_Node000002"><a xlink:href="structclk_1_1si3__sim_1_1Config.html#a9bd9f88fbb1b213a7a31478efebd6ed7" target="_top" xlink:title=" ">
<polygon fill="white" stroke="#666666" points="275.5,-658 164.5,-658 164.5,-628 275.5,-628 275.5,-658"/>
<text text-anchor="start" x="172.5" y="-646" font-family="Helvetica,sans-Serif" font-size="10.00">clk::si3_sim::Config</text>
<text text-anchor="middle" x="220" y="-635" font-family="Helvetica,sans-Serif" font-size="10.00">::driftRate</text>
</a>
</g>
</g>
<!-- Node1&#45;&gt;Node2 -->
<g id="edge1_Node000001_Node000002" class="edge">
<title>Node1&#45;&gt;Node2</title>
<g id="a_edge1_Node000001_Node000002"><a xlink:title=" ">
<path fill="none" stroke="#63b8ff" d="M58.68,-363.28C61.54,-408.74 76.15,-544.59 150,-619 151.67,-620.68 153.46,-622.25 155.35,-623.7"/>
<polygon fill="#63b8ff" stroke="#63b8ff" points="153.88,-626.92 164.18,-629.41 157.68,-621.04 153.88,-626.92"/>
</a>
</g>
</g>
<!-- Node3 -->
<g id="Node000003" class="node">
<title>Node3</title>
<g id="a_Node000003"><a xlink:href="structclk_1_1si3__sim_1_1Config.html#a759cda6d176130bde73fdec9c7ce2284" target="_top" xlink:title=" ">
<polygon fill="white" stroke="#666666" points="275.5,-610 164.5,-610 164.5,-580 275.5,-580 275.5,-610"/>
<text text-anchor="start" x="172.5" y="-598" font-family="Helvetica,sans-Serif" font-size="10.00">clk::si3_sim::Config</text>
<text text-anchor="middle" x="220" y="-587" font-family="Helvetica,sans-Serif" font-size="10.00">::endTime</text>
</a>
</g>
</g>
<!-- Node1&#45;&gt;Node3 -->
<g id="edge2_Node000001_Node000003" class="edge">
<title>Node1&#45;&gt;Node3</title>
<g id="a_edge2_Node000001_Node000003"><a xlink:title=" ">
<path fill="none" stroke="#63b8ff" d="M59.94,-363.13C65.83,-402.93 87.14,-511.6 150,-571 151.72,-572.63 153.56,-574.15 155.49,-575.56"/>
<polygon fill="#63b8ff" stroke="#63b8ff" points="154.1,-578.82 164.44,-581.14 157.8,-572.88 154.1,-578.82"/>
</a>
</g>
</g>
<!-- Node4 -->
<g id="Node000004" class="node">
<title>Node4</title>
<g id="a_Node000004"><a xlink:href="structclk_1_1si3__sim_1_1Config.html#a448cc5eca66f692912a052a70765be43" target="_top" xlink:title=" ">
<polygon fill="white" stroke="#666666" points="275.5,-562 164.5,-562 164.5,-532 275.5,-532 275.5,-562"/>
<text text-anchor="start" x="172.5" y="-550" font-family="Helvetica,sans-Serif" font-size="10.00">clk::si3_sim::Config</text>
<text text-anchor="middle" x="220" y="-539" font-family="Helvetica,sans-Serif" font-size="10.00">::lastRunRecord</text>
</a>
</g>
</g>
<!-- Node1&#45;&gt;Node4 -->
<g id="edge3_Node000001_Node000004" class="edge">
<title>Node1&#45;&gt;Node4</title>
<g id="a_edge3_Node000001_Node000004"><a xlink:title=" ">
<path fill="none" stroke="#63b8ff" d="M62.45,-363.35C72.66,-396.09 100.77,-473.38 150,-518 153.66,-521.32 157.75,-524.29 162.07,-526.94"/>
<polygon fill="#63b8ff" stroke="#63b8ff" points="160.73,-530.2 171.18,-531.96 164.11,-524.07 160.73,-530.2"/>
</a>
</g>
</g>
<!-- Node5 -->
<g id="Node000005" class="node">
<title>Node5</title>
<g id="a_Node000005"><a xlink:href="structclk_1_1si3__sim_1_1Si3Sim.html#ac25a7d32cb0802f01b1796c979cd9771" target="_top" xlink:title="find the first measurement event after the current time">
<polygon fill="white" stroke="#666666" points="290,-476 150,-476 150,-446 290,-446 290,-476"/>
<text text-anchor="start" x="158" y="-464" font-family="Helvetica,sans-Serif" font-size="10.00">clk::si3_sim::Si3Sim</text>
<text text-anchor="middle" x="220" y="-453" font-family="Helvetica,sans-Serif" font-size="10.00">::nextMeasurementEvent</text>
</a>
</g>
</g>
<!-- Node1&#45;&gt;Node5 -->
<g id="edge4_Node000001_Node000005" class="edge">
<title>Node1&#45;&gt;Node5</title>
<g id="a_edge4_Node000001_Node000005"><a xlink:title=" ">
<path fill="none" stroke="#63b8ff" d="M70.14,-363.31C86.4,-382.9 117.07,-416.73 150,-437 152.62,-438.61 155.35,-440.13 158.17,-441.56"/>
<polygon fill="#63b8ff" stroke="#63b8ff" points="156.82,-444.79 167.36,-445.85 159.77,-438.45 156.82,-444.79"/>
</a>
</g>
</g>
<!-- Node14 -->
<g id="Node000014" class="node">
<title>Node14</title>
<g id="a_Node000014"><a xlink:href="structclk_1_1misc__lib_1_1DateTime.html#ae13f5a3680b8cb0f362850c43d86b329" target="_top" xlink:title="Get the time of day of the time point.">
<polygon fill="white" stroke="#666666" points="469,-519 338,-519 338,-489 469,-489 469,-519"/>
<text text-anchor="start" x="346" y="-507" font-family="Helvetica,sans-Serif" font-size="10.00">clk::misc_lib::DateTime</text>
<text text-anchor="middle" x="403.5" y="-496" font-family="Helvetica,sans-Serif" font-size="10.00">::timeOfDay</text>
</a>
</g>
</g>
<!-- Node1&#45;&gt;Node14 -->
<g id="edge25_Node000001_Node000014" class="edge">
<title>Node1&#45;&gt;Node14</title>
<g id="a_edge25_Node000001_Node000014"><a xlink:title=" ">
<path fill="none" stroke="#63b8ff" d="M63.12,-363.29C73.9,-392.78 101.97,-457.03 150,-485 203.53,-516.17 274.64,-518.78 327.75,-514.83"/>
<polygon fill="#63b8ff" stroke="#63b8ff" points="328.12,-518.31 337.79,-513.99 327.53,-511.34 328.12,-518.31"/>
</a>
</g>
</g>
<!-- Node15 -->
<g id="Node000015" class="node">
<title>Node15</title>
<g id="a_Node000015"><a xlink:href="structclk_1_1si3__sim_1_1Si3Sim.html#a9e67ccf25001ad917a3d183febee082a" target="_top" xlink:title="Get the start time for the next occurance of the measurement event.">
<polygon fill="white" stroke="#666666" points="277,-428 163,-428 163,-398 277,-398 277,-428"/>
<text text-anchor="start" x="171" y="-416" font-family="Helvetica,sans-Serif" font-size="10.00">clk::si3_sim::Si3Sim</text>
<text text-anchor="middle" x="220" y="-405" font-family="Helvetica,sans-Serif" font-size="10.00">::nextStart</text>
</a>
</g>
</g>
<!-- Node1&#45;&gt;Node15 -->
<g id="edge14_Node000001_Node000015" class="edge">
<title>Node1&#45;&gt;Node15</title>
<g id="a_edge14_Node000001_Node000015"><a xlink:title=" ">
<path fill="none" stroke="#63b8ff" d="M95.34,-363.08C118.22,-372.31 147.71,-384.22 172.14,-394.08"/>
<polygon fill="#63b8ff" stroke="#63b8ff" points="171,-397.4 181.58,-397.89 173.62,-390.9 171,-397.4"/>
</a>
</g>
</g>
<!-- Node17 -->
<g id="Node000017" class="node">
<title>Node17</title>
<g id="a_Node000017"><a xlink:href="structclk_1_1misc__lib_1_1DateTime.html#a7310aa8f1068883206cec0f07b493b7d" target="_top" xlink:title="Set the time of day for the time point.">
<polygon fill="white" stroke="#666666" points="469,-337 338,-337 338,-307 469,-307 469,-337"/>
<text text-anchor="start" x="346" y="-325" font-family="Helvetica,sans-Serif" font-size="10.00">clk::misc_lib::DateTime</text>
<text text-anchor="middle" x="403.5" y="-314" font-family="Helvetica,sans-Serif" font-size="10.00">::setTime</text>
</a>
</g>
</g>
<!-- Node1&#45;&gt;Node17 -->
<g id="edge22_Node000001_Node000017" class="edge">
<title>Node1&#45;&gt;Node17</title>
<g id="a_edge22_Node000001_Node000017"><a xlink:title=" ">
<path fill="none" stroke="#63b8ff" d="M114.43,-350.13C126.18,-350.49 138.5,-350.81 150,-351 212.21,-352.01 228.27,-358.83 290,-351 308.15,-348.7 327.56,-344.39 345.06,-339.78"/>
<polygon fill="#63b8ff" stroke="#63b8ff" points="346.39,-343.05 355.12,-337.05 344.55,-336.29 346.39,-343.05"/>
</a>
</g>
</g>
<!-- Node19 -->
<g id="Node000019" class="node">
<title>Node19</title>
<g id="a_Node000019"><a xlink:href="structclk_1_1misc__lib_1_1DateTime.html#a7165ad31ae2540b4f19a784f9310c17e" target="_top" xlink:title="Subtract another DateTime from this one.">
<polygon fill="white" stroke="#666666" points="285.5,-342 154.5,-342 154.5,-312 285.5,-312 285.5,-342"/>
<text text-anchor="start" x="162.5" y="-330" font-family="Helvetica,sans-Serif" font-size="10.00">clk::misc_lib::DateTime</text>
<text text-anchor="middle" x="220" y="-319" font-family="Helvetica,sans-Serif" font-size="10.00">::secondsSince</text>
</a>
</g>
</g>
<!-- Node1&#45;&gt;Node19 -->
<g id="edge21_Node000001_Node000019" class="edge">
<title>Node1&#45;&gt;Node19</title>
<g id="a_edge21_Node000001_Node000019"><a xlink:title=" ">
<path fill="none" stroke="#63b8ff" d="M114.31,-340.66C124.04,-339.39 134.28,-338.05 144.4,-336.73"/>
<polygon fill="#63b8ff" stroke="#63b8ff" points="144.99,-340.18 154.45,-335.42 144.08,-333.24 144.99,-340.18"/>
</a>
</g>
</g>
<!-- Node20 -->
<g id="Node000020" class="node">
<title>Node20</title>
<g id="a_Node000020"><a xlink:href="structclk_1_1si3__sim_1_1Config.html#a9bafe691f3cf10222343c68156f4455d" target="_top" xlink:title=" ">
<polygon fill="white" stroke="#666666" points="275.5,-294 164.5,-294 164.5,-264 275.5,-264 275.5,-294"/>
<text text-anchor="start" x="172.5" y="-282" font-family="Helvetica,sans-Serif" font-size="10.00">clk::si3_sim::Config</text>
<text text-anchor="middle" x="220" y="-271" font-family="Helvetica,sans-Serif" font-size="10.00">::startFrequency</text>
</a>
</g>
</g>
<!-- Node1&#45;&gt;Node20 -->
<g id="edge23_Node000001_Node000020" class="edge">
<title>Node1&#45;&gt;Node20</title>
<g id="a_edge23_Node000001_Node000020"><a xlink:title=" ">
<path fill="none" stroke="#63b8ff" d="M86.6,-332.91C104.55,-323.71 128.34,-312.03 150,-303 154.38,-301.18 158.95,-299.37 163.57,-297.62"/>
<polygon fill="#63b8ff" stroke="#63b8ff" points="164.89,-300.86 173.06,-294.11 162.46,-294.3 164.89,-300.86"/>
</a>
</g>
</g>
<!-- Node21 -->
<g id="Node000021" class="node">
<title>Node21</title>
<g id="a_Node000021"><a xlink:href="structclk_1_1si3__sim_1_1Config.html#a10475920ce0b73bda6b5f39d63d9bdde" target="_top" xlink:title=" ">
<polygon fill="white" stroke="#666666" points="275.5,-246 164.5,-246 164.5,-216 275.5,-216 275.5,-246"/>
<text text-anchor="start" x="172.5" y="-234" font-family="Helvetica,sans-Serif" font-size="10.00">clk::si3_sim::Config</text>
<text text-anchor="middle" x="220" y="-223" font-family="Helvetica,sans-Serif" font-size="10.00">::startTime</text>
</a>
</g>
</g>
<!-- Node1&#45;&gt;Node21 -->
<g id="edge24_Node000001_Node000021" class="edge">
<title>Node1&#45;&gt;Node21</title>
<g id="a_edge24_Node000001_Node000021"><a xlink:title=" ">
<path fill="none" stroke="#63b8ff" d="M69.43,-332.68C85.39,-312.29 116.19,-276.33 150,-255 152.6,-253.36 155.32,-251.82 158.12,-250.37"/>
<polygon fill="#63b8ff" stroke="#63b8ff" points="159.74,-253.47 167.29,-246.04 156.75,-247.14 159.74,-253.47"/>
</a>
</g>
</g>
<!-- Node22 -->
<g id="Node000022" class="node">
<title>Node22</title>
<g id="a_Node000022"><a xlink:href="structclk_1_1misc__lib_1_1DateTime.html#add09b1cd23d7e28e8c6fbb70bd7b4553" target="_top" xlink:title="Convert the DateTime object to a Unix timestamp in milliseconds.">
<polygon fill="white" stroke="#666666" points="285.5,-198 154.5,-198 154.5,-168 285.5,-168 285.5,-198"/>
<text text-anchor="start" x="162.5" y="-186" font-family="Helvetica,sans-Serif" font-size="10.00">clk::misc_lib::DateTime</text>
<text text-anchor="middle" x="220" y="-175" font-family="Helvetica,sans-Serif" font-size="10.00">::toMilliUnixTimestamp</text>
</a>
</g>
</g>
<!-- Node1&#45;&gt;Node22 -->
<g id="edge26_Node000001_Node000022" class="edge">
<title>Node1&#45;&gt;Node22</title>
<g id="a_edge26_Node000001_Node000022"><a xlink:title=" ">
<path fill="none" stroke="#63b8ff" d="M63.9,-332.9C75.84,-304.25 105.56,-241.75 150,-207 151.79,-205.6 153.66,-204.28 155.6,-203.04"/>
<polygon fill="#63b8ff" stroke="#63b8ff" points="157.47,-206 164.46,-198.04 154.03,-199.91 157.47,-206"/>
</a>
</g>
</g>
<!-- Node23 -->
<g id="Node000023" class="node">
<title>Node23</title>
<g id="a_Node000023"><a xlink:href="structclk_1_1misc__lib_1_1DateTime.html#ac4e7544ff9c40a8b93aab2fbdd5ea707" target="_top" xlink:title="Convert the DateTime object to a simple string representation.">
<polygon fill="white" stroke="#666666" points="285.5,-150 154.5,-150 154.5,-120 285.5,-120 285.5,-150"/>
<text text-anchor="start" x="162.5" y="-138" font-family="Helvetica,sans-Serif" font-size="10.00">clk::misc_lib::DateTime</text>
<text text-anchor="middle" x="220" y="-127" font-family="Helvetica,sans-Serif" font-size="10.00">::toSimpleString</text>
</a>
</g>
</g>
<!-- Node1&#45;&gt;Node23 -->
<g id="edge27_Node000001_Node000023" class="edge">
<title>Node1&#45;&gt;Node23</title>
<g id="a_edge27_Node000001_Node000023"><a xlink:title=" ">
<path fill="none" stroke="#63b8ff" d="M61.2,-332.85C69.47,-297.33 94.88,-207.95 150,-159 151.34,-157.81 152.73,-156.68 154.18,-155.61"/>
<polygon fill="#63b8ff" stroke="#63b8ff" points="156.4,-158.35 162.97,-150.04 152.65,-152.44 156.4,-158.35"/>
</a>
</g>
</g>
<!-- Node30 -->
<g id="Node000030" class="node">
<title>Node30</title>
<g id="a_Node000030"><a xlink:href="structclk_1_1si3__sim_1_1Config.html#a79c68f770974d265b018338fd42b259f" target="_top" xlink:title="Update the last run record for the simulation.">
<polygon fill="white" stroke="#666666" points="284.5,-102 155.5,-102 155.5,-72 284.5,-72 284.5,-102"/>
<text text-anchor="start" x="163.5" y="-90" font-family="Helvetica,sans-Serif" font-size="10.00">clk::si3_sim::Config</text>
<text text-anchor="middle" x="220" y="-79" font-family="Helvetica,sans-Serif" font-size="10.00">::updateLastRunRecord</text>
</a>
</g>
</g>
<!-- Node1&#45;&gt;Node30 -->
<g id="edge34_Node000001_Node000030" class="edge">
<title>Node1&#45;&gt;Node30</title>
<g id="a_edge34_Node000001_Node000030"><a xlink:title=" ">
<path fill="none" stroke="#63b8ff" d="M59.52,-332.85C64.49,-291.36 83.94,-174.75 150,-111 151.11,-109.93 152.28,-108.9 153.48,-107.92"/>
<polygon fill="#63b8ff" stroke="#63b8ff" points="155.72,-110.63 161.99,-102.09 151.76,-104.86 155.72,-110.63"/>
</a>
</g>
</g>
<!-- Node31 -->
<g id="Node000031" class="node">
<title>Node31</title>
<g id="a_Node000031"><a xlink:href="structclk_1_1si3__sim_1_1Config.html#a5db56278c848137d84f616f05e9d6232" target="_top" xlink:title=" ">
<polygon fill="white" stroke="#666666" points="281.5,-54 158.5,-54 158.5,-24 281.5,-24 281.5,-54"/>
<text text-anchor="start" x="166.5" y="-42" font-family="Helvetica,sans-Serif" font-size="10.00">clk::si3_sim::Config</text>
<text text-anchor="middle" x="220" y="-31" font-family="Helvetica,sans-Serif" font-size="10.00">::useUnixTimestamps</text>
</a>
</g>
</g>
<!-- Node1&#45;&gt;Node31 -->
<g id="edge35_Node000001_Node000031" class="edge">
<title>Node1&#45;&gt;Node31</title>
<g id="a_edge35_Node000001_Node000031"><a xlink:title=" ">
<path fill="none" stroke="#63b8ff" d="M58.38,-332.95C60.36,-286.22 72.76,-142 150,-63 151.05,-61.92 152.16,-60.89 153.3,-59.91"/>
<polygon fill="#63b8ff" stroke="#63b8ff" points="155.36,-62.75 161.44,-54.07 151.27,-57.06 155.36,-62.75"/>
</a>
</g>
</g>
<!-- Node6 -->
<g id="Node000006" class="node">
<title>Node6</title>
<g id="a_Node000006"><a xlink:href="structclk_1_1si3__sim_1_1Config.html#a4a62ed93612e6e9ce4119903d0ae85b2" target="_top" xlink:title=" ">
<polygon fill="white" stroke="#666666" points="465.5,-567 341.5,-567 341.5,-537 465.5,-537 465.5,-567"/>
<text text-anchor="start" x="349.5" y="-555" font-family="Helvetica,sans-Serif" font-size="10.00">clk::si3_sim::Config</text>
<text text-anchor="middle" x="403.5" y="-544" font-family="Helvetica,sans-Serif" font-size="10.00">::measurementEvents</text>
</a>
</g>
</g>
<!-- Node5&#45;&gt;Node6 -->
<g id="edge5_Node000005_Node000006" class="edge">
<title>Node5&#45;&gt;Node6</title>
<g id="a_edge5_Node000005_Node000006"><a xlink:title=" ">
<path fill="none" stroke="#63b8ff" d="M240.99,-476.04C261.46,-490.87 294.64,-513.39 326,-528 330.08,-529.9 334.36,-531.71 338.71,-533.41"/>
<polygon fill="#63b8ff" stroke="#63b8ff" points="337.73,-536.78 348.32,-536.97 340.16,-530.21 337.73,-536.78"/>
</a>
</g>
</g>
<!-- Node7 -->
<g id="Node000007" class="node">
<title>Node7</title>
<g id="a_Node000007"><a xlink:href="structclk_1_1si3__sim_1_1Si3Sim.html#aad0b41bfeec82f9da4e8447639bb8819" target="_top" xlink:title="Get the current schedule day.">
<polygon fill="white" stroke="#666666" points="460.5,-471 346.5,-471 346.5,-441 460.5,-441 460.5,-471"/>
<text text-anchor="start" x="354.5" y="-459" font-family="Helvetica,sans-Serif" font-size="10.00">clk::si3_sim::Si3Sim</text>
<text text-anchor="middle" x="403.5" y="-448" font-family="Helvetica,sans-Serif" font-size="10.00">::scheduleDay</text>
</a>
</g>
</g>
<!-- Node5&#45;&gt;Node7 -->
<g id="edge6_Node000005_Node000007" class="edge">
<title>Node5&#45;&gt;Node7</title>
<g id="a_edge6_Node000005_Node000007"><a xlink:title=" ">
<path fill="none" stroke="#63b8ff" d="M290.14,-459.1C305.19,-458.68 321.09,-458.24 336.05,-457.83"/>
<polygon fill="#63b8ff" stroke="#63b8ff" points="336.32,-461.32 346.22,-457.55 336.13,-454.33 336.32,-461.32"/>
</a>
</g>
</g>
<!-- Node5&#45;&gt;Node14 -->
<g id="edge13_Node000005_Node000014" class="edge">
<title>Node5&#45;&gt;Node14</title>
<g id="a_edge13_Node000005_Node000014"><a xlink:title=" ">
<path fill="none" stroke="#63b8ff" d="M284.48,-476.04C298.85,-479.44 314.22,-483.09 328.97,-486.58"/>
<polygon fill="#63b8ff" stroke="#63b8ff" points="328.52,-490.07 339.06,-488.97 330.13,-483.26 328.52,-490.07"/>
</a>
</g>
</g>
<!-- Node8 -->
<g id="Node000008" class="node">
<title>Node8</title>
<g id="a_Node000008"><a xlink:href="structclk_1_1misc__lib_1_1DateTime.html#aa39a8d12e8298c9d2839d00655a40e25" target="_top" xlink:title="Get the day of the month of the time point.">
<polygon fill="white" stroke="#666666" points="660.5,-567 529.5,-567 529.5,-537 660.5,-537 660.5,-567"/>
<text text-anchor="start" x="537.5" y="-555" font-family="Helvetica,sans-Serif" font-size="10.00">clk::misc_lib::DateTime</text>
<text text-anchor="middle" x="595" y="-544" font-family="Helvetica,sans-Serif" font-size="10.00">::dayOfMonth</text>
</a>
</g>
</g>
<!-- Node7&#45;&gt;Node8 -->
<g id="edge7_Node000007_Node000008" class="edge">
<title>Node7&#45;&gt;Node8</title>
<g id="a_edge7_Node000007_Node000008"><a xlink:title=" ">
<path fill="none" stroke="#63b8ff" d="M460.76,-469.14C467.91,-472.08 474.86,-475.66 481,-480 502.77,-495.4 495.22,-512.62 517,-528 519.1,-529.48 521.3,-530.88 523.57,-532.19"/>
<polygon fill="#63b8ff" stroke="#63b8ff" points="522.12,-535.38 532.61,-536.84 525.32,-529.15 522.12,-535.38"/>
</a>
</g>
</g>
<!-- Node9 -->
<g id="Node000009" class="node">
<title>Node9</title>
<g id="a_Node000009"><a xlink:href="structclk_1_1misc__lib_1_1DateTime.html#a745eee7ebd157f7f9090a5ef0f70ed67" target="_top" xlink:title="Get the weekday of the time point.">
<polygon fill="white" stroke="#666666" points="660.5,-519 529.5,-519 529.5,-489 660.5,-489 660.5,-519"/>
<text text-anchor="start" x="537.5" y="-507" font-family="Helvetica,sans-Serif" font-size="10.00">clk::misc_lib::DateTime</text>
<text text-anchor="middle" x="595" y="-496" font-family="Helvetica,sans-Serif" font-size="10.00">::dayOfWeek</text>
</a>
</g>
</g>
<!-- Node7&#45;&gt;Node9 -->
<g id="edge8_Node000007_Node000009" class="edge">
<title>Node7&#45;&gt;Node9</title>
<g id="a_edge8_Node000007_Node000009"><a xlink:title=" ">
<path fill="none" stroke="#63b8ff" d="M460.59,-470.21C480.75,-475.31 503.73,-481.14 524.87,-486.49"/>
<polygon fill="#63b8ff" stroke="#63b8ff" points="524.21,-489.93 534.76,-488.99 525.93,-483.15 524.21,-489.93"/>
</a>
</g>
</g>
<!-- Node10 -->
<g id="Node000010" class="node">
<title>Node10</title>
<g id="a_Node000010"><a xlink:href="structclk_1_1misc__lib_1_1DateTime.html#a9ecea33a44b419d4c7f1eb9ddfb45aaa" target="_top" xlink:title="Get the day of the year of the time point.">
<polygon fill="white" stroke="#666666" points="660.5,-471 529.5,-471 529.5,-441 660.5,-441 660.5,-471"/>
<text text-anchor="start" x="537.5" y="-459" font-family="Helvetica,sans-Serif" font-size="10.00">clk::misc_lib::DateTime</text>
<text text-anchor="middle" x="595" y="-448" font-family="Helvetica,sans-Serif" font-size="10.00">::dayOfYear</text>
</a>
</g>
</g>
<!-- Node7&#45;&gt;Node10 -->
<g id="edge9_Node000007_Node000010" class="edge">
<title>Node7&#45;&gt;Node10</title>
<g id="a_edge9_Node000007_Node000010"><a xlink:title=" ">
<path fill="none" stroke="#63b8ff" d="M460.59,-456C478.99,-456 499.74,-456 519.3,-456"/>
<polygon fill="#63b8ff" stroke="#63b8ff" points="519.39,-459.5 529.39,-456 519.39,-452.5 519.39,-459.5"/>
</a>
</g>
</g>
<!-- Node11 -->
<g id="Node000011" class="node">
<title>Node11</title>
<g id="a_Node000011"><a xlink:href="structclk_1_1si3__sim_1_1Config.html#aab4332af945fefc2b44e8694b0ba1caf" target="_top" xlink:title="Get the interval for the current schedule.">
<polygon fill="white" stroke="#666666" points="650.5,-385 539.5,-385 539.5,-355 650.5,-355 650.5,-385"/>
<text text-anchor="start" x="547.5" y="-373" font-family="Helvetica,sans-Serif" font-size="10.00">clk::si3_sim::Config</text>
<text text-anchor="middle" x="595" y="-362" font-family="Helvetica,sans-Serif" font-size="10.00">::interval</text>
</a>
</g>
</g>
<!-- Node7&#45;&gt;Node11 -->
<g id="edge10_Node000007_Node000011" class="edge">
<title>Node7&#45;&gt;Node11</title>
<g id="a_edge10_Node000007_Node000011"><a xlink:title=" ">
<path fill="none" stroke="#63b8ff" d="M452.29,-440.96C462.1,-437.04 472.13,-432.37 481,-427 499.31,-415.91 498.43,-405.64 517,-395 521.13,-392.64 525.51,-390.46 530.01,-388.46"/>
<polygon fill="#63b8ff" stroke="#63b8ff" points="531.44,-391.66 539.35,-384.61 528.77,-385.18 531.44,-391.66"/>
</a>
</g>
</g>
<!-- Node12 -->
<g id="Node000012" class="node">
<title>Node12</title>
<g id="a_Node000012"><a xlink:href="structclk_1_1misc__lib_1_1DateTime.html#a01d736f8e2fb0537bb0b94619c14a27f" target="_top" xlink:title="Get the Modified Julian Date (MJD) of the time point.">
<polygon fill="white" stroke="#666666" points="673,-422.5 517,-422.5 517,-403.5 673,-403.5 673,-422.5"/>
<text text-anchor="middle" x="595" y="-410.5" font-family="Helvetica,sans-Serif" font-size="10.00">clk::misc_lib::DateTime::mjd</text>
</a>
</g>
</g>
<!-- Node7&#45;&gt;Node12 -->
<g id="edge11_Node000007_Node000012" class="edge">
<title>Node7&#45;&gt;Node12</title>
<g id="a_edge11_Node000007_Node000012"><a xlink:title=" ">
<path fill="none" stroke="#63b8ff" d="M460.59,-443.27C486.41,-437.41 516.85,-430.51 542.14,-424.77"/>
<polygon fill="#63b8ff" stroke="#63b8ff" points="542.93,-428.18 551.91,-422.55 541.38,-421.35 542.93,-428.18"/>
</a>
</g>
</g>
<!-- Node13 -->
<g id="Node000013" class="node">
<title>Node13</title>
<g id="a_Node000013"><a xlink:href="structclk_1_1si3__sim_1_1Config.html#a9f523338979bcb682cbd847579a6239d" target="_top" xlink:title=" ">
<polygon fill="white" stroke="#666666" points="650.5,-615 539.5,-615 539.5,-585 650.5,-585 650.5,-615"/>
<text text-anchor="start" x="547.5" y="-603" font-family="Helvetica,sans-Serif" font-size="10.00">clk::si3_sim::Config</text>
<text text-anchor="middle" x="595" y="-592" font-family="Helvetica,sans-Serif" font-size="10.00">::runSchedule</text>
</a>
</g>
</g>
<!-- Node7&#45;&gt;Node13 -->
<g id="edge12_Node000007_Node000013" class="edge">
<title>Node7&#45;&gt;Node13</title>
<g id="a_edge12_Node000007_Node000013"><a xlink:title=" ">
<path fill="none" stroke="#63b8ff" d="M460.87,-467.07C468.25,-470.33 475.24,-474.55 481,-480 514.09,-511.33 483.88,-544.7 517,-576 520.85,-579.63 525.23,-582.72 529.92,-585.33"/>
<polygon fill="#63b8ff" stroke="#63b8ff" points="528.7,-588.63 539.23,-589.81 531.74,-582.33 528.7,-588.63"/>
</a>
</g>
</g>
<!-- Node15&#45;&gt;Node7 -->
<g id="edge17_Node000015_Node000007" class="edge">
<title>Node15&#45;&gt;Node7</title>
<g id="a_edge17_Node000015_Node000007"><a xlink:title=" ">
<path fill="none" stroke="#63b8ff" d="M277.43,-426.37C296.13,-430.8 317.11,-435.77 336.46,-440.35"/>
<polygon fill="#63b8ff" stroke="#63b8ff" points="335.88,-443.81 346.41,-442.71 337.49,-437 335.88,-443.81"/>
</a>
</g>
</g>
<!-- Node15&#45;&gt;Node11 -->
<g id="edge16_Node000015_Node000011" class="edge">
<title>Node15&#45;&gt;Node11</title>
<g id="a_edge16_Node000015_Node000011"><a xlink:title=" ">
<path fill="none" stroke="#63b8ff" d="M277.03,-411.11C329.84,-408.81 411.1,-403.93 481,-394 496.72,-391.77 513.52,-388.62 529.23,-385.34"/>
<polygon fill="#63b8ff" stroke="#63b8ff" points="530.33,-388.68 539.38,-383.17 528.87,-381.84 530.33,-388.68"/>
</a>
</g>
</g>
<!-- Node15&#45;&gt;Node14 -->
<g id="edge20_Node000015_Node000014" class="edge">
<title>Node15&#45;&gt;Node14</title>
<g id="a_edge20_Node000015_Node000014"><a xlink:title=" ">
<path fill="none" stroke="#63b8ff" d="M274.07,-428.1C279.66,-430.66 285.09,-433.61 290,-437 310.51,-451.16 305.27,-466.16 326,-480 328.39,-481.59 330.89,-483.09 333.46,-484.49"/>
<polygon fill="#63b8ff" stroke="#63b8ff" points="331.96,-487.65 342.48,-488.88 335.03,-481.35 331.96,-487.65"/>
</a>
</g>
</g>
<!-- Node16 -->
<g id="Node000016" class="node">
<title>Node16</title>
<g id="a_Node000016"><a xlink:href="structclk_1_1misc__lib_1_1DateTime.html#a4014e2caac28d136ba7d692d8eac58e8" target="_top" xlink:title="Add days to the time point.">
<polygon fill="white" stroke="#666666" points="469,-385 338,-385 338,-355 469,-355 469,-385"/>
<text text-anchor="start" x="346" y="-373" font-family="Helvetica,sans-Serif" font-size="10.00">clk::misc_lib::DateTime</text>
<text text-anchor="middle" x="403.5" y="-362" font-family="Helvetica,sans-Serif" font-size="10.00">::addDays</text>
</a>
</g>
</g>
<!-- Node15&#45;&gt;Node16 -->
<g id="edge15_Node000015_Node000016" class="edge">
<title>Node15&#45;&gt;Node16</title>
<g id="a_edge15_Node000015_Node000016"><a xlink:title=" ">
<path fill="none" stroke="#63b8ff" d="M277.43,-399.63C293.79,-395.76 311.88,-391.47 329.11,-387.39"/>
<polygon fill="#63b8ff" stroke="#63b8ff" points="330.22,-390.72 339.14,-385.01 328.6,-383.91 330.22,-390.72"/>
</a>
</g>
</g>
<!-- Node15&#45;&gt;Node17 -->
<g id="edge18_Node000015_Node000017" class="edge">
<title>Node15&#45;&gt;Node17</title>
<g id="a_edge18_Node000015_Node000017"><a xlink:title=" ">
<path fill="none" stroke="#63b8ff" d="M264.77,-397.84C273.48,-393.94 282.31,-389.32 290,-384 309.13,-370.77 306.27,-358.32 326,-346 328.63,-344.36 331.38,-342.82 334.22,-341.38"/>
<polygon fill="#63b8ff" stroke="#63b8ff" points="335.87,-344.47 343.49,-337.11 332.94,-338.11 335.87,-344.47"/>
</a>
</g>
</g>
<!-- Node18 -->
<g id="Node000018" class="node">
<title>Node18</title>
<g id="a_Node000018"><a xlink:href="structclk_1_1misc__lib_1_1Time.html#aa9e0167590fe556b087e37cc83d8092a" target="_top" xlink:title="Returns the time as a boost object.">
<polygon fill="white" stroke="#666666" points="649,-337 541,-337 541,-307 649,-307 649,-337"/>
<text text-anchor="start" x="549" y="-325" font-family="Helvetica,sans-Serif" font-size="10.00">clk::misc_lib::Time</text>
<text text-anchor="middle" x="595" y="-314" font-family="Helvetica,sans-Serif" font-size="10.00">::toBoostDuration</text>
</a>
</g>
</g>
<!-- Node17&#45;&gt;Node18 -->
<g id="edge19_Node000017_Node000018" class="edge">
<title>Node17&#45;&gt;Node18</title>
<g id="a_edge19_Node000017_Node000018"><a xlink:title=" ">
<path fill="none" stroke="#63b8ff" d="M469.19,-322C489.09,-322 510.97,-322 530.77,-322"/>
<polygon fill="#63b8ff" stroke="#63b8ff" points="530.92,-325.5 540.92,-322 530.92,-318.5 530.92,-325.5"/>
</a>
</g>
</g>
<!-- Node24 -->
<g id="Node000024" class="node">
<title>Node24</title>
<g id="a_Node000024"><a xlink:href="structclk_1_1misc__lib_1_1DateTime.html#ac81376a4152c451232881cd4e39f78a4" target="_top" xlink:title="Get the day of the month of the time point.">
<polygon fill="white" stroke="#666666" points="481,-259.5 326,-259.5 326,-240.5 481,-240.5 481,-259.5"/>
<text text-anchor="middle" x="403.5" y="-247.5" font-family="Helvetica,sans-Serif" font-size="10.00">clk::misc_lib::DateTime::day</text>
</a>
</g>
</g>
<!-- Node23&#45;&gt;Node24 -->
<g id="edge28_Node000023_Node000024" class="edge">
<title>Node23&#45;&gt;Node24</title>
<g id="a_edge28_Node000023_Node000024"><a xlink:title=" ">
<path fill="none" stroke="#63b8ff" d="M276.99,-150.09C281.67,-152.62 286.09,-155.57 290,-159 316.88,-182.62 298.08,-208.63 326,-231 328.18,-232.74 330.49,-234.33 332.91,-235.78"/>
<polygon fill="#63b8ff" stroke="#63b8ff" points="331.55,-239.01 342.06,-240.4 334.71,-232.76 331.55,-239.01"/>
</a>
</g>
</g>
<!-- Node25 -->
<g id="Node000025" class="node">
<title>Node25</title>
<g id="a_Node000025"><a xlink:href="structclk_1_1misc__lib_1_1DateTime.html#a1cde9aba22c103a9a294b7a8b74dc1f0" target="_top" xlink:title="Get the hour of the time point.">
<polygon fill="white" stroke="#666666" points="469,-222 338,-222 338,-192 469,-192 469,-222"/>
<text text-anchor="start" x="346" y="-210" font-family="Helvetica,sans-Serif" font-size="10.00">clk::misc_lib::DateTime</text>
<text text-anchor="middle" x="403.5" y="-199" font-family="Helvetica,sans-Serif" font-size="10.00">::hour</text>
</a>
</g>
</g>
<!-- Node23&#45;&gt;Node25 -->
<g id="edge29_Node000023_Node000025" class="edge">
<title>Node23&#45;&gt;Node25</title>
<g id="a_edge29_Node000023_Node000025"><a xlink:title=" ">
<path fill="none" stroke="#63b8ff" d="M269.53,-150.13C276.51,-152.81 283.53,-155.78 290,-159 307.22,-167.56 308.65,-174.71 326,-183 329.99,-184.91 334.17,-186.71 338.44,-188.41"/>
<polygon fill="#63b8ff" stroke="#63b8ff" points="337.26,-191.71 347.85,-191.95 339.72,-185.16 337.26,-191.71"/>
</a>
</g>
</g>
<!-- Node26 -->
<g id="Node000026" class="node">
<title>Node26</title>
<g id="a_Node000026"><a xlink:href="structclk_1_1misc__lib_1_1DateTime.html#ae97747961f59194776a6aaac91c495c8" target="_top" xlink:title="Get the minute of the time point.">
<polygon fill="white" stroke="#666666" points="469,-174 338,-174 338,-144 469,-144 469,-174"/>
<text text-anchor="start" x="346" y="-162" font-family="Helvetica,sans-Serif" font-size="10.00">clk::misc_lib::DateTime</text>
<text text-anchor="middle" x="403.5" y="-151" font-family="Helvetica,sans-Serif" font-size="10.00">::minute</text>
</a>
</g>
</g>
<!-- Node23&#45;&gt;Node26 -->
<g id="edge30_Node000023_Node000026" class="edge">
<title>Node23&#45;&gt;Node26</title>
<g id="a_edge30_Node000023_Node000026"><a xlink:title=" ">
<path fill="none" stroke="#63b8ff" d="M285.5,-143.53C299.19,-145.34 313.76,-147.27 327.79,-149.12"/>
<polygon fill="#63b8ff" stroke="#63b8ff" points="327.53,-152.62 337.9,-150.46 328.45,-145.68 327.53,-152.62"/>
</a>
</g>
</g>
<!-- Node27 -->
<g id="Node000027" class="node">
<title>Node27</title>
<g id="a_Node000027"><a xlink:href="structclk_1_1misc__lib_1_1DateTime.html#ac50f63d7635c88323c21c0aea2c564fc" target="_top" xlink:title="Get the month of the time point.">
<polygon fill="white" stroke="#666666" points="469,-126 338,-126 338,-96 469,-96 469,-126"/>
<text text-anchor="start" x="346" y="-114" font-family="Helvetica,sans-Serif" font-size="10.00">clk::misc_lib::DateTime</text>
<text text-anchor="middle" x="403.5" y="-103" font-family="Helvetica,sans-Serif" font-size="10.00">::month</text>
</a>
</g>
</g>
<!-- Node23&#45;&gt;Node27 -->
<g id="edge31_Node000023_Node000027" class="edge">
<title>Node23&#45;&gt;Node27</title>
<g id="a_edge31_Node000023_Node000027"><a xlink:title=" ">
<path fill="none" stroke="#63b8ff" d="M285.5,-126.47C299.19,-124.66 313.76,-122.73 327.79,-120.88"/>
<polygon fill="#63b8ff" stroke="#63b8ff" points="328.45,-124.32 337.9,-119.54 327.53,-117.38 328.45,-124.32"/>
</a>
</g>
</g>
<!-- Node28 -->
<g id="Node000028" class="node">
<title>Node28</title>
<g id="a_Node000028"><a xlink:href="structclk_1_1misc__lib_1_1DateTime.html#ac2f273b8491c35e2592547d4b126d7b5" target="_top" xlink:title="Get the second of the time point.">
<polygon fill="white" stroke="#666666" points="469,-78 338,-78 338,-48 469,-48 469,-78"/>
<text text-anchor="start" x="346" y="-66" font-family="Helvetica,sans-Serif" font-size="10.00">clk::misc_lib::DateTime</text>
<text text-anchor="middle" x="403.5" y="-55" font-family="Helvetica,sans-Serif" font-size="10.00">::seconds</text>
</a>
</g>
</g>
<!-- Node23&#45;&gt;Node28 -->
<g id="edge32_Node000023_Node000028" class="edge">
<title>Node23&#45;&gt;Node28</title>
<g id="a_edge32_Node000023_Node000028"><a xlink:title=" ">
<path fill="none" stroke="#63b8ff" d="M269.53,-119.87C276.51,-117.19 283.53,-114.22 290,-111 307.22,-102.44 308.65,-95.29 326,-87 329.99,-85.09 334.17,-83.29 338.44,-81.59"/>
<polygon fill="#63b8ff" stroke="#63b8ff" points="339.72,-84.84 347.85,-78.05 337.26,-78.29 339.72,-84.84"/>
</a>
</g>
</g>
<!-- Node29 -->
<g id="Node000029" class="node">
<title>Node29</title>
<g id="a_Node000029"><a xlink:href="structclk_1_1misc__lib_1_1DateTime.html#a5c4d34170b277de1654221b6572c9c54" target="_top" xlink:title="Get the year of the time point.">
<polygon fill="white" stroke="#666666" points="469,-30 338,-30 338,0 469,0 469,-30"/>
<text text-anchor="start" x="346" y="-18" font-family="Helvetica,sans-Serif" font-size="10.00">clk::misc_lib::DateTime</text>
<text text-anchor="middle" x="403.5" y="-7" font-family="Helvetica,sans-Serif" font-size="10.00">::year</text>
</a>
</g>
</g>
<!-- Node23&#45;&gt;Node29 -->
<g id="edge33_Node000023_Node000029" class="edge">
<title>Node23&#45;&gt;Node29</title>
<g id="a_edge33_Node000023_Node000029"><a xlink:title=" ">
<path fill="none" stroke="#63b8ff" d="M276.99,-119.91C281.67,-117.38 286.09,-114.43 290,-111 316.88,-87.38 298.77,-62.2 326,-39 327.51,-37.71 329.09,-36.5 330.72,-35.34"/>
<polygon fill="#63b8ff" stroke="#63b8ff" points="332.6,-38.3 339.32,-30.11 328.96,-32.32 332.6,-38.3"/>
</a>
</g>
</g>
</g>
</svg>
