<?xml version="1.0" encoding="UTF-8" standalone="no"?>
<!DOCTYPE svg PUBLIC "-//W3C//DTD SVG 1.1//EN"
 "http://www.w3.org/Graphics/SVG/1.1/DTD/svg11.dtd">
<!-- Generated by graphviz version 2.43.0 (0)
 -->
<!-- Title: clk::si3_sim::Si3Sim::nextStart Pages: 1 -->
<svg width="481pt" height="316pt"
 viewBox="0.00 0.00 481.00 316.00" xmlns="http://www.w3.org/2000/svg" xmlns:xlink="http://www.w3.org/1999/xlink">
<g id="graph0" class="graph" transform="scale(1 1) rotate(0) translate(4 312)">
<title>clk::si3_sim::Si3Sim::nextStart</title>
<!-- Node1 -->
<g id="Node000001" class="node">
<title>Node1</title>
<g id="a_Node000001"><a xlink:title="Get the start time for the next occurance of the measurement event.">
<polygon fill="#999999" stroke="#666666" points="114,-188 0,-188 0,-158 114,-158 114,-188"/>
<text text-anchor="start" x="8" y="-176" font-family="Helvetica,sans-Serif" font-size="10.00">clk::si3_sim::Si3Sim</text>
<text text-anchor="middle" x="57" y="-165" font-family="Helvetica,sans-Serif" font-size="10.00">::nextStart</text>
</a>
</g>
</g>
<!-- Node2 -->
<g id="Node000002" class="node">
<title>Node2</title>
<g id="a_Node000002"><a xlink:href="structclk_1_1misc__lib_1_1DateTime.html#a4014e2caac28d136ba7d692d8eac58e8" target="_top" xlink:title="Add days to the time point.">
<polygon fill="white" stroke="#666666" points="281,-274 150,-274 150,-244 281,-244 281,-274"/>
<text text-anchor="start" x="158" y="-262" font-family="Helvetica,sans-Serif" font-size="10.00">clk::misc_lib::DateTime</text>
<text text-anchor="middle" x="215.5" y="-251" font-family="Helvetica,sans-Serif" font-size="10.00">::addDays</text>
</a>
</g>
</g>
<!-- Node1&#45;&gt;Node2 -->
<g id="edge1_Node000001_Node000002" class="edge">
<title>Node1&#45;&gt;Node2</title>
<g id="a_edge1_Node000001_Node000002"><a xlink:title=" ">
<path fill="none" stroke="#63b8ff" d="M80.57,-188.15C98.9,-200.17 125.61,-217.04 150,-230 156.12,-233.25 162.67,-236.48 169.18,-239.54"/>
<polygon fill="#63b8ff" stroke="#63b8ff" points="168.06,-242.88 178.61,-243.87 170.99,-236.52 168.06,-242.88"/>
</a>
</g>
</g>
<!-- Node3 -->
<g id="Node000003" class="node">
<title>Node3</title>
<g id="a_Node000003"><a xlink:href="structclk_1_1si3__sim_1_1Config.html#aab4332af945fefc2b44e8694b0ba1caf" target="_top" xlink:title="Get the interval for the current schedule.">
<polygon fill="white" stroke="#666666" points="450.5,-308 339.5,-308 339.5,-278 450.5,-278 450.5,-308"/>
<text text-anchor="start" x="347.5" y="-296" font-family="Helvetica,sans-Serif" font-size="10.00">clk::si3_sim::Config</text>
<text text-anchor="middle" x="395" y="-285" font-family="Helvetica,sans-Serif" font-size="10.00">::interval</text>
</a>
</g>
</g>
<!-- Node1&#45;&gt;Node3 -->
<g id="edge2_Node000001_Node000003" class="edge">
<title>Node1&#45;&gt;Node3</title>
<g id="a_edge2_Node000001_Node000003"><a xlink:title=" ">
<path fill="none" stroke="#63b8ff" d="M114.07,-187.87C177.67,-204.84 273.56,-230.8 281,-235 300.16,-245.82 298.01,-257.88 317,-269 321.09,-271.39 325.44,-273.57 329.92,-275.56"/>
<polygon fill="#63b8ff" stroke="#63b8ff" points="328.66,-278.82 339.24,-279.35 331.3,-272.34 328.66,-278.82"/>
</a>
</g>
</g>
<!-- Node4 -->
<g id="Node000004" class="node">
<title>Node4</title>
<g id="a_Node000004"><a xlink:href="structclk_1_1si3__sim_1_1Si3Sim.html#aad0b41bfeec82f9da4e8447639bb8819" target="_top" xlink:title="Get the current schedule day.">
<polygon fill="white" stroke="#666666" points="272.5,-188 158.5,-188 158.5,-158 272.5,-158 272.5,-188"/>
<text text-anchor="start" x="166.5" y="-176" font-family="Helvetica,sans-Serif" font-size="10.00">clk::si3_sim::Si3Sim</text>
<text text-anchor="middle" x="215.5" y="-165" font-family="Helvetica,sans-Serif" font-size="10.00">::scheduleDay</text>
</a>
</g>
</g>
<!-- Node1&#45;&gt;Node4 -->
<g id="edge3_Node000001_Node000004" class="edge">
<title>Node1&#45;&gt;Node4</title>
<g id="a_edge3_Node000001_Node000004"><a xlink:title=" ">
<path fill="none" stroke="#63b8ff" d="M114.06,-173C125.07,-173 136.72,-173 148.04,-173"/>
<polygon fill="#63b8ff" stroke="#63b8ff" points="148.31,-176.5 158.31,-173 148.31,-169.5 148.31,-176.5"/>
</a>
</g>
</g>
<!-- Node10 -->
<g id="Node000010" class="node">
<title>Node10</title>
<g id="a_Node000010"><a xlink:href="structclk_1_1misc__lib_1_1DateTime.html#a7310aa8f1068883206cec0f07b493b7d" target="_top" xlink:title="Set the time of day for the time point.">
<polygon fill="white" stroke="#666666" points="281,-140 150,-140 150,-110 281,-110 281,-140"/>
<text text-anchor="start" x="158" y="-128" font-family="Helvetica,sans-Serif" font-size="10.00">clk::misc_lib::DateTime</text>
<text text-anchor="middle" x="215.5" y="-117" font-family="Helvetica,sans-Serif" font-size="10.00">::setTime</text>
</a>
</g>
</g>
<!-- Node1&#45;&gt;Node10 -->
<g id="edge10_Node000001_Node000010" class="edge">
<title>Node1&#45;&gt;Node10</title>
<g id="a_edge10_Node000001_Node000010"><a xlink:title=" ">
<path fill="none" stroke="#63b8ff" d="M107.09,-157.94C122.53,-153.21 139.74,-147.93 155.78,-143.01"/>
<polygon fill="#63b8ff" stroke="#63b8ff" points="157.05,-146.28 165.59,-140 155,-139.59 157.05,-146.28"/>
</a>
</g>
</g>
<!-- Node12 -->
<g id="Node000012" class="node">
<title>Node12</title>
<g id="a_Node000012"><a xlink:href="structclk_1_1misc__lib_1_1DateTime.html#ae13f5a3680b8cb0f362850c43d86b329" target="_top" xlink:title="Get the time of day of the time point.">
<polygon fill="white" stroke="#666666" points="281,-92 150,-92 150,-62 281,-62 281,-92"/>
<text text-anchor="start" x="158" y="-80" font-family="Helvetica,sans-Serif" font-size="10.00">clk::misc_lib::DateTime</text>
<text text-anchor="middle" x="215.5" y="-69" font-family="Helvetica,sans-Serif" font-size="10.00">::timeOfDay</text>
</a>
</g>
</g>
<!-- Node1&#45;&gt;Node12 -->
<g id="edge12_Node000001_Node000012" class="edge">
<title>Node1&#45;&gt;Node12</title>
<g id="a_edge12_Node000001_Node000012"><a xlink:title=" ">
<path fill="none" stroke="#63b8ff" d="M74.18,-157.79C91.74,-141.92 121.15,-117.14 150,-101 153.01,-99.32 156.16,-97.71 159.39,-96.17"/>
<polygon fill="#63b8ff" stroke="#63b8ff" points="160.89,-99.34 168.6,-92.07 158.04,-92.94 160.89,-99.34"/>
</a>
</g>
</g>
<!-- Node4&#45;&gt;Node3 -->
<g id="edge7_Node000004_Node000003" class="edge">
<title>Node4&#45;&gt;Node3</title>
<g id="a_edge7_Node000004_Node000003"><a xlink:title=" ">
<path fill="none" stroke="#63b8ff" d="M260.55,-188.08C267.91,-191.87 275.07,-196.48 281,-202 305.73,-225.05 290.93,-247.48 317,-269 321.01,-272.31 325.49,-275.17 330.2,-277.63"/>
<polygon fill="#63b8ff" stroke="#63b8ff" points="328.95,-280.91 339.5,-281.9 331.87,-274.55 328.95,-280.91"/>
</a>
</g>
</g>
<!-- Node5 -->
<g id="Node000005" class="node">
<title>Node5</title>
<g id="a_Node000005"><a xlink:href="structclk_1_1misc__lib_1_1DateTime.html#aa39a8d12e8298c9d2839d00655a40e25" target="_top" xlink:title="Get the day of the month of the time point.">
<polygon fill="white" stroke="#666666" points="460.5,-260 329.5,-260 329.5,-230 460.5,-230 460.5,-260"/>
<text text-anchor="start" x="337.5" y="-248" font-family="Helvetica,sans-Serif" font-size="10.00">clk::misc_lib::DateTime</text>
<text text-anchor="middle" x="395" y="-237" font-family="Helvetica,sans-Serif" font-size="10.00">::dayOfMonth</text>
</a>
</g>
</g>
<!-- Node4&#45;&gt;Node5 -->
<g id="edge4_Node000004_Node000005" class="edge">
<title>Node4&#45;&gt;Node5</title>
<g id="a_edge4_Node000004_Node000005"><a xlink:title=" ">
<path fill="none" stroke="#63b8ff" d="M251.17,-188.1C260.88,-192.46 271.4,-197.31 281,-202 297.26,-209.94 300.29,-214.06 317,-221 321.65,-222.93 326.51,-224.79 331.43,-226.57"/>
<polygon fill="#63b8ff" stroke="#63b8ff" points="330.34,-229.9 340.94,-229.87 332.64,-223.28 330.34,-229.9"/>
</a>
</g>
</g>
<!-- Node6 -->
<g id="Node000006" class="node">
<title>Node6</title>
<g id="a_Node000006"><a xlink:href="structclk_1_1misc__lib_1_1DateTime.html#a745eee7ebd157f7f9090a5ef0f70ed67" target="_top" xlink:title="Get the weekday of the time point.">
<polygon fill="white" stroke="#666666" points="460.5,-212 329.5,-212 329.5,-182 460.5,-182 460.5,-212"/>
<text text-anchor="start" x="337.5" y="-200" font-family="Helvetica,sans-Serif" font-size="10.00">clk::misc_lib::DateTime</text>
<text text-anchor="middle" x="395" y="-189" font-family="Helvetica,sans-Serif" font-size="10.00">::dayOfWeek</text>
</a>
</g>
</g>
<!-- Node4&#45;&gt;Node6 -->
<g id="edge5_Node000004_Node000006" class="edge">
<title>Node4&#45;&gt;Node6</title>
<g id="a_edge5_Node000004_Node000006"><a xlink:title=" ">
<path fill="none" stroke="#63b8ff" d="M272.66,-180.59C287.41,-182.59 303.55,-184.77 319.11,-186.87"/>
<polygon fill="#63b8ff" stroke="#63b8ff" points="318.85,-190.37 329.23,-188.24 319.79,-183.43 318.85,-190.37"/>
</a>
</g>
</g>
<!-- Node7 -->
<g id="Node000007" class="node">
<title>Node7</title>
<g id="a_Node000007"><a xlink:href="structclk_1_1misc__lib_1_1DateTime.html#a9ecea33a44b419d4c7f1eb9ddfb45aaa" target="_top" xlink:title="Get the day of the year of the time point.">
<polygon fill="white" stroke="#666666" points="460.5,-164 329.5,-164 329.5,-134 460.5,-134 460.5,-164"/>
<text text-anchor="start" x="337.5" y="-152" font-family="Helvetica,sans-Serif" font-size="10.00">clk::misc_lib::DateTime</text>
<text text-anchor="middle" x="395" y="-141" font-family="Helvetica,sans-Serif" font-size="10.00">::dayOfYear</text>
</a>
</g>
</g>
<!-- Node4&#45;&gt;Node7 -->
<g id="edge6_Node000004_Node000007" class="edge">
<title>Node4&#45;&gt;Node7</title>
<g id="a_edge6_Node000004_Node000007"><a xlink:title=" ">
<path fill="none" stroke="#63b8ff" d="M272.66,-165.41C287.41,-163.41 303.55,-161.23 319.11,-159.13"/>
<polygon fill="#63b8ff" stroke="#63b8ff" points="319.79,-162.57 329.23,-157.76 318.85,-155.63 319.79,-162.57"/>
</a>
</g>
</g>
<!-- Node8 -->
<g id="Node000008" class="node">
<title>Node8</title>
<g id="a_Node000008"><a xlink:href="structclk_1_1misc__lib_1_1DateTime.html#a01d736f8e2fb0537bb0b94619c14a27f" target="_top" xlink:title="Get the Modified Julian Date (MJD) of the time point.">
<polygon fill="white" stroke="#666666" points="473,-115.5 317,-115.5 317,-96.5 473,-96.5 473,-115.5"/>
<text text-anchor="middle" x="395" y="-103.5" font-family="Helvetica,sans-Serif" font-size="10.00">clk::misc_lib::DateTime::mjd</text>
</a>
</g>
</g>
<!-- Node4&#45;&gt;Node8 -->
<g id="edge8_Node000004_Node000008" class="edge">
<title>Node4&#45;&gt;Node8</title>
<g id="a_edge8_Node000004_Node000008"><a xlink:title=" ">
<path fill="none" stroke="#63b8ff" d="M261.15,-157.93C267.91,-155.21 274.72,-152.21 281,-149 298.13,-140.25 299.4,-132.75 317,-125 322.49,-122.58 328.34,-120.44 334.27,-118.54"/>
<polygon fill="#63b8ff" stroke="#63b8ff" points="335.68,-121.77 344.28,-115.58 333.69,-115.06 335.68,-121.77"/>
</a>
</g>
</g>
<!-- Node9 -->
<g id="Node000009" class="node">
<title>Node9</title>
<g id="a_Node000009"><a xlink:href="structclk_1_1si3__sim_1_1Config.html#a9f523338979bcb682cbd847579a6239d" target="_top" xlink:title=" ">
<polygon fill="white" stroke="#666666" points="450.5,-78 339.5,-78 339.5,-48 450.5,-48 450.5,-78"/>
<text text-anchor="start" x="347.5" y="-66" font-family="Helvetica,sans-Serif" font-size="10.00">clk::si3_sim::Config</text>
<text text-anchor="middle" x="395" y="-55" font-family="Helvetica,sans-Serif" font-size="10.00">::runSchedule</text>
</a>
</g>
</g>
<!-- Node4&#45;&gt;Node9 -->
<g id="edge9_Node000004_Node000009" class="edge">
<title>Node4&#45;&gt;Node9</title>
<g id="a_edge9_Node000004_Node000009"><a xlink:title=" ">
<path fill="none" stroke="#63b8ff" d="M267.32,-158C272.21,-155.43 276.88,-152.45 281,-149 305.14,-128.79 292.44,-107.69 317,-88 321.01,-84.79 325.44,-81.98 330.1,-79.53"/>
<polygon fill="#63b8ff" stroke="#63b8ff" points="331.7,-82.65 339.28,-75.25 328.74,-76.31 331.7,-82.65"/>
</a>
</g>
</g>
<!-- Node11 -->
<g id="Node000011" class="node">
<title>Node11</title>
<g id="a_Node000011"><a xlink:href="structclk_1_1misc__lib_1_1Time.html#aa9e0167590fe556b087e37cc83d8092a" target="_top" xlink:title="Returns the time as a boost object.">
<polygon fill="white" stroke="#666666" points="449,-30 341,-30 341,0 449,0 449,-30"/>
<text text-anchor="start" x="349" y="-18" font-family="Helvetica,sans-Serif" font-size="10.00">clk::misc_lib::Time</text>
<text text-anchor="middle" x="395" y="-7" font-family="Helvetica,sans-Serif" font-size="10.00">::toBoostDuration</text>
</a>
</g>
</g>
<!-- Node10&#45;&gt;Node11 -->
<g id="edge11_Node000010_Node000011" class="edge">
<title>Node10&#45;&gt;Node11</title>
<g id="a_edge11_Node000010_Node000011"><a xlink:title=" ">
<path fill="none" stroke="#63b8ff" d="M267.67,-109.85C272.44,-107.32 276.98,-104.39 281,-101 305.36,-80.46 292.09,-58.87 317,-39 321.38,-35.51 326.27,-32.52 331.4,-29.96"/>
<polygon fill="#63b8ff" stroke="#63b8ff" points="333.1,-33.04 340.85,-25.82 330.29,-26.63 333.1,-33.04"/>
</a>
</g>
</g>
</g>
</svg>
