<?xml version="1.0" encoding="UTF-8" standalone="no"?>
<!DOCTYPE svg PUBLIC "-//W3C//DTD SVG 1.1//EN"
 "http://www.w3.org/Graphics/SVG/1.1/DTD/svg11.dtd">
<!-- Generated by graphviz version 2.43.0 (0)
 -->
<!-- Title: clk::misc_lib::DateTime::toSimpleString Pages: 1 -->
<svg width="330pt" height="268pt"
 viewBox="0.00 0.00 330.00 267.50" xmlns="http://www.w3.org/2000/svg" xmlns:xlink="http://www.w3.org/1999/xlink">
<g id="graph0" class="graph" transform="scale(1 1) rotate(0) translate(4 263.5)">
<title>clk::misc_lib::DateTime::toSimpleString</title>
<!-- Node1 -->
<g id="Node000001" class="node">
<title>Node1</title>
<g id="a_Node000001"><a xlink:title="Convert the DateTime object to a simple string representation.">
<polygon fill="#999999" stroke="#666666" points="131,-150 0,-150 0,-120 131,-120 131,-150"/>
<text text-anchor="start" x="8" y="-138" font-family="Helvetica,sans-Serif" font-size="10.00">clk::misc_lib::DateTime</text>
<text text-anchor="middle" x="65.5" y="-127" font-family="Helvetica,sans-Serif" font-size="10.00">::toSimpleString</text>
</a>
</g>
</g>
<!-- Node2 -->
<g id="Node000002" class="node">
<title>Node2</title>
<g id="a_Node000002"><a xlink:href="structclk_1_1misc__lib_1_1DateTime.html#ac81376a4152c451232881cd4e39f78a4" target="_top" xlink:title="Get the day of the month of the time point.">
<polygon fill="white" stroke="#666666" points="322,-259.5 167,-259.5 167,-240.5 322,-240.5 322,-259.5"/>
<text text-anchor="middle" x="244.5" y="-247.5" font-family="Helvetica,sans-Serif" font-size="10.00">clk::misc_lib::DateTime::day</text>
</a>
</g>
</g>
<!-- Node1&#45;&gt;Node2 -->
<g id="edge1_Node000001_Node000002" class="edge">
<title>Node1&#45;&gt;Node2</title>
<g id="a_edge1_Node000001_Node000002"><a xlink:title=" ">
<path fill="none" stroke="#63b8ff" d="M78.04,-150.18C95.1,-171.54 129.16,-210.18 167,-231 171.2,-233.31 175.68,-235.35 180.29,-237.13"/>
<polygon fill="#63b8ff" stroke="#63b8ff" points="179.29,-240.49 189.88,-240.48 181.59,-233.88 179.29,-240.49"/>
</a>
</g>
</g>
<!-- Node3 -->
<g id="Node000003" class="node">
<title>Node3</title>
<g id="a_Node000003"><a xlink:href="structclk_1_1misc__lib_1_1DateTime.html#a1cde9aba22c103a9a294b7a8b74dc1f0" target="_top" xlink:title="Get the hour of the time point.">
<polygon fill="white" stroke="#666666" points="310,-222 179,-222 179,-192 310,-192 310,-222"/>
<text text-anchor="start" x="187" y="-210" font-family="Helvetica,sans-Serif" font-size="10.00">clk::misc_lib::DateTime</text>
<text text-anchor="middle" x="244.5" y="-199" font-family="Helvetica,sans-Serif" font-size="10.00">::hour</text>
</a>
</g>
</g>
<!-- Node1&#45;&gt;Node3 -->
<g id="edge2_Node000001_Node000003" class="edge">
<title>Node1&#45;&gt;Node3</title>
<g id="a_edge2_Node000001_Node000003"><a xlink:title=" ">
<path fill="none" stroke="#63b8ff" d="M95.48,-150.19C115.3,-160.24 142.35,-173.3 167,-183 172.02,-184.97 177.27,-186.9 182.57,-188.75"/>
<polygon fill="#63b8ff" stroke="#63b8ff" points="181.53,-192.09 192.12,-191.98 183.78,-185.46 181.53,-192.09"/>
</a>
</g>
</g>
<!-- Node4 -->
<g id="Node000004" class="node">
<title>Node4</title>
<g id="a_Node000004"><a xlink:href="structclk_1_1misc__lib_1_1DateTime.html#ae97747961f59194776a6aaac91c495c8" target="_top" xlink:title="Get the minute of the time point.">
<polygon fill="white" stroke="#666666" points="310,-174 179,-174 179,-144 310,-144 310,-174"/>
<text text-anchor="start" x="187" y="-162" font-family="Helvetica,sans-Serif" font-size="10.00">clk::misc_lib::DateTime</text>
<text text-anchor="middle" x="244.5" y="-151" font-family="Helvetica,sans-Serif" font-size="10.00">::minute</text>
</a>
</g>
</g>
<!-- Node1&#45;&gt;Node4 -->
<g id="edge3_Node000001_Node000004" class="edge">
<title>Node1&#45;&gt;Node4</title>
<g id="a_edge3_Node000001_Node000004"><a xlink:title=" ">
<path fill="none" stroke="#63b8ff" d="M131.15,-143.77C143.39,-145.43 156.28,-147.17 168.79,-148.87"/>
<polygon fill="#63b8ff" stroke="#63b8ff" points="168.35,-152.34 178.73,-150.22 169.29,-145.41 168.35,-152.34"/>
</a>
</g>
</g>
<!-- Node5 -->
<g id="Node000005" class="node">
<title>Node5</title>
<g id="a_Node000005"><a xlink:href="structclk_1_1misc__lib_1_1DateTime.html#ac50f63d7635c88323c21c0aea2c564fc" target="_top" xlink:title="Get the month of the time point.">
<polygon fill="white" stroke="#666666" points="310,-126 179,-126 179,-96 310,-96 310,-126"/>
<text text-anchor="start" x="187" y="-114" font-family="Helvetica,sans-Serif" font-size="10.00">clk::misc_lib::DateTime</text>
<text text-anchor="middle" x="244.5" y="-103" font-family="Helvetica,sans-Serif" font-size="10.00">::month</text>
</a>
</g>
</g>
<!-- Node1&#45;&gt;Node5 -->
<g id="edge4_Node000001_Node000005" class="edge">
<title>Node1&#45;&gt;Node5</title>
<g id="a_edge4_Node000001_Node000005"><a xlink:title=" ">
<path fill="none" stroke="#63b8ff" d="M131.15,-126.23C143.39,-124.57 156.28,-122.83 168.79,-121.13"/>
<polygon fill="#63b8ff" stroke="#63b8ff" points="169.29,-124.59 178.73,-119.78 168.35,-117.66 169.29,-124.59"/>
</a>
</g>
</g>
<!-- Node6 -->
<g id="Node000006" class="node">
<title>Node6</title>
<g id="a_Node000006"><a xlink:href="structclk_1_1misc__lib_1_1DateTime.html#ac2f273b8491c35e2592547d4b126d7b5" target="_top" xlink:title="Get the second of the time point.">
<polygon fill="white" stroke="#666666" points="310,-78 179,-78 179,-48 310,-48 310,-78"/>
<text text-anchor="start" x="187" y="-66" font-family="Helvetica,sans-Serif" font-size="10.00">clk::misc_lib::DateTime</text>
<text text-anchor="middle" x="244.5" y="-55" font-family="Helvetica,sans-Serif" font-size="10.00">::seconds</text>
</a>
</g>
</g>
<!-- Node1&#45;&gt;Node6 -->
<g id="edge5_Node000001_Node000006" class="edge">
<title>Node1&#45;&gt;Node6</title>
<g id="a_edge5_Node000001_Node000006"><a xlink:title=" ">
<path fill="none" stroke="#63b8ff" d="M95.48,-119.81C115.3,-109.76 142.35,-96.7 167,-87 172.02,-85.03 177.27,-83.1 182.57,-81.25"/>
<polygon fill="#63b8ff" stroke="#63b8ff" points="183.78,-84.54 192.12,-78.02 181.53,-77.91 183.78,-84.54"/>
</a>
</g>
</g>
<!-- Node7 -->
<g id="Node000007" class="node">
<title>Node7</title>
<g id="a_Node000007"><a xlink:href="structclk_1_1misc__lib_1_1DateTime.html#a5c4d34170b277de1654221b6572c9c54" target="_top" xlink:title="Get the year of the time point.">
<polygon fill="white" stroke="#666666" points="310,-30 179,-30 179,0 310,0 310,-30"/>
<text text-anchor="start" x="187" y="-18" font-family="Helvetica,sans-Serif" font-size="10.00">clk::misc_lib::DateTime</text>
<text text-anchor="middle" x="244.5" y="-7" font-family="Helvetica,sans-Serif" font-size="10.00">::year</text>
</a>
</g>
</g>
<!-- Node1&#45;&gt;Node7 -->
<g id="edge6_Node000001_Node000007" class="edge">
<title>Node1&#45;&gt;Node7</title>
<g id="a_edge6_Node000001_Node000007"><a xlink:title=" ">
<path fill="none" stroke="#63b8ff" d="M78.5,-119.78C95.87,-98.72 130.01,-60.83 167,-39 169.97,-37.25 173.07,-35.61 176.27,-34.08"/>
<polygon fill="#63b8ff" stroke="#63b8ff" points="177.7,-37.28 185.45,-30.06 174.89,-30.87 177.7,-37.28"/>
</a>
</g>
</g>
</g>
</svg>
