<?xml version="1.0" encoding="UTF-8" standalone="no"?>
<!DOCTYPE svg PUBLIC "-//W3C//DTD SVG 1.1//EN"
 "http://www.w3.org/Graphics/SVG/1.1/DTD/svg11.dtd">
<!-- Generated by graphviz version 2.43.0 (0)
 -->
<!-- Title: include/Clock/misc_lib/time.hpp Pages: 1 -->
<svg width="218pt" height="302pt"
 viewBox="0.00 0.00 217.50 302.00" xmlns="http://www.w3.org/2000/svg" xmlns:xlink="http://www.w3.org/1999/xlink">
<g id="graph0" class="graph" transform="scale(1 1) rotate(0) translate(4 298)">
<title>include/Clock/misc_lib/time.hpp</title>
<!-- Node1 -->
<g id="Node000001" class="node">
<title>Node1</title>
<g id="a_Node000001"><a xlink:title="DateTime data structure and utilities.">
<polygon fill="#999999" stroke="#666666" points="192,-294 84,-294 84,-264 192,-264 192,-294"/>
<text text-anchor="start" x="92" y="-282" font-family="Helvetica,sans-Serif" font-size="10.00">include/Clock/misc</text>
<text text-anchor="middle" x="138" y="-271" font-family="Helvetica,sans-Serif" font-size="10.00">_lib/time.hpp</text>
</a>
</g>
</g>
<!-- Node2 -->
<g id="Node000002" class="node">
<title>Node2</title>
<g id="a_Node000002"><a xlink:href="date__time_8hpp_source.html" target="_top" xlink:title=" ">
<polygon fill="white" stroke="#666666" points="110,-228 2,-228 2,-198 110,-198 110,-228"/>
<text text-anchor="start" x="10" y="-216" font-family="Helvetica,sans-Serif" font-size="10.00">include/Clock/misc</text>
<text text-anchor="middle" x="56" y="-205" font-family="Helvetica,sans-Serif" font-size="10.00">_lib/date_time.hpp</text>
</a>
</g>
</g>
<!-- Node1&#45;&gt;Node2 -->
<g id="edge1_Node000001_Node000002" class="edge">
<title>Node1&#45;&gt;Node2</title>
<g id="a_edge1_Node000001_Node000002"><a xlink:title=" ">
<path fill="none" stroke="#63b8ff" d="M111.71,-257.48C99.45,-247.91 85.18,-236.77 74.15,-228.16"/>
<polygon fill="#63b8ff" stroke="#63b8ff" points="109.76,-260.4 119.8,-263.8 114.07,-254.88 109.76,-260.4"/>
</a>
</g>
</g>
<!-- Node3 -->
<g id="Node000003" class="node">
<title>Node3</title>
<g id="a_Node000003"><a xlink:href="run__record_8hpp_source.html" target="_top" xlink:title=" ">
<polygon fill="white" stroke="#666666" points="193,-162 83,-162 83,-132 193,-132 193,-162"/>
<text text-anchor="start" x="91" y="-150" font-family="Helvetica,sans-Serif" font-size="10.00">include/Clock/misc</text>
<text text-anchor="middle" x="138" y="-139" font-family="Helvetica,sans-Serif" font-size="10.00">_lib/run_record.hpp</text>
</a>
</g>
</g>
<!-- Node1&#45;&gt;Node3 -->
<g id="edge7_Node000001_Node000003" class="edge">
<title>Node1&#45;&gt;Node3</title>
<g id="a_edge7_Node000001_Node000003"><a xlink:title=" ">
<path fill="none" stroke="#63b8ff" d="M138,-253.68C138,-226.7 138,-184.11 138,-162.14"/>
<polygon fill="#63b8ff" stroke="#63b8ff" points="134.5,-253.84 138,-263.84 141.5,-253.84 134.5,-253.84"/>
</a>
</g>
</g>
<!-- Node4 -->
<g id="Node000004" class="node">
<title>Node4</title>
<g id="a_Node000004"><a xlink:href="config_8hpp.html" target="_top" xlink:title="Configuration structure for the Si3 simulation.">
<polygon fill="white" stroke="#666666" points="183,-96 61,-96 61,-66 183,-66 183,-96"/>
<text text-anchor="start" x="69" y="-84" font-family="Helvetica,sans-Serif" font-size="10.00">include/Clock/si3_sim</text>
<text text-anchor="middle" x="122" y="-73" font-family="Helvetica,sans-Serif" font-size="10.00">/config.hpp</text>
</a>
</g>
</g>
<!-- Node1&#45;&gt;Node4 -->
<g id="edge8_Node000001_Node000004" class="edge">
<title>Node1&#45;&gt;Node4</title>
<g id="a_edge8_Node000001_Node000004"><a xlink:title=" ">
<path fill="none" stroke="#63b8ff" d="M159.99,-256.37C186.73,-227.33 225.55,-174.48 202,-132 192.95,-115.67 176.09,-103.97 160.18,-96.01"/>
<polygon fill="#63b8ff" stroke="#63b8ff" points="157.18,-254.24 152.83,-263.9 162.26,-259.07 157.18,-254.24"/>
</a>
</g>
</g>
<!-- Node2&#45;&gt;Node3 -->
<g id="edge2_Node000002_Node000003" class="edge">
<title>Node2&#45;&gt;Node3</title>
<g id="a_edge2_Node000002_Node000003"><a xlink:title=" ">
<path fill="none" stroke="#63b8ff" d="M82.29,-191.48C94.55,-181.91 108.82,-170.77 119.85,-162.16"/>
<polygon fill="#63b8ff" stroke="#63b8ff" points="79.93,-188.88 74.2,-197.8 84.24,-194.4 79.93,-188.88"/>
</a>
</g>
</g>
<!-- Node2&#45;&gt;Node4 -->
<g id="edge5_Node000002_Node000004" class="edge">
<title>Node2&#45;&gt;Node4</title>
<g id="a_edge5_Node000002_Node000004"><a xlink:title=" ">
<path fill="none" stroke="#63b8ff" d="M57.99,-187.93C60.15,-171.4 64.66,-149.38 74,-132 81.41,-118.22 93.67,-105.54 103.94,-96.4"/>
<polygon fill="#63b8ff" stroke="#63b8ff" points="54.51,-187.58 56.88,-197.9 61.46,-188.35 54.51,-187.58"/>
</a>
</g>
</g>
<!-- Node5 -->
<g id="Node000005" class="node">
<title>Node5</title>
<g id="a_Node000005"><a xlink:href="si3__sim_8hpp_source.html" target="_top" xlink:title=" ">
<polygon fill="white" stroke="#666666" points="122,-30 0,-30 0,0 122,0 122,-30"/>
<text text-anchor="start" x="8" y="-18" font-family="Helvetica,sans-Serif" font-size="10.00">include/Clock/si3_sim</text>
<text text-anchor="middle" x="61" y="-7" font-family="Helvetica,sans-Serif" font-size="10.00">/si3_sim.hpp</text>
</a>
</g>
</g>
<!-- Node2&#45;&gt;Node5 -->
<g id="edge6_Node000002_Node000005" class="edge">
<title>Node2&#45;&gt;Node5</title>
<g id="a_edge6_Node000002_Node000005"><a xlink:title=" ">
<path fill="none" stroke="#63b8ff" d="M53.62,-187.85C51.17,-158.85 48.18,-108.77 52,-66 53.08,-53.88 55.61,-40.29 57.72,-30.35"/>
<polygon fill="#63b8ff" stroke="#63b8ff" points="50.14,-188.23 54.52,-197.87 57.11,-187.6 50.14,-188.23"/>
</a>
</g>
</g>
<!-- Node3&#45;&gt;Node4 -->
<g id="edge3_Node000003_Node000004" class="edge">
<title>Node3&#45;&gt;Node4</title>
<g id="a_edge3_Node000003_Node000004"><a xlink:title=" ">
<path fill="none" stroke="#63b8ff" d="M131.96,-121.83C129.79,-113.17 127.42,-103.7 125.54,-96.16"/>
<polygon fill="#63b8ff" stroke="#63b8ff" points="128.63,-122.94 134.45,-131.8 135.42,-121.25 128.63,-122.94"/>
</a>
</g>
</g>
<!-- Node4&#45;&gt;Node5 -->
<g id="edge4_Node000004_Node000005" class="edge">
<title>Node4&#45;&gt;Node5</title>
<g id="a_edge4_Node000004_Node000005"><a xlink:title=" ">
<path fill="none" stroke="#63b8ff" d="M101.38,-58.37C92.51,-49.06 82.39,-38.44 74.5,-30.16"/>
<polygon fill="#63b8ff" stroke="#63b8ff" points="99.03,-60.97 108.46,-65.8 104.1,-56.14 99.03,-60.97"/>
</a>
</g>
</g>
</g>
</svg>
