<?xml version="1.0" encoding="UTF-8" standalone="no"?>
<!DOCTYPE svg PUBLIC "-//W3C//DTD SVG 1.1//EN"
 "http://www.w3.org/Graphics/SVG/1.1/DTD/svg11.dtd">
<!-- Generated by graphviz version 2.43.0 (0)
 -->
<!-- Title: include/Clock/si3_sim/config.hpp Pages: 1 -->
<svg width="1601pt" height="302pt"
 viewBox="0.00 0.00 1601.00 302.00" xmlns="http://www.w3.org/2000/svg" xmlns:xlink="http://www.w3.org/1999/xlink">
<g id="graph0" class="graph" transform="scale(1 1) rotate(0) translate(4 298)">
<title>include/Clock/si3_sim/config.hpp</title>
<!-- Node1 -->
<g id="Node000001" class="node">
<title>Node1</title>
<g id="a_Node000001"><a xlink:title="Configuration structure for the Si3 simulation.">
<polygon fill="#999999" stroke="#666666" points="458,-294 336,-294 336,-264 458,-264 458,-294"/>
<text text-anchor="start" x="344" y="-282" font-family="Helvetica,sans-Serif" font-size="10.00">include/Clock/si3_sim</text>
<text text-anchor="middle" x="397" y="-271" font-family="Helvetica,sans-Serif" font-size="10.00">/config.hpp</text>
</a>
</g>
</g>
<!-- Node2 -->
<g id="Node000002" class="node">
<title>Node2</title>
<g id="a_Node000002"><a xlink:title=" ">
<polygon fill="#e0e0e0" stroke="#999999" points="64,-222.5 0,-222.5 0,-203.5 64,-203.5 64,-222.5"/>
<text text-anchor="middle" x="32" y="-210.5" font-family="Helvetica,sans-Serif" font-size="10.00">algorithm</text>
</a>
</g>
</g>
<!-- Node1&#45;&gt;Node2 -->
<g id="edge1_Node000001_Node000002" class="edge">
<title>Node1&#45;&gt;Node2</title>
<g id="a_edge1_Node000001_Node000002"><a xlink:title=" ">
<path fill="none" stroke="#63b8ff" d="M335.76,-271.8C270.14,-264.41 163.23,-250.18 73,-228 70.19,-227.31 67.3,-226.51 64.42,-225.65"/>
<polygon fill="#63b8ff" stroke="#63b8ff" points="65.37,-222.28 54.77,-222.57 63.23,-228.95 65.37,-222.28"/>
</a>
</g>
</g>
<!-- Node3 -->
<g id="Node000003" class="node">
<title>Node3</title>
<g id="a_Node000003"><a xlink:title=" ">
<polygon fill="#e0e0e0" stroke="#999999" points="129.5,-222.5 82.5,-222.5 82.5,-203.5 129.5,-203.5 129.5,-222.5"/>
<text text-anchor="middle" x="106" y="-210.5" font-family="Helvetica,sans-Serif" font-size="10.00">vector</text>
</a>
</g>
</g>
<!-- Node1&#45;&gt;Node3 -->
<g id="edge2_Node000001_Node000003" class="edge">
<title>Node1&#45;&gt;Node3</title>
<g id="a_edge2_Node000001_Node000003"><a xlink:title=" ">
<path fill="none" stroke="#63b8ff" d="M335.79,-268.69C284.15,-260.17 208.55,-246.15 144,-228 141.72,-227.36 139.37,-226.64 137.03,-225.88"/>
<polygon fill="#63b8ff" stroke="#63b8ff" points="138.1,-222.55 127.51,-222.59 135.82,-229.17 138.1,-222.55"/>
</a>
</g>
</g>
<!-- Node4 -->
<g id="Node000004" class="node">
<title>Node4</title>
<g id="a_Node000004"><a xlink:href="date__time_8hpp_source.html" target="_top" xlink:title=" ">
<polygon fill="white" stroke="#666666" points="1090,-162 978,-162 978,-132 1090,-132 1090,-162"/>
<text text-anchor="start" x="986" y="-150" font-family="Helvetica,sans-Serif" font-size="10.00">Clock/misc_lib/date</text>
<text text-anchor="middle" x="1034" y="-139" font-family="Helvetica,sans-Serif" font-size="10.00">_time.hpp</text>
</a>
</g>
</g>
<!-- Node1&#45;&gt;Node4 -->
<g id="edge3_Node000001_Node000004" class="edge">
<title>Node1&#45;&gt;Node4</title>
<g id="a_edge3_Node000001_Node000004"><a xlink:title=" ">
<path fill="none" stroke="#63b8ff" d="M458.23,-272.64C531.85,-265.53 658.88,-251.1 766,-228 843.53,-211.28 931.22,-183.33 984.55,-165.29"/>
<polygon fill="#63b8ff" stroke="#63b8ff" points="985.76,-168.57 994.1,-162.04 983.5,-161.95 985.76,-168.57"/>
</a>
</g>
</g>
<!-- Node15 -->
<g id="Node000015" class="node">
<title>Node15</title>
<g id="a_Node000015"><a xlink:href="quad_8hpp_source.html" target="_top" xlink:title=" ">
<polygon fill="white" stroke="#666666" points="575.5,-90.5 440.5,-90.5 440.5,-71.5 575.5,-71.5 575.5,-90.5"/>
<text text-anchor="middle" x="508" y="-78.5" font-family="Helvetica,sans-Serif" font-size="10.00">Clock/misc_lib/quad.hpp</text>
</a>
</g>
</g>
<!-- Node1&#45;&gt;Node15 -->
<g id="edge28_Node000001_Node000015" class="edge">
<title>Node1&#45;&gt;Node15</title>
<g id="a_edge28_Node000001_Node000015"><a xlink:title=" ">
<path fill="none" stroke="#63b8ff" d="M337.48,-263.94C255.27,-241.84 122.89,-194.9 177,-132 208.99,-94.81 342.73,-84.93 430.11,-82.51"/>
<polygon fill="#63b8ff" stroke="#63b8ff" points="430.35,-86 440.26,-82.25 430.18,-79.01 430.35,-86"/>
</a>
</g>
</g>
<!-- Node19 -->
<g id="Node000019" class="node">
<title>Node19</title>
<g id="a_Node000019"><a xlink:href="time_8hpp.html" target="_top" xlink:title="DateTime data structure and utilities.">
<polygon fill="white" stroke="#666666" points="1438,-90.5 1304,-90.5 1304,-71.5 1438,-71.5 1438,-90.5"/>
<text text-anchor="middle" x="1371" y="-78.5" font-family="Helvetica,sans-Serif" font-size="10.00">Clock/misc_lib/time.hpp</text>
</a>
</g>
</g>
<!-- Node1&#45;&gt;Node19 -->
<g id="edge41_Node000001_Node000019" class="edge">
<title>Node1&#45;&gt;Node19</title>
<g id="a_edge41_Node000001_Node000019"><a xlink:title=" ">
<path fill="none" stroke="#63b8ff" d="M458.28,-274.5C590.53,-265.71 911.55,-237.73 1169,-162 1232.94,-143.19 1304.86,-112.23 1343.27,-94.86"/>
<polygon fill="#63b8ff" stroke="#63b8ff" points="1345.09,-97.87 1352.74,-90.54 1342.19,-91.5 1345.09,-97.87"/>
</a>
</g>
</g>
<!-- Node21 -->
<g id="Node000021" class="node">
<title>Node21</title>
<g id="a_Node000021"><a xlink:href="run__record_8hpp_source.html" target="_top" xlink:title=" ">
<polygon fill="white" stroke="#666666" points="757,-228 651,-228 651,-198 757,-198 757,-228"/>
<text text-anchor="start" x="659" y="-216" font-family="Helvetica,sans-Serif" font-size="10.00">Clock/misc_lib/run</text>
<text text-anchor="middle" x="704" y="-205" font-family="Helvetica,sans-Serif" font-size="10.00">_record.hpp</text>
</a>
</g>
</g>
<!-- Node1&#45;&gt;Node21 -->
<g id="edge29_Node000001_Node000021" class="edge">
<title>Node1&#45;&gt;Node21</title>
<g id="a_edge29_Node000001_Node000021"><a xlink:title=" ">
<path fill="none" stroke="#63b8ff" d="M458.02,-265.28C510.92,-254.25 587.17,-238.35 640.72,-227.19"/>
<polygon fill="#63b8ff" stroke="#63b8ff" points="641.71,-230.56 650.78,-225.09 640.28,-223.71 641.71,-230.56"/>
</a>
</g>
</g>
<!-- Node5 -->
<g id="Node000005" class="node">
<title>Node5</title>
<g id="a_Node000005"><a xlink:title=" ">
<polygon fill="#e0e0e0" stroke="#999999" points="820.5,-24.5 675.5,-24.5 675.5,-5.5 820.5,-5.5 820.5,-24.5"/>
<text text-anchor="middle" x="748" y="-12.5" font-family="Helvetica,sans-Serif" font-size="10.00">Clock/misc_lib_export.hpp</text>
</a>
</g>
</g>
<!-- Node4&#45;&gt;Node5 -->
<g id="edge4_Node000004_Node000005" class="edge">
<title>Node4&#45;&gt;Node5</title>
<g id="a_edge4_Node000004_Node000005"><a xlink:title=" ">
<path fill="none" stroke="#63b8ff" d="M977.98,-133.89C910.48,-119.29 805.92,-96.61 805,-96 781.7,-80.62 764.89,-52.2 755.8,-33.71"/>
<polygon fill="#63b8ff" stroke="#63b8ff" points="758.95,-32.18 751.55,-24.6 752.61,-35.14 758.95,-32.18"/>
</a>
</g>
</g>
<!-- Node6 -->
<g id="Node000006" class="node">
<title>Node6</title>
<g id="a_Node000006"><a xlink:title=" ">
<polygon fill="#e0e0e0" stroke="#999999" points="874,-90.5 814,-90.5 814,-71.5 874,-71.5 874,-90.5"/>
<text text-anchor="middle" x="844" y="-78.5" font-family="Helvetica,sans-Serif" font-size="10.00">iostream</text>
</a>
</g>
</g>
<!-- Node4&#45;&gt;Node6 -->
<g id="edge5_Node000004_Node000006" class="edge">
<title>Node4&#45;&gt;Node6</title>
<g id="a_edge5_Node000004_Node000006"><a xlink:title=" ">
<path fill="none" stroke="#63b8ff" d="M992.3,-131.95C958.4,-120.53 911.09,-104.6 879.1,-93.82"/>
<polygon fill="#63b8ff" stroke="#63b8ff" points="879.88,-90.39 869.29,-90.52 877.65,-97.03 879.88,-90.39"/>
</a>
</g>
</g>
<!-- Node7 -->
<g id="Node000007" class="node">
<title>Node7</title>
<g id="a_Node000007"><a xlink:title=" ">
<polygon fill="#e0e0e0" stroke="#999999" points="1593,-24.5 1549,-24.5 1549,-5.5 1593,-5.5 1593,-24.5"/>
<text text-anchor="middle" x="1571" y="-12.5" font-family="Helvetica,sans-Serif" font-size="10.00">string</text>
</a>
</g>
</g>
<!-- Node4&#45;&gt;Node7 -->
<g id="edge6_Node000004_Node000007" class="edge">
<title>Node4&#45;&gt;Node7</title>
<g id="a_edge6_Node000004_Node000007"><a xlink:title=" ">
<path fill="none" stroke="#63b8ff" d="M1090.11,-143.34C1191.66,-137.92 1401.67,-123.66 1469,-96 1504.52,-81.41 1538,-50.73 1556.38,-31.89"/>
<polygon fill="#63b8ff" stroke="#63b8ff" points="1558.94,-34.28 1563.3,-24.62 1553.87,-29.45 1558.94,-34.28"/>
</a>
</g>
</g>
<!-- Node8 -->
<g id="Node000008" class="node">
<title>Node8</title>
<g id="a_Node000008"><a xlink:title=" ">
<polygon fill="#e0e0e0" stroke="#999999" points="657.5,-24.5 584.5,-24.5 584.5,-5.5 657.5,-5.5 657.5,-24.5"/>
<text text-anchor="middle" x="621" y="-12.5" font-family="Helvetica,sans-Serif" font-size="10.00">string_view</text>
</a>
</g>
</g>
<!-- Node4&#45;&gt;Node8 -->
<g id="edge7_Node000004_Node000008" class="edge">
<title>Node4&#45;&gt;Node8</title>
<g id="a_edge7_Node000004_Node000008"><a xlink:title=" ">
<path fill="none" stroke="#63b8ff" d="M977.65,-133.75C974.73,-133.15 971.83,-132.56 969,-132 881.71,-114.63 856.09,-125.18 772,-96 723.4,-79.14 671.36,-48.42 642.84,-30.34"/>
<polygon fill="#63b8ff" stroke="#63b8ff" points="644.41,-27.2 634.11,-24.74 640.63,-33.09 644.41,-27.2"/>
</a>
</g>
</g>
<!-- Node9 -->
<g id="Node000009" class="node">
<title>Node9</title>
<g id="a_Node000009"><a xlink:title=" ">
<polygon fill="#e0e0e0" stroke="#999999" points="1530.5,-30 1405.5,-30 1405.5,0 1530.5,0 1530.5,-30"/>
<text text-anchor="start" x="1413.5" y="-18" font-family="Helvetica,sans-Serif" font-size="10.00">boost/date_time/posix</text>
<text text-anchor="middle" x="1468" y="-7" font-family="Helvetica,sans-Serif" font-size="10.00">_time/posix_time.hpp</text>
</a>
</g>
</g>
<!-- Node4&#45;&gt;Node9 -->
<g id="edge8_Node000004_Node000009" class="edge">
<title>Node4&#45;&gt;Node9</title>
<g id="a_edge8_Node000004_Node000009"><a xlink:title=" ">
<path fill="none" stroke="#63b8ff" d="M1090.3,-146.74C1190.71,-146.86 1395.02,-141.34 1447,-96 1462.67,-82.33 1467.33,-58.54 1468.42,-40.44"/>
<polygon fill="#63b8ff" stroke="#63b8ff" points="1471.93,-40.41 1468.71,-30.31 1464.93,-40.21 1471.93,-40.41"/>
</a>
</g>
</g>
<!-- Node10 -->
<g id="Node000010" class="node">
<title>Node10</title>
<g id="a_Node000010"><a xlink:title=" ">
<polygon fill="#e0e0e0" stroke="#999999" points="995.5,-30 838.5,-30 838.5,0 995.5,0 995.5,-30"/>
<text text-anchor="start" x="846.5" y="-18" font-family="Helvetica,sans-Serif" font-size="10.00">boost/date_time/posix</text>
<text text-anchor="middle" x="917" y="-7" font-family="Helvetica,sans-Serif" font-size="10.00">_time/posix_time_config.hpp</text>
</a>
</g>
</g>
<!-- Node4&#45;&gt;Node10 -->
<g id="edge9_Node000004_Node000010" class="edge">
<title>Node4&#45;&gt;Node10</title>
<g id="a_edge9_Node000004_Node000010"><a xlink:title=" ">
<path fill="none" stroke="#63b8ff" d="M998.86,-131.85C981.9,-123.54 962.39,-111.58 949,-96 935.2,-79.93 926.87,-57.16 922.19,-40.02"/>
<polygon fill="#63b8ff" stroke="#63b8ff" points="925.55,-39.04 919.73,-30.19 918.76,-40.74 925.55,-39.04"/>
</a>
</g>
</g>
<!-- Node11 -->
<g id="Node000011" class="node">
<title>Node11</title>
<g id="a_Node000011"><a xlink:title=" ">
<polygon fill="#e0e0e0" stroke="#999999" points="1182,-30 1014,-30 1014,0 1182,0 1182,-30"/>
<text text-anchor="start" x="1022" y="-18" font-family="Helvetica,sans-Serif" font-size="10.00">boost/date_time/posix</text>
<text text-anchor="middle" x="1098" y="-7" font-family="Helvetica,sans-Serif" font-size="10.00">_time/posix_time_duration.hpp</text>
</a>
</g>
</g>
<!-- Node4&#45;&gt;Node11 -->
<g id="edge10_Node000004_Node000011" class="edge">
<title>Node4&#45;&gt;Node11</title>
<g id="a_edge10_Node000004_Node000011"><a xlink:title=" ">
<path fill="none" stroke="#63b8ff" d="M998.93,-131.85C983.77,-123.77 967.57,-112 959,-96 952.71,-84.24 951.33,-76.91 959,-66 970.05,-50.28 986.55,-39.48 1004.35,-32.06"/>
<polygon fill="#63b8ff" stroke="#63b8ff" points="1005.65,-35.31 1013.75,-28.48 1003.16,-28.77 1005.65,-35.31"/>
</a>
</g>
</g>
<!-- Node12 -->
<g id="Node000012" class="node">
<title>Node12</title>
<g id="a_Node000012"><a xlink:title=" ">
<polygon fill="#e0e0e0" stroke="#999999" points="1100,-96 968,-96 968,-66 1100,-66 1100,-96"/>
<text text-anchor="start" x="976" y="-84" font-family="Helvetica,sans-Serif" font-size="10.00">boost/date_time/posix</text>
<text text-anchor="middle" x="1034" y="-73" font-family="Helvetica,sans-Serif" font-size="10.00">_time/time_parsers.hpp</text>
</a>
</g>
</g>
<!-- Node4&#45;&gt;Node12 -->
<g id="edge11_Node000004_Node000012" class="edge">
<title>Node4&#45;&gt;Node12</title>
<g id="a_edge11_Node000004_Node000012"><a xlink:title=" ">
<path fill="none" stroke="#63b8ff" d="M1034,-131.8C1034,-124.34 1034,-114.99 1034,-106.41"/>
<polygon fill="#63b8ff" stroke="#63b8ff" points="1037.5,-106.16 1034,-96.16 1030.5,-106.16 1037.5,-106.16"/>
</a>
</g>
</g>
<!-- Node13 -->
<g id="Node000013" class="node">
<title>Node13</title>
<g id="a_Node000013"><a xlink:title=" ">
<polygon fill="#e0e0e0" stroke="#999999" points="1322,-30 1200,-30 1200,0 1322,0 1322,-30"/>
<text text-anchor="start" x="1208" y="-18" font-family="Helvetica,sans-Serif" font-size="10.00">boost/date_time/time</text>
<text text-anchor="middle" x="1261" y="-7" font-family="Helvetica,sans-Serif" font-size="10.00">_duration.hpp</text>
</a>
</g>
</g>
<!-- Node4&#45;&gt;Node13 -->
<g id="edge12_Node000004_Node000013" class="edge">
<title>Node4&#45;&gt;Node13</title>
<g id="a_edge12_Node000004_Node000013"><a xlink:title=" ">
<path fill="none" stroke="#63b8ff" d="M1090.24,-141.06C1149.11,-134.61 1235.88,-121.07 1257,-96 1269.76,-80.85 1269.56,-57.79 1266.87,-40.32"/>
<polygon fill="#63b8ff" stroke="#63b8ff" points="1270.27,-39.45 1264.97,-30.28 1263.39,-40.76 1270.27,-39.45"/>
</a>
</g>
</g>
<!-- Node14 -->
<g id="Node000014" class="node">
<title>Node14</title>
<g id="a_Node000014"><a xlink:title=" ">
<polygon fill="#e0e0e0" stroke="#999999" points="1248,-96 1118,-96 1118,-66 1248,-66 1248,-96"/>
<text text-anchor="start" x="1126" y="-84" font-family="Helvetica,sans-Serif" font-size="10.00">boost/move/detail/type</text>
<text text-anchor="middle" x="1183" y="-73" font-family="Helvetica,sans-Serif" font-size="10.00">_traits.hpp</text>
</a>
</g>
</g>
<!-- Node4&#45;&gt;Node14 -->
<g id="edge13_Node000004_Node000014" class="edge">
<title>Node4&#45;&gt;Node14</title>
<g id="a_edge13_Node000004_Node000014"><a xlink:title=" ">
<path fill="none" stroke="#63b8ff" d="M1066.7,-131.95C1088.53,-122.58 1117.45,-110.16 1140.99,-100.05"/>
<polygon fill="#63b8ff" stroke="#63b8ff" points="1142.57,-103.17 1150.38,-96.01 1139.81,-96.74 1142.57,-103.17"/>
</a>
</g>
</g>
<!-- Node4&#45;&gt;Node15 -->
<g id="edge14_Node000004_Node000015" class="edge">
<title>Node4&#45;&gt;Node15</title>
<g id="a_edge14_Node000004_Node000015"><a xlink:title=" ">
<path fill="none" stroke="#63b8ff" d="M977.7,-133.5C974.76,-132.96 971.85,-132.46 969,-132 932.19,-126.06 707.16,-102.52 585.66,-89.98"/>
<polygon fill="#63b8ff" stroke="#63b8ff" points="585.97,-86.49 575.66,-88.94 585.25,-93.45 585.97,-86.49"/>
</a>
</g>
</g>
<!-- Node4&#45;&gt;Node19 -->
<g id="edge20_Node000004_Node000019" class="edge">
<title>Node4&#45;&gt;Node19</title>
<g id="a_edge20_Node000004_Node000019"><a xlink:title=" ">
<path fill="none" stroke="#63b8ff" d="M1090.03,-135.36C1152.79,-123.44 1253.86,-104.25 1316.14,-92.42"/>
<polygon fill="#63b8ff" stroke="#63b8ff" points="1317,-95.82 1326.17,-90.51 1315.69,-88.94 1317,-95.82"/>
</a>
</g>
</g>
<!-- Node15&#45;&gt;Node5 -->
<g id="edge15_Node000015_Node000005" class="edge">
<title>Node15&#45;&gt;Node5</title>
<g id="a_edge15_Node000015_Node000005"><a xlink:title=" ">
<path fill="none" stroke="#63b8ff" d="M540.37,-71.37C583.16,-59.96 658.65,-39.83 705.85,-27.24"/>
<polygon fill="#63b8ff" stroke="#63b8ff" points="707,-30.56 715.76,-24.6 705.2,-23.79 707,-30.56"/>
</a>
</g>
</g>
<!-- Node15&#45;&gt;Node8 -->
<g id="edge16_Node000015_Node000008" class="edge">
<title>Node15&#45;&gt;Node8</title>
<g id="a_edge16_Node000015_Node000008"><a xlink:title=" ">
<path fill="none" stroke="#63b8ff" d="M523.24,-71.37C542.11,-60.68 574.48,-42.35 596.77,-29.72"/>
<polygon fill="#63b8ff" stroke="#63b8ff" points="598.66,-32.67 605.64,-24.7 595.21,-26.58 598.66,-32.67"/>
</a>
</g>
</g>
<!-- Node16 -->
<g id="Node000016" class="node">
<title>Node16</title>
<g id="a_Node000016"><a xlink:title=" ">
<polygon fill="#e0e0e0" stroke="#999999" points="240.5,-24.5 115.5,-24.5 115.5,-5.5 240.5,-5.5 240.5,-24.5"/>
<text text-anchor="middle" x="178" y="-12.5" font-family="Helvetica,sans-Serif" font-size="10.00">boost/lexical_cast.hpp</text>
</a>
</g>
</g>
<!-- Node15&#45;&gt;Node16 -->
<g id="edge17_Node000015_Node000016" class="edge">
<title>Node15&#45;&gt;Node16</title>
<g id="a_edge17_Node000015_Node000016"><a xlink:title=" ">
<path fill="none" stroke="#63b8ff" d="M463.84,-71.44C403.82,-59.8 296.59,-39 231.9,-26.45"/>
<polygon fill="#63b8ff" stroke="#63b8ff" points="232.38,-22.98 221.9,-24.51 231.05,-29.85 232.38,-22.98"/>
</a>
</g>
</g>
<!-- Node17 -->
<g id="Node000017" class="node">
<title>Node17</title>
<g id="a_Node000017"><a xlink:title=" ">
<polygon fill="#e0e0e0" stroke="#999999" points="566,-30 450,-30 450,0 566,0 566,-30"/>
<text text-anchor="start" x="458" y="-18" font-family="Helvetica,sans-Serif" font-size="10.00">boost/multiprecision</text>
<text text-anchor="middle" x="508" y="-7" font-family="Helvetica,sans-Serif" font-size="10.00">/cpp_bin_float.hpp</text>
</a>
</g>
</g>
<!-- Node15&#45;&gt;Node17 -->
<g id="edge18_Node000015_Node000017" class="edge">
<title>Node15&#45;&gt;Node17</title>
<g id="a_edge18_Node000015_Node000017"><a xlink:title=" ">
<path fill="none" stroke="#63b8ff" d="M508,-71.37C508,-63.49 508,-51.45 508,-40.6"/>
<polygon fill="#63b8ff" stroke="#63b8ff" points="511.5,-40.36 508,-30.36 504.5,-40.36 511.5,-40.36"/>
</a>
</g>
</g>
<!-- Node18 -->
<g id="Node000018" class="node">
<title>Node18</title>
<g id="a_Node000018"><a xlink:title=" ">
<polygon fill="#e0e0e0" stroke="#999999" points="432,-30 316,-30 316,0 432,0 432,-30"/>
<text text-anchor="start" x="324" y="-18" font-family="Helvetica,sans-Serif" font-size="10.00">boost/multiprecision</text>
<text text-anchor="middle" x="374" y="-7" font-family="Helvetica,sans-Serif" font-size="10.00">/fwd.hpp</text>
</a>
</g>
</g>
<!-- Node15&#45;&gt;Node18 -->
<g id="edge19_Node000015_Node000018" class="edge">
<title>Node15&#45;&gt;Node18</title>
<g id="a_edge19_Node000015_Node000018"><a xlink:title=" ">
<path fill="none" stroke="#63b8ff" d="M489.93,-71.37C470.2,-61.95 438.04,-46.59 412.59,-34.43"/>
<polygon fill="#63b8ff" stroke="#63b8ff" points="414.09,-31.27 403.55,-30.12 411.07,-37.58 414.09,-31.27"/>
</a>
</g>
</g>
<!-- Node19&#45;&gt;Node5 -->
<g id="edge21_Node000019_Node000005" class="edge">
<title>Node19&#45;&gt;Node5</title>
<g id="a_edge21_Node000019_Node000005"><a xlink:title=" ">
<path fill="none" stroke="#63b8ff" d="M1305.04,-71.47C1289.31,-69.55 1272.57,-67.61 1257,-66 1067.56,-46.39 1018.93,-54.05 830,-30 821.56,-28.93 812.65,-27.6 803.95,-26.2"/>
<polygon fill="#63b8ff" stroke="#63b8ff" points="804.31,-22.72 793.87,-24.54 803.16,-29.62 804.31,-22.72"/>
</a>
</g>
</g>
<!-- Node19&#45;&gt;Node7 -->
<g id="edge23_Node000019_Node000007" class="edge">
<title>Node19&#45;&gt;Node7</title>
<g id="a_edge23_Node000019_Node000007"><a xlink:title=" ">
<path fill="none" stroke="#63b8ff" d="M1404.79,-71.46C1439.23,-62.42 1493.97,-47.11 1540,-30 1541.21,-29.55 1542.45,-29.07 1543.69,-28.58"/>
<polygon fill="#63b8ff" stroke="#63b8ff" points="1545.3,-31.69 1553.14,-24.57 1542.57,-25.25 1545.3,-31.69"/>
</a>
</g>
</g>
<!-- Node19&#45;&gt;Node9 -->
<g id="edge24_Node000019_Node000009" class="edge">
<title>Node19&#45;&gt;Node9</title>
<g id="a_edge24_Node000019_Node000009"><a xlink:title=" ">
<path fill="none" stroke="#63b8ff" d="M1384.08,-71.37C1397.86,-62.28 1420.02,-47.66 1438.11,-35.72"/>
<polygon fill="#63b8ff" stroke="#63b8ff" points="1440.19,-38.54 1446.61,-30.12 1436.33,-32.7 1440.19,-38.54"/>
</a>
</g>
</g>
<!-- Node19&#45;&gt;Node10 -->
<g id="edge25_Node000019_Node000010" class="edge">
<title>Node19&#45;&gt;Node10</title>
<g id="a_edge25_Node000019_Node000010"><a xlink:title=" ">
<path fill="none" stroke="#63b8ff" d="M1305.48,-71.49C1234.35,-62.15 1117.12,-46.47 1005.74,-30.09"/>
<polygon fill="#63b8ff" stroke="#63b8ff" points="1006.07,-26.6 995.67,-28.6 1005.05,-33.53 1006.07,-26.6"/>
</a>
</g>
</g>
<!-- Node19&#45;&gt;Node11 -->
<g id="edge26_Node000019_Node000011" class="edge">
<title>Node19&#45;&gt;Node11</title>
<g id="a_edge26_Node000019_Node000011"><a xlink:title=" ">
<path fill="none" stroke="#63b8ff" d="M1334.47,-71.44C1292.02,-61.48 1221.01,-44.84 1167.87,-32.38"/>
<polygon fill="#63b8ff" stroke="#63b8ff" points="1168.36,-28.9 1157.82,-30.02 1166.76,-35.71 1168.36,-28.9"/>
</a>
</g>
</g>
<!-- Node19&#45;&gt;Node13 -->
<g id="edge27_Node000019_Node000013" class="edge">
<title>Node19&#45;&gt;Node13</title>
<g id="a_edge27_Node000019_Node000013"><a xlink:title=" ">
<path fill="none" stroke="#63b8ff" d="M1356.16,-71.37C1340.33,-62.16 1314.73,-47.26 1294.06,-35.24"/>
<polygon fill="#63b8ff" stroke="#63b8ff" points="1295.66,-32.12 1285.26,-30.12 1292.14,-38.17 1295.66,-32.12"/>
</a>
</g>
</g>
<!-- Node20 -->
<g id="Node000020" class="node">
<title>Node20</title>
<g id="a_Node000020"><a xlink:title=" ">
<polygon fill="#e0e0e0" stroke="#999999" points="1387.5,-24.5 1340.5,-24.5 1340.5,-5.5 1387.5,-5.5 1387.5,-24.5"/>
<text text-anchor="middle" x="1364" y="-12.5" font-family="Helvetica,sans-Serif" font-size="10.00">cmath</text>
</a>
</g>
</g>
<!-- Node19&#45;&gt;Node20 -->
<g id="edge22_Node000019_Node000020" class="edge">
<title>Node19&#45;&gt;Node20</title>
<g id="a_edge22_Node000019_Node000020"><a xlink:title=" ">
<path fill="none" stroke="#63b8ff" d="M1370.06,-71.37C1369.04,-62.07 1367.39,-46.98 1366.07,-34.9"/>
<polygon fill="#63b8ff" stroke="#63b8ff" points="1369.54,-34.47 1364.97,-24.91 1362.58,-35.23 1369.54,-34.47"/>
</a>
</g>
</g>
<!-- Node21&#45;&gt;Node4 -->
<g id="edge38_Node000021_Node000004" class="edge">
<title>Node21&#45;&gt;Node4</title>
<g id="a_edge38_Node000021_Node000004"><a xlink:title=" ">
<path fill="none" stroke="#63b8ff" d="M757.12,-202.39C808.48,-193.01 888.77,-178.09 967.86,-162.2"/>
<polygon fill="#63b8ff" stroke="#63b8ff" points="968.89,-165.56 978,-160.16 967.5,-158.7 968.89,-165.56"/>
</a>
</g>
</g>
<!-- Node21&#45;&gt;Node5 -->
<g id="edge30_Node000021_Node000005" class="edge">
<title>Node21&#45;&gt;Node5</title>
<g id="a_edge30_Node000021_Node000005"><a xlink:title=" ">
<path fill="none" stroke="#63b8ff" d="M757.25,-198.14C799.57,-186.58 852.7,-170.66 859,-162 903.43,-100.99 783.11,-108.29 772,-96 756.61,-78.98 751.08,-52.43 749.1,-34.64"/>
<polygon fill="#63b8ff" stroke="#63b8ff" points="752.58,-34.3 748.25,-24.63 745.6,-34.89 752.58,-34.3"/>
</a>
</g>
</g>
<!-- Node21&#45;&gt;Node7 -->
<g id="edge32_Node000021_Node000007" class="edge">
<title>Node21&#45;&gt;Node7</title>
<g id="a_edge32_Node000021_Node000007"><a xlink:title=" ">
<path fill="none" stroke="#63b8ff" d="M757.09,-209.68C915.16,-201.96 1379.66,-173.11 1507,-96 1532.02,-80.85 1551.3,-52.15 1561.9,-33.56"/>
<polygon fill="#63b8ff" stroke="#63b8ff" points="1565.04,-35.12 1566.75,-24.66 1558.89,-31.77 1565.04,-35.12"/>
</a>
</g>
</g>
<!-- Node21&#45;&gt;Node16 -->
<g id="edge36_Node000021_Node000016" class="edge">
<title>Node21&#45;&gt;Node16</title>
<g id="a_edge36_Node000021_Node000016"><a xlink:title=" ">
<path fill="none" stroke="#63b8ff" d="M650.57,-210.92C522.92,-207.78 208.46,-196.59 177,-162 144.96,-126.78 160.48,-64.63 171.01,-34.04"/>
<polygon fill="#63b8ff" stroke="#63b8ff" points="174.31,-35.23 174.45,-24.63 167.73,-32.83 174.31,-35.23"/>
</a>
</g>
</g>
<!-- Node21&#45;&gt;Node19 -->
<g id="edge39_Node000021_Node000019" class="edge">
<title>Node21&#45;&gt;Node19</title>
<g id="a_edge39_Node000021_Node000019"><a xlink:title=" ">
<path fill="none" stroke="#63b8ff" d="M757.16,-207.99C833.43,-201.63 978.05,-187.27 1099,-162 1186.18,-143.78 1286,-111.35 1337.04,-93.9"/>
<polygon fill="#63b8ff" stroke="#63b8ff" points="1338.27,-97.18 1346.58,-90.62 1335.99,-90.56 1338.27,-97.18"/>
</a>
</g>
</g>
<!-- Node22 -->
<g id="Node000022" class="node">
<title>Node22</title>
<g id="a_Node000022"><a xlink:title=" ">
<polygon fill="#e0e0e0" stroke="#999999" points="960,-156.5 906,-156.5 906,-137.5 960,-137.5 960,-156.5"/>
<text text-anchor="middle" x="933" y="-144.5" font-family="Helvetica,sans-Serif" font-size="10.00">random</text>
</a>
</g>
</g>
<!-- Node21&#45;&gt;Node22 -->
<g id="edge31_Node000021_Node000022" class="edge">
<title>Node21&#45;&gt;Node22</title>
<g id="a_edge31_Node000021_Node000022"><a xlink:title=" ">
<path fill="none" stroke="#63b8ff" d="M757.35,-198.86C795.14,-189.29 846.91,-175.68 892,-162 894.31,-161.3 896.68,-160.56 899.07,-159.79"/>
<polygon fill="#63b8ff" stroke="#63b8ff" points="900.41,-163.03 908.81,-156.57 898.22,-156.38 900.41,-163.03"/>
</a>
</g>
</g>
<!-- Node23 -->
<g id="Node000023" class="node">
<title>Node23</title>
<g id="a_Node000023"><a xlink:title=" ">
<polygon fill="#e0e0e0" stroke="#999999" points="334,-162 186,-162 186,-132 334,-132 334,-162"/>
<text text-anchor="start" x="194" y="-150" font-family="Helvetica,sans-Serif" font-size="10.00">boost/date_time/posix</text>
<text text-anchor="middle" x="260" y="-139" font-family="Helvetica,sans-Serif" font-size="10.00">_time/time_formatters.hpp</text>
</a>
</g>
</g>
<!-- Node21&#45;&gt;Node23 -->
<g id="edge33_Node000021_Node000023" class="edge">
<title>Node21&#45;&gt;Node23</title>
<g id="a_edge33_Node000021_Node000023"><a xlink:title=" ">
<path fill="none" stroke="#63b8ff" d="M650.71,-205.12C582.21,-196.16 459.34,-179.72 344.24,-162.16"/>
<polygon fill="#63b8ff" stroke="#63b8ff" points="344.61,-158.68 334.19,-160.63 343.55,-165.6 344.61,-158.68"/>
</a>
</g>
</g>
<!-- Node24 -->
<g id="Node000024" class="node">
<title>Node24</title>
<g id="a_Node000024"><a xlink:title=" ">
<polygon fill="#e0e0e0" stroke="#999999" points="440,-156.5 352,-156.5 352,-137.5 440,-137.5 440,-156.5"/>
<text text-anchor="middle" x="396" y="-144.5" font-family="Helvetica,sans-Serif" font-size="10.00">boost/json.hpp</text>
</a>
</g>
</g>
<!-- Node21&#45;&gt;Node24 -->
<g id="edge34_Node000021_Node000024" class="edge">
<title>Node21&#45;&gt;Node24</title>
<g id="a_edge34_Node000021_Node000024"><a xlink:title=" ">
<path fill="none" stroke="#63b8ff" d="M650.55,-202.56C598.81,-193.17 518.25,-177.92 449,-162 445.09,-161.1 441.04,-160.12 436.99,-159.11"/>
<polygon fill="#63b8ff" stroke="#63b8ff" points="437.58,-155.65 427.02,-156.55 435.84,-162.43 437.58,-155.65"/>
</a>
</g>
</g>
<!-- Node25 -->
<g id="Node000025" class="node">
<title>Node25</title>
<g id="a_Node000025"><a xlink:title=" ">
<polygon fill="#e0e0e0" stroke="#999999" points="578.5,-156.5 457.5,-156.5 457.5,-137.5 578.5,-137.5 578.5,-156.5"/>
<text text-anchor="middle" x="518" y="-144.5" font-family="Helvetica,sans-Serif" font-size="10.00">boost/json/object.hpp</text>
</a>
</g>
</g>
<!-- Node21&#45;&gt;Node25 -->
<g id="edge35_Node000021_Node000025" class="edge">
<title>Node21&#45;&gt;Node25</title>
<g id="a_edge35_Node000021_Node000025"><a xlink:title=" ">
<path fill="none" stroke="#63b8ff" d="M663.18,-197.95C629.99,-186.53 583.68,-170.6 552.36,-159.82"/>
<polygon fill="#63b8ff" stroke="#63b8ff" points="553.35,-156.46 542.75,-156.52 551.07,-163.08 553.35,-156.46"/>
</a>
</g>
</g>
<!-- Node26 -->
<g id="Node000026" class="node">
<title>Node26</title>
<g id="a_Node000026"><a xlink:title=" ">
<polygon fill="#e0e0e0" stroke="#999999" points="675.5,-156.5 596.5,-156.5 596.5,-137.5 675.5,-137.5 675.5,-156.5"/>
<text text-anchor="middle" x="636" y="-144.5" font-family="Helvetica,sans-Serif" font-size="10.00">fmt/format.h</text>
</a>
</g>
</g>
<!-- Node21&#45;&gt;Node26 -->
<g id="edge37_Node000021_Node000026" class="edge">
<title>Node21&#45;&gt;Node26</title>
<g id="a_edge37_Node000021_Node000026"><a xlink:title=" ">
<path fill="none" stroke="#63b8ff" d="M688.91,-197.8C678.2,-187.72 663.83,-174.19 652.77,-163.78"/>
<polygon fill="#63b8ff" stroke="#63b8ff" points="655.08,-161.15 645.4,-156.84 650.28,-166.25 655.08,-161.15"/>
</a>
</g>
</g>
<!-- Node27 -->
<g id="Node000027" class="node">
<title>Node27</title>
<g id="a_Node000027"><a xlink:title=" ">
<polygon fill="#e0e0e0" stroke="#999999" points="850,-156.5 694,-156.5 694,-137.5 850,-137.5 850,-156.5"/>
<text text-anchor="middle" x="772" y="-144.5" font-family="Helvetica,sans-Serif" font-size="10.00">internal_use_only/config.hpp</text>
</a>
</g>
</g>
<!-- Node21&#45;&gt;Node27 -->
<g id="edge40_Node000021_Node000027" class="edge">
<title>Node21&#45;&gt;Node27</title>
<g id="a_edge40_Node000021_Node000027"><a xlink:title=" ">
<path fill="none" stroke="#63b8ff" d="M719.09,-197.8C729.8,-187.72 744.17,-174.19 755.23,-163.78"/>
<polygon fill="#63b8ff" stroke="#63b8ff" points="757.72,-166.25 762.6,-156.84 752.92,-161.15 757.72,-166.25"/>
</a>
</g>
</g>
</g>
</svg>
