<?xml version="1.0" encoding="UTF-8" standalone="no"?>
<!DOCTYPE svg PUBLIC "-//W3C//DTD SVG 1.1//EN"
 "http://www.w3.org/Graphics/SVG/1.1/DTD/svg11.dtd">
<!-- Generated by graphviz version 2.43.0 (0)
 -->
<!-- Title: include/Clock/si3_sim/config.hpp Pages: 1 -->
<svg width="1290pt" height="302pt"
 viewBox="0.00 0.00 1289.50 302.00" xmlns="http://www.w3.org/2000/svg" xmlns:xlink="http://www.w3.org/1999/xlink">
<g id="graph0" class="graph" transform="scale(1 1) rotate(0) translate(4 298)">
<title>include/Clock/si3_sim/config.hpp</title>
<!-- Node1 -->
<g id="Node000001" class="node">
<title>Node1</title>
<g id="a_Node000001"><a xlink:title="Configuration structure for the Si3 simulation.">
<polygon fill="#999999" stroke="#666666" points="406,-294 284,-294 284,-264 406,-264 406,-294"/>
<text text-anchor="start" x="292" y="-282" font-family="Helvetica,sans-Serif" font-size="10.00">include/Clock/si3_sim</text>
<text text-anchor="middle" x="345" y="-271" font-family="Helvetica,sans-Serif" font-size="10.00">/config.hpp</text>
</a>
</g>
</g>
<!-- Node2 -->
<g id="Node000002" class="node">
<title>Node2</title>
<g id="a_Node000002"><a xlink:title=" ">
<polygon fill="#e0e0e0" stroke="#999999" points="176,-222.5 112,-222.5 112,-203.5 176,-203.5 176,-222.5"/>
<text text-anchor="middle" x="144" y="-210.5" font-family="Helvetica,sans-Serif" font-size="10.00">algorithm</text>
</a>
</g>
</g>
<!-- Node1&#45;&gt;Node2 -->
<g id="edge1_Node000001_Node000002" class="edge">
<title>Node1&#45;&gt;Node2</title>
<g id="a_edge1_Node000001_Node000002"><a xlink:title=" ">
<path fill="none" stroke="#63b8ff" d="M299.03,-263.98C267,-254.13 223.31,-240.52 185,-228 182.85,-227.3 180.64,-226.57 178.41,-225.82"/>
<polygon fill="#63b8ff" stroke="#63b8ff" points="179.28,-222.42 168.68,-222.54 177.04,-229.05 179.28,-222.42"/>
</a>
</g>
</g>
<!-- Node3 -->
<g id="Node000003" class="node">
<title>Node3</title>
<g id="a_Node000003"><a xlink:title=" ">
<polygon fill="#e0e0e0" stroke="#999999" points="251.5,-222.5 194.5,-222.5 194.5,-203.5 251.5,-203.5 251.5,-222.5"/>
<text text-anchor="middle" x="223" y="-210.5" font-family="Helvetica,sans-Serif" font-size="10.00">ostream</text>
</a>
</g>
</g>
<!-- Node1&#45;&gt;Node3 -->
<g id="edge2_Node000001_Node000003" class="edge">
<title>Node1&#45;&gt;Node3</title>
<g id="a_edge2_Node000001_Node000003"><a xlink:title=" ">
<path fill="none" stroke="#63b8ff" d="M318.23,-263.95C297.4,-253.03 268.69,-237.97 248.26,-227.25"/>
<polygon fill="#63b8ff" stroke="#63b8ff" points="249.72,-224.06 239.24,-222.52 246.47,-230.26 249.72,-224.06"/>
</a>
</g>
</g>
<!-- Node4 -->
<g id="Node000004" class="node">
<title>Node4</title>
<g id="a_Node000004"><a xlink:title=" ">
<polygon fill="#e0e0e0" stroke="#999999" points="316.5,-222.5 269.5,-222.5 269.5,-203.5 316.5,-203.5 316.5,-222.5"/>
<text text-anchor="middle" x="293" y="-210.5" font-family="Helvetica,sans-Serif" font-size="10.00">vector</text>
</a>
</g>
</g>
<!-- Node1&#45;&gt;Node4 -->
<g id="edge3_Node000001_Node000004" class="edge">
<title>Node1&#45;&gt;Node4</title>
<g id="a_edge3_Node000001_Node000004"><a xlink:title=" ">
<path fill="none" stroke="#63b8ff" d="M333.46,-263.8C325.51,-254.01 314.92,-240.98 306.57,-230.7"/>
<polygon fill="#63b8ff" stroke="#63b8ff" points="309.21,-228.4 300.19,-222.84 303.78,-232.81 309.21,-228.4"/>
</a>
</g>
</g>
<!-- Node5 -->
<g id="Node000005" class="node">
<title>Node5</title>
<g id="a_Node000005"><a xlink:href="date__time_8hpp_source.html" target="_top" xlink:title=" ">
<polygon fill="white" stroke="#666666" points="485,-162 373,-162 373,-132 485,-132 485,-162"/>
<text text-anchor="start" x="381" y="-150" font-family="Helvetica,sans-Serif" font-size="10.00">Clock/misc_lib/date</text>
<text text-anchor="middle" x="429" y="-139" font-family="Helvetica,sans-Serif" font-size="10.00">_time.hpp</text>
</a>
</g>
</g>
<!-- Node1&#45;&gt;Node5 -->
<g id="edge4_Node000001_Node000005" class="edge">
<title>Node1&#45;&gt;Node5</title>
<g id="a_edge4_Node000001_Node000005"><a xlink:title=" ">
<path fill="none" stroke="#63b8ff" d="M354.15,-263.84C368.6,-241.47 396.86,-197.74 414.22,-170.88"/>
<polygon fill="#63b8ff" stroke="#63b8ff" points="417.37,-172.44 419.86,-162.14 411.49,-168.64 417.37,-172.44"/>
</a>
</g>
</g>
<!-- Node13 -->
<g id="Node000013" class="node">
<title>Node13</title>
<g id="a_Node000013"><a xlink:href="quad_8hpp.html" target="_top" xlink:title="Quad precision floating&#45;point type and utilities.">
<polygon fill="white" stroke="#666666" points="142.5,-90.5 7.5,-90.5 7.5,-71.5 142.5,-71.5 142.5,-90.5"/>
<text text-anchor="middle" x="75" y="-78.5" font-family="Helvetica,sans-Serif" font-size="10.00">Clock/misc_lib/quad.hpp</text>
</a>
</g>
</g>
<!-- Node1&#45;&gt;Node13 -->
<g id="edge23_Node000001_Node000013" class="edge">
<title>Node1&#45;&gt;Node13</title>
<g id="a_edge23_Node000001_Node000013"><a xlink:title=" ">
<path fill="none" stroke="#63b8ff" d="M345.02,-263.94C344.32,-246.57 340.69,-216.98 325,-198 275.25,-137.81 187.33,-107.22 130.13,-92.95"/>
<polygon fill="#63b8ff" stroke="#63b8ff" points="130.71,-89.49 120.17,-90.55 129.07,-96.3 130.71,-89.49"/>
</a>
</g>
</g>
<!-- Node15 -->
<g id="Node000015" class="node">
<title>Node15</title>
<g id="a_Node000015"><a xlink:href="time_8hpp.html" target="_top" xlink:title="DateTime data structure and utilities.">
<polygon fill="white" stroke="#666666" points="950,-90.5 816,-90.5 816,-71.5 950,-71.5 950,-90.5"/>
<text text-anchor="middle" x="883" y="-78.5" font-family="Helvetica,sans-Serif" font-size="10.00">Clock/misc_lib/time.hpp</text>
</a>
</g>
</g>
<!-- Node1&#45;&gt;Node15 -->
<g id="edge32_Node000001_Node000015" class="edge">
<title>Node1&#45;&gt;Node15</title>
<g id="a_edge32_Node000001_Node000015"><a xlink:title=" ">
<path fill="none" stroke="#63b8ff" d="M406.17,-277.81C562.78,-275.87 971.66,-261.21 1053,-162 1084.38,-123.73 1018.85,-102.72 960.26,-91.96"/>
<polygon fill="#63b8ff" stroke="#63b8ff" points="960.63,-88.47 950.18,-90.19 959.43,-95.36 960.63,-88.47"/>
</a>
</g>
</g>
<!-- Node19 -->
<g id="Node000019" class="node">
<title>Node19</title>
<g id="a_Node000019"><a xlink:href="run__record_8hpp.html" target="_top" xlink:title="Run record structure and utilities.">
<polygon fill="white" stroke="#666666" points="714,-228 608,-228 608,-198 714,-198 714,-228"/>
<text text-anchor="start" x="616" y="-216" font-family="Helvetica,sans-Serif" font-size="10.00">Clock/misc_lib/run</text>
<text text-anchor="middle" x="661" y="-205" font-family="Helvetica,sans-Serif" font-size="10.00">_record.hpp</text>
</a>
</g>
</g>
<!-- Node1&#45;&gt;Node19 -->
<g id="edge24_Node000001_Node000019" class="edge">
<title>Node1&#45;&gt;Node19</title>
<g id="a_edge24_Node000001_Node000019"><a xlink:title=" ">
<path fill="none" stroke="#63b8ff" d="M406.3,-265.58C461.39,-254.43 541.94,-238.11 597.65,-226.83"/>
<polygon fill="#63b8ff" stroke="#63b8ff" points="598.64,-230.2 607.75,-224.79 597.25,-223.34 598.64,-230.2"/>
</a>
</g>
</g>
<!-- Node6 -->
<g id="Node000006" class="node">
<title>Node6</title>
<g id="a_Node000006"><a xlink:title=" ">
<polygon fill="#e0e0e0" stroke="#999999" points="521.5,-24.5 376.5,-24.5 376.5,-5.5 521.5,-5.5 521.5,-24.5"/>
<text text-anchor="middle" x="449" y="-12.5" font-family="Helvetica,sans-Serif" font-size="10.00">Clock/misc_lib_export.hpp</text>
</a>
</g>
</g>
<!-- Node5&#45;&gt;Node6 -->
<g id="edge5_Node000005_Node000006" class="edge">
<title>Node5&#45;&gt;Node6</title>
<g id="a_edge5_Node000005_Node000006"><a xlink:title=" ">
<path fill="none" stroke="#63b8ff" d="M431.18,-131.84C434.79,-108.34 442.04,-61.26 446.09,-34.93"/>
<polygon fill="#63b8ff" stroke="#63b8ff" points="449.59,-35.16 447.65,-24.75 442.67,-34.1 449.59,-35.16"/>
</a>
</g>
</g>
<!-- Node7 -->
<g id="Node000007" class="node">
<title>Node7</title>
<g id="a_Node000007"><a xlink:title=" ">
<polygon fill="#e0e0e0" stroke="#999999" points="403,-90.5 343,-90.5 343,-71.5 403,-71.5 403,-90.5"/>
<text text-anchor="middle" x="373" y="-78.5" font-family="Helvetica,sans-Serif" font-size="10.00">iostream</text>
</a>
</g>
</g>
<!-- Node5&#45;&gt;Node7 -->
<g id="edge6_Node000005_Node000007" class="edge">
<title>Node5&#45;&gt;Node7</title>
<g id="a_edge6_Node000005_Node000007"><a xlink:title=" ">
<path fill="none" stroke="#63b8ff" d="M416.57,-131.8C407.93,-121.92 396.38,-108.72 387.34,-98.39"/>
<polygon fill="#63b8ff" stroke="#63b8ff" points="389.96,-96.07 380.74,-90.84 384.69,-100.67 389.96,-96.07"/>
</a>
</g>
</g>
<!-- Node8 -->
<g id="Node000008" class="node">
<title>Node8</title>
<g id="a_Node000008"><a xlink:title=" ">
<polygon fill="#e0e0e0" stroke="#999999" points="790,-24.5 746,-24.5 746,-5.5 790,-5.5 790,-24.5"/>
<text text-anchor="middle" x="768" y="-12.5" font-family="Helvetica,sans-Serif" font-size="10.00">string</text>
</a>
</g>
</g>
<!-- Node5&#45;&gt;Node8 -->
<g id="edge7_Node000005_Node000008" class="edge">
<title>Node5&#45;&gt;Node8</title>
<g id="a_edge7_Node000005_Node000008"><a xlink:title=" ">
<path fill="none" stroke="#63b8ff" d="M485.27,-138.49C529.87,-131.25 593.11,-118.07 645,-96 685.12,-78.94 726.57,-48.94 749.64,-30.92"/>
<polygon fill="#63b8ff" stroke="#63b8ff" points="751.88,-33.61 757.54,-24.65 747.53,-28.13 751.88,-33.61"/>
</a>
</g>
</g>
<!-- Node9 -->
<g id="Node000009" class="node">
<title>Node9</title>
<g id="a_Node000009"><a xlink:title=" ">
<polygon fill="#e0e0e0" stroke="#999999" points="207.5,-24.5 134.5,-24.5 134.5,-5.5 207.5,-5.5 207.5,-24.5"/>
<text text-anchor="middle" x="171" y="-12.5" font-family="Helvetica,sans-Serif" font-size="10.00">string_view</text>
</a>
</g>
</g>
<!-- Node5&#45;&gt;Node9 -->
<g id="edge8_Node000005_Node000009" class="edge">
<title>Node5&#45;&gt;Node9</title>
<g id="a_edge8_Node000005_Node000009"><a xlink:title=" ">
<path fill="none" stroke="#63b8ff" d="M372.86,-134.64C302.74,-120.39 191.66,-97.62 190,-96 173.74,-80.17 170.35,-53.14 170.11,-34.93"/>
<polygon fill="#63b8ff" stroke="#63b8ff" points="173.61,-34.98 170.29,-24.92 166.61,-34.85 173.61,-34.98"/>
</a>
</g>
</g>
<!-- Node10 -->
<g id="Node000010" class="node">
<title>Node10</title>
<g id="a_Node000010"><a xlink:title=" ">
<polygon fill="#e0e0e0" stroke="#999999" points="727,-30 559,-30 559,0 727,0 727,-30"/>
<text text-anchor="start" x="567" y="-18" font-family="Helvetica,sans-Serif" font-size="10.00">boost/date_time/posix</text>
<text text-anchor="middle" x="643" y="-7" font-family="Helvetica,sans-Serif" font-size="10.00">_time/posix_time_duration.hpp</text>
</a>
</g>
</g>
<!-- Node5&#45;&gt;Node10 -->
<g id="edge9_Node000005_Node000010" class="edge">
<title>Node5&#45;&gt;Node10</title>
<g id="a_edge9_Node000005_Node000010"><a xlink:title=" ">
<path fill="none" stroke="#63b8ff" d="M485.45,-137.96C535.59,-129.7 603.83,-115.31 623,-96 637.45,-81.44 641.99,-58.13 643.19,-40.41"/>
<polygon fill="#63b8ff" stroke="#63b8ff" points="646.69,-40.35 643.56,-30.23 639.7,-40.1 646.69,-40.35"/>
</a>
</g>
</g>
<!-- Node11 -->
<g id="Node000011" class="node">
<title>Node11</title>
<g id="a_Node000011"><a xlink:title=" ">
<polygon fill="#e0e0e0" stroke="#999999" points="614.5,-96 459.5,-96 459.5,-66 614.5,-66 614.5,-96"/>
<text text-anchor="start" x="467.5" y="-84" font-family="Helvetica,sans-Serif" font-size="10.00">boost/date_time/posix</text>
<text text-anchor="middle" x="537" y="-73" font-family="Helvetica,sans-Serif" font-size="10.00">_time/posix_time_types.hpp</text>
</a>
</g>
</g>
<!-- Node5&#45;&gt;Node11 -->
<g id="edge10_Node000005_Node000011" class="edge">
<title>Node5&#45;&gt;Node11</title>
<g id="a_edge10_Node000005_Node000011"><a xlink:title=" ">
<path fill="none" stroke="#63b8ff" d="M452.7,-131.95C467.89,-122.95 487.82,-111.14 504.48,-101.27"/>
<polygon fill="#63b8ff" stroke="#63b8ff" points="506.54,-104.12 513.35,-96.01 502.97,-98.1 506.54,-104.12"/>
</a>
</g>
</g>
<!-- Node12 -->
<g id="Node000012" class="node">
<title>Node12</title>
<g id="a_Node000012"><a xlink:title=" ">
<polygon fill="#e0e0e0" stroke="#999999" points="324.5,-96 199.5,-96 199.5,-66 324.5,-66 324.5,-96"/>
<text text-anchor="start" x="207.5" y="-84" font-family="Helvetica,sans-Serif" font-size="10.00">boost/date_time/posix</text>
<text text-anchor="middle" x="262" y="-73" font-family="Helvetica,sans-Serif" font-size="10.00">_time/ptime.hpp</text>
</a>
</g>
</g>
<!-- Node5&#45;&gt;Node12 -->
<g id="edge11_Node000005_Node000012" class="edge">
<title>Node5&#45;&gt;Node12</title>
<g id="a_edge11_Node000005_Node000012"><a xlink:title=" ">
<path fill="none" stroke="#63b8ff" d="M392.35,-131.95C367.55,-122.45 334.6,-109.82 308.04,-99.64"/>
<polygon fill="#63b8ff" stroke="#63b8ff" points="309.15,-96.32 298.56,-96.01 306.65,-102.86 309.15,-96.32"/>
</a>
</g>
</g>
<!-- Node5&#45;&gt;Node13 -->
<g id="edge12_Node000005_Node000013" class="edge">
<title>Node5&#45;&gt;Node13</title>
<g id="a_edge12_Node000005_Node000013"><a xlink:title=" ">
<path fill="none" stroke="#63b8ff" d="M372.86,-134.65C368.17,-133.74 363.51,-132.85 359,-132 316.91,-124.09 204.24,-104.42 134.12,-92.24"/>
<polygon fill="#63b8ff" stroke="#63b8ff" points="134.55,-88.76 124.1,-90.5 133.35,-95.66 134.55,-88.76"/>
</a>
</g>
</g>
<!-- Node5&#45;&gt;Node15 -->
<g id="edge16_Node000005_Node000015" class="edge">
<title>Node5&#45;&gt;Node15</title>
<g id="a_edge16_Node000005_Node000015"><a xlink:title=" ">
<path fill="none" stroke="#63b8ff" d="M485.12,-138.09C567.82,-126.43 722.33,-104.65 812.54,-91.93"/>
<polygon fill="#63b8ff" stroke="#63b8ff" points="813.26,-95.37 822.67,-90.5 812.28,-88.43 813.26,-95.37"/>
</a>
</g>
</g>
<!-- Node13&#45;&gt;Node6 -->
<g id="edge13_Node000013_Node000006" class="edge">
<title>Node13&#45;&gt;Node6</title>
<g id="a_edge13_Node000013_Node000006"><a xlink:title=" ">
<path fill="none" stroke="#63b8ff" d="M125.05,-71.44C193.49,-59.72 316.1,-38.74 389.26,-26.22"/>
<polygon fill="#63b8ff" stroke="#63b8ff" points="389.98,-29.65 399.25,-24.51 388.8,-22.75 389.98,-29.65"/>
</a>
</g>
</g>
<!-- Node13&#45;&gt;Node9 -->
<g id="edge14_Node000013_Node000009" class="edge">
<title>Node13&#45;&gt;Node9</title>
<g id="a_edge14_Node000013_Node000009"><a xlink:title=" ">
<path fill="none" stroke="#63b8ff" d="M87.95,-71.37C103.69,-60.87 130.5,-43 149.4,-30.4"/>
<polygon fill="#63b8ff" stroke="#63b8ff" points="151.57,-33.16 157.95,-24.7 147.69,-27.33 151.57,-33.16"/>
</a>
</g>
</g>
<!-- Node14 -->
<g id="Node000014" class="node">
<title>Node14</title>
<g id="a_Node000014"><a xlink:title=" ">
<polygon fill="#e0e0e0" stroke="#999999" points="116,-30 0,-30 0,0 116,0 116,-30"/>
<text text-anchor="start" x="8" y="-18" font-family="Helvetica,sans-Serif" font-size="10.00">boost/multiprecision</text>
<text text-anchor="middle" x="58" y="-7" font-family="Helvetica,sans-Serif" font-size="10.00">/cpp_bin_float.hpp</text>
</a>
</g>
</g>
<!-- Node13&#45;&gt;Node14 -->
<g id="edge15_Node000013_Node000014" class="edge">
<title>Node13&#45;&gt;Node14</title>
<g id="a_edge15_Node000013_Node000014"><a xlink:title=" ">
<path fill="none" stroke="#63b8ff" d="M72.71,-71.37C70.59,-63.4 67.35,-51.2 64.45,-40.27"/>
<polygon fill="#63b8ff" stroke="#63b8ff" points="67.76,-39.13 61.81,-30.36 61,-40.92 67.76,-39.13"/>
</a>
</g>
</g>
<!-- Node15&#45;&gt;Node6 -->
<g id="edge17_Node000015_Node000006" class="edge">
<title>Node15&#45;&gt;Node6</title>
<g id="a_edge17_Node000015_Node000006"><a xlink:title=" ">
<path fill="none" stroke="#63b8ff" d="M824.92,-71.44C745.01,-59.65 601.47,-38.48 516.77,-25.99"/>
<polygon fill="#63b8ff" stroke="#63b8ff" points="517.14,-22.51 506.74,-24.51 516.12,-29.44 517.14,-22.51"/>
</a>
</g>
</g>
<!-- Node15&#45;&gt;Node8 -->
<g id="edge18_Node000015_Node000008" class="edge">
<title>Node15&#45;&gt;Node8</title>
<g id="a_edge18_Node000015_Node000008"><a xlink:title=" ">
<path fill="none" stroke="#63b8ff" d="M867.49,-71.37C848.29,-60.68 815.34,-42.35 792.65,-29.72"/>
<polygon fill="#63b8ff" stroke="#63b8ff" points="794.07,-26.5 783.63,-24.7 790.67,-32.62 794.07,-26.5"/>
</a>
</g>
</g>
<!-- Node15&#45;&gt;Node10 -->
<g id="edge20_Node000015_Node000010" class="edge">
<title>Node15&#45;&gt;Node10</title>
<g id="a_edge20_Node000015_Node000010"><a xlink:title=" ">
<path fill="none" stroke="#63b8ff" d="M850.63,-71.37C813.6,-61.49 752.09,-45.09 705.61,-32.7"/>
<polygon fill="#63b8ff" stroke="#63b8ff" points="706.5,-29.31 695.93,-30.12 704.69,-36.07 706.5,-29.31"/>
</a>
</g>
</g>
<!-- Node16 -->
<g id="Node000016" class="node">
<title>Node16</title>
<g id="a_Node000016"><a xlink:title=" ">
<polygon fill="#e0e0e0" stroke="#999999" points="1281.5,-30 1124.5,-30 1124.5,0 1281.5,0 1281.5,-30"/>
<text text-anchor="start" x="1132.5" y="-18" font-family="Helvetica,sans-Serif" font-size="10.00">boost/date_time/posix</text>
<text text-anchor="middle" x="1203" y="-7" font-family="Helvetica,sans-Serif" font-size="10.00">_time/posix_time_config.hpp</text>
</a>
</g>
</g>
<!-- Node15&#45;&gt;Node16 -->
<g id="edge19_Node000015_Node000016" class="edge">
<title>Node15&#45;&gt;Node16</title>
<g id="a_edge19_Node000015_Node000016"><a xlink:title=" ">
<path fill="none" stroke="#63b8ff" d="M925.82,-71.44C976.1,-61.38 1060.54,-44.49 1123.04,-31.99"/>
<polygon fill="#63b8ff" stroke="#63b8ff" points="1123.76,-35.42 1132.88,-30.02 1122.38,-28.55 1123.76,-35.42"/>
</a>
</g>
</g>
<!-- Node17 -->
<g id="Node000017" class="node">
<title>Node17</title>
<g id="a_Node000017"><a xlink:title=" ">
<polygon fill="#e0e0e0" stroke="#999999" points="956,-30 808,-30 808,0 956,0 956,-30"/>
<text text-anchor="start" x="816" y="-18" font-family="Helvetica,sans-Serif" font-size="10.00">boost/date_time/posix</text>
<text text-anchor="middle" x="882" y="-7" font-family="Helvetica,sans-Serif" font-size="10.00">_time/time_formatters.hpp</text>
</a>
</g>
</g>
<!-- Node15&#45;&gt;Node17 -->
<g id="edge21_Node000015_Node000017" class="edge">
<title>Node15&#45;&gt;Node17</title>
<g id="a_edge21_Node000015_Node000017"><a xlink:title=" ">
<path fill="none" stroke="#63b8ff" d="M882.87,-71.37C882.74,-63.49 882.55,-51.45 882.38,-40.6"/>
<polygon fill="#63b8ff" stroke="#63b8ff" points="885.88,-40.3 882.22,-30.36 878.88,-40.41 885.88,-40.3"/>
</a>
</g>
</g>
<!-- Node18 -->
<g id="Node000018" class="node">
<title>Node18</title>
<g id="a_Node000018"><a xlink:title=" ">
<polygon fill="#e0e0e0" stroke="#999999" points="1106,-30 974,-30 974,0 1106,0 1106,-30"/>
<text text-anchor="start" x="982" y="-18" font-family="Helvetica,sans-Serif" font-size="10.00">boost/date_time/posix</text>
<text text-anchor="middle" x="1040" y="-7" font-family="Helvetica,sans-Serif" font-size="10.00">_time/time_parsers.hpp</text>
</a>
</g>
</g>
<!-- Node15&#45;&gt;Node18 -->
<g id="edge22_Node000015_Node000018" class="edge">
<title>Node15&#45;&gt;Node18</title>
<g id="a_edge22_Node000015_Node000018"><a xlink:title=" ">
<path fill="none" stroke="#63b8ff" d="M904.17,-71.37C927.59,-61.82 965.96,-46.18 995.96,-33.95"/>
<polygon fill="#63b8ff" stroke="#63b8ff" points="997.43,-37.13 1005.37,-30.12 994.79,-30.65 997.43,-37.13"/>
</a>
</g>
</g>
<!-- Node19&#45;&gt;Node5 -->
<g id="edge30_Node000019_Node000005" class="edge">
<title>Node19&#45;&gt;Node5</title>
<g id="a_edge30_Node000019_Node000005"><a xlink:title=" ">
<path fill="none" stroke="#63b8ff" d="M610.09,-197.95C574.58,-188.16 527.04,-175.05 489.58,-164.71"/>
<polygon fill="#63b8ff" stroke="#63b8ff" points="490.37,-161.3 479.79,-162.01 488.5,-168.05 490.37,-161.3"/>
</a>
</g>
</g>
<!-- Node19&#45;&gt;Node6 -->
<g id="edge25_Node000019_Node000006" class="edge">
<title>Node19&#45;&gt;Node6</title>
<g id="a_edge25_Node000019_Node000006"><a xlink:title=" ">
<path fill="none" stroke="#63b8ff" d="M607.89,-205.66C580.37,-199.37 549.03,-186.87 532,-162 488.47,-98.45 614.74,-108.14 623,-96 630.5,-84.97 631.02,-76.65 623,-66 609.62,-48.24 557.89,-34.84 514.28,-26.4"/>
<polygon fill="#63b8ff" stroke="#63b8ff" points="514.73,-22.93 504.26,-24.52 513.44,-29.81 514.73,-22.93"/>
</a>
</g>
</g>
<!-- Node19&#45;&gt;Node8 -->
<g id="edge27_Node000019_Node000008" class="edge">
<title>Node19&#45;&gt;Node8</title>
<g id="a_edge27_Node000019_Node000008"><a xlink:title=" ">
<path fill="none" stroke="#63b8ff" d="M714.17,-200.23C734.63,-192.83 755.94,-180.94 768,-162 793.1,-122.56 782.03,-64.17 773.88,-34.6"/>
<polygon fill="#63b8ff" stroke="#63b8ff" points="777.17,-33.38 770.99,-24.78 770.46,-35.36 777.17,-33.38"/>
</a>
</g>
</g>
<!-- Node20 -->
<g id="Node000020" class="node">
<title>Node20</title>
<g id="a_Node000020"><a xlink:title=" ">
<polygon fill="#e0e0e0" stroke="#999999" points="1044,-156.5 990,-156.5 990,-137.5 1044,-137.5 1044,-156.5"/>
<text text-anchor="middle" x="1017" y="-144.5" font-family="Helvetica,sans-Serif" font-size="10.00">random</text>
</a>
</g>
</g>
<!-- Node19&#45;&gt;Node20 -->
<g id="edge26_Node000019_Node000020" class="edge">
<title>Node19&#45;&gt;Node20</title>
<g id="a_edge26_Node000019_Node000020"><a xlink:title=" ">
<path fill="none" stroke="#63b8ff" d="M714.11,-207.25C778.2,-200.7 888.83,-186.81 981,-162 983.16,-161.42 985.36,-160.75 987.57,-160.03"/>
<polygon fill="#63b8ff" stroke="#63b8ff" points="988.84,-163.3 997.07,-156.63 986.48,-156.7 988.84,-163.3"/>
</a>
</g>
</g>
<!-- Node21 -->
<g id="Node000021" class="node">
<title>Node21</title>
<g id="a_Node000021"><a xlink:title=" ">
<polygon fill="#e0e0e0" stroke="#999999" points="662.5,-156.5 541.5,-156.5 541.5,-137.5 662.5,-137.5 662.5,-156.5"/>
<text text-anchor="middle" x="602" y="-144.5" font-family="Helvetica,sans-Serif" font-size="10.00">boost/json/object.hpp</text>
</a>
</g>
</g>
<!-- Node19&#45;&gt;Node21 -->
<g id="edge28_Node000019_Node000021" class="edge">
<title>Node19&#45;&gt;Node21</title>
<g id="a_edge28_Node000019_Node000021"><a xlink:title=" ">
<path fill="none" stroke="#63b8ff" d="M647.91,-197.8C638.8,-187.92 626.63,-174.72 617.11,-164.39"/>
<polygon fill="#63b8ff" stroke="#63b8ff" points="619.5,-161.82 610.15,-156.84 614.36,-166.57 619.5,-161.82"/>
</a>
</g>
</g>
<!-- Node22 -->
<g id="Node000022" class="node">
<title>Node22</title>
<g id="a_Node000022"><a xlink:title=" ">
<polygon fill="#e0e0e0" stroke="#999999" points="759.5,-156.5 680.5,-156.5 680.5,-137.5 759.5,-137.5 759.5,-156.5"/>
<text text-anchor="middle" x="720" y="-144.5" font-family="Helvetica,sans-Serif" font-size="10.00">fmt/format.h</text>
</a>
</g>
</g>
<!-- Node19&#45;&gt;Node22 -->
<g id="edge29_Node000019_Node000022" class="edge">
<title>Node19&#45;&gt;Node22</title>
<g id="a_edge29_Node000019_Node000022"><a xlink:title=" ">
<path fill="none" stroke="#63b8ff" d="M674.09,-197.8C683.2,-187.92 695.37,-174.72 704.89,-164.39"/>
<polygon fill="#63b8ff" stroke="#63b8ff" points="707.64,-166.57 711.85,-156.84 702.5,-161.82 707.64,-166.57"/>
</a>
</g>
</g>
<!-- Node23 -->
<g id="Node000023" class="node">
<title>Node23</title>
<g id="a_Node000023"><a xlink:title=" ">
<polygon fill="#e0e0e0" stroke="#999999" points="972,-156.5 816,-156.5 816,-137.5 972,-137.5 972,-156.5"/>
<text text-anchor="middle" x="894" y="-144.5" font-family="Helvetica,sans-Serif" font-size="10.00">internal_use_only/config.hpp</text>
</a>
</g>
</g>
<!-- Node19&#45;&gt;Node23 -->
<g id="edge31_Node000019_Node000023" class="edge">
<title>Node19&#45;&gt;Node23</title>
<g id="a_edge31_Node000019_Node000023"><a xlink:title=" ">
<path fill="none" stroke="#63b8ff" d="M712.13,-197.95C754.52,-186.31 813.99,-169.98 853.23,-159.2"/>
<polygon fill="#63b8ff" stroke="#63b8ff" points="854.28,-162.54 862.99,-156.52 852.42,-155.79 854.28,-162.54"/>
</a>
</g>
</g>
</g>
</svg>
