<?xml version="1.0" encoding="UTF-8" standalone="no"?>
<!DOCTYPE svg PUBLIC "-//W3C//DTD SVG 1.1//EN"
 "http://www.w3.org/Graphics/SVG/1.1/DTD/svg11.dtd">
<!-- Generated by graphviz version 2.43.0 (0)
 -->
<!-- Title: include/Clock/si3_sim/config.hpp Pages: 1 -->
<svg width="1265pt" height="302pt"
 viewBox="0.00 0.00 1265.00 302.00" xmlns="http://www.w3.org/2000/svg" xmlns:xlink="http://www.w3.org/1999/xlink">
<g id="graph0" class="graph" transform="scale(1 1) rotate(0) translate(4 298)">
<title>include/Clock/si3_sim/config.hpp</title>
<!-- Node1 -->
<g id="Node000001" class="node">
<title>Node1</title>
<g id="a_Node000001"><a xlink:title="Configuration structure for the Si3 simulation.">
<polygon fill="#999999" stroke="#666666" points="294,-294 172,-294 172,-264 294,-264 294,-294"/>
<text text-anchor="start" x="180" y="-282" font-family="Helvetica,sans-Serif" font-size="10.00">include/Clock/si3_sim</text>
<text text-anchor="middle" x="233" y="-271" font-family="Helvetica,sans-Serif" font-size="10.00">/config.hpp</text>
</a>
</g>
</g>
<!-- Node2 -->
<g id="Node000002" class="node">
<title>Node2</title>
<g id="a_Node000002"><a xlink:title=" ">
<polygon fill="#e0e0e0" stroke="#999999" points="64,-222.5 0,-222.5 0,-203.5 64,-203.5 64,-222.5"/>
<text text-anchor="middle" x="32" y="-210.5" font-family="Helvetica,sans-Serif" font-size="10.00">algorithm</text>
</a>
</g>
</g>
<!-- Node1&#45;&gt;Node2 -->
<g id="edge1_Node000001_Node000002" class="edge">
<title>Node1&#45;&gt;Node2</title>
<g id="a_edge1_Node000001_Node000002"><a xlink:title=" ">
<path fill="none" stroke="#63b8ff" d="M187.03,-263.98C155,-254.13 111.31,-240.52 73,-228 70.85,-227.3 68.64,-226.57 66.41,-225.82"/>
<polygon fill="#63b8ff" stroke="#63b8ff" points="67.28,-222.42 56.68,-222.54 65.04,-229.05 67.28,-222.42"/>
</a>
</g>
</g>
<!-- Node3 -->
<g id="Node000003" class="node">
<title>Node3</title>
<g id="a_Node000003"><a xlink:title=" ">
<polygon fill="#e0e0e0" stroke="#999999" points="139.5,-222.5 82.5,-222.5 82.5,-203.5 139.5,-203.5 139.5,-222.5"/>
<text text-anchor="middle" x="111" y="-210.5" font-family="Helvetica,sans-Serif" font-size="10.00">ostream</text>
</a>
</g>
</g>
<!-- Node1&#45;&gt;Node3 -->
<g id="edge2_Node000001_Node000003" class="edge">
<title>Node1&#45;&gt;Node3</title>
<g id="a_edge2_Node000001_Node000003"><a xlink:title=" ">
<path fill="none" stroke="#63b8ff" d="M206.23,-263.95C185.4,-253.03 156.69,-237.97 136.26,-227.25"/>
<polygon fill="#63b8ff" stroke="#63b8ff" points="137.72,-224.06 127.24,-222.52 134.47,-230.26 137.72,-224.06"/>
</a>
</g>
</g>
<!-- Node4 -->
<g id="Node000004" class="node">
<title>Node4</title>
<g id="a_Node000004"><a xlink:title=" ">
<polygon fill="#e0e0e0" stroke="#999999" points="204.5,-222.5 157.5,-222.5 157.5,-203.5 204.5,-203.5 204.5,-222.5"/>
<text text-anchor="middle" x="181" y="-210.5" font-family="Helvetica,sans-Serif" font-size="10.00">vector</text>
</a>
</g>
</g>
<!-- Node1&#45;&gt;Node4 -->
<g id="edge3_Node000001_Node000004" class="edge">
<title>Node1&#45;&gt;Node4</title>
<g id="a_edge3_Node000001_Node000004"><a xlink:title=" ">
<path fill="none" stroke="#63b8ff" d="M221.46,-263.8C213.51,-254.01 202.92,-240.98 194.57,-230.7"/>
<polygon fill="#63b8ff" stroke="#63b8ff" points="197.21,-228.4 188.19,-222.84 191.78,-232.81 197.21,-228.4"/>
</a>
</g>
</g>
<!-- Node5 -->
<g id="Node000005" class="node">
<title>Node5</title>
<g id="a_Node000005"><a xlink:href="date__time_8hpp.html" target="_top" xlink:title="DateTime data structure and utilities.">
<polygon fill="white" stroke="#666666" points="894,-162 782,-162 782,-132 894,-132 894,-162"/>
<text text-anchor="start" x="790" y="-150" font-family="Helvetica,sans-Serif" font-size="10.00">Clock/misc_lib/date</text>
<text text-anchor="middle" x="838" y="-139" font-family="Helvetica,sans-Serif" font-size="10.00">_time.hpp</text>
</a>
</g>
</g>
<!-- Node1&#45;&gt;Node5 -->
<g id="edge4_Node000001_Node000005" class="edge">
<title>Node1&#45;&gt;Node5</title>
<g id="a_edge4_Node000001_Node000005"><a xlink:title=" ">
<path fill="none" stroke="#63b8ff" d="M294.09,-273.67C368.89,-267.5 499.06,-253.93 608,-228 674.81,-212.1 749.44,-184.17 795.07,-165.87"/>
<polygon fill="#63b8ff" stroke="#63b8ff" points="796.39,-169.11 804.35,-162.12 793.77,-162.62 796.39,-169.11"/>
</a>
</g>
</g>
<!-- Node13 -->
<g id="Node000013" class="node">
<title>Node13</title>
<g id="a_Node000013"><a xlink:href="quad_8hpp.html" target="_top" xlink:title="Quad precision floating&#45;point type and utilities.">
<polygon fill="white" stroke="#666666" points="271.5,-90.5 136.5,-90.5 136.5,-71.5 271.5,-71.5 271.5,-90.5"/>
<text text-anchor="middle" x="204" y="-78.5" font-family="Helvetica,sans-Serif" font-size="10.00">Clock/misc_lib/quad.hpp</text>
</a>
</g>
</g>
<!-- Node1&#45;&gt;Node13 -->
<g id="edge24_Node000001_Node000013" class="edge">
<title>Node1&#45;&gt;Node13</title>
<g id="a_edge24_Node000001_Node000013"><a xlink:title=" ">
<path fill="none" stroke="#63b8ff" d="M230.91,-263.9C225.78,-229.23 212.55,-139.79 206.77,-100.72"/>
<polygon fill="#63b8ff" stroke="#63b8ff" points="210.22,-100.11 205.29,-90.73 203.29,-101.13 210.22,-100.11"/>
</a>
</g>
</g>
<!-- Node16 -->
<g id="Node000016" class="node">
<title>Node16</title>
<g id="a_Node000016"><a xlink:href="time_8hpp.html" target="_top" xlink:title="Time data structure and utilities.">
<polygon fill="white" stroke="#666666" points="1020,-90.5 886,-90.5 886,-71.5 1020,-71.5 1020,-90.5"/>
<text text-anchor="middle" x="953" y="-78.5" font-family="Helvetica,sans-Serif" font-size="10.00">Clock/misc_lib/time.hpp</text>
</a>
</g>
</g>
<!-- Node1&#45;&gt;Node16 -->
<g id="edge33_Node000001_Node000016" class="edge">
<title>Node1&#45;&gt;Node16</title>
<g id="a_edge33_Node000001_Node000016"><a xlink:title=" ">
<path fill="none" stroke="#63b8ff" d="M294.13,-274.45C440.7,-264.87 807.05,-234.14 903,-162 924.01,-146.2 938.33,-118.77 946.09,-100.5"/>
<polygon fill="#63b8ff" stroke="#63b8ff" points="949.44,-101.54 949.9,-90.96 942.94,-98.94 949.44,-101.54"/>
</a>
</g>
</g>
<!-- Node20 -->
<g id="Node000020" class="node">
<title>Node20</title>
<g id="a_Node000020"><a xlink:href="run__record_8hpp.html" target="_top" xlink:title="Run record structure and utilities.">
<polygon fill="white" stroke="#666666" points="599,-228 493,-228 493,-198 599,-198 599,-228"/>
<text text-anchor="start" x="501" y="-216" font-family="Helvetica,sans-Serif" font-size="10.00">Clock/misc_lib/run</text>
<text text-anchor="middle" x="546" y="-205" font-family="Helvetica,sans-Serif" font-size="10.00">_record.hpp</text>
</a>
</g>
</g>
<!-- Node1&#45;&gt;Node20 -->
<g id="edge25_Node000001_Node000020" class="edge">
<title>Node1&#45;&gt;Node20</title>
<g id="a_edge25_Node000001_Node000020"><a xlink:title=" ">
<path fill="none" stroke="#63b8ff" d="M294.09,-265.51C348.52,-254.38 427.86,-238.16 482.89,-226.9"/>
<polygon fill="#63b8ff" stroke="#63b8ff" points="483.78,-230.3 492.87,-224.86 482.38,-223.44 483.78,-230.3"/>
</a>
</g>
</g>
<!-- Node6 -->
<g id="Node000006" class="node">
<title>Node6</title>
<g id="a_Node000006"><a xlink:title=" ">
<polygon fill="#e0e0e0" stroke="#999999" points="516.5,-24.5 371.5,-24.5 371.5,-5.5 516.5,-5.5 516.5,-24.5"/>
<text text-anchor="middle" x="444" y="-12.5" font-family="Helvetica,sans-Serif" font-size="10.00">Clock/misc_lib_export.hpp</text>
</a>
</g>
</g>
<!-- Node5&#45;&gt;Node6 -->
<g id="edge5_Node000005_Node000006" class="edge">
<title>Node5&#45;&gt;Node6</title>
<g id="a_edge5_Node000005_Node000006"><a xlink:title=" ">
<path fill="none" stroke="#63b8ff" d="M782,-133.86C778.95,-133.22 775.94,-132.6 773,-132 690.51,-115.13 663.76,-130.6 587,-96 567.06,-87.01 566.62,-77.47 548,-66 524.29,-51.4 495.67,-37.92 474.46,-28.64"/>
<polygon fill="#63b8ff" stroke="#63b8ff" points="475.56,-25.3 464.99,-24.56 472.79,-31.73 475.56,-25.3"/>
</a>
</g>
</g>
<!-- Node7 -->
<g id="Node000007" class="node">
<title>Node7</title>
<g id="a_Node000007"><a xlink:title=" ">
<polygon fill="#e0e0e0" stroke="#999999" points="656,-90.5 596,-90.5 596,-71.5 656,-71.5 656,-90.5"/>
<text text-anchor="middle" x="626" y="-78.5" font-family="Helvetica,sans-Serif" font-size="10.00">iostream</text>
</a>
</g>
</g>
<!-- Node5&#45;&gt;Node7 -->
<g id="edge6_Node000005_Node000007" class="edge">
<title>Node5&#45;&gt;Node7</title>
<g id="a_edge6_Node000005_Node000007"><a xlink:title=" ">
<path fill="none" stroke="#63b8ff" d="M789.77,-131.91C756.15,-122.02 710.28,-108.4 670,-96 667.43,-95.21 664.78,-94.39 662.11,-93.55"/>
<polygon fill="#63b8ff" stroke="#63b8ff" points="663.09,-90.19 652.5,-90.52 660.98,-96.86 663.09,-90.19"/>
</a>
</g>
</g>
<!-- Node8 -->
<g id="Node000008" class="node">
<title>Node8</title>
<g id="a_Node000008"><a xlink:title=" ">
<polygon fill="#e0e0e0" stroke="#999999" points="1257,-24.5 1213,-24.5 1213,-5.5 1257,-5.5 1257,-24.5"/>
<text text-anchor="middle" x="1235" y="-12.5" font-family="Helvetica,sans-Serif" font-size="10.00">string</text>
</a>
</g>
</g>
<!-- Node5&#45;&gt;Node8 -->
<g id="edge7_Node000005_Node000008" class="edge">
<title>Node5&#45;&gt;Node8</title>
<g id="a_edge7_Node000005_Node000008"><a xlink:title=" ">
<path fill="none" stroke="#63b8ff" d="M894.11,-136.73C933.15,-129 985.74,-115.97 1029,-96 1050.16,-86.23 1050.9,-75.9 1072,-66 1126.66,-40.35 1146.08,-50.15 1203,-30 1204.39,-29.51 1205.81,-28.98 1207.24,-28.43"/>
<polygon fill="#63b8ff" stroke="#63b8ff" points="1208.65,-31.64 1216.57,-24.6 1205.99,-25.16 1208.65,-31.64"/>
</a>
</g>
</g>
<!-- Node9 -->
<g id="Node000009" class="node">
<title>Node9</title>
<g id="a_Node000009"><a xlink:title=" ">
<polygon fill="#e0e0e0" stroke="#999999" points="353.5,-24.5 280.5,-24.5 280.5,-5.5 353.5,-5.5 353.5,-24.5"/>
<text text-anchor="middle" x="317" y="-12.5" font-family="Helvetica,sans-Serif" font-size="10.00">string_view</text>
</a>
</g>
</g>
<!-- Node5&#45;&gt;Node9 -->
<g id="edge8_Node000005_Node000009" class="edge">
<title>Node5&#45;&gt;Node9</title>
<g id="a_edge8_Node000005_Node000009"><a xlink:title=" ">
<path fill="none" stroke="#63b8ff" d="M781.7,-133.46C778.77,-132.94 775.85,-132.45 773,-132 610.63,-106.66 555.21,-162.66 405,-96 373.23,-81.9 345.19,-51.75 329.71,-32.76"/>
<polygon fill="#63b8ff" stroke="#63b8ff" points="332.28,-30.36 323.34,-24.68 326.79,-34.7 332.28,-30.36"/>
</a>
</g>
</g>
<!-- Node10 -->
<g id="Node000010" class="node">
<title>Node10</title>
<g id="a_Node000010"><a xlink:title=" ">
<polygon fill="#e0e0e0" stroke="#999999" points="703,-30 535,-30 535,0 703,0 703,-30"/>
<text text-anchor="start" x="543" y="-18" font-family="Helvetica,sans-Serif" font-size="10.00">boost/date_time/posix</text>
<text text-anchor="middle" x="619" y="-7" font-family="Helvetica,sans-Serif" font-size="10.00">_time/posix_time_duration.hpp</text>
</a>
</g>
</g>
<!-- Node5&#45;&gt;Node10 -->
<g id="edge9_Node000005_Node000010" class="edge">
<title>Node5&#45;&gt;Node10</title>
<g id="a_edge9_Node000005_Node000010"><a xlink:title=" ">
<path fill="none" stroke="#63b8ff" d="M785.4,-132C759.44,-123.76 728.34,-111.81 703,-96 689.29,-87.44 659.75,-58.17 639.62,-37.52"/>
<polygon fill="#63b8ff" stroke="#63b8ff" points="641.9,-34.84 632.42,-30.09 636.87,-39.71 641.9,-34.84"/>
</a>
</g>
</g>
<!-- Node11 -->
<g id="Node000011" class="node">
<title>Node11</title>
<g id="a_Node000011"><a xlink:title=" ">
<polygon fill="#e0e0e0" stroke="#999999" points="867.5,-96 712.5,-96 712.5,-66 867.5,-66 867.5,-96"/>
<text text-anchor="start" x="720.5" y="-84" font-family="Helvetica,sans-Serif" font-size="10.00">boost/date_time/posix</text>
<text text-anchor="middle" x="790" y="-73" font-family="Helvetica,sans-Serif" font-size="10.00">_time/posix_time_types.hpp</text>
</a>
</g>
</g>
<!-- Node5&#45;&gt;Node11 -->
<g id="edge10_Node000005_Node000011" class="edge">
<title>Node5&#45;&gt;Node11</title>
<g id="a_edge10_Node000005_Node000011"><a xlink:title=" ">
<path fill="none" stroke="#63b8ff" d="M827.35,-131.8C821.32,-123.76 813.64,-113.53 806.82,-104.43"/>
<polygon fill="#63b8ff" stroke="#63b8ff" points="809.42,-102.06 800.62,-96.16 803.82,-106.26 809.42,-102.06"/>
</a>
</g>
</g>
<!-- Node12 -->
<g id="Node000012" class="node">
<title>Node12</title>
<g id="a_Node000012"><a xlink:title=" ">
<polygon fill="#e0e0e0" stroke="#999999" points="539.5,-96 414.5,-96 414.5,-66 539.5,-66 539.5,-96"/>
<text text-anchor="start" x="422.5" y="-84" font-family="Helvetica,sans-Serif" font-size="10.00">boost/date_time/posix</text>
<text text-anchor="middle" x="477" y="-73" font-family="Helvetica,sans-Serif" font-size="10.00">_time/ptime.hpp</text>
</a>
</g>
</g>
<!-- Node5&#45;&gt;Node12 -->
<g id="edge11_Node000005_Node000012" class="edge">
<title>Node5&#45;&gt;Node12</title>
<g id="a_edge11_Node000005_Node000012"><a xlink:title=" ">
<path fill="none" stroke="#63b8ff" d="M781.66,-133.69C778.74,-133.1 775.84,-132.54 773,-132 676.09,-113.61 651.19,-112.82 554,-96 552.54,-95.75 551.06,-95.49 549.56,-95.23"/>
<polygon fill="#63b8ff" stroke="#63b8ff" points="550.05,-91.76 539.6,-93.47 548.84,-98.66 550.05,-91.76"/>
</a>
</g>
</g>
<!-- Node5&#45;&gt;Node13 -->
<g id="edge12_Node000005_Node000013" class="edge">
<title>Node5&#45;&gt;Node13</title>
<g id="a_edge12_Node000005_Node000013"><a xlink:title=" ">
<path fill="none" stroke="#63b8ff" d="M781.71,-133.42C778.77,-132.9 775.85,-132.43 773,-132 585.52,-103.99 536.79,-113.17 348,-96 326.51,-94.05 303.23,-91.83 281.78,-89.74"/>
<polygon fill="#63b8ff" stroke="#63b8ff" points="282.04,-86.25 271.74,-88.76 281.36,-93.22 282.04,-86.25"/>
</a>
</g>
</g>
<!-- Node5&#45;&gt;Node16 -->
<g id="edge17_Node000005_Node000016" class="edge">
<title>Node5&#45;&gt;Node16</title>
<g id="a_edge17_Node000005_Node000016"><a xlink:title=" ">
<path fill="none" stroke="#63b8ff" d="M863.24,-131.95C882.78,-121.08 909.68,-106.11 928.93,-95.4"/>
<polygon fill="#63b8ff" stroke="#63b8ff" points="930.66,-98.44 937.7,-90.52 927.26,-92.32 930.66,-98.44"/>
</a>
</g>
</g>
<!-- Node13&#45;&gt;Node6 -->
<g id="edge13_Node000013_Node000006" class="edge">
<title>Node13&#45;&gt;Node6</title>
<g id="a_edge13_Node000013_Node000006"><a xlink:title=" ">
<path fill="none" stroke="#63b8ff" d="M236.37,-71.37C279.16,-59.96 354.65,-39.83 401.85,-27.24"/>
<polygon fill="#63b8ff" stroke="#63b8ff" points="403,-30.56 411.76,-24.6 401.2,-23.79 403,-30.56"/>
</a>
</g>
</g>
<!-- Node13&#45;&gt;Node9 -->
<g id="edge14_Node000013_Node000009" class="edge">
<title>Node13&#45;&gt;Node9</title>
<g id="a_edge14_Node000013_Node000009"><a xlink:title=" ">
<path fill="none" stroke="#63b8ff" d="M219.24,-71.37C238.11,-60.68 270.48,-42.35 292.77,-29.72"/>
<polygon fill="#63b8ff" stroke="#63b8ff" points="294.66,-32.67 301.64,-24.7 291.21,-26.58 294.66,-32.67"/>
</a>
</g>
</g>
<!-- Node14 -->
<g id="Node000014" class="node">
<title>Node14</title>
<g id="a_Node000014"><a xlink:title=" ">
<polygon fill="#e0e0e0" stroke="#999999" points="262,-30 146,-30 146,0 262,0 262,-30"/>
<text text-anchor="start" x="154" y="-18" font-family="Helvetica,sans-Serif" font-size="10.00">boost/multiprecision</text>
<text text-anchor="middle" x="204" y="-7" font-family="Helvetica,sans-Serif" font-size="10.00">/cpp_bin_float.hpp</text>
</a>
</g>
</g>
<!-- Node13&#45;&gt;Node14 -->
<g id="edge15_Node000013_Node000014" class="edge">
<title>Node13&#45;&gt;Node14</title>
<g id="a_edge15_Node000013_Node000014"><a xlink:title=" ">
<path fill="none" stroke="#63b8ff" d="M204,-71.37C204,-63.49 204,-51.45 204,-40.6"/>
<polygon fill="#63b8ff" stroke="#63b8ff" points="207.5,-40.36 204,-30.36 200.5,-40.36 207.5,-40.36"/>
</a>
</g>
</g>
<!-- Node15 -->
<g id="Node000015" class="node">
<title>Node15</title>
<g id="a_Node000015"><a xlink:title=" ">
<polygon fill="#e0e0e0" stroke="#999999" points="128,-30 12,-30 12,0 128,0 128,-30"/>
<text text-anchor="start" x="20" y="-18" font-family="Helvetica,sans-Serif" font-size="10.00">boost/multiprecision</text>
<text text-anchor="middle" x="70" y="-7" font-family="Helvetica,sans-Serif" font-size="10.00">/fwd.hpp</text>
</a>
</g>
</g>
<!-- Node13&#45;&gt;Node15 -->
<g id="edge16_Node000013_Node000015" class="edge">
<title>Node13&#45;&gt;Node15</title>
<g id="a_edge16_Node000013_Node000015"><a xlink:title=" ">
<path fill="none" stroke="#63b8ff" d="M185.93,-71.37C166.2,-61.95 134.04,-46.59 108.59,-34.43"/>
<polygon fill="#63b8ff" stroke="#63b8ff" points="110.09,-31.27 99.55,-30.12 107.07,-37.58 110.09,-31.27"/>
</a>
</g>
</g>
<!-- Node16&#45;&gt;Node6 -->
<g id="edge18_Node000016_Node000006" class="edge">
<title>Node16&#45;&gt;Node6</title>
<g id="a_edge18_Node000016_Node000006"><a xlink:title=" ">
<path fill="none" stroke="#63b8ff" d="M909.52,-71.49C898.61,-69.52 886.9,-67.55 876,-66 721.18,-44 680.94,-51.17 526,-30 517.86,-28.89 509.29,-27.58 500.88,-26.22"/>
<polygon fill="#63b8ff" stroke="#63b8ff" points="501.19,-22.72 490.75,-24.53 500.04,-29.62 501.19,-22.72"/>
</a>
</g>
</g>
<!-- Node16&#45;&gt;Node8 -->
<g id="edge19_Node000016_Node000008" class="edge">
<title>Node16&#45;&gt;Node8</title>
<g id="a_edge19_Node000016_Node000008"><a xlink:title=" ">
<path fill="none" stroke="#63b8ff" d="M1002.21,-71.45C1063.97,-60.5 1166.27,-41.56 1203,-30 1204.63,-29.49 1206.29,-28.92 1207.95,-28.31"/>
<polygon fill="#63b8ff" stroke="#63b8ff" points="1209.35,-31.52 1217.32,-24.54 1206.74,-25.03 1209.35,-31.52"/>
</a>
</g>
</g>
<!-- Node16&#45;&gt;Node10 -->
<g id="edge21_Node000016_Node000010" class="edge">
<title>Node16&#45;&gt;Node10</title>
<g id="a_edge21_Node000016_Node000010"><a xlink:title=" ">
<path fill="none" stroke="#63b8ff" d="M908.3,-71.44C855.72,-61.36 767.32,-44.42 702.05,-31.91"/>
<polygon fill="#63b8ff" stroke="#63b8ff" points="702.67,-28.47 692.19,-30.02 701.35,-35.34 702.67,-28.47"/>
</a>
</g>
</g>
<!-- Node17 -->
<g id="Node000017" class="node">
<title>Node17</title>
<g id="a_Node000017"><a xlink:title=" ">
<polygon fill="#e0e0e0" stroke="#999999" points="1194.5,-30 1037.5,-30 1037.5,0 1194.5,0 1194.5,-30"/>
<text text-anchor="start" x="1045.5" y="-18" font-family="Helvetica,sans-Serif" font-size="10.00">boost/date_time/posix</text>
<text text-anchor="middle" x="1116" y="-7" font-family="Helvetica,sans-Serif" font-size="10.00">_time/posix_time_config.hpp</text>
</a>
</g>
</g>
<!-- Node16&#45;&gt;Node17 -->
<g id="edge20_Node000016_Node000017" class="edge">
<title>Node16&#45;&gt;Node17</title>
<g id="a_edge20_Node000016_Node000017"><a xlink:title=" ">
<path fill="none" stroke="#63b8ff" d="M974.98,-71.37C999.4,-61.78 1039.48,-46.05 1070.68,-33.8"/>
<polygon fill="#63b8ff" stroke="#63b8ff" points="1072.02,-37.03 1080.05,-30.12 1069.46,-30.51 1072.02,-37.03"/>
</a>
</g>
</g>
<!-- Node18 -->
<g id="Node000018" class="node">
<title>Node18</title>
<g id="a_Node000018"><a xlink:title=" ">
<polygon fill="#e0e0e0" stroke="#999999" points="869,-30 721,-30 721,0 869,0 869,-30"/>
<text text-anchor="start" x="729" y="-18" font-family="Helvetica,sans-Serif" font-size="10.00">boost/date_time/posix</text>
<text text-anchor="middle" x="795" y="-7" font-family="Helvetica,sans-Serif" font-size="10.00">_time/time_formatters.hpp</text>
</a>
</g>
</g>
<!-- Node16&#45;&gt;Node18 -->
<g id="edge22_Node000016_Node000018" class="edge">
<title>Node16&#45;&gt;Node18</title>
<g id="a_edge22_Node000016_Node000018"><a xlink:title=" ">
<path fill="none" stroke="#63b8ff" d="M931.69,-71.37C908.13,-61.82 869.51,-46.18 839.32,-33.95"/>
<polygon fill="#63b8ff" stroke="#63b8ff" points="840.43,-30.63 829.85,-30.12 837.8,-37.11 840.43,-30.63"/>
</a>
</g>
</g>
<!-- Node19 -->
<g id="Node000019" class="node">
<title>Node19</title>
<g id="a_Node000019"><a xlink:title=" ">
<polygon fill="#e0e0e0" stroke="#999999" points="1019,-30 887,-30 887,0 1019,0 1019,-30"/>
<text text-anchor="start" x="895" y="-18" font-family="Helvetica,sans-Serif" font-size="10.00">boost/date_time/posix</text>
<text text-anchor="middle" x="953" y="-7" font-family="Helvetica,sans-Serif" font-size="10.00">_time/time_parsers.hpp</text>
</a>
</g>
</g>
<!-- Node16&#45;&gt;Node19 -->
<g id="edge23_Node000016_Node000019" class="edge">
<title>Node16&#45;&gt;Node19</title>
<g id="a_edge23_Node000016_Node000019"><a xlink:title=" ">
<path fill="none" stroke="#63b8ff" d="M953,-71.37C953,-63.49 953,-51.45 953,-40.6"/>
<polygon fill="#63b8ff" stroke="#63b8ff" points="956.5,-40.36 953,-30.36 949.5,-40.36 956.5,-40.36"/>
</a>
</g>
</g>
<!-- Node20&#45;&gt;Node5 -->
<g id="edge31_Node000020_Node000005" class="edge">
<title>Node20&#45;&gt;Node5</title>
<g id="a_edge31_Node000020_Node000005"><a xlink:title=" ">
<path fill="none" stroke="#63b8ff" d="M599.22,-200.34C647.82,-189.68 719.84,-173.9 772.07,-162.45"/>
<polygon fill="#63b8ff" stroke="#63b8ff" points="772.9,-165.85 781.91,-160.29 771.4,-159.01 772.9,-165.85"/>
</a>
</g>
</g>
<!-- Node20&#45;&gt;Node6 -->
<g id="edge26_Node000020_Node000006" class="edge">
<title>Node20&#45;&gt;Node6</title>
<g id="a_edge26_Node000020_Node000006"><a xlink:title=" ">
<path fill="none" stroke="#63b8ff" d="M492.9,-209.34C425.57,-204.72 315.19,-192.59 290,-162 244.94,-107.29 354.56,-52.36 411.84,-28.44"/>
<polygon fill="#63b8ff" stroke="#63b8ff" points="413.28,-31.63 421.21,-24.6 410.63,-25.15 413.28,-31.63"/>
</a>
</g>
</g>
<!-- Node20&#45;&gt;Node8 -->
<g id="edge28_Node000020_Node000008" class="edge">
<title>Node20&#45;&gt;Node8</title>
<g id="a_edge28_Node000020_Node000008"><a xlink:title=" ">
<path fill="none" stroke="#63b8ff" d="M599.14,-208.68C669.62,-203.35 797.4,-190.43 903,-162 978.07,-141.79 993.8,-127.23 1065,-96 1116.11,-73.58 1174.85,-45.39 1208.18,-29.16"/>
<polygon fill="#63b8ff" stroke="#63b8ff" points="1209.82,-32.25 1217.28,-24.72 1206.75,-25.96 1209.82,-32.25"/>
</a>
</g>
</g>
<!-- Node21 -->
<g id="Node000021" class="node">
<title>Node21</title>
<g id="a_Node000021"><a xlink:title=" ">
<polygon fill="#e0e0e0" stroke="#999999" points="764,-156.5 710,-156.5 710,-137.5 764,-137.5 764,-156.5"/>
<text text-anchor="middle" x="737" y="-144.5" font-family="Helvetica,sans-Serif" font-size="10.00">random</text>
</a>
</g>
</g>
<!-- Node20&#45;&gt;Node21 -->
<g id="edge27_Node000020_Node000021" class="edge">
<title>Node20&#45;&gt;Node21</title>
<g id="a_edge27_Node000020_Node000021"><a xlink:title=" ">
<path fill="none" stroke="#63b8ff" d="M592.02,-197.94C622.98,-188.28 664.63,-174.92 701,-162 702.61,-161.43 704.25,-160.83 705.91,-160.22"/>
<polygon fill="#63b8ff" stroke="#63b8ff" points="707.26,-163.45 715.38,-156.65 704.78,-156.91 707.26,-163.45"/>
</a>
</g>
</g>
<!-- Node22 -->
<g id="Node000022" class="node">
<title>Node22</title>
<g id="a_Node000022"><a xlink:title=" ">
<polygon fill="#e0e0e0" stroke="#999999" points="420.5,-156.5 299.5,-156.5 299.5,-137.5 420.5,-137.5 420.5,-156.5"/>
<text text-anchor="middle" x="360" y="-144.5" font-family="Helvetica,sans-Serif" font-size="10.00">boost/json/object.hpp</text>
</a>
</g>
</g>
<!-- Node20&#45;&gt;Node22 -->
<g id="edge29_Node000020_Node000022" class="edge">
<title>Node20&#45;&gt;Node22</title>
<g id="a_edge29_Node000020_Node000022"><a xlink:title=" ">
<path fill="none" stroke="#63b8ff" d="M505.18,-197.95C471.99,-186.53 425.68,-170.6 394.36,-159.82"/>
<polygon fill="#63b8ff" stroke="#63b8ff" points="395.35,-156.46 384.75,-156.52 393.07,-163.08 395.35,-156.46"/>
</a>
</g>
</g>
<!-- Node23 -->
<g id="Node000023" class="node">
<title>Node23</title>
<g id="a_Node000023"><a xlink:title=" ">
<polygon fill="#e0e0e0" stroke="#999999" points="517.5,-156.5 438.5,-156.5 438.5,-137.5 517.5,-137.5 517.5,-156.5"/>
<text text-anchor="middle" x="478" y="-144.5" font-family="Helvetica,sans-Serif" font-size="10.00">fmt/format.h</text>
</a>
</g>
</g>
<!-- Node20&#45;&gt;Node23 -->
<g id="edge30_Node000020_Node000023" class="edge">
<title>Node20&#45;&gt;Node23</title>
<g id="a_edge30_Node000020_Node000023"><a xlink:title=" ">
<path fill="none" stroke="#63b8ff" d="M530.91,-197.8C520.2,-187.72 505.83,-174.19 494.77,-163.78"/>
<polygon fill="#63b8ff" stroke="#63b8ff" points="497.08,-161.15 487.4,-156.84 492.28,-166.25 497.08,-161.15"/>
</a>
</g>
</g>
<!-- Node24 -->
<g id="Node000024" class="node">
<title>Node24</title>
<g id="a_Node000024"><a xlink:title=" ">
<polygon fill="#e0e0e0" stroke="#999999" points="692,-156.5 536,-156.5 536,-137.5 692,-137.5 692,-156.5"/>
<text text-anchor="middle" x="614" y="-144.5" font-family="Helvetica,sans-Serif" font-size="10.00">internal_use_only/config.hpp</text>
</a>
</g>
</g>
<!-- Node20&#45;&gt;Node24 -->
<g id="edge32_Node000020_Node000024" class="edge">
<title>Node20&#45;&gt;Node24</title>
<g id="a_edge32_Node000020_Node000024"><a xlink:title=" ">
<path fill="none" stroke="#63b8ff" d="M561.09,-197.8C571.8,-187.72 586.17,-174.19 597.23,-163.78"/>
<polygon fill="#63b8ff" stroke="#63b8ff" points="599.72,-166.25 604.6,-156.84 594.92,-161.15 599.72,-166.25"/>
</a>
</g>
</g>
</g>
</svg>
