<?xml version="1.0" encoding="UTF-8" standalone="no"?>
<!DOCTYPE svg PUBLIC "-//W3C//DTD SVG 1.1//EN"
 "http://www.w3.org/Graphics/SVG/1.1/DTD/svg11.dtd">
<!-- Generated by graphviz version 2.43.0 (0)
 -->
<!-- Title: include/Clock/si3_sim/config.hpp Pages: 1 -->
<svg width="381pt" height="159pt"
 viewBox="0.00 0.00 380.50 159.00" xmlns="http://www.w3.org/2000/svg" xmlns:xlink="http://www.w3.org/1999/xlink">
<g id="graph0" class="graph" transform="scale(1 1) rotate(0) translate(4 155)">
<title>include/Clock/si3_sim/config.hpp</title>
<!-- Node1 -->
<g id="Node000001" class="node">
<title>Node1</title>
<g id="a_Node000001"><a xlink:title="Configuration structure for the Si3 simulation.">
<polygon fill="#999999" stroke="#666666" points="236.5,-151 114.5,-151 114.5,-121 236.5,-121 236.5,-151"/>
<text text-anchor="start" x="122.5" y="-139" font-family="Helvetica,sans-Serif" font-size="10.00">include/Clock/si3_sim</text>
<text text-anchor="middle" x="175.5" y="-128" font-family="Helvetica,sans-Serif" font-size="10.00">/config.hpp</text>
</a>
</g>
</g>
<!-- Node2 -->
<g id="Node000002" class="node">
<title>Node2</title>
<g id="a_Node000002"><a xlink:href="si3__sim_8hpp.html" target="_top" xlink:title="Header file for the Si3Sim class.">
<polygon fill="white" stroke="#666666" points="192.5,-85 70.5,-85 70.5,-55 192.5,-55 192.5,-85"/>
<text text-anchor="start" x="78.5" y="-73" font-family="Helvetica,sans-Serif" font-size="10.00">include/Clock/si3_sim</text>
<text text-anchor="middle" x="131.5" y="-62" font-family="Helvetica,sans-Serif" font-size="10.00">/si3_sim.hpp</text>
</a>
</g>
</g>
<!-- Node1&#45;&gt;Node2 -->
<g id="edge1_Node000001_Node000002" class="edge">
<title>Node1&#45;&gt;Node2</title>
<g id="a_edge1_Node000001_Node000002"><a xlink:title=" ">
<path fill="none" stroke="#63b8ff" d="M160.05,-112.53C153.79,-103.43 146.76,-93.19 141.24,-85.16"/>
<polygon fill="#63b8ff" stroke="#63b8ff" points="157.19,-114.54 165.73,-120.8 162.95,-110.57 157.19,-114.54"/>
</a>
</g>
</g>
<!-- Node3 -->
<g id="Node000003" class="node">
<title>Node3</title>
<g id="a_Node000003"><a xlink:href="main_8cpp.html" target="_top" xlink:title="Main entry point for the Si3 simulation tool.">
<polygon fill="white" stroke="#666666" points="119,-19 0,-19 0,0 119,0 119,-19"/>
<text text-anchor="middle" x="59.5" y="-7" font-family="Helvetica,sans-Serif" font-size="10.00">src/si3_sim/main.cpp</text>
</a>
</g>
</g>
<!-- Node1&#45;&gt;Node3 -->
<g id="edge5_Node000001_Node000003" class="edge">
<title>Node1&#45;&gt;Node3</title>
<g id="a_edge5_Node000001_Node000003"><a xlink:title=" ">
<path fill="none" stroke="#63b8ff" d="M104.96,-118.45C88.01,-111.03 71.83,-100.36 61.5,-85 47.92,-64.82 53.21,-34.1 56.97,-19.2"/>
<polygon fill="#63b8ff" stroke="#63b8ff" points="103.85,-121.77 114.43,-122.24 106.45,-115.27 103.85,-121.77"/>
</a>
</g>
</g>
<!-- Node4 -->
<g id="Node000004" class="node">
<title>Node4</title>
<g id="a_Node000004"><a xlink:href="si3__sim_8cpp.html" target="_top" xlink:title="Implementation of the Si3Sim class.">
<polygon fill="white" stroke="#666666" points="277.5,-19 145.5,-19 145.5,0 277.5,0 277.5,-19"/>
<text text-anchor="middle" x="211.5" y="-7" font-family="Helvetica,sans-Serif" font-size="10.00">src/si3_sim/si3_sim.cpp</text>
</a>
</g>
</g>
<!-- Node1&#45;&gt;Node4 -->
<g id="edge6_Node000001_Node000004" class="edge">
<title>Node1&#45;&gt;Node4</title>
<g id="a_edge6_Node000001_Node000004"><a xlink:title=" ">
<path fill="none" stroke="#63b8ff" d="M189.71,-111.76C194.14,-103.56 198.61,-94.12 201.5,-85 208.74,-62.11 210.74,-33.64 211.29,-19.43"/>
<polygon fill="#63b8ff" stroke="#63b8ff" points="186.53,-110.28 184.64,-120.7 192.62,-113.73 186.53,-110.28"/>
</a>
</g>
</g>
<!-- Node5 -->
<g id="Node000005" class="node">
<title>Node5</title>
<g id="a_Node000005"><a xlink:href="config_8cpp.html" target="_top" xlink:title="Implementation of configuration utilities.">
<polygon fill="white" stroke="#666666" points="372.5,-79.5 248.5,-79.5 248.5,-60.5 372.5,-60.5 372.5,-79.5"/>
<text text-anchor="middle" x="310.5" y="-67.5" font-family="Helvetica,sans-Serif" font-size="10.00">src/si3_sim/config.cpp</text>
</a>
</g>
</g>
<!-- Node1&#45;&gt;Node5 -->
<g id="edge4_Node000001_Node000005" class="edge">
<title>Node1&#45;&gt;Node5</title>
<g id="a_edge4_Node000001_Node000005"><a xlink:title=" ">
<path fill="none" stroke="#63b8ff" d="M214.27,-116.62C240.03,-104.41 272.66,-88.94 292.53,-79.52"/>
<polygon fill="#63b8ff" stroke="#63b8ff" points="212.66,-113.51 205.13,-120.95 215.66,-119.83 212.66,-113.51"/>
</a>
</g>
</g>
<!-- Node2&#45;&gt;Node3 -->
<g id="edge2_Node000002_Node000003" class="edge">
<title>Node2&#45;&gt;Node3</title>
<g id="a_edge2_Node000002_Node000003"><a xlink:title=" ">
<path fill="none" stroke="#63b8ff" d="M106.31,-48.53C93.98,-38.51 79.78,-26.98 70.29,-19.27"/>
<polygon fill="#63b8ff" stroke="#63b8ff" points="104.1,-51.25 114.07,-54.84 108.52,-45.82 104.1,-51.25"/>
</a>
</g>
</g>
<!-- Node2&#45;&gt;Node4 -->
<g id="edge3_Node000002_Node000004" class="edge">
<title>Node2&#45;&gt;Node4</title>
<g id="a_edge3_Node000002_Node000004"><a xlink:title=" ">
<path fill="none" stroke="#63b8ff" d="M159.1,-48.82C172.89,-38.73 188.86,-27.05 199.51,-19.27"/>
<polygon fill="#63b8ff" stroke="#63b8ff" points="156.87,-46.11 150.87,-54.84 161,-51.76 156.87,-46.11"/>
</a>
</g>
</g>
</g>
</svg>
