<?xml version="1.0" encoding="UTF-8" standalone="no"?>
<!DOCTYPE svg PUBLIC "-//W3C//DTD SVG 1.1//EN"
 "http://www.w3.org/Graphics/SVG/1.1/DTD/svg11.dtd">
<!-- Generated by graphviz version 2.43.0 (0)
 -->
<!-- Title: src/si3_sim/config.cpp Pages: 1 -->
<svg width="2193pt" height="346pt"
 viewBox="0.00 0.00 2193.00 346.00" xmlns="http://www.w3.org/2000/svg" xmlns:xlink="http://www.w3.org/1999/xlink">
<g id="graph0" class="graph" transform="scale(1 1) rotate(0) translate(4 342)">
<title>src/si3_sim/config.cpp</title>
<!-- Node1 -->
<g id="Node000001" class="node">
<title>Node1</title>
<g id="a_Node000001"><a xlink:title="Implementation of configuration utilities.">
<polygon fill="#999999" stroke="#666666" points="1590,-338 1466,-338 1466,-319 1590,-319 1590,-338"/>
<text text-anchor="middle" x="1528" y="-326" font-family="Helvetica,sans-Serif" font-size="10.00">src/si3_sim/config.cpp</text>
</a>
</g>
</g>
<!-- Node2 -->
<g id="Node000002" class="node">
<title>Node2</title>
<g id="a_Node000002"><a xlink:href="config_8hpp.html" target="_top" xlink:title="Configuration structure for the Si3 simulation.">
<polygon fill="white" stroke="#666666" points="888.5,-283 751.5,-283 751.5,-264 888.5,-264 888.5,-283"/>
<text text-anchor="middle" x="820" y="-271" font-family="Helvetica,sans-Serif" font-size="10.00">Clock/si3_sim/config.hpp</text>
</a>
</g>
</g>
<!-- Node1&#45;&gt;Node2 -->
<g id="edge1_Node000001_Node000002" class="edge">
<title>Node1&#45;&gt;Node2</title>
<g id="a_edge1_Node000001_Node000002"><a xlink:title=" ">
<path fill="none" stroke="#63b8ff" d="M1465.79,-322.84C1336.91,-313.2 1040.94,-291.04 898.89,-280.41"/>
<polygon fill="#63b8ff" stroke="#63b8ff" points="898.76,-276.89 888.52,-279.63 898.23,-283.87 898.76,-276.89"/>
</a>
</g>
</g>
<!-- Node6 -->
<g id="Node000006" class="node">
<title>Node6</title>
<g id="a_Node000006"><a xlink:href="date__time_8hpp.html" target="_top" xlink:title="DateTime data structure and utilities.">
<polygon fill="white" stroke="#666666" points="902,-162 790,-162 790,-132 902,-132 902,-162"/>
<text text-anchor="start" x="798" y="-150" font-family="Helvetica,sans-Serif" font-size="10.00">Clock/misc_lib/date</text>
<text text-anchor="middle" x="846" y="-139" font-family="Helvetica,sans-Serif" font-size="10.00">_time.hpp</text>
</a>
</g>
</g>
<!-- Node1&#45;&gt;Node6 -->
<g id="edge45_Node000001_Node000006" class="edge">
<title>Node1&#45;&gt;Node6</title>
<g id="a_edge45_Node000001_Node000006"><a xlink:title=" ">
<path fill="none" stroke="#63b8ff" d="M1465.68,-325.77C1361.62,-320.8 1147.86,-301.66 985,-228 965.39,-219.13 965.19,-209.5 947,-198 928.33,-186.19 906.48,-175.07 887.88,-166.33"/>
<polygon fill="#63b8ff" stroke="#63b8ff" points="889.32,-163.14 878.77,-162.11 886.38,-169.49 889.32,-163.14"/>
</a>
</g>
</g>
<!-- Node8 -->
<g id="Node000008" class="node">
<title>Node8</title>
<g id="a_Node000008"><a xlink:title=" ">
<polygon fill="#e0e0e0" stroke="#999999" points="1381,-90.5 1321,-90.5 1321,-71.5 1381,-71.5 1381,-90.5"/>
<text text-anchor="middle" x="1351" y="-78.5" font-family="Helvetica,sans-Serif" font-size="10.00">iostream</text>
</a>
</g>
</g>
<!-- Node1&#45;&gt;Node8 -->
<g id="edge37_Node000001_Node000008" class="edge">
<title>Node1&#45;&gt;Node8</title>
<g id="a_edge37_Node000001_Node000008"><a xlink:title=" ">
<path fill="none" stroke="#63b8ff" d="M1514.05,-318.96C1502.25,-311.04 1485.75,-298.2 1476,-283 1438.33,-224.26 1475.25,-187.54 1433,-132 1420.31,-115.32 1400.31,-102.96 1383.23,-94.71"/>
<polygon fill="#63b8ff" stroke="#63b8ff" points="1384.67,-91.51 1374.12,-90.54 1381.76,-97.88 1384.67,-91.51"/>
</a>
</g>
</g>
<!-- Node9 -->
<g id="Node000009" class="node">
<title>Node9</title>
<g id="a_Node000009"><a xlink:title=" ">
<polygon fill="#e0e0e0" stroke="#999999" points="1393,-24.5 1349,-24.5 1349,-5.5 1393,-5.5 1393,-24.5"/>
<text text-anchor="middle" x="1371" y="-12.5" font-family="Helvetica,sans-Serif" font-size="10.00">string</text>
</a>
</g>
</g>
<!-- Node1&#45;&gt;Node9 -->
<g id="edge39_Node000001_Node000009" class="edge">
<title>Node1&#45;&gt;Node9</title>
<g id="a_edge39_Node000001_Node000009"><a xlink:title=" ">
<path fill="none" stroke="#63b8ff" d="M1528,-318.96C1528,-300.05 1528,-253.21 1528,-214 1528,-214 1528,-214 1528,-146 1528,-108.88 1529.34,-93.13 1504,-66 1477.49,-37.62 1433.28,-25.24 1403.17,-19.91"/>
<polygon fill="#63b8ff" stroke="#63b8ff" points="1403.59,-16.43 1393.16,-18.3 1402.48,-23.34 1403.59,-16.43"/>
</a>
</g>
</g>
<!-- Node10 -->
<g id="Node000010" class="node">
<title>Node10</title>
<g id="a_Node000010"><a xlink:title=" ">
<polygon fill="#e0e0e0" stroke="#999999" points="1291.5,-24.5 1218.5,-24.5 1218.5,-5.5 1291.5,-5.5 1291.5,-24.5"/>
<text text-anchor="middle" x="1255" y="-12.5" font-family="Helvetica,sans-Serif" font-size="10.00">string_view</text>
</a>
</g>
</g>
<!-- Node1&#45;&gt;Node10 -->
<g id="edge40_Node000001_Node000010" class="edge">
<title>Node1&#45;&gt;Node10</title>
<g id="a_edge40_Node000001_Node000010"><a xlink:title=" ">
<path fill="none" stroke="#63b8ff" d="M1523.03,-319C1512.73,-300.54 1490,-255.14 1490,-214 1490,-214 1490,-214 1490,-146 1490,-89.08 1439.54,-94.02 1390,-66 1360.26,-49.18 1323.78,-36.06 1296.25,-27.49"/>
<polygon fill="#63b8ff" stroke="#63b8ff" points="1297.12,-24.1 1286.54,-24.54 1295.09,-30.8 1297.12,-24.1"/>
</a>
</g>
</g>
<!-- Node17 -->
<g id="Node000017" class="node">
<title>Node17</title>
<g id="a_Node000017"><a xlink:href="time_8hpp.html" target="_top" xlink:title="Time data structure and utilities.">
<polygon fill="white" stroke="#666666" points="643,-90.5 509,-90.5 509,-71.5 643,-71.5 643,-90.5"/>
<text text-anchor="middle" x="576" y="-78.5" font-family="Helvetica,sans-Serif" font-size="10.00">Clock/misc_lib/time.hpp</text>
</a>
</g>
</g>
<!-- Node1&#45;&gt;Node17 -->
<g id="edge46_Node000001_Node000017" class="edge">
<title>Node1&#45;&gt;Node17</title>
<g id="a_edge46_Node000001_Node000017"><a xlink:title=" ">
<path fill="none" stroke="#63b8ff" d="M1465.82,-327.55C1304.81,-327.12 877.39,-322.2 742,-283 661.05,-259.56 631.28,-238.54 596,-162 586.85,-142.14 581.5,-117.5 578.67,-100.85"/>
<polygon fill="#63b8ff" stroke="#63b8ff" points="582.09,-100.1 577.1,-90.76 575.18,-101.18 582.09,-100.1"/>
</a>
</g>
</g>
<!-- Node23 -->
<g id="Node000023" class="node">
<title>Node23</title>
<g id="a_Node000023"><a xlink:title=" ">
<polygon fill="#e0e0e0" stroke="#999999" points="1423.5,-156.5 1302.5,-156.5 1302.5,-137.5 1423.5,-137.5 1423.5,-156.5"/>
<text text-anchor="middle" x="1363" y="-144.5" font-family="Helvetica,sans-Serif" font-size="10.00">boost/json/object.hpp</text>
</a>
</g>
</g>
<!-- Node1&#45;&gt;Node23 -->
<g id="edge42_Node000001_Node000023" class="edge">
<title>Node1&#45;&gt;Node23</title>
<g id="a_edge42_Node000001_Node000023"><a xlink:title=" ">
<path fill="none" stroke="#63b8ff" d="M1500.6,-318.89C1481.29,-311.73 1455.79,-299.96 1438,-283 1402.53,-249.19 1379.49,-194.86 1369.2,-166.53"/>
<polygon fill="#63b8ff" stroke="#63b8ff" points="1372.38,-165.02 1365.78,-156.74 1365.77,-167.33 1372.38,-165.02"/>
</a>
</g>
</g>
<!-- Node26 -->
<g id="Node000026" class="node">
<title>Node26</title>
<g id="a_Node000026"><a xlink:title=" ">
<polygon fill="#e0e0e0" stroke="#999999" points="1609.5,-283 1556.5,-283 1556.5,-264 1609.5,-264 1609.5,-283"/>
<text text-anchor="middle" x="1583" y="-271" font-family="Helvetica,sans-Serif" font-size="10.00">cstddef</text>
</a>
</g>
</g>
<!-- Node1&#45;&gt;Node26 -->
<g id="edge35_Node000001_Node000026" class="edge">
<title>Node1&#45;&gt;Node26</title>
<g id="a_edge35_Node000001_Node000026"><a xlink:title=" ">
<path fill="none" stroke="#63b8ff" d="M1537.08,-318.75C1545.09,-311.03 1556.96,-299.6 1566.62,-290.28"/>
<polygon fill="#63b8ff" stroke="#63b8ff" points="1569.31,-292.55 1574.09,-283.09 1564.46,-287.51 1569.31,-292.55"/>
</a>
</g>
</g>
<!-- Node27 -->
<g id="Node000027" class="node">
<title>Node27</title>
<g id="a_Node000027"><a xlink:title=" ">
<polygon fill="#e0e0e0" stroke="#999999" points="1682.5,-283 1627.5,-283 1627.5,-264 1682.5,-264 1682.5,-283"/>
<text text-anchor="middle" x="1655" y="-271" font-family="Helvetica,sans-Serif" font-size="10.00">fstream</text>
</a>
</g>
</g>
<!-- Node1&#45;&gt;Node27 -->
<g id="edge36_Node000001_Node000027" class="edge">
<title>Node1&#45;&gt;Node27</title>
<g id="a_edge36_Node000001_Node000027"><a xlink:title=" ">
<path fill="none" stroke="#63b8ff" d="M1548.4,-318.98C1569.02,-310.38 1601.11,-296.99 1624.69,-287.15"/>
<polygon fill="#63b8ff" stroke="#63b8ff" points="1626.34,-290.25 1634.22,-283.17 1623.65,-283.79 1626.34,-290.25"/>
</a>
</g>
</g>
<!-- Node28 -->
<g id="Node000028" class="node">
<title>Node28</title>
<g id="a_Node000028"><a xlink:title=" ">
<polygon fill="#e0e0e0" stroke="#999999" points="1765.5,-283 1700.5,-283 1700.5,-264 1765.5,-264 1765.5,-283"/>
<text text-anchor="middle" x="1733" y="-271" font-family="Helvetica,sans-Serif" font-size="10.00">stdexcept</text>
</a>
</g>
</g>
<!-- Node1&#45;&gt;Node28 -->
<g id="edge38_Node000001_Node000028" class="edge">
<title>Node1&#45;&gt;Node28</title>
<g id="a_edge38_Node000001_Node000028"><a xlink:title=" ">
<path fill="none" stroke="#63b8ff" d="M1560.94,-318.98C1596.16,-309.88 1652.13,-295.41 1690.61,-285.46"/>
<polygon fill="#63b8ff" stroke="#63b8ff" points="1691.68,-288.8 1700.48,-282.91 1689.93,-282.02 1691.68,-288.8"/>
</a>
</g>
</g>
<!-- Node29 -->
<g id="Node000029" class="node">
<title>Node29</title>
<g id="a_Node000029"><a xlink:title=" ">
<polygon fill="#e0e0e0" stroke="#999999" points="1898.5,-283 1783.5,-283 1783.5,-264 1898.5,-264 1898.5,-283"/>
<text text-anchor="middle" x="1841" y="-271" font-family="Helvetica,sans-Serif" font-size="10.00">boost/json/array.hpp</text>
</a>
</g>
</g>
<!-- Node1&#45;&gt;Node29 -->
<g id="edge41_Node000001_Node000029" class="edge">
<title>Node1&#45;&gt;Node29</title>
<g id="a_edge41_Node000001_Node000029"><a xlink:title=" ">
<path fill="none" stroke="#63b8ff" d="M1578.29,-318.98C1633.42,-309.65 1721.85,-294.67 1780.68,-284.71"/>
<polygon fill="#63b8ff" stroke="#63b8ff" points="1781.3,-288.16 1790.58,-283.04 1780.13,-281.26 1781.3,-288.16"/>
</a>
</g>
</g>
<!-- Node30 -->
<g id="Node000030" class="node">
<title>Node30</title>
<g id="a_Node000030"><a xlink:title=" ">
<polygon fill="#e0e0e0" stroke="#999999" points="2049,-283 1917,-283 1917,-264 2049,-264 2049,-283"/>
<text text-anchor="middle" x="1983" y="-271" font-family="Helvetica,sans-Serif" font-size="10.00">boost/json/serialize.hpp</text>
</a>
</g>
</g>
<!-- Node1&#45;&gt;Node30 -->
<g id="edge43_Node000001_Node000030" class="edge">
<title>Node1&#45;&gt;Node30</title>
<g id="a_edge43_Node000001_Node000030"><a xlink:title=" ">
<path fill="none" stroke="#63b8ff" d="M1590.31,-320.24C1672.69,-310.65 1817.75,-293.75 1906.63,-283.4"/>
<polygon fill="#63b8ff" stroke="#63b8ff" points="1907.12,-286.86 1916.65,-282.23 1906.31,-279.91 1907.12,-286.86"/>
</a>
</g>
</g>
<!-- Node31 -->
<g id="Node000031" class="node">
<title>Node31</title>
<g id="a_Node000031"><a xlink:title=" ">
<polygon fill="#e0e0e0" stroke="#999999" points="2185,-283 2067,-283 2067,-264 2185,-264 2185,-283"/>
<text text-anchor="middle" x="2126" y="-271" font-family="Helvetica,sans-Serif" font-size="10.00">boost/json/value.hpp</text>
</a>
</g>
</g>
<!-- Node1&#45;&gt;Node31 -->
<g id="edge44_Node000001_Node000031" class="edge">
<title>Node1&#45;&gt;Node31</title>
<g id="a_edge44_Node000001_Node000031"><a xlink:title=" ">
<path fill="none" stroke="#63b8ff" d="M1590.09,-323.11C1687.26,-316.05 1881.44,-301.23 2056.51,-283.12"/>
<polygon fill="#63b8ff" stroke="#63b8ff" points="2057.09,-286.58 2066.68,-282.06 2056.37,-279.61 2057.09,-286.58"/>
</a>
</g>
</g>
<!-- Node3 -->
<g id="Node000003" class="node">
<title>Node3</title>
<g id="a_Node000003"><a xlink:title=" ">
<polygon fill="#e0e0e0" stroke="#999999" points="938,-222.5 874,-222.5 874,-203.5 938,-203.5 938,-222.5"/>
<text text-anchor="middle" x="906" y="-210.5" font-family="Helvetica,sans-Serif" font-size="10.00">algorithm</text>
</a>
</g>
</g>
<!-- Node2&#45;&gt;Node3 -->
<g id="edge2_Node000002_Node000003" class="edge">
<title>Node2&#45;&gt;Node3</title>
<g id="a_edge2_Node000002_Node000003"><a xlink:title=" ">
<path fill="none" stroke="#63b8ff" d="M832.69,-263.87C846.41,-254.54 868.5,-239.51 884.85,-228.38"/>
<polygon fill="#63b8ff" stroke="#63b8ff" points="886.96,-231.19 893.26,-222.67 883.02,-225.4 886.96,-231.19"/>
</a>
</g>
</g>
<!-- Node4 -->
<g id="Node000004" class="node">
<title>Node4</title>
<g id="a_Node000004"><a xlink:title=" ">
<polygon fill="#e0e0e0" stroke="#999999" points="752.5,-222.5 695.5,-222.5 695.5,-203.5 752.5,-203.5 752.5,-222.5"/>
<text text-anchor="middle" x="724" y="-210.5" font-family="Helvetica,sans-Serif" font-size="10.00">ostream</text>
</a>
</g>
</g>
<!-- Node2&#45;&gt;Node4 -->
<g id="edge3_Node000002_Node000004" class="edge">
<title>Node2&#45;&gt;Node4</title>
<g id="a_edge3_Node000002_Node000004"><a xlink:title=" ">
<path fill="none" stroke="#63b8ff" d="M805.83,-263.87C790.31,-254.41 765.17,-239.09 746.85,-227.92"/>
<polygon fill="#63b8ff" stroke="#63b8ff" points="748.58,-224.88 738.22,-222.67 744.94,-230.86 748.58,-224.88"/>
</a>
</g>
</g>
<!-- Node5 -->
<g id="Node000005" class="node">
<title>Node5</title>
<g id="a_Node000005"><a xlink:title=" ">
<polygon fill="#e0e0e0" stroke="#999999" points="817.5,-222.5 770.5,-222.5 770.5,-203.5 817.5,-203.5 817.5,-222.5"/>
<text text-anchor="middle" x="794" y="-210.5" font-family="Helvetica,sans-Serif" font-size="10.00">vector</text>
</a>
</g>
</g>
<!-- Node2&#45;&gt;Node5 -->
<g id="edge4_Node000002_Node000005" class="edge">
<title>Node2&#45;&gt;Node5</title>
<g id="a_edge4_Node000002_Node000005"><a xlink:title=" ">
<path fill="none" stroke="#63b8ff" d="M816.16,-263.87C812.44,-255.49 806.67,-242.51 801.95,-231.89"/>
<polygon fill="#63b8ff" stroke="#63b8ff" points="805.11,-230.38 797.85,-222.67 798.72,-233.23 805.11,-230.38"/>
</a>
</g>
</g>
<!-- Node2&#45;&gt;Node6 -->
<g id="edge5_Node000002_Node000006" class="edge">
<title>Node2&#45;&gt;Node6</title>
<g id="a_edge5_Node000002_Node000006"><a xlink:title=" ">
<path fill="none" stroke="#63b8ff" d="M821.79,-263.94C825.69,-245.24 835.11,-200.13 840.98,-172.01"/>
<polygon fill="#63b8ff" stroke="#63b8ff" points="844.42,-172.66 843.04,-162.16 837.57,-171.23 844.42,-172.66"/>
</a>
</g>
</g>
<!-- Node14 -->
<g id="Node000014" class="node">
<title>Node14</title>
<g id="a_Node000014"><a xlink:href="quad_8hpp.html" target="_top" xlink:title="Quad precision floating&#45;point type and utilities.">
<polygon fill="white" stroke="#666666" points="910.5,-90.5 775.5,-90.5 775.5,-71.5 910.5,-71.5 910.5,-90.5"/>
<text text-anchor="middle" x="843" y="-78.5" font-family="Helvetica,sans-Serif" font-size="10.00">Clock/misc_lib/quad.hpp</text>
</a>
</g>
</g>
<!-- Node2&#45;&gt;Node14 -->
<g id="edge25_Node000002_Node000014" class="edge">
<title>Node2&#45;&gt;Node14</title>
<g id="a_edge25_Node000002_Node000014"><a xlink:title=" ">
<path fill="none" stroke="#63b8ff" d="M751.21,-266.19C726.55,-260.22 701.13,-248.97 686,-228 678.2,-217.19 679.99,-209.9 686,-198 712.13,-146.2 773.53,-111.8 811.33,-94.7"/>
<polygon fill="#63b8ff" stroke="#63b8ff" points="813.11,-97.75 820.86,-90.53 810.3,-91.33 813.11,-97.75"/>
</a>
</g>
</g>
<!-- Node2&#45;&gt;Node17 -->
<g id="edge34_Node000002_Node000017" class="edge">
<title>Node2&#45;&gt;Node17</title>
<g id="a_edge34_Node000002_Node000017"><a xlink:title=" ">
<path fill="none" stroke="#63b8ff" d="M763.79,-263.97C735.69,-257.59 702.35,-246.63 677,-228 630.34,-193.72 597.77,-131.13 583.74,-100.24"/>
<polygon fill="#63b8ff" stroke="#63b8ff" points="586.79,-98.48 579.56,-90.74 580.38,-101.3 586.79,-98.48"/>
</a>
</g>
</g>
<!-- Node21 -->
<g id="Node000021" class="node">
<title>Node21</title>
<g id="a_Node000021"><a xlink:href="run__record_8hpp.html" target="_top" xlink:title="Run record structure and utilities.">
<polygon fill="white" stroke="#666666" points="1100,-228 994,-228 994,-198 1100,-198 1100,-228"/>
<text text-anchor="start" x="1002" y="-216" font-family="Helvetica,sans-Serif" font-size="10.00">Clock/misc_lib/run</text>
<text text-anchor="middle" x="1047" y="-205" font-family="Helvetica,sans-Serif" font-size="10.00">_record.hpp</text>
</a>
</g>
</g>
<!-- Node2&#45;&gt;Node21 -->
<g id="edge26_Node000002_Node000021" class="edge">
<title>Node2&#45;&gt;Node21</title>
<g id="a_edge26_Node000002_Node000021"><a xlink:title=" ">
<path fill="none" stroke="#63b8ff" d="M853.01,-263.99C887.23,-255.17 941.57,-241.17 984.04,-230.22"/>
<polygon fill="#63b8ff" stroke="#63b8ff" points="984.93,-233.61 993.74,-227.73 983.18,-226.83 984.93,-233.61"/>
</a>
</g>
</g>
<!-- Node7 -->
<g id="Node000007" class="node">
<title>Node7</title>
<g id="a_Node000007"><a xlink:title=" ">
<polygon fill="#e0e0e0" stroke="#999999" points="823.5,-24.5 678.5,-24.5 678.5,-5.5 823.5,-5.5 823.5,-24.5"/>
<text text-anchor="middle" x="751" y="-12.5" font-family="Helvetica,sans-Serif" font-size="10.00">Clock/misc_lib_export.hpp</text>
</a>
</g>
</g>
<!-- Node6&#45;&gt;Node7 -->
<g id="edge6_Node000006_Node000007" class="edge">
<title>Node6&#45;&gt;Node7</title>
<g id="a_edge6_Node000006_Node000007"><a xlink:title=" ">
<path fill="none" stroke="#63b8ff" d="M810.82,-131.99C794.74,-123.83 776.89,-111.96 766,-96 753.64,-77.89 750.75,-52.33 750.4,-35.02"/>
<polygon fill="#63b8ff" stroke="#63b8ff" points="753.9,-34.57 750.47,-24.54 746.9,-34.52 753.9,-34.57"/>
</a>
</g>
</g>
<!-- Node6&#45;&gt;Node8 -->
<g id="edge7_Node000006_Node000008" class="edge">
<title>Node6&#45;&gt;Node8</title>
<g id="a_edge7_Node000006_Node000008"><a xlink:title=" ">
<path fill="none" stroke="#63b8ff" d="M902.29,-133.44C905.23,-132.92 908.15,-132.44 911,-132 1085.7,-105.35 1133.77,-131 1307,-96 1310.48,-95.3 1314.08,-94.42 1317.65,-93.44"/>
<polygon fill="#63b8ff" stroke="#63b8ff" points="1318.91,-96.72 1327.5,-90.52 1316.92,-90.01 1318.91,-96.72"/>
</a>
</g>
</g>
<!-- Node6&#45;&gt;Node9 -->
<g id="edge8_Node000006_Node000009" class="edge">
<title>Node6&#45;&gt;Node9</title>
<g id="a_edge8_Node000006_Node000009"><a xlink:title=" ">
<path fill="none" stroke="#63b8ff" d="M902.3,-133.48C905.24,-132.95 908.15,-132.45 911,-132 1064.12,-107.64 1112.87,-150.58 1258,-96 1278.21,-88.4 1325.72,-52.05 1352.25,-31.06"/>
<polygon fill="#63b8ff" stroke="#63b8ff" points="1354.73,-33.56 1360.37,-24.59 1350.37,-28.09 1354.73,-33.56"/>
</a>
</g>
</g>
<!-- Node6&#45;&gt;Node10 -->
<g id="edge9_Node000006_Node000010" class="edge">
<title>Node6&#45;&gt;Node10</title>
<g id="a_edge9_Node000006_Node000010"><a xlink:title=" ">
<path fill="none" stroke="#63b8ff" d="M902.3,-133.51C905.24,-132.97 908.15,-132.46 911,-132 982.72,-120.33 1181.56,-144.13 1236,-96 1253.18,-80.81 1256.28,-53.18 1256.21,-34.7"/>
<polygon fill="#63b8ff" stroke="#63b8ff" points="1259.7,-34.45 1255.85,-24.58 1252.7,-34.69 1259.7,-34.45"/>
</a>
</g>
</g>
<!-- Node11 -->
<g id="Node000011" class="node">
<title>Node11</title>
<g id="a_Node000011"><a xlink:title=" ">
<polygon fill="#e0e0e0" stroke="#999999" points="660,-30 492,-30 492,0 660,0 660,-30"/>
<text text-anchor="start" x="500" y="-18" font-family="Helvetica,sans-Serif" font-size="10.00">boost/date_time/posix</text>
<text text-anchor="middle" x="576" y="-7" font-family="Helvetica,sans-Serif" font-size="10.00">_time/posix_time_duration.hpp</text>
</a>
</g>
</g>
<!-- Node6&#45;&gt;Node11 -->
<g id="edge10_Node000006_Node000011" class="edge">
<title>Node6&#45;&gt;Node11</title>
<g id="a_edge10_Node000006_Node000011"><a xlink:title=" ">
<path fill="none" stroke="#63b8ff" d="M816.85,-131.96C767.87,-108.38 669.06,-60.81 614.45,-34.51"/>
<polygon fill="#63b8ff" stroke="#63b8ff" points="615.97,-31.36 605.44,-30.17 612.93,-37.67 615.97,-31.36"/>
</a>
</g>
</g>
<!-- Node12 -->
<g id="Node000012" class="node">
<title>Node12</title>
<g id="a_Node000012"><a xlink:title=" ">
<polygon fill="#e0e0e0" stroke="#999999" points="1083.5,-96 928.5,-96 928.5,-66 1083.5,-66 1083.5,-96"/>
<text text-anchor="start" x="936.5" y="-84" font-family="Helvetica,sans-Serif" font-size="10.00">boost/date_time/posix</text>
<text text-anchor="middle" x="1006" y="-73" font-family="Helvetica,sans-Serif" font-size="10.00">_time/posix_time_types.hpp</text>
</a>
</g>
</g>
<!-- Node6&#45;&gt;Node12 -->
<g id="edge11_Node000006_Node000012" class="edge">
<title>Node6&#45;&gt;Node12</title>
<g id="a_edge11_Node000006_Node000012"><a xlink:title=" ">
<path fill="none" stroke="#63b8ff" d="M881.11,-131.95C904.77,-122.49 936.16,-109.93 961.56,-99.78"/>
<polygon fill="#63b8ff" stroke="#63b8ff" points="962.98,-102.98 970.97,-96.01 960.38,-96.48 962.98,-102.98"/>
</a>
</g>
</g>
<!-- Node13 -->
<g id="Node000013" class="node">
<title>Node13</title>
<g id="a_Node000013"><a xlink:title=" ">
<polygon fill="#e0e0e0" stroke="#999999" points="1226.5,-96 1101.5,-96 1101.5,-66 1226.5,-66 1226.5,-96"/>
<text text-anchor="start" x="1109.5" y="-84" font-family="Helvetica,sans-Serif" font-size="10.00">boost/date_time/posix</text>
<text text-anchor="middle" x="1164" y="-73" font-family="Helvetica,sans-Serif" font-size="10.00">_time/ptime.hpp</text>
</a>
</g>
</g>
<!-- Node6&#45;&gt;Node13 -->
<g id="edge12_Node000006_Node000013" class="edge">
<title>Node6&#45;&gt;Node13</title>
<g id="a_edge12_Node000006_Node000013"><a xlink:title=" ">
<path fill="none" stroke="#63b8ff" d="M902.01,-133.87C905.05,-133.24 908.06,-132.61 911,-132 919.93,-130.16 1019.86,-110.43 1091.42,-96.31"/>
<polygon fill="#63b8ff" stroke="#63b8ff" points="1092.18,-99.73 1101.31,-94.36 1090.83,-92.86 1092.18,-99.73"/>
</a>
</g>
</g>
<!-- Node6&#45;&gt;Node14 -->
<g id="edge13_Node000006_Node000014" class="edge">
<title>Node6&#45;&gt;Node14</title>
<g id="a_edge13_Node000006_Node000014"><a xlink:title=" ">
<path fill="none" stroke="#63b8ff" d="M845.33,-131.8C844.91,-122.7 844.35,-110.79 843.89,-100.9"/>
<polygon fill="#63b8ff" stroke="#63b8ff" points="847.38,-100.67 843.41,-90.84 840.39,-101 847.38,-100.67"/>
</a>
</g>
</g>
<!-- Node6&#45;&gt;Node17 -->
<g id="edge18_Node000006_Node000017" class="edge">
<title>Node6&#45;&gt;Node17</title>
<g id="a_edge18_Node000006_Node000017"><a xlink:title=" ">
<path fill="none" stroke="#63b8ff" d="M789.73,-132.66C739.91,-120.85 668.1,-103.83 621.74,-92.84"/>
<polygon fill="#63b8ff" stroke="#63b8ff" points="622.51,-89.43 611.97,-90.53 620.89,-96.24 622.51,-89.43"/>
</a>
</g>
</g>
<!-- Node14&#45;&gt;Node7 -->
<g id="edge14_Node000014_Node000007" class="edge">
<title>Node14&#45;&gt;Node7</title>
<g id="a_edge14_Node000014_Node000007"><a xlink:title=" ">
<path fill="none" stroke="#63b8ff" d="M830.59,-71.37C815.64,-60.97 790.28,-43.32 772.2,-30.75"/>
<polygon fill="#63b8ff" stroke="#63b8ff" points="773.71,-27.54 763.5,-24.7 769.72,-33.28 773.71,-27.54"/>
</a>
</g>
</g>
<!-- Node14&#45;&gt;Node10 -->
<g id="edge15_Node000014_Node000010" class="edge">
<title>Node14&#45;&gt;Node10</title>
<g id="a_edge15_Node000014_Node000010"><a xlink:title=" ">
<path fill="none" stroke="#63b8ff" d="M887.96,-71.45C898.16,-69.59 908.94,-67.67 919,-66 1021.99,-48.86 1143.21,-31.51 1208.21,-22.44"/>
<polygon fill="#63b8ff" stroke="#63b8ff" points="1208.72,-25.91 1218.14,-21.06 1207.76,-18.97 1208.72,-25.91"/>
</a>
</g>
</g>
<!-- Node15 -->
<g id="Node000015" class="node">
<title>Node15</title>
<g id="a_Node000015"><a xlink:title=" ">
<polygon fill="#e0e0e0" stroke="#999999" points="958,-30 842,-30 842,0 958,0 958,-30"/>
<text text-anchor="start" x="850" y="-18" font-family="Helvetica,sans-Serif" font-size="10.00">boost/multiprecision</text>
<text text-anchor="middle" x="900" y="-7" font-family="Helvetica,sans-Serif" font-size="10.00">/cpp_bin_float.hpp</text>
</a>
</g>
</g>
<!-- Node14&#45;&gt;Node15 -->
<g id="edge16_Node000014_Node000015" class="edge">
<title>Node14&#45;&gt;Node15</title>
<g id="a_edge16_Node000014_Node000015"><a xlink:title=" ">
<path fill="none" stroke="#63b8ff" d="M850.69,-71.37C858.29,-62.83 870.24,-49.41 880.48,-37.92"/>
<polygon fill="#63b8ff" stroke="#63b8ff" points="883.17,-40.16 887.21,-30.36 877.95,-35.5 883.17,-40.16"/>
</a>
</g>
</g>
<!-- Node16 -->
<g id="Node000016" class="node">
<title>Node16</title>
<g id="a_Node000016"><a xlink:title=" ">
<polygon fill="#e0e0e0" stroke="#999999" points="1092,-30 976,-30 976,0 1092,0 1092,-30"/>
<text text-anchor="start" x="984" y="-18" font-family="Helvetica,sans-Serif" font-size="10.00">boost/multiprecision</text>
<text text-anchor="middle" x="1034" y="-7" font-family="Helvetica,sans-Serif" font-size="10.00">/fwd.hpp</text>
</a>
</g>
</g>
<!-- Node14&#45;&gt;Node16 -->
<g id="edge17_Node000014_Node000016" class="edge">
<title>Node14&#45;&gt;Node16</title>
<g id="a_edge17_Node000014_Node000016"><a xlink:title=" ">
<path fill="none" stroke="#63b8ff" d="M868.76,-71.37C897.74,-61.66 945.55,-45.64 982.31,-33.32"/>
<polygon fill="#63b8ff" stroke="#63b8ff" points="983.5,-36.61 991.87,-30.12 981.28,-29.97 983.5,-36.61"/>
</a>
</g>
</g>
<!-- Node17&#45;&gt;Node7 -->
<g id="edge19_Node000017_Node000007" class="edge">
<title>Node17&#45;&gt;Node7</title>
<g id="a_edge19_Node000017_Node000007"><a xlink:title=" ">
<path fill="none" stroke="#63b8ff" d="M599.6,-71.37C630.09,-60.22 683.32,-40.75 717.85,-28.12"/>
<polygon fill="#63b8ff" stroke="#63b8ff" points="719.3,-31.32 727.49,-24.6 716.9,-24.74 719.3,-31.32"/>
</a>
</g>
</g>
<!-- Node17&#45;&gt;Node9 -->
<g id="edge20_Node000017_Node000009" class="edge">
<title>Node17&#45;&gt;Node9</title>
<g id="a_edge20_Node000017_Node000009"><a xlink:title=" ">
<path fill="none" stroke="#63b8ff" d="M643.26,-74.94C679.6,-72.23 725.25,-68.87 766,-66 1003.73,-49.24 1064.77,-61.44 1301,-30 1313.45,-28.34 1327.01,-25.81 1338.85,-23.34"/>
<polygon fill="#63b8ff" stroke="#63b8ff" points="1339.7,-26.74 1348.74,-21.22 1338.23,-19.9 1339.7,-26.74"/>
</a>
</g>
</g>
<!-- Node17&#45;&gt;Node11 -->
<g id="edge22_Node000017_Node000011" class="edge">
<title>Node17&#45;&gt;Node11</title>
<g id="a_edge22_Node000017_Node000011"><a xlink:title=" ">
<path fill="none" stroke="#63b8ff" d="M576,-71.37C576,-63.49 576,-51.45 576,-40.6"/>
<polygon fill="#63b8ff" stroke="#63b8ff" points="579.5,-40.36 576,-30.36 572.5,-40.36 579.5,-40.36"/>
</a>
</g>
</g>
<!-- Node18 -->
<g id="Node000018" class="node">
<title>Node18</title>
<g id="a_Node000018"><a xlink:title=" ">
<polygon fill="#e0e0e0" stroke="#999999" points="307.5,-30 150.5,-30 150.5,0 307.5,0 307.5,-30"/>
<text text-anchor="start" x="158.5" y="-18" font-family="Helvetica,sans-Serif" font-size="10.00">boost/date_time/posix</text>
<text text-anchor="middle" x="229" y="-7" font-family="Helvetica,sans-Serif" font-size="10.00">_time/posix_time_config.hpp</text>
</a>
</g>
</g>
<!-- Node17&#45;&gt;Node18 -->
<g id="edge21_Node000017_Node000018" class="edge">
<title>Node17&#45;&gt;Node18</title>
<g id="a_edge21_Node000017_Node000018"><a xlink:title=" ">
<path fill="none" stroke="#63b8ff" d="M529.56,-71.44C474.93,-61.36 383.1,-44.42 315.29,-31.91"/>
<polygon fill="#63b8ff" stroke="#63b8ff" points="315.51,-28.4 305.04,-30.02 314.24,-35.28 315.51,-28.4"/>
</a>
</g>
</g>
<!-- Node19 -->
<g id="Node000019" class="node">
<title>Node19</title>
<g id="a_Node000019"><a xlink:title=" ">
<polygon fill="#e0e0e0" stroke="#999999" points="474,-30 326,-30 326,0 474,0 474,-30"/>
<text text-anchor="start" x="334" y="-18" font-family="Helvetica,sans-Serif" font-size="10.00">boost/date_time/posix</text>
<text text-anchor="middle" x="400" y="-7" font-family="Helvetica,sans-Serif" font-size="10.00">_time/time_formatters.hpp</text>
</a>
</g>
</g>
<!-- Node17&#45;&gt;Node19 -->
<g id="edge23_Node000017_Node000019" class="edge">
<title>Node17&#45;&gt;Node19</title>
<g id="a_edge23_Node000017_Node000019"><a xlink:title=" ">
<path fill="none" stroke="#63b8ff" d="M552.26,-71.37C525.79,-61.74 482.25,-45.91 448.5,-33.64"/>
<polygon fill="#63b8ff" stroke="#63b8ff" points="449.41,-30.24 438.82,-30.12 447.02,-36.82 449.41,-30.24"/>
</a>
</g>
</g>
<!-- Node20 -->
<g id="Node000020" class="node">
<title>Node20</title>
<g id="a_Node000020"><a xlink:title=" ">
<polygon fill="#e0e0e0" stroke="#999999" points="132,-30 0,-30 0,0 132,0 132,-30"/>
<text text-anchor="start" x="8" y="-18" font-family="Helvetica,sans-Serif" font-size="10.00">boost/date_time/posix</text>
<text text-anchor="middle" x="66" y="-7" font-family="Helvetica,sans-Serif" font-size="10.00">_time/time_parsers.hpp</text>
</a>
</g>
</g>
<!-- Node17&#45;&gt;Node20 -->
<g id="edge24_Node000017_Node000020" class="edge">
<title>Node17&#45;&gt;Node20</title>
<g id="a_edge24_Node000017_Node000020"><a xlink:title=" ">
<path fill="none" stroke="#63b8ff" d="M508.74,-73.75C425.19,-65.65 278.07,-50.3 142.38,-30.14"/>
<polygon fill="#63b8ff" stroke="#63b8ff" points="142.62,-26.64 132.21,-28.62 141.58,-33.56 142.62,-26.64"/>
</a>
</g>
</g>
<!-- Node21&#45;&gt;Node6 -->
<g id="edge32_Node000021_Node000006" class="edge">
<title>Node21&#45;&gt;Node6</title>
<g id="a_edge32_Node000021_Node000006"><a xlink:title=" ">
<path fill="none" stroke="#63b8ff" d="M1002.89,-197.95C972.52,-188.28 931.99,-175.38 899.73,-165.11"/>
<polygon fill="#63b8ff" stroke="#63b8ff" points="900.6,-161.71 890.01,-162.01 898.47,-168.38 900.6,-161.71"/>
</a>
</g>
</g>
<!-- Node21&#45;&gt;Node7 -->
<g id="edge27_Node000021_Node000007" class="edge">
<title>Node21&#45;&gt;Node7</title>
<g id="a_edge27_Node000021_Node000007"><a xlink:title=" ">
<path fill="none" stroke="#63b8ff" d="M993.77,-204.67C921,-194.25 797.55,-174.98 781,-162 742.73,-131.99 744.48,-67.37 748.12,-35.12"/>
<polygon fill="#63b8ff" stroke="#63b8ff" points="751.64,-35.2 749.47,-24.82 744.7,-34.28 751.64,-35.2"/>
</a>
</g>
</g>
<!-- Node21&#45;&gt;Node9 -->
<g id="edge29_Node000021_Node000009" class="edge">
<title>Node21&#45;&gt;Node9</title>
<g id="a_edge29_Node000021_Node000009"><a xlink:title=" ">
<path fill="none" stroke="#63b8ff" d="M1100.34,-205.47C1143.63,-198.71 1205.41,-185.7 1255,-162 1274.73,-152.57 1274.89,-142.62 1294,-132 1333.83,-109.86 1364.04,-133.45 1390,-96 1402.98,-77.27 1392.38,-50.78 1382.56,-33.5"/>
<polygon fill="#63b8ff" stroke="#63b8ff" points="1385.27,-31.22 1377.06,-24.52 1379.3,-34.87 1385.27,-31.22"/>
</a>
</g>
</g>
<!-- Node22 -->
<g id="Node000022" class="node">
<title>Node22</title>
<g id="a_Node000022"><a xlink:title=" ">
<polygon fill="#e0e0e0" stroke="#999999" points="974,-156.5 920,-156.5 920,-137.5 974,-137.5 974,-156.5"/>
<text text-anchor="middle" x="947" y="-144.5" font-family="Helvetica,sans-Serif" font-size="10.00">random</text>
</a>
</g>
</g>
<!-- Node21&#45;&gt;Node22 -->
<g id="edge28_Node000021_Node000022" class="edge">
<title>Node21&#45;&gt;Node22</title>
<g id="a_edge28_Node000021_Node000022"><a xlink:title=" ">
<path fill="none" stroke="#63b8ff" d="M1024.81,-197.8C1008.2,-187.17 985.6,-172.7 969.03,-162.1"/>
<polygon fill="#63b8ff" stroke="#63b8ff" points="970.84,-159.1 960.53,-156.66 967.06,-165 970.84,-159.1"/>
</a>
</g>
</g>
<!-- Node21&#45;&gt;Node23 -->
<g id="edge30_Node000021_Node000023" class="edge">
<title>Node21&#45;&gt;Node23</title>
<g id="a_edge30_Node000021_Node000023"><a xlink:title=" ">
<path fill="none" stroke="#63b8ff" d="M1100.25,-201.22C1158.82,-189.35 1252.35,-170.41 1310.59,-158.61"/>
<polygon fill="#63b8ff" stroke="#63b8ff" points="1311.58,-161.99 1320.68,-156.57 1310.19,-155.13 1311.58,-161.99"/>
</a>
</g>
</g>
<!-- Node24 -->
<g id="Node000024" class="node">
<title>Node24</title>
<g id="a_Node000024"><a xlink:title=" ">
<polygon fill="#e0e0e0" stroke="#999999" points="1071.5,-156.5 992.5,-156.5 992.5,-137.5 1071.5,-137.5 1071.5,-156.5"/>
<text text-anchor="middle" x="1032" y="-144.5" font-family="Helvetica,sans-Serif" font-size="10.00">fmt/format.h</text>
</a>
</g>
</g>
<!-- Node21&#45;&gt;Node24 -->
<g id="edge31_Node000021_Node000024" class="edge">
<title>Node21&#45;&gt;Node24</title>
<g id="a_edge31_Node000021_Node000024"><a xlink:title=" ">
<path fill="none" stroke="#63b8ff" d="M1043.67,-197.8C1041.54,-188.7 1038.75,-176.79 1036.43,-166.9"/>
<polygon fill="#63b8ff" stroke="#63b8ff" points="1039.76,-165.78 1034.07,-156.84 1032.95,-167.38 1039.76,-165.78"/>
</a>
</g>
</g>
<!-- Node25 -->
<g id="Node000025" class="node">
<title>Node25</title>
<g id="a_Node000025"><a xlink:title=" ">
<polygon fill="#e0e0e0" stroke="#999999" points="1246,-156.5 1090,-156.5 1090,-137.5 1246,-137.5 1246,-156.5"/>
<text text-anchor="middle" x="1168" y="-144.5" font-family="Helvetica,sans-Serif" font-size="10.00">internal_use_only/config.hpp</text>
</a>
</g>
</g>
<!-- Node21&#45;&gt;Node25 -->
<g id="edge33_Node000021_Node000025" class="edge">
<title>Node21&#45;&gt;Node25</title>
<g id="a_edge33_Node000021_Node000025"><a xlink:title=" ">
<path fill="none" stroke="#63b8ff" d="M1073.55,-197.95C1094.21,-187.03 1122.68,-171.97 1142.95,-161.25"/>
<polygon fill="#63b8ff" stroke="#63b8ff" points="1144.69,-164.29 1151.9,-156.52 1141.42,-158.1 1144.69,-164.29"/>
</a>
</g>
</g>
</g>
</svg>
