<?xml version="1.0" encoding="UTF-8" standalone="no"?>
<!DOCTYPE svg PUBLIC "-//W3C//DTD SVG 1.1//EN"
 "http://www.w3.org/Graphics/SVG/1.1/DTD/svg11.dtd">
<!-- Generated by graphviz version 2.43.0 (0)
 -->
<!-- Title: src/si3_sim/config.cpp Pages: 1 -->
<svg width="2124pt" height="346pt"
 viewBox="0.00 0.00 2124.00 346.00" xmlns="http://www.w3.org/2000/svg" xmlns:xlink="http://www.w3.org/1999/xlink">
<g id="graph0" class="graph" transform="scale(1 1) rotate(0) translate(4 342)">
<title>src/si3_sim/config.cpp</title>
<!-- Node1 -->
<g id="Node000001" class="node">
<title>Node1</title>
<g id="a_Node000001"><a xlink:title="Implementation of configuration utilities.">
<polygon fill="#999999" stroke="#666666" points="1521,-338 1397,-338 1397,-319 1521,-319 1521,-338"/>
<text text-anchor="middle" x="1459" y="-326" font-family="Helvetica,sans-Serif" font-size="10.00">src/si3_sim/config.cpp</text>
</a>
</g>
</g>
<!-- Node2 -->
<g id="Node000002" class="node">
<title>Node2</title>
<g id="a_Node000002"><a xlink:href="config_8hpp.html" target="_top" xlink:title="Configuration structure for the Si3 simulation.">
<polygon fill="white" stroke="#666666" points="884.5,-283 747.5,-283 747.5,-264 884.5,-264 884.5,-283"/>
<text text-anchor="middle" x="816" y="-271" font-family="Helvetica,sans-Serif" font-size="10.00">Clock/si3_sim/config.hpp</text>
</a>
</g>
</g>
<!-- Node1&#45;&gt;Node2 -->
<g id="edge1_Node000001_Node000002" class="edge">
<title>Node1&#45;&gt;Node2</title>
<g id="a_edge1_Node000001_Node000002"><a xlink:title=" ">
<path fill="none" stroke="#63b8ff" d="M1396.76,-322.37C1279.08,-312.67 1024.17,-291.66 894.77,-280.99"/>
<polygon fill="#63b8ff" stroke="#63b8ff" points="894.8,-277.48 884.54,-280.15 894.22,-284.46 894.8,-277.48"/>
</a>
</g>
</g>
<!-- Node6 -->
<g id="Node000006" class="node">
<title>Node6</title>
<g id="a_Node000006"><a xlink:href="date__time_8hpp_source.html" target="_top" xlink:title=" ">
<polygon fill="white" stroke="#666666" points="833,-162 721,-162 721,-132 833,-132 833,-162"/>
<text text-anchor="start" x="729" y="-150" font-family="Helvetica,sans-Serif" font-size="10.00">Clock/misc_lib/date</text>
<text text-anchor="middle" x="777" y="-139" font-family="Helvetica,sans-Serif" font-size="10.00">_time.hpp</text>
</a>
</g>
</g>
<!-- Node1&#45;&gt;Node6 -->
<g id="edge44_Node000001_Node000006" class="edge">
<title>Node1&#45;&gt;Node6</title>
<g id="a_edge44_Node000001_Node000006"><a xlink:title=" ">
<path fill="none" stroke="#63b8ff" d="M1396.92,-323.69C1302.91,-315.96 1120.6,-293.17 981,-228 961.5,-218.9 962.08,-207.94 943,-198 924.98,-188.61 879.77,-175.21 841.08,-164.65"/>
<polygon fill="#63b8ff" stroke="#63b8ff" points="841.97,-161.26 831.4,-162.03 840.14,-168.02 841.97,-161.26"/>
</a>
</g>
</g>
<!-- Node8 -->
<g id="Node000008" class="node">
<title>Node8</title>
<g id="a_Node000008"><a xlink:title=" ">
<polygon fill="#e0e0e0" stroke="#999999" points="1335,-90.5 1275,-90.5 1275,-71.5 1335,-71.5 1335,-90.5"/>
<text text-anchor="middle" x="1305" y="-78.5" font-family="Helvetica,sans-Serif" font-size="10.00">iostream</text>
</a>
</g>
</g>
<!-- Node1&#45;&gt;Node8 -->
<g id="edge36_Node000001_Node000008" class="edge">
<title>Node1&#45;&gt;Node8</title>
<g id="a_edge36_Node000001_Node000008"><a xlink:title=" ">
<path fill="none" stroke="#63b8ff" d="M1445.05,-318.96C1433.25,-311.04 1416.75,-298.2 1407,-283 1369.33,-224.26 1401.81,-190.65 1364,-132 1354.75,-117.65 1340.14,-105.22 1327.77,-96.35"/>
<polygon fill="#63b8ff" stroke="#63b8ff" points="1329.5,-93.29 1319.27,-90.53 1325.54,-99.07 1329.5,-93.29"/>
</a>
</g>
</g>
<!-- Node9 -->
<g id="Node000009" class="node">
<title>Node9</title>
<g id="a_Node000009"><a xlink:title=" ">
<polygon fill="#e0e0e0" stroke="#999999" points="1366,-24.5 1322,-24.5 1322,-5.5 1366,-5.5 1366,-24.5"/>
<text text-anchor="middle" x="1344" y="-12.5" font-family="Helvetica,sans-Serif" font-size="10.00">string</text>
</a>
</g>
</g>
<!-- Node1&#45;&gt;Node9 -->
<g id="edge38_Node000001_Node000009" class="edge">
<title>Node1&#45;&gt;Node9</title>
<g id="a_edge38_Node000001_Node000009"><a xlink:title=" ">
<path fill="none" stroke="#63b8ff" d="M1459,-318.96C1459,-300.05 1459,-253.21 1459,-214 1459,-214 1459,-214 1459,-146 1459,-92.29 1403.25,-50.35 1369.38,-29.83"/>
<polygon fill="#63b8ff" stroke="#63b8ff" points="1370.88,-26.65 1360.48,-24.62 1367.34,-32.69 1370.88,-26.65"/>
</a>
</g>
</g>
<!-- Node10 -->
<g id="Node000010" class="node">
<title>Node10</title>
<g id="a_Node000010"><a xlink:title=" ">
<polygon fill="#e0e0e0" stroke="#999999" points="1245.5,-24.5 1172.5,-24.5 1172.5,-5.5 1245.5,-5.5 1245.5,-24.5"/>
<text text-anchor="middle" x="1209" y="-12.5" font-family="Helvetica,sans-Serif" font-size="10.00">string_view</text>
</a>
</g>
</g>
<!-- Node1&#45;&gt;Node10 -->
<g id="edge39_Node000001_Node000010" class="edge">
<title>Node1&#45;&gt;Node10</title>
<g id="a_edge39_Node000001_Node000010"><a xlink:title=" ">
<path fill="none" stroke="#63b8ff" d="M1457.97,-318.57C1453.13,-281.15 1429.28,-135.64 1344,-66 1318.48,-45.16 1283.45,-32.53 1255.47,-25.17"/>
<polygon fill="#63b8ff" stroke="#63b8ff" points="1256.06,-21.71 1245.51,-22.7 1254.37,-28.51 1256.06,-21.71"/>
</a>
</g>
</g>
<!-- Node16 -->
<g id="Node000016" class="node">
<title>Node16</title>
<g id="a_Node000016"><a xlink:href="time_8hpp.html" target="_top" xlink:title="DateTime data structure and utilities.">
<polygon fill="white" stroke="#666666" points="597,-90.5 463,-90.5 463,-71.5 597,-71.5 597,-90.5"/>
<text text-anchor="middle" x="530" y="-78.5" font-family="Helvetica,sans-Serif" font-size="10.00">Clock/misc_lib/time.hpp</text>
</a>
</g>
</g>
<!-- Node1&#45;&gt;Node16 -->
<g id="edge45_Node000001_Node000016" class="edge">
<title>Node1&#45;&gt;Node16</title>
<g id="a_edge45_Node000001_Node000016"><a xlink:title=" ">
<path fill="none" stroke="#63b8ff" d="M1396.83,-326.93C1245.48,-325.02 861.27,-316.88 738,-283 647.53,-258.13 617.9,-239.5 565,-162 551.82,-142.69 541.82,-117.61 535.95,-100.72"/>
<polygon fill="#63b8ff" stroke="#63b8ff" points="539.17,-99.34 532.7,-90.95 532.53,-101.55 539.17,-99.34"/>
</a>
</g>
</g>
<!-- Node22 -->
<g id="Node000022" class="node">
<title>Node22</title>
<g id="a_Node000022"><a xlink:title=" ">
<polygon fill="#e0e0e0" stroke="#999999" points="1354.5,-156.5 1233.5,-156.5 1233.5,-137.5 1354.5,-137.5 1354.5,-156.5"/>
<text text-anchor="middle" x="1294" y="-144.5" font-family="Helvetica,sans-Serif" font-size="10.00">boost/json/object.hpp</text>
</a>
</g>
</g>
<!-- Node1&#45;&gt;Node22 -->
<g id="edge41_Node000001_Node000022" class="edge">
<title>Node1&#45;&gt;Node22</title>
<g id="a_edge41_Node000001_Node000022"><a xlink:title=" ">
<path fill="none" stroke="#63b8ff" d="M1431.6,-318.89C1412.29,-311.73 1386.79,-299.96 1369,-283 1333.53,-249.19 1310.49,-194.86 1300.2,-166.53"/>
<polygon fill="#63b8ff" stroke="#63b8ff" points="1303.38,-165.02 1296.78,-156.74 1296.77,-167.33 1303.38,-165.02"/>
</a>
</g>
</g>
<!-- Node25 -->
<g id="Node000025" class="node">
<title>Node25</title>
<g id="a_Node000025"><a xlink:title=" ">
<polygon fill="#e0e0e0" stroke="#999999" points="1540.5,-283 1487.5,-283 1487.5,-264 1540.5,-264 1540.5,-283"/>
<text text-anchor="middle" x="1514" y="-271" font-family="Helvetica,sans-Serif" font-size="10.00">cstddef</text>
</a>
</g>
</g>
<!-- Node1&#45;&gt;Node25 -->
<g id="edge34_Node000001_Node000025" class="edge">
<title>Node1&#45;&gt;Node25</title>
<g id="a_edge34_Node000001_Node000025"><a xlink:title=" ">
<path fill="none" stroke="#63b8ff" d="M1468.08,-318.75C1476.09,-311.03 1487.96,-299.6 1497.62,-290.28"/>
<polygon fill="#63b8ff" stroke="#63b8ff" points="1500.31,-292.55 1505.09,-283.09 1495.46,-287.51 1500.31,-292.55"/>
</a>
</g>
</g>
<!-- Node26 -->
<g id="Node000026" class="node">
<title>Node26</title>
<g id="a_Node000026"><a xlink:title=" ">
<polygon fill="#e0e0e0" stroke="#999999" points="1613.5,-283 1558.5,-283 1558.5,-264 1613.5,-264 1613.5,-283"/>
<text text-anchor="middle" x="1586" y="-271" font-family="Helvetica,sans-Serif" font-size="10.00">fstream</text>
</a>
</g>
</g>
<!-- Node1&#45;&gt;Node26 -->
<g id="edge35_Node000001_Node000026" class="edge">
<title>Node1&#45;&gt;Node26</title>
<g id="a_edge35_Node000001_Node000026"><a xlink:title=" ">
<path fill="none" stroke="#63b8ff" d="M1479.4,-318.98C1500.02,-310.38 1532.11,-296.99 1555.69,-287.15"/>
<polygon fill="#63b8ff" stroke="#63b8ff" points="1557.34,-290.25 1565.22,-283.17 1554.65,-283.79 1557.34,-290.25"/>
</a>
</g>
</g>
<!-- Node27 -->
<g id="Node000027" class="node">
<title>Node27</title>
<g id="a_Node000027"><a xlink:title=" ">
<polygon fill="#e0e0e0" stroke="#999999" points="1696.5,-283 1631.5,-283 1631.5,-264 1696.5,-264 1696.5,-283"/>
<text text-anchor="middle" x="1664" y="-271" font-family="Helvetica,sans-Serif" font-size="10.00">stdexcept</text>
</a>
</g>
</g>
<!-- Node1&#45;&gt;Node27 -->
<g id="edge37_Node000001_Node000027" class="edge">
<title>Node1&#45;&gt;Node27</title>
<g id="a_edge37_Node000001_Node000027"><a xlink:title=" ">
<path fill="none" stroke="#63b8ff" d="M1491.94,-318.98C1527.16,-309.88 1583.13,-295.41 1621.61,-285.46"/>
<polygon fill="#63b8ff" stroke="#63b8ff" points="1622.68,-288.8 1631.48,-282.91 1620.93,-282.02 1622.68,-288.8"/>
</a>
</g>
</g>
<!-- Node28 -->
<g id="Node000028" class="node">
<title>Node28</title>
<g id="a_Node000028"><a xlink:title=" ">
<polygon fill="#e0e0e0" stroke="#999999" points="1829.5,-283 1714.5,-283 1714.5,-264 1829.5,-264 1829.5,-283"/>
<text text-anchor="middle" x="1772" y="-271" font-family="Helvetica,sans-Serif" font-size="10.00">boost/json/array.hpp</text>
</a>
</g>
</g>
<!-- Node1&#45;&gt;Node28 -->
<g id="edge40_Node000001_Node000028" class="edge">
<title>Node1&#45;&gt;Node28</title>
<g id="a_edge40_Node000001_Node000028"><a xlink:title=" ">
<path fill="none" stroke="#63b8ff" d="M1509.29,-318.98C1564.42,-309.65 1652.85,-294.67 1711.68,-284.71"/>
<polygon fill="#63b8ff" stroke="#63b8ff" points="1712.3,-288.16 1721.58,-283.04 1711.13,-281.26 1712.3,-288.16"/>
</a>
</g>
</g>
<!-- Node29 -->
<g id="Node000029" class="node">
<title>Node29</title>
<g id="a_Node000029"><a xlink:title=" ">
<polygon fill="#e0e0e0" stroke="#999999" points="1980,-283 1848,-283 1848,-264 1980,-264 1980,-283"/>
<text text-anchor="middle" x="1914" y="-271" font-family="Helvetica,sans-Serif" font-size="10.00">boost/json/serialize.hpp</text>
</a>
</g>
</g>
<!-- Node1&#45;&gt;Node29 -->
<g id="edge42_Node000001_Node000029" class="edge">
<title>Node1&#45;&gt;Node29</title>
<g id="a_edge42_Node000001_Node000029"><a xlink:title=" ">
<path fill="none" stroke="#63b8ff" d="M1521.31,-320.24C1603.69,-310.65 1748.75,-293.75 1837.63,-283.4"/>
<polygon fill="#63b8ff" stroke="#63b8ff" points="1838.12,-286.86 1847.65,-282.23 1837.31,-279.91 1838.12,-286.86"/>
</a>
</g>
</g>
<!-- Node30 -->
<g id="Node000030" class="node">
<title>Node30</title>
<g id="a_Node000030"><a xlink:title=" ">
<polygon fill="#e0e0e0" stroke="#999999" points="2116,-283 1998,-283 1998,-264 2116,-264 2116,-283"/>
<text text-anchor="middle" x="2057" y="-271" font-family="Helvetica,sans-Serif" font-size="10.00">boost/json/value.hpp</text>
</a>
</g>
</g>
<!-- Node1&#45;&gt;Node30 -->
<g id="edge43_Node000001_Node000030" class="edge">
<title>Node1&#45;&gt;Node30</title>
<g id="a_edge43_Node000001_Node000030"><a xlink:title=" ">
<path fill="none" stroke="#63b8ff" d="M1521.09,-323.11C1618.26,-316.05 1812.44,-301.23 1987.51,-283.12"/>
<polygon fill="#63b8ff" stroke="#63b8ff" points="1988.09,-286.58 1997.68,-282.06 1987.37,-279.61 1988.09,-286.58"/>
</a>
</g>
</g>
<!-- Node3 -->
<g id="Node000003" class="node">
<title>Node3</title>
<g id="a_Node000003"><a xlink:title=" ">
<polygon fill="#e0e0e0" stroke="#999999" points="934,-222.5 870,-222.5 870,-203.5 934,-203.5 934,-222.5"/>
<text text-anchor="middle" x="902" y="-210.5" font-family="Helvetica,sans-Serif" font-size="10.00">algorithm</text>
</a>
</g>
</g>
<!-- Node2&#45;&gt;Node3 -->
<g id="edge2_Node000002_Node000003" class="edge">
<title>Node2&#45;&gt;Node3</title>
<g id="a_edge2_Node000002_Node000003"><a xlink:title=" ">
<path fill="none" stroke="#63b8ff" d="M828.69,-263.87C842.41,-254.54 864.5,-239.51 880.85,-228.38"/>
<polygon fill="#63b8ff" stroke="#63b8ff" points="882.96,-231.19 889.26,-222.67 879.02,-225.4 882.96,-231.19"/>
</a>
</g>
</g>
<!-- Node4 -->
<g id="Node000004" class="node">
<title>Node4</title>
<g id="a_Node000004"><a xlink:title=" ">
<polygon fill="#e0e0e0" stroke="#999999" points="748.5,-222.5 691.5,-222.5 691.5,-203.5 748.5,-203.5 748.5,-222.5"/>
<text text-anchor="middle" x="720" y="-210.5" font-family="Helvetica,sans-Serif" font-size="10.00">ostream</text>
</a>
</g>
</g>
<!-- Node2&#45;&gt;Node4 -->
<g id="edge3_Node000002_Node000004" class="edge">
<title>Node2&#45;&gt;Node4</title>
<g id="a_edge3_Node000002_Node000004"><a xlink:title=" ">
<path fill="none" stroke="#63b8ff" d="M801.83,-263.87C786.31,-254.41 761.17,-239.09 742.85,-227.92"/>
<polygon fill="#63b8ff" stroke="#63b8ff" points="744.58,-224.88 734.22,-222.67 740.94,-230.86 744.58,-224.88"/>
</a>
</g>
</g>
<!-- Node5 -->
<g id="Node000005" class="node">
<title>Node5</title>
<g id="a_Node000005"><a xlink:title=" ">
<polygon fill="#e0e0e0" stroke="#999999" points="813.5,-222.5 766.5,-222.5 766.5,-203.5 813.5,-203.5 813.5,-222.5"/>
<text text-anchor="middle" x="790" y="-210.5" font-family="Helvetica,sans-Serif" font-size="10.00">vector</text>
</a>
</g>
</g>
<!-- Node2&#45;&gt;Node5 -->
<g id="edge4_Node000002_Node000005" class="edge">
<title>Node2&#45;&gt;Node5</title>
<g id="a_edge4_Node000002_Node000005"><a xlink:title=" ">
<path fill="none" stroke="#63b8ff" d="M812.16,-263.87C808.44,-255.49 802.67,-242.51 797.95,-231.89"/>
<polygon fill="#63b8ff" stroke="#63b8ff" points="801.11,-230.38 793.85,-222.67 794.72,-233.23 801.11,-230.38"/>
</a>
</g>
</g>
<!-- Node2&#45;&gt;Node6 -->
<g id="edge5_Node000002_Node000006" class="edge">
<title>Node2&#45;&gt;Node6</title>
<g id="a_edge5_Node000002_Node000006"><a xlink:title=" ">
<path fill="none" stroke="#63b8ff" d="M819.04,-263.89C823.56,-249.65 830.65,-220.53 822,-198 817.92,-187.37 810.42,-177.58 802.7,-169.54"/>
<polygon fill="#63b8ff" stroke="#63b8ff" points="804.64,-166.55 795.02,-162.11 799.77,-171.58 804.64,-166.55"/>
</a>
</g>
</g>
<!-- Node14 -->
<g id="Node000014" class="node">
<title>Node14</title>
<g id="a_Node000014"><a xlink:href="quad_8hpp.html" target="_top" xlink:title="Quad precision floating&#45;point type and utilities.">
<polygon fill="white" stroke="#666666" points="864.5,-90.5 729.5,-90.5 729.5,-71.5 864.5,-71.5 864.5,-90.5"/>
<text text-anchor="middle" x="797" y="-78.5" font-family="Helvetica,sans-Serif" font-size="10.00">Clock/misc_lib/quad.hpp</text>
</a>
</g>
</g>
<!-- Node2&#45;&gt;Node14 -->
<g id="edge24_Node000002_Node000014" class="edge">
<title>Node2&#45;&gt;Node14</title>
<g id="a_edge24_Node000002_Node000014"><a xlink:title=" ">
<path fill="none" stroke="#63b8ff" d="M747.21,-266.19C722.55,-260.22 697.13,-248.97 682,-228 661.29,-199.3 707.47,-137.04 712,-132 726.59,-115.79 747.71,-103.33 765.25,-94.9"/>
<polygon fill="#63b8ff" stroke="#63b8ff" points="766.93,-97.98 774.56,-90.64 764.01,-91.62 766.93,-97.98"/>
</a>
</g>
</g>
<!-- Node2&#45;&gt;Node16 -->
<g id="edge33_Node000002_Node000016" class="edge">
<title>Node2&#45;&gt;Node16</title>
<g id="a_edge33_Node000002_Node000016"><a xlink:title=" ">
<path fill="none" stroke="#63b8ff" d="M768.79,-263.97C739.67,-257.26 702.39,-245.97 673,-228 615.39,-192.78 564.41,-129.24 542.03,-98.95"/>
<polygon fill="#63b8ff" stroke="#63b8ff" points="544.74,-96.72 536.03,-90.68 539.08,-100.83 544.74,-96.72"/>
</a>
</g>
</g>
<!-- Node20 -->
<g id="Node000020" class="node">
<title>Node20</title>
<g id="a_Node000020"><a xlink:href="run__record_8hpp.html" target="_top" xlink:title="Run record structure and utilities.">
<polygon fill="white" stroke="#666666" points="1096,-228 990,-228 990,-198 1096,-198 1096,-228"/>
<text text-anchor="start" x="998" y="-216" font-family="Helvetica,sans-Serif" font-size="10.00">Clock/misc_lib/run</text>
<text text-anchor="middle" x="1043" y="-205" font-family="Helvetica,sans-Serif" font-size="10.00">_record.hpp</text>
</a>
</g>
</g>
<!-- Node2&#45;&gt;Node20 -->
<g id="edge25_Node000002_Node000020" class="edge">
<title>Node2&#45;&gt;Node20</title>
<g id="a_edge25_Node000002_Node000020"><a xlink:title=" ">
<path fill="none" stroke="#63b8ff" d="M849.01,-263.99C883.23,-255.17 937.57,-241.17 980.04,-230.22"/>
<polygon fill="#63b8ff" stroke="#63b8ff" points="980.93,-233.61 989.74,-227.73 979.18,-226.83 980.93,-233.61"/>
</a>
</g>
</g>
<!-- Node7 -->
<g id="Node000007" class="node">
<title>Node7</title>
<g id="a_Node000007"><a xlink:title=" ">
<polygon fill="#e0e0e0" stroke="#999999" points="823.5,-24.5 678.5,-24.5 678.5,-5.5 823.5,-5.5 823.5,-24.5"/>
<text text-anchor="middle" x="751" y="-12.5" font-family="Helvetica,sans-Serif" font-size="10.00">Clock/misc_lib_export.hpp</text>
</a>
</g>
</g>
<!-- Node6&#45;&gt;Node7 -->
<g id="edge6_Node000006_Node000007" class="edge">
<title>Node6&#45;&gt;Node7</title>
<g id="a_edge6_Node000006_Node000007"><a xlink:title=" ">
<path fill="none" stroke="#63b8ff" d="M752.83,-131.9C740.54,-123.26 726.79,-110.99 720,-96 710.25,-74.48 724.48,-48.91 736.72,-32.58"/>
<polygon fill="#63b8ff" stroke="#63b8ff" points="739.64,-34.53 743.15,-24.54 734.18,-30.16 739.64,-34.53"/>
</a>
</g>
</g>
<!-- Node6&#45;&gt;Node8 -->
<g id="edge7_Node000006_Node000008" class="edge">
<title>Node6&#45;&gt;Node8</title>
<g id="a_edge7_Node000006_Node000008"><a xlink:title=" ">
<path fill="none" stroke="#63b8ff" d="M833.29,-133.42C836.23,-132.91 839.15,-132.43 842,-132 1026.84,-104.27 1077.7,-132.56 1261,-96 1264.49,-95.3 1268.08,-94.43 1271.65,-93.46"/>
<polygon fill="#63b8ff" stroke="#63b8ff" points="1272.91,-96.74 1281.5,-90.54 1270.92,-90.03 1272.91,-96.74"/>
</a>
</g>
</g>
<!-- Node6&#45;&gt;Node9 -->
<g id="edge8_Node000006_Node000009" class="edge">
<title>Node6&#45;&gt;Node9</title>
<g id="a_edge8_Node000006_Node000009"><a xlink:title=" ">
<path fill="none" stroke="#63b8ff" d="M833.3,-133.46C836.23,-132.94 839.15,-132.44 842,-132 1005.25,-106.56 1055.21,-148.12 1212,-96 1223.79,-92.08 1287.75,-51.87 1322.13,-29.99"/>
<polygon fill="#63b8ff" stroke="#63b8ff" points="1324.02,-32.93 1330.57,-24.61 1320.26,-27.03 1324.02,-32.93"/>
</a>
</g>
</g>
<!-- Node6&#45;&gt;Node10 -->
<g id="edge9_Node000006_Node000010" class="edge">
<title>Node6&#45;&gt;Node10</title>
<g id="a_edge9_Node000006_Node000010"><a xlink:title=" ">
<path fill="none" stroke="#63b8ff" d="M833.3,-133.48C836.24,-132.95 839.15,-132.45 842,-132 918.78,-119.8 1131.57,-147.28 1190,-96 1207.24,-80.87 1210.32,-53.22 1210.23,-34.73"/>
<polygon fill="#63b8ff" stroke="#63b8ff" points="1213.72,-34.46 1209.86,-24.59 1206.73,-34.71 1213.72,-34.46"/>
</a>
</g>
</g>
<!-- Node11 -->
<g id="Node000011" class="node">
<title>Node11</title>
<g id="a_Node000011"><a xlink:title=" ">
<polygon fill="#e0e0e0" stroke="#999999" points="660,-30 492,-30 492,0 660,0 660,-30"/>
<text text-anchor="start" x="500" y="-18" font-family="Helvetica,sans-Serif" font-size="10.00">boost/date_time/posix</text>
<text text-anchor="middle" x="576" y="-7" font-family="Helvetica,sans-Serif" font-size="10.00">_time/posix_time_duration.hpp</text>
</a>
</g>
</g>
<!-- Node6&#45;&gt;Node11 -->
<g id="edge10_Node000006_Node000011" class="edge">
<title>Node6&#45;&gt;Node11</title>
<g id="a_edge10_Node000006_Node000011"><a xlink:title=" ">
<path fill="none" stroke="#63b8ff" d="M755.11,-131.84C719.09,-108.54 647.25,-62.08 606.34,-35.63"/>
<polygon fill="#63b8ff" stroke="#63b8ff" points="608.16,-32.63 597.87,-30.14 604.36,-38.51 608.16,-32.63"/>
</a>
</g>
</g>
<!-- Node12 -->
<g id="Node000012" class="node">
<title>Node12</title>
<g id="a_Node000012"><a xlink:title=" ">
<polygon fill="#e0e0e0" stroke="#999999" points="1037.5,-96 882.5,-96 882.5,-66 1037.5,-66 1037.5,-96"/>
<text text-anchor="start" x="890.5" y="-84" font-family="Helvetica,sans-Serif" font-size="10.00">boost/date_time/posix</text>
<text text-anchor="middle" x="960" y="-73" font-family="Helvetica,sans-Serif" font-size="10.00">_time/posix_time_types.hpp</text>
</a>
</g>
</g>
<!-- Node6&#45;&gt;Node12 -->
<g id="edge11_Node000006_Node000012" class="edge">
<title>Node6&#45;&gt;Node12</title>
<g id="a_edge11_Node000006_Node000012"><a xlink:title=" ">
<path fill="none" stroke="#63b8ff" d="M817.16,-131.95C844.57,-122.37 881.08,-109.6 910.32,-99.37"/>
<polygon fill="#63b8ff" stroke="#63b8ff" points="911.65,-102.62 919.93,-96.01 909.34,-96.01 911.65,-102.62"/>
</a>
</g>
</g>
<!-- Node13 -->
<g id="Node000013" class="node">
<title>Node13</title>
<g id="a_Node000013"><a xlink:title=" ">
<polygon fill="#e0e0e0" stroke="#999999" points="1180.5,-96 1055.5,-96 1055.5,-66 1180.5,-66 1180.5,-96"/>
<text text-anchor="start" x="1063.5" y="-84" font-family="Helvetica,sans-Serif" font-size="10.00">boost/date_time/posix</text>
<text text-anchor="middle" x="1118" y="-73" font-family="Helvetica,sans-Serif" font-size="10.00">_time/ptime.hpp</text>
</a>
</g>
</g>
<!-- Node6&#45;&gt;Node13 -->
<g id="edge12_Node000006_Node000013" class="edge">
<title>Node6&#45;&gt;Node13</title>
<g id="a_edge12_Node000006_Node000013"><a xlink:title=" ">
<path fill="none" stroke="#63b8ff" d="M833.34,-133.73C836.27,-133.13 839.17,-132.55 842,-132 929.68,-114.86 954.39,-113.06 1045.38,-96.28"/>
<polygon fill="#63b8ff" stroke="#63b8ff" points="1046.1,-99.7 1055.29,-94.44 1044.82,-92.82 1046.1,-99.7"/>
</a>
</g>
</g>
<!-- Node6&#45;&gt;Node14 -->
<g id="edge13_Node000006_Node000014" class="edge">
<title>Node6&#45;&gt;Node14</title>
<g id="a_edge13_Node000006_Node000014"><a xlink:title=" ">
<path fill="none" stroke="#63b8ff" d="M781.44,-131.8C784.31,-122.6 788.08,-110.53 791.19,-100.58"/>
<polygon fill="#63b8ff" stroke="#63b8ff" points="794.59,-101.43 794.24,-90.84 787.91,-99.35 794.59,-101.43"/>
</a>
</g>
</g>
<!-- Node6&#45;&gt;Node16 -->
<g id="edge17_Node000006_Node000016" class="edge">
<title>Node6&#45;&gt;Node16</title>
<g id="a_edge17_Node000006_Node000016"><a xlink:title=" ">
<path fill="none" stroke="#63b8ff" d="M722.79,-131.95C677.66,-120.26 614.28,-103.84 572.69,-93.06"/>
<polygon fill="#63b8ff" stroke="#63b8ff" points="573.43,-89.64 562.87,-90.52 571.67,-96.41 573.43,-89.64"/>
</a>
</g>
</g>
<!-- Node14&#45;&gt;Node7 -->
<g id="edge14_Node000014_Node000007" class="edge">
<title>Node14&#45;&gt;Node7</title>
<g id="a_edge14_Node000014_Node000007"><a xlink:title=" ">
<path fill="none" stroke="#63b8ff" d="M790.8,-71.37C783.77,-61.59 772.15,-45.42 763.27,-33.08"/>
<polygon fill="#63b8ff" stroke="#63b8ff" points="766.08,-30.98 757.4,-24.91 760.39,-35.07 766.08,-30.98"/>
</a>
</g>
</g>
<!-- Node14&#45;&gt;Node10 -->
<g id="edge15_Node000014_Node000010" class="edge">
<title>Node14&#45;&gt;Node10</title>
<g id="a_edge15_Node000014_Node000010"><a xlink:title=" ">
<path fill="none" stroke="#63b8ff" d="M841.96,-71.45C852.16,-69.59 862.94,-67.67 873,-66 975.99,-48.86 1097.21,-31.51 1162.21,-22.44"/>
<polygon fill="#63b8ff" stroke="#63b8ff" points="1162.72,-25.91 1172.14,-21.06 1161.76,-18.97 1162.72,-25.91"/>
</a>
</g>
</g>
<!-- Node15 -->
<g id="Node000015" class="node">
<title>Node15</title>
<g id="a_Node000015"><a xlink:title=" ">
<polygon fill="#e0e0e0" stroke="#999999" points="958,-30 842,-30 842,0 958,0 958,-30"/>
<text text-anchor="start" x="850" y="-18" font-family="Helvetica,sans-Serif" font-size="10.00">boost/multiprecision</text>
<text text-anchor="middle" x="900" y="-7" font-family="Helvetica,sans-Serif" font-size="10.00">/cpp_bin_float.hpp</text>
</a>
</g>
</g>
<!-- Node14&#45;&gt;Node15 -->
<g id="edge16_Node000014_Node000015" class="edge">
<title>Node14&#45;&gt;Node15</title>
<g id="a_edge16_Node000014_Node000015"><a xlink:title=" ">
<path fill="none" stroke="#63b8ff" d="M810.89,-71.37C825.65,-62.2 849.48,-47.39 868.78,-35.4"/>
<polygon fill="#63b8ff" stroke="#63b8ff" points="870.64,-38.37 877.28,-30.12 866.94,-32.42 870.64,-38.37"/>
</a>
</g>
</g>
<!-- Node16&#45;&gt;Node7 -->
<g id="edge18_Node000016_Node000007" class="edge">
<title>Node16&#45;&gt;Node7</title>
<g id="a_edge18_Node000016_Node000007"><a xlink:title=" ">
<path fill="none" stroke="#63b8ff" d="M559.81,-71.37C599.05,-60 668.14,-40 711.64,-27.4"/>
<polygon fill="#63b8ff" stroke="#63b8ff" points="712.68,-30.74 721.32,-24.6 710.74,-24.02 712.68,-30.74"/>
</a>
</g>
</g>
<!-- Node16&#45;&gt;Node9 -->
<g id="edge19_Node000016_Node000009" class="edge">
<title>Node16&#45;&gt;Node9</title>
<g id="a_edge19_Node000016_Node000009"><a xlink:title=" ">
<path fill="none" stroke="#63b8ff" d="M597.26,-74.94C633.6,-72.23 679.25,-68.87 720,-66 957.73,-49.24 1018.17,-56.54 1255,-30 1273.92,-27.88 1294.97,-24.61 1311.85,-21.76"/>
<polygon fill="#63b8ff" stroke="#63b8ff" points="1312.5,-25.2 1321.76,-20.06 1311.31,-18.3 1312.5,-25.2"/>
</a>
</g>
</g>
<!-- Node16&#45;&gt;Node11 -->
<g id="edge21_Node000016_Node000011" class="edge">
<title>Node16&#45;&gt;Node11</title>
<g id="a_edge21_Node000016_Node000011"><a xlink:title=" ">
<path fill="none" stroke="#63b8ff" d="M536.2,-71.37C542.22,-62.99 551.62,-49.93 559.77,-38.59"/>
<polygon fill="#63b8ff" stroke="#63b8ff" points="562.68,-40.52 565.68,-30.36 557,-36.44 562.68,-40.52"/>
</a>
</g>
</g>
<!-- Node17 -->
<g id="Node000017" class="node">
<title>Node17</title>
<g id="a_Node000017"><a xlink:title=" ">
<polygon fill="#e0e0e0" stroke="#999999" points="473.5,-30 316.5,-30 316.5,0 473.5,0 473.5,-30"/>
<text text-anchor="start" x="324.5" y="-18" font-family="Helvetica,sans-Serif" font-size="10.00">boost/date_time/posix</text>
<text text-anchor="middle" x="395" y="-7" font-family="Helvetica,sans-Serif" font-size="10.00">_time/posix_time_config.hpp</text>
</a>
</g>
</g>
<!-- Node16&#45;&gt;Node17 -->
<g id="edge20_Node000016_Node000017" class="edge">
<title>Node16&#45;&gt;Node17</title>
<g id="a_edge20_Node000016_Node000017"><a xlink:title=" ">
<path fill="none" stroke="#63b8ff" d="M511.79,-71.37C491.92,-61.95 459.52,-46.59 433.88,-34.43"/>
<polygon fill="#63b8ff" stroke="#63b8ff" points="435.31,-31.24 424.78,-30.12 432.31,-37.56 435.31,-31.24"/>
</a>
</g>
</g>
<!-- Node18 -->
<g id="Node000018" class="node">
<title>Node18</title>
<g id="a_Node000018"><a xlink:title=" ">
<polygon fill="#e0e0e0" stroke="#999999" points="148,-30 0,-30 0,0 148,0 148,-30"/>
<text text-anchor="start" x="8" y="-18" font-family="Helvetica,sans-Serif" font-size="10.00">boost/date_time/posix</text>
<text text-anchor="middle" x="74" y="-7" font-family="Helvetica,sans-Serif" font-size="10.00">_time/time_formatters.hpp</text>
</a>
</g>
</g>
<!-- Node16&#45;&gt;Node18 -->
<g id="edge22_Node000016_Node000018" class="edge">
<title>Node16&#45;&gt;Node18</title>
<g id="a_edge22_Node000016_Node000018"><a xlink:title=" ">
<path fill="none" stroke="#63b8ff" d="M462.86,-71.69C390.3,-62.56 271,-47.09 158.37,-30.18"/>
<polygon fill="#63b8ff" stroke="#63b8ff" points="158.6,-26.67 148.19,-28.64 157.56,-33.59 158.6,-26.67"/>
</a>
</g>
</g>
<!-- Node19 -->
<g id="Node000019" class="node">
<title>Node19</title>
<g id="a_Node000019"><a xlink:title=" ">
<polygon fill="#e0e0e0" stroke="#999999" points="298,-30 166,-30 166,0 298,0 298,-30"/>
<text text-anchor="start" x="174" y="-18" font-family="Helvetica,sans-Serif" font-size="10.00">boost/date_time/posix</text>
<text text-anchor="middle" x="232" y="-7" font-family="Helvetica,sans-Serif" font-size="10.00">_time/time_parsers.hpp</text>
</a>
</g>
</g>
<!-- Node16&#45;&gt;Node19 -->
<g id="edge23_Node000016_Node000019" class="edge">
<title>Node16&#45;&gt;Node19</title>
<g id="a_edge23_Node000016_Node000019"><a xlink:title=" ">
<path fill="none" stroke="#63b8ff" d="M490.12,-71.44C443.49,-61.42 365.31,-44.63 307.18,-32.15"/>
<polygon fill="#63b8ff" stroke="#63b8ff" points="307.82,-28.7 297.3,-30.02 306.35,-35.55 307.82,-28.7"/>
</a>
</g>
</g>
<!-- Node20&#45;&gt;Node6 -->
<g id="edge31_Node000020_Node000006" class="edge">
<title>Node20&#45;&gt;Node6</title>
<g id="a_edge31_Node000020_Node000006"><a xlink:title=" ">
<path fill="none" stroke="#63b8ff" d="M989.81,-199.2C947.58,-189.04 888.31,-174.78 843.04,-163.89"/>
<polygon fill="#63b8ff" stroke="#63b8ff" points="843.85,-160.49 833.31,-161.55 842.22,-167.29 843.85,-160.49"/>
</a>
</g>
</g>
<!-- Node20&#45;&gt;Node7 -->
<g id="edge26_Node000020_Node000007" class="edge">
<title>Node20&#45;&gt;Node7</title>
<g id="a_edge26_Node000020_Node000007"><a xlink:title=" ">
<path fill="none" stroke="#63b8ff" d="M989.89,-204.42C896.92,-191.1 714.26,-164.63 712,-162 705.76,-154.75 700.82,-101.28 713,-66 717.41,-53.22 726.47,-41.08 734.64,-31.97"/>
<polygon fill="#63b8ff" stroke="#63b8ff" points="737.37,-34.18 741.72,-24.52 732.3,-29.35 737.37,-34.18"/>
</a>
</g>
</g>
<!-- Node20&#45;&gt;Node9 -->
<g id="edge28_Node000020_Node000009" class="edge">
<title>Node20&#45;&gt;Node9</title>
<g id="a_edge28_Node000020_Node000009"><a xlink:title=" ">
<path fill="none" stroke="#63b8ff" d="M1095.99,-197.9C1123.7,-189.44 1157.67,-177.33 1186,-162 1205.23,-151.59 1205.55,-142 1225,-132 1274.15,-106.74 1311.07,-140.37 1344,-96 1357.09,-78.36 1354.01,-51.98 1349.74,-34.39"/>
<polygon fill="#63b8ff" stroke="#63b8ff" points="1353.1,-33.43 1347.06,-24.73 1346.36,-35.31 1353.1,-33.43"/>
</a>
</g>
</g>
<!-- Node21 -->
<g id="Node000021" class="node">
<title>Node21</title>
<g id="a_Node000021"><a xlink:title=" ">
<polygon fill="#e0e0e0" stroke="#999999" points="905,-156.5 851,-156.5 851,-137.5 905,-137.5 905,-156.5"/>
<text text-anchor="middle" x="878" y="-144.5" font-family="Helvetica,sans-Serif" font-size="10.00">random</text>
</a>
</g>
</g>
<!-- Node20&#45;&gt;Node21 -->
<g id="edge27_Node000020_Node000021" class="edge">
<title>Node20&#45;&gt;Node21</title>
<g id="a_edge27_Node000020_Node000021"><a xlink:title=" ">
<path fill="none" stroke="#63b8ff" d="M1006.79,-197.95C977.73,-186.68 937.33,-171.01 909.57,-160.25"/>
<polygon fill="#63b8ff" stroke="#63b8ff" points="910.55,-156.87 899.96,-156.52 908.02,-163.4 910.55,-156.87"/>
</a>
</g>
</g>
<!-- Node20&#45;&gt;Node22 -->
<g id="edge29_Node000020_Node000022" class="edge">
<title>Node20&#45;&gt;Node22</title>
<g id="a_edge29_Node000020_Node000022"><a xlink:title=" ">
<path fill="none" stroke="#63b8ff" d="M1096.23,-198.43C1142.19,-186.71 1207.77,-169.99 1250.61,-159.06"/>
<polygon fill="#63b8ff" stroke="#63b8ff" points="1251.62,-162.42 1260.45,-156.55 1249.9,-155.63 1251.62,-162.42"/>
</a>
</g>
</g>
<!-- Node23 -->
<g id="Node000023" class="node">
<title>Node23</title>
<g id="a_Node000023"><a xlink:title=" ">
<polygon fill="#e0e0e0" stroke="#999999" points="1002.5,-156.5 923.5,-156.5 923.5,-137.5 1002.5,-137.5 1002.5,-156.5"/>
<text text-anchor="middle" x="963" y="-144.5" font-family="Helvetica,sans-Serif" font-size="10.00">fmt/format.h</text>
</a>
</g>
</g>
<!-- Node20&#45;&gt;Node23 -->
<g id="edge30_Node000020_Node000023" class="edge">
<title>Node20&#45;&gt;Node23</title>
<g id="a_edge30_Node000020_Node000023"><a xlink:title=" ">
<path fill="none" stroke="#63b8ff" d="M1025.25,-197.8C1012.41,-187.53 995.08,-173.67 981.97,-163.18"/>
<polygon fill="#63b8ff" stroke="#63b8ff" points="984.05,-160.36 974.06,-156.84 979.68,-165.82 984.05,-160.36"/>
</a>
</g>
</g>
<!-- Node24 -->
<g id="Node000024" class="node">
<title>Node24</title>
<g id="a_Node000024"><a xlink:title=" ">
<polygon fill="#e0e0e0" stroke="#999999" points="1177,-156.5 1021,-156.5 1021,-137.5 1177,-137.5 1177,-156.5"/>
<text text-anchor="middle" x="1099" y="-144.5" font-family="Helvetica,sans-Serif" font-size="10.00">internal_use_only/config.hpp</text>
</a>
</g>
</g>
<!-- Node20&#45;&gt;Node24 -->
<g id="edge32_Node000020_Node000024" class="edge">
<title>Node20&#45;&gt;Node24</title>
<g id="a_edge32_Node000020_Node000024"><a xlink:title=" ">
<path fill="none" stroke="#63b8ff" d="M1055.43,-197.8C1064.07,-187.92 1075.62,-174.72 1084.66,-164.39"/>
<polygon fill="#63b8ff" stroke="#63b8ff" points="1087.31,-166.67 1091.26,-156.84 1082.04,-162.07 1087.31,-166.67"/>
</a>
</g>
</g>
</g>
</svg>
