<?xml version="1.0" encoding="UTF-8" standalone="no"?>
<!DOCTYPE svg PUBLIC "-//W3C//DTD SVG 1.1//EN"
 "http://www.w3.org/Graphics/SVG/1.1/DTD/svg11.dtd">
<!-- Generated by graphviz version 2.43.0 (0)
 -->
<!-- Title: include/Clock/misc_lib/date_time.hpp Pages: 1 -->
<svg width="631pt" height="291pt"
 viewBox="0.00 0.00 631.21 291.00" xmlns="http://www.w3.org/2000/svg" xmlns:xlink="http://www.w3.org/1999/xlink">
<g id="graph0" class="graph" transform="scale(1 1) rotate(0) translate(4 287)">
<title>include/Clock/misc_lib/date_time.hpp</title>
<!-- Node1 -->
<g id="Node000001" class="node">
<title>Node1</title>
<g id="a_Node000001"><a xlink:title="DateTime data structure and utilities.">
<polygon fill="#999999" stroke="#666666" points="400.71,-283 292.71,-283 292.71,-253 400.71,-253 400.71,-283"/>
<text text-anchor="start" x="300.71" y="-271" font-family="Helvetica,sans-Serif" font-size="10.00">include/Clock/misc</text>
<text text-anchor="middle" x="346.71" y="-260" font-family="Helvetica,sans-Serif" font-size="10.00">_lib/date_time.hpp</text>
</a>
</g>
</g>
<!-- Node2 -->
<g id="Node000002" class="node">
<title>Node2</title>
<g id="a_Node000002"><a xlink:href="run__record_8hpp.html" target="_top" xlink:title="Run record structure and utilities.">
<polygon fill="white" stroke="#666666" points="246.71,-217 136.71,-217 136.71,-187 246.71,-187 246.71,-217"/>
<text text-anchor="start" x="144.71" y="-205" font-family="Helvetica,sans-Serif" font-size="10.00">include/Clock/misc</text>
<text text-anchor="middle" x="191.71" y="-194" font-family="Helvetica,sans-Serif" font-size="10.00">_lib/run_record.hpp</text>
</a>
</g>
</g>
<!-- Node1&#45;&gt;Node2 -->
<g id="edge1_Node000001_Node000002" class="edge">
<title>Node1&#45;&gt;Node2</title>
<g id="a_edge1_Node000001_Node000002"><a xlink:title=" ">
<path fill="none" stroke="#63b8ff" d="M303.24,-249.05C278.69,-238.91 248.44,-226.43 225.64,-217.01"/>
<polygon fill="#63b8ff" stroke="#63b8ff" points="302.11,-252.37 312.69,-252.95 304.78,-245.9 302.11,-252.37"/>
</a>
</g>
</g>
<!-- Node3 -->
<g id="Node000003" class="node">
<title>Node3</title>
<g id="a_Node000003"><a xlink:href="config_8hpp.html" target="_top" xlink:title="Configuration structure for the Si3 simulation.">
<polygon fill="white" stroke="#666666" points="341.71,-151 219.71,-151 219.71,-121 341.71,-121 341.71,-151"/>
<text text-anchor="start" x="227.71" y="-139" font-family="Helvetica,sans-Serif" font-size="10.00">include/Clock/si3_sim</text>
<text text-anchor="middle" x="280.71" y="-128" font-family="Helvetica,sans-Serif" font-size="10.00">/config.hpp</text>
</a>
</g>
</g>
<!-- Node1&#45;&gt;Node3 -->
<g id="edge12_Node000001_Node000003" class="edge">
<title>Node1&#45;&gt;Node3</title>
<g id="a_edge12_Node000001_Node000003"><a xlink:title=" ">
<path fill="none" stroke="#63b8ff" d="M334.9,-243.75C321.24,-216.84 299.19,-173.4 287.89,-151.14"/>
<polygon fill="#63b8ff" stroke="#63b8ff" points="331.87,-245.51 339.52,-252.84 338.11,-242.34 331.87,-245.51"/>
</a>
</g>
</g>
<!-- Node4 -->
<g id="Node000004" class="node">
<title>Node4</title>
<g id="a_Node000004"><a xlink:href="si3__sim_8hpp.html" target="_top" xlink:title="Header file for the Si3Sim class.">
<polygon fill="white" stroke="#666666" points="163.71,-85 41.71,-85 41.71,-55 163.71,-55 163.71,-85"/>
<text text-anchor="start" x="49.71" y="-73" font-family="Helvetica,sans-Serif" font-size="10.00">include/Clock/si3_sim</text>
<text text-anchor="middle" x="102.71" y="-62" font-family="Helvetica,sans-Serif" font-size="10.00">/si3_sim.hpp</text>
</a>
</g>
</g>
<!-- Node1&#45;&gt;Node4 -->
<g id="edge13_Node000001_Node000004" class="edge">
<title>Node1&#45;&gt;Node4</title>
<g id="a_edge13_Node000001_Node000004"><a xlink:title=" ">
<path fill="none" stroke="#63b8ff" d="M282.34,-257.05C237.98,-249.06 178.16,-236 127.71,-217 70.02,-195.27 37.27,-203.96 5.71,-151 -1.12,-139.55 -1.23,-132.38 5.71,-121 16.01,-104.09 34.07,-92.66 51.83,-85.05"/>
<polygon fill="#63b8ff" stroke="#63b8ff" points="281.96,-260.54 292.41,-258.83 283.17,-253.65 281.96,-260.54"/>
</a>
</g>
</g>
<!-- Node6 -->
<g id="Node000006" class="node">
<title>Node6</title>
<g id="a_Node000006"><a xlink:href="si3__sim_8cpp.html" target="_top" xlink:title="Implementation of the Si3Sim class.">
<polygon fill="white" stroke="#666666" points="322.71,-19 190.71,-19 190.71,0 322.71,0 322.71,-19"/>
<text text-anchor="middle" x="256.71" y="-7" font-family="Helvetica,sans-Serif" font-size="10.00">src/si3_sim/si3_sim.cpp</text>
</a>
</g>
</g>
<!-- Node1&#45;&gt;Node6 -->
<g id="edge16_Node000001_Node000006" class="edge">
<title>Node1&#45;&gt;Node6</title>
<g id="a_edge16_Node000001_Node000006"><a xlink:title=" ">
<path fill="none" stroke="#63b8ff" d="M367.83,-245.53C405.3,-204.82 475.25,-115.12 428.71,-55 415.44,-37.87 364.93,-26.14 322.05,-19.04"/>
<polygon fill="#63b8ff" stroke="#63b8ff" points="365.11,-243.31 360.82,-252.99 370.22,-248.1 365.11,-243.31"/>
</a>
</g>
</g>
<!-- Node7 -->
<g id="Node000007" class="node">
<title>Node7</title>
<g id="a_Node000007"><a xlink:href="config_8cpp.html" target="_top" xlink:title="Implementation of configuration utilities.">
<polygon fill="white" stroke="#666666" points="419.71,-79.5 295.71,-79.5 295.71,-60.5 419.71,-60.5 419.71,-79.5"/>
<text text-anchor="middle" x="357.71" y="-67.5" font-family="Helvetica,sans-Serif" font-size="10.00">src/si3_sim/config.cpp</text>
</a>
</g>
</g>
<!-- Node1&#45;&gt;Node7 -->
<g id="edge15_Node000001_Node000007" class="edge">
<title>Node1&#45;&gt;Node7</title>
<g id="a_edge15_Node000001_Node000007"><a xlink:title=" ">
<path fill="none" stroke="#63b8ff" d="M348.06,-242.83C350.53,-198.97 355.62,-108.18 357.22,-79.73"/>
<polygon fill="#63b8ff" stroke="#63b8ff" points="344.56,-242.72 347.5,-252.9 351.55,-243.12 344.56,-242.72"/>
</a>
</g>
</g>
<!-- Node9 -->
<g id="Node000009" class="node">
<title>Node9</title>
<g id="a_Node000009"><a xlink:href="date__time_8cpp.html" target="_top" xlink:title="Implementation of date and time utilities.">
<polygon fill="white" stroke="#666666" points="623.21,-211.5 476.21,-211.5 476.21,-192.5 623.21,-192.5 623.21,-211.5"/>
<text text-anchor="middle" x="549.71" y="-199.5" font-family="Helvetica,sans-Serif" font-size="10.00">src/misc_lib/date_time.cpp</text>
</a>
</g>
</g>
<!-- Node1&#45;&gt;Node9 -->
<g id="edge14_Node000001_Node000009" class="edge">
<title>Node1&#45;&gt;Node9</title>
<g id="a_edge14_Node000001_Node000009"><a xlink:title=" ">
<path fill="none" stroke="#63b8ff" d="M400.97,-249.89C440.28,-237.5 491.75,-221.27 522.69,-211.52"/>
<polygon fill="#63b8ff" stroke="#63b8ff" points="399.74,-246.61 391.26,-252.95 401.85,-253.29 399.74,-246.61"/>
</a>
</g>
</g>
<!-- Node2&#45;&gt;Node3 -->
<g id="edge2_Node000002_Node000003" class="edge">
<title>Node2&#45;&gt;Node3</title>
<g id="a_edge2_Node000002_Node000003"><a xlink:title=" ">
<path fill="none" stroke="#63b8ff" d="M219.86,-180.75C233.25,-171.13 248.92,-159.86 261.01,-151.16"/>
<polygon fill="#63b8ff" stroke="#63b8ff" points="217.53,-178.12 211.46,-186.8 221.62,-183.8 217.53,-178.12"/>
</a>
</g>
</g>
<!-- Node5 -->
<g id="Node000005" class="node">
<title>Node5</title>
<g id="a_Node000005"><a xlink:href="main_8cpp.html" target="_top" xlink:title="Main entry point for the Si3 simulation tool.">
<polygon fill="white" stroke="#666666" points="162.21,-19 43.21,-19 43.21,0 162.21,0 162.21,-19"/>
<text text-anchor="middle" x="102.71" y="-7" font-family="Helvetica,sans-Serif" font-size="10.00">src/si3_sim/main.cpp</text>
</a>
</g>
</g>
<!-- Node2&#45;&gt;Node5 -->
<g id="edge10_Node000002_Node000005" class="edge">
<title>Node2&#45;&gt;Node5</title>
<g id="a_edge10_Node000002_Node000005"><a xlink:title=" ">
<path fill="none" stroke="#63b8ff" d="M126.53,-191.99C79.05,-183.93 20.57,-170.39 5.71,-151 -14.34,-124.85 26.1,-62.91 32.71,-55 46.29,-38.76 67.35,-26.5 82.83,-19"/>
<polygon fill="#63b8ff" stroke="#63b8ff" points="126.03,-195.45 136.47,-193.62 127.17,-188.55 126.03,-195.45"/>
</a>
</g>
</g>
<!-- Node2&#45;&gt;Node6 -->
<g id="edge11_Node000002_Node000006" class="edge">
<title>Node2&#45;&gt;Node6</title>
<g id="a_edge11_Node000002_Node000006"><a xlink:title=" ">
<path fill="none" stroke="#63b8ff" d="M196.39,-176.81C199.75,-160.79 204.73,-139.42 210.71,-121 223.34,-82.06 243.77,-37.62 252.52,-19.2"/>
<polygon fill="#63b8ff" stroke="#63b8ff" points="192.89,-176.44 194.33,-186.94 199.75,-177.83 192.89,-176.44"/>
</a>
</g>
</g>
<!-- Node8 -->
<g id="Node000008" class="node">
<title>Node8</title>
<g id="a_Node000008"><a xlink:href="run__record_8cpp.html" target="_top" xlink:title="Implementation of run record utilities.">
<polygon fill="white" stroke="#666666" points="164.21,-145.5 15.21,-145.5 15.21,-126.5 164.21,-126.5 164.21,-145.5"/>
<text text-anchor="middle" x="89.71" y="-133.5" font-family="Helvetica,sans-Serif" font-size="10.00">src/misc_lib/run_record.cpp</text>
</a>
</g>
</g>
<!-- Node2&#45;&gt;Node8 -->
<g id="edge9_Node000002_Node000008" class="edge">
<title>Node2&#45;&gt;Node8</title>
<g id="a_edge9_Node000002_Node000008"><a xlink:title=" ">
<path fill="none" stroke="#63b8ff" d="M160.61,-181.49C141.45,-169.46 117.84,-154.65 103.28,-145.52"/>
<polygon fill="#63b8ff" stroke="#63b8ff" points="158.99,-184.6 169.32,-186.95 162.71,-178.68 158.99,-184.6"/>
</a>
</g>
</g>
<!-- Node3&#45;&gt;Node4 -->
<g id="edge3_Node000003_Node000004" class="edge">
<title>Node3&#45;&gt;Node4</title>
<g id="a_edge3_Node000003_Node000004"><a xlink:title=" ">
<path fill="none" stroke="#63b8ff" d="M231.91,-117.46C203.52,-107.25 168.21,-94.55 141.68,-85.01"/>
<polygon fill="#63b8ff" stroke="#63b8ff" points="231.05,-120.86 241.64,-120.95 233.42,-114.28 231.05,-120.86"/>
</a>
</g>
</g>
<!-- Node3&#45;&gt;Node5 -->
<g id="edge7_Node000003_Node000005" class="edge">
<title>Node3&#45;&gt;Node5</title>
<g id="a_edge7_Node000003_Node000005"><a xlink:title=" ">
<path fill="none" stroke="#63b8ff" d="M254.21,-114.55C232.58,-98.05 201.06,-74.48 172.71,-55 153.72,-41.95 131.12,-27.83 116.84,-19.08"/>
<polygon fill="#63b8ff" stroke="#63b8ff" points="252.2,-117.42 262.27,-120.72 256.45,-111.86 252.2,-117.42"/>
</a>
</g>
</g>
<!-- Node3&#45;&gt;Node6 -->
<g id="edge8_Node000003_Node000006" class="edge">
<title>Node3&#45;&gt;Node6</title>
<g id="a_edge8_Node000003_Node000006"><a xlink:title=" ">
<path fill="none" stroke="#63b8ff" d="M276.05,-110.86C270.63,-82.74 261.96,-37.75 258.36,-19.07"/>
<polygon fill="#63b8ff" stroke="#63b8ff" points="272.62,-111.56 277.95,-120.72 279.5,-110.24 272.62,-111.56"/>
</a>
</g>
</g>
<!-- Node3&#45;&gt;Node7 -->
<g id="edge6_Node000003_Node000007" class="edge">
<title>Node3&#45;&gt;Node7</title>
<g id="a_edge6_Node000003_Node000007"><a xlink:title=" ">
<path fill="none" stroke="#63b8ff" d="M305.66,-114.26C319.67,-102.61 336.43,-88.69 347.07,-79.84"/>
<polygon fill="#63b8ff" stroke="#63b8ff" points="303.25,-111.71 297.8,-120.8 307.72,-117.1 303.25,-111.71"/>
</a>
</g>
</g>
<!-- Node4&#45;&gt;Node5 -->
<g id="edge4_Node000004_Node000005" class="edge">
<title>Node4&#45;&gt;Node5</title>
<g id="a_edge4_Node000004_Node000005"><a xlink:title=" ">
<path fill="none" stroke="#63b8ff" d="M102.71,-44.75C102.71,-35.72 102.71,-26.03 102.71,-19.27"/>
<polygon fill="#63b8ff" stroke="#63b8ff" points="99.21,-44.84 102.71,-54.84 106.21,-44.84 99.21,-44.84"/>
</a>
</g>
</g>
<!-- Node4&#45;&gt;Node6 -->
<g id="edge5_Node000004_Node000006" class="edge">
<title>Node4&#45;&gt;Node6</title>
<g id="a_edge5_Node000004_Node000006"><a xlink:title=" ">
<path fill="none" stroke="#63b8ff" d="M149.22,-51.33C177.26,-40.68 211.74,-27.58 233.96,-19.14"/>
<polygon fill="#63b8ff" stroke="#63b8ff" points="147.7,-48.16 139.59,-54.99 150.19,-54.71 147.7,-48.16"/>
</a>
</g>
</g>
</g>
</svg>
