<?xml version="1.0" encoding="UTF-8" standalone="no"?>
<!DOCTYPE svg PUBLIC "-//W3C//DTD SVG 1.1//EN"
 "http://www.w3.org/Graphics/SVG/1.1/DTD/svg11.dtd">
<!-- Generated by graphviz version 2.43.0 (0)
 -->
<!-- Title: include/Clock/misc_lib/date_time.hpp Pages: 1 -->
<svg width="1253pt" height="170pt"
 viewBox="0.00 0.00 1253.00 170.00" xmlns="http://www.w3.org/2000/svg" xmlns:xlink="http://www.w3.org/1999/xlink">
<g id="graph0" class="graph" transform="scale(1 1) rotate(0) translate(4 166)">
<title>include/Clock/misc_lib/date_time.hpp</title>
<!-- Node1 -->
<g id="Node000001" class="node">
<title>Node1</title>
<g id="a_Node000001"><a xlink:title="DateTime data structure and utilities.">
<polygon fill="#999999" stroke="#666666" points="628,-162 520,-162 520,-132 628,-132 628,-162"/>
<text text-anchor="start" x="528" y="-150" font-family="Helvetica,sans-Serif" font-size="10.00">include/Clock/misc</text>
<text text-anchor="middle" x="574" y="-139" font-family="Helvetica,sans-Serif" font-size="10.00">_lib/date_time.hpp</text>
</a>
</g>
</g>
<!-- Node2 -->
<g id="Node000002" class="node">
<title>Node2</title>
<g id="a_Node000002"><a xlink:title=" ">
<polygon fill="#e0e0e0" stroke="#999999" points="504.5,-24.5 359.5,-24.5 359.5,-5.5 504.5,-5.5 504.5,-24.5"/>
<text text-anchor="middle" x="432" y="-12.5" font-family="Helvetica,sans-Serif" font-size="10.00">Clock/misc_lib_export.hpp</text>
</a>
</g>
</g>
<!-- Node1&#45;&gt;Node2 -->
<g id="edge1_Node000001_Node000002" class="edge">
<title>Node1&#45;&gt;Node2</title>
<g id="a_edge1_Node000001_Node000002"><a xlink:title=" ">
<path fill="none" stroke="#63b8ff" d="M558.53,-131.84C531.71,-107.28 476.77,-56.99 448.95,-31.52"/>
<polygon fill="#63b8ff" stroke="#63b8ff" points="451.29,-28.92 441.56,-24.75 446.57,-34.08 451.29,-28.92"/>
</a>
</g>
</g>
<!-- Node3 -->
<g id="Node000003" class="node">
<title>Node3</title>
<g id="a_Node000003"><a xlink:title=" ">
<polygon fill="#e0e0e0" stroke="#999999" points="814,-90.5 754,-90.5 754,-71.5 814,-71.5 814,-90.5"/>
<text text-anchor="middle" x="784" y="-78.5" font-family="Helvetica,sans-Serif" font-size="10.00">iostream</text>
</a>
</g>
</g>
<!-- Node1&#45;&gt;Node3 -->
<g id="edge2_Node000001_Node000003" class="edge">
<title>Node1&#45;&gt;Node3</title>
<g id="a_edge2_Node000001_Node000003"><a xlink:title=" ">
<path fill="none" stroke="#63b8ff" d="M625.13,-131.92C659.24,-122.31 705,-109.01 745,-96 747.11,-95.31 749.28,-94.59 751.47,-93.84"/>
<polygon fill="#63b8ff" stroke="#63b8ff" points="752.69,-97.12 760.98,-90.52 750.39,-90.51 752.69,-97.12"/>
</a>
</g>
</g>
<!-- Node4 -->
<g id="Node000004" class="node">
<title>Node4</title>
<g id="a_Node000004"><a xlink:title=" ">
<polygon fill="#e0e0e0" stroke="#999999" points="567,-24.5 523,-24.5 523,-5.5 567,-5.5 567,-24.5"/>
<text text-anchor="middle" x="545" y="-12.5" font-family="Helvetica,sans-Serif" font-size="10.00">string</text>
</a>
</g>
</g>
<!-- Node1&#45;&gt;Node4 -->
<g id="edge3_Node000001_Node000004" class="edge">
<title>Node1&#45;&gt;Node4</title>
<g id="a_edge3_Node000001_Node000004"><a xlink:title=" ">
<path fill="none" stroke="#63b8ff" d="M569.62,-131.65C566.67,-121.7 562.83,-108.11 560,-96 555.15,-75.2 550.8,-51.08 548.05,-34.81"/>
<polygon fill="#63b8ff" stroke="#63b8ff" points="551.5,-34.23 546.41,-24.93 544.59,-35.37 551.5,-34.23"/>
</a>
</g>
</g>
<!-- Node5 -->
<g id="Node000005" class="node">
<title>Node5</title>
<g id="a_Node000005"><a xlink:title=" ">
<polygon fill="#e0e0e0" stroke="#999999" points="341.5,-24.5 268.5,-24.5 268.5,-5.5 341.5,-5.5 341.5,-24.5"/>
<text text-anchor="middle" x="305" y="-12.5" font-family="Helvetica,sans-Serif" font-size="10.00">string_view</text>
</a>
</g>
</g>
<!-- Node1&#45;&gt;Node5 -->
<g id="edge4_Node000001_Node000005" class="edge">
<title>Node1&#45;&gt;Node5</title>
<g id="a_edge4_Node000001_Node000005"><a xlink:title=" ">
<path fill="none" stroke="#63b8ff" d="M544.96,-131.96C492.5,-106.61 382.7,-53.55 331.87,-28.99"/>
<polygon fill="#63b8ff" stroke="#63b8ff" points="333.34,-25.81 322.81,-24.61 330.29,-32.11 333.34,-25.81"/>
</a>
</g>
</g>
<!-- Node6 -->
<g id="Node000006" class="node">
<title>Node6</title>
<g id="a_Node000006"><a xlink:title=" ">
<polygon fill="#e0e0e0" stroke="#999999" points="753,-30 585,-30 585,0 753,0 753,-30"/>
<text text-anchor="start" x="593" y="-18" font-family="Helvetica,sans-Serif" font-size="10.00">boost/date_time/posix</text>
<text text-anchor="middle" x="669" y="-7" font-family="Helvetica,sans-Serif" font-size="10.00">_time/posix_time_duration.hpp</text>
</a>
</g>
</g>
<!-- Node1&#45;&gt;Node6 -->
<g id="edge5_Node000001_Node000006" class="edge">
<title>Node1&#45;&gt;Node6</title>
<g id="a_edge5_Node000001_Node000006"><a xlink:title=" ">
<path fill="none" stroke="#63b8ff" d="M574.28,-131.71C575.27,-114.63 579.08,-85.88 593,-66 601.83,-53.39 614.96,-43.13 627.83,-35.26"/>
<polygon fill="#63b8ff" stroke="#63b8ff" points="629.72,-38.21 636.65,-30.2 626.23,-32.15 629.72,-38.21"/>
</a>
</g>
</g>
<!-- Node7 -->
<g id="Node000007" class="node">
<title>Node7</title>
<g id="a_Node000007"><a xlink:title=" ">
<polygon fill="#e0e0e0" stroke="#999999" points="987.5,-96 832.5,-96 832.5,-66 987.5,-66 987.5,-96"/>
<text text-anchor="start" x="840.5" y="-84" font-family="Helvetica,sans-Serif" font-size="10.00">boost/date_time/posix</text>
<text text-anchor="middle" x="910" y="-73" font-family="Helvetica,sans-Serif" font-size="10.00">_time/posix_time_types.hpp</text>
</a>
</g>
</g>
<!-- Node1&#45;&gt;Node7 -->
<g id="edge6_Node000001_Node000007" class="edge">
<title>Node1&#45;&gt;Node7</title>
<g id="a_edge6_Node000001_Node000007"><a xlink:title=" ">
<path fill="none" stroke="#63b8ff" d="M628.36,-135.65C681.84,-125.46 764.26,-109.76 826.14,-97.97"/>
<polygon fill="#63b8ff" stroke="#63b8ff" points="827.11,-101.35 836.28,-96.04 825.8,-94.48 827.11,-101.35"/>
</a>
</g>
</g>
<!-- Node8 -->
<g id="Node000008" class="node">
<title>Node8</title>
<g id="a_Node000008"><a xlink:title=" ">
<polygon fill="#e0e0e0" stroke="#999999" points="1130.5,-96 1005.5,-96 1005.5,-66 1130.5,-66 1130.5,-96"/>
<text text-anchor="start" x="1013.5" y="-84" font-family="Helvetica,sans-Serif" font-size="10.00">boost/date_time/posix</text>
<text text-anchor="middle" x="1068" y="-73" font-family="Helvetica,sans-Serif" font-size="10.00">_time/ptime.hpp</text>
</a>
</g>
</g>
<!-- Node1&#45;&gt;Node8 -->
<g id="edge7_Node000001_Node000008" class="edge">
<title>Node1&#45;&gt;Node8</title>
<g id="a_edge7_Node000001_Node000008"><a xlink:title=" ">
<path fill="none" stroke="#63b8ff" d="M628.27,-140.94C707.05,-133.29 857.87,-117.52 995.45,-96.18"/>
<polygon fill="#63b8ff" stroke="#63b8ff" points="995.99,-99.63 1005.33,-94.63 994.91,-92.72 995.99,-99.63"/>
</a>
</g>
</g>
<!-- Node9 -->
<g id="Node000009" class="node">
<title>Node9</title>
<g id="a_Node000009"><a xlink:href="quad_8hpp.html" target="_top" xlink:title="Quad precision floating&#45;point type and utilities.">
<polygon fill="white" stroke="#666666" points="372.5,-90.5 237.5,-90.5 237.5,-71.5 372.5,-71.5 372.5,-90.5"/>
<text text-anchor="middle" x="305" y="-78.5" font-family="Helvetica,sans-Serif" font-size="10.00">Clock/misc_lib/quad.hpp</text>
</a>
</g>
</g>
<!-- Node1&#45;&gt;Node9 -->
<g id="edge8_Node000001_Node000009" class="edge">
<title>Node1&#45;&gt;Node9</title>
<g id="a_edge8_Node000001_Node000009"><a xlink:title=" ">
<path fill="none" stroke="#63b8ff" d="M519.89,-133.13C470.29,-121.33 397.65,-104.04 350.85,-92.91"/>
<polygon fill="#63b8ff" stroke="#63b8ff" points="351.52,-89.47 340.98,-90.56 349.9,-96.28 351.52,-89.47"/>
</a>
</g>
</g>
<!-- Node12 -->
<g id="Node000012" class="node">
<title>Node12</title>
<g id="a_Node000012"><a xlink:href="time_8hpp.html" target="_top" xlink:title="Time data structure and utilities.">
<polygon fill="white" stroke="#666666" points="736,-90.5 602,-90.5 602,-71.5 736,-71.5 736,-90.5"/>
<text text-anchor="middle" x="669" y="-78.5" font-family="Helvetica,sans-Serif" font-size="10.00">Clock/misc_lib/time.hpp</text>
</a>
</g>
</g>
<!-- Node1&#45;&gt;Node12 -->
<g id="edge13_Node000001_Node000012" class="edge">
<title>Node1&#45;&gt;Node12</title>
<g id="a_edge13_Node000001_Node000012"><a xlink:title=" ">
<path fill="none" stroke="#63b8ff" d="M595.08,-131.8C610.71,-121.27 631.93,-106.97 647.63,-96.4"/>
<polygon fill="#63b8ff" stroke="#63b8ff" points="649.81,-99.15 656.15,-90.66 645.9,-93.34 649.81,-99.15"/>
</a>
</g>
</g>
<!-- Node9&#45;&gt;Node2 -->
<g id="edge9_Node000009_Node000002" class="edge">
<title>Node9&#45;&gt;Node2</title>
<g id="a_edge9_Node000009_Node000002"><a xlink:title=" ">
<path fill="none" stroke="#63b8ff" d="M322.13,-71.37C343.62,-60.54 380.7,-41.85 405.77,-29.22"/>
<polygon fill="#63b8ff" stroke="#63b8ff" points="407.38,-32.32 414.74,-24.7 404.23,-26.07 407.38,-32.32"/>
</a>
</g>
</g>
<!-- Node9&#45;&gt;Node5 -->
<g id="edge10_Node000009_Node000005" class="edge">
<title>Node9&#45;&gt;Node5</title>
<g id="a_edge10_Node000009_Node000005"><a xlink:title=" ">
<path fill="none" stroke="#63b8ff" d="M305,-71.37C305,-62.16 305,-47.29 305,-35.27"/>
<polygon fill="#63b8ff" stroke="#63b8ff" points="308.5,-34.91 305,-24.91 301.5,-34.91 308.5,-34.91"/>
</a>
</g>
</g>
<!-- Node10 -->
<g id="Node000010" class="node">
<title>Node10</title>
<g id="a_Node000010"><a xlink:title=" ">
<polygon fill="#e0e0e0" stroke="#999999" points="116,-30 0,-30 0,0 116,0 116,-30"/>
<text text-anchor="start" x="8" y="-18" font-family="Helvetica,sans-Serif" font-size="10.00">boost/multiprecision</text>
<text text-anchor="middle" x="58" y="-7" font-family="Helvetica,sans-Serif" font-size="10.00">/cpp_bin_float.hpp</text>
</a>
</g>
</g>
<!-- Node9&#45;&gt;Node10 -->
<g id="edge11_Node000009_Node000010" class="edge">
<title>Node9&#45;&gt;Node10</title>
<g id="a_edge11_Node000009_Node000010"><a xlink:title=" ">
<path fill="none" stroke="#63b8ff" d="M271.94,-71.44C233.7,-61.52 169.83,-44.98 121.81,-32.53"/>
<polygon fill="#63b8ff" stroke="#63b8ff" points="122.69,-29.15 112.13,-30.02 120.93,-35.92 122.69,-29.15"/>
</a>
</g>
</g>
<!-- Node11 -->
<g id="Node000011" class="node">
<title>Node11</title>
<g id="a_Node000011"><a xlink:title=" ">
<polygon fill="#e0e0e0" stroke="#999999" points="250,-30 134,-30 134,0 250,0 250,-30"/>
<text text-anchor="start" x="142" y="-18" font-family="Helvetica,sans-Serif" font-size="10.00">boost/multiprecision</text>
<text text-anchor="middle" x="192" y="-7" font-family="Helvetica,sans-Serif" font-size="10.00">/fwd.hpp</text>
</a>
</g>
</g>
<!-- Node9&#45;&gt;Node11 -->
<g id="edge12_Node000009_Node000011" class="edge">
<title>Node9&#45;&gt;Node11</title>
<g id="a_edge12_Node000009_Node000011"><a xlink:title=" ">
<path fill="none" stroke="#63b8ff" d="M289.76,-71.37C273.42,-62.11 246.95,-47.12 225.68,-35.07"/>
<polygon fill="#63b8ff" stroke="#63b8ff" points="227.35,-32 216.92,-30.12 223.9,-38.09 227.35,-32"/>
</a>
</g>
</g>
<!-- Node12&#45;&gt;Node2 -->
<g id="edge14_Node000012_Node000002" class="edge">
<title>Node12&#45;&gt;Node2</title>
<g id="a_edge14_Node000012_Node000002"><a xlink:title=" ">
<path fill="none" stroke="#63b8ff" d="M637.04,-71.37C594.78,-59.96 520.24,-39.83 473.62,-27.24"/>
<polygon fill="#63b8ff" stroke="#63b8ff" points="474.4,-23.82 463.83,-24.6 472.58,-30.58 474.4,-23.82"/>
</a>
</g>
</g>
<!-- Node12&#45;&gt;Node4 -->
<g id="edge15_Node000012_Node000004" class="edge">
<title>Node12&#45;&gt;Node4</title>
<g id="a_edge15_Node000012_Node000004"><a xlink:title=" ">
<path fill="none" stroke="#63b8ff" d="M652.28,-71.37C631.38,-60.59 595.41,-42.02 570.93,-29.38"/>
<polygon fill="#63b8ff" stroke="#63b8ff" points="572.35,-26.18 561.85,-24.7 569.14,-32.4 572.35,-26.18"/>
</a>
</g>
</g>
<!-- Node12&#45;&gt;Node6 -->
<g id="edge17_Node000012_Node000006" class="edge">
<title>Node12&#45;&gt;Node6</title>
<g id="a_edge17_Node000012_Node000006"><a xlink:title=" ">
<path fill="none" stroke="#63b8ff" d="M669,-71.37C669,-63.49 669,-51.45 669,-40.6"/>
<polygon fill="#63b8ff" stroke="#63b8ff" points="672.5,-40.36 669,-30.36 665.5,-40.36 672.5,-40.36"/>
</a>
</g>
</g>
<!-- Node13 -->
<g id="Node000013" class="node">
<title>Node13</title>
<g id="a_Node000013"><a xlink:title=" ">
<polygon fill="#e0e0e0" stroke="#999999" points="928.5,-30 771.5,-30 771.5,0 928.5,0 928.5,-30"/>
<text text-anchor="start" x="779.5" y="-18" font-family="Helvetica,sans-Serif" font-size="10.00">boost/date_time/posix</text>
<text text-anchor="middle" x="850" y="-7" font-family="Helvetica,sans-Serif" font-size="10.00">_time/posix_time_config.hpp</text>
</a>
</g>
</g>
<!-- Node12&#45;&gt;Node13 -->
<g id="edge16_Node000012_Node000013" class="edge">
<title>Node12&#45;&gt;Node13</title>
<g id="a_edge16_Node000012_Node000013"><a xlink:title=" ">
<path fill="none" stroke="#63b8ff" d="M693.41,-71.37C720.75,-61.7 765.79,-45.77 800.57,-33.48"/>
<polygon fill="#63b8ff" stroke="#63b8ff" points="801.82,-36.75 810.08,-30.12 799.48,-30.15 801.82,-36.75"/>
</a>
</g>
</g>
<!-- Node14 -->
<g id="Node000014" class="node">
<title>Node14</title>
<g id="a_Node000014"><a xlink:title=" ">
<polygon fill="#e0e0e0" stroke="#999999" points="1095,-30 947,-30 947,0 1095,0 1095,-30"/>
<text text-anchor="start" x="955" y="-18" font-family="Helvetica,sans-Serif" font-size="10.00">boost/date_time/posix</text>
<text text-anchor="middle" x="1021" y="-7" font-family="Helvetica,sans-Serif" font-size="10.00">_time/time_formatters.hpp</text>
</a>
</g>
</g>
<!-- Node12&#45;&gt;Node14 -->
<g id="edge18_Node000012_Node000014" class="edge">
<title>Node12&#45;&gt;Node14</title>
<g id="a_edge18_Node000012_Node000014"><a xlink:title=" ">
<path fill="none" stroke="#63b8ff" d="M715.22,-71.46C725.05,-69.65 735.37,-67.76 745,-66 809.38,-54.24 882.22,-41.05 936.9,-31.17"/>
<polygon fill="#63b8ff" stroke="#63b8ff" points="937.68,-34.59 946.9,-29.36 936.43,-27.7 937.68,-34.59"/>
</a>
</g>
</g>
<!-- Node15 -->
<g id="Node000015" class="node">
<title>Node15</title>
<g id="a_Node000015"><a xlink:title=" ">
<polygon fill="#e0e0e0" stroke="#999999" points="1245,-30 1113,-30 1113,0 1245,0 1245,-30"/>
<text text-anchor="start" x="1121" y="-18" font-family="Helvetica,sans-Serif" font-size="10.00">boost/date_time/posix</text>
<text text-anchor="middle" x="1179" y="-7" font-family="Helvetica,sans-Serif" font-size="10.00">_time/time_parsers.hpp</text>
</a>
</g>
</g>
<!-- Node12&#45;&gt;Node15 -->
<g id="edge19_Node000012_Node000015" class="edge">
<title>Node12&#45;&gt;Node15</title>
<g id="a_edge19_Node000012_Node000015"><a xlink:title=" ">
<path fill="none" stroke="#63b8ff" d="M711.91,-71.46C722.68,-69.49 734.24,-67.53 745,-66 900.51,-43.92 943.51,-52.37 1102.65,-30.11"/>
<polygon fill="#63b8ff" stroke="#63b8ff" points="1103.39,-33.54 1112.8,-28.67 1102.4,-26.61 1103.39,-33.54"/>
</a>
</g>
</g>
</g>
</svg>
