<?xml version="1.0" encoding="UTF-8" standalone="no"?>
<!DOCTYPE svg PUBLIC "-//W3C//DTD SVG 1.1//EN"
 "http://www.w3.org/Graphics/SVG/1.1/DTD/svg11.dtd">
<!-- Generated by graphviz version 2.43.0 (0)
 -->
<!-- Title: src/misc_lib/date_time.cpp Pages: 1 -->
<svg width="1521pt" height="225pt"
 viewBox="0.00 0.00 1520.50 225.00" xmlns="http://www.w3.org/2000/svg" xmlns:xlink="http://www.w3.org/1999/xlink">
<g id="graph0" class="graph" transform="scale(1 1) rotate(0) translate(4 221)">
<title>src/misc_lib/date_time.cpp</title>
<!-- Node1 -->
<g id="Node000001" class="node">
<title>Node1</title>
<g id="a_Node000001"><a xlink:title="Implementation of date and time utilities.">
<polygon fill="#999999" stroke="#666666" points="1117.5,-217 970.5,-217 970.5,-198 1117.5,-198 1117.5,-217"/>
<text text-anchor="middle" x="1044" y="-205" font-family="Helvetica,sans-Serif" font-size="10.00">src/misc_lib/date_time.cpp</text>
</a>
</g>
</g>
<!-- Node2 -->
<g id="Node000002" class="node">
<title>Node2</title>
<g id="a_Node000002"><a xlink:href="date__time_8hpp.html" target="_top" xlink:title="DateTime data structure and utilities.">
<polygon fill="white" stroke="#666666" points="603,-162 491,-162 491,-132 603,-132 603,-162"/>
<text text-anchor="start" x="499" y="-150" font-family="Helvetica,sans-Serif" font-size="10.00">Clock/misc_lib/date</text>
<text text-anchor="middle" x="547" y="-139" font-family="Helvetica,sans-Serif" font-size="10.00">_time.hpp</text>
</a>
</g>
</g>
<!-- Node1&#45;&gt;Node2 -->
<g id="edge1_Node000001_Node000002" class="edge">
<title>Node1&#45;&gt;Node2</title>
<g id="a_edge1_Node000001_Node000002"><a xlink:title=" ">
<path fill="none" stroke="#63b8ff" d="M971.73,-197.99C875.46,-186.66 706.48,-166.77 613.32,-155.81"/>
<polygon fill="#63b8ff" stroke="#63b8ff" points="613.51,-152.3 603.17,-154.61 612.69,-159.26 613.51,-152.3"/>
</a>
</g>
</g>
<!-- Node5 -->
<g id="Node000005" class="node">
<title>Node5</title>
<g id="a_Node000005"><a xlink:title=" ">
<polygon fill="#e0e0e0" stroke="#999999" points="44,-24.5 0,-24.5 0,-5.5 44,-5.5 44,-24.5"/>
<text text-anchor="middle" x="22" y="-12.5" font-family="Helvetica,sans-Serif" font-size="10.00">string</text>
</a>
</g>
</g>
<!-- Node1&#45;&gt;Node5 -->
<g id="edge26_Node000001_Node000005" class="edge">
<title>Node1&#45;&gt;Node5</title>
<g id="a_edge26_Node000001_Node000005"><a xlink:title=" ">
<path fill="none" stroke="#63b8ff" d="M970.33,-206.89C796.62,-207.11 365.67,-203.32 228,-162 145.56,-137.26 68.39,-64.58 36.91,-32.05"/>
<polygon fill="#63b8ff" stroke="#63b8ff" points="39.34,-29.53 29.91,-24.7 34.27,-34.36 39.34,-29.53"/>
</a>
</g>
</g>
<!-- Node6 -->
<g id="Node000006" class="node">
<title>Node6</title>
<g id="a_Node000006"><a xlink:title=" ">
<polygon fill="#e0e0e0" stroke="#999999" points="135.5,-24.5 62.5,-24.5 62.5,-5.5 135.5,-5.5 135.5,-24.5"/>
<text text-anchor="middle" x="99" y="-12.5" font-family="Helvetica,sans-Serif" font-size="10.00">string_view</text>
</a>
</g>
</g>
<!-- Node1&#45;&gt;Node6 -->
<g id="edge27_Node000001_Node000006" class="edge">
<title>Node1&#45;&gt;Node6</title>
<g id="a_edge27_Node000001_Node000006"><a xlink:title=" ">
<path fill="none" stroke="#63b8ff" d="M970.37,-206.46C779.48,-204.96 274.39,-191.82 143,-96 122.23,-80.85 110.12,-52.79 104.03,-34.26"/>
<polygon fill="#63b8ff" stroke="#63b8ff" points="107.36,-33.18 101.12,-24.62 100.66,-35.2 107.36,-33.18"/>
</a>
</g>
</g>
<!-- Node9 -->
<g id="Node000009" class="node">
<title>Node9</title>
<g id="a_Node000009"><a xlink:title=" ">
<polygon fill="#e0e0e0" stroke="#999999" points="949.5,-96 824.5,-96 824.5,-66 949.5,-66 949.5,-96"/>
<text text-anchor="start" x="832.5" y="-84" font-family="Helvetica,sans-Serif" font-size="10.00">boost/date_time/posix</text>
<text text-anchor="middle" x="887" y="-73" font-family="Helvetica,sans-Serif" font-size="10.00">_time/ptime.hpp</text>
</a>
</g>
</g>
<!-- Node1&#45;&gt;Node9 -->
<g id="edge29_Node000001_Node000009" class="edge">
<title>Node1&#45;&gt;Node9</title>
<g id="a_edge29_Node000001_Node000009"><a xlink:title=" ">
<path fill="none" stroke="#63b8ff" d="M1024.93,-197.89C1008.08,-189.83 983.27,-176.83 964,-162 941.68,-144.82 919.76,-121.2 905.05,-104.08"/>
<polygon fill="#63b8ff" stroke="#63b8ff" points="907.57,-101.63 898.44,-96.25 902.22,-106.15 907.57,-101.63"/>
</a>
</g>
</g>
<!-- Node15 -->
<g id="Node000015" class="node">
<title>Node15</title>
<g id="a_Node000015"><a xlink:title=" ">
<polygon fill="#e0e0e0" stroke="#999999" points="1096,-30 948,-30 948,0 1096,0 1096,-30"/>
<text text-anchor="start" x="956" y="-18" font-family="Helvetica,sans-Serif" font-size="10.00">boost/date_time/posix</text>
<text text-anchor="middle" x="1022" y="-7" font-family="Helvetica,sans-Serif" font-size="10.00">_time/time_formatters.hpp</text>
</a>
</g>
</g>
<!-- Node1&#45;&gt;Node15 -->
<g id="edge30_Node000001_Node000015" class="edge">
<title>Node1&#45;&gt;Node15</title>
<g id="a_edge30_Node000001_Node000015"><a xlink:title=" ">
<path fill="none" stroke="#63b8ff" d="M1031.79,-197.86C1021.65,-189.88 1007.96,-177.01 1002,-162 986.24,-122.35 993.93,-107.9 1002,-66 1003.73,-56.99 1007.08,-47.55 1010.54,-39.32"/>
<polygon fill="#63b8ff" stroke="#63b8ff" points="1013.82,-40.56 1014.72,-30 1007.44,-37.69 1013.82,-40.56"/>
</a>
</g>
</g>
<!-- Node16 -->
<g id="Node000016" class="node">
<title>Node16</title>
<g id="a_Node000016"><a xlink:title=" ">
<polygon fill="#e0e0e0" stroke="#999999" points="1246,-30 1114,-30 1114,0 1246,0 1246,-30"/>
<text text-anchor="start" x="1122" y="-18" font-family="Helvetica,sans-Serif" font-size="10.00">boost/date_time/posix</text>
<text text-anchor="middle" x="1180" y="-7" font-family="Helvetica,sans-Serif" font-size="10.00">_time/time_parsers.hpp</text>
</a>
</g>
</g>
<!-- Node1&#45;&gt;Node16 -->
<g id="edge31_Node000001_Node000016" class="edge">
<title>Node1&#45;&gt;Node16</title>
<g id="a_edge31_Node000001_Node000016"><a xlink:title=" ">
<path fill="none" stroke="#63b8ff" d="M1039.99,-197.73C1034.01,-183.27 1024.5,-153.84 1035,-132 1056.67,-86.92 1105.32,-53.88 1140.3,-34.84"/>
<polygon fill="#63b8ff" stroke="#63b8ff" points="1142.11,-37.84 1149.32,-30.07 1138.84,-31.65 1142.11,-37.84"/>
</a>
</g>
</g>
<!-- Node17 -->
<g id="Node000017" class="node">
<title>Node17</title>
<g id="a_Node000017"><a xlink:title=" ">
<polygon fill="#e0e0e0" stroke="#999999" points="1100,-156.5 1044,-156.5 1044,-137.5 1100,-137.5 1100,-156.5"/>
<text text-anchor="middle" x="1072" y="-144.5" font-family="Helvetica,sans-Serif" font-size="10.00">iomanip</text>
</a>
</g>
</g>
<!-- Node1&#45;&gt;Node17 -->
<g id="edge21_Node000001_Node000017" class="edge">
<title>Node1&#45;&gt;Node17</title>
<g id="a_edge21_Node000001_Node000017"><a xlink:title=" ">
<path fill="none" stroke="#63b8ff" d="M1048.13,-197.87C1052.14,-189.49 1058.35,-176.51 1063.44,-165.89"/>
<polygon fill="#63b8ff" stroke="#63b8ff" points="1066.69,-167.2 1067.85,-156.67 1060.38,-164.18 1066.69,-167.2"/>
</a>
</g>
</g>
<!-- Node18 -->
<g id="Node000018" class="node">
<title>Node18</title>
<g id="a_Node000018"><a xlink:title=" ">
<polygon fill="#e0e0e0" stroke="#999999" points="1149.5,-156.5 1118.5,-156.5 1118.5,-137.5 1149.5,-137.5 1149.5,-156.5"/>
<text text-anchor="middle" x="1134" y="-144.5" font-family="Helvetica,sans-Serif" font-size="10.00">ios</text>
</a>
</g>
</g>
<!-- Node1&#45;&gt;Node18 -->
<g id="edge22_Node000001_Node000018" class="edge">
<title>Node1&#45;&gt;Node18</title>
<g id="a_edge22_Node000001_Node000018"><a xlink:title=" ">
<path fill="none" stroke="#63b8ff" d="M1057.28,-197.87C1071.64,-188.54 1094.76,-173.51 1111.87,-162.38"/>
<polygon fill="#63b8ff" stroke="#63b8ff" points="1114.19,-165.05 1120.67,-156.67 1110.37,-159.18 1114.19,-165.05"/>
</a>
</g>
</g>
<!-- Node19 -->
<g id="Node000019" class="node">
<title>Node19</title>
<g id="a_Node000019"><a xlink:title=" ">
<polygon fill="#e0e0e0" stroke="#999999" points="1212,-156.5 1168,-156.5 1168,-137.5 1212,-137.5 1212,-156.5"/>
<text text-anchor="middle" x="1190" y="-144.5" font-family="Helvetica,sans-Serif" font-size="10.00">regex</text>
</a>
</g>
</g>
<!-- Node1&#45;&gt;Node19 -->
<g id="edge23_Node000001_Node000019" class="edge">
<title>Node1&#45;&gt;Node19</title>
<g id="a_edge23_Node000001_Node000019"><a xlink:title=" ">
<path fill="none" stroke="#63b8ff" d="M1067.5,-197.84C1090.85,-189.13 1127.6,-175.15 1159,-162 1160.01,-161.58 1161.03,-161.14 1162.06,-160.7"/>
<polygon fill="#63b8ff" stroke="#63b8ff" points="1163.64,-163.83 1171.38,-156.61 1160.82,-157.42 1163.64,-163.83"/>
</a>
</g>
</g>
<!-- Node20 -->
<g id="Node000020" class="node">
<title>Node20</title>
<g id="a_Node000020"><a xlink:title=" ">
<polygon fill="#e0e0e0" stroke="#999999" points="1286,-156.5 1230,-156.5 1230,-137.5 1286,-137.5 1286,-156.5"/>
<text text-anchor="middle" x="1258" y="-144.5" font-family="Helvetica,sans-Serif" font-size="10.00">sstream</text>
</a>
</g>
</g>
<!-- Node1&#45;&gt;Node20 -->
<g id="edge24_Node000001_Node000020" class="edge">
<title>Node1&#45;&gt;Node20</title>
<g id="a_edge24_Node000001_Node000020"><a xlink:title=" ">
<path fill="none" stroke="#63b8ff" d="M1083.38,-197.97C1119.49,-189.83 1174.29,-176.65 1221,-162 1222.92,-161.4 1224.88,-160.75 1226.85,-160.08"/>
<polygon fill="#63b8ff" stroke="#63b8ff" points="1228.4,-163.24 1236.62,-156.57 1226.03,-156.65 1228.4,-163.24"/>
</a>
</g>
</g>
<!-- Node21 -->
<g id="Node000021" class="node">
<title>Node21</title>
<g id="a_Node000021"><a xlink:title=" ">
<polygon fill="#e0e0e0" stroke="#999999" points="1369.5,-156.5 1304.5,-156.5 1304.5,-137.5 1369.5,-137.5 1369.5,-156.5"/>
<text text-anchor="middle" x="1337" y="-144.5" font-family="Helvetica,sans-Serif" font-size="10.00">stdexcept</text>
</a>
</g>
</g>
<!-- Node1&#45;&gt;Node21 -->
<g id="edge25_Node000001_Node000021" class="edge">
<title>Node1&#45;&gt;Node21</title>
<g id="a_edge25_Node000001_Node000021"><a xlink:title=" ">
<path fill="none" stroke="#63b8ff" d="M1106.69,-197.99C1157.79,-190.43 1231.62,-178.09 1295,-162 1297.79,-161.29 1300.67,-160.49 1303.55,-159.64"/>
<polygon fill="#63b8ff" stroke="#63b8ff" points="1304.7,-162.94 1313.19,-156.61 1302.6,-156.26 1304.7,-162.94"/>
</a>
</g>
</g>
<!-- Node22 -->
<g id="Node000022" class="node">
<title>Node22</title>
<g id="a_Node000022"><a xlink:title=" ">
<polygon fill="#e0e0e0" stroke="#999999" points="1512.5,-162 1387.5,-162 1387.5,-132 1512.5,-132 1512.5,-162"/>
<text text-anchor="start" x="1395.5" y="-150" font-family="Helvetica,sans-Serif" font-size="10.00">boost/algorithm/string</text>
<text text-anchor="middle" x="1450" y="-139" font-family="Helvetica,sans-Serif" font-size="10.00">/case_conv.hpp</text>
</a>
</g>
</g>
<!-- Node1&#45;&gt;Node22 -->
<g id="edge28_Node000001_Node000022" class="edge">
<title>Node1&#45;&gt;Node22</title>
<g id="a_edge28_Node000001_Node000022"><a xlink:title=" ">
<path fill="none" stroke="#63b8ff" d="M1117.72,-198.05C1183.4,-190.22 1282.37,-177.66 1377.26,-162.23"/>
<polygon fill="#63b8ff" stroke="#63b8ff" points="1378.02,-165.65 1387.32,-160.58 1376.88,-158.75 1378.02,-165.65"/>
</a>
</g>
</g>
<!-- Node3 -->
<g id="Node000003" class="node">
<title>Node3</title>
<g id="a_Node000003"><a xlink:title=" ">
<polygon fill="#e0e0e0" stroke="#999999" points="567.5,-24.5 422.5,-24.5 422.5,-5.5 567.5,-5.5 567.5,-24.5"/>
<text text-anchor="middle" x="495" y="-12.5" font-family="Helvetica,sans-Serif" font-size="10.00">Clock/misc_lib_export.hpp</text>
</a>
</g>
</g>
<!-- Node2&#45;&gt;Node3 -->
<g id="edge2_Node000002_Node000003" class="edge">
<title>Node2&#45;&gt;Node3</title>
<g id="a_edge2_Node000002_Node000003"><a xlink:title=" ">
<path fill="none" stroke="#63b8ff" d="M541.34,-131.84C531.85,-108.13 512.76,-60.41 502.29,-34.23"/>
<polygon fill="#63b8ff" stroke="#63b8ff" points="505.46,-32.73 498.5,-24.75 498.96,-35.33 505.46,-32.73"/>
</a>
</g>
</g>
<!-- Node4 -->
<g id="Node000004" class="node">
<title>Node4</title>
<g id="a_Node000004"><a xlink:title=" ">
<polygon fill="#e0e0e0" stroke="#999999" points="806,-90.5 746,-90.5 746,-71.5 806,-71.5 806,-90.5"/>
<text text-anchor="middle" x="776" y="-78.5" font-family="Helvetica,sans-Serif" font-size="10.00">iostream</text>
</a>
</g>
</g>
<!-- Node2&#45;&gt;Node4 -->
<g id="edge3_Node000002_Node000004" class="edge">
<title>Node2&#45;&gt;Node4</title>
<g id="a_edge3_Node000002_Node000004"><a xlink:title=" ">
<path fill="none" stroke="#63b8ff" d="M603.07,-132.61C641.09,-123.2 692.37,-109.85 737,-96 739.12,-95.34 741.3,-94.64 743.49,-93.91"/>
<polygon fill="#63b8ff" stroke="#63b8ff" points="744.7,-97.19 753.02,-90.63 742.42,-90.58 744.7,-97.19"/>
</a>
</g>
</g>
<!-- Node2&#45;&gt;Node5 -->
<g id="edge4_Node000002_Node000005" class="edge">
<title>Node2&#45;&gt;Node5</title>
<g id="a_edge4_Node000002_Node000005"><a xlink:title=" ">
<path fill="none" stroke="#63b8ff" d="M490.96,-142.24C395.5,-135.32 205.57,-119.1 143,-96 102.33,-80.99 61.64,-49.99 39.35,-31.29"/>
<polygon fill="#63b8ff" stroke="#63b8ff" points="41.36,-28.41 31.49,-24.57 36.81,-33.73 41.36,-28.41"/>
</a>
</g>
</g>
<!-- Node2&#45;&gt;Node6 -->
<g id="edge5_Node000002_Node000006" class="edge">
<title>Node2&#45;&gt;Node6</title>
<g id="a_edge5_Node000002_Node000006"><a xlink:title=" ">
<path fill="none" stroke="#63b8ff" d="M490.72,-137.49C451.29,-130.08 398.16,-117.13 355,-96 335.36,-86.39 335.86,-75.15 316,-66 245.46,-33.51 220.22,-49.33 145,-30 141.85,-29.19 138.59,-28.3 135.33,-27.38"/>
<polygon fill="#63b8ff" stroke="#63b8ff" points="136.22,-23.99 125.64,-24.54 134.26,-30.71 136.22,-23.99"/>
</a>
</g>
</g>
<!-- Node7 -->
<g id="Node000007" class="node">
<title>Node7</title>
<g id="a_Node000007"><a xlink:title=" ">
<polygon fill="#e0e0e0" stroke="#999999" points="754,-30 586,-30 586,0 754,0 754,-30"/>
<text text-anchor="start" x="594" y="-18" font-family="Helvetica,sans-Serif" font-size="10.00">boost/date_time/posix</text>
<text text-anchor="middle" x="670" y="-7" font-family="Helvetica,sans-Serif" font-size="10.00">_time/posix_time_duration.hpp</text>
</a>
</g>
</g>
<!-- Node2&#45;&gt;Node7 -->
<g id="edge6_Node000002_Node000007" class="edge">
<title>Node2&#45;&gt;Node7</title>
<g id="a_edge6_Node000002_Node000007"><a xlink:title=" ">
<path fill="none" stroke="#63b8ff" d="M550.91,-131.81C556.26,-114.57 567.25,-85.39 585,-66 596.68,-53.24 612.38,-42.77 627.11,-34.76"/>
<polygon fill="#63b8ff" stroke="#63b8ff" points="628.84,-37.8 636.11,-30.09 625.62,-31.59 628.84,-37.8"/>
</a>
</g>
</g>
<!-- Node8 -->
<g id="Node000008" class="node">
<title>Node8</title>
<g id="a_Node000008"><a xlink:title=" ">
<polygon fill="#e0e0e0" stroke="#999999" points="307.5,-96 152.5,-96 152.5,-66 307.5,-66 307.5,-96"/>
<text text-anchor="start" x="160.5" y="-84" font-family="Helvetica,sans-Serif" font-size="10.00">boost/date_time/posix</text>
<text text-anchor="middle" x="230" y="-73" font-family="Helvetica,sans-Serif" font-size="10.00">_time/posix_time_types.hpp</text>
</a>
</g>
</g>
<!-- Node2&#45;&gt;Node8 -->
<g id="edge7_Node000002_Node000008" class="edge">
<title>Node2&#45;&gt;Node8</title>
<g id="a_edge7_Node000002_Node000008"><a xlink:title=" ">
<path fill="none" stroke="#63b8ff" d="M490.69,-134.63C440.34,-124.47 366,-109.46 309.58,-98.07"/>
<polygon fill="#63b8ff" stroke="#63b8ff" points="310.11,-94.6 299.62,-96.06 308.73,-101.47 310.11,-94.6"/>
</a>
</g>
</g>
<!-- Node2&#45;&gt;Node9 -->
<g id="edge8_Node000002_Node000009" class="edge">
<title>Node2&#45;&gt;Node9</title>
<g id="a_edge8_Node000002_Node000009"><a xlink:title=" ">
<path fill="none" stroke="#63b8ff" d="M603.23,-135.64C655.25,-126.02 735.01,-111.21 814.04,-96.17"/>
<polygon fill="#63b8ff" stroke="#63b8ff" points="815.01,-99.55 824.18,-94.24 813.7,-92.68 815.01,-99.55"/>
</a>
</g>
</g>
<!-- Node10 -->
<g id="Node000010" class="node">
<title>Node10</title>
<g id="a_Node000010"><a xlink:href="quad_8hpp.html" target="_top" xlink:title="Quad precision floating&#45;point type and utilities.">
<polygon fill="white" stroke="#666666" points="499.5,-90.5 364.5,-90.5 364.5,-71.5 499.5,-71.5 499.5,-90.5"/>
<text text-anchor="middle" x="432" y="-78.5" font-family="Helvetica,sans-Serif" font-size="10.00">Clock/misc_lib/quad.hpp</text>
</a>
</g>
</g>
<!-- Node2&#45;&gt;Node10 -->
<g id="edge9_Node000002_Node000010" class="edge">
<title>Node2&#45;&gt;Node10</title>
<g id="a_edge9_Node000002_Node000010"><a xlink:title=" ">
<path fill="none" stroke="#63b8ff" d="M521.76,-131.95C502.22,-121.08 475.32,-106.11 456.07,-95.4"/>
<polygon fill="#63b8ff" stroke="#63b8ff" points="457.74,-92.32 447.3,-90.52 454.34,-98.44 457.74,-92.32"/>
</a>
</g>
</g>
<!-- Node13 -->
<g id="Node000013" class="node">
<title>Node13</title>
<g id="a_Node000013"><a xlink:href="time_8hpp.html" target="_top" xlink:title="Time data structure and utilities.">
<polygon fill="white" stroke="#666666" points="728,-90.5 594,-90.5 594,-71.5 728,-71.5 728,-90.5"/>
<text text-anchor="middle" x="661" y="-78.5" font-family="Helvetica,sans-Serif" font-size="10.00">Clock/misc_lib/time.hpp</text>
</a>
</g>
</g>
<!-- Node2&#45;&gt;Node13 -->
<g id="edge14_Node000002_Node000013" class="edge">
<title>Node2&#45;&gt;Node13</title>
<g id="a_edge14_Node000002_Node000013"><a xlink:title=" ">
<path fill="none" stroke="#63b8ff" d="M572.02,-131.95C591.31,-121.13 617.82,-106.24 636.88,-95.54"/>
<polygon fill="#63b8ff" stroke="#63b8ff" points="638.82,-98.46 645.83,-90.52 635.4,-92.36 638.82,-98.46"/>
</a>
</g>
</g>
<!-- Node10&#45;&gt;Node3 -->
<g id="edge10_Node000010_Node000003" class="edge">
<title>Node10&#45;&gt;Node3</title>
<g id="a_edge10_Node000010_Node000003"><a xlink:title=" ">
<path fill="none" stroke="#63b8ff" d="M440.5,-71.37C450.3,-61.4 466.66,-44.79 478.89,-32.36"/>
<polygon fill="#63b8ff" stroke="#63b8ff" points="481.71,-34.49 486.23,-24.91 476.72,-29.58 481.71,-34.49"/>
</a>
</g>
</g>
<!-- Node10&#45;&gt;Node6 -->
<g id="edge11_Node000010_Node000006" class="edge">
<title>Node10&#45;&gt;Node6</title>
<g id="a_edge11_Node000010_Node000006"><a xlink:title=" ">
<path fill="none" stroke="#63b8ff" d="M382.24,-71.5C303.15,-57.95 156.45,-32.73 145,-30 141.65,-29.2 138.19,-28.3 134.73,-27.34"/>
<polygon fill="#63b8ff" stroke="#63b8ff" points="135.7,-23.98 125.12,-24.56 133.75,-30.7 135.7,-23.98"/>
</a>
</g>
</g>
<!-- Node11 -->
<g id="Node000011" class="node">
<title>Node11</title>
<g id="a_Node000011"><a xlink:title=" ">
<polygon fill="#e0e0e0" stroke="#999999" points="404,-30 288,-30 288,0 404,0 404,-30"/>
<text text-anchor="start" x="296" y="-18" font-family="Helvetica,sans-Serif" font-size="10.00">boost/multiprecision</text>
<text text-anchor="middle" x="346" y="-7" font-family="Helvetica,sans-Serif" font-size="10.00">/cpp_bin_float.hpp</text>
</a>
</g>
</g>
<!-- Node10&#45;&gt;Node11 -->
<g id="edge12_Node000010_Node000011" class="edge">
<title>Node10&#45;&gt;Node11</title>
<g id="a_edge12_Node000010_Node000011"><a xlink:title=" ">
<path fill="none" stroke="#63b8ff" d="M420.4,-71.37C408.41,-62.44 389.25,-48.19 373.38,-36.38"/>
<polygon fill="#63b8ff" stroke="#63b8ff" points="375.08,-33.28 364.97,-30.12 370.9,-38.89 375.08,-33.28"/>
</a>
</g>
</g>
<!-- Node12 -->
<g id="Node000012" class="node">
<title>Node12</title>
<g id="a_Node000012"><a xlink:title=" ">
<polygon fill="#e0e0e0" stroke="#999999" points="270,-30 154,-30 154,0 270,0 270,-30"/>
<text text-anchor="start" x="162" y="-18" font-family="Helvetica,sans-Serif" font-size="10.00">boost/multiprecision</text>
<text text-anchor="middle" x="212" y="-7" font-family="Helvetica,sans-Serif" font-size="10.00">/fwd.hpp</text>
</a>
</g>
</g>
<!-- Node10&#45;&gt;Node12 -->
<g id="edge13_Node000010_Node000012" class="edge">
<title>Node10&#45;&gt;Node12</title>
<g id="a_edge13_Node000010_Node000012"><a xlink:title=" ">
<path fill="none" stroke="#63b8ff" d="M402.33,-71.37C368.6,-61.56 312.71,-45.3 270.2,-32.93"/>
<polygon fill="#63b8ff" stroke="#63b8ff" points="271.1,-29.55 260.52,-30.12 269.15,-36.27 271.1,-29.55"/>
</a>
</g>
</g>
<!-- Node13&#45;&gt;Node3 -->
<g id="edge15_Node000013_Node000003" class="edge">
<title>Node13&#45;&gt;Node3</title>
<g id="a_edge15_Node000013_Node000003"><a xlink:title=" ">
<path fill="none" stroke="#63b8ff" d="M638.61,-71.37C609.82,-60.27 559.63,-40.92 526.86,-28.28"/>
<polygon fill="#63b8ff" stroke="#63b8ff" points="527.89,-24.93 517.3,-24.6 525.37,-31.46 527.89,-24.93"/>
</a>
</g>
</g>
<!-- Node13&#45;&gt;Node5 -->
<g id="edge16_Node000013_Node000005" class="edge">
<title>Node13&#45;&gt;Node5</title>
<g id="a_edge16_Node000013_Node000005"><a xlink:title=" ">
<path fill="none" stroke="#63b8ff" d="M593.99,-73.69C567.25,-71.22 536.17,-68.4 508,-66 305.88,-48.76 249.47,-80.5 53,-30 51.27,-29.56 49.52,-29.02 47.77,-28.42"/>
<polygon fill="#63b8ff" stroke="#63b8ff" points="48.61,-24.99 38.03,-24.5 46,-31.48 48.61,-24.99"/>
</a>
</g>
</g>
<!-- Node13&#45;&gt;Node7 -->
<g id="edge18_Node000013_Node000007" class="edge">
<title>Node13&#45;&gt;Node7</title>
<g id="a_edge18_Node000013_Node000007"><a xlink:title=" ">
<path fill="none" stroke="#63b8ff" d="M662.21,-71.37C663.33,-63.4 665.05,-51.2 666.59,-40.27"/>
<polygon fill="#63b8ff" stroke="#63b8ff" points="670.05,-40.75 667.98,-30.36 663.12,-39.78 670.05,-40.75"/>
</a>
</g>
</g>
<!-- Node14 -->
<g id="Node000014" class="node">
<title>Node14</title>
<g id="a_Node000014"><a xlink:title=" ">
<polygon fill="#e0e0e0" stroke="#999999" points="929.5,-30 772.5,-30 772.5,0 929.5,0 929.5,-30"/>
<text text-anchor="start" x="780.5" y="-18" font-family="Helvetica,sans-Serif" font-size="10.00">boost/date_time/posix</text>
<text text-anchor="middle" x="851" y="-7" font-family="Helvetica,sans-Serif" font-size="10.00">_time/posix_time_config.hpp</text>
</a>
</g>
</g>
<!-- Node13&#45;&gt;Node14 -->
<g id="edge17_Node000013_Node000014" class="edge">
<title>Node13&#45;&gt;Node14</title>
<g id="a_edge17_Node000013_Node000014"><a xlink:title=" ">
<path fill="none" stroke="#63b8ff" d="M686.62,-71.37C715.45,-61.66 763.01,-45.64 799.58,-33.32"/>
<polygon fill="#63b8ff" stroke="#63b8ff" points="800.73,-36.62 809.09,-30.12 798.5,-29.99 800.73,-36.62"/>
</a>
</g>
</g>
<!-- Node13&#45;&gt;Node15 -->
<g id="edge19_Node000013_Node000015" class="edge">
<title>Node13&#45;&gt;Node15</title>
<g id="a_edge19_Node000013_Node000015"><a xlink:title=" ">
<path fill="none" stroke="#63b8ff" d="M706.8,-71.5C716.76,-69.67 727.23,-67.76 737,-66 804.51,-53.86 881.09,-40.44 937.85,-30.57"/>
<polygon fill="#63b8ff" stroke="#63b8ff" points="938.61,-33.99 947.86,-28.83 937.41,-27.09 938.61,-33.99"/>
</a>
</g>
</g>
<!-- Node13&#45;&gt;Node16 -->
<g id="edge20_Node000013_Node000016" class="edge">
<title>Node13&#45;&gt;Node16</title>
<g id="a_edge20_Node000013_Node000016"><a xlink:title=" ">
<path fill="none" stroke="#63b8ff" d="M703.9,-71.44C714.68,-69.47 726.24,-67.51 737,-66 896.55,-43.54 940.59,-52.72 1103.89,-30.07"/>
<polygon fill="#63b8ff" stroke="#63b8ff" points="1104.38,-33.54 1113.8,-28.68 1103.41,-26.61 1104.38,-33.54"/>
</a>
</g>
</g>
</g>
</svg>
