<?xml version="1.0" encoding="UTF-8" standalone="no"?>
<!DOCTYPE svg PUBLIC "-//W3C//DTD SVG 1.1//EN"
 "http://www.w3.org/Graphics/SVG/1.1/DTD/svg11.dtd">
<!-- Generated by graphviz version 2.43.0 (0)
 -->
<!-- Title: src/misc_lib/date_time.cpp Pages: 1 -->
<svg width="1431pt" height="225pt"
 viewBox="0.00 0.00 1430.50 225.00" xmlns="http://www.w3.org/2000/svg" xmlns:xlink="http://www.w3.org/1999/xlink">
<g id="graph0" class="graph" transform="scale(1 1) rotate(0) translate(4 221)">
<title>src/misc_lib/date_time.cpp</title>
<!-- Node1 -->
<g id="Node000001" class="node">
<title>Node1</title>
<g id="a_Node000001"><a xlink:title="Implementation of date and time utilities.">
<polygon fill="#999999" stroke="#666666" points="1027.5,-217 880.5,-217 880.5,-198 1027.5,-198 1027.5,-217"/>
<text text-anchor="middle" x="954" y="-205" font-family="Helvetica,sans-Serif" font-size="10.00">src/misc_lib/date_time.cpp</text>
</a>
</g>
</g>
<!-- Node2 -->
<g id="Node000002" class="node">
<title>Node2</title>
<g id="a_Node000002"><a xlink:href="date__time_8hpp_source.html" target="_top" xlink:title=" ">
<polygon fill="white" stroke="#666666" points="513,-162 401,-162 401,-132 513,-132 513,-162"/>
<text text-anchor="start" x="409" y="-150" font-family="Helvetica,sans-Serif" font-size="10.00">Clock/misc_lib/date</text>
<text text-anchor="middle" x="457" y="-139" font-family="Helvetica,sans-Serif" font-size="10.00">_time.hpp</text>
</a>
</g>
</g>
<!-- Node1&#45;&gt;Node2 -->
<g id="edge1_Node000001_Node000002" class="edge">
<title>Node1&#45;&gt;Node2</title>
<g id="a_edge1_Node000001_Node000002"><a xlink:title=" ">
<path fill="none" stroke="#63b8ff" d="M881.73,-197.99C785.46,-186.66 616.48,-166.77 523.32,-155.81"/>
<polygon fill="#63b8ff" stroke="#63b8ff" points="523.51,-152.3 513.17,-154.61 522.69,-159.26 523.51,-152.3"/>
</a>
</g>
</g>
<!-- Node5 -->
<g id="Node000005" class="node">
<title>Node5</title>
<g id="a_Node000005"><a xlink:title=" ">
<polygon fill="#e0e0e0" stroke="#999999" points="44,-24.5 0,-24.5 0,-5.5 44,-5.5 44,-24.5"/>
<text text-anchor="middle" x="22" y="-12.5" font-family="Helvetica,sans-Serif" font-size="10.00">string</text>
</a>
</g>
</g>
<!-- Node1&#45;&gt;Node5 -->
<g id="edge25_Node000001_Node000005" class="edge">
<title>Node1&#45;&gt;Node5</title>
<g id="a_edge25_Node000001_Node000005"><a xlink:title=" ">
<path fill="none" stroke="#63b8ff" d="M880.48,-204.68C693.88,-199.74 211.82,-184.91 143,-162 92.83,-145.29 74.97,-138.87 44,-96 30.78,-77.71 25.5,-51.84 23.4,-34.52"/>
<polygon fill="#63b8ff" stroke="#63b8ff" points="26.88,-34.15 22.42,-24.54 19.91,-34.83 26.88,-34.15"/>
</a>
</g>
</g>
<!-- Node6 -->
<g id="Node000006" class="node">
<title>Node6</title>
<g id="a_Node000006"><a xlink:title=" ">
<polygon fill="#e0e0e0" stroke="#999999" points="135.5,-24.5 62.5,-24.5 62.5,-5.5 135.5,-5.5 135.5,-24.5"/>
<text text-anchor="middle" x="99" y="-12.5" font-family="Helvetica,sans-Serif" font-size="10.00">string_view</text>
</a>
</g>
</g>
<!-- Node1&#45;&gt;Node6 -->
<g id="edge26_Node000001_Node000006" class="edge">
<title>Node1&#45;&gt;Node6</title>
<g id="a_edge26_Node000001_Node000006"><a xlink:title=" ">
<path fill="none" stroke="#63b8ff" d="M880.45,-203.17C674.8,-193.1 105.46,-159.66 53,-96 36.06,-75.45 60.52,-47.85 79.76,-31.02"/>
<polygon fill="#63b8ff" stroke="#63b8ff" points="82.11,-33.62 87.54,-24.53 77.62,-28.25 82.11,-33.62"/>
</a>
</g>
</g>
<!-- Node9 -->
<g id="Node000009" class="node">
<title>Node9</title>
<g id="a_Node000009"><a xlink:title=" ">
<polygon fill="#e0e0e0" stroke="#999999" points="859.5,-96 734.5,-96 734.5,-66 859.5,-66 859.5,-96"/>
<text text-anchor="start" x="742.5" y="-84" font-family="Helvetica,sans-Serif" font-size="10.00">boost/date_time/posix</text>
<text text-anchor="middle" x="797" y="-73" font-family="Helvetica,sans-Serif" font-size="10.00">_time/ptime.hpp</text>
</a>
</g>
</g>
<!-- Node1&#45;&gt;Node9 -->
<g id="edge28_Node000001_Node000009" class="edge">
<title>Node1&#45;&gt;Node9</title>
<g id="a_edge28_Node000001_Node000009"><a xlink:title=" ">
<path fill="none" stroke="#63b8ff" d="M934.93,-197.89C918.08,-189.83 893.27,-176.83 874,-162 851.68,-144.82 829.76,-121.2 815.05,-104.08"/>
<polygon fill="#63b8ff" stroke="#63b8ff" points="817.57,-101.63 808.44,-96.25 812.22,-106.15 817.57,-101.63"/>
</a>
</g>
</g>
<!-- Node14 -->
<g id="Node000014" class="node">
<title>Node14</title>
<g id="a_Node000014"><a xlink:title=" ">
<polygon fill="#e0e0e0" stroke="#999999" points="962,-30 814,-30 814,0 962,0 962,-30"/>
<text text-anchor="start" x="822" y="-18" font-family="Helvetica,sans-Serif" font-size="10.00">boost/date_time/posix</text>
<text text-anchor="middle" x="888" y="-7" font-family="Helvetica,sans-Serif" font-size="10.00">_time/time_formatters.hpp</text>
</a>
</g>
</g>
<!-- Node1&#45;&gt;Node14 -->
<g id="edge29_Node000001_Node000014" class="edge">
<title>Node1&#45;&gt;Node14</title>
<g id="a_edge29_Node000001_Node000014"><a xlink:title=" ">
<path fill="none" stroke="#63b8ff" d="M942.77,-197.92C932.98,-189.79 919.26,-176.66 912,-162 892.41,-122.43 888.31,-70.18 887.73,-40.11"/>
<polygon fill="#63b8ff" stroke="#63b8ff" points="891.23,-40.07 887.65,-30.1 884.23,-40.13 891.23,-40.07"/>
</a>
</g>
</g>
<!-- Node15 -->
<g id="Node000015" class="node">
<title>Node15</title>
<g id="a_Node000015"><a xlink:title=" ">
<polygon fill="#e0e0e0" stroke="#999999" points="1112,-30 980,-30 980,0 1112,0 1112,-30"/>
<text text-anchor="start" x="988" y="-18" font-family="Helvetica,sans-Serif" font-size="10.00">boost/date_time/posix</text>
<text text-anchor="middle" x="1046" y="-7" font-family="Helvetica,sans-Serif" font-size="10.00">_time/time_parsers.hpp</text>
</a>
</g>
</g>
<!-- Node1&#45;&gt;Node15 -->
<g id="edge30_Node000001_Node000015" class="edge">
<title>Node1&#45;&gt;Node15</title>
<g id="a_edge30_Node000001_Node000015"><a xlink:title=" ">
<path fill="none" stroke="#63b8ff" d="M950.44,-197.93C945.11,-183.74 936.5,-154.69 945,-132 959.8,-92.46 994.85,-57.51 1019.49,-36.56"/>
<polygon fill="#63b8ff" stroke="#63b8ff" points="1021.93,-39.08 1027.4,-30.01 1017.47,-33.69 1021.93,-39.08"/>
</a>
</g>
</g>
<!-- Node16 -->
<g id="Node000016" class="node">
<title>Node16</title>
<g id="a_Node000016"><a xlink:title=" ">
<polygon fill="#e0e0e0" stroke="#999999" points="1010,-156.5 954,-156.5 954,-137.5 1010,-137.5 1010,-156.5"/>
<text text-anchor="middle" x="982" y="-144.5" font-family="Helvetica,sans-Serif" font-size="10.00">iomanip</text>
</a>
</g>
</g>
<!-- Node1&#45;&gt;Node16 -->
<g id="edge20_Node000001_Node000016" class="edge">
<title>Node1&#45;&gt;Node16</title>
<g id="a_edge20_Node000001_Node000016"><a xlink:title=" ">
<path fill="none" stroke="#63b8ff" d="M958.13,-197.87C962.14,-189.49 968.35,-176.51 973.44,-165.89"/>
<polygon fill="#63b8ff" stroke="#63b8ff" points="976.69,-167.2 977.85,-156.67 970.38,-164.18 976.69,-167.2"/>
</a>
</g>
</g>
<!-- Node17 -->
<g id="Node000017" class="node">
<title>Node17</title>
<g id="a_Node000017"><a xlink:title=" ">
<polygon fill="#e0e0e0" stroke="#999999" points="1059.5,-156.5 1028.5,-156.5 1028.5,-137.5 1059.5,-137.5 1059.5,-156.5"/>
<text text-anchor="middle" x="1044" y="-144.5" font-family="Helvetica,sans-Serif" font-size="10.00">ios</text>
</a>
</g>
</g>
<!-- Node1&#45;&gt;Node17 -->
<g id="edge21_Node000001_Node000017" class="edge">
<title>Node1&#45;&gt;Node17</title>
<g id="a_edge21_Node000001_Node000017"><a xlink:title=" ">
<path fill="none" stroke="#63b8ff" d="M967.28,-197.87C981.64,-188.54 1004.76,-173.51 1021.87,-162.38"/>
<polygon fill="#63b8ff" stroke="#63b8ff" points="1024.19,-165.05 1030.67,-156.67 1020.37,-159.18 1024.19,-165.05"/>
</a>
</g>
</g>
<!-- Node18 -->
<g id="Node000018" class="node">
<title>Node18</title>
<g id="a_Node000018"><a xlink:title=" ">
<polygon fill="#e0e0e0" stroke="#999999" points="1122,-156.5 1078,-156.5 1078,-137.5 1122,-137.5 1122,-156.5"/>
<text text-anchor="middle" x="1100" y="-144.5" font-family="Helvetica,sans-Serif" font-size="10.00">regex</text>
</a>
</g>
</g>
<!-- Node1&#45;&gt;Node18 -->
<g id="edge22_Node000001_Node000018" class="edge">
<title>Node1&#45;&gt;Node18</title>
<g id="a_edge22_Node000001_Node000018"><a xlink:title=" ">
<path fill="none" stroke="#63b8ff" d="M977.5,-197.84C1000.85,-189.13 1037.6,-175.15 1069,-162 1070.01,-161.58 1071.03,-161.14 1072.06,-160.7"/>
<polygon fill="#63b8ff" stroke="#63b8ff" points="1073.64,-163.83 1081.38,-156.61 1070.82,-157.42 1073.64,-163.83"/>
</a>
</g>
</g>
<!-- Node19 -->
<g id="Node000019" class="node">
<title>Node19</title>
<g id="a_Node000019"><a xlink:title=" ">
<polygon fill="#e0e0e0" stroke="#999999" points="1196,-156.5 1140,-156.5 1140,-137.5 1196,-137.5 1196,-156.5"/>
<text text-anchor="middle" x="1168" y="-144.5" font-family="Helvetica,sans-Serif" font-size="10.00">sstream</text>
</a>
</g>
</g>
<!-- Node1&#45;&gt;Node19 -->
<g id="edge23_Node000001_Node000019" class="edge">
<title>Node1&#45;&gt;Node19</title>
<g id="a_edge23_Node000001_Node000019"><a xlink:title=" ">
<path fill="none" stroke="#63b8ff" d="M993.38,-197.97C1029.49,-189.83 1084.29,-176.65 1131,-162 1132.92,-161.4 1134.88,-160.75 1136.85,-160.08"/>
<polygon fill="#63b8ff" stroke="#63b8ff" points="1138.4,-163.24 1146.62,-156.57 1136.03,-156.65 1138.4,-163.24"/>
</a>
</g>
</g>
<!-- Node20 -->
<g id="Node000020" class="node">
<title>Node20</title>
<g id="a_Node000020"><a xlink:title=" ">
<polygon fill="#e0e0e0" stroke="#999999" points="1279.5,-156.5 1214.5,-156.5 1214.5,-137.5 1279.5,-137.5 1279.5,-156.5"/>
<text text-anchor="middle" x="1247" y="-144.5" font-family="Helvetica,sans-Serif" font-size="10.00">stdexcept</text>
</a>
</g>
</g>
<!-- Node1&#45;&gt;Node20 -->
<g id="edge24_Node000001_Node000020" class="edge">
<title>Node1&#45;&gt;Node20</title>
<g id="a_edge24_Node000001_Node000020"><a xlink:title=" ">
<path fill="none" stroke="#63b8ff" d="M1016.69,-197.99C1067.79,-190.43 1141.62,-178.09 1205,-162 1207.79,-161.29 1210.67,-160.49 1213.55,-159.64"/>
<polygon fill="#63b8ff" stroke="#63b8ff" points="1214.7,-162.94 1223.19,-156.61 1212.6,-156.26 1214.7,-162.94"/>
</a>
</g>
</g>
<!-- Node21 -->
<g id="Node000021" class="node">
<title>Node21</title>
<g id="a_Node000021"><a xlink:title=" ">
<polygon fill="#e0e0e0" stroke="#999999" points="1422.5,-162 1297.5,-162 1297.5,-132 1422.5,-132 1422.5,-162"/>
<text text-anchor="start" x="1305.5" y="-150" font-family="Helvetica,sans-Serif" font-size="10.00">boost/algorithm/string</text>
<text text-anchor="middle" x="1360" y="-139" font-family="Helvetica,sans-Serif" font-size="10.00">/case_conv.hpp</text>
</a>
</g>
</g>
<!-- Node1&#45;&gt;Node21 -->
<g id="edge27_Node000001_Node000021" class="edge">
<title>Node1&#45;&gt;Node21</title>
<g id="a_edge27_Node000001_Node000021"><a xlink:title=" ">
<path fill="none" stroke="#63b8ff" d="M1027.72,-198.05C1093.4,-190.22 1192.37,-177.66 1287.26,-162.23"/>
<polygon fill="#63b8ff" stroke="#63b8ff" points="1288.02,-165.65 1297.32,-160.58 1286.88,-158.75 1288.02,-165.65"/>
</a>
</g>
</g>
<!-- Node3 -->
<g id="Node000003" class="node">
<title>Node3</title>
<g id="a_Node000003"><a xlink:title=" ">
<polygon fill="#e0e0e0" stroke="#999999" points="433.5,-24.5 288.5,-24.5 288.5,-5.5 433.5,-5.5 433.5,-24.5"/>
<text text-anchor="middle" x="361" y="-12.5" font-family="Helvetica,sans-Serif" font-size="10.00">Clock/misc_lib_export.hpp</text>
</a>
</g>
</g>
<!-- Node2&#45;&gt;Node3 -->
<g id="edge2_Node000002_Node000003" class="edge">
<title>Node2&#45;&gt;Node3</title>
<g id="a_edge2_Node000002_Node000003"><a xlink:title=" ">
<path fill="none" stroke="#63b8ff" d="M452.04,-131.75C445.77,-114.97 433.85,-86.75 418,-66 407.71,-52.53 393.36,-39.96 381.63,-30.8"/>
<polygon fill="#63b8ff" stroke="#63b8ff" points="383.73,-28 373.64,-24.76 379.51,-33.58 383.73,-28"/>
</a>
</g>
</g>
<!-- Node4 -->
<g id="Node000004" class="node">
<title>Node4</title>
<g id="a_Node000004"><a xlink:title=" ">
<polygon fill="#e0e0e0" stroke="#999999" points="716,-90.5 656,-90.5 656,-71.5 716,-71.5 716,-90.5"/>
<text text-anchor="middle" x="686" y="-78.5" font-family="Helvetica,sans-Serif" font-size="10.00">iostream</text>
</a>
</g>
</g>
<!-- Node2&#45;&gt;Node4 -->
<g id="edge3_Node000002_Node000004" class="edge">
<title>Node2&#45;&gt;Node4</title>
<g id="a_edge3_Node000002_Node000004"><a xlink:title=" ">
<path fill="none" stroke="#63b8ff" d="M513.07,-132.61C551.09,-123.2 602.37,-109.85 647,-96 649.12,-95.34 651.3,-94.64 653.49,-93.91"/>
<polygon fill="#63b8ff" stroke="#63b8ff" points="654.7,-97.19 663.02,-90.63 652.42,-90.58 654.7,-97.19"/>
</a>
</g>
</g>
<!-- Node2&#45;&gt;Node5 -->
<g id="edge4_Node000002_Node000005" class="edge">
<title>Node2&#45;&gt;Node5</title>
<g id="a_edge4_Node000002_Node000005"><a xlink:title=" ">
<path fill="none" stroke="#63b8ff" d="M400.85,-145.97C302.84,-144.83 105.95,-137.28 53,-96 34.04,-81.22 26.66,-53.27 23.8,-34.64"/>
<polygon fill="#63b8ff" stroke="#63b8ff" points="27.27,-34.17 22.56,-24.68 20.32,-35.03 27.27,-34.17"/>
</a>
</g>
</g>
<!-- Node2&#45;&gt;Node6 -->
<g id="edge5_Node000002_Node000006" class="edge">
<title>Node2&#45;&gt;Node6</title>
<g id="a_edge5_Node000002_Node000006"><a xlink:title=" ">
<path fill="none" stroke="#63b8ff" d="M400.72,-137.49C361.29,-130.08 308.16,-117.13 265,-96 245.36,-86.39 245.03,-76.78 226,-66 197.51,-49.86 162.78,-36.58 136.85,-27.77"/>
<polygon fill="#63b8ff" stroke="#63b8ff" points="137.61,-24.34 127.02,-24.51 135.4,-30.98 137.61,-24.34"/>
</a>
</g>
</g>
<!-- Node7 -->
<g id="Node000007" class="node">
<title>Node7</title>
<g id="a_Node000007"><a xlink:title=" ">
<polygon fill="#e0e0e0" stroke="#999999" points="620,-30 452,-30 452,0 620,0 620,-30"/>
<text text-anchor="start" x="460" y="-18" font-family="Helvetica,sans-Serif" font-size="10.00">boost/date_time/posix</text>
<text text-anchor="middle" x="536" y="-7" font-family="Helvetica,sans-Serif" font-size="10.00">_time/posix_time_duration.hpp</text>
</a>
</g>
</g>
<!-- Node2&#45;&gt;Node7 -->
<g id="edge6_Node000002_Node000007" class="edge">
<title>Node2&#45;&gt;Node7</title>
<g id="a_edge6_Node000002_Node000007"><a xlink:title=" ">
<path fill="none" stroke="#63b8ff" d="M462.48,-131.87C469.12,-115.45 481.17,-87.82 495,-66 501.2,-56.23 509.05,-46.22 516.22,-37.75"/>
<polygon fill="#63b8ff" stroke="#63b8ff" points="518.9,-40.01 522.81,-30.16 513.61,-35.42 518.9,-40.01"/>
</a>
</g>
</g>
<!-- Node8 -->
<g id="Node000008" class="node">
<title>Node8</title>
<g id="a_Node000008"><a xlink:title=" ">
<polygon fill="#e0e0e0" stroke="#999999" points="217.5,-96 62.5,-96 62.5,-66 217.5,-66 217.5,-96"/>
<text text-anchor="start" x="70.5" y="-84" font-family="Helvetica,sans-Serif" font-size="10.00">boost/date_time/posix</text>
<text text-anchor="middle" x="140" y="-73" font-family="Helvetica,sans-Serif" font-size="10.00">_time/posix_time_types.hpp</text>
</a>
</g>
</g>
<!-- Node2&#45;&gt;Node8 -->
<g id="edge7_Node000002_Node000008" class="edge">
<title>Node2&#45;&gt;Node8</title>
<g id="a_edge7_Node000002_Node000008"><a xlink:title=" ">
<path fill="none" stroke="#63b8ff" d="M400.69,-134.63C350.34,-124.47 276,-109.46 219.58,-98.07"/>
<polygon fill="#63b8ff" stroke="#63b8ff" points="220.11,-94.6 209.62,-96.06 218.73,-101.47 220.11,-94.6"/>
</a>
</g>
</g>
<!-- Node2&#45;&gt;Node9 -->
<g id="edge8_Node000002_Node000009" class="edge">
<title>Node2&#45;&gt;Node9</title>
<g id="a_edge8_Node000002_Node000009"><a xlink:title=" ">
<path fill="none" stroke="#63b8ff" d="M513.23,-135.64C565.25,-126.02 645.01,-111.21 724.04,-96.17"/>
<polygon fill="#63b8ff" stroke="#63b8ff" points="725.01,-99.55 734.18,-94.24 723.7,-92.68 725.01,-99.55"/>
</a>
</g>
</g>
<!-- Node10 -->
<g id="Node000010" class="node">
<title>Node10</title>
<g id="a_Node000010"><a xlink:href="quad_8hpp.html" target="_top" xlink:title="Quad precision floating&#45;point type and utilities.">
<polygon fill="white" stroke="#666666" points="409.5,-90.5 274.5,-90.5 274.5,-71.5 409.5,-71.5 409.5,-90.5"/>
<text text-anchor="middle" x="342" y="-78.5" font-family="Helvetica,sans-Serif" font-size="10.00">Clock/misc_lib/quad.hpp</text>
</a>
</g>
</g>
<!-- Node2&#45;&gt;Node10 -->
<g id="edge9_Node000002_Node000010" class="edge">
<title>Node2&#45;&gt;Node10</title>
<g id="a_edge9_Node000002_Node000010"><a xlink:title=" ">
<path fill="none" stroke="#63b8ff" d="M431.76,-131.95C412.22,-121.08 385.32,-106.11 366.07,-95.4"/>
<polygon fill="#63b8ff" stroke="#63b8ff" points="367.74,-92.32 357.3,-90.52 364.34,-98.44 367.74,-92.32"/>
</a>
</g>
</g>
<!-- Node12 -->
<g id="Node000012" class="node">
<title>Node12</title>
<g id="a_Node000012"><a xlink:href="time_8hpp.html" target="_top" xlink:title="DateTime data structure and utilities.">
<polygon fill="white" stroke="#666666" points="638,-90.5 504,-90.5 504,-71.5 638,-71.5 638,-90.5"/>
<text text-anchor="middle" x="571" y="-78.5" font-family="Helvetica,sans-Serif" font-size="10.00">Clock/misc_lib/time.hpp</text>
</a>
</g>
</g>
<!-- Node2&#45;&gt;Node12 -->
<g id="edge13_Node000002_Node000012" class="edge">
<title>Node2&#45;&gt;Node12</title>
<g id="a_edge13_Node000002_Node000012"><a xlink:title=" ">
<path fill="none" stroke="#63b8ff" d="M482.02,-131.95C501.31,-121.13 527.82,-106.24 546.88,-95.54"/>
<polygon fill="#63b8ff" stroke="#63b8ff" points="548.82,-98.46 555.83,-90.52 545.4,-92.36 548.82,-98.46"/>
</a>
</g>
</g>
<!-- Node10&#45;&gt;Node3 -->
<g id="edge10_Node000010_Node000003" class="edge">
<title>Node10&#45;&gt;Node3</title>
<g id="a_edge10_Node000010_Node000003"><a xlink:title=" ">
<path fill="none" stroke="#63b8ff" d="M344.56,-71.37C347.35,-61.97 351.89,-46.67 355.5,-34.53"/>
<polygon fill="#63b8ff" stroke="#63b8ff" points="358.87,-35.49 358.36,-24.91 352.15,-33.5 358.87,-35.49"/>
</a>
</g>
</g>
<!-- Node10&#45;&gt;Node6 -->
<g id="edge11_Node000010_Node000006" class="edge">
<title>Node10&#45;&gt;Node6</title>
<g id="a_edge11_Node000010_Node000006"><a xlink:title=" ">
<path fill="none" stroke="#63b8ff" d="M306.28,-71.47C266.71,-61.89 201.08,-45.64 145,-30 142.04,-29.17 138.98,-28.3 135.91,-27.4"/>
<polygon fill="#63b8ff" stroke="#63b8ff" points="136.76,-24 126.18,-24.5 134.77,-30.71 136.76,-24"/>
</a>
</g>
</g>
<!-- Node11 -->
<g id="Node000011" class="node">
<title>Node11</title>
<g id="a_Node000011"><a xlink:title=" ">
<polygon fill="#e0e0e0" stroke="#999999" points="270,-30 154,-30 154,0 270,0 270,-30"/>
<text text-anchor="start" x="162" y="-18" font-family="Helvetica,sans-Serif" font-size="10.00">boost/multiprecision</text>
<text text-anchor="middle" x="212" y="-7" font-family="Helvetica,sans-Serif" font-size="10.00">/cpp_bin_float.hpp</text>
</a>
</g>
</g>
<!-- Node10&#45;&gt;Node11 -->
<g id="edge12_Node000010_Node000011" class="edge">
<title>Node10&#45;&gt;Node11</title>
<g id="a_edge12_Node000010_Node000011"><a xlink:title=" ">
<path fill="none" stroke="#63b8ff" d="M324.47,-71.37C305.42,-61.99 274.4,-46.72 249.77,-34.59"/>
<polygon fill="#63b8ff" stroke="#63b8ff" points="251.19,-31.39 240.67,-30.12 248.1,-37.67 251.19,-31.39"/>
</a>
</g>
</g>
<!-- Node12&#45;&gt;Node3 -->
<g id="edge14_Node000012_Node000003" class="edge">
<title>Node12&#45;&gt;Node3</title>
<g id="a_edge14_Node000012_Node000003"><a xlink:title=" ">
<path fill="none" stroke="#63b8ff" d="M542.68,-71.37C505.55,-60.05 440.29,-40.16 398.92,-27.56"/>
<polygon fill="#63b8ff" stroke="#63b8ff" points="399.79,-24.16 389.21,-24.6 397.75,-30.86 399.79,-24.16"/>
</a>
</g>
</g>
<!-- Node12&#45;&gt;Node5 -->
<g id="edge15_Node000012_Node000005" class="edge">
<title>Node12&#45;&gt;Node5</title>
<g id="a_edge15_Node000012_Node000005"><a xlink:title=" ">
<path fill="none" stroke="#63b8ff" d="M503.9,-73.81C366.23,-61.07 63.78,-32.87 53,-30 51.31,-29.55 49.6,-29.02 47.9,-28.43"/>
<polygon fill="#63b8ff" stroke="#63b8ff" points="48.95,-25.08 38.36,-24.59 46.33,-31.57 48.95,-25.08"/>
</a>
</g>
</g>
<!-- Node12&#45;&gt;Node7 -->
<g id="edge17_Node000012_Node000007" class="edge">
<title>Node12&#45;&gt;Node7</title>
<g id="a_edge17_Node000012_Node000007"><a xlink:title=" ">
<path fill="none" stroke="#63b8ff" d="M566.28,-71.37C561.79,-63.16 554.83,-50.44 548.72,-39.26"/>
<polygon fill="#63b8ff" stroke="#63b8ff" points="551.72,-37.45 543.85,-30.36 545.58,-40.81 551.72,-37.45"/>
</a>
</g>
</g>
<!-- Node13 -->
<g id="Node000013" class="node">
<title>Node13</title>
<g id="a_Node000013"><a xlink:title=" ">
<polygon fill="#e0e0e0" stroke="#999999" points="795.5,-30 638.5,-30 638.5,0 795.5,0 795.5,-30"/>
<text text-anchor="start" x="646.5" y="-18" font-family="Helvetica,sans-Serif" font-size="10.00">boost/date_time/posix</text>
<text text-anchor="middle" x="717" y="-7" font-family="Helvetica,sans-Serif" font-size="10.00">_time/posix_time_config.hpp</text>
</a>
</g>
</g>
<!-- Node12&#45;&gt;Node13 -->
<g id="edge16_Node000012_Node000013" class="edge">
<title>Node12&#45;&gt;Node13</title>
<g id="a_edge16_Node000012_Node000013"><a xlink:title=" ">
<path fill="none" stroke="#63b8ff" d="M590.69,-71.37C612.27,-61.91 647.53,-46.45 675.32,-34.27"/>
<polygon fill="#63b8ff" stroke="#63b8ff" points="677.05,-37.34 684.8,-30.12 674.23,-30.92 677.05,-37.34"/>
</a>
</g>
</g>
<!-- Node12&#45;&gt;Node14 -->
<g id="edge18_Node000012_Node000014" class="edge">
<title>Node12&#45;&gt;Node14</title>
<g id="a_edge18_Node000012_Node000014"><a xlink:title=" ">
<path fill="none" stroke="#63b8ff" d="M613.42,-71.44C663.13,-61.4 746.54,-44.56 808.41,-32.07"/>
<polygon fill="#63b8ff" stroke="#63b8ff" points="809.42,-35.43 818.53,-30.02 808.04,-28.57 809.42,-35.43"/>
</a>
</g>
</g>
<!-- Node12&#45;&gt;Node15 -->
<g id="edge19_Node000012_Node000015" class="edge">
<title>Node12&#45;&gt;Node15</title>
<g id="a_edge19_Node000012_Node000015"><a xlink:title=" ">
<path fill="none" stroke="#63b8ff" d="M614.32,-71.47C624.98,-69.52 636.38,-67.57 647,-66 787.12,-45.34 825.96,-51.03 969.71,-30.12"/>
<polygon fill="#63b8ff" stroke="#63b8ff" points="970.41,-33.55 979.79,-28.63 969.39,-26.63 970.41,-33.55"/>
</a>
</g>
</g>
</g>
</svg>
