<?xml version="1.0" encoding="UTF-8" standalone="no"?>
<!DOCTYPE svg PUBLIC "-//W3C//DTD SVG 1.1//EN"
 "http://www.w3.org/Graphics/SVG/1.1/DTD/svg11.dtd">
<!-- Generated by graphviz version 2.43.0 (0)
 -->
<!-- Title: main Pages: 1 -->
<svg width="758pt" height="850pt"
 viewBox="0.00 0.00 758.00 850.00" xmlns="http://www.w3.org/2000/svg" xmlns:xlink="http://www.w3.org/1999/xlink">
<g id="graph0" class="graph" transform="scale(1 1) rotate(0) translate(4 846)">
<title>main</title>
<!-- Node1 -->
<g id="Node000001" class="node">
<title>Node1</title>
<g id="a_Node000001"><a xlink:title="Main entry point for the Si3 simulation tool.">
<polygon fill="#999999" stroke="#666666" points="41,-388.5 0,-388.5 0,-369.5 41,-369.5 41,-388.5"/>
<text text-anchor="middle" x="20.5" y="-376.5" font-family="Helvetica,sans-Serif" font-size="10.00">main</text>
</a>
</g>
</g>
<!-- Node2 -->
<g id="Node000002" class="node">
<title>Node2</title>
<g id="a_Node000002"><a xlink:href="structclk_1_1si3__sim_1_1Config.html#a7fce10cd194d7e9c0ca8b3482f42040a" target="_top" xlink:title=" ">
<polygon fill="white" stroke="#666666" points="189.5,-442 78.5,-442 78.5,-412 189.5,-412 189.5,-442"/>
<text text-anchor="start" x="86.5" y="-430" font-family="Helvetica,sans-Serif" font-size="10.00">clk::si3_sim::Config</text>
<text text-anchor="middle" x="134" y="-419" font-family="Helvetica,sans-Serif" font-size="10.00">::addRunRecord</text>
</a>
</g>
</g>
<!-- Node1&#45;&gt;Node2 -->
<g id="edge1_Node000001_Node000002" class="edge">
<title>Node1&#45;&gt;Node2</title>
<g id="a_edge1_Node000001_Node000002"><a xlink:title=" ">
<path fill="none" stroke="#63b8ff" d="M41.01,-387.46C51.65,-392.06 65.04,-397.85 77,-403 80.67,-404.58 84.47,-406.21 88.29,-407.85"/>
<polygon fill="#63b8ff" stroke="#63b8ff" points="87.17,-411.18 97.74,-411.91 89.93,-404.75 87.17,-411.18"/>
</a>
</g>
</g>
<!-- Node3 -->
<g id="Node000003" class="node">
<title>Node3</title>
<g id="a_Node000003"><a xlink:href="structclk_1_1si3__sim_1_1Si3Sim.html#a64baf869324064ea80664905356dc872" target="_top" xlink:title="Generate the data for the si3 sim.">
<polygon fill="white" stroke="#666666" points="191,-394 77,-394 77,-364 191,-364 191,-394"/>
<text text-anchor="start" x="85" y="-382" font-family="Helvetica,sans-Serif" font-size="10.00">clk::si3_sim::Si3Sim</text>
<text text-anchor="middle" x="134" y="-371" font-family="Helvetica,sans-Serif" font-size="10.00">::generateData</text>
</a>
</g>
</g>
<!-- Node1&#45;&gt;Node3 -->
<g id="edge2_Node000001_Node000003" class="edge">
<title>Node1&#45;&gt;Node3</title>
<g id="a_edge2_Node000001_Node000003"><a xlink:title=" ">
<path fill="none" stroke="#63b8ff" d="M41.18,-379C48.52,-379 57.33,-379 66.55,-379"/>
<polygon fill="#63b8ff" stroke="#63b8ff" points="66.66,-382.5 76.66,-379 66.66,-375.5 66.66,-382.5"/>
</a>
</g>
</g>
<!-- Node34 -->
<g id="Node000034" class="node">
<title>Node34</title>
<g id="a_Node000034"><a xlink:href="structclk_1_1si3__sim_1_1Config.html#a09f0cc8c38c23a276f293cf8edcd1925" target="_top" xlink:title="Read a configuration from a file.">
<polygon fill="white" stroke="#666666" points="189.5,-210 78.5,-210 78.5,-180 189.5,-180 189.5,-210"/>
<text text-anchor="start" x="86.5" y="-198" font-family="Helvetica,sans-Serif" font-size="10.00">clk::si3_sim::Config</text>
<text text-anchor="middle" x="134" y="-187" font-family="Helvetica,sans-Serif" font-size="10.00">::readFromFile</text>
</a>
</g>
</g>
<!-- Node1&#45;&gt;Node34 -->
<g id="edge38_Node000001_Node000034" class="edge">
<title>Node1&#45;&gt;Node34</title>
<g id="a_edge38_Node000001_Node000034"><a xlink:title=" ">
<path fill="none" stroke="#63b8ff" d="M27.34,-369.37C44.26,-341.45 93.69,-259.87 118.48,-218.97"/>
<polygon fill="#63b8ff" stroke="#63b8ff" points="121.6,-220.56 123.79,-210.2 115.62,-216.93 121.6,-220.56"/>
</a>
</g>
</g>
<!-- Node4 -->
<g id="Node000004" class="node">
<title>Node4</title>
<g id="a_Node000004"><a xlink:href="structclk_1_1si3__sim_1_1Config.html#a9bd9f88fbb1b213a7a31478efebd6ed7" target="_top" xlink:title=" ">
<polygon fill="white" stroke="#666666" points="352.5,-581 241.5,-581 241.5,-551 352.5,-551 352.5,-581"/>
<text text-anchor="start" x="249.5" y="-569" font-family="Helvetica,sans-Serif" font-size="10.00">clk::si3_sim::Config</text>
<text text-anchor="middle" x="297" y="-558" font-family="Helvetica,sans-Serif" font-size="10.00">::driftRate</text>
</a>
</g>
</g>
<!-- Node3&#45;&gt;Node4 -->
<g id="edge3_Node000003_Node000004" class="edge">
<title>Node3&#45;&gt;Node4</title>
<g id="a_edge3_Node000003_Node000004"><a xlink:title=" ">
<path fill="none" stroke="#63b8ff" d="M180.64,-394.03C184.49,-396.58 188.04,-399.55 191,-403 232.58,-451.41 183.75,-495.08 227,-542 228.77,-543.92 230.7,-545.68 232.75,-547.31"/>
<polygon fill="#63b8ff" stroke="#63b8ff" points="230.93,-550.3 241.2,-552.89 234.79,-544.46 230.93,-550.3"/>
</a>
</g>
</g>
<!-- Node5 -->
<g id="Node000005" class="node">
<title>Node5</title>
<g id="a_Node000005"><a xlink:href="structclk_1_1si3__sim_1_1Config.html#a759cda6d176130bde73fdec9c7ce2284" target="_top" xlink:title=" ">
<polygon fill="white" stroke="#666666" points="352.5,-533 241.5,-533 241.5,-503 352.5,-503 352.5,-533"/>
<text text-anchor="start" x="249.5" y="-521" font-family="Helvetica,sans-Serif" font-size="10.00">clk::si3_sim::Config</text>
<text text-anchor="middle" x="297" y="-510" font-family="Helvetica,sans-Serif" font-size="10.00">::endTime</text>
</a>
</g>
</g>
<!-- Node3&#45;&gt;Node5 -->
<g id="edge4_Node000003_Node000005" class="edge">
<title>Node3&#45;&gt;Node5</title>
<g id="a_edge4_Node000003_Node000005"><a xlink:title=" ">
<path fill="none" stroke="#63b8ff" d="M179.66,-394.08C183.8,-396.63 187.68,-399.59 191,-403 221.32,-434.19 195.61,-463.9 227,-494 228.71,-495.64 230.54,-497.17 232.46,-498.59"/>
<polygon fill="#63b8ff" stroke="#63b8ff" points="231.05,-501.84 241.38,-504.2 234.78,-495.92 231.05,-501.84"/>
</a>
</g>
</g>
<!-- Node6 -->
<g id="Node000006" class="node">
<title>Node6</title>
<g id="a_Node000006"><a xlink:href="structclk_1_1si3__sim_1_1Config.html#a448cc5eca66f692912a052a70765be43" target="_top" xlink:title=" ">
<polygon fill="white" stroke="#666666" points="352.5,-485 241.5,-485 241.5,-455 352.5,-455 352.5,-485"/>
<text text-anchor="start" x="249.5" y="-473" font-family="Helvetica,sans-Serif" font-size="10.00">clk::si3_sim::Config</text>
<text text-anchor="middle" x="297" y="-462" font-family="Helvetica,sans-Serif" font-size="10.00">::lastRunRecord</text>
</a>
</g>
</g>
<!-- Node3&#45;&gt;Node6 -->
<g id="edge5_Node000003_Node000006" class="edge">
<title>Node3&#45;&gt;Node6</title>
<g id="a_edge5_Node000003_Node000006"><a xlink:title=" ">
<path fill="none" stroke="#63b8ff" d="M176.31,-394.03C181.46,-396.67 186.5,-399.66 191,-403 211,-417.87 206.49,-431.84 227,-446 229.15,-447.48 231.39,-448.88 233.71,-450.2"/>
<polygon fill="#63b8ff" stroke="#63b8ff" points="232.43,-453.48 242.93,-454.9 235.61,-447.24 232.43,-453.48"/>
</a>
</g>
</g>
<!-- Node7 -->
<g id="Node000007" class="node">
<title>Node7</title>
<g id="a_Node000007"><a xlink:href="structclk_1_1si3__sim_1_1Si3Sim.html#ac25a7d32cb0802f01b1796c979cd9771" target="_top" xlink:title="find the first measurement event after the current time">
<polygon fill="white" stroke="#666666" points="367,-437 227,-437 227,-407 367,-407 367,-437"/>
<text text-anchor="start" x="235" y="-425" font-family="Helvetica,sans-Serif" font-size="10.00">clk::si3_sim::Si3Sim</text>
<text text-anchor="middle" x="297" y="-414" font-family="Helvetica,sans-Serif" font-size="10.00">::nextMeasurementEvent</text>
</a>
</g>
</g>
<!-- Node3&#45;&gt;Node7 -->
<g id="edge6_Node000003_Node000007" class="edge">
<title>Node3&#45;&gt;Node7</title>
<g id="a_edge6_Node000003_Node000007"><a xlink:title=" ">
<path fill="none" stroke="#63b8ff" d="M191.31,-394.04C203.81,-397.38 217.17,-400.95 230.02,-404.38"/>
<polygon fill="#63b8ff" stroke="#63b8ff" points="229.16,-407.77 239.72,-406.97 230.96,-401.01 229.16,-407.77"/>
</a>
</g>
</g>
<!-- Node16 -->
<g id="Node000016" class="node">
<title>Node16</title>
<g id="a_Node000016"><a xlink:href="structclk_1_1misc__lib_1_1DateTime.html#ae13f5a3680b8cb0f362850c43d86b329" target="_top" xlink:title="Get the time of day of the time point.">
<polygon fill="white" stroke="#666666" points="546,-394 415,-394 415,-364 546,-364 546,-394"/>
<text text-anchor="start" x="423" y="-382" font-family="Helvetica,sans-Serif" font-size="10.00">clk::misc_lib::DateTime</text>
<text text-anchor="middle" x="480.5" y="-371" font-family="Helvetica,sans-Serif" font-size="10.00">::timeOfDay</text>
</a>
</g>
</g>
<!-- Node3&#45;&gt;Node16 -->
<g id="edge27_Node000003_Node000016" class="edge">
<title>Node3&#45;&gt;Node16</title>
<g id="a_edge27_Node000003_Node000016"><a xlink:title=" ">
<path fill="none" stroke="#63b8ff" d="M191.12,-379C249.3,-379 340.58,-379 404.83,-379"/>
<polygon fill="#63b8ff" stroke="#63b8ff" points="404.9,-382.5 414.9,-379 404.9,-375.5 404.9,-382.5"/>
</a>
</g>
</g>
<!-- Node17 -->
<g id="Node000017" class="node">
<title>Node17</title>
<g id="a_Node000017"><a xlink:href="structclk_1_1si3__sim_1_1Si3Sim.html#a9e67ccf25001ad917a3d183febee082a" target="_top" xlink:title="Get the start time for the next occurance of the measurement event.">
<polygon fill="white" stroke="#666666" points="354,-351 240,-351 240,-321 354,-321 354,-351"/>
<text text-anchor="start" x="248" y="-339" font-family="Helvetica,sans-Serif" font-size="10.00">clk::si3_sim::Si3Sim</text>
<text text-anchor="middle" x="297" y="-328" font-family="Helvetica,sans-Serif" font-size="10.00">::nextStart</text>
</a>
</g>
</g>
<!-- Node3&#45;&gt;Node17 -->
<g id="edge16_Node000003_Node000017" class="edge">
<title>Node3&#45;&gt;Node17</title>
<g id="a_edge16_Node000003_Node000017"><a xlink:title=" ">
<path fill="none" stroke="#63b8ff" d="M191.31,-363.96C203.88,-360.6 217.32,-357.01 230.24,-353.56"/>
<polygon fill="#63b8ff" stroke="#63b8ff" points="231.24,-356.92 239.99,-350.96 229.43,-350.16 231.24,-356.92"/>
</a>
</g>
</g>
<!-- Node19 -->
<g id="Node000019" class="node">
<title>Node19</title>
<g id="a_Node000019"><a xlink:href="structclk_1_1misc__lib_1_1DateTime.html#a7310aa8f1068883206cec0f07b493b7d" target="_top" xlink:title="Set the time of day for the time point.">
<polygon fill="white" stroke="#666666" points="546,-260 415,-260 415,-230 546,-230 546,-260"/>
<text text-anchor="start" x="423" y="-248" font-family="Helvetica,sans-Serif" font-size="10.00">clk::misc_lib::DateTime</text>
<text text-anchor="middle" x="480.5" y="-237" font-family="Helvetica,sans-Serif" font-size="10.00">::setTime</text>
</a>
</g>
</g>
<!-- Node3&#45;&gt;Node19 -->
<g id="edge24_Node000003_Node000019" class="edge">
<title>Node3&#45;&gt;Node19</title>
<g id="a_edge24_Node000003_Node000019"><a xlink:title=" ">
<path fill="none" stroke="#63b8ff" d="M151.74,-363.82C169.29,-348.65 198.28,-325.68 227,-312 231.29,-309.96 338.21,-281.87 411.52,-262.71"/>
<polygon fill="#63b8ff" stroke="#63b8ff" points="412.84,-265.99 421.63,-260.07 411.07,-259.21 412.84,-265.99"/>
</a>
</g>
</g>
<!-- Node21 -->
<g id="Node000021" class="node">
<title>Node21</title>
<g id="a_Node000021"><a xlink:href="structclk_1_1misc__lib_1_1DateTime.html#a7165ad31ae2540b4f19a784f9310c17e" target="_top" xlink:title="Get the difference in seconds between two DateTime objects.">
<polygon fill="white" stroke="#666666" points="362.5,-265 231.5,-265 231.5,-235 362.5,-235 362.5,-265"/>
<text text-anchor="start" x="239.5" y="-253" font-family="Helvetica,sans-Serif" font-size="10.00">clk::misc_lib::DateTime</text>
<text text-anchor="middle" x="297" y="-242" font-family="Helvetica,sans-Serif" font-size="10.00">::secondsSince</text>
</a>
</g>
</g>
<!-- Node3&#45;&gt;Node21 -->
<g id="edge23_Node000003_Node000021" class="edge">
<title>Node3&#45;&gt;Node21</title>
<g id="a_edge23_Node000003_Node000021"><a xlink:title=" ">
<path fill="none" stroke="#63b8ff" d="M145.58,-363.89C161.24,-342.49 192.45,-303.28 227,-279 231.9,-275.55 237.28,-272.41 242.8,-269.57"/>
<polygon fill="#63b8ff" stroke="#63b8ff" points="244.67,-272.55 252.17,-265.07 241.64,-266.24 244.67,-272.55"/>
</a>
</g>
</g>
<!-- Node22 -->
<g id="Node000022" class="node">
<title>Node22</title>
<g id="a_Node000022"><a xlink:href="structclk_1_1si3__sim_1_1Config.html#a9bafe691f3cf10222343c68156f4455d" target="_top" xlink:title=" ">
<polygon fill="white" stroke="#666666" points="352.5,-217 241.5,-217 241.5,-187 352.5,-187 352.5,-217"/>
<text text-anchor="start" x="249.5" y="-205" font-family="Helvetica,sans-Serif" font-size="10.00">clk::si3_sim::Config</text>
<text text-anchor="middle" x="297" y="-194" font-family="Helvetica,sans-Serif" font-size="10.00">::startFrequency</text>
</a>
</g>
</g>
<!-- Node3&#45;&gt;Node22 -->
<g id="edge25_Node000003_Node000022" class="edge">
<title>Node3&#45;&gt;Node22</title>
<g id="a_edge25_Node000003_Node000022"><a xlink:title=" ">
<path fill="none" stroke="#63b8ff" d="M140.19,-363.57C151.26,-332.93 180.08,-264.1 227,-226 228.76,-224.57 230.61,-223.22 232.53,-221.96"/>
<polygon fill="#63b8ff" stroke="#63b8ff" points="234.42,-224.91 241.33,-216.88 230.92,-218.85 234.42,-224.91"/>
</a>
</g>
</g>
<!-- Node23 -->
<g id="Node000023" class="node">
<title>Node23</title>
<g id="a_Node000023"><a xlink:href="structclk_1_1si3__sim_1_1Config.html#a10475920ce0b73bda6b5f39d63d9bdde" target="_top" xlink:title=" ">
<polygon fill="white" stroke="#666666" points="352.5,-169 241.5,-169 241.5,-139 352.5,-139 352.5,-169"/>
<text text-anchor="start" x="249.5" y="-157" font-family="Helvetica,sans-Serif" font-size="10.00">clk::si3_sim::Config</text>
<text text-anchor="middle" x="297" y="-146" font-family="Helvetica,sans-Serif" font-size="10.00">::startTime</text>
</a>
</g>
</g>
<!-- Node3&#45;&gt;Node23 -->
<g id="edge26_Node000003_Node000023" class="edge">
<title>Node3&#45;&gt;Node23</title>
<g id="a_edge26_Node000003_Node000023"><a xlink:title=" ">
<path fill="none" stroke="#63b8ff" d="M137.73,-363.74C145.17,-326.57 169.23,-230.55 227,-178 228.72,-176.44 230.54,-174.98 232.44,-173.61"/>
<polygon fill="#63b8ff" stroke="#63b8ff" points="234.56,-176.42 241.25,-168.21 230.9,-170.46 234.56,-176.42"/>
</a>
</g>
</g>
<!-- Node24 -->
<g id="Node000024" class="node">
<title>Node24</title>
<g id="a_Node000024"><a xlink:href="structclk_1_1misc__lib_1_1DateTime.html#add09b1cd23d7e28e8c6fbb70bd7b4553" target="_top" xlink:title="Convert the DateTime object to a Unix timestamp in milliseconds.">
<polygon fill="white" stroke="#666666" points="362.5,-121 231.5,-121 231.5,-91 362.5,-91 362.5,-121"/>
<text text-anchor="start" x="239.5" y="-109" font-family="Helvetica,sans-Serif" font-size="10.00">clk::misc_lib::DateTime</text>
<text text-anchor="middle" x="297" y="-98" font-family="Helvetica,sans-Serif" font-size="10.00">::toMilliUnixTimestamp</text>
</a>
</g>
</g>
<!-- Node3&#45;&gt;Node24 -->
<g id="edge28_Node000003_Node000024" class="edge">
<title>Node3&#45;&gt;Node24</title>
<g id="a_edge28_Node000003_Node000024"><a xlink:title=" ">
<path fill="none" stroke="#63b8ff" d="M140.26,-363.67C158.45,-310.78 218.1,-138.73 227,-130 228.1,-128.92 229.26,-127.88 230.46,-126.9"/>
<polygon fill="#63b8ff" stroke="#63b8ff" points="232.7,-129.6 238.93,-121.03 228.71,-123.85 232.7,-129.6"/>
</a>
</g>
</g>
<!-- Node25 -->
<g id="Node000025" class="node">
<title>Node25</title>
<g id="a_Node000025"><a xlink:href="structclk_1_1misc__lib_1_1DateTime.html#ac4e7544ff9c40a8b93aab2fbdd5ea707" target="_top" xlink:title="Convert the DateTime object to a simple string representation.">
<polygon fill="white" stroke="#666666" points="362.5,-725 231.5,-725 231.5,-695 362.5,-695 362.5,-725"/>
<text text-anchor="start" x="239.5" y="-713" font-family="Helvetica,sans-Serif" font-size="10.00">clk::misc_lib::DateTime</text>
<text text-anchor="middle" x="297" y="-702" font-family="Helvetica,sans-Serif" font-size="10.00">::toSimpleString</text>
</a>
</g>
</g>
<!-- Node3&#45;&gt;Node25 -->
<g id="edge29_Node000003_Node000025" class="edge">
<title>Node3&#45;&gt;Node25</title>
<g id="a_edge29_Node000003_Node000025"><a xlink:title=" ">
<path fill="none" stroke="#63b8ff" d="M181.62,-394.02C185.18,-396.57 188.39,-399.54 191,-403 267.35,-504.23 147.15,-587.51 227,-686 227.61,-686.75 228.25,-687.48 228.91,-688.19"/>
<polygon fill="#63b8ff" stroke="#63b8ff" points="226.9,-691.08 236.77,-694.93 231.45,-685.77 226.9,-691.08"/>
</a>
</g>
</g>
<!-- Node32 -->
<g id="Node000032" class="node">
<title>Node32</title>
<g id="a_Node000032"><a xlink:href="structclk_1_1si3__sim_1_1Config.html#a79c68f770974d265b018338fd42b259f" target="_top" xlink:title="Update the last run record for the simulation.">
<polygon fill="white" stroke="#666666" points="361.5,-677 232.5,-677 232.5,-647 361.5,-647 361.5,-677"/>
<text text-anchor="start" x="240.5" y="-665" font-family="Helvetica,sans-Serif" font-size="10.00">clk::si3_sim::Config</text>
<text text-anchor="middle" x="297" y="-654" font-family="Helvetica,sans-Serif" font-size="10.00">::updateLastRunRecord</text>
</a>
</g>
</g>
<!-- Node3&#45;&gt;Node32 -->
<g id="edge36_Node000003_Node000032" class="edge">
<title>Node3&#45;&gt;Node32</title>
<g id="a_edge36_Node000003_Node000032"><a xlink:title=" ">
<path fill="none" stroke="#63b8ff" d="M181.53,-394.1C185.1,-396.63 188.34,-399.57 191,-403 255.7,-486.54 159.41,-556.78 227,-638 227.62,-638.75 228.27,-639.47 228.94,-640.17"/>
<polygon fill="#63b8ff" stroke="#63b8ff" points="226.96,-643.09 236.86,-646.85 231.47,-637.73 226.96,-643.09"/>
</a>
</g>
</g>
<!-- Node33 -->
<g id="Node000033" class="node">
<title>Node33</title>
<g id="a_Node000033"><a xlink:href="structclk_1_1si3__sim_1_1Config.html#a5db56278c848137d84f616f05e9d6232" target="_top" xlink:title=" ">
<polygon fill="white" stroke="#666666" points="358.5,-629 235.5,-629 235.5,-599 358.5,-599 358.5,-629"/>
<text text-anchor="start" x="243.5" y="-617" font-family="Helvetica,sans-Serif" font-size="10.00">clk::si3_sim::Config</text>
<text text-anchor="middle" x="297" y="-606" font-family="Helvetica,sans-Serif" font-size="10.00">::useUnixTimestamps</text>
</a>
</g>
</g>
<!-- Node3&#45;&gt;Node33 -->
<g id="edge37_Node000003_Node000033" class="edge">
<title>Node3&#45;&gt;Node33</title>
<g id="a_edge37_Node000003_Node000033"><a xlink:title=" ">
<path fill="none" stroke="#63b8ff" d="M181.13,-394.02C184.83,-396.57 188.21,-399.54 191,-403 244.09,-468.92 171.63,-525.99 227,-590 227.75,-590.86 228.53,-591.7 229.34,-592.5"/>
<polygon fill="#63b8ff" stroke="#63b8ff" points="227.35,-595.39 237.33,-598.94 231.74,-589.94 227.35,-595.39"/>
</a>
</g>
</g>
<!-- Node8 -->
<g id="Node000008" class="node">
<title>Node8</title>
<g id="a_Node000008"><a xlink:href="structclk_1_1si3__sim_1_1Config.html#a4a62ed93612e6e9ce4119903d0ae85b2" target="_top" xlink:title=" ">
<polygon fill="white" stroke="#666666" points="542.5,-490 418.5,-490 418.5,-460 542.5,-460 542.5,-490"/>
<text text-anchor="start" x="426.5" y="-478" font-family="Helvetica,sans-Serif" font-size="10.00">clk::si3_sim::Config</text>
<text text-anchor="middle" x="480.5" y="-467" font-family="Helvetica,sans-Serif" font-size="10.00">::measurementEvents</text>
</a>
</g>
</g>
<!-- Node7&#45;&gt;Node8 -->
<g id="edge7_Node000007_Node000008" class="edge">
<title>Node7&#45;&gt;Node8</title>
<g id="a_edge7_Node000007_Node000008"><a xlink:title=" ">
<path fill="none" stroke="#63b8ff" d="M349.53,-437.05C370.89,-443.28 395.84,-450.57 418.14,-457.08"/>
<polygon fill="#63b8ff" stroke="#63b8ff" points="417.27,-460.47 427.85,-459.92 419.23,-453.75 417.27,-460.47"/>
</a>
</g>
</g>
<!-- Node9 -->
<g id="Node000009" class="node">
<title>Node9</title>
<g id="a_Node000009"><a xlink:href="structclk_1_1si3__sim_1_1Si3Sim.html#aad0b41bfeec82f9da4e8447639bb8819" target="_top" xlink:title="Get the current schedule day.">
<polygon fill="white" stroke="#666666" points="537.5,-442 423.5,-442 423.5,-412 537.5,-412 537.5,-442"/>
<text text-anchor="start" x="431.5" y="-430" font-family="Helvetica,sans-Serif" font-size="10.00">clk::si3_sim::Si3Sim</text>
<text text-anchor="middle" x="480.5" y="-419" font-family="Helvetica,sans-Serif" font-size="10.00">::scheduleDay</text>
</a>
</g>
</g>
<!-- Node7&#45;&gt;Node9 -->
<g id="edge8_Node000007_Node000009" class="edge">
<title>Node7&#45;&gt;Node9</title>
<g id="a_edge8_Node000007_Node000009"><a xlink:title=" ">
<path fill="none" stroke="#63b8ff" d="M367.14,-423.9C382.19,-424.32 398.09,-424.76 413.05,-425.17"/>
<polygon fill="#63b8ff" stroke="#63b8ff" points="413.13,-428.67 423.22,-425.45 413.32,-421.68 413.13,-428.67"/>
</a>
</g>
</g>
<!-- Node7&#45;&gt;Node16 -->
<g id="edge15_Node000007_Node000016" class="edge">
<title>Node7&#45;&gt;Node16</title>
<g id="a_edge15_Node000007_Node000016"><a xlink:title=" ">
<path fill="none" stroke="#63b8ff" d="M361.48,-406.96C375.85,-403.56 391.22,-399.91 405.97,-396.42"/>
<polygon fill="#63b8ff" stroke="#63b8ff" points="407.13,-399.74 416.06,-394.03 405.52,-392.93 407.13,-399.74"/>
</a>
</g>
</g>
<!-- Node10 -->
<g id="Node000010" class="node">
<title>Node10</title>
<g id="a_Node000010"><a xlink:href="structclk_1_1misc__lib_1_1DateTime.html#aa39a8d12e8298c9d2839d00655a40e25" target="_top" xlink:title="Get the day of the month of the time point.">
<polygon fill="white" stroke="#666666" points="737.5,-490 606.5,-490 606.5,-460 737.5,-460 737.5,-490"/>
<text text-anchor="start" x="614.5" y="-478" font-family="Helvetica,sans-Serif" font-size="10.00">clk::misc_lib::DateTime</text>
<text text-anchor="middle" x="672" y="-467" font-family="Helvetica,sans-Serif" font-size="10.00">::dayOfMonth</text>
</a>
</g>
</g>
<!-- Node9&#45;&gt;Node10 -->
<g id="edge9_Node000009_Node000010" class="edge">
<title>Node9&#45;&gt;Node10</title>
<g id="a_edge9_Node000009_Node000010"><a xlink:title=" ">
<path fill="none" stroke="#63b8ff" d="M537.59,-441.21C557.75,-446.31 580.73,-452.14 601.87,-457.49"/>
<polygon fill="#63b8ff" stroke="#63b8ff" points="601.21,-460.93 611.76,-459.99 602.93,-454.15 601.21,-460.93"/>
</a>
</g>
</g>
<!-- Node11 -->
<g id="Node000011" class="node">
<title>Node11</title>
<g id="a_Node000011"><a xlink:href="structclk_1_1misc__lib_1_1DateTime.html#a745eee7ebd157f7f9090a5ef0f70ed67" target="_top" xlink:title="Get the weekday of the time point.">
<polygon fill="white" stroke="#666666" points="737.5,-442 606.5,-442 606.5,-412 737.5,-412 737.5,-442"/>
<text text-anchor="start" x="614.5" y="-430" font-family="Helvetica,sans-Serif" font-size="10.00">clk::misc_lib::DateTime</text>
<text text-anchor="middle" x="672" y="-419" font-family="Helvetica,sans-Serif" font-size="10.00">::dayOfWeek</text>
</a>
</g>
</g>
<!-- Node9&#45;&gt;Node11 -->
<g id="edge10_Node000009_Node000011" class="edge">
<title>Node9&#45;&gt;Node11</title>
<g id="a_edge10_Node000009_Node000011"><a xlink:title=" ">
<path fill="none" stroke="#63b8ff" d="M537.59,-427C555.99,-427 576.74,-427 596.3,-427"/>
<polygon fill="#63b8ff" stroke="#63b8ff" points="596.39,-430.5 606.39,-427 596.39,-423.5 596.39,-430.5"/>
</a>
</g>
</g>
<!-- Node12 -->
<g id="Node000012" class="node">
<title>Node12</title>
<g id="a_Node000012"><a xlink:href="structclk_1_1misc__lib_1_1DateTime.html#a9ecea33a44b419d4c7f1eb9ddfb45aaa" target="_top" xlink:title="Get the day of the year of the time point.">
<polygon fill="white" stroke="#666666" points="737.5,-394 606.5,-394 606.5,-364 737.5,-364 737.5,-394"/>
<text text-anchor="start" x="614.5" y="-382" font-family="Helvetica,sans-Serif" font-size="10.00">clk::misc_lib::DateTime</text>
<text text-anchor="middle" x="672" y="-371" font-family="Helvetica,sans-Serif" font-size="10.00">::dayOfYear</text>
</a>
</g>
</g>
<!-- Node9&#45;&gt;Node12 -->
<g id="edge11_Node000009_Node000012" class="edge">
<title>Node9&#45;&gt;Node12</title>
<g id="a_edge11_Node000009_Node000012"><a xlink:title=" ">
<path fill="none" stroke="#63b8ff" d="M537.59,-412.79C557.75,-407.69 580.73,-401.86 601.87,-396.51"/>
<polygon fill="#63b8ff" stroke="#63b8ff" points="602.93,-399.85 611.76,-394.01 601.21,-393.07 602.93,-399.85"/>
</a>
</g>
</g>
<!-- Node13 -->
<g id="Node000013" class="node">
<title>Node13</title>
<g id="a_Node000013"><a xlink:href="structclk_1_1si3__sim_1_1Config.html#aab4332af945fefc2b44e8694b0ba1caf" target="_top" xlink:title="Get the interval for the current schedule.">
<polygon fill="white" stroke="#666666" points="727.5,-346 616.5,-346 616.5,-316 727.5,-316 727.5,-346"/>
<text text-anchor="start" x="624.5" y="-334" font-family="Helvetica,sans-Serif" font-size="10.00">clk::si3_sim::Config</text>
<text text-anchor="middle" x="672" y="-323" font-family="Helvetica,sans-Serif" font-size="10.00">::interval</text>
</a>
</g>
</g>
<!-- Node9&#45;&gt;Node13 -->
<g id="edge12_Node000009_Node000013" class="edge">
<title>Node9&#45;&gt;Node13</title>
<g id="a_edge12_Node000009_Node000013"><a xlink:title=" ">
<path fill="none" stroke="#63b8ff" d="M537.76,-413.86C544.91,-410.92 551.86,-407.34 558,-403 579.77,-387.6 572.22,-370.38 594,-355 598.01,-352.17 602.36,-349.67 606.89,-347.45"/>
<polygon fill="#63b8ff" stroke="#63b8ff" points="608.62,-350.52 616.37,-343.3 605.81,-344.1 608.62,-350.52"/>
</a>
</g>
</g>
<!-- Node14 -->
<g id="Node000014" class="node">
<title>Node14</title>
<g id="a_Node000014"><a xlink:href="structclk_1_1misc__lib_1_1DateTime.html#a01d736f8e2fb0537bb0b94619c14a27f" target="_top" xlink:title="Get the Modified Julian Date (MJD) of the time point.">
<polygon fill="white" stroke="#666666" points="750,-575.5 594,-575.5 594,-556.5 750,-556.5 750,-575.5"/>
<text text-anchor="middle" x="672" y="-563.5" font-family="Helvetica,sans-Serif" font-size="10.00">clk::misc_lib::DateTime::mjd</text>
</a>
</g>
</g>
<!-- Node9&#45;&gt;Node14 -->
<g id="edge13_Node000009_Node000014" class="edge">
<title>Node9&#45;&gt;Node14</title>
<g id="a_edge13_Node000009_Node000014"><a xlink:title=" ">
<path fill="none" stroke="#63b8ff" d="M537.87,-438.07C545.25,-441.33 552.24,-445.55 558,-451 591.09,-482.33 559.95,-516.71 594,-547 595.76,-548.56 597.62,-550 599.57,-551.32"/>
<polygon fill="#63b8ff" stroke="#63b8ff" points="598.17,-554.55 608.6,-556.42 601.61,-548.46 598.17,-554.55"/>
</a>
</g>
</g>
<!-- Node15 -->
<g id="Node000015" class="node">
<title>Node15</title>
<g id="a_Node000015"><a xlink:href="structclk_1_1si3__sim_1_1Config.html#a9f523338979bcb682cbd847579a6239d" target="_top" xlink:title=" ">
<polygon fill="white" stroke="#666666" points="727.5,-538 616.5,-538 616.5,-508 727.5,-508 727.5,-538"/>
<text text-anchor="start" x="624.5" y="-526" font-family="Helvetica,sans-Serif" font-size="10.00">clk::si3_sim::Config</text>
<text text-anchor="middle" x="672" y="-515" font-family="Helvetica,sans-Serif" font-size="10.00">::runSchedule</text>
</a>
</g>
</g>
<!-- Node9&#45;&gt;Node15 -->
<g id="edge14_Node000009_Node000015" class="edge">
<title>Node9&#45;&gt;Node15</title>
<g id="a_edge14_Node000009_Node000015"><a xlink:title=" ">
<path fill="none" stroke="#63b8ff" d="M537.76,-440.14C544.91,-443.08 551.86,-446.66 558,-451 579.77,-466.4 572.22,-483.62 594,-499 598.01,-501.83 602.36,-504.33 606.89,-506.55"/>
<polygon fill="#63b8ff" stroke="#63b8ff" points="605.81,-509.9 616.37,-510.7 608.62,-503.48 605.81,-509.9"/>
</a>
</g>
</g>
<!-- Node17&#45;&gt;Node9 -->
<g id="edge19_Node000017_Node000009" class="edge">
<title>Node17&#45;&gt;Node9</title>
<g id="a_edge19_Node000017_Node000009"><a xlink:title=" ">
<path fill="none" stroke="#63b8ff" d="M317.99,-351.04C338.46,-365.87 371.64,-388.39 403,-403 407.08,-404.9 411.36,-406.71 415.71,-408.41"/>
<polygon fill="#63b8ff" stroke="#63b8ff" points="414.73,-411.78 425.32,-411.97 417.16,-405.21 414.73,-411.78"/>
</a>
</g>
</g>
<!-- Node17&#45;&gt;Node13 -->
<g id="edge18_Node000017_Node000013" class="edge">
<title>Node17&#45;&gt;Node13</title>
<g id="a_edge18_Node000017_Node000013"><a xlink:title=" ">
<path fill="none" stroke="#63b8ff" d="M354.25,-335.25C421.85,-334.34 535.05,-332.82 606.24,-331.87"/>
<polygon fill="#63b8ff" stroke="#63b8ff" points="606.47,-335.37 616.42,-331.73 606.38,-328.37 606.47,-335.37"/>
</a>
</g>
</g>
<!-- Node17&#45;&gt;Node16 -->
<g id="edge22_Node000017_Node000016" class="edge">
<title>Node17&#45;&gt;Node16</title>
<g id="a_edge22_Node000017_Node000016"><a xlink:title=" ">
<path fill="none" stroke="#63b8ff" d="M354.43,-349.37C370.79,-353.24 388.88,-357.53 406.11,-361.61"/>
<polygon fill="#63b8ff" stroke="#63b8ff" points="405.6,-365.09 416.14,-363.99 407.22,-358.28 405.6,-365.09"/>
</a>
</g>
</g>
<!-- Node18 -->
<g id="Node000018" class="node">
<title>Node18</title>
<g id="a_Node000018"><a xlink:href="structclk_1_1misc__lib_1_1DateTime.html#a4014e2caac28d136ba7d692d8eac58e8" target="_top" xlink:title="Add days to the time point.">
<polygon fill="white" stroke="#666666" points="546,-308 415,-308 415,-278 546,-278 546,-308"/>
<text text-anchor="start" x="423" y="-296" font-family="Helvetica,sans-Serif" font-size="10.00">clk::misc_lib::DateTime</text>
<text text-anchor="middle" x="480.5" y="-285" font-family="Helvetica,sans-Serif" font-size="10.00">::addDays</text>
</a>
</g>
</g>
<!-- Node17&#45;&gt;Node18 -->
<g id="edge17_Node000017_Node000018" class="edge">
<title>Node17&#45;&gt;Node18</title>
<g id="a_edge17_Node000017_Node000018"><a xlink:title=" ">
<path fill="none" stroke="#63b8ff" d="M354.43,-322.63C370.79,-318.76 388.88,-314.47 406.11,-310.39"/>
<polygon fill="#63b8ff" stroke="#63b8ff" points="407.22,-313.72 416.14,-308.01 405.6,-306.91 407.22,-313.72"/>
</a>
</g>
</g>
<!-- Node17&#45;&gt;Node19 -->
<g id="edge20_Node000017_Node000019" class="edge">
<title>Node17&#45;&gt;Node19</title>
<g id="a_edge20_Node000017_Node000019"><a xlink:title=" ">
<path fill="none" stroke="#63b8ff" d="M341.77,-320.84C350.48,-316.94 359.31,-312.32 367,-307 386.13,-293.77 383.27,-281.32 403,-269 405.63,-267.36 408.38,-265.82 411.22,-264.38"/>
<polygon fill="#63b8ff" stroke="#63b8ff" points="412.87,-267.47 420.49,-260.11 409.94,-261.11 412.87,-267.47"/>
</a>
</g>
</g>
<!-- Node20 -->
<g id="Node000020" class="node">
<title>Node20</title>
<g id="a_Node000020"><a xlink:href="structclk_1_1misc__lib_1_1Time.html#aa9e0167590fe556b087e37cc83d8092a" target="_top" xlink:title="Returns the time as a boost time_duration object.">
<polygon fill="white" stroke="#666666" points="726,-260 618,-260 618,-230 726,-230 726,-260"/>
<text text-anchor="start" x="626" y="-248" font-family="Helvetica,sans-Serif" font-size="10.00">clk::misc_lib::Time</text>
<text text-anchor="middle" x="672" y="-237" font-family="Helvetica,sans-Serif" font-size="10.00">::toBoostDuration</text>
</a>
</g>
</g>
<!-- Node19&#45;&gt;Node20 -->
<g id="edge21_Node000019_Node000020" class="edge">
<title>Node19&#45;&gt;Node20</title>
<g id="a_edge21_Node000019_Node000020"><a xlink:title=" ">
<path fill="none" stroke="#63b8ff" d="M546.19,-245C566.09,-245 587.97,-245 607.77,-245"/>
<polygon fill="#63b8ff" stroke="#63b8ff" points="607.92,-248.5 617.92,-245 607.92,-241.5 607.92,-248.5"/>
</a>
</g>
</g>
<!-- Node26 -->
<g id="Node000026" class="node">
<title>Node26</title>
<g id="a_Node000026"><a xlink:href="structclk_1_1misc__lib_1_1DateTime.html#ac81376a4152c451232881cd4e39f78a4" target="_top" xlink:title="Get the day of the month of the time point.">
<polygon fill="white" stroke="#666666" points="558,-697.5 403,-697.5 403,-678.5 558,-678.5 558,-697.5"/>
<text text-anchor="middle" x="480.5" y="-685.5" font-family="Helvetica,sans-Serif" font-size="10.00">clk::misc_lib::DateTime::day</text>
</a>
</g>
</g>
<!-- Node25&#45;&gt;Node26 -->
<g id="edge30_Node000025_Node000026" class="edge">
<title>Node25&#45;&gt;Node26</title>
<g id="a_edge30_Node000025_Node000026"><a xlink:title=" ">
<path fill="none" stroke="#63b8ff" d="M362.5,-702.18C372.28,-701 382.51,-699.76 392.67,-698.52"/>
<polygon fill="#63b8ff" stroke="#63b8ff" points="393.28,-701.98 402.79,-697.3 392.44,-695.03 393.28,-701.98"/>
</a>
</g>
</g>
<!-- Node27 -->
<g id="Node000027" class="node">
<title>Node27</title>
<g id="a_Node000027"><a xlink:href="structclk_1_1misc__lib_1_1DateTime.html#a1cde9aba22c103a9a294b7a8b74dc1f0" target="_top" xlink:title="Get the hour of the time point.">
<polygon fill="white" stroke="#666666" points="546,-660 415,-660 415,-630 546,-630 546,-660"/>
<text text-anchor="start" x="423" y="-648" font-family="Helvetica,sans-Serif" font-size="10.00">clk::misc_lib::DateTime</text>
<text text-anchor="middle" x="480.5" y="-637" font-family="Helvetica,sans-Serif" font-size="10.00">::hour</text>
</a>
</g>
</g>
<!-- Node25&#45;&gt;Node27 -->
<g id="edge31_Node000025_Node000027" class="edge">
<title>Node25&#45;&gt;Node27</title>
<g id="a_edge31_Node000025_Node000027"><a xlink:title=" ">
<path fill="none" stroke="#63b8ff" d="M343.11,-694.92C351.11,-692.07 359.33,-689.03 367,-686 383.28,-679.56 386.66,-676.28 403,-670 408.82,-667.76 414.94,-665.55 421.07,-663.41"/>
<polygon fill="#63b8ff" stroke="#63b8ff" points="422.34,-666.67 430.67,-660.13 420.08,-660.05 422.34,-666.67"/>
</a>
</g>
</g>
<!-- Node28 -->
<g id="Node000028" class="node">
<title>Node28</title>
<g id="a_Node000028"><a xlink:href="structclk_1_1misc__lib_1_1DateTime.html#ae97747961f59194776a6aaac91c495c8" target="_top" xlink:title="Get the minute of the time point.">
<polygon fill="white" stroke="#666666" points="546,-612 415,-612 415,-582 546,-582 546,-612"/>
<text text-anchor="start" x="423" y="-600" font-family="Helvetica,sans-Serif" font-size="10.00">clk::misc_lib::DateTime</text>
<text text-anchor="middle" x="480.5" y="-589" font-family="Helvetica,sans-Serif" font-size="10.00">::minute</text>
</a>
</g>
</g>
<!-- Node25&#45;&gt;Node28 -->
<g id="edge32_Node000025_Node000028" class="edge">
<title>Node25&#45;&gt;Node28</title>
<g id="a_edge32_Node000025_Node000028"><a xlink:title=" ">
<path fill="none" stroke="#63b8ff" d="M353.5,-694.92C358.33,-692.38 362.93,-689.43 367,-686 392.26,-664.73 377.42,-641.88 403,-621 404.58,-619.71 406.22,-618.49 407.93,-617.34"/>
<polygon fill="#63b8ff" stroke="#63b8ff" points="410,-620.18 416.85,-612.1 406.46,-614.15 410,-620.18"/>
</a>
</g>
</g>
<!-- Node29 -->
<g id="Node000029" class="node">
<title>Node29</title>
<g id="a_Node000029"><a xlink:href="structclk_1_1misc__lib_1_1DateTime.html#ac50f63d7635c88323c21c0aea2c564fc" target="_top" xlink:title="Get the month of the time point.">
<polygon fill="white" stroke="#666666" points="546,-842 415,-842 415,-812 546,-812 546,-842"/>
<text text-anchor="start" x="423" y="-830" font-family="Helvetica,sans-Serif" font-size="10.00">clk::misc_lib::DateTime</text>
<text text-anchor="middle" x="480.5" y="-819" font-family="Helvetica,sans-Serif" font-size="10.00">::month</text>
</a>
</g>
</g>
<!-- Node25&#45;&gt;Node29 -->
<g id="edge33_Node000025_Node000029" class="edge">
<title>Node25&#45;&gt;Node29</title>
<g id="a_edge33_Node000025_Node000029"><a xlink:title=" ">
<path fill="none" stroke="#63b8ff" d="M311.11,-725.04C329.65,-745.45 365.48,-781.79 403,-803 406.06,-804.73 409.26,-806.35 412.55,-807.87"/>
<polygon fill="#63b8ff" stroke="#63b8ff" points="411.41,-811.19 421.98,-811.88 414.15,-804.75 411.41,-811.19"/>
</a>
</g>
</g>
<!-- Node30 -->
<g id="Node000030" class="node">
<title>Node30</title>
<g id="a_Node000030"><a xlink:href="structclk_1_1misc__lib_1_1DateTime.html#ac2f273b8491c35e2592547d4b126d7b5" target="_top" xlink:title="Get the second of the time point.">
<polygon fill="white" stroke="#666666" points="546,-794 415,-794 415,-764 546,-764 546,-794"/>
<text text-anchor="start" x="423" y="-782" font-family="Helvetica,sans-Serif" font-size="10.00">clk::misc_lib::DateTime</text>
<text text-anchor="middle" x="480.5" y="-771" font-family="Helvetica,sans-Serif" font-size="10.00">::seconds</text>
</a>
</g>
</g>
<!-- Node25&#45;&gt;Node30 -->
<g id="edge34_Node000025_Node000030" class="edge">
<title>Node25&#45;&gt;Node30</title>
<g id="a_edge34_Node000025_Node000030"><a xlink:title=" ">
<path fill="none" stroke="#63b8ff" d="M330.76,-725.05C351.3,-734.23 378.45,-745.91 403,-755 408.22,-756.93 413.68,-758.85 419.17,-760.7"/>
<polygon fill="#63b8ff" stroke="#63b8ff" points="418.46,-764.15 429.05,-763.97 420.66,-757.51 418.46,-764.15"/>
</a>
</g>
</g>
<!-- Node31 -->
<g id="Node000031" class="node">
<title>Node31</title>
<g id="a_Node000031"><a xlink:href="structclk_1_1misc__lib_1_1DateTime.html#a5c4d34170b277de1654221b6572c9c54" target="_top" xlink:title="Get the year of the time point.">
<polygon fill="white" stroke="#666666" points="546,-746 415,-746 415,-716 546,-716 546,-746"/>
<text text-anchor="start" x="423" y="-734" font-family="Helvetica,sans-Serif" font-size="10.00">clk::misc_lib::DateTime</text>
<text text-anchor="middle" x="480.5" y="-723" font-family="Helvetica,sans-Serif" font-size="10.00">::year</text>
</a>
</g>
</g>
<!-- Node25&#45;&gt;Node31 -->
<g id="edge35_Node000025_Node000031" class="edge">
<title>Node25&#45;&gt;Node31</title>
<g id="a_edge35_Node000025_Node000031"><a xlink:title=" ">
<path fill="none" stroke="#63b8ff" d="M362.5,-717.46C376.19,-719.05 390.76,-720.73 404.79,-722.36"/>
<polygon fill="#63b8ff" stroke="#63b8ff" points="404.56,-725.85 414.9,-723.53 405.37,-718.9 404.56,-725.85"/>
</a>
</g>
</g>
<!-- Node35 -->
<g id="Node000035" class="node">
<title>Node35</title>
<g id="a_Node000035"><a xlink:href="structclk_1_1si3__sim_1_1Config.html#ae133c6ff4f7f1fb61db327e051de8812" target="_top" xlink:title="read a configuration from a stream.">
<polygon fill="white" stroke="#666666" points="352.5,-73 241.5,-73 241.5,-43 352.5,-43 352.5,-73"/>
<text text-anchor="start" x="249.5" y="-61" font-family="Helvetica,sans-Serif" font-size="10.00">clk::si3_sim::Config</text>
<text text-anchor="middle" x="297" y="-50" font-family="Helvetica,sans-Serif" font-size="10.00">::read</text>
</a>
</g>
</g>
<!-- Node34&#45;&gt;Node35 -->
<g id="edge39_Node000034_Node000035" class="edge">
<title>Node34&#45;&gt;Node35</title>
<g id="a_edge39_Node000034_Node000035"><a xlink:title=" ">
<path fill="none" stroke="#63b8ff" d="M143.46,-179.94C157.69,-155.91 188.67,-108.85 227,-82 229.14,-80.5 231.37,-79.09 233.68,-77.76"/>
<polygon fill="#63b8ff" stroke="#63b8ff" points="235.59,-80.72 242.89,-73.03 232.39,-74.49 235.59,-80.72"/>
</a>
</g>
</g>
<!-- Node36 -->
<g id="Node000036" class="node">
<title>Node36</title>
<g id="a_Node000036"><a xlink:href="structclk_1_1misc__lib_1_1DateTime.html#a8285a717c550e0188b22488da5945c69" target="_top" xlink:title="Factory method to create a DateTime object from an ISO 8601 string.">
<polygon fill="white" stroke="#666666" points="737.5,-97 606.5,-97 606.5,-67 737.5,-67 737.5,-97"/>
<text text-anchor="start" x="614.5" y="-85" font-family="Helvetica,sans-Serif" font-size="10.00">clk::misc_lib::DateTime</text>
<text text-anchor="middle" x="672" y="-74" font-family="Helvetica,sans-Serif" font-size="10.00">::fromISO</text>
</a>
</g>
</g>
<!-- Node35&#45;&gt;Node36 -->
<g id="edge40_Node000035_Node000036" class="edge">
<title>Node35&#45;&gt;Node36</title>
<g id="a_edge40_Node000035_Node000036"><a xlink:title=" ">
<path fill="none" stroke="#63b8ff" d="M352.64,-61.52C416.86,-65.65 523.8,-72.53 595.82,-77.16"/>
<polygon fill="#63b8ff" stroke="#63b8ff" points="595.97,-80.68 606.18,-77.83 596.42,-73.69 595.97,-80.68"/>
</a>
</g>
</g>
<!-- Node37 -->
<g id="Node000037" class="node">
<title>Node37</title>
<g id="a_Node000037"><a xlink:href="structclk_1_1misc__lib_1_1RunRecord.html#acabfa9ce270724aa81b06ef1b4e8cf15" target="_top" xlink:title="Factory method to construct a RunRecord from a JSON object.">
<polygon fill="white" stroke="#666666" points="548.5,-116 412.5,-116 412.5,-86 548.5,-86 548.5,-116"/>
<text text-anchor="start" x="420.5" y="-104" font-family="Helvetica,sans-Serif" font-size="10.00">clk::misc_lib::RunRecord</text>
<text text-anchor="middle" x="480.5" y="-93" font-family="Helvetica,sans-Serif" font-size="10.00">::fromJson</text>
</a>
</g>
</g>
<!-- Node35&#45;&gt;Node37 -->
<g id="edge41_Node000035_Node000037" class="edge">
<title>Node35&#45;&gt;Node37</title>
<g id="a_edge41_Node000035_Node000037"><a xlink:title=" ">
<path fill="none" stroke="#63b8ff" d="M352.95,-71.02C369.76,-75 388.53,-79.45 406.36,-83.67"/>
<polygon fill="#63b8ff" stroke="#63b8ff" points="405.61,-87.09 416.14,-85.99 407.22,-80.28 405.61,-87.09"/>
</a>
</g>
</g>
<!-- Node38 -->
<g id="Node000038" class="node">
<title>Node38</title>
<g id="a_Node000038"><a xlink:href="structclk_1_1misc__lib_1_1Time.html#a6c199b196b0cb96045ea55916072d867" target="_top" xlink:title="Read a Time object from a string.">
<polygon fill="white" stroke="#666666" points="534.5,-30 426.5,-30 426.5,0 534.5,0 534.5,-30"/>
<text text-anchor="start" x="434.5" y="-18" font-family="Helvetica,sans-Serif" font-size="10.00">clk::misc_lib::Time</text>
<text text-anchor="middle" x="480.5" y="-7" font-family="Helvetica,sans-Serif" font-size="10.00">::fromString</text>
</a>
</g>
</g>
<!-- Node35&#45;&gt;Node38 -->
<g id="edge43_Node000035_Node000038" class="edge">
<title>Node35&#45;&gt;Node38</title>
<g id="a_edge43_Node000035_Node000038"><a xlink:title=" ">
<path fill="none" stroke="#63b8ff" d="M352.95,-44.98C372.94,-40.24 395.7,-34.85 416.35,-29.96"/>
<polygon fill="#63b8ff" stroke="#63b8ff" points="417.37,-33.32 426.3,-27.6 415.76,-26.5 417.37,-33.32"/>
</a>
</g>
</g>
<!-- Node37&#45;&gt;Node36 -->
<g id="edge42_Node000037_Node000036" class="edge">
<title>Node37&#45;&gt;Node36</title>
<g id="a_edge42_Node000037_Node000036"><a xlink:title=" ">
<path fill="none" stroke="#63b8ff" d="M548.58,-94.27C563.95,-92.73 580.39,-91.09 596.07,-89.51"/>
<polygon fill="#63b8ff" stroke="#63b8ff" points="596.64,-92.97 606.24,-88.49 595.94,-86.01 596.64,-92.97"/>
</a>
</g>
</g>
<!-- Node39 -->
<g id="Node000039" class="node">
<title>Node39</title>
<g id="a_Node000039"><a xlink:href="structclk_1_1misc__lib_1_1Time.html#a48fe39d72cb179cc36f510aab72578e2" target="_top" xlink:title="Default constructor for Time. Initializes the time to 00:00:00.">
<polygon fill="white" stroke="#666666" points="726,-30 618,-30 618,0 726,0 726,-30"/>
<text text-anchor="start" x="626" y="-18" font-family="Helvetica,sans-Serif" font-size="10.00">clk::misc_lib::Time</text>
<text text-anchor="middle" x="672" y="-7" font-family="Helvetica,sans-Serif" font-size="10.00">::Time</text>
</a>
</g>
</g>
<!-- Node38&#45;&gt;Node39 -->
<g id="edge44_Node000038_Node000039" class="edge">
<title>Node38&#45;&gt;Node39</title>
<g id="a_edge44_Node000038_Node000039"><a xlink:title=" ">
<path fill="none" stroke="#63b8ff" d="M534.54,-15C557.24,-15 583.93,-15 607.66,-15"/>
<polygon fill="#63b8ff" stroke="#63b8ff" points="607.97,-18.5 617.97,-15 607.97,-11.5 607.97,-18.5"/>
</a>
</g>
</g>
</g>
</svg>
