<?xml version="1.0" encoding="UTF-8" standalone="no"?>
<!DOCTYPE svg PUBLIC "-//W3C//DTD SVG 1.1//EN"
 "http://www.w3.org/Graphics/SVG/1.1/DTD/svg11.dtd">
<!-- Generated by graphviz version 2.43.0 (0)
 -->
<!-- Title: src/si3_sim/main.cpp Pages: 1 -->
<svg width="1410pt" height="401pt"
 viewBox="0.00 0.00 1410.00 401.00" xmlns="http://www.w3.org/2000/svg" xmlns:xlink="http://www.w3.org/1999/xlink">
<g id="graph0" class="graph" transform="scale(1 1) rotate(0) translate(4 397)">
<title>src/si3_sim/main.cpp</title>
<!-- Node1 -->
<g id="Node000001" class="node">
<title>Node1</title>
<g id="a_Node000001"><a xlink:title="Main entry point for the Si3 simulation tool.">
<polygon fill="#999999" stroke="#666666" points="479,-393 360,-393 360,-374 479,-374 479,-393"/>
<text text-anchor="middle" x="419.5" y="-381" font-family="Helvetica,sans-Serif" font-size="10.00">src/si3_sim/main.cpp</text>
</a>
</g>
</g>
<!-- Node2 -->
<g id="Node000002" class="node">
<title>Node2</title>
<g id="a_Node000002"><a xlink:title=" ">
<polygon fill="#e0e0e0" stroke="#999999" points="49,-338 0,-338 0,-319 49,-319 49,-338"/>
<text text-anchor="middle" x="24.5" y="-326" font-family="Helvetica,sans-Serif" font-size="10.00">cstdlib</text>
</a>
</g>
</g>
<!-- Node1&#45;&gt;Node2 -->
<g id="edge1_Node000001_Node000002" class="edge">
<title>Node1&#45;&gt;Node2</title>
<g id="a_edge1_Node000001_Node000002"><a xlink:title=" ">
<path fill="none" stroke="#63b8ff" d="M359.88,-377.56C289.94,-371.24 170.37,-358.76 59.32,-338.14"/>
<polygon fill="#63b8ff" stroke="#63b8ff" points="59.76,-334.66 49.29,-336.25 58.47,-341.54 59.76,-334.66"/>
</a>
</g>
</g>
<!-- Node3 -->
<g id="Node000003" class="node">
<title>Node3</title>
<g id="a_Node000003"><a xlink:title=" ">
<polygon fill="#e0e0e0" stroke="#999999" points="132,-338 67,-338 67,-319 132,-319 132,-338"/>
<text text-anchor="middle" x="99.5" y="-326" font-family="Helvetica,sans-Serif" font-size="10.00">exception</text>
</a>
</g>
</g>
<!-- Node1&#45;&gt;Node3 -->
<g id="edge2_Node000001_Node000003" class="edge">
<title>Node1&#45;&gt;Node3</title>
<g id="a_edge2_Node000001_Node000003"><a xlink:title=" ">
<path fill="none" stroke="#63b8ff" d="M361.12,-373.99C306.79,-365.89 223.32,-352.99 142.05,-338.22"/>
<polygon fill="#63b8ff" stroke="#63b8ff" points="142.61,-334.77 132.15,-336.41 141.35,-341.65 142.61,-334.77"/>
</a>
</g>
</g>
<!-- Node4 -->
<g id="Node000004" class="node">
<title>Node4</title>
<g id="a_Node000004"><a xlink:title=" ">
<polygon fill="#e0e0e0" stroke="#999999" points="205,-338 150,-338 150,-319 205,-319 205,-338"/>
<text text-anchor="middle" x="177.5" y="-326" font-family="Helvetica,sans-Serif" font-size="10.00">fstream</text>
</a>
</g>
</g>
<!-- Node1&#45;&gt;Node4 -->
<g id="edge3_Node000001_Node000004" class="edge">
<title>Node1&#45;&gt;Node4</title>
<g id="a_edge3_Node000001_Node000004"><a xlink:title=" ">
<path fill="none" stroke="#63b8ff" d="M380.62,-373.98C335.13,-364.02 260.32,-347.64 215.3,-337.78"/>
<polygon fill="#63b8ff" stroke="#63b8ff" points="215.86,-334.32 205.35,-335.6 214.37,-341.16 215.86,-334.32"/>
</a>
</g>
</g>
<!-- Node5 -->
<g id="Node000005" class="node">
<title>Node5</title>
<g id="a_Node000005"><a xlink:title=" ">
<polygon fill="#e0e0e0" stroke="#999999" points="525.5,-90.5 465.5,-90.5 465.5,-71.5 525.5,-71.5 525.5,-90.5"/>
<text text-anchor="middle" x="495.5" y="-78.5" font-family="Helvetica,sans-Serif" font-size="10.00">iostream</text>
</a>
</g>
</g>
<!-- Node1&#45;&gt;Node5 -->
<g id="edge4_Node000001_Node000005" class="edge">
<title>Node1&#45;&gt;Node5</title>
<g id="a_edge4_Node000001_Node000005"><a xlink:title=" ">
<path fill="none" stroke="#63b8ff" d="M479.01,-375.14C522.8,-367.01 571.36,-350.65 550.5,-319 449.97,-166.48 66.03,-271.04 184.5,-132 218.84,-91.7 379.17,-83.76 455.24,-82.28"/>
<polygon fill="#63b8ff" stroke="#63b8ff" points="455.46,-85.78 465.4,-82.11 455.34,-78.78 455.46,-85.78"/>
</a>
</g>
</g>
<!-- Node6 -->
<g id="Node000006" class="node">
<title>Node6</title>
<g id="a_Node000006"><a xlink:title=" ">
<polygon fill="#e0e0e0" stroke="#999999" points="327,-338 262,-338 262,-319 327,-319 327,-338"/>
<text text-anchor="middle" x="294.5" y="-326" font-family="Helvetica,sans-Serif" font-size="10.00">stdexcept</text>
</a>
</g>
</g>
<!-- Node1&#45;&gt;Node6 -->
<g id="edge5_Node000001_Node000006" class="edge">
<title>Node1&#45;&gt;Node6</title>
<g id="a_edge5_Node000001_Node000006"><a xlink:title=" ">
<path fill="none" stroke="#63b8ff" d="M399.42,-373.98C379.13,-365.38 347.54,-351.99 324.33,-342.15"/>
<polygon fill="#63b8ff" stroke="#63b8ff" points="325.52,-338.85 314.95,-338.17 322.79,-345.3 325.52,-338.85"/>
</a>
</g>
</g>
<!-- Node7 -->
<g id="Node000007" class="node">
<title>Node7</title>
<g id="a_Node000007"><a xlink:title=" ">
<polygon fill="#e0e0e0" stroke="#999999" points="1402,-24.5 1329,-24.5 1329,-5.5 1402,-5.5 1402,-24.5"/>
<text text-anchor="middle" x="1365.5" y="-12.5" font-family="Helvetica,sans-Serif" font-size="10.00">string_view</text>
</a>
</g>
</g>
<!-- Node1&#45;&gt;Node7 -->
<g id="edge6_Node000001_Node000007" class="edge">
<title>Node1&#45;&gt;Node7</title>
<g id="a_edge6_Node000001_Node000007"><a xlink:title=" ">
<path fill="none" stroke="#63b8ff" d="M479.03,-381.98C686.56,-379.41 1365.5,-364.13 1365.5,-274.5 1365.5,-274.5 1365.5,-274.5 1365.5,-146 1365.5,-106.45 1365.5,-60.13 1365.5,-34.84"/>
<polygon fill="#63b8ff" stroke="#63b8ff" points="1369,-34.52 1365.5,-24.52 1362,-34.52 1369,-34.52"/>
</a>
</g>
</g>
<!-- Node8 -->
<g id="Node000008" class="node">
<title>Node8</title>
<g id="a_Node000008"><a xlink:title=" ">
<polygon fill="#e0e0e0" stroke="#999999" points="455,-338 384,-338 384,-319 455,-319 455,-338"/>
<text text-anchor="middle" x="419.5" y="-326" font-family="Helvetica,sans-Serif" font-size="10.00">CLI/CLI.hpp</text>
</a>
</g>
</g>
<!-- Node1&#45;&gt;Node8 -->
<g id="edge7_Node000001_Node000008" class="edge">
<title>Node1&#45;&gt;Node8</title>
<g id="a_edge7_Node000001_Node000008"><a xlink:title=" ">
<path fill="none" stroke="#63b8ff" d="M419.5,-373.75C419.5,-366.8 419.5,-356.85 419.5,-348.13"/>
<polygon fill="#63b8ff" stroke="#63b8ff" points="423,-348.09 419.5,-338.09 416,-348.09 423,-348.09"/>
</a>
</g>
</g>
<!-- Node9 -->
<g id="Node000009" class="node">
<title>Node9</title>
<g id="a_Node000009"><a xlink:title=" ">
<polygon fill="#e0e0e0" stroke="#999999" points="542,-338 473,-338 473,-319 542,-319 542,-338"/>
<text text-anchor="middle" x="507.5" y="-326" font-family="Helvetica,sans-Serif" font-size="10.00">fmt/base.h</text>
</a>
</g>
</g>
<!-- Node1&#45;&gt;Node9 -->
<g id="edge8_Node000001_Node000009" class="edge">
<title>Node1&#45;&gt;Node9</title>
<g id="a_edge8_Node000001_Node000009"><a xlink:title=" ">
<path fill="none" stroke="#63b8ff" d="M433.64,-373.98C447.29,-365.77 468.19,-353.18 484.28,-343.49"/>
<polygon fill="#63b8ff" stroke="#63b8ff" points="486.34,-346.33 493.1,-338.17 482.73,-340.33 486.34,-346.33"/>
</a>
</g>
</g>
<!-- Node10 -->
<g id="Node000010" class="node">
<title>Node10</title>
<g id="a_Node000010"><a xlink:title=" ">
<polygon fill="#e0e0e0" stroke="#999999" points="273,-156.5 194,-156.5 194,-137.5 273,-137.5 273,-156.5"/>
<text text-anchor="middle" x="233.5" y="-144.5" font-family="Helvetica,sans-Serif" font-size="10.00">fmt/format.h</text>
</a>
</g>
</g>
<!-- Node1&#45;&gt;Node10 -->
<g id="edge9_Node000001_Node000010" class="edge">
<title>Node1&#45;&gt;Node10</title>
<g id="a_edge9_Node000001_Node000010"><a xlink:title=" ">
<path fill="none" stroke="#63b8ff" d="M360.05,-373.92C317.95,-366.56 266.55,-354.51 252.5,-338 210.64,-288.81 221.49,-204.43 229.07,-166.93"/>
<polygon fill="#63b8ff" stroke="#63b8ff" points="232.55,-167.4 231.25,-156.88 225.71,-165.91 232.55,-167.4"/>
</a>
</g>
</g>
<!-- Node11 -->
<g id="Node000011" class="node">
<title>Node11</title>
<g id="a_Node000011"><a xlink:href="run__record_8hpp.html" target="_top" xlink:title="Run record structure and utilities.">
<polygon fill="white" stroke="#666666" points="661.5,-228 555.5,-228 555.5,-198 661.5,-198 661.5,-228"/>
<text text-anchor="start" x="563.5" y="-216" font-family="Helvetica,sans-Serif" font-size="10.00">Clock/misc_lib/run</text>
<text text-anchor="middle" x="608.5" y="-205" font-family="Helvetica,sans-Serif" font-size="10.00">_record.hpp</text>
</a>
</g>
</g>
<!-- Node1&#45;&gt;Node11 -->
<g id="edge10_Node000001_Node000011" class="edge">
<title>Node1&#45;&gt;Node11</title>
<g id="a_edge10_Node000001_Node000011"><a xlink:title=" ">
<path fill="none" stroke="#63b8ff" d="M479.36,-381.48C514.79,-377.61 557.83,-366.67 584.5,-338 609.55,-311.07 612.08,-266.2 610.84,-238.45"/>
<polygon fill="#63b8ff" stroke="#63b8ff" points="614.33,-238.15 610.2,-228.39 607.34,-238.6 614.33,-238.15"/>
</a>
</g>
</g>
<!-- Node27 -->
<g id="Node000027" class="node">
<title>Node27</title>
<g id="a_Node000027"><a xlink:title=" ">
<polygon fill="#e0e0e0" stroke="#999999" points="447.5,-156.5 291.5,-156.5 291.5,-137.5 447.5,-137.5 447.5,-156.5"/>
<text text-anchor="middle" x="369.5" y="-144.5" font-family="Helvetica,sans-Serif" font-size="10.00">internal_use_only/config.hpp</text>
</a>
</g>
</g>
<!-- Node1&#45;&gt;Node27 -->
<g id="edge49_Node000001_Node000027" class="edge">
<title>Node1&#45;&gt;Node27</title>
<g id="a_edge49_Node000001_Node000027"><a xlink:title=" ">
<path fill="none" stroke="#63b8ff" d="M406.11,-373.71C395.37,-365.8 381.05,-353.12 374.5,-338 349.3,-279.8 359.12,-201.89 365.58,-166.68"/>
<polygon fill="#63b8ff" stroke="#63b8ff" points="369.02,-167.31 367.51,-156.82 362.15,-165.96 369.02,-167.31"/>
</a>
</g>
</g>
<!-- Node28 -->
<g id="Node000028" class="node">
<title>Node28</title>
<g id="a_Node000028"><a xlink:href="config_8hpp.html" target="_top" xlink:title="Configuration structure for the Si3 simulation.">
<polygon fill="white" stroke="#666666" points="928,-283 791,-283 791,-264 928,-264 928,-283"/>
<text text-anchor="middle" x="859.5" y="-271" font-family="Helvetica,sans-Serif" font-size="10.00">Clock/si3_sim/config.hpp</text>
</a>
</g>
</g>
<!-- Node1&#45;&gt;Node28 -->
<g id="edge37_Node000001_Node000028" class="edge">
<title>Node1&#45;&gt;Node28</title>
<g id="a_edge37_Node000001_Node000028"><a xlink:title=" ">
<path fill="none" stroke="#63b8ff" d="M461.23,-373.94C502.36,-365.36 566.94,-351.53 622.5,-338 692.1,-321.06 772.53,-298.97 819.52,-285.81"/>
<polygon fill="#63b8ff" stroke="#63b8ff" points="820.63,-289.14 829.31,-283.07 818.74,-282.4 820.63,-289.14"/>
</a>
</g>
</g>
<!-- Node32 -->
<g id="Node000032" class="node">
<title>Node32</title>
<g id="a_Node000032"><a xlink:href="si3__sim_8hpp.html" target="_top" xlink:title="Header file for the Si3Sim class.">
<polygon fill="white" stroke="#666666" points="981.5,-338 835.5,-338 835.5,-319 981.5,-319 981.5,-338"/>
<text text-anchor="middle" x="908.5" y="-326" font-family="Helvetica,sans-Serif" font-size="10.00">Clock/si3_sim/si3_sim.hpp</text>
</a>
</g>
</g>
<!-- Node1&#45;&gt;Node32 -->
<g id="edge45_Node000001_Node000032" class="edge">
<title>Node1&#45;&gt;Node32</title>
<g id="a_edge45_Node000001_Node000032"><a xlink:title=" ">
<path fill="none" stroke="#63b8ff" d="M479.46,-376C566.16,-366.6 726.89,-349.18 825.11,-338.54"/>
<polygon fill="#63b8ff" stroke="#63b8ff" points="825.73,-341.99 835.29,-337.43 824.97,-335.03 825.73,-341.99"/>
</a>
</g>
</g>
<!-- Node11&#45;&gt;Node10 -->
<g id="edge15_Node000011_Node000010" class="edge">
<title>Node11&#45;&gt;Node10</title>
<g id="a_edge15_Node000011_Node000010"><a xlink:title=" ">
<path fill="none" stroke="#63b8ff" d="M555.33,-205.94C490.48,-198.06 377.73,-182.82 282.5,-162 278.67,-161.16 274.7,-160.2 270.75,-159.17"/>
<polygon fill="#63b8ff" stroke="#63b8ff" points="271.64,-155.79 261.07,-156.54 269.8,-162.54 271.64,-155.79"/>
</a>
</g>
</g>
<!-- Node12 -->
<g id="Node000012" class="node">
<title>Node12</title>
<g id="a_Node000012"><a xlink:title=" ">
<polygon fill="#e0e0e0" stroke="#999999" points="1042,-24.5 897,-24.5 897,-5.5 1042,-5.5 1042,-24.5"/>
<text text-anchor="middle" x="969.5" y="-12.5" font-family="Helvetica,sans-Serif" font-size="10.00">Clock/misc_lib_export.hpp</text>
</a>
</g>
</g>
<!-- Node11&#45;&gt;Node12 -->
<g id="edge11_Node000011_Node000012" class="edge">
<title>Node11&#45;&gt;Node12</title>
<g id="a_edge11_Node000011_Node000012"><a xlink:title=" ">
<path fill="none" stroke="#63b8ff" d="M639.79,-197.92C659.46,-188.61 685.08,-175.65 706.5,-162 764.99,-124.74 768.74,-99.42 829.5,-66 860.45,-48.98 898.32,-35.86 926.87,-27.35"/>
<polygon fill="#63b8ff" stroke="#63b8ff" points="927.93,-30.68 936.55,-24.53 925.97,-23.96 927.93,-30.68"/>
</a>
</g>
</g>
<!-- Node13 -->
<g id="Node000013" class="node">
<title>Node13</title>
<g id="a_Node000013"><a xlink:title=" ">
<polygon fill="#e0e0e0" stroke="#999999" points="697.5,-156.5 643.5,-156.5 643.5,-137.5 697.5,-137.5 697.5,-156.5"/>
<text text-anchor="middle" x="670.5" y="-144.5" font-family="Helvetica,sans-Serif" font-size="10.00">random</text>
</a>
</g>
</g>
<!-- Node11&#45;&gt;Node13 -->
<g id="edge12_Node000011_Node000013" class="edge">
<title>Node11&#45;&gt;Node13</title>
<g id="a_edge12_Node000011_Node000013"><a xlink:title=" ">
<path fill="none" stroke="#63b8ff" d="M622.26,-197.8C631.93,-187.82 644.87,-174.46 654.92,-164.09"/>
<polygon fill="#63b8ff" stroke="#63b8ff" points="657.49,-166.46 661.93,-156.84 652.46,-161.59 657.49,-166.46"/>
</a>
</g>
</g>
<!-- Node14 -->
<g id="Node000014" class="node">
<title>Node14</title>
<g id="a_Node000014"><a xlink:title=" ">
<polygon fill="#e0e0e0" stroke="#999999" points="200.5,-24.5 156.5,-24.5 156.5,-5.5 200.5,-5.5 200.5,-24.5"/>
<text text-anchor="middle" x="178.5" y="-12.5" font-family="Helvetica,sans-Serif" font-size="10.00">string</text>
</a>
</g>
</g>
<!-- Node11&#45;&gt;Node14 -->
<g id="edge13_Node000011_Node000014" class="edge">
<title>Node11&#45;&gt;Node14</title>
<g id="a_edge13_Node000011_Node000014"><a xlink:title=" ">
<path fill="none" stroke="#63b8ff" d="M570.75,-197.94C548.24,-188.92 519.48,-176.25 495.5,-162 476.7,-150.83 475.44,-142.94 456.5,-132 353.65,-72.61 318.53,-77.11 209.5,-30 208.5,-29.57 207.48,-29.12 206.45,-28.67"/>
<polygon fill="#63b8ff" stroke="#63b8ff" points="207.7,-25.4 197.14,-24.54 204.86,-31.8 207.7,-25.4"/>
</a>
</g>
</g>
<!-- Node15 -->
<g id="Node000015" class="node">
<title>Node15</title>
<g id="a_Node000015"><a xlink:title=" ">
<polygon fill="#e0e0e0" stroke="#999999" points="625,-156.5 504,-156.5 504,-137.5 625,-137.5 625,-156.5"/>
<text text-anchor="middle" x="564.5" y="-144.5" font-family="Helvetica,sans-Serif" font-size="10.00">boost/json/object.hpp</text>
</a>
</g>
</g>
<!-- Node11&#45;&gt;Node15 -->
<g id="edge14_Node000011_Node000015" class="edge">
<title>Node11&#45;&gt;Node15</title>
<g id="a_edge14_Node000011_Node000015"><a xlink:title=" ">
<path fill="none" stroke="#63b8ff" d="M598.73,-197.8C592.14,-188.21 583.41,-175.5 576.41,-165.32"/>
<polygon fill="#63b8ff" stroke="#63b8ff" points="579.13,-163.1 570.58,-156.84 573.36,-167.07 579.13,-163.1"/>
</a>
</g>
</g>
<!-- Node16 -->
<g id="Node000016" class="node">
<title>Node16</title>
<g id="a_Node000016"><a xlink:href="date__time_8hpp.html" target="_top" xlink:title="DateTime data structure and utilities.">
<polygon fill="white" stroke="#666666" points="921.5,-162 809.5,-162 809.5,-132 921.5,-132 921.5,-162"/>
<text text-anchor="start" x="817.5" y="-150" font-family="Helvetica,sans-Serif" font-size="10.00">Clock/misc_lib/date</text>
<text text-anchor="middle" x="865.5" y="-139" font-family="Helvetica,sans-Serif" font-size="10.00">_time.hpp</text>
</a>
</g>
</g>
<!-- Node11&#45;&gt;Node16 -->
<g id="edge16_Node000011_Node000016" class="edge">
<title>Node11&#45;&gt;Node16</title>
<g id="a_edge16_Node000011_Node000016"><a xlink:title=" ">
<path fill="none" stroke="#63b8ff" d="M661.75,-198.74C701.72,-188.79 756.68,-175.1 799.44,-164.45"/>
<polygon fill="#63b8ff" stroke="#63b8ff" points="800.34,-167.83 809.2,-162.02 798.65,-161.04 800.34,-167.83"/>
</a>
</g>
</g>
<!-- Node11&#45;&gt;Node27 -->
<g id="edge36_Node000011_Node000027" class="edge">
<title>Node11&#45;&gt;Node27</title>
<g id="a_edge36_Node000011_Node000027"><a xlink:title=" ">
<path fill="none" stroke="#63b8ff" d="M556.05,-197.95C512.47,-186.29 451.31,-169.91 411.06,-159.13"/>
<polygon fill="#63b8ff" stroke="#63b8ff" points="411.87,-155.72 401.31,-156.52 410.06,-162.48 411.87,-155.72"/>
</a>
</g>
</g>
<!-- Node16&#45;&gt;Node5 -->
<g id="edge18_Node000016_Node000005" class="edge">
<title>Node16&#45;&gt;Node5</title>
<g id="a_edge18_Node000016_Node000005"><a xlink:title=" ">
<path fill="none" stroke="#63b8ff" d="M809.33,-140.08C743.96,-132.57 633.02,-117.91 539.5,-96 536.3,-95.25 533,-94.38 529.7,-93.45"/>
<polygon fill="#63b8ff" stroke="#63b8ff" points="530.56,-90.05 519.98,-90.53 528.55,-96.76 530.56,-90.05"/>
</a>
</g>
</g>
<!-- Node16&#45;&gt;Node7 -->
<g id="edge20_Node000016_Node000007" class="edge">
<title>Node16&#45;&gt;Node7</title>
<g id="a_edge20_Node000016_Node000007"><a xlink:title=" ">
<path fill="none" stroke="#63b8ff" d="M921.9,-145.27C1026.16,-143.02 1244.3,-133.79 1308.5,-96 1332.68,-81.77 1349.32,-52.78 1358.13,-33.89"/>
<polygon fill="#63b8ff" stroke="#63b8ff" points="1361.4,-35.15 1362.21,-24.59 1354.99,-32.34 1361.4,-35.15"/>
</a>
</g>
</g>
<!-- Node16&#45;&gt;Node12 -->
<g id="edge17_Node000016_Node000012" class="edge">
<title>Node16&#45;&gt;Node12</title>
<g id="a_edge17_Node000016_Node000012"><a xlink:title=" ">
<path fill="none" stroke="#63b8ff" d="M853.91,-131.91C841.52,-115.03 825.44,-86.46 839.5,-66 852.8,-46.64 874.72,-34.77 896.8,-27.5"/>
<polygon fill="#63b8ff" stroke="#63b8ff" points="898.02,-30.79 906.59,-24.56 896.01,-24.08 898.02,-30.79"/>
</a>
</g>
</g>
<!-- Node16&#45;&gt;Node14 -->
<g id="edge19_Node000016_Node000014" class="edge">
<title>Node16&#45;&gt;Node14</title>
<g id="a_edge19_Node000016_Node000014"><a xlink:title=" ">
<path fill="none" stroke="#63b8ff" d="M809.39,-139.77C736.57,-131.12 613.93,-114.43 572.5,-96 552.84,-87.25 554.41,-74.17 534.5,-66 400.05,-10.84 349.67,-68.38 209.5,-30 207.82,-29.54 206.11,-29 204.4,-28.4"/>
<polygon fill="#63b8ff" stroke="#63b8ff" points="205.46,-25.05 194.87,-24.55 202.83,-31.54 205.46,-25.05"/>
</a>
</g>
</g>
<!-- Node17 -->
<g id="Node000017" class="node">
<title>Node17</title>
<g id="a_Node000017"><a xlink:title=" ">
<polygon fill="#e0e0e0" stroke="#999999" points="878.5,-30 710.5,-30 710.5,0 878.5,0 878.5,-30"/>
<text text-anchor="start" x="718.5" y="-18" font-family="Helvetica,sans-Serif" font-size="10.00">boost/date_time/posix</text>
<text text-anchor="middle" x="794.5" y="-7" font-family="Helvetica,sans-Serif" font-size="10.00">_time/posix_time_duration.hpp</text>
</a>
</g>
</g>
<!-- Node16&#45;&gt;Node17 -->
<g id="edge21_Node000016_Node000017" class="edge">
<title>Node16&#45;&gt;Node17</title>
<g id="a_edge21_Node000016_Node000017"><a xlink:title=" ">
<path fill="none" stroke="#63b8ff" d="M841.21,-131.97C828.45,-123.29 813.79,-110.94 805.5,-96 796.07,-79 793.63,-56.95 793.37,-40.31"/>
<polygon fill="#63b8ff" stroke="#63b8ff" points="796.87,-40.29 793.47,-30.26 789.87,-40.23 796.87,-40.29"/>
</a>
</g>
</g>
<!-- Node18 -->
<g id="Node000018" class="node">
<title>Node18</title>
<g id="a_Node000018"><a xlink:title=" ">
<polygon fill="#e0e0e0" stroke="#999999" points="1003,-96 848,-96 848,-66 1003,-66 1003,-96"/>
<text text-anchor="start" x="856" y="-84" font-family="Helvetica,sans-Serif" font-size="10.00">boost/date_time/posix</text>
<text text-anchor="middle" x="925.5" y="-73" font-family="Helvetica,sans-Serif" font-size="10.00">_time/posix_time_types.hpp</text>
</a>
</g>
</g>
<!-- Node16&#45;&gt;Node18 -->
<g id="edge22_Node000016_Node000018" class="edge">
<title>Node16&#45;&gt;Node18</title>
<g id="a_edge22_Node000016_Node000018"><a xlink:title=" ">
<path fill="none" stroke="#63b8ff" d="M878.82,-131.8C886.58,-123.51 896.54,-112.89 905.26,-103.59"/>
<polygon fill="#63b8ff" stroke="#63b8ff" points="907.94,-105.85 912.22,-96.16 902.83,-101.07 907.94,-105.85"/>
</a>
</g>
</g>
<!-- Node19 -->
<g id="Node000019" class="node">
<title>Node19</title>
<g id="a_Node000019"><a xlink:title=" ">
<polygon fill="#e0e0e0" stroke="#999999" points="1146,-96 1021,-96 1021,-66 1146,-66 1146,-96"/>
<text text-anchor="start" x="1029" y="-84" font-family="Helvetica,sans-Serif" font-size="10.00">boost/date_time/posix</text>
<text text-anchor="middle" x="1083.5" y="-73" font-family="Helvetica,sans-Serif" font-size="10.00">_time/ptime.hpp</text>
</a>
</g>
</g>
<!-- Node16&#45;&gt;Node19 -->
<g id="edge23_Node000016_Node000019" class="edge">
<title>Node16&#45;&gt;Node19</title>
<g id="a_edge23_Node000016_Node000019"><a xlink:title=" ">
<path fill="none" stroke="#63b8ff" d="M913.34,-131.95C946.56,-122.2 991,-109.16 1026.13,-98.84"/>
<polygon fill="#63b8ff" stroke="#63b8ff" points="1027.16,-102.19 1035.77,-96.01 1025.19,-95.47 1027.16,-102.19"/>
</a>
</g>
</g>
<!-- Node20 -->
<g id="Node000020" class="node">
<title>Node20</title>
<g id="a_Node000020"><a xlink:href="quad_8hpp.html" target="_top" xlink:title="Quad precision floating&#45;point type and utilities.">
<polygon fill="white" stroke="#666666" points="1299,-90.5 1164,-90.5 1164,-71.5 1299,-71.5 1299,-90.5"/>
<text text-anchor="middle" x="1231.5" y="-78.5" font-family="Helvetica,sans-Serif" font-size="10.00">Clock/misc_lib/quad.hpp</text>
</a>
</g>
</g>
<!-- Node16&#45;&gt;Node20 -->
<g id="edge24_Node000016_Node000020" class="edge">
<title>Node16&#45;&gt;Node20</title>
<g id="a_edge24_Node000016_Node000020"><a xlink:title=" ">
<path fill="none" stroke="#63b8ff" d="M921.63,-134.59C926.32,-133.7 930.99,-132.82 935.5,-132 1032.98,-114.28 1057.89,-112.98 1155.5,-96 1162.16,-94.84 1169.14,-93.6 1176.06,-92.34"/>
<polygon fill="#63b8ff" stroke="#63b8ff" points="1176.9,-95.75 1186.11,-90.51 1175.65,-88.86 1176.9,-95.75"/>
</a>
</g>
</g>
<!-- Node23 -->
<g id="Node000023" class="node">
<title>Node23</title>
<g id="a_Node000023"><a xlink:href="time_8hpp.html" target="_top" xlink:title="Time data structure and utilities.">
<polygon fill="white" stroke="#666666" points="715.5,-90.5 581.5,-90.5 581.5,-71.5 715.5,-71.5 715.5,-90.5"/>
<text text-anchor="middle" x="648.5" y="-78.5" font-family="Helvetica,sans-Serif" font-size="10.00">Clock/misc_lib/time.hpp</text>
</a>
</g>
</g>
<!-- Node16&#45;&gt;Node23 -->
<g id="edge29_Node000016_Node000023" class="edge">
<title>Node16&#45;&gt;Node23</title>
<g id="a_edge29_Node000016_Node000023"><a xlink:title=" ">
<path fill="none" stroke="#63b8ff" d="M817.88,-131.95C778.65,-120.38 723.72,-104.18 687.17,-93.41"/>
<polygon fill="#63b8ff" stroke="#63b8ff" points="687.96,-89.99 677.38,-90.52 685.98,-96.7 687.96,-89.99"/>
</a>
</g>
</g>
<!-- Node20&#45;&gt;Node7 -->
<g id="edge26_Node000020_Node000007" class="edge">
<title>Node20&#45;&gt;Node7</title>
<g id="a_edge26_Node000020_Node000007"><a xlink:title=" ">
<path fill="none" stroke="#63b8ff" d="M1249.57,-71.37C1272.35,-60.49 1311.72,-41.69 1338.18,-29.05"/>
<polygon fill="#63b8ff" stroke="#63b8ff" points="1339.77,-32.17 1347.29,-24.7 1336.75,-25.85 1339.77,-32.17"/>
</a>
</g>
</g>
<!-- Node20&#45;&gt;Node12 -->
<g id="edge25_Node000020_Node000012" class="edge">
<title>Node20&#45;&gt;Node12</title>
<g id="a_edge25_Node000020_Node000012"><a xlink:title=" ">
<path fill="none" stroke="#63b8ff" d="M1196.44,-71.44C1149.38,-59.94 1065.75,-39.51 1014.21,-26.92"/>
<polygon fill="#63b8ff" stroke="#63b8ff" points="1014.9,-23.49 1004.36,-24.51 1013.24,-30.29 1014.9,-23.49"/>
</a>
</g>
</g>
<!-- Node21 -->
<g id="Node000021" class="node">
<title>Node21</title>
<g id="a_Node000021"><a xlink:title=" ">
<polygon fill="#e0e0e0" stroke="#999999" points="1176.5,-30 1060.5,-30 1060.5,0 1176.5,0 1176.5,-30"/>
<text text-anchor="start" x="1068.5" y="-18" font-family="Helvetica,sans-Serif" font-size="10.00">boost/multiprecision</text>
<text text-anchor="middle" x="1118.5" y="-7" font-family="Helvetica,sans-Serif" font-size="10.00">/cpp_bin_float.hpp</text>
</a>
</g>
</g>
<!-- Node20&#45;&gt;Node21 -->
<g id="edge27_Node000020_Node000021" class="edge">
<title>Node20&#45;&gt;Node21</title>
<g id="a_edge27_Node000020_Node000021"><a xlink:title=" ">
<path fill="none" stroke="#63b8ff" d="M1216.26,-71.37C1199.92,-62.11 1173.45,-47.12 1152.18,-35.07"/>
<polygon fill="#63b8ff" stroke="#63b8ff" points="1153.85,-32 1143.42,-30.12 1150.4,-38.09 1153.85,-32"/>
</a>
</g>
</g>
<!-- Node22 -->
<g id="Node000022" class="node">
<title>Node22</title>
<g id="a_Node000022"><a xlink:title=" ">
<polygon fill="#e0e0e0" stroke="#999999" points="1310.5,-30 1194.5,-30 1194.5,0 1310.5,0 1310.5,-30"/>
<text text-anchor="start" x="1202.5" y="-18" font-family="Helvetica,sans-Serif" font-size="10.00">boost/multiprecision</text>
<text text-anchor="middle" x="1252.5" y="-7" font-family="Helvetica,sans-Serif" font-size="10.00">/fwd.hpp</text>
</a>
</g>
</g>
<!-- Node20&#45;&gt;Node22 -->
<g id="edge28_Node000020_Node000022" class="edge">
<title>Node20&#45;&gt;Node22</title>
<g id="a_edge28_Node000020_Node000022"><a xlink:title=" ">
<path fill="none" stroke="#63b8ff" d="M1234.33,-71.37C1236.97,-63.32 1241.03,-50.94 1244.65,-39.93"/>
<polygon fill="#63b8ff" stroke="#63b8ff" points="1248,-40.95 1247.79,-30.36 1241.34,-38.77 1248,-40.95"/>
</a>
</g>
</g>
<!-- Node23&#45;&gt;Node12 -->
<g id="edge30_Node000023_Node000012" class="edge">
<title>Node23&#45;&gt;Node12</title>
<g id="a_edge30_Node000023_Node000012"><a xlink:title=" ">
<path fill="none" stroke="#63b8ff" d="M691.46,-71.44C749.72,-59.82 853.71,-39.09 916.68,-26.53"/>
<polygon fill="#63b8ff" stroke="#63b8ff" points="917.67,-29.9 926.8,-24.51 916.3,-23.04 917.67,-29.9"/>
</a>
</g>
</g>
<!-- Node23&#45;&gt;Node14 -->
<g id="edge31_Node000023_Node000014" class="edge">
<title>Node23&#45;&gt;Node14</title>
<g id="a_edge31_Node000023_Node000014"><a xlink:title=" ">
<path fill="none" stroke="#63b8ff" d="M602.33,-71.44C590.96,-69.49 578.81,-67.54 567.5,-66 409.06,-44.37 363.95,-71.45 209.5,-30 207.81,-29.55 206.1,-29.01 204.4,-28.42"/>
<polygon fill="#63b8ff" stroke="#63b8ff" points="205.45,-25.07 194.87,-24.58 202.83,-31.56 205.45,-25.07"/>
</a>
</g>
</g>
<!-- Node23&#45;&gt;Node17 -->
<g id="edge33_Node000023_Node000017" class="edge">
<title>Node23&#45;&gt;Node17</title>
<g id="a_edge33_Node000023_Node000017"><a xlink:title=" ">
<path fill="none" stroke="#63b8ff" d="M668.19,-71.37C689.77,-61.91 725.03,-46.45 752.82,-34.27"/>
<polygon fill="#63b8ff" stroke="#63b8ff" points="754.55,-37.34 762.3,-30.12 751.73,-30.92 754.55,-37.34"/>
</a>
</g>
</g>
<!-- Node24 -->
<g id="Node000024" class="node">
<title>Node24</title>
<g id="a_Node000024"><a xlink:title=" ">
<polygon fill="#e0e0e0" stroke="#999999" points="376,-30 219,-30 219,0 376,0 376,-30"/>
<text text-anchor="start" x="227" y="-18" font-family="Helvetica,sans-Serif" font-size="10.00">boost/date_time/posix</text>
<text text-anchor="middle" x="297.5" y="-7" font-family="Helvetica,sans-Serif" font-size="10.00">_time/posix_time_config.hpp</text>
</a>
</g>
</g>
<!-- Node23&#45;&gt;Node24 -->
<g id="edge32_Node000023_Node000024" class="edge">
<title>Node23&#45;&gt;Node24</title>
<g id="a_edge32_Node000023_Node000024"><a xlink:title=" ">
<path fill="none" stroke="#63b8ff" d="M601.53,-71.44C546.15,-61.34 452.99,-44.35 384.36,-31.84"/>
<polygon fill="#63b8ff" stroke="#63b8ff" points="384.88,-28.38 374.42,-30.02 383.63,-35.26 384.88,-28.38"/>
</a>
</g>
</g>
<!-- Node25 -->
<g id="Node000025" class="node">
<title>Node25</title>
<g id="a_Node000025"><a xlink:title=" ">
<polygon fill="#e0e0e0" stroke="#999999" points="542.5,-30 394.5,-30 394.5,0 542.5,0 542.5,-30"/>
<text text-anchor="start" x="402.5" y="-18" font-family="Helvetica,sans-Serif" font-size="10.00">boost/date_time/posix</text>
<text text-anchor="middle" x="468.5" y="-7" font-family="Helvetica,sans-Serif" font-size="10.00">_time/time_formatters.hpp</text>
</a>
</g>
</g>
<!-- Node23&#45;&gt;Node25 -->
<g id="edge34_Node000023_Node000025" class="edge">
<title>Node23&#45;&gt;Node25</title>
<g id="a_edge34_Node000023_Node000025"><a xlink:title=" ">
<path fill="none" stroke="#63b8ff" d="M624.22,-71.37C597.03,-61.7 552.24,-45.77 517.66,-33.48"/>
<polygon fill="#63b8ff" stroke="#63b8ff" points="518.79,-30.17 508.2,-30.12 516.45,-36.76 518.79,-30.17"/>
</a>
</g>
</g>
<!-- Node26 -->
<g id="Node000026" class="node">
<title>Node26</title>
<g id="a_Node000026"><a xlink:title=" ">
<polygon fill="#e0e0e0" stroke="#999999" points="692.5,-30 560.5,-30 560.5,0 692.5,0 692.5,-30"/>
<text text-anchor="start" x="568.5" y="-18" font-family="Helvetica,sans-Serif" font-size="10.00">boost/date_time/posix</text>
<text text-anchor="middle" x="626.5" y="-7" font-family="Helvetica,sans-Serif" font-size="10.00">_time/time_parsers.hpp</text>
</a>
</g>
</g>
<!-- Node23&#45;&gt;Node26 -->
<g id="edge35_Node000023_Node000026" class="edge">
<title>Node23&#45;&gt;Node26</title>
<g id="a_edge35_Node000023_Node000026"><a xlink:title=" ">
<path fill="none" stroke="#63b8ff" d="M645.53,-71.37C642.77,-63.32 638.51,-50.94 634.73,-39.93"/>
<polygon fill="#63b8ff" stroke="#63b8ff" points="638,-38.68 631.44,-30.36 631.38,-40.96 638,-38.68"/>
</a>
</g>
</g>
<!-- Node28&#45;&gt;Node11 -->
<g id="edge43_Node000028_Node000011" class="edge">
<title>Node28&#45;&gt;Node11</title>
<g id="a_edge43_Node000028_Node000011"><a xlink:title=" ">
<path fill="none" stroke="#63b8ff" d="M823,-263.99C783.4,-254.76 719.43,-239.85 671.64,-228.72"/>
<polygon fill="#63b8ff" stroke="#63b8ff" points="672.24,-225.26 661.7,-226.4 670.65,-232.08 672.24,-225.26"/>
</a>
</g>
</g>
<!-- Node28&#45;&gt;Node16 -->
<g id="edge41_Node000028_Node000016" class="edge">
<title>Node28&#45;&gt;Node16</title>
<g id="a_edge41_Node000028_Node000016"><a xlink:title=" ">
<path fill="none" stroke="#63b8ff" d="M868.52,-263.96C876.57,-255.66 887.79,-242.25 892.5,-228 898.88,-208.69 890.41,-186.8 881.31,-170.81"/>
<polygon fill="#63b8ff" stroke="#63b8ff" points="884.21,-168.84 875.99,-162.14 878.24,-172.5 884.21,-168.84"/>
</a>
</g>
</g>
<!-- Node28&#45;&gt;Node20 -->
<g id="edge42_Node000028_Node000020" class="edge">
<title>Node28&#45;&gt;Node20</title>
<g id="a_edge42_Node000028_Node000020"><a xlink:title=" ">
<path fill="none" stroke="#63b8ff" d="M870.63,-263.97C890.03,-249.34 931.57,-219.02 969.5,-198 1049.04,-153.92 1148.59,-113.64 1199.01,-94.21"/>
<polygon fill="#63b8ff" stroke="#63b8ff" points="1200.33,-97.46 1208.41,-90.61 1197.82,-90.92 1200.33,-97.46"/>
</a>
</g>
</g>
<!-- Node28&#45;&gt;Node23 -->
<g id="edge44_Node000028_Node000023" class="edge">
<title>Node28&#45;&gt;Node23</title>
<g id="a_edge44_Node000028_Node000023"><a xlink:title=" ">
<path fill="none" stroke="#63b8ff" d="M813.77,-263.97C790.47,-257.54 763.19,-246.55 744.5,-228 711.93,-195.68 733.09,-169.4 706.5,-132 696.58,-118.05 681.97,-105.49 669.89,-96.44"/>
<polygon fill="#63b8ff" stroke="#63b8ff" points="671.81,-93.51 661.65,-90.51 667.72,-99.19 671.81,-93.51"/>
</a>
</g>
</g>
<!-- Node29 -->
<g id="Node000029" class="node">
<title>Node29</title>
<g id="a_Node000029"><a xlink:title=" ">
<polygon fill="#e0e0e0" stroke="#999999" points="817.5,-222.5 753.5,-222.5 753.5,-203.5 817.5,-203.5 817.5,-222.5"/>
<text text-anchor="middle" x="785.5" y="-210.5" font-family="Helvetica,sans-Serif" font-size="10.00">algorithm</text>
</a>
</g>
</g>
<!-- Node28&#45;&gt;Node29 -->
<g id="edge38_Node000028_Node000029" class="edge">
<title>Node28&#45;&gt;Node29</title>
<g id="a_edge38_Node000028_Node000029"><a xlink:title=" ">
<path fill="none" stroke="#63b8ff" d="M848.58,-263.87C836.99,-254.71 818.47,-240.06 804.48,-229.01"/>
<polygon fill="#63b8ff" stroke="#63b8ff" points="806.48,-226.12 796.46,-222.67 802.14,-231.61 806.48,-226.12"/>
</a>
</g>
</g>
<!-- Node30 -->
<g id="Node000030" class="node">
<title>Node30</title>
<g id="a_Node000030"><a xlink:title=" ">
<polygon fill="#e0e0e0" stroke="#999999" points="1035,-222.5 978,-222.5 978,-203.5 1035,-203.5 1035,-222.5"/>
<text text-anchor="middle" x="1006.5" y="-210.5" font-family="Helvetica,sans-Serif" font-size="10.00">ostream</text>
</a>
</g>
</g>
<!-- Node28&#45;&gt;Node30 -->
<g id="edge39_Node000028_Node000030" class="edge">
<title>Node28&#45;&gt;Node30</title>
<g id="a_edge39_Node000028_Node000030"><a xlink:title=" ">
<path fill="none" stroke="#63b8ff" d="M880.88,-263.99C905.81,-254.07 947.22,-237.59 975.64,-226.28"/>
<polygon fill="#63b8ff" stroke="#63b8ff" points="977.1,-229.47 985.1,-222.52 974.51,-222.96 977.1,-229.47"/>
</a>
</g>
</g>
<!-- Node31 -->
<g id="Node000031" class="node">
<title>Node31</title>
<g id="a_Node000031"><a xlink:title=" ">
<polygon fill="#e0e0e0" stroke="#999999" points="883,-222.5 836,-222.5 836,-203.5 883,-203.5 883,-222.5"/>
<text text-anchor="middle" x="859.5" y="-210.5" font-family="Helvetica,sans-Serif" font-size="10.00">vector</text>
</a>
</g>
</g>
<!-- Node28&#45;&gt;Node31 -->
<g id="edge40_Node000028_Node000031" class="edge">
<title>Node28&#45;&gt;Node31</title>
<g id="a_edge40_Node000028_Node000031"><a xlink:title=" ">
<path fill="none" stroke="#63b8ff" d="M859.5,-263.87C859.5,-255.75 859.5,-243.31 859.5,-232.89"/>
<polygon fill="#63b8ff" stroke="#63b8ff" points="863,-232.67 859.5,-222.67 856,-232.67 863,-232.67"/>
</a>
</g>
</g>
<!-- Node32&#45;&gt;Node16 -->
<g id="edge46_Node000032_Node000016" class="edge">
<title>Node32&#45;&gt;Node16</title>
<g id="a_edge46_Node000032_Node000016"><a xlink:title=" ">
<path fill="none" stroke="#63b8ff" d="M931.2,-318.93C979.26,-299.52 1083.82,-249.81 1044.5,-198 1030.63,-179.72 976.91,-166.32 931.91,-158.02"/>
<polygon fill="#63b8ff" stroke="#63b8ff" points="932.33,-154.54 921.87,-156.22 931.09,-161.43 932.33,-154.54"/>
</a>
</g>
</g>
<!-- Node32&#45;&gt;Node28 -->
<g id="edge47_Node000032_Node000028" class="edge">
<title>Node32&#45;&gt;Node28</title>
<g id="a_edge47_Node000032_Node000028"><a xlink:title=" ">
<path fill="none" stroke="#63b8ff" d="M900.41,-318.75C893.34,-311.11 882.91,-299.82 874.35,-290.56"/>
<polygon fill="#63b8ff" stroke="#63b8ff" points="876.8,-288.06 867.44,-283.09 871.66,-292.81 876.8,-288.06"/>
</a>
</g>
</g>
<!-- Node32&#45;&gt;Node30 -->
<g id="edge48_Node000032_Node000030" class="edge">
<title>Node32&#45;&gt;Node30</title>
<g id="a_edge48_Node000032_Node000030"><a xlink:title=" ">
<path fill="none" stroke="#63b8ff" d="M915.87,-318.97C932.11,-300.15 971.25,-254.82 992.39,-230.34"/>
<polygon fill="#63b8ff" stroke="#63b8ff" points="995.16,-232.49 999.05,-222.63 989.86,-227.91 995.16,-232.49"/>
</a>
</g>
</g>
</g>
</svg>
