<?xml version="1.0" encoding="UTF-8" standalone="no"?>
<!DOCTYPE svg PUBLIC "-//W3C//DTD SVG 1.1//EN"
 "http://www.w3.org/Graphics/SVG/1.1/DTD/svg11.dtd">
<!-- Generated by graphviz version 2.43.0 (0)
 -->
<!-- Title: src/si3_sim/main.cpp Pages: 1 -->
<svg width="1198pt" height="401pt"
 viewBox="0.00 0.00 1198.00 401.00" xmlns="http://www.w3.org/2000/svg" xmlns:xlink="http://www.w3.org/1999/xlink">
<g id="graph0" class="graph" transform="scale(1 1) rotate(0) translate(4 397)">
<title>src/si3_sim/main.cpp</title>
<!-- Node1 -->
<g id="Node000001" class="node">
<title>Node1</title>
<g id="a_Node000001"><a xlink:title="Main entry point for the Si3 simulation tool.">
<polygon fill="#999999" stroke="#666666" points="479,-393 360,-393 360,-374 479,-374 479,-393"/>
<text text-anchor="middle" x="419.5" y="-381" font-family="Helvetica,sans-Serif" font-size="10.00">src/si3_sim/main.cpp</text>
</a>
</g>
</g>
<!-- Node2 -->
<g id="Node000002" class="node">
<title>Node2</title>
<g id="a_Node000002"><a xlink:title=" ">
<polygon fill="#e0e0e0" stroke="#999999" points="49,-338 0,-338 0,-319 49,-319 49,-338"/>
<text text-anchor="middle" x="24.5" y="-326" font-family="Helvetica,sans-Serif" font-size="10.00">cstdlib</text>
</a>
</g>
</g>
<!-- Node1&#45;&gt;Node2 -->
<g id="edge1_Node000001_Node000002" class="edge">
<title>Node1&#45;&gt;Node2</title>
<g id="a_edge1_Node000001_Node000002"><a xlink:title=" ">
<path fill="none" stroke="#63b8ff" d="M359.88,-377.56C289.94,-371.24 170.37,-358.76 59.32,-338.14"/>
<polygon fill="#63b8ff" stroke="#63b8ff" points="59.76,-334.66 49.29,-336.25 58.47,-341.54 59.76,-334.66"/>
</a>
</g>
</g>
<!-- Node3 -->
<g id="Node000003" class="node">
<title>Node3</title>
<g id="a_Node000003"><a xlink:title=" ">
<polygon fill="#e0e0e0" stroke="#999999" points="132,-338 67,-338 67,-319 132,-319 132,-338"/>
<text text-anchor="middle" x="99.5" y="-326" font-family="Helvetica,sans-Serif" font-size="10.00">exception</text>
</a>
</g>
</g>
<!-- Node1&#45;&gt;Node3 -->
<g id="edge2_Node000001_Node000003" class="edge">
<title>Node1&#45;&gt;Node3</title>
<g id="a_edge2_Node000001_Node000003"><a xlink:title=" ">
<path fill="none" stroke="#63b8ff" d="M361.12,-373.99C306.79,-365.89 223.32,-352.99 142.05,-338.22"/>
<polygon fill="#63b8ff" stroke="#63b8ff" points="142.61,-334.77 132.15,-336.41 141.35,-341.65 142.61,-334.77"/>
</a>
</g>
</g>
<!-- Node4 -->
<g id="Node000004" class="node">
<title>Node4</title>
<g id="a_Node000004"><a xlink:title=" ">
<polygon fill="#e0e0e0" stroke="#999999" points="205,-338 150,-338 150,-319 205,-319 205,-338"/>
<text text-anchor="middle" x="177.5" y="-326" font-family="Helvetica,sans-Serif" font-size="10.00">fstream</text>
</a>
</g>
</g>
<!-- Node1&#45;&gt;Node4 -->
<g id="edge3_Node000001_Node000004" class="edge">
<title>Node1&#45;&gt;Node4</title>
<g id="a_edge3_Node000001_Node000004"><a xlink:title=" ">
<path fill="none" stroke="#63b8ff" d="M380.62,-373.98C335.13,-364.02 260.32,-347.64 215.3,-337.78"/>
<polygon fill="#63b8ff" stroke="#63b8ff" points="215.86,-334.32 205.35,-335.6 214.37,-341.16 215.86,-334.32"/>
</a>
</g>
</g>
<!-- Node5 -->
<g id="Node000005" class="node">
<title>Node5</title>
<g id="a_Node000005"><a xlink:title=" ">
<polygon fill="#e0e0e0" stroke="#999999" points="243.5,-90.5 183.5,-90.5 183.5,-71.5 243.5,-71.5 243.5,-90.5"/>
<text text-anchor="middle" x="213.5" y="-78.5" font-family="Helvetica,sans-Serif" font-size="10.00">iostream</text>
</a>
</g>
</g>
<!-- Node1&#45;&gt;Node5 -->
<g id="edge4_Node000001_Node000005" class="edge">
<title>Node1&#45;&gt;Node5</title>
<g id="a_edge4_Node000001_Node000005"><a xlink:title=" ">
<path fill="none" stroke="#63b8ff" d="M408.74,-373.94C366.99,-340.47 216.92,-217.57 193.5,-162 184.84,-141.46 194.11,-116.32 202.71,-99.76"/>
<polygon fill="#63b8ff" stroke="#63b8ff" points="205.96,-101.12 207.8,-90.69 199.86,-97.69 205.96,-101.12"/>
</a>
</g>
</g>
<!-- Node6 -->
<g id="Node000006" class="node">
<title>Node6</title>
<g id="a_Node000006"><a xlink:title=" ">
<polygon fill="#e0e0e0" stroke="#999999" points="327,-338 262,-338 262,-319 327,-319 327,-338"/>
<text text-anchor="middle" x="294.5" y="-326" font-family="Helvetica,sans-Serif" font-size="10.00">stdexcept</text>
</a>
</g>
</g>
<!-- Node1&#45;&gt;Node6 -->
<g id="edge5_Node000001_Node000006" class="edge">
<title>Node1&#45;&gt;Node6</title>
<g id="a_edge5_Node000001_Node000006"><a xlink:title=" ">
<path fill="none" stroke="#63b8ff" d="M399.42,-373.98C379.13,-365.38 347.54,-351.99 324.33,-342.15"/>
<polygon fill="#63b8ff" stroke="#63b8ff" points="325.52,-338.85 314.95,-338.17 322.79,-345.3 325.52,-338.85"/>
</a>
</g>
</g>
<!-- Node7 -->
<g id="Node000007" class="node">
<title>Node7</title>
<g id="a_Node000007"><a xlink:title=" ">
<polygon fill="#e0e0e0" stroke="#999999" points="1190,-24.5 1117,-24.5 1117,-5.5 1190,-5.5 1190,-24.5"/>
<text text-anchor="middle" x="1153.5" y="-12.5" font-family="Helvetica,sans-Serif" font-size="10.00">string_view</text>
</a>
</g>
</g>
<!-- Node1&#45;&gt;Node7 -->
<g id="edge6_Node000001_Node000007" class="edge">
<title>Node1&#45;&gt;Node7</title>
<g id="a_edge6_Node000001_Node000007"><a xlink:title=" ">
<path fill="none" stroke="#63b8ff" d="M479.2,-383.17C585.86,-383.22 815.7,-378.1 1004.5,-338 1086.66,-320.55 1182.5,-358.49 1182.5,-274.5 1182.5,-274.5 1182.5,-274.5 1182.5,-146 1182.5,-105.31 1168.8,-59.14 1160.23,-34.24"/>
<polygon fill="#63b8ff" stroke="#63b8ff" points="1163.48,-32.92 1156.83,-24.68 1156.88,-35.27 1163.48,-32.92"/>
</a>
</g>
</g>
<!-- Node8 -->
<g id="Node000008" class="node">
<title>Node8</title>
<g id="a_Node000008"><a xlink:title=" ">
<polygon fill="#e0e0e0" stroke="#999999" points="455,-338 384,-338 384,-319 455,-319 455,-338"/>
<text text-anchor="middle" x="419.5" y="-326" font-family="Helvetica,sans-Serif" font-size="10.00">CLI/CLI.hpp</text>
</a>
</g>
</g>
<!-- Node1&#45;&gt;Node8 -->
<g id="edge7_Node000001_Node000008" class="edge">
<title>Node1&#45;&gt;Node8</title>
<g id="a_edge7_Node000001_Node000008"><a xlink:title=" ">
<path fill="none" stroke="#63b8ff" d="M419.5,-373.75C419.5,-366.8 419.5,-356.85 419.5,-348.13"/>
<polygon fill="#63b8ff" stroke="#63b8ff" points="423,-348.09 419.5,-338.09 416,-348.09 423,-348.09"/>
</a>
</g>
</g>
<!-- Node9 -->
<g id="Node000009" class="node">
<title>Node9</title>
<g id="a_Node000009"><a xlink:title=" ">
<polygon fill="#e0e0e0" stroke="#999999" points="542,-338 473,-338 473,-319 542,-319 542,-338"/>
<text text-anchor="middle" x="507.5" y="-326" font-family="Helvetica,sans-Serif" font-size="10.00">fmt/base.h</text>
</a>
</g>
</g>
<!-- Node1&#45;&gt;Node9 -->
<g id="edge8_Node000001_Node000009" class="edge">
<title>Node1&#45;&gt;Node9</title>
<g id="a_edge8_Node000001_Node000009"><a xlink:title=" ">
<path fill="none" stroke="#63b8ff" d="M433.64,-373.98C447.29,-365.77 468.19,-353.18 484.28,-343.49"/>
<polygon fill="#63b8ff" stroke="#63b8ff" points="486.34,-346.33 493.1,-338.17 482.73,-340.33 486.34,-346.33"/>
</a>
</g>
</g>
<!-- Node10 -->
<g id="Node000010" class="node">
<title>Node10</title>
<g id="a_Node000010"><a xlink:title=" ">
<polygon fill="#e0e0e0" stroke="#999999" points="282,-156.5 203,-156.5 203,-137.5 282,-137.5 282,-156.5"/>
<text text-anchor="middle" x="242.5" y="-144.5" font-family="Helvetica,sans-Serif" font-size="10.00">fmt/format.h</text>
</a>
</g>
</g>
<!-- Node1&#45;&gt;Node10 -->
<g id="edge9_Node000001_Node000010" class="edge">
<title>Node1&#45;&gt;Node10</title>
<g id="a_edge9_Node000001_Node000010"><a xlink:title=" ">
<path fill="none" stroke="#63b8ff" d="M359.83,-374.11C317.6,-366.84 266.16,-354.84 252.5,-338 211.96,-288.02 227.34,-204.05 237,-166.79"/>
<polygon fill="#63b8ff" stroke="#63b8ff" points="240.46,-167.39 239.74,-156.82 233.72,-165.53 240.46,-167.39"/>
</a>
</g>
</g>
<!-- Node11 -->
<g id="Node000011" class="node">
<title>Node11</title>
<g id="a_Node000011"><a xlink:href="run__record_8hpp.html" target="_top" xlink:title="Run record structure and utilities.">
<polygon fill="white" stroke="#666666" points="613.5,-228 507.5,-228 507.5,-198 613.5,-198 613.5,-228"/>
<text text-anchor="start" x="515.5" y="-216" font-family="Helvetica,sans-Serif" font-size="10.00">Clock/misc_lib/run</text>
<text text-anchor="middle" x="560.5" y="-205" font-family="Helvetica,sans-Serif" font-size="10.00">_record.hpp</text>
</a>
</g>
</g>
<!-- Node1&#45;&gt;Node11 -->
<g id="edge10_Node000001_Node000011" class="edge">
<title>Node1&#45;&gt;Node11</title>
<g id="a_edge10_Node000001_Node000011"><a xlink:title=" ">
<path fill="none" stroke="#63b8ff" d="M479,-377.1C505.36,-371.49 534.25,-360.27 551.5,-338 573.67,-309.38 570.65,-265.03 565.93,-237.85"/>
<polygon fill="#63b8ff" stroke="#63b8ff" points="569.37,-237.16 564.02,-228.01 562.49,-238.5 569.37,-237.16"/>
</a>
</g>
</g>
<!-- Node26 -->
<g id="Node000026" class="node">
<title>Node26</title>
<g id="a_Node000026"><a xlink:title=" ">
<polygon fill="#e0e0e0" stroke="#999999" points="744.5,-156.5 588.5,-156.5 588.5,-137.5 744.5,-137.5 744.5,-156.5"/>
<text text-anchor="middle" x="666.5" y="-144.5" font-family="Helvetica,sans-Serif" font-size="10.00">internal_use_only/config.hpp</text>
</a>
</g>
</g>
<!-- Node1&#45;&gt;Node26 -->
<g id="edge48_Node000001_Node000026" class="edge">
<title>Node1&#45;&gt;Node26</title>
<g id="a_edge48_Node000001_Node000026"><a xlink:title=" ">
<path fill="none" stroke="#63b8ff" d="M479.25,-376.23C509.39,-370.45 544.89,-359.35 570.5,-338 626.08,-291.68 652.79,-205.11 662.29,-166.92"/>
<polygon fill="#63b8ff" stroke="#63b8ff" points="665.8,-167.26 664.69,-156.72 658.99,-165.65 665.8,-167.26"/>
</a>
</g>
</g>
<!-- Node27 -->
<g id="Node000027" class="node">
<title>Node27</title>
<g id="a_Node000027"><a xlink:href="config_8hpp.html" target="_top" xlink:title="Configuration structure for the Si3 simulation.">
<polygon fill="white" stroke="#666666" points="939,-283 802,-283 802,-264 939,-264 939,-283"/>
<text text-anchor="middle" x="870.5" y="-271" font-family="Helvetica,sans-Serif" font-size="10.00">Clock/si3_sim/config.hpp</text>
</a>
</g>
</g>
<!-- Node1&#45;&gt;Node27 -->
<g id="edge36_Node000001_Node000027" class="edge">
<title>Node1&#45;&gt;Node27</title>
<g id="a_edge36_Node000001_Node000027"><a xlink:title=" ">
<path fill="none" stroke="#63b8ff" d="M479.07,-373.96C529.58,-366.21 603.77,-353.62 667.5,-338 728.17,-323.13 797.3,-300.18 837.22,-286.33"/>
<polygon fill="#63b8ff" stroke="#63b8ff" points="838.43,-289.61 846.71,-283.01 836.12,-283.01 838.43,-289.61"/>
</a>
</g>
</g>
<!-- Node31 -->
<g id="Node000031" class="node">
<title>Node31</title>
<g id="a_Node000031"><a xlink:href="si3__sim_8hpp.html" target="_top" xlink:title="Header file for the Si3Sim class.">
<polygon fill="white" stroke="#666666" points="995.5,-338 849.5,-338 849.5,-319 995.5,-319 995.5,-338"/>
<text text-anchor="middle" x="922.5" y="-326" font-family="Helvetica,sans-Serif" font-size="10.00">Clock/si3_sim/si3_sim.hpp</text>
</a>
</g>
</g>
<!-- Node1&#45;&gt;Node31 -->
<g id="edge44_Node000001_Node000031" class="edge">
<title>Node1&#45;&gt;Node31</title>
<g id="a_edge44_Node000001_Node000031"><a xlink:title=" ">
<path fill="none" stroke="#63b8ff" d="M479.18,-376.21C568.62,-366.79 737.75,-348.97 839.28,-338.27"/>
<polygon fill="#63b8ff" stroke="#63b8ff" points="839.91,-341.72 849.49,-337.19 839.18,-334.76 839.91,-341.72"/>
</a>
</g>
</g>
<!-- Node11&#45;&gt;Node10 -->
<g id="edge15_Node000011_Node000010" class="edge">
<title>Node11&#45;&gt;Node10</title>
<g id="a_edge15_Node000011_Node000010"><a xlink:title=" ">
<path fill="none" stroke="#63b8ff" d="M507.44,-203.02C453.98,-193.72 369.22,-178.29 296.5,-162 292.41,-161.08 288.15,-160.08 283.91,-159.03"/>
<polygon fill="#63b8ff" stroke="#63b8ff" points="284.66,-155.61 274.11,-156.57 282.95,-162.4 284.66,-155.61"/>
</a>
</g>
</g>
<!-- Node12 -->
<g id="Node000012" class="node">
<title>Node12</title>
<g id="a_Node000012"><a xlink:title=" ">
<polygon fill="#e0e0e0" stroke="#999999" points="919,-24.5 774,-24.5 774,-5.5 919,-5.5 919,-24.5"/>
<text text-anchor="middle" x="846.5" y="-12.5" font-family="Helvetica,sans-Serif" font-size="10.00">Clock/misc_lib_export.hpp</text>
</a>
</g>
</g>
<!-- Node11&#45;&gt;Node12 -->
<g id="edge11_Node000011_Node000012" class="edge">
<title>Node11&#45;&gt;Node12</title>
<g id="a_edge11_Node000011_Node000012"><a xlink:title=" ">
<path fill="none" stroke="#63b8ff" d="M561.52,-197.86C563.22,-181.18 567.74,-153.06 579.5,-132 599.73,-95.78 609.39,-86.42 645.5,-66 670,-52.15 739.71,-36.54 790.17,-26.5"/>
<polygon fill="#63b8ff" stroke="#63b8ff" points="790.85,-29.93 799.99,-24.57 789.5,-23.07 790.85,-29.93"/>
</a>
</g>
</g>
<!-- Node13 -->
<g id="Node000013" class="node">
<title>Node13</title>
<g id="a_Node000013"><a xlink:title=" ">
<polygon fill="#e0e0e0" stroke="#999999" points="532.5,-156.5 478.5,-156.5 478.5,-137.5 532.5,-137.5 532.5,-156.5"/>
<text text-anchor="middle" x="505.5" y="-144.5" font-family="Helvetica,sans-Serif" font-size="10.00">random</text>
</a>
</g>
</g>
<!-- Node11&#45;&gt;Node13 -->
<g id="edge12_Node000011_Node000013" class="edge">
<title>Node11&#45;&gt;Node13</title>
<g id="a_edge12_Node000011_Node000013"><a xlink:title=" ">
<path fill="none" stroke="#63b8ff" d="M548.29,-197.8C539.89,-188.01 528.69,-174.98 519.85,-164.7"/>
<polygon fill="#63b8ff" stroke="#63b8ff" points="522.27,-162.15 513.1,-156.84 516.96,-166.71 522.27,-162.15"/>
</a>
</g>
</g>
<!-- Node14 -->
<g id="Node000014" class="node">
<title>Node14</title>
<g id="a_Node000014"><a xlink:title=" ">
<polygon fill="#e0e0e0" stroke="#999999" points="77.5,-24.5 33.5,-24.5 33.5,-5.5 77.5,-5.5 77.5,-24.5"/>
<text text-anchor="middle" x="55.5" y="-12.5" font-family="Helvetica,sans-Serif" font-size="10.00">string</text>
</a>
</g>
</g>
<!-- Node11&#45;&gt;Node14 -->
<g id="edge13_Node000011_Node000014" class="edge">
<title>Node11&#45;&gt;Node14</title>
<g id="a_edge13_Node000011_Node000014"><a xlink:title=" ">
<path fill="none" stroke="#63b8ff" d="M507.49,-210.36C458.33,-206.65 384.8,-195.39 330.5,-162 283.67,-133.21 299.34,-94.78 252.5,-66 188.18,-26.48 158.19,-53.67 86.5,-30 85.06,-29.53 83.6,-29.01 82.14,-28.45"/>
<polygon fill="#63b8ff" stroke="#63b8ff" points="83.2,-25.11 72.62,-24.51 80.52,-31.57 83.2,-25.11"/>
</a>
</g>
</g>
<!-- Node15 -->
<g id="Node000015" class="node">
<title>Node15</title>
<g id="a_Node000015"><a xlink:title=" ">
<polygon fill="#e0e0e0" stroke="#999999" points="460,-156.5 339,-156.5 339,-137.5 460,-137.5 460,-156.5"/>
<text text-anchor="middle" x="399.5" y="-144.5" font-family="Helvetica,sans-Serif" font-size="10.00">boost/json/object.hpp</text>
</a>
</g>
</g>
<!-- Node11&#45;&gt;Node15 -->
<g id="edge14_Node000011_Node000015" class="edge">
<title>Node11&#45;&gt;Node15</title>
<g id="a_edge14_Node000011_Node000015"><a xlink:title=" ">
<path fill="none" stroke="#63b8ff" d="M525.17,-197.95C496.81,-186.68 457.39,-171.01 430.3,-160.25"/>
<polygon fill="#63b8ff" stroke="#63b8ff" points="431.51,-156.96 420.93,-156.52 428.93,-163.46 431.51,-156.96"/>
</a>
</g>
</g>
<!-- Node16 -->
<g id="Node000016" class="node">
<title>Node16</title>
<g id="a_Node000016"><a xlink:href="date__time_8hpp_source.html" target="_top" xlink:title=" ">
<polygon fill="white" stroke="#666666" points="912.5,-162 800.5,-162 800.5,-132 912.5,-132 912.5,-162"/>
<text text-anchor="start" x="808.5" y="-150" font-family="Helvetica,sans-Serif" font-size="10.00">Clock/misc_lib/date</text>
<text text-anchor="middle" x="856.5" y="-139" font-family="Helvetica,sans-Serif" font-size="10.00">_time.hpp</text>
</a>
</g>
</g>
<!-- Node11&#45;&gt;Node16 -->
<g id="edge16_Node000011_Node000016" class="edge">
<title>Node11&#45;&gt;Node16</title>
<g id="a_edge16_Node000011_Node000016"><a xlink:title=" ">
<path fill="none" stroke="#63b8ff" d="M613.76,-200.48C663.25,-189.78 737.12,-173.81 790.37,-162.3"/>
<polygon fill="#63b8ff" stroke="#63b8ff" points="791.36,-165.66 800.4,-160.13 789.88,-158.82 791.36,-165.66"/>
</a>
</g>
</g>
<!-- Node11&#45;&gt;Node26 -->
<g id="edge35_Node000011_Node000026" class="edge">
<title>Node11&#45;&gt;Node26</title>
<g id="a_edge35_Node000011_Node000026"><a xlink:title=" ">
<path fill="none" stroke="#63b8ff" d="M583.76,-197.95C601.61,-187.18 626.12,-172.38 643.83,-161.69"/>
<polygon fill="#63b8ff" stroke="#63b8ff" points="645.64,-164.68 652.39,-156.52 642.02,-158.69 645.64,-164.68"/>
</a>
</g>
</g>
<!-- Node16&#45;&gt;Node5 -->
<g id="edge18_Node000016_Node000005" class="edge">
<title>Node16&#45;&gt;Node5</title>
<g id="a_edge18_Node000016_Node000005"><a xlink:title=" ">
<path fill="none" stroke="#63b8ff" d="M800.43,-137.89C785.22,-135.82 768.74,-133.71 753.5,-132 572.59,-111.74 526.69,-113.6 345.5,-96 314.76,-93.01 280.02,-89.32 253.9,-86.47"/>
<polygon fill="#63b8ff" stroke="#63b8ff" points="253.95,-82.96 243.63,-85.35 253.19,-89.91 253.95,-82.96"/>
</a>
</g>
</g>
<!-- Node16&#45;&gt;Node7 -->
<g id="edge20_Node000016_Node000007" class="edge">
<title>Node16&#45;&gt;Node7</title>
<g id="a_edge20_Node000016_Node000007"><a xlink:title=" ">
<path fill="none" stroke="#63b8ff" d="M912.56,-142.13C981.78,-136.26 1094.22,-122.83 1125.5,-96 1143.44,-80.61 1149.89,-53.03 1152.21,-34.62"/>
<polygon fill="#63b8ff" stroke="#63b8ff" points="1155.71,-34.82 1153.18,-24.53 1148.74,-34.15 1155.71,-34.82"/>
</a>
</g>
</g>
<!-- Node16&#45;&gt;Node12 -->
<g id="edge17_Node000016_Node000012" class="edge">
<title>Node16&#45;&gt;Node12</title>
<g id="a_edge17_Node000016_Node000012"><a xlink:title=" ">
<path fill="none" stroke="#63b8ff" d="M800.37,-133.74C742.81,-120.91 661.04,-101.82 656.5,-96 648.29,-85.49 648.36,-76.56 656.5,-66 664.99,-54.99 739.69,-37.73 792.85,-26.64"/>
<polygon fill="#63b8ff" stroke="#63b8ff" points="793.75,-30.03 802.84,-24.58 792.33,-23.18 793.75,-30.03"/>
</a>
</g>
</g>
<!-- Node16&#45;&gt;Node14 -->
<g id="edge19_Node000016_Node000014" class="edge">
<title>Node16&#45;&gt;Node14</title>
<g id="a_edge19_Node000016_Node000014"><a xlink:title=" ">
<path fill="none" stroke="#63b8ff" d="M800.42,-138C785.21,-135.93 768.73,-133.79 753.5,-132 592.04,-113.05 546.37,-138.66 389.5,-96 358.8,-87.65 354.98,-75.14 324.5,-66 222.02,-35.28 189.1,-60.3 86.5,-30 84.86,-29.52 83.2,-28.96 81.54,-28.37"/>
<polygon fill="#63b8ff" stroke="#63b8ff" points="82.82,-25.1 72.23,-24.56 80.17,-31.58 82.82,-25.1"/>
</a>
</g>
</g>
<!-- Node17 -->
<g id="Node000017" class="node">
<title>Node17</title>
<g id="a_Node000017"><a xlink:title=" ">
<polygon fill="#e0e0e0" stroke="#999999" points="755.5,-30 587.5,-30 587.5,0 755.5,0 755.5,-30"/>
<text text-anchor="start" x="595.5" y="-18" font-family="Helvetica,sans-Serif" font-size="10.00">boost/date_time/posix</text>
<text text-anchor="middle" x="671.5" y="-7" font-family="Helvetica,sans-Serif" font-size="10.00">_time/posix_time_duration.hpp</text>
</a>
</g>
</g>
<!-- Node16&#45;&gt;Node17 -->
<g id="edge21_Node000016_Node000017" class="edge">
<title>Node16&#45;&gt;Node17</title>
<g id="a_edge21_Node000016_Node000017"><a xlink:title=" ">
<path fill="none" stroke="#63b8ff" d="M800.31,-134.48C739.48,-121.74 650.4,-102.19 645.5,-96 632.31,-79.32 642.54,-55.73 653.81,-38.49"/>
<polygon fill="#63b8ff" stroke="#63b8ff" points="656.8,-40.32 659.68,-30.12 651.07,-36.3 656.8,-40.32"/>
</a>
</g>
</g>
<!-- Node18 -->
<g id="Node000018" class="node">
<title>Node18</title>
<g id="a_Node000018"><a xlink:title=" ">
<polygon fill="#e0e0e0" stroke="#999999" points="820,-96 665,-96 665,-66 820,-66 820,-96"/>
<text text-anchor="start" x="673" y="-84" font-family="Helvetica,sans-Serif" font-size="10.00">boost/date_time/posix</text>
<text text-anchor="middle" x="742.5" y="-73" font-family="Helvetica,sans-Serif" font-size="10.00">_time/posix_time_types.hpp</text>
</a>
</g>
</g>
<!-- Node16&#45;&gt;Node18 -->
<g id="edge22_Node000016_Node000018" class="edge">
<title>Node16&#45;&gt;Node18</title>
<g id="a_edge22_Node000016_Node000018"><a xlink:title=" ">
<path fill="none" stroke="#63b8ff" d="M831.48,-131.95C815.3,-122.87 794.02,-110.93 776.34,-101"/>
<polygon fill="#63b8ff" stroke="#63b8ff" points="777.89,-97.86 767.46,-96.01 774.47,-103.96 777.89,-97.86"/>
</a>
</g>
</g>
<!-- Node19 -->
<g id="Node000019" class="node">
<title>Node19</title>
<g id="a_Node000019"><a xlink:title=" ">
<polygon fill="#e0e0e0" stroke="#999999" points="963,-96 838,-96 838,-66 963,-66 963,-96"/>
<text text-anchor="start" x="846" y="-84" font-family="Helvetica,sans-Serif" font-size="10.00">boost/date_time/posix</text>
<text text-anchor="middle" x="900.5" y="-73" font-family="Helvetica,sans-Serif" font-size="10.00">_time/ptime.hpp</text>
</a>
</g>
</g>
<!-- Node16&#45;&gt;Node19 -->
<g id="edge23_Node000016_Node000019" class="edge">
<title>Node16&#45;&gt;Node19</title>
<g id="a_edge23_Node000016_Node000019"><a xlink:title=" ">
<path fill="none" stroke="#63b8ff" d="M866.27,-131.8C871.79,-123.76 878.83,-113.53 885.08,-104.43"/>
<polygon fill="#63b8ff" stroke="#63b8ff" points="887.98,-106.39 890.76,-96.16 882.21,-102.42 887.98,-106.39"/>
</a>
</g>
</g>
<!-- Node20 -->
<g id="Node000020" class="node">
<title>Node20</title>
<g id="a_Node000020"><a xlink:href="quad_8hpp.html" target="_top" xlink:title="Quad precision floating&#45;point type and utilities.">
<polygon fill="white" stroke="#666666" points="1116,-90.5 981,-90.5 981,-71.5 1116,-71.5 1116,-90.5"/>
<text text-anchor="middle" x="1048.5" y="-78.5" font-family="Helvetica,sans-Serif" font-size="10.00">Clock/misc_lib/quad.hpp</text>
</a>
</g>
</g>
<!-- Node16&#45;&gt;Node20 -->
<g id="edge24_Node000016_Node000020" class="edge">
<title>Node16&#45;&gt;Node20</title>
<g id="a_edge24_Node000016_Node000020"><a xlink:title=" ">
<path fill="none" stroke="#63b8ff" d="M898.64,-131.95C933.05,-120.48 981.12,-104.46 1013.45,-93.68"/>
<polygon fill="#63b8ff" stroke="#63b8ff" points="1014.57,-97 1022.95,-90.52 1012.35,-90.36 1014.57,-97"/>
</a>
</g>
</g>
<!-- Node22 -->
<g id="Node000022" class="node">
<title>Node22</title>
<g id="a_Node000022"><a xlink:href="time_8hpp.html" target="_top" xlink:title="DateTime data structure and utilities.">
<polygon fill="white" stroke="#666666" points="532.5,-90.5 398.5,-90.5 398.5,-71.5 532.5,-71.5 532.5,-90.5"/>
<text text-anchor="middle" x="465.5" y="-78.5" font-family="Helvetica,sans-Serif" font-size="10.00">Clock/misc_lib/time.hpp</text>
</a>
</g>
</g>
<!-- Node16&#45;&gt;Node22 -->
<g id="edge28_Node000016_Node000022" class="edge">
<title>Node16&#45;&gt;Node22</title>
<g id="a_edge28_Node000016_Node000022"><a xlink:title=" ">
<path fill="none" stroke="#63b8ff" d="M800.38,-134.56C795.69,-133.67 791.01,-132.8 786.5,-132 700.19,-116.65 600.35,-101.51 535.23,-91.98"/>
<polygon fill="#63b8ff" stroke="#63b8ff" points="535.49,-88.48 525.08,-90.5 534.47,-95.41 535.49,-88.48"/>
</a>
</g>
</g>
<!-- Node20&#45;&gt;Node7 -->
<g id="edge26_Node000020_Node000007" class="edge">
<title>Node20&#45;&gt;Node7</title>
<g id="a_edge26_Node000020_Node000007"><a xlink:title=" ">
<path fill="none" stroke="#63b8ff" d="M1062.66,-71.37C1080.04,-60.78 1109.74,-42.67 1130.43,-30.06"/>
<polygon fill="#63b8ff" stroke="#63b8ff" points="1132.51,-32.89 1139.23,-24.7 1128.87,-26.92 1132.51,-32.89"/>
</a>
</g>
</g>
<!-- Node20&#45;&gt;Node12 -->
<g id="edge25_Node000020_Node000012" class="edge">
<title>Node20&#45;&gt;Node12</title>
<g id="a_edge25_Node000020_Node000012"><a xlink:title=" ">
<path fill="none" stroke="#63b8ff" d="M1021.26,-71.37C985.62,-60.08 923.03,-40.25 883.23,-27.64"/>
<polygon fill="#63b8ff" stroke="#63b8ff" points="884.22,-24.28 873.63,-24.6 882.11,-30.95 884.22,-24.28"/>
</a>
</g>
</g>
<!-- Node21 -->
<g id="Node000021" class="node">
<title>Node21</title>
<g id="a_Node000021"><a xlink:title=" ">
<polygon fill="#e0e0e0" stroke="#999999" points="1098.5,-30 982.5,-30 982.5,0 1098.5,0 1098.5,-30"/>
<text text-anchor="start" x="990.5" y="-18" font-family="Helvetica,sans-Serif" font-size="10.00">boost/multiprecision</text>
<text text-anchor="middle" x="1040.5" y="-7" font-family="Helvetica,sans-Serif" font-size="10.00">/cpp_bin_float.hpp</text>
</a>
</g>
</g>
<!-- Node20&#45;&gt;Node21 -->
<g id="edge27_Node000020_Node000021" class="edge">
<title>Node20&#45;&gt;Node21</title>
<g id="a_edge27_Node000020_Node000021"><a xlink:title=" ">
<path fill="none" stroke="#63b8ff" d="M1047.42,-71.37C1046.44,-63.49 1044.93,-51.45 1043.58,-40.6"/>
<polygon fill="#63b8ff" stroke="#63b8ff" points="1047.01,-39.85 1042.3,-30.36 1040.06,-40.72 1047.01,-39.85"/>
</a>
</g>
</g>
<!-- Node22&#45;&gt;Node12 -->
<g id="edge29_Node000022_Node000012" class="edge">
<title>Node22&#45;&gt;Node12</title>
<g id="a_edge29_Node000022_Node000012"><a xlink:title=" ">
<path fill="none" stroke="#63b8ff" d="M514.75,-71.43C525.23,-69.62 536.23,-67.74 546.5,-66 643.33,-49.64 667.65,-46.26 764.5,-30 771.65,-28.8 779.14,-27.53 786.58,-26.27"/>
<polygon fill="#63b8ff" stroke="#63b8ff" points="787.37,-29.69 796.64,-24.56 786.19,-22.78 787.37,-29.69"/>
</a>
</g>
</g>
<!-- Node22&#45;&gt;Node14 -->
<g id="edge30_Node000022_Node000014" class="edge">
<title>Node22&#45;&gt;Node14</title>
<g id="a_edge30_Node000022_Node000014"><a xlink:title=" ">
<path fill="none" stroke="#63b8ff" d="M411.05,-71.47C398.71,-69.61 385.66,-67.69 373.5,-66 246.17,-48.33 210.24,-64.85 86.5,-30 84.82,-29.53 83.11,-28.98 81.41,-28.37"/>
<polygon fill="#63b8ff" stroke="#63b8ff" points="82.47,-25.02 71.89,-24.5 79.83,-31.51 82.47,-25.02"/>
</a>
</g>
</g>
<!-- Node22&#45;&gt;Node17 -->
<g id="edge32_Node000022_Node000017" class="edge">
<title>Node22&#45;&gt;Node17</title>
<g id="a_edge32_Node000022_Node000017"><a xlink:title=" ">
<path fill="none" stroke="#63b8ff" d="M493.28,-71.37C524.73,-61.6 576.76,-45.43 616.5,-33.09"/>
<polygon fill="#63b8ff" stroke="#63b8ff" points="617.55,-36.43 626.07,-30.12 615.48,-29.74 617.55,-36.43"/>
</a>
</g>
</g>
<!-- Node23 -->
<g id="Node000023" class="node">
<title>Node23</title>
<g id="a_Node000023"><a xlink:title=" ">
<polygon fill="#e0e0e0" stroke="#999999" points="253,-30 96,-30 96,0 253,0 253,-30"/>
<text text-anchor="start" x="104" y="-18" font-family="Helvetica,sans-Serif" font-size="10.00">boost/date_time/posix</text>
<text text-anchor="middle" x="174.5" y="-7" font-family="Helvetica,sans-Serif" font-size="10.00">_time/posix_time_config.hpp</text>
</a>
</g>
</g>
<!-- Node22&#45;&gt;Node23 -->
<g id="edge31_Node000022_Node000023" class="edge">
<title>Node22&#45;&gt;Node23</title>
<g id="a_edge31_Node000022_Node000023"><a xlink:title=" ">
<path fill="none" stroke="#63b8ff" d="M426.56,-71.44C381.12,-61.44 304.99,-44.7 248.27,-32.22"/>
<polygon fill="#63b8ff" stroke="#63b8ff" points="248.79,-28.75 238.27,-30.02 247.28,-35.59 248.79,-28.75"/>
</a>
</g>
</g>
<!-- Node24 -->
<g id="Node000024" class="node">
<title>Node24</title>
<g id="a_Node000024"><a xlink:title=" ">
<polygon fill="#e0e0e0" stroke="#999999" points="419.5,-30 271.5,-30 271.5,0 419.5,0 419.5,-30"/>
<text text-anchor="start" x="279.5" y="-18" font-family="Helvetica,sans-Serif" font-size="10.00">boost/date_time/posix</text>
<text text-anchor="middle" x="345.5" y="-7" font-family="Helvetica,sans-Serif" font-size="10.00">_time/time_formatters.hpp</text>
</a>
</g>
</g>
<!-- Node22&#45;&gt;Node24 -->
<g id="edge33_Node000022_Node000024" class="edge">
<title>Node22&#45;&gt;Node24</title>
<g id="a_edge33_Node000022_Node000024"><a xlink:title=" ">
<path fill="none" stroke="#63b8ff" d="M449.32,-71.37C431.89,-62.07 403.61,-46.99 380.96,-34.91"/>
<polygon fill="#63b8ff" stroke="#63b8ff" points="382.44,-31.73 371.97,-30.12 379.14,-37.91 382.44,-31.73"/>
</a>
</g>
</g>
<!-- Node25 -->
<g id="Node000025" class="node">
<title>Node25</title>
<g id="a_Node000025"><a xlink:title=" ">
<polygon fill="#e0e0e0" stroke="#999999" points="569.5,-30 437.5,-30 437.5,0 569.5,0 569.5,-30"/>
<text text-anchor="start" x="445.5" y="-18" font-family="Helvetica,sans-Serif" font-size="10.00">boost/date_time/posix</text>
<text text-anchor="middle" x="503.5" y="-7" font-family="Helvetica,sans-Serif" font-size="10.00">_time/time_parsers.hpp</text>
</a>
</g>
</g>
<!-- Node22&#45;&gt;Node25 -->
<g id="edge34_Node000022_Node000025" class="edge">
<title>Node22&#45;&gt;Node25</title>
<g id="a_edge34_Node000022_Node000025"><a xlink:title=" ">
<path fill="none" stroke="#63b8ff" d="M470.62,-71.37C475.5,-63.16 483.05,-50.44 489.69,-39.26"/>
<polygon fill="#63b8ff" stroke="#63b8ff" points="492.88,-40.75 494.97,-30.36 486.86,-37.17 492.88,-40.75"/>
</a>
</g>
</g>
<!-- Node27&#45;&gt;Node11 -->
<g id="edge42_Node000027_Node000011" class="edge">
<title>Node27&#45;&gt;Node11</title>
<g id="a_edge42_Node000027_Node000011"><a xlink:title=" ">
<path fill="none" stroke="#63b8ff" d="M825.42,-263.99C772.32,-253.97 683.77,-237.26 623.8,-225.95"/>
<polygon fill="#63b8ff" stroke="#63b8ff" points="624.17,-222.45 613.69,-224.04 622.87,-229.33 624.17,-222.45"/>
</a>
</g>
</g>
<!-- Node27&#45;&gt;Node16 -->
<g id="edge40_Node000027_Node000016" class="edge">
<title>Node27&#45;&gt;Node16</title>
<g id="a_edge40_Node000027_Node000016"><a xlink:title=" ">
<path fill="none" stroke="#63b8ff" d="M858.57,-263.8C848.67,-255.77 835.31,-242.87 829.5,-228 822.06,-208.94 830.76,-186.88 840.21,-170.75"/>
<polygon fill="#63b8ff" stroke="#63b8ff" points="843.36,-172.34 845.75,-162.02 837.44,-168.59 843.36,-172.34"/>
</a>
</g>
</g>
<!-- Node27&#45;&gt;Node20 -->
<g id="edge41_Node000027_Node000020" class="edge">
<title>Node27&#45;&gt;Node20</title>
<g id="a_edge41_Node000027_Node000020"><a xlink:title=" ">
<path fill="none" stroke="#63b8ff" d="M908.41,-263.97C930.76,-257.31 958.33,-246.08 977.5,-228 1015.68,-191.99 1035.88,-131.12 1044.06,-100.61"/>
<polygon fill="#63b8ff" stroke="#63b8ff" points="1047.55,-101.07 1046.62,-90.51 1040.77,-99.35 1047.55,-101.07"/>
</a>
</g>
</g>
<!-- Node27&#45;&gt;Node22 -->
<g id="edge43_Node000027_Node000022" class="edge">
<title>Node27&#45;&gt;Node22</title>
<g id="a_edge43_Node000027_Node000022"><a xlink:title=" ">
<path fill="none" stroke="#63b8ff" d="M860.01,-263.85C849.88,-255.26 834.38,-241.46 822.5,-228 787.73,-188.61 798.03,-159.9 753.5,-132 719.21,-110.51 615.85,-96.39 542.8,-88.8"/>
<polygon fill="#63b8ff" stroke="#63b8ff" points="543.01,-85.3 532.7,-87.77 542.3,-92.26 543.01,-85.3"/>
</a>
</g>
</g>
<!-- Node28 -->
<g id="Node000028" class="node">
<title>Node28</title>
<g id="a_Node000028"><a xlink:title=" ">
<polygon fill="#e0e0e0" stroke="#999999" points="902.5,-222.5 838.5,-222.5 838.5,-203.5 902.5,-203.5 902.5,-222.5"/>
<text text-anchor="middle" x="870.5" y="-210.5" font-family="Helvetica,sans-Serif" font-size="10.00">algorithm</text>
</a>
</g>
</g>
<!-- Node27&#45;&gt;Node28 -->
<g id="edge37_Node000027_Node000028" class="edge">
<title>Node27&#45;&gt;Node28</title>
<g id="a_edge37_Node000027_Node000028"><a xlink:title=" ">
<path fill="none" stroke="#63b8ff" d="M870.5,-263.87C870.5,-255.75 870.5,-243.31 870.5,-232.89"/>
<polygon fill="#63b8ff" stroke="#63b8ff" points="874,-232.67 870.5,-222.67 867,-232.67 874,-232.67"/>
</a>
</g>
</g>
<!-- Node29 -->
<g id="Node000029" class="node">
<title>Node29</title>
<g id="a_Node000029"><a xlink:title=" ">
<polygon fill="#e0e0e0" stroke="#999999" points="1082,-222.5 1025,-222.5 1025,-203.5 1082,-203.5 1082,-222.5"/>
<text text-anchor="middle" x="1053.5" y="-210.5" font-family="Helvetica,sans-Serif" font-size="10.00">ostream</text>
</a>
</g>
</g>
<!-- Node27&#45;&gt;Node29 -->
<g id="edge38_Node000027_Node000029" class="edge">
<title>Node27&#45;&gt;Node29</title>
<g id="a_edge38_Node000027_Node000029"><a xlink:title=" ">
<path fill="none" stroke="#63b8ff" d="M897.62,-263.94C925.83,-255.02 971.29,-240.61 1010.5,-228 1012.77,-227.27 1015.11,-226.52 1017.46,-225.75"/>
<polygon fill="#63b8ff" stroke="#63b8ff" points="1018.7,-229.03 1027.13,-222.62 1016.54,-222.37 1018.7,-229.03"/>
</a>
</g>
</g>
<!-- Node30 -->
<g id="Node000030" class="node">
<title>Node30</title>
<g id="a_Node000030"><a xlink:title=" ">
<polygon fill="#e0e0e0" stroke="#999999" points="968,-222.5 921,-222.5 921,-203.5 968,-203.5 968,-222.5"/>
<text text-anchor="middle" x="944.5" y="-210.5" font-family="Helvetica,sans-Serif" font-size="10.00">vector</text>
</a>
</g>
</g>
<!-- Node27&#45;&gt;Node30 -->
<g id="edge39_Node000027_Node000030" class="edge">
<title>Node27&#45;&gt;Node30</title>
<g id="a_edge39_Node000027_Node000030"><a xlink:title=" ">
<path fill="none" stroke="#63b8ff" d="M881.42,-263.87C893.01,-254.71 911.53,-240.06 925.52,-229.01"/>
<polygon fill="#63b8ff" stroke="#63b8ff" points="927.86,-231.61 933.54,-222.67 923.52,-226.12 927.86,-231.61"/>
</a>
</g>
</g>
<!-- Node31&#45;&gt;Node16 -->
<g id="edge45_Node000031_Node000016" class="edge">
<title>Node31&#45;&gt;Node16</title>
<g id="a_edge45_Node000031_Node000016"><a xlink:title=" ">
<path fill="none" stroke="#63b8ff" d="M953.05,-318.91C1013.17,-300.54 1137.2,-254.45 1091.5,-198 1070.58,-172.17 984.63,-159.12 922.72,-152.95"/>
<polygon fill="#63b8ff" stroke="#63b8ff" points="922.91,-149.45 912.62,-151.98 922.24,-156.42 922.91,-149.45"/>
</a>
</g>
</g>
<!-- Node31&#45;&gt;Node27 -->
<g id="edge46_Node000031_Node000027" class="edge">
<title>Node31&#45;&gt;Node27</title>
<g id="a_edge46_Node000031_Node000027"><a xlink:title=" ">
<path fill="none" stroke="#63b8ff" d="M913.91,-318.75C906.34,-311.03 895.12,-299.6 885.99,-290.28"/>
<polygon fill="#63b8ff" stroke="#63b8ff" points="888.43,-287.78 878.93,-283.09 883.43,-292.68 888.43,-287.78"/>
</a>
</g>
</g>
<!-- Node31&#45;&gt;Node29 -->
<g id="edge47_Node000031_Node000029" class="edge">
<title>Node31&#45;&gt;Node29</title>
<g id="a_edge47_Node000031_Node000029"><a xlink:title=" ">
<path fill="none" stroke="#63b8ff" d="M932.35,-318.97C954.35,-299.91 1007.76,-253.63 1035.74,-229.39"/>
<polygon fill="#63b8ff" stroke="#63b8ff" points="1038.27,-231.82 1043.54,-222.63 1033.69,-226.53 1038.27,-231.82"/>
</a>
</g>
</g>
</g>
</svg>
