<?xml version="1.0" encoding="UTF-8" standalone="no"?>
<!DOCTYPE svg PUBLIC "-//W3C//DTD SVG 1.1//EN"
 "http://www.w3.org/Graphics/SVG/1.1/DTD/svg11.dtd">
<!-- Generated by graphviz version 2.43.0 (0)
 -->
<!-- Title: include/Clock/misc_lib/quad.hpp Pages: 1 -->
<svg width="899pt" height="357pt"
 viewBox="0.00 0.00 898.73 357.00" xmlns="http://www.w3.org/2000/svg" xmlns:xlink="http://www.w3.org/1999/xlink">
<g id="graph0" class="graph" transform="scale(1 1) rotate(0) translate(4 353)">
<title>include/Clock/misc_lib/quad.hpp</title>
<!-- Node1 -->
<g id="Node000001" class="node">
<title>Node1</title>
<g id="a_Node000001"><a xlink:title="Quad precision floating&#45;point type and utilities.">
<polygon fill="#999999" stroke="#666666" points="673.73,-349 565.73,-349 565.73,-319 673.73,-319 673.73,-349"/>
<text text-anchor="start" x="573.73" y="-337" font-family="Helvetica,sans-Serif" font-size="10.00">include/Clock/misc</text>
<text text-anchor="middle" x="619.73" y="-326" font-family="Helvetica,sans-Serif" font-size="10.00">_lib/quad.hpp</text>
</a>
</g>
</g>
<!-- Node2 -->
<g id="Node000002" class="node">
<title>Node2</title>
<g id="a_Node000002"><a xlink:href="date__time_8hpp.html" target="_top" xlink:title="DateTime data structure and utilities.">
<polygon fill="white" stroke="#666666" points="552.73,-283 444.73,-283 444.73,-253 552.73,-253 552.73,-283"/>
<text text-anchor="start" x="452.73" y="-271" font-family="Helvetica,sans-Serif" font-size="10.00">include/Clock/misc</text>
<text text-anchor="middle" x="498.73" y="-260" font-family="Helvetica,sans-Serif" font-size="10.00">_lib/date_time.hpp</text>
</a>
</g>
</g>
<!-- Node1&#45;&gt;Node2 -->
<g id="edge1_Node000001_Node000002" class="edge">
<title>Node1&#45;&gt;Node2</title>
<g id="a_edge1_Node000001_Node000002"><a xlink:title=" ">
<path fill="none" stroke="#63b8ff" d="M584.27,-314.24C565.38,-304.25 542.55,-292.18 525.22,-283.01"/>
<polygon fill="#63b8ff" stroke="#63b8ff" points="582.7,-317.37 593.18,-318.95 585.97,-311.19 582.7,-317.37"/>
</a>
</g>
</g>
<!-- Node4 -->
<g id="Node000004" class="node">
<title>Node4</title>
<g id="a_Node000004"><a xlink:href="config_8hpp.html" target="_top" xlink:title="Configuration structure for the Si3 simulation.">
<polygon fill="white" stroke="#666666" points="432.73,-151 310.73,-151 310.73,-121 432.73,-121 432.73,-151"/>
<text text-anchor="start" x="318.73" y="-139" font-family="Helvetica,sans-Serif" font-size="10.00">include/Clock/si3_sim</text>
<text text-anchor="middle" x="371.73" y="-128" font-family="Helvetica,sans-Serif" font-size="10.00">/config.hpp</text>
</a>
</g>
</g>
<!-- Node1&#45;&gt;Node4 -->
<g id="edge18_Node000001_Node000004" class="edge">
<title>Node1&#45;&gt;Node4</title>
<g id="a_edge18_Node000001_Node000004"><a xlink:title=" ">
<path fill="none" stroke="#63b8ff" d="M555.5,-329.28C516.85,-323.97 468.87,-311.57 435.73,-283 394.44,-247.4 378.8,-180.13 373.78,-151.02"/>
<polygon fill="#63b8ff" stroke="#63b8ff" points="555.27,-332.77 565.62,-330.54 556.13,-325.83 555.27,-332.77"/>
</a>
</g>
</g>
<!-- Node7 -->
<g id="Node000007" class="node">
<title>Node7</title>
<g id="a_Node000007"><a xlink:href="si3__sim_8cpp.html" target="_top" xlink:title="Implementation of the Si3Sim class.">
<polygon fill="white" stroke="#666666" points="474.73,-19 342.73,-19 342.73,0 474.73,0 474.73,-19"/>
<text text-anchor="middle" x="408.73" y="-7" font-family="Helvetica,sans-Serif" font-size="10.00">src/si3_sim/si3_sim.cpp</text>
</a>
</g>
</g>
<!-- Node1&#45;&gt;Node7 -->
<g id="edge20_Node000001_Node000007" class="edge">
<title>Node1&#45;&gt;Node7</title>
<g id="a_edge20_Node000001_Node000007"><a xlink:title=" ">
<path fill="none" stroke="#63b8ff" d="M656.22,-313.78C691.85,-292.08 740.73,-253.17 740.73,-203 740.73,-203 740.73,-203 740.73,-135 740.73,-76.06 554.95,-35.63 461.34,-19"/>
<polygon fill="#63b8ff" stroke="#63b8ff" points="654.33,-310.83 647.49,-318.92 657.88,-316.86 654.33,-310.83"/>
</a>
</g>
</g>
<!-- Node11 -->
<g id="Node000011" class="node">
<title>Node11</title>
<g id="a_Node000011"><a xlink:href="quad_8cpp.html" target="_top" xlink:title="Implementation of precision floating point.">
<polygon fill="white" stroke="#666666" points="890.73,-277.5 768.73,-277.5 768.73,-258.5 890.73,-258.5 890.73,-277.5"/>
<text text-anchor="middle" x="829.73" y="-265.5" font-family="Helvetica,sans-Serif" font-size="10.00">src/misc_lib/quad.cpp</text>
</a>
</g>
</g>
<!-- Node1&#45;&gt;Node11 -->
<g id="edge19_Node000001_Node000011" class="edge">
<title>Node1&#45;&gt;Node11</title>
<g id="a_edge19_Node000001_Node000011"><a xlink:title=" ">
<path fill="none" stroke="#63b8ff" d="M675.6,-315.97C716.3,-303.57 769.71,-287.29 801.78,-277.52"/>
<polygon fill="#63b8ff" stroke="#63b8ff" points="674.36,-312.69 665.82,-318.95 676.4,-319.39 674.36,-312.69"/>
</a>
</g>
</g>
<!-- Node3 -->
<g id="Node000003" class="node">
<title>Node3</title>
<g id="a_Node000003"><a xlink:href="run__record_8hpp.html" target="_top" xlink:title="Run record structure and utilities.">
<polygon fill="white" stroke="#666666" points="247.73,-217 137.73,-217 137.73,-187 247.73,-187 247.73,-217"/>
<text text-anchor="start" x="145.73" y="-205" font-family="Helvetica,sans-Serif" font-size="10.00">include/Clock/misc</text>
<text text-anchor="middle" x="192.73" y="-194" font-family="Helvetica,sans-Serif" font-size="10.00">_lib/run_record.hpp</text>
</a>
</g>
</g>
<!-- Node2&#45;&gt;Node3 -->
<g id="edge2_Node000002_Node000003" class="edge">
<title>Node2&#45;&gt;Node3</title>
<g id="a_edge2_Node000002_Node000003"><a xlink:title=" ">
<path fill="none" stroke="#63b8ff" d="M434.69,-253.61C379.36,-242.03 300.25,-225.49 247.74,-214.51"/>
<polygon fill="#63b8ff" stroke="#63b8ff" points="434.22,-257.08 444.73,-255.71 435.66,-250.23 434.22,-257.08"/>
</a>
</g>
</g>
<!-- Node2&#45;&gt;Node4 -->
<g id="edge13_Node000002_Node000004" class="edge">
<title>Node2&#45;&gt;Node4</title>
<g id="a_edge13_Node000002_Node000004"><a xlink:title=" ">
<path fill="none" stroke="#63b8ff" d="M476.17,-245.79C466.94,-236.99 456.22,-226.61 446.73,-217 424.39,-194.38 399.28,-167.23 384.52,-151.08"/>
<polygon fill="#63b8ff" stroke="#63b8ff" points="473.85,-248.42 483.51,-252.76 478.67,-243.34 473.85,-248.42"/>
</a>
</g>
</g>
<!-- Node5 -->
<g id="Node000005" class="node">
<title>Node5</title>
<g id="a_Node000005"><a xlink:href="si3__sim_8hpp.html" target="_top" xlink:title="Header file for the Si3Sim class.">
<polygon fill="white" stroke="#666666" points="380.73,-85 258.73,-85 258.73,-55 380.73,-55 380.73,-85"/>
<text text-anchor="start" x="266.73" y="-73" font-family="Helvetica,sans-Serif" font-size="10.00">include/Clock/si3_sim</text>
<text text-anchor="middle" x="319.73" y="-62" font-family="Helvetica,sans-Serif" font-size="10.00">/si3_sim.hpp</text>
</a>
</g>
</g>
<!-- Node2&#45;&gt;Node5 -->
<g id="edge14_Node000002_Node000005" class="edge">
<title>Node2&#45;&gt;Node5</title>
<g id="a_edge14_Node000002_Node000005"><a xlink:title=" ">
<path fill="none" stroke="#63b8ff" d="M495.28,-242.78C489.55,-210.92 475.18,-155.02 441.73,-121 425.12,-104.11 402,-92.7 380.35,-85.11"/>
<polygon fill="#63b8ff" stroke="#63b8ff" points="491.88,-243.67 496.97,-252.97 498.79,-242.53 491.88,-243.67"/>
</a>
</g>
</g>
<!-- Node2&#45;&gt;Node7 -->
<g id="edge17_Node000002_Node000007" class="edge">
<title>Node2&#45;&gt;Node7</title>
<g id="a_edge17_Node000002_Node000007"><a xlink:title=" ">
<path fill="none" stroke="#63b8ff" d="M511.48,-244.2C537.65,-195.99 593.04,-85.62 569.73,-55 557.09,-38.39 507.72,-26.38 466.95,-19.06"/>
<polygon fill="#63b8ff" stroke="#63b8ff" points="508.41,-242.52 506.67,-252.97 514.55,-245.89 508.41,-242.52"/>
</a>
</g>
</g>
<!-- Node8 -->
<g id="Node000008" class="node">
<title>Node8</title>
<g id="a_Node000008"><a xlink:href="config_8cpp.html" target="_top" xlink:title="Implementation of configuration utilities.">
<polygon fill="white" stroke="#666666" points="560.73,-79.5 436.73,-79.5 436.73,-60.5 560.73,-60.5 560.73,-79.5"/>
<text text-anchor="middle" x="498.73" y="-67.5" font-family="Helvetica,sans-Serif" font-size="10.00">src/si3_sim/config.cpp</text>
</a>
</g>
</g>
<!-- Node2&#45;&gt;Node8 -->
<g id="edge16_Node000002_Node000008" class="edge">
<title>Node2&#45;&gt;Node8</title>
<g id="a_edge16_Node000002_Node000008"><a xlink:title=" ">
<path fill="none" stroke="#63b8ff" d="M498.73,-242.83C498.73,-198.97 498.73,-108.18 498.73,-79.73"/>
<polygon fill="#63b8ff" stroke="#63b8ff" points="495.23,-242.9 498.73,-252.9 502.23,-242.9 495.23,-242.9"/>
</a>
</g>
</g>
<!-- Node10 -->
<g id="Node000010" class="node">
<title>Node10</title>
<g id="a_Node000010"><a xlink:href="date__time_8cpp.html" target="_top" xlink:title="Implementation of date and time utilities.">
<polygon fill="white" stroke="#666666" points="712.23,-211.5 565.23,-211.5 565.23,-192.5 712.23,-192.5 712.23,-211.5"/>
<text text-anchor="middle" x="638.73" y="-199.5" font-family="Helvetica,sans-Serif" font-size="10.00">src/misc_lib/date_time.cpp</text>
</a>
</g>
</g>
<!-- Node2&#45;&gt;Node10 -->
<g id="edge15_Node000002_Node000010" class="edge">
<title>Node2&#45;&gt;Node10</title>
<g id="a_edge15_Node000002_Node000010"><a xlink:title=" ">
<path fill="none" stroke="#63b8ff" d="M538.59,-248.78C565.36,-236.54 599.4,-220.98 620.1,-211.52"/>
<polygon fill="#63b8ff" stroke="#63b8ff" points="537.09,-245.61 529.45,-252.95 540,-251.98 537.09,-245.61"/>
</a>
</g>
</g>
<!-- Node3&#45;&gt;Node4 -->
<g id="edge3_Node000003_Node000004" class="edge">
<title>Node3&#45;&gt;Node4</title>
<g id="a_edge3_Node000003_Node000004"><a xlink:title=" ">
<path fill="none" stroke="#63b8ff" d="M241.8,-183.46C270.35,-173.25 305.86,-160.55 332.54,-151.01"/>
<polygon fill="#63b8ff" stroke="#63b8ff" points="240.25,-180.29 232.01,-186.95 242.61,-186.88 240.25,-180.29"/>
</a>
</g>
</g>
<!-- Node6 -->
<g id="Node000006" class="node">
<title>Node6</title>
<g id="a_Node000006"><a xlink:href="main_8cpp.html" target="_top" xlink:title="Main entry point for the Si3 simulation tool.">
<polygon fill="white" stroke="#666666" points="290.23,-19 171.23,-19 171.23,0 290.23,0 290.23,-19"/>
<text text-anchor="middle" x="230.73" y="-7" font-family="Helvetica,sans-Serif" font-size="10.00">src/si3_sim/main.cpp</text>
</a>
</g>
</g>
<!-- Node3&#45;&gt;Node6 -->
<g id="edge11_Node000003_Node000006" class="edge">
<title>Node3&#45;&gt;Node6</title>
<g id="a_edge11_Node000003_Node000006"><a xlink:title=" ">
<path fill="none" stroke="#63b8ff" d="M127.24,-196.52C62.15,-189.23 -23.88,-170.23 6.73,-121 44.85,-59.69 128.14,-31.39 181.72,-19.09"/>
<polygon fill="#63b8ff" stroke="#63b8ff" points="127.17,-200.03 137.48,-197.59 127.9,-193.07 127.17,-200.03"/>
</a>
</g>
</g>
<!-- Node3&#45;&gt;Node7 -->
<g id="edge12_Node000003_Node000007" class="edge">
<title>Node3&#45;&gt;Node7</title>
<g id="a_edge12_Node000003_Node000007"><a xlink:title=" ">
<path fill="none" stroke="#63b8ff" d="M195.54,-176.61C200.59,-144.16 214.21,-87.16 249.73,-55 275.02,-32.11 311.15,-20.88 342.59,-15.42"/>
<polygon fill="#63b8ff" stroke="#63b8ff" points="192.06,-176.21 194.14,-186.6 199,-177.18 192.06,-176.21"/>
</a>
</g>
</g>
<!-- Node9 -->
<g id="Node000009" class="node">
<title>Node9</title>
<g id="a_Node000009"><a xlink:href="run__record_8cpp.html" target="_top" xlink:title="Implementation of run record utilities.">
<polygon fill="white" stroke="#666666" points="165.23,-145.5 16.23,-145.5 16.23,-126.5 165.23,-126.5 165.23,-145.5"/>
<text text-anchor="middle" x="90.73" y="-133.5" font-family="Helvetica,sans-Serif" font-size="10.00">src/misc_lib/run_record.cpp</text>
</a>
</g>
</g>
<!-- Node3&#45;&gt;Node9 -->
<g id="edge10_Node000003_Node000009" class="edge">
<title>Node3&#45;&gt;Node9</title>
<g id="a_edge10_Node000003_Node000009"><a xlink:title=" ">
<path fill="none" stroke="#63b8ff" d="M161.63,-181.49C142.47,-169.46 118.86,-154.65 104.3,-145.52"/>
<polygon fill="#63b8ff" stroke="#63b8ff" points="160.02,-184.6 170.35,-186.95 163.74,-178.68 160.02,-184.6"/>
</a>
</g>
</g>
<!-- Node4&#45;&gt;Node5 -->
<g id="edge4_Node000004_Node000005" class="edge">
<title>Node4&#45;&gt;Node5</title>
<g id="a_edge4_Node000004_Node000005"><a xlink:title=" ">
<path fill="none" stroke="#63b8ff" d="M353.7,-112.81C346.25,-103.64 337.83,-93.28 331.24,-85.16"/>
<polygon fill="#63b8ff" stroke="#63b8ff" points="351.17,-115.24 360.19,-120.8 356.6,-110.83 351.17,-115.24"/>
</a>
</g>
</g>
<!-- Node4&#45;&gt;Node6 -->
<g id="edge8_Node000004_Node000006" class="edge">
<title>Node4&#45;&gt;Node6</title>
<g id="a_edge8_Node000004_Node000006"><a xlink:title=" ">
<path fill="none" stroke="#63b8ff" d="M301.03,-118.65C282.09,-111.2 263.16,-100.44 249.73,-85 233.26,-66.06 230.74,-34.76 230.55,-19.47"/>
<polygon fill="#63b8ff" stroke="#63b8ff" points="300.02,-122.01 310.61,-122.16 302.42,-115.43 300.02,-122.01"/>
</a>
</g>
</g>
<!-- Node4&#45;&gt;Node7 -->
<g id="edge9_Node000004_Node000007" class="edge">
<title>Node4&#45;&gt;Node7</title>
<g id="a_edge9_Node000004_Node000007"><a xlink:title=" ">
<path fill="none" stroke="#63b8ff" d="M380.8,-111.28C383.81,-103.02 387.08,-93.65 389.73,-85 396.93,-61.52 403.6,-33.31 406.78,-19.29"/>
<polygon fill="#63b8ff" stroke="#63b8ff" points="377.5,-110.09 377.3,-120.68 384.07,-112.53 377.5,-110.09"/>
</a>
</g>
</g>
<!-- Node4&#45;&gt;Node8 -->
<g id="edge7_Node000004_Node000008" class="edge">
<title>Node4&#45;&gt;Node8</title>
<g id="a_edge7_Node000004_Node000008"><a xlink:title=" ">
<path fill="none" stroke="#63b8ff" d="M408.84,-116.3C432.98,-104.14 463.29,-88.86 481.83,-79.52"/>
<polygon fill="#63b8ff" stroke="#63b8ff" points="406.96,-113.33 399.6,-120.95 410.11,-119.58 406.96,-113.33"/>
</a>
</g>
</g>
<!-- Node5&#45;&gt;Node6 -->
<g id="edge5_Node000005_Node000006" class="edge">
<title>Node5&#45;&gt;Node6</title>
<g id="a_edge5_Node000005_Node000006"><a xlink:title=" ">
<path fill="none" stroke="#63b8ff" d="M289.4,-49.06C273.86,-38.85 255.75,-26.95 243.81,-19.09"/>
<polygon fill="#63b8ff" stroke="#63b8ff" points="287.91,-52.27 298.19,-54.84 291.75,-46.42 287.91,-52.27"/>
</a>
</g>
</g>
<!-- Node5&#45;&gt;Node7 -->
<g id="edge6_Node000005_Node000007" class="edge">
<title>Node5&#45;&gt;Node7</title>
<g id="a_edge6_Node000005_Node000007"><a xlink:title=" ">
<path fill="none" stroke="#63b8ff" d="M350.06,-49.06C365.6,-38.85 383.71,-26.95 395.66,-19.09"/>
<polygon fill="#63b8ff" stroke="#63b8ff" points="347.71,-46.42 341.27,-54.84 351.55,-52.27 347.71,-46.42"/>
</a>
</g>
</g>
</g>
</svg>
