<?xml version="1.0" encoding="UTF-8" standalone="no"?>
<!DOCTYPE svg PUBLIC "-//W3C//DTD SVG 1.1//EN"
 "http://www.w3.org/Graphics/SVG/1.1/DTD/svg11.dtd">
<!-- Generated by graphviz version 2.43.0 (0)
 -->
<!-- Title: src/misc_lib/quad.cpp Pages: 1 -->
<svg width="491pt" height="148pt"
 viewBox="0.00 0.00 491.00 148.00" xmlns="http://www.w3.org/2000/svg" xmlns:xlink="http://www.w3.org/1999/xlink">
<g id="graph0" class="graph" transform="scale(1 1) rotate(0) translate(4 144)">
<title>src/misc_lib/quad.cpp</title>
<!-- Node1 -->
<g id="Node000001" class="node">
<title>Node1</title>
<g id="a_Node000001"><a xlink:title="Implementation of precision floating point.">
<polygon fill="#999999" stroke="#666666" points="390.5,-140 268.5,-140 268.5,-121 390.5,-121 390.5,-140"/>
<text text-anchor="middle" x="329.5" y="-128" font-family="Helvetica,sans-Serif" font-size="10.00">src/misc_lib/quad.cpp</text>
</a>
</g>
</g>
<!-- Node2 -->
<g id="Node000002" class="node">
<title>Node2</title>
<g id="a_Node000002"><a xlink:href="quad_8hpp.html" target="_top" xlink:title="Quad precision floating&#45;point type and utilities.">
<polygon fill="white" stroke="#666666" points="297,-85 162,-85 162,-66 297,-66 297,-85"/>
<text text-anchor="middle" x="229.5" y="-73" font-family="Helvetica,sans-Serif" font-size="10.00">Clock/misc_lib/quad.hpp</text>
</a>
</g>
</g>
<!-- Node1&#45;&gt;Node2 -->
<g id="edge1_Node000001_Node000002" class="edge">
<title>Node1&#45;&gt;Node2</title>
<g id="a_edge1_Node000001_Node000002"><a xlink:title=" ">
<path fill="none" stroke="#63b8ff" d="M313.43,-120.98C297.64,-112.61 273.28,-99.7 254.87,-89.95"/>
<polygon fill="#63b8ff" stroke="#63b8ff" points="256.33,-86.76 245.86,-85.17 253.06,-92.95 256.33,-86.76"/>
</a>
</g>
</g>
<!-- Node4 -->
<g id="Node000004" class="node">
<title>Node4</title>
<g id="a_Node000004"><a xlink:title=" ">
<polygon fill="#e0e0e0" stroke="#999999" points="371,-24.5 298,-24.5 298,-5.5 371,-5.5 371,-24.5"/>
<text text-anchor="middle" x="334.5" y="-12.5" font-family="Helvetica,sans-Serif" font-size="10.00">string_view</text>
</a>
</g>
</g>
<!-- Node1&#45;&gt;Node4 -->
<g id="edge5_Node000001_Node000004" class="edge">
<title>Node1&#45;&gt;Node4</title>
<g id="a_edge5_Node000001_Node000004"><a xlink:title=" ">
<path fill="none" stroke="#63b8ff" d="M329.88,-120.97C330.68,-102.73 332.58,-59.57 333.68,-34.64"/>
<polygon fill="#63b8ff" stroke="#63b8ff" points="337.18,-34.77 334.12,-24.63 330.18,-34.47 337.18,-34.77"/>
</a>
</g>
</g>
<!-- Node6 -->
<g id="Node000006" class="node">
<title>Node6</title>
<g id="a_Node000006"><a xlink:title=" ">
<polygon fill="#e0e0e0" stroke="#999999" points="483,-85 358,-85 358,-66 483,-66 483,-85"/>
<text text-anchor="middle" x="420.5" y="-73" font-family="Helvetica,sans-Serif" font-size="10.00">boost/lexical_cast.hpp</text>
</a>
</g>
</g>
<!-- Node1&#45;&gt;Node6 -->
<g id="edge6_Node000001_Node000006" class="edge">
<title>Node1&#45;&gt;Node6</title>
<g id="a_edge6_Node000001_Node000006"><a xlink:title=" ">
<path fill="none" stroke="#63b8ff" d="M344.12,-120.98C358.36,-112.69 380.25,-99.94 396.95,-90.22"/>
<polygon fill="#63b8ff" stroke="#63b8ff" points="398.73,-93.23 405.61,-85.17 395.21,-87.18 398.73,-93.23"/>
</a>
</g>
</g>
<!-- Node3 -->
<g id="Node000003" class="node">
<title>Node3</title>
<g id="a_Node000003"><a xlink:title=" ">
<polygon fill="#e0e0e0" stroke="#999999" points="145,-24.5 0,-24.5 0,-5.5 145,-5.5 145,-24.5"/>
<text text-anchor="middle" x="72.5" y="-12.5" font-family="Helvetica,sans-Serif" font-size="10.00">Clock/misc_lib_export.hpp</text>
</a>
</g>
</g>
<!-- Node2&#45;&gt;Node3 -->
<g id="edge2_Node000002_Node000003" class="edge">
<title>Node2&#45;&gt;Node3</title>
<g id="a_edge2_Node000002_Node000003"><a xlink:title=" ">
<path fill="none" stroke="#63b8ff" d="M206.67,-65.99C179.93,-56.03 135.42,-39.45 105.06,-28.13"/>
<polygon fill="#63b8ff" stroke="#63b8ff" points="105.95,-24.73 95.36,-24.52 103.51,-31.29 105.95,-24.73"/>
</a>
</g>
</g>
<!-- Node2&#45;&gt;Node4 -->
<g id="edge3_Node000002_Node000004" class="edge">
<title>Node2&#45;&gt;Node4</title>
<g id="a_edge3_Node000002_Node000004"><a xlink:title=" ">
<path fill="none" stroke="#63b8ff" d="M244.99,-65.87C262.13,-56.32 289.97,-40.81 310.06,-29.62"/>
<polygon fill="#63b8ff" stroke="#63b8ff" points="311.91,-32.59 318.94,-24.67 308.5,-26.48 311.91,-32.59"/>
</a>
</g>
</g>
<!-- Node5 -->
<g id="Node000005" class="node">
<title>Node5</title>
<g id="a_Node000005"><a xlink:title=" ">
<polygon fill="#e0e0e0" stroke="#999999" points="279.5,-30 163.5,-30 163.5,0 279.5,0 279.5,-30"/>
<text text-anchor="start" x="171.5" y="-18" font-family="Helvetica,sans-Serif" font-size="10.00">boost/multiprecision</text>
<text text-anchor="middle" x="221.5" y="-7" font-family="Helvetica,sans-Serif" font-size="10.00">/cpp_bin_float.hpp</text>
</a>
</g>
</g>
<!-- Node2&#45;&gt;Node5 -->
<g id="edge4_Node000002_Node000005" class="edge">
<title>Node2&#45;&gt;Node5</title>
<g id="a_edge4_Node000002_Node000005"><a xlink:title=" ">
<path fill="none" stroke="#63b8ff" d="M228.32,-65.87C227.39,-59.11 226.06,-49.35 224.82,-40.26"/>
<polygon fill="#63b8ff" stroke="#63b8ff" points="228.25,-39.55 223.43,-30.11 221.32,-40.5 228.25,-39.55"/>
</a>
</g>
</g>
</g>
</svg>
