<?xml version="1.0" encoding="UTF-8" standalone="no"?>
<!DOCTYPE svg PUBLIC "-//W3C//DTD SVG 1.1//EN"
 "http://www.w3.org/Graphics/SVG/1.1/DTD/svg11.dtd">
<!-- Generated by graphviz version 2.43.0 (0)
 -->
<!-- Title: include/Clock/misc_lib/quad.hpp Pages: 1 -->
<svg width="379pt" height="104pt"
 viewBox="0.00 0.00 378.50 104.00" xmlns="http://www.w3.org/2000/svg" xmlns:xlink="http://www.w3.org/1999/xlink">
<g id="graph0" class="graph" transform="scale(1 1) rotate(0) translate(4 100)">
<title>include/Clock/misc_lib/quad.hpp</title>
<!-- Node1 -->
<g id="Node000001" class="node">
<title>Node1</title>
<g id="a_Node000001"><a xlink:title="Quad precision floating&#45;point type and utilities.">
<polygon fill="#999999" stroke="#666666" points="253.5,-96 145.5,-96 145.5,-66 253.5,-66 253.5,-96"/>
<text text-anchor="start" x="153.5" y="-84" font-family="Helvetica,sans-Serif" font-size="10.00">include/Clock/misc</text>
<text text-anchor="middle" x="199.5" y="-73" font-family="Helvetica,sans-Serif" font-size="10.00">_lib/quad.hpp</text>
</a>
</g>
</g>
<!-- Node2 -->
<g id="Node000002" class="node">
<title>Node2</title>
<g id="a_Node000002"><a xlink:title=" ">
<polygon fill="#e0e0e0" stroke="#999999" points="145,-24.5 0,-24.5 0,-5.5 145,-5.5 145,-24.5"/>
<text text-anchor="middle" x="72.5" y="-12.5" font-family="Helvetica,sans-Serif" font-size="10.00">Clock/misc_lib_export.hpp</text>
</a>
</g>
</g>
<!-- Node1&#45;&gt;Node2 -->
<g id="edge1_Node000001_Node000002" class="edge">
<title>Node1&#45;&gt;Node2</title>
<g id="a_edge1_Node000001_Node000002"><a xlink:title=" ">
<path fill="none" stroke="#63b8ff" d="M171.63,-65.95C149.85,-54.98 119.8,-39.83 98.51,-29.11"/>
<polygon fill="#63b8ff" stroke="#63b8ff" points="99.91,-25.89 89.4,-24.52 96.76,-32.14 99.91,-25.89"/>
</a>
</g>
</g>
<!-- Node3 -->
<g id="Node000003" class="node">
<title>Node3</title>
<g id="a_Node000003"><a xlink:title=" ">
<polygon fill="#e0e0e0" stroke="#999999" points="236,-24.5 163,-24.5 163,-5.5 236,-5.5 236,-24.5"/>
<text text-anchor="middle" x="199.5" y="-12.5" font-family="Helvetica,sans-Serif" font-size="10.00">string_view</text>
</a>
</g>
</g>
<!-- Node1&#45;&gt;Node3 -->
<g id="edge2_Node000001_Node000003" class="edge">
<title>Node1&#45;&gt;Node3</title>
<g id="a_edge2_Node000001_Node000003"><a xlink:title=" ">
<path fill="none" stroke="#63b8ff" d="M199.5,-65.8C199.5,-56.7 199.5,-44.79 199.5,-34.9"/>
<polygon fill="#63b8ff" stroke="#63b8ff" points="203,-34.84 199.5,-24.84 196,-34.84 203,-34.84"/>
</a>
</g>
</g>
<!-- Node4 -->
<g id="Node000004" class="node">
<title>Node4</title>
<g id="a_Node000004"><a xlink:title=" ">
<polygon fill="#e0e0e0" stroke="#999999" points="370.5,-30 254.5,-30 254.5,0 370.5,0 370.5,-30"/>
<text text-anchor="start" x="262.5" y="-18" font-family="Helvetica,sans-Serif" font-size="10.00">boost/multiprecision</text>
<text text-anchor="middle" x="312.5" y="-7" font-family="Helvetica,sans-Serif" font-size="10.00">/cpp_bin_float.hpp</text>
</a>
</g>
</g>
<!-- Node1&#45;&gt;Node4 -->
<g id="edge3_Node000001_Node000004" class="edge">
<title>Node1&#45;&gt;Node4</title>
<g id="a_edge3_Node000001_Node000004"><a xlink:title=" ">
<path fill="none" stroke="#63b8ff" d="M224.3,-65.95C240.34,-56.87 261.43,-44.93 278.96,-35"/>
<polygon fill="#63b8ff" stroke="#63b8ff" points="280.78,-37.99 287.76,-30.01 277.33,-31.9 280.78,-37.99"/>
</a>
</g>
</g>
</g>
</svg>
