<?xml version="1.0" encoding="UTF-8" standalone="no"?>
<!DOCTYPE svg PUBLIC "-//W3C//DTD SVG 1.1//EN"
 "http://www.w3.org/Graphics/SVG/1.1/DTD/svg11.dtd">
<!-- Generated by graphviz version 2.43.0 (0)
 -->
<!-- Title: include/Clock/misc_lib/run_record.hpp Pages: 1 -->
<svg width="1367pt" height="236pt"
 viewBox="0.00 0.00 1367.00 236.00" xmlns="http://www.w3.org/2000/svg" xmlns:xlink="http://www.w3.org/1999/xlink">
<g id="graph0" class="graph" transform="scale(1 1) rotate(0) translate(4 232)">
<title>include/Clock/misc_lib/run_record.hpp</title>
<!-- Node1 -->
<g id="Node000001" class="node">
<title>Node1</title>
<g id="a_Node000001"><a xlink:title="Run record structure and utilities.">
<polygon fill="#999999" stroke="#666666" points="976,-228 866,-228 866,-198 976,-198 976,-228"/>
<text text-anchor="start" x="874" y="-216" font-family="Helvetica,sans-Serif" font-size="10.00">include/Clock/misc</text>
<text text-anchor="middle" x="921" y="-205" font-family="Helvetica,sans-Serif" font-size="10.00">_lib/run_record.hpp</text>
</a>
</g>
</g>
<!-- Node2 -->
<g id="Node000002" class="node">
<title>Node2</title>
<g id="a_Node000002"><a xlink:title=" ">
<polygon fill="#e0e0e0" stroke="#999999" points="885.5,-24.5 740.5,-24.5 740.5,-5.5 885.5,-5.5 885.5,-24.5"/>
<text text-anchor="middle" x="813" y="-12.5" font-family="Helvetica,sans-Serif" font-size="10.00">Clock/misc_lib_export.hpp</text>
</a>
</g>
</g>
<!-- Node1&#45;&gt;Node2 -->
<g id="edge1_Node000001_Node000002" class="edge">
<title>Node1&#45;&gt;Node2</title>
<g id="a_edge1_Node000001_Node000002"><a xlink:title=" ">
<path fill="none" stroke="#63b8ff" d="M909.32,-197.73C901.76,-188.05 892.04,-174.73 885,-162 862.72,-121.69 867.46,-106.75 846,-66 839.97,-54.54 832,-42.4 825.4,-32.96"/>
<polygon fill="#63b8ff" stroke="#63b8ff" points="828.04,-30.63 819.39,-24.53 822.35,-34.7 828.04,-30.63"/>
</a>
</g>
</g>
<!-- Node3 -->
<g id="Node000003" class="node">
<title>Node3</title>
<g id="a_Node000003"><a xlink:title=" ">
<polygon fill="#e0e0e0" stroke="#999999" points="948,-156.5 894,-156.5 894,-137.5 948,-137.5 948,-156.5"/>
<text text-anchor="middle" x="921" y="-144.5" font-family="Helvetica,sans-Serif" font-size="10.00">random</text>
</a>
</g>
</g>
<!-- Node1&#45;&gt;Node3 -->
<g id="edge2_Node000001_Node000003" class="edge">
<title>Node1&#45;&gt;Node3</title>
<g id="a_edge2_Node000001_Node000003"><a xlink:title=" ">
<path fill="none" stroke="#63b8ff" d="M921,-197.8C921,-188.7 921,-176.79 921,-166.9"/>
<polygon fill="#63b8ff" stroke="#63b8ff" points="924.5,-166.84 921,-156.84 917.5,-166.84 924.5,-166.84"/>
</a>
</g>
</g>
<!-- Node4 -->
<g id="Node000004" class="node">
<title>Node4</title>
<g id="a_Node000004"><a xlink:title=" ">
<polygon fill="#e0e0e0" stroke="#999999" points="44,-24.5 0,-24.5 0,-5.5 44,-5.5 44,-24.5"/>
<text text-anchor="middle" x="22" y="-12.5" font-family="Helvetica,sans-Serif" font-size="10.00">string</text>
</a>
</g>
</g>
<!-- Node1&#45;&gt;Node4 -->
<g id="edge3_Node000001_Node000004" class="edge">
<title>Node1&#45;&gt;Node4</title>
<g id="a_edge3_Node000001_Node000004"><a xlink:title=" ">
<path fill="none" stroke="#63b8ff" d="M865.87,-207.45C710.04,-194.02 269.01,-151.98 136,-96 98,-80.01 60.05,-49.83 38.94,-31.46"/>
<polygon fill="#63b8ff" stroke="#63b8ff" points="41.02,-28.62 31.21,-24.6 36.37,-33.86 41.02,-28.62"/>
</a>
</g>
</g>
<!-- Node5 -->
<g id="Node000005" class="node">
<title>Node5</title>
<g id="a_Node000005"><a xlink:title=" ">
<polygon fill="#e0e0e0" stroke="#999999" points="1087.5,-156.5 966.5,-156.5 966.5,-137.5 1087.5,-137.5 1087.5,-156.5"/>
<text text-anchor="middle" x="1027" y="-144.5" font-family="Helvetica,sans-Serif" font-size="10.00">boost/json/object.hpp</text>
</a>
</g>
</g>
<!-- Node1&#45;&gt;Node5 -->
<g id="edge4_Node000001_Node000005" class="edge">
<title>Node1&#45;&gt;Node5</title>
<g id="a_edge4_Node000001_Node000005"><a xlink:title=" ">
<path fill="none" stroke="#63b8ff" d="M944.26,-197.95C962.11,-187.18 986.62,-172.38 1004.33,-161.69"/>
<polygon fill="#63b8ff" stroke="#63b8ff" points="1006.14,-164.68 1012.89,-156.52 1002.52,-158.69 1006.14,-164.68"/>
</a>
</g>
</g>
<!-- Node6 -->
<g id="Node000006" class="node">
<title>Node6</title>
<g id="a_Node000006"><a xlink:title=" ">
<polygon fill="#e0e0e0" stroke="#999999" points="1184.5,-156.5 1105.5,-156.5 1105.5,-137.5 1184.5,-137.5 1184.5,-156.5"/>
<text text-anchor="middle" x="1145" y="-144.5" font-family="Helvetica,sans-Serif" font-size="10.00">fmt/format.h</text>
</a>
</g>
</g>
<!-- Node1&#45;&gt;Node6 -->
<g id="edge5_Node000001_Node000006" class="edge">
<title>Node1&#45;&gt;Node6</title>
<g id="a_edge5_Node000001_Node000006"><a xlink:title=" ">
<path fill="none" stroke="#63b8ff" d="M970.72,-197.98C1005.98,-188 1054.42,-174.26 1097,-162 1099.95,-161.15 1103,-160.27 1106.07,-159.38"/>
<polygon fill="#63b8ff" stroke="#63b8ff" points="1107.19,-162.7 1115.82,-156.55 1105.24,-155.98 1107.19,-162.7"/>
</a>
</g>
</g>
<!-- Node7 -->
<g id="Node000007" class="node">
<title>Node7</title>
<g id="a_Node000007"><a xlink:href="date__time_8hpp_source.html" target="_top" xlink:title=" ">
<polygon fill="white" stroke="#666666" points="610,-162 498,-162 498,-132 610,-132 610,-162"/>
<text text-anchor="start" x="506" y="-150" font-family="Helvetica,sans-Serif" font-size="10.00">Clock/misc_lib/date</text>
<text text-anchor="middle" x="554" y="-139" font-family="Helvetica,sans-Serif" font-size="10.00">_time.hpp</text>
</a>
</g>
</g>
<!-- Node1&#45;&gt;Node7 -->
<g id="edge6_Node000001_Node000007" class="edge">
<title>Node1&#45;&gt;Node7</title>
<g id="a_edge6_Node000001_Node000007"><a xlink:title=" ">
<path fill="none" stroke="#63b8ff" d="M865.66,-202.35C799.91,-190.88 690.31,-171.77 620.15,-159.54"/>
<polygon fill="#63b8ff" stroke="#63b8ff" points="620.55,-156.05 610.09,-157.78 619.34,-162.95 620.55,-156.05"/>
</a>
</g>
</g>
<!-- Node19 -->
<g id="Node000019" class="node">
<title>Node19</title>
<g id="a_Node000019"><a xlink:title=" ">
<polygon fill="#e0e0e0" stroke="#999999" points="1359,-156.5 1203,-156.5 1203,-137.5 1359,-137.5 1359,-156.5"/>
<text text-anchor="middle" x="1281" y="-144.5" font-family="Helvetica,sans-Serif" font-size="10.00">internal_use_only/config.hpp</text>
</a>
</g>
</g>
<!-- Node1&#45;&gt;Node19 -->
<g id="edge25_Node000001_Node000019" class="edge">
<title>Node1&#45;&gt;Node19</title>
<g id="a_edge25_Node000001_Node000019"><a xlink:title=" ">
<path fill="none" stroke="#63b8ff" d="M976.07,-202.21C1042.86,-190.34 1154.93,-170.41 1223.01,-158.31"/>
<polygon fill="#63b8ff" stroke="#63b8ff" points="1223.9,-161.71 1233.13,-156.51 1222.68,-154.81 1223.9,-161.71"/>
</a>
</g>
</g>
<!-- Node7&#45;&gt;Node2 -->
<g id="edge7_Node000007_Node000002" class="edge">
<title>Node7&#45;&gt;Node2</title>
<g id="a_edge7_Node000007_Node000002"><a xlink:title=" ">
<path fill="none" stroke="#63b8ff" d="M511.34,-131.96C473.73,-117.38 428.3,-92.96 452,-66 493.28,-19.05 669.18,-39.26 731,-30 738.73,-28.84 746.86,-27.55 754.88,-26.23"/>
<polygon fill="#63b8ff" stroke="#63b8ff" points="755.64,-29.65 764.92,-24.55 754.48,-22.74 755.64,-29.65"/>
</a>
</g>
</g>
<!-- Node7&#45;&gt;Node4 -->
<g id="edge9_Node000007_Node000004" class="edge">
<title>Node7&#45;&gt;Node4</title>
<g id="a_edge9_Node000007_Node000004"><a xlink:title=" ">
<path fill="none" stroke="#63b8ff" d="M497.77,-141.25C431.48,-134.78 318.37,-121.04 224,-96 159.07,-78.77 86.73,-46.8 48.7,-28.93"/>
<polygon fill="#63b8ff" stroke="#63b8ff" points="49.9,-25.63 39.36,-24.5 46.9,-31.95 49.9,-25.63"/>
</a>
</g>
</g>
<!-- Node8 -->
<g id="Node000008" class="node">
<title>Node8</title>
<g id="a_Node000008"><a xlink:title=" ">
<polygon fill="#e0e0e0" stroke="#999999" points="521,-90.5 461,-90.5 461,-71.5 521,-71.5 521,-90.5"/>
<text text-anchor="middle" x="491" y="-78.5" font-family="Helvetica,sans-Serif" font-size="10.00">iostream</text>
</a>
</g>
</g>
<!-- Node7&#45;&gt;Node8 -->
<g id="edge8_Node000007_Node000008" class="edge">
<title>Node7&#45;&gt;Node8</title>
<g id="a_edge8_Node000007_Node000008"><a xlink:title=" ">
<path fill="none" stroke="#63b8ff" d="M540.02,-131.8C530.2,-121.82 517.04,-108.46 506.83,-98.09"/>
<polygon fill="#63b8ff" stroke="#63b8ff" points="509.22,-95.52 499.71,-90.84 504.23,-100.43 509.22,-95.52"/>
</a>
</g>
</g>
<!-- Node9 -->
<g id="Node000009" class="node">
<title>Node9</title>
<g id="a_Node000009"><a xlink:title=" ">
<polygon fill="#e0e0e0" stroke="#999999" points="1111.5,-24.5 1038.5,-24.5 1038.5,-5.5 1111.5,-5.5 1111.5,-24.5"/>
<text text-anchor="middle" x="1075" y="-12.5" font-family="Helvetica,sans-Serif" font-size="10.00">string_view</text>
</a>
</g>
</g>
<!-- Node7&#45;&gt;Node9 -->
<g id="edge10_Node000007_Node000009" class="edge">
<title>Node7&#45;&gt;Node9</title>
<g id="a_edge10_Node000007_Node000009"><a xlink:title=" ">
<path fill="none" stroke="#63b8ff" d="M610.35,-143.33C730.73,-137.19 1004.86,-120.65 1039,-96 1059.03,-81.54 1068.13,-53.27 1072.11,-34.51"/>
<polygon fill="#63b8ff" stroke="#63b8ff" points="1075.59,-34.97 1073.94,-24.5 1068.7,-33.71 1075.59,-34.97"/>
</a>
</g>
</g>
<!-- Node10 -->
<g id="Node000010" class="node">
<title>Node10</title>
<g id="a_Node000010"><a xlink:title=" ">
<polygon fill="#e0e0e0" stroke="#999999" points="722,-30 554,-30 554,0 722,0 722,-30"/>
<text text-anchor="start" x="562" y="-18" font-family="Helvetica,sans-Serif" font-size="10.00">boost/date_time/posix</text>
<text text-anchor="middle" x="638" y="-7" font-family="Helvetica,sans-Serif" font-size="10.00">_time/posix_time_duration.hpp</text>
</a>
</g>
</g>
<!-- Node7&#45;&gt;Node10 -->
<g id="edge11_Node000007_Node000010" class="edge">
<title>Node7&#45;&gt;Node10</title>
<g id="a_edge11_Node000007_Node000010"><a xlink:title=" ">
<path fill="none" stroke="#63b8ff" d="M498,-134.6C449.88,-122.24 392.16,-99.65 419,-66 427.26,-55.64 488.42,-42.2 544.01,-31.86"/>
<polygon fill="#63b8ff" stroke="#63b8ff" points="544.75,-35.28 553.95,-30.03 543.48,-28.4 544.75,-35.28"/>
</a>
</g>
</g>
<!-- Node11 -->
<g id="Node000011" class="node">
<title>Node11</title>
<g id="a_Node000011"><a xlink:title=" ">
<polygon fill="#e0e0e0" stroke="#999999" points="694.5,-96 539.5,-96 539.5,-66 694.5,-66 694.5,-96"/>
<text text-anchor="start" x="547.5" y="-84" font-family="Helvetica,sans-Serif" font-size="10.00">boost/date_time/posix</text>
<text text-anchor="middle" x="617" y="-73" font-family="Helvetica,sans-Serif" font-size="10.00">_time/posix_time_types.hpp</text>
</a>
</g>
</g>
<!-- Node7&#45;&gt;Node11 -->
<g id="edge12_Node000007_Node000011" class="edge">
<title>Node7&#45;&gt;Node11</title>
<g id="a_edge12_Node000007_Node000011"><a xlink:title=" ">
<path fill="none" stroke="#63b8ff" d="M567.98,-131.8C576.22,-123.43 586.8,-112.68 596.02,-103.31"/>
<polygon fill="#63b8ff" stroke="#63b8ff" points="598.54,-105.75 603.06,-96.16 593.55,-100.84 598.54,-105.75"/>
</a>
</g>
</g>
<!-- Node12 -->
<g id="Node000012" class="node">
<title>Node12</title>
<g id="a_Node000012"><a xlink:title=" ">
<polygon fill="#e0e0e0" stroke="#999999" points="837.5,-96 712.5,-96 712.5,-66 837.5,-66 837.5,-96"/>
<text text-anchor="start" x="720.5" y="-84" font-family="Helvetica,sans-Serif" font-size="10.00">boost/date_time/posix</text>
<text text-anchor="middle" x="775" y="-73" font-family="Helvetica,sans-Serif" font-size="10.00">_time/ptime.hpp</text>
</a>
</g>
</g>
<!-- Node7&#45;&gt;Node12 -->
<g id="edge13_Node000007_Node000012" class="edge">
<title>Node7&#45;&gt;Node12</title>
<g id="a_edge13_Node000007_Node000012"><a xlink:title=" ">
<path fill="none" stroke="#63b8ff" d="M602.5,-131.95C636.18,-122.2 681.22,-109.16 716.84,-98.84"/>
<polygon fill="#63b8ff" stroke="#63b8ff" points="717.98,-102.16 726.61,-96.01 716.03,-95.43 717.98,-102.16"/>
</a>
</g>
</g>
<!-- Node13 -->
<g id="Node000013" class="node">
<title>Node13</title>
<g id="a_Node000013"><a xlink:href="quad_8hpp.html" target="_top" xlink:title="Quad precision floating&#45;point type and utilities.">
<polygon fill="white" stroke="#666666" points="1029.5,-90.5 894.5,-90.5 894.5,-71.5 1029.5,-71.5 1029.5,-90.5"/>
<text text-anchor="middle" x="962" y="-78.5" font-family="Helvetica,sans-Serif" font-size="10.00">Clock/misc_lib/quad.hpp</text>
</a>
</g>
</g>
<!-- Node7&#45;&gt;Node13 -->
<g id="edge14_Node000007_Node000013" class="edge">
<title>Node7&#45;&gt;Node13</title>
<g id="a_edge14_Node000007_Node000013"><a xlink:title=" ">
<path fill="none" stroke="#63b8ff" d="M610.3,-137.17C685.41,-125.39 818.09,-104.57 897.25,-92.16"/>
<polygon fill="#63b8ff" stroke="#63b8ff" points="898.24,-95.54 907.58,-90.54 897.15,-88.63 898.24,-95.54"/>
</a>
</g>
</g>
<!-- Node15 -->
<g id="Node000015" class="node">
<title>Node15</title>
<g id="a_Node000015"><a xlink:href="time_8hpp.html" target="_top" xlink:title="DateTime data structure and utilities.">
<polygon fill="white" stroke="#666666" points="367,-90.5 233,-90.5 233,-71.5 367,-71.5 367,-90.5"/>
<text text-anchor="middle" x="300" y="-78.5" font-family="Helvetica,sans-Serif" font-size="10.00">Clock/misc_lib/time.hpp</text>
</a>
</g>
</g>
<!-- Node7&#45;&gt;Node15 -->
<g id="edge18_Node000007_Node000015" class="edge">
<title>Node7&#45;&gt;Node15</title>
<g id="a_edge18_Node000007_Node000015"><a xlink:title=" ">
<path fill="none" stroke="#63b8ff" d="M498.26,-131.95C451.75,-120.24 386.39,-103.77 343.63,-92.99"/>
<polygon fill="#63b8ff" stroke="#63b8ff" points="344.36,-89.57 333.8,-90.52 342.64,-96.35 344.36,-89.57"/>
</a>
</g>
</g>
<!-- Node13&#45;&gt;Node2 -->
<g id="edge15_Node000013_Node000002" class="edge">
<title>Node13&#45;&gt;Node2</title>
<g id="a_edge15_Node000013_Node000002"><a xlink:title=" ">
<path fill="none" stroke="#63b8ff" d="M941.91,-71.37C916.36,-60.39 872.04,-41.36 842.61,-28.72"/>
<polygon fill="#63b8ff" stroke="#63b8ff" points="843.82,-25.43 833.25,-24.7 841.06,-31.86 843.82,-25.43"/>
</a>
</g>
</g>
<!-- Node13&#45;&gt;Node9 -->
<g id="edge16_Node000013_Node000009" class="edge">
<title>Node13&#45;&gt;Node9</title>
<g id="a_edge16_Node000013_Node000009"><a xlink:title=" ">
<path fill="none" stroke="#63b8ff" d="M977.24,-71.37C996.11,-60.68 1028.48,-42.35 1050.77,-29.72"/>
<polygon fill="#63b8ff" stroke="#63b8ff" points="1052.66,-32.67 1059.64,-24.7 1049.21,-26.58 1052.66,-32.67"/>
</a>
</g>
</g>
<!-- Node14 -->
<g id="Node000014" class="node">
<title>Node14</title>
<g id="a_Node000014"><a xlink:title=" ">
<polygon fill="#e0e0e0" stroke="#999999" points="1020,-30 904,-30 904,0 1020,0 1020,-30"/>
<text text-anchor="start" x="912" y="-18" font-family="Helvetica,sans-Serif" font-size="10.00">boost/multiprecision</text>
<text text-anchor="middle" x="962" y="-7" font-family="Helvetica,sans-Serif" font-size="10.00">/cpp_bin_float.hpp</text>
</a>
</g>
</g>
<!-- Node13&#45;&gt;Node14 -->
<g id="edge17_Node000013_Node000014" class="edge">
<title>Node13&#45;&gt;Node14</title>
<g id="a_edge17_Node000013_Node000014"><a xlink:title=" ">
<path fill="none" stroke="#63b8ff" d="M962,-71.37C962,-63.49 962,-51.45 962,-40.6"/>
<polygon fill="#63b8ff" stroke="#63b8ff" points="965.5,-40.36 962,-30.36 958.5,-40.36 965.5,-40.36"/>
</a>
</g>
</g>
<!-- Node15&#45;&gt;Node2 -->
<g id="edge19_Node000015_Node000002" class="edge">
<title>Node15&#45;&gt;Node2</title>
<g id="a_edge19_Node000015_Node000002"><a xlink:title=" ">
<path fill="none" stroke="#63b8ff" d="M367.02,-72.09C383.98,-70.09 402.16,-67.96 419,-66 557.65,-49.85 592.82,-49.75 731,-30 739.03,-28.85 747.48,-27.53 755.79,-26.18"/>
<polygon fill="#63b8ff" stroke="#63b8ff" points="756.52,-29.6 765.8,-24.51 755.37,-22.7 756.52,-29.6"/>
</a>
</g>
</g>
<!-- Node15&#45;&gt;Node4 -->
<g id="edge20_Node000015_Node000004" class="edge">
<title>Node15&#45;&gt;Node4</title>
<g id="a_edge20_Node000015_Node000004"><a xlink:title=" ">
<path fill="none" stroke="#63b8ff" d="M238.37,-71.46C187.8,-63.53 114.73,-49.91 53,-30 51.56,-29.54 50.1,-29.02 48.63,-28.48"/>
<polygon fill="#63b8ff" stroke="#63b8ff" points="49.69,-25.13 39.11,-24.55 47.02,-31.6 49.69,-25.13"/>
</a>
</g>
</g>
<!-- Node15&#45;&gt;Node10 -->
<g id="edge22_Node000015_Node000010" class="edge">
<title>Node15&#45;&gt;Node10</title>
<g id="a_edge22_Node000015_Node000010"><a xlink:title=" ">
<path fill="none" stroke="#63b8ff" d="M345.23,-71.44C398.45,-61.36 487.9,-44.42 553.95,-31.91"/>
<polygon fill="#63b8ff" stroke="#63b8ff" points="554.76,-35.32 563.93,-30.02 553.45,-28.45 554.76,-35.32"/>
</a>
</g>
</g>
<!-- Node16 -->
<g id="Node000016" class="node">
<title>Node16</title>
<g id="a_Node000016"><a xlink:title=" ">
<polygon fill="#e0e0e0" stroke="#999999" points="369.5,-30 212.5,-30 212.5,0 369.5,0 369.5,-30"/>
<text text-anchor="start" x="220.5" y="-18" font-family="Helvetica,sans-Serif" font-size="10.00">boost/date_time/posix</text>
<text text-anchor="middle" x="291" y="-7" font-family="Helvetica,sans-Serif" font-size="10.00">_time/posix_time_config.hpp</text>
</a>
</g>
</g>
<!-- Node15&#45;&gt;Node16 -->
<g id="edge21_Node000015_Node000016" class="edge">
<title>Node15&#45;&gt;Node16</title>
<g id="a_edge21_Node000015_Node000016"><a xlink:title=" ">
<path fill="none" stroke="#63b8ff" d="M298.79,-71.37C297.67,-63.4 295.95,-51.2 294.41,-40.27"/>
<polygon fill="#63b8ff" stroke="#63b8ff" points="297.88,-39.78 293.02,-30.36 290.95,-40.75 297.88,-39.78"/>
</a>
</g>
</g>
<!-- Node17 -->
<g id="Node000017" class="node">
<title>Node17</title>
<g id="a_Node000017"><a xlink:title=" ">
<polygon fill="#e0e0e0" stroke="#999999" points="536,-30 388,-30 388,0 536,0 536,-30"/>
<text text-anchor="start" x="396" y="-18" font-family="Helvetica,sans-Serif" font-size="10.00">boost/date_time/posix</text>
<text text-anchor="middle" x="462" y="-7" font-family="Helvetica,sans-Serif" font-size="10.00">_time/time_formatters.hpp</text>
</a>
</g>
</g>
<!-- Node15&#45;&gt;Node17 -->
<g id="edge23_Node000015_Node000017" class="edge">
<title>Node15&#45;&gt;Node17</title>
<g id="a_edge23_Node000015_Node000017"><a xlink:title=" ">
<path fill="none" stroke="#63b8ff" d="M321.85,-71.37C346.11,-61.78 385.94,-46.05 416.96,-33.8"/>
<polygon fill="#63b8ff" stroke="#63b8ff" points="418.26,-37.05 426.27,-30.12 415.68,-30.53 418.26,-37.05"/>
</a>
</g>
</g>
<!-- Node18 -->
<g id="Node000018" class="node">
<title>Node18</title>
<g id="a_Node000018"><a xlink:title=" ">
<polygon fill="#e0e0e0" stroke="#999999" points="194,-30 62,-30 62,0 194,0 194,-30"/>
<text text-anchor="start" x="70" y="-18" font-family="Helvetica,sans-Serif" font-size="10.00">boost/date_time/posix</text>
<text text-anchor="middle" x="128" y="-7" font-family="Helvetica,sans-Serif" font-size="10.00">_time/time_parsers.hpp</text>
</a>
</g>
</g>
<!-- Node15&#45;&gt;Node18 -->
<g id="edge24_Node000015_Node000018" class="edge">
<title>Node15&#45;&gt;Node18</title>
<g id="a_edge24_Node000015_Node000018"><a xlink:title=" ">
<path fill="none" stroke="#63b8ff" d="M276.8,-71.37C250.93,-61.74 208.39,-45.91 175.4,-33.64"/>
<polygon fill="#63b8ff" stroke="#63b8ff" points="176.53,-30.32 165.94,-30.12 174.09,-36.88 176.53,-30.32"/>
</a>
</g>
</g>
</g>
</svg>
