<?xml version="1.0" encoding="UTF-8" standalone="no"?>
<!DOCTYPE svg PUBLIC "-//W3C//DTD SVG 1.1//EN"
 "http://www.w3.org/Graphics/SVG/1.1/DTD/svg11.dtd">
<!-- Generated by graphviz version 2.43.0 (0)
 -->
<!-- Title: include/Clock/misc_lib/run_record.hpp Pages: 1 -->
<svg width="1414pt" height="236pt"
 viewBox="0.00 0.00 1414.00 236.00" xmlns="http://www.w3.org/2000/svg" xmlns:xlink="http://www.w3.org/1999/xlink">
<g id="graph0" class="graph" transform="scale(1 1) rotate(0) translate(4 232)">
<title>include/Clock/misc_lib/run_record.hpp</title>
<!-- Node1 -->
<g id="Node000001" class="node">
<title>Node1</title>
<g id="a_Node000001"><a xlink:title="Run record structure and utilities.">
<polygon fill="#999999" stroke="#666666" points="1023,-228 913,-228 913,-198 1023,-198 1023,-228"/>
<text text-anchor="start" x="921" y="-216" font-family="Helvetica,sans-Serif" font-size="10.00">include/Clock/misc</text>
<text text-anchor="middle" x="968" y="-205" font-family="Helvetica,sans-Serif" font-size="10.00">_lib/run_record.hpp</text>
</a>
</g>
</g>
<!-- Node2 -->
<g id="Node000002" class="node">
<title>Node2</title>
<g id="a_Node000002"><a xlink:title=" ">
<polygon fill="#e0e0e0" stroke="#999999" points="885.5,-24.5 740.5,-24.5 740.5,-5.5 885.5,-5.5 885.5,-24.5"/>
<text text-anchor="middle" x="813" y="-12.5" font-family="Helvetica,sans-Serif" font-size="10.00">Clock/misc_lib_export.hpp</text>
</a>
</g>
</g>
<!-- Node1&#45;&gt;Node2 -->
<g id="edge1_Node000001_Node000002" class="edge">
<title>Node1&#45;&gt;Node2</title>
<g id="a_edge1_Node000001_Node000002"><a xlink:title=" ">
<path fill="none" stroke="#63b8ff" d="M956.32,-197.73C948.76,-188.05 939.04,-174.73 932,-162 909.72,-121.69 922.63,-101.25 893,-66 879.61,-50.07 859.8,-37.64 843.25,-29.15"/>
<polygon fill="#63b8ff" stroke="#63b8ff" points="844.47,-25.85 833.95,-24.62 841.4,-32.15 844.47,-25.85"/>
</a>
</g>
</g>
<!-- Node3 -->
<g id="Node000003" class="node">
<title>Node3</title>
<g id="a_Node000003"><a xlink:title=" ">
<polygon fill="#e0e0e0" stroke="#999999" points="995,-156.5 941,-156.5 941,-137.5 995,-137.5 995,-156.5"/>
<text text-anchor="middle" x="968" y="-144.5" font-family="Helvetica,sans-Serif" font-size="10.00">random</text>
</a>
</g>
</g>
<!-- Node1&#45;&gt;Node3 -->
<g id="edge2_Node000001_Node000003" class="edge">
<title>Node1&#45;&gt;Node3</title>
<g id="a_edge2_Node000001_Node000003"><a xlink:title=" ">
<path fill="none" stroke="#63b8ff" d="M968,-197.8C968,-188.7 968,-176.79 968,-166.9"/>
<polygon fill="#63b8ff" stroke="#63b8ff" points="971.5,-166.84 968,-156.84 964.5,-166.84 971.5,-166.84"/>
</a>
</g>
</g>
<!-- Node4 -->
<g id="Node000004" class="node">
<title>Node4</title>
<g id="a_Node000004"><a xlink:title=" ">
<polygon fill="#e0e0e0" stroke="#999999" points="44,-24.5 0,-24.5 0,-5.5 44,-5.5 44,-24.5"/>
<text text-anchor="middle" x="22" y="-12.5" font-family="Helvetica,sans-Serif" font-size="10.00">string</text>
</a>
</g>
</g>
<!-- Node1&#45;&gt;Node4 -->
<g id="edge3_Node000001_Node000004" class="edge">
<title>Node1&#45;&gt;Node4</title>
<g id="a_edge3_Node000001_Node000004"><a xlink:title=" ">
<path fill="none" stroke="#63b8ff" d="M912.59,-212.27C777.92,-211.2 424.58,-198.05 153,-96 109.9,-79.8 65.3,-49.03 40.87,-30.73"/>
<polygon fill="#63b8ff" stroke="#63b8ff" points="42.89,-27.87 32.81,-24.6 38.65,-33.45 42.89,-27.87"/>
</a>
</g>
</g>
<!-- Node5 -->
<g id="Node000005" class="node">
<title>Node5</title>
<g id="a_Node000005"><a xlink:title=" ">
<polygon fill="#e0e0e0" stroke="#999999" points="1134.5,-156.5 1013.5,-156.5 1013.5,-137.5 1134.5,-137.5 1134.5,-156.5"/>
<text text-anchor="middle" x="1074" y="-144.5" font-family="Helvetica,sans-Serif" font-size="10.00">boost/json/object.hpp</text>
</a>
</g>
</g>
<!-- Node1&#45;&gt;Node5 -->
<g id="edge4_Node000001_Node000005" class="edge">
<title>Node1&#45;&gt;Node5</title>
<g id="a_edge4_Node000001_Node000005"><a xlink:title=" ">
<path fill="none" stroke="#63b8ff" d="M991.26,-197.95C1009.11,-187.18 1033.62,-172.38 1051.33,-161.69"/>
<polygon fill="#63b8ff" stroke="#63b8ff" points="1053.14,-164.68 1059.89,-156.52 1049.52,-158.69 1053.14,-164.68"/>
</a>
</g>
</g>
<!-- Node6 -->
<g id="Node000006" class="node">
<title>Node6</title>
<g id="a_Node000006"><a xlink:title=" ">
<polygon fill="#e0e0e0" stroke="#999999" points="1231.5,-156.5 1152.5,-156.5 1152.5,-137.5 1231.5,-137.5 1231.5,-156.5"/>
<text text-anchor="middle" x="1192" y="-144.5" font-family="Helvetica,sans-Serif" font-size="10.00">fmt/format.h</text>
</a>
</g>
</g>
<!-- Node1&#45;&gt;Node6 -->
<g id="edge5_Node000001_Node000006" class="edge">
<title>Node1&#45;&gt;Node6</title>
<g id="a_edge5_Node000001_Node000006"><a xlink:title=" ">
<path fill="none" stroke="#63b8ff" d="M1017.72,-197.98C1052.98,-188 1101.42,-174.26 1144,-162 1146.95,-161.15 1150,-160.27 1153.07,-159.38"/>
<polygon fill="#63b8ff" stroke="#63b8ff" points="1154.19,-162.7 1162.82,-156.55 1152.24,-155.98 1154.19,-162.7"/>
</a>
</g>
</g>
<!-- Node7 -->
<g id="Node000007" class="node">
<title>Node7</title>
<g id="a_Node000007"><a xlink:href="date__time_8hpp.html" target="_top" xlink:title="DateTime data structure and utilities.">
<polygon fill="white" stroke="#666666" points="657,-162 545,-162 545,-132 657,-132 657,-162"/>
<text text-anchor="start" x="553" y="-150" font-family="Helvetica,sans-Serif" font-size="10.00">Clock/misc_lib/date</text>
<text text-anchor="middle" x="601" y="-139" font-family="Helvetica,sans-Serif" font-size="10.00">_time.hpp</text>
</a>
</g>
</g>
<!-- Node1&#45;&gt;Node7 -->
<g id="edge6_Node000001_Node000007" class="edge">
<title>Node1&#45;&gt;Node7</title>
<g id="a_edge6_Node000001_Node000007"><a xlink:title=" ">
<path fill="none" stroke="#63b8ff" d="M912.66,-202.35C846.91,-190.88 737.31,-171.77 667.15,-159.54"/>
<polygon fill="#63b8ff" stroke="#63b8ff" points="667.55,-156.05 657.09,-157.78 666.34,-162.95 667.55,-156.05"/>
</a>
</g>
</g>
<!-- Node20 -->
<g id="Node000020" class="node">
<title>Node20</title>
<g id="a_Node000020"><a xlink:title=" ">
<polygon fill="#e0e0e0" stroke="#999999" points="1406,-156.5 1250,-156.5 1250,-137.5 1406,-137.5 1406,-156.5"/>
<text text-anchor="middle" x="1328" y="-144.5" font-family="Helvetica,sans-Serif" font-size="10.00">internal_use_only/config.hpp</text>
</a>
</g>
</g>
<!-- Node1&#45;&gt;Node20 -->
<g id="edge26_Node000001_Node000020" class="edge">
<title>Node1&#45;&gt;Node20</title>
<g id="a_edge26_Node000001_Node000020"><a xlink:title=" ">
<path fill="none" stroke="#63b8ff" d="M1023.07,-202.21C1089.86,-190.34 1201.93,-170.41 1270.01,-158.31"/>
<polygon fill="#63b8ff" stroke="#63b8ff" points="1270.9,-161.71 1280.13,-156.51 1269.68,-154.81 1270.9,-161.71"/>
</a>
</g>
</g>
<!-- Node7&#45;&gt;Node2 -->
<g id="edge7_Node000007_Node000002" class="edge">
<title>Node7&#45;&gt;Node2</title>
<g id="a_edge7_Node000007_Node000002"><a xlink:title=" ">
<path fill="none" stroke="#63b8ff" d="M558.14,-131.95C520.7,-117.45 475.72,-93.17 499,-66 532.95,-26.38 679.51,-38.39 731,-30 738.33,-28.8 746.03,-27.52 753.65,-26.24"/>
<polygon fill="#63b8ff" stroke="#63b8ff" points="754.31,-29.68 763.59,-24.56 753.14,-22.78 754.31,-29.68"/>
</a>
</g>
</g>
<!-- Node7&#45;&gt;Node4 -->
<g id="edge9_Node000007_Node000004" class="edge">
<title>Node7&#45;&gt;Node4</title>
<g id="a_edge9_Node000007_Node000004"><a xlink:title=" ">
<path fill="none" stroke="#63b8ff" d="M544.78,-139.98C478.74,-132.32 366.1,-117.48 271,-96 172.26,-73.69 147.78,-65.57 53,-30 51.79,-29.54 50.55,-29.06 49.31,-28.57"/>
<polygon fill="#63b8ff" stroke="#63b8ff" points="50.44,-25.24 39.87,-24.55 47.7,-31.68 50.44,-25.24"/>
</a>
</g>
</g>
<!-- Node8 -->
<g id="Node000008" class="node">
<title>Node8</title>
<g id="a_Node000008"><a xlink:title=" ">
<polygon fill="#e0e0e0" stroke="#999999" points="568,-90.5 508,-90.5 508,-71.5 568,-71.5 568,-90.5"/>
<text text-anchor="middle" x="538" y="-78.5" font-family="Helvetica,sans-Serif" font-size="10.00">iostream</text>
</a>
</g>
</g>
<!-- Node7&#45;&gt;Node8 -->
<g id="edge8_Node000007_Node000008" class="edge">
<title>Node7&#45;&gt;Node8</title>
<g id="a_edge8_Node000007_Node000008"><a xlink:title=" ">
<path fill="none" stroke="#63b8ff" d="M587.02,-131.8C577.2,-121.82 564.04,-108.46 553.83,-98.09"/>
<polygon fill="#63b8ff" stroke="#63b8ff" points="556.22,-95.52 546.71,-90.84 551.23,-100.43 556.22,-95.52"/>
</a>
</g>
</g>
<!-- Node9 -->
<g id="Node000009" class="node">
<title>Node9</title>
<g id="a_Node000009"><a xlink:title=" ">
<polygon fill="#e0e0e0" stroke="#999999" points="1245.5,-24.5 1172.5,-24.5 1172.5,-5.5 1245.5,-5.5 1245.5,-24.5"/>
<text text-anchor="middle" x="1209" y="-12.5" font-family="Helvetica,sans-Serif" font-size="10.00">string_view</text>
</a>
</g>
</g>
<!-- Node7&#45;&gt;Node9 -->
<g id="edge10_Node000007_Node000009" class="edge">
<title>Node7&#45;&gt;Node9</title>
<g id="a_edge10_Node000007_Node000009"><a xlink:title=" ">
<path fill="none" stroke="#63b8ff" d="M657.23,-143.52C767.51,-138.12 1008.18,-123.5 1086,-96 1127.53,-81.32 1169.07,-49.98 1191.66,-31.17"/>
<polygon fill="#63b8ff" stroke="#63b8ff" points="1194,-33.78 1199.35,-24.64 1189.47,-28.45 1194,-33.78"/>
</a>
</g>
</g>
<!-- Node10 -->
<g id="Node000010" class="node">
<title>Node10</title>
<g id="a_Node000010"><a xlink:title=" ">
<polygon fill="#e0e0e0" stroke="#999999" points="722,-30 554,-30 554,0 722,0 722,-30"/>
<text text-anchor="start" x="562" y="-18" font-family="Helvetica,sans-Serif" font-size="10.00">boost/date_time/posix</text>
<text text-anchor="middle" x="638" y="-7" font-family="Helvetica,sans-Serif" font-size="10.00">_time/posix_time_duration.hpp</text>
</a>
</g>
</g>
<!-- Node7&#45;&gt;Node10 -->
<g id="edge11_Node000007_Node000010" class="edge">
<title>Node7&#45;&gt;Node10</title>
<g id="a_edge11_Node000007_Node000010"><a xlink:title=" ">
<path fill="none" stroke="#63b8ff" d="M544.98,-134.82C497.28,-122.69 440.24,-100.32 466,-66 476.5,-52.02 510.95,-40.68 546.29,-32.35"/>
<polygon fill="#63b8ff" stroke="#63b8ff" points="547.29,-35.71 556.26,-30.08 545.73,-28.88 547.29,-35.71"/>
</a>
</g>
</g>
<!-- Node11 -->
<g id="Node000011" class="node">
<title>Node11</title>
<g id="a_Node000011"><a xlink:title=" ">
<polygon fill="#e0e0e0" stroke="#999999" points="741.5,-96 586.5,-96 586.5,-66 741.5,-66 741.5,-96"/>
<text text-anchor="start" x="594.5" y="-84" font-family="Helvetica,sans-Serif" font-size="10.00">boost/date_time/posix</text>
<text text-anchor="middle" x="664" y="-73" font-family="Helvetica,sans-Serif" font-size="10.00">_time/posix_time_types.hpp</text>
</a>
</g>
</g>
<!-- Node7&#45;&gt;Node11 -->
<g id="edge12_Node000007_Node000011" class="edge">
<title>Node7&#45;&gt;Node11</title>
<g id="a_edge12_Node000007_Node000011"><a xlink:title=" ">
<path fill="none" stroke="#63b8ff" d="M614.98,-131.8C623.22,-123.43 633.8,-112.68 643.02,-103.31"/>
<polygon fill="#63b8ff" stroke="#63b8ff" points="645.54,-105.75 650.06,-96.16 640.55,-100.84 645.54,-105.75"/>
</a>
</g>
</g>
<!-- Node12 -->
<g id="Node000012" class="node">
<title>Node12</title>
<g id="a_Node000012"><a xlink:title=" ">
<polygon fill="#e0e0e0" stroke="#999999" points="884.5,-96 759.5,-96 759.5,-66 884.5,-66 884.5,-96"/>
<text text-anchor="start" x="767.5" y="-84" font-family="Helvetica,sans-Serif" font-size="10.00">boost/date_time/posix</text>
<text text-anchor="middle" x="822" y="-73" font-family="Helvetica,sans-Serif" font-size="10.00">_time/ptime.hpp</text>
</a>
</g>
</g>
<!-- Node7&#45;&gt;Node12 -->
<g id="edge13_Node000007_Node000012" class="edge">
<title>Node7&#45;&gt;Node12</title>
<g id="a_edge13_Node000007_Node000012"><a xlink:title=" ">
<path fill="none" stroke="#63b8ff" d="M649.5,-131.95C683.18,-122.2 728.22,-109.16 763.84,-98.84"/>
<polygon fill="#63b8ff" stroke="#63b8ff" points="764.98,-102.16 773.61,-96.01 763.03,-95.43 764.98,-102.16"/>
</a>
</g>
</g>
<!-- Node13 -->
<g id="Node000013" class="node">
<title>Node13</title>
<g id="a_Node000013"><a xlink:href="quad_8hpp.html" target="_top" xlink:title="Quad precision floating&#45;point type and utilities.">
<polygon fill="white" stroke="#666666" points="1076.5,-90.5 941.5,-90.5 941.5,-71.5 1076.5,-71.5 1076.5,-90.5"/>
<text text-anchor="middle" x="1009" y="-78.5" font-family="Helvetica,sans-Serif" font-size="10.00">Clock/misc_lib/quad.hpp</text>
</a>
</g>
</g>
<!-- Node7&#45;&gt;Node13 -->
<g id="edge14_Node000007_Node000013" class="edge">
<title>Node7&#45;&gt;Node13</title>
<g id="a_edge14_Node000007_Node000013"><a xlink:title=" ">
<path fill="none" stroke="#63b8ff" d="M657.3,-137.17C732.41,-125.39 865.09,-104.57 944.25,-92.16"/>
<polygon fill="#63b8ff" stroke="#63b8ff" points="945.24,-95.54 954.58,-90.54 944.15,-88.63 945.24,-95.54"/>
</a>
</g>
</g>
<!-- Node16 -->
<g id="Node000016" class="node">
<title>Node16</title>
<g id="a_Node000016"><a xlink:href="time_8hpp.html" target="_top" xlink:title="Time data structure and utilities.">
<polygon fill="white" stroke="#666666" points="414,-90.5 280,-90.5 280,-71.5 414,-71.5 414,-90.5"/>
<text text-anchor="middle" x="347" y="-78.5" font-family="Helvetica,sans-Serif" font-size="10.00">Clock/misc_lib/time.hpp</text>
</a>
</g>
</g>
<!-- Node7&#45;&gt;Node16 -->
<g id="edge19_Node000007_Node000016" class="edge">
<title>Node7&#45;&gt;Node16</title>
<g id="a_edge19_Node000007_Node000016"><a xlink:title=" ">
<path fill="none" stroke="#63b8ff" d="M545.26,-131.95C498.75,-120.24 433.39,-103.77 390.63,-92.99"/>
<polygon fill="#63b8ff" stroke="#63b8ff" points="391.36,-89.57 380.8,-90.52 389.64,-96.35 391.36,-89.57"/>
</a>
</g>
</g>
<!-- Node13&#45;&gt;Node2 -->
<g id="edge15_Node000013_Node000002" class="edge">
<title>Node13&#45;&gt;Node2</title>
<g id="a_edge15_Node000013_Node000002"><a xlink:title=" ">
<path fill="none" stroke="#63b8ff" d="M982.57,-71.37C948.13,-60.12 887.78,-40.42 849.13,-27.8"/>
<polygon fill="#63b8ff" stroke="#63b8ff" points="849.92,-24.37 839.33,-24.6 847.75,-31.03 849.92,-24.37"/>
</a>
</g>
</g>
<!-- Node13&#45;&gt;Node9 -->
<g id="edge16_Node000013_Node000009" class="edge">
<title>Node13&#45;&gt;Node9</title>
<g id="a_edge16_Node000013_Node000009"><a xlink:title=" ">
<path fill="none" stroke="#63b8ff" d="M1035.97,-71.37C1071.19,-60.1 1132.96,-40.33 1172.38,-27.72"/>
<polygon fill="#63b8ff" stroke="#63b8ff" points="1173.68,-30.98 1182.14,-24.6 1171.54,-24.31 1173.68,-30.98"/>
</a>
</g>
</g>
<!-- Node14 -->
<g id="Node000014" class="node">
<title>Node14</title>
<g id="a_Node000014"><a xlink:title=" ">
<polygon fill="#e0e0e0" stroke="#999999" points="1154,-30 1038,-30 1038,0 1154,0 1154,-30"/>
<text text-anchor="start" x="1046" y="-18" font-family="Helvetica,sans-Serif" font-size="10.00">boost/multiprecision</text>
<text text-anchor="middle" x="1096" y="-7" font-family="Helvetica,sans-Serif" font-size="10.00">/cpp_bin_float.hpp</text>
</a>
</g>
</g>
<!-- Node13&#45;&gt;Node14 -->
<g id="edge17_Node000013_Node000014" class="edge">
<title>Node13&#45;&gt;Node14</title>
<g id="a_edge17_Node000013_Node000014"><a xlink:title=" ">
<path fill="none" stroke="#63b8ff" d="M1020.73,-71.37C1032.98,-62.36 1052.6,-47.92 1068.75,-36.05"/>
<polygon fill="#63b8ff" stroke="#63b8ff" points="1070.83,-38.86 1076.81,-30.12 1066.68,-33.22 1070.83,-38.86"/>
</a>
</g>
</g>
<!-- Node15 -->
<g id="Node000015" class="node">
<title>Node15</title>
<g id="a_Node000015"><a xlink:title=" ">
<polygon fill="#e0e0e0" stroke="#999999" points="1020,-30 904,-30 904,0 1020,0 1020,-30"/>
<text text-anchor="start" x="912" y="-18" font-family="Helvetica,sans-Serif" font-size="10.00">boost/multiprecision</text>
<text text-anchor="middle" x="962" y="-7" font-family="Helvetica,sans-Serif" font-size="10.00">/fwd.hpp</text>
</a>
</g>
</g>
<!-- Node13&#45;&gt;Node15 -->
<g id="edge18_Node000013_Node000015" class="edge">
<title>Node13&#45;&gt;Node15</title>
<g id="a_edge18_Node000013_Node000015"><a xlink:title=" ">
<path fill="none" stroke="#63b8ff" d="M1002.66,-71.37C996.51,-62.99 986.91,-49.93 978.59,-38.59"/>
<polygon fill="#63b8ff" stroke="#63b8ff" points="981.29,-36.35 972.55,-30.36 975.64,-40.49 981.29,-36.35"/>
</a>
</g>
</g>
<!-- Node16&#45;&gt;Node2 -->
<g id="edge20_Node000016_Node000002" class="edge">
<title>Node16&#45;&gt;Node2</title>
<g id="a_edge20_Node000016_Node000002"><a xlink:title=" ">
<path fill="none" stroke="#63b8ff" d="M414.05,-72.09C490.78,-62.84 620.14,-46.67 731,-30 738.73,-28.84 746.86,-27.54 754.87,-26.22"/>
<polygon fill="#63b8ff" stroke="#63b8ff" points="755.64,-29.64 764.92,-24.54 754.48,-22.73 755.64,-29.64"/>
</a>
</g>
</g>
<!-- Node16&#45;&gt;Node4 -->
<g id="edge21_Node000016_Node000004" class="edge">
<title>Node16&#45;&gt;Node4</title>
<g id="a_edge21_Node000016_Node000004"><a xlink:title=" ">
<path fill="none" stroke="#63b8ff" d="M285.93,-71.49C212.98,-61 95.46,-42.96 53,-30 51.37,-29.5 49.71,-28.94 48.05,-28.33"/>
<polygon fill="#63b8ff" stroke="#63b8ff" points="49.33,-25.07 38.75,-24.51 46.67,-31.55 49.33,-25.07"/>
</a>
</g>
</g>
<!-- Node16&#45;&gt;Node10 -->
<g id="edge23_Node000016_Node000010" class="edge">
<title>Node16&#45;&gt;Node10</title>
<g id="a_edge23_Node000016_Node000010"><a xlink:title=" ">
<path fill="none" stroke="#63b8ff" d="M385.94,-71.44C431.38,-61.44 507.51,-44.7 564.23,-32.22"/>
<polygon fill="#63b8ff" stroke="#63b8ff" points="565.22,-35.59 574.23,-30.02 563.71,-28.75 565.22,-35.59"/>
</a>
</g>
</g>
<!-- Node17 -->
<g id="Node000017" class="node">
<title>Node17</title>
<g id="a_Node000017"><a xlink:title=" ">
<polygon fill="#e0e0e0" stroke="#999999" points="219.5,-30 62.5,-30 62.5,0 219.5,0 219.5,-30"/>
<text text-anchor="start" x="70.5" y="-18" font-family="Helvetica,sans-Serif" font-size="10.00">boost/date_time/posix</text>
<text text-anchor="middle" x="141" y="-7" font-family="Helvetica,sans-Serif" font-size="10.00">_time/posix_time_config.hpp</text>
</a>
</g>
</g>
<!-- Node16&#45;&gt;Node17 -->
<g id="edge22_Node000016_Node000017" class="edge">
<title>Node16&#45;&gt;Node17</title>
<g id="a_edge22_Node000016_Node000017"><a xlink:title=" ">
<path fill="none" stroke="#63b8ff" d="M319.22,-71.37C287.77,-61.6 235.74,-45.43 196,-33.09"/>
<polygon fill="#63b8ff" stroke="#63b8ff" points="197.02,-29.74 186.43,-30.12 194.95,-36.43 197.02,-29.74"/>
</a>
</g>
</g>
<!-- Node18 -->
<g id="Node000018" class="node">
<title>Node18</title>
<g id="a_Node000018"><a xlink:title=" ">
<polygon fill="#e0e0e0" stroke="#999999" points="386,-30 238,-30 238,0 386,0 386,-30"/>
<text text-anchor="start" x="246" y="-18" font-family="Helvetica,sans-Serif" font-size="10.00">boost/date_time/posix</text>
<text text-anchor="middle" x="312" y="-7" font-family="Helvetica,sans-Serif" font-size="10.00">_time/time_formatters.hpp</text>
</a>
</g>
</g>
<!-- Node16&#45;&gt;Node18 -->
<g id="edge24_Node000016_Node000018" class="edge">
<title>Node16&#45;&gt;Node18</title>
<g id="a_edge24_Node000016_Node000018"><a xlink:title=" ">
<path fill="none" stroke="#63b8ff" d="M342.28,-71.37C337.79,-63.16 330.83,-50.44 324.72,-39.26"/>
<polygon fill="#63b8ff" stroke="#63b8ff" points="327.72,-37.45 319.85,-30.36 321.58,-40.81 327.72,-37.45"/>
</a>
</g>
</g>
<!-- Node19 -->
<g id="Node000019" class="node">
<title>Node19</title>
<g id="a_Node000019"><a xlink:title=" ">
<polygon fill="#e0e0e0" stroke="#999999" points="536,-30 404,-30 404,0 536,0 536,-30"/>
<text text-anchor="start" x="412" y="-18" font-family="Helvetica,sans-Serif" font-size="10.00">boost/date_time/posix</text>
<text text-anchor="middle" x="470" y="-7" font-family="Helvetica,sans-Serif" font-size="10.00">_time/time_parsers.hpp</text>
</a>
</g>
</g>
<!-- Node16&#45;&gt;Node19 -->
<g id="edge25_Node000016_Node000019" class="edge">
<title>Node16&#45;&gt;Node19</title>
<g id="a_edge25_Node000016_Node000019"><a xlink:title=" ">
<path fill="none" stroke="#63b8ff" d="M363.59,-71.37C381.53,-62.03 410.7,-46.86 433.96,-34.75"/>
<polygon fill="#63b8ff" stroke="#63b8ff" points="435.62,-37.84 442.87,-30.12 432.38,-31.63 435.62,-37.84"/>
</a>
</g>
</g>
</g>
</svg>
