<?xml version="1.0" encoding="UTF-8" standalone="no"?>
<!DOCTYPE svg PUBLIC "-//W3C//DTD SVG 1.1//EN"
 "http://www.w3.org/Graphics/SVG/1.1/DTD/svg11.dtd">
<!-- Generated by graphviz version 2.43.0 (0)
 -->
<!-- Title: src/misc_lib/run_record.cpp Pages: 1 -->
<svg width="1235pt" height="291pt"
 viewBox="0.00 0.00 1234.50 291.00" xmlns="http://www.w3.org/2000/svg" xmlns:xlink="http://www.w3.org/1999/xlink">
<g id="graph0" class="graph" transform="scale(1 1) rotate(0) translate(4 287)">
<title>src/misc_lib/run_record.cpp</title>
<!-- Node1 -->
<g id="Node000001" class="node">
<title>Node1</title>
<g id="a_Node000001"><a xlink:title="Implementation of run record utilities.">
<polygon fill="#999999" stroke="#666666" points="606.5,-283 457.5,-283 457.5,-264 606.5,-264 606.5,-283"/>
<text text-anchor="middle" x="532" y="-271" font-family="Helvetica,sans-Serif" font-size="10.00">src/misc_lib/run_record.cpp</text>
</a>
</g>
</g>
<!-- Node2 -->
<g id="Node000002" class="node">
<title>Node2</title>
<g id="a_Node000002"><a xlink:href="run__record_8hpp.html" target="_top" xlink:title="Run record structure and utilities.">
<polygon fill="white" stroke="#666666" points="585,-228 479,-228 479,-198 585,-198 585,-228"/>
<text text-anchor="start" x="487" y="-216" font-family="Helvetica,sans-Serif" font-size="10.00">Clock/misc_lib/run</text>
<text text-anchor="middle" x="532" y="-205" font-family="Helvetica,sans-Serif" font-size="10.00">_record.hpp</text>
</a>
</g>
</g>
<!-- Node1&#45;&gt;Node2 -->
<g id="edge1_Node000001_Node000002" class="edge">
<title>Node1&#45;&gt;Node2</title>
<g id="a_edge1_Node000001_Node000002"><a xlink:title=" ">
<path fill="none" stroke="#63b8ff" d="M532,-263.87C532,-257.11 532,-247.35 532,-238.26"/>
<polygon fill="#63b8ff" stroke="#63b8ff" points="535.5,-238.11 532,-228.11 528.5,-238.11 535.5,-238.11"/>
</a>
</g>
</g>
<!-- Node6 -->
<g id="Node000006" class="node">
<title>Node6</title>
<g id="a_Node000006"><a xlink:title=" ">
<polygon fill="#e0e0e0" stroke="#999999" points="1226.5,-156.5 1105.5,-156.5 1105.5,-137.5 1226.5,-137.5 1226.5,-156.5"/>
<text text-anchor="middle" x="1166" y="-144.5" font-family="Helvetica,sans-Serif" font-size="10.00">boost/json/object.hpp</text>
</a>
</g>
</g>
<!-- Node1&#45;&gt;Node6 -->
<g id="edge28_Node000001_Node000006" class="edge">
<title>Node1&#45;&gt;Node6</title>
<g id="a_edge28_Node000001_Node000006"><a xlink:title=" ">
<path fill="none" stroke="#63b8ff" d="M575.58,-263.94C688.37,-241.79 989.62,-182.64 1112.6,-158.49"/>
<polygon fill="#63b8ff" stroke="#63b8ff" points="1113.4,-161.9 1122.54,-156.53 1112.05,-155.03 1113.4,-161.9"/>
</a>
</g>
</g>
<!-- Node18 -->
<g id="Node000018" class="node">
<title>Node18</title>
<g id="a_Node000018"><a xlink:title=" ">
<polygon fill="#e0e0e0" stroke="#999999" points="148,-30 0,-30 0,0 148,0 148,-30"/>
<text text-anchor="start" x="8" y="-18" font-family="Helvetica,sans-Serif" font-size="10.00">boost/date_time/posix</text>
<text text-anchor="middle" x="74" y="-7" font-family="Helvetica,sans-Serif" font-size="10.00">_time/time_formatters.hpp</text>
</a>
</g>
</g>
<!-- Node1&#45;&gt;Node18 -->
<g id="edge27_Node000001_Node000018" class="edge">
<title>Node1&#45;&gt;Node18</title>
<g id="a_edge27_Node000001_Node000018"><a xlink:title=" ">
<path fill="none" stroke="#63b8ff" d="M494.68,-263.91C435.6,-249.22 318.3,-215.58 231,-162 173.92,-126.97 119.53,-69.06 92.23,-37.74"/>
<polygon fill="#63b8ff" stroke="#63b8ff" points="94.76,-35.31 85.58,-30.01 89.45,-39.87 94.76,-35.31"/>
</a>
</g>
</g>
<!-- Node3 -->
<g id="Node000003" class="node">
<title>Node3</title>
<g id="a_Node000003"><a xlink:title=" ">
<polygon fill="#e0e0e0" stroke="#999999" points="1111.5,-24.5 966.5,-24.5 966.5,-5.5 1111.5,-5.5 1111.5,-24.5"/>
<text text-anchor="middle" x="1039" y="-12.5" font-family="Helvetica,sans-Serif" font-size="10.00">Clock/misc_lib_export.hpp</text>
</a>
</g>
</g>
<!-- Node2&#45;&gt;Node3 -->
<g id="edge2_Node000002_Node000003" class="edge">
<title>Node2&#45;&gt;Node3</title>
<g id="a_edge2_Node000002_Node000003"><a xlink:title=" ">
<path fill="none" stroke="#63b8ff" d="M585.09,-206.83C699.74,-194.56 964.99,-159.82 1025,-96 1040.29,-79.74 1042.02,-53.02 1041.12,-34.97"/>
<polygon fill="#63b8ff" stroke="#63b8ff" points="1044.59,-34.48 1040.29,-24.8 1037.62,-35.05 1044.59,-34.48"/>
</a>
</g>
</g>
<!-- Node4 -->
<g id="Node000004" class="node">
<title>Node4</title>
<g id="a_Node000004"><a xlink:title=" ">
<polygon fill="#e0e0e0" stroke="#999999" points="338,-156.5 284,-156.5 284,-137.5 338,-137.5 338,-156.5"/>
<text text-anchor="middle" x="311" y="-144.5" font-family="Helvetica,sans-Serif" font-size="10.00">random</text>
</a>
</g>
</g>
<!-- Node2&#45;&gt;Node4 -->
<g id="edge3_Node000002_Node000004" class="edge">
<title>Node2&#45;&gt;Node4</title>
<g id="a_edge3_Node000002_Node000004"><a xlink:title=" ">
<path fill="none" stroke="#63b8ff" d="M478.93,-199.26C441.7,-189.93 390.94,-176.43 347,-162 345.14,-161.39 343.23,-160.73 341.31,-160.05"/>
<polygon fill="#63b8ff" stroke="#63b8ff" points="342.4,-156.72 331.8,-156.53 339.96,-163.28 342.4,-156.72"/>
</a>
</g>
</g>
<!-- Node5 -->
<g id="Node000005" class="node">
<title>Node5</title>
<g id="a_Node000005"><a xlink:title=" ">
<polygon fill="#e0e0e0" stroke="#999999" points="210,-24.5 166,-24.5 166,-5.5 210,-5.5 210,-24.5"/>
<text text-anchor="middle" x="188" y="-12.5" font-family="Helvetica,sans-Serif" font-size="10.00">string</text>
</a>
</g>
</g>
<!-- Node2&#45;&gt;Node5 -->
<g id="edge4_Node000002_Node000005" class="edge">
<title>Node2&#45;&gt;Node5</title>
<g id="a_edge4_Node000002_Node000005"><a xlink:title=" ">
<path fill="none" stroke="#63b8ff" d="M478.98,-210.77C424.77,-207.5 339.58,-196.66 275,-162 238.72,-142.53 230.57,-131.67 210,-96 199.01,-76.94 193.3,-52.14 190.49,-35.24"/>
<polygon fill="#63b8ff" stroke="#63b8ff" points="193.89,-34.35 188.97,-24.97 186.97,-35.37 193.89,-34.35"/>
</a>
</g>
</g>
<!-- Node2&#45;&gt;Node6 -->
<g id="edge5_Node000002_Node000006" class="edge">
<title>Node2&#45;&gt;Node6</title>
<g id="a_edge5_Node000002_Node000006"><a xlink:title=" ">
<path fill="none" stroke="#63b8ff" d="M585.37,-208.93C685.05,-202.81 906.16,-187.46 1091,-162 1098.48,-160.97 1106.35,-159.7 1114.06,-158.36"/>
<polygon fill="#63b8ff" stroke="#63b8ff" points="1114.85,-161.77 1124.07,-156.56 1113.61,-154.88 1114.85,-161.77"/>
</a>
</g>
</g>
<!-- Node7 -->
<g id="Node000007" class="node">
<title>Node7</title>
<g id="a_Node000007"><a xlink:title=" ">
<polygon fill="#e0e0e0" stroke="#999999" points="435.5,-156.5 356.5,-156.5 356.5,-137.5 435.5,-137.5 435.5,-156.5"/>
<text text-anchor="middle" x="396" y="-144.5" font-family="Helvetica,sans-Serif" font-size="10.00">fmt/format.h</text>
</a>
</g>
</g>
<!-- Node2&#45;&gt;Node7 -->
<g id="edge6_Node000002_Node000007" class="edge">
<title>Node2&#45;&gt;Node7</title>
<g id="a_edge6_Node000002_Node000007"><a xlink:title=" ">
<path fill="none" stroke="#63b8ff" d="M502.15,-197.95C478.62,-186.88 446.07,-171.56 423.23,-160.82"/>
<polygon fill="#63b8ff" stroke="#63b8ff" points="424.64,-157.61 414.1,-156.52 421.66,-163.94 424.64,-157.61"/>
</a>
</g>
</g>
<!-- Node8 -->
<g id="Node000008" class="node">
<title>Node8</title>
<g id="a_Node000008"><a xlink:href="date__time_8hpp_source.html" target="_top" xlink:title=" ">
<polygon fill="white" stroke="#666666" points="740,-162 628,-162 628,-132 740,-132 740,-162"/>
<text text-anchor="start" x="636" y="-150" font-family="Helvetica,sans-Serif" font-size="10.00">Clock/misc_lib/date</text>
<text text-anchor="middle" x="684" y="-139" font-family="Helvetica,sans-Serif" font-size="10.00">_time.hpp</text>
</a>
</g>
</g>
<!-- Node2&#45;&gt;Node8 -->
<g id="edge7_Node000002_Node000008" class="edge">
<title>Node2&#45;&gt;Node8</title>
<g id="a_edge7_Node000002_Node000008"><a xlink:title=" ">
<path fill="none" stroke="#63b8ff" d="M565.36,-197.95C587.73,-188.53 617.39,-176.04 641.46,-165.91"/>
<polygon fill="#63b8ff" stroke="#63b8ff" points="642.86,-169.12 650.72,-162.01 640.15,-162.67 642.86,-169.12"/>
</a>
</g>
</g>
<!-- Node20 -->
<g id="Node000020" class="node">
<title>Node20</title>
<g id="a_Node000020"><a xlink:title=" ">
<polygon fill="#e0e0e0" stroke="#999999" points="610,-156.5 454,-156.5 454,-137.5 610,-137.5 610,-156.5"/>
<text text-anchor="middle" x="532" y="-144.5" font-family="Helvetica,sans-Serif" font-size="10.00">internal_use_only/config.hpp</text>
</a>
</g>
</g>
<!-- Node2&#45;&gt;Node20 -->
<g id="edge26_Node000002_Node000020" class="edge">
<title>Node2&#45;&gt;Node20</title>
<g id="a_edge26_Node000002_Node000020"><a xlink:title=" ">
<path fill="none" stroke="#63b8ff" d="M532,-197.8C532,-188.7 532,-176.79 532,-166.9"/>
<polygon fill="#63b8ff" stroke="#63b8ff" points="535.5,-166.84 532,-156.84 528.5,-166.84 535.5,-166.84"/>
</a>
</g>
</g>
<!-- Node8&#45;&gt;Node3 -->
<g id="edge8_Node000008_Node000003" class="edge">
<title>Node8&#45;&gt;Node3</title>
<g id="a_edge8_Node000008_Node000003"><a xlink:title=" ">
<path fill="none" stroke="#63b8ff" d="M740.29,-143.09C819.27,-138 957.84,-125.13 998,-96 1018.49,-81.14 1029.47,-53 1034.77,-34.37"/>
<polygon fill="#63b8ff" stroke="#63b8ff" points="1038.16,-35.23 1037.26,-24.68 1031.38,-33.49 1038.16,-35.23"/>
</a>
</g>
</g>
<!-- Node8&#45;&gt;Node5 -->
<g id="edge10_Node000008_Node000005" class="edge">
<title>Node8&#45;&gt;Node5</title>
<g id="a_edge10_Node000008_Node000005"><a xlink:title=" ">
<path fill="none" stroke="#63b8ff" d="M627.7,-133.46C624.77,-132.93 621.85,-132.44 619,-132 536.27,-119.16 316.32,-138.17 244,-96 219.9,-81.95 203.65,-52.91 195.11,-33.96"/>
<polygon fill="#63b8ff" stroke="#63b8ff" points="198.28,-32.47 191.16,-24.63 191.83,-35.2 198.28,-32.47"/>
</a>
</g>
</g>
<!-- Node9 -->
<g id="Node000009" class="node">
<title>Node9</title>
<g id="a_Node000009"><a xlink:title=" ">
<polygon fill="#e0e0e0" stroke="#999999" points="503,-90.5 443,-90.5 443,-71.5 503,-71.5 503,-90.5"/>
<text text-anchor="middle" x="473" y="-78.5" font-family="Helvetica,sans-Serif" font-size="10.00">iostream</text>
</a>
</g>
</g>
<!-- Node8&#45;&gt;Node9 -->
<g id="edge9_Node000008_Node000009" class="edge">
<title>Node8&#45;&gt;Node9</title>
<g id="a_edge9_Node000008_Node000009"><a xlink:title=" ">
<path fill="none" stroke="#63b8ff" d="M632.57,-131.95C598.26,-122.35 552.23,-109.05 512,-96 509.89,-95.31 507.72,-94.59 505.53,-93.85"/>
<polygon fill="#63b8ff" stroke="#63b8ff" points="506.61,-90.52 496.02,-90.53 504.31,-97.13 506.61,-90.52"/>
</a>
</g>
</g>
<!-- Node10 -->
<g id="Node000010" class="node">
<title>Node10</title>
<g id="a_Node000010"><a xlink:title=" ">
<polygon fill="#e0e0e0" stroke="#999999" points="948.5,-24.5 875.5,-24.5 875.5,-5.5 948.5,-5.5 948.5,-24.5"/>
<text text-anchor="middle" x="912" y="-12.5" font-family="Helvetica,sans-Serif" font-size="10.00">string_view</text>
</a>
</g>
</g>
<!-- Node8&#45;&gt;Node10 -->
<g id="edge11_Node000008_Node000010" class="edge">
<title>Node8&#45;&gt;Node10</title>
<g id="a_edge11_Node000008_Node000010"><a xlink:title=" ">
<path fill="none" stroke="#63b8ff" d="M740.24,-144.85C817.62,-141.94 950.78,-131.73 981,-96 1000.9,-72.47 964.96,-45.37 937.9,-29.52"/>
<polygon fill="#63b8ff" stroke="#63b8ff" points="939.59,-26.45 929.16,-24.59 936.16,-32.55 939.59,-26.45"/>
</a>
</g>
</g>
<!-- Node11 -->
<g id="Node000011" class="node">
<title>Node11</title>
<g id="a_Node000011"><a xlink:title=" ">
<polygon fill="#e0e0e0" stroke="#999999" points="722,-30 554,-30 554,0 722,0 722,-30"/>
<text text-anchor="start" x="562" y="-18" font-family="Helvetica,sans-Serif" font-size="10.00">boost/date_time/posix</text>
<text text-anchor="middle" x="638" y="-7" font-family="Helvetica,sans-Serif" font-size="10.00">_time/posix_time_duration.hpp</text>
</a>
</g>
</g>
<!-- Node8&#45;&gt;Node11 -->
<g id="edge12_Node000008_Node000011" class="edge">
<title>Node8&#45;&gt;Node11</title>
<g id="a_edge12_Node000008_Node000011"><a xlink:title=" ">
<path fill="none" stroke="#63b8ff" d="M628,-133.86C624.95,-133.23 621.94,-132.6 619,-132 577.97,-123.59 460.64,-128.32 434,-96 425.52,-85.71 425.77,-76.49 434,-66 441.7,-56.18 499.53,-42.56 551.65,-32.02"/>
<polygon fill="#63b8ff" stroke="#63b8ff" points="552.52,-35.41 561.64,-30.02 551.15,-28.55 552.52,-35.41"/>
</a>
</g>
</g>
<!-- Node12 -->
<g id="Node000012" class="node">
<title>Node12</title>
<g id="a_Node000012"><a xlink:title=" ">
<polygon fill="#e0e0e0" stroke="#999999" points="829.5,-96 674.5,-96 674.5,-66 829.5,-66 829.5,-96"/>
<text text-anchor="start" x="682.5" y="-84" font-family="Helvetica,sans-Serif" font-size="10.00">boost/date_time/posix</text>
<text text-anchor="middle" x="752" y="-73" font-family="Helvetica,sans-Serif" font-size="10.00">_time/posix_time_types.hpp</text>
</a>
</g>
</g>
<!-- Node8&#45;&gt;Node12 -->
<g id="edge13_Node000008_Node000012" class="edge">
<title>Node8&#45;&gt;Node12</title>
<g id="a_edge13_Node000008_Node000012"><a xlink:title=" ">
<path fill="none" stroke="#63b8ff" d="M699.09,-131.8C708.07,-123.34 719.63,-112.46 729.65,-103.03"/>
<polygon fill="#63b8ff" stroke="#63b8ff" points="732.07,-105.57 736.95,-96.16 727.27,-100.47 732.07,-105.57"/>
</a>
</g>
</g>
<!-- Node13 -->
<g id="Node000013" class="node">
<title>Node13</title>
<g id="a_Node000013"><a xlink:title=" ">
<polygon fill="#e0e0e0" stroke="#999999" points="972.5,-96 847.5,-96 847.5,-66 972.5,-66 972.5,-96"/>
<text text-anchor="start" x="855.5" y="-84" font-family="Helvetica,sans-Serif" font-size="10.00">boost/date_time/posix</text>
<text text-anchor="middle" x="910" y="-73" font-family="Helvetica,sans-Serif" font-size="10.00">_time/ptime.hpp</text>
</a>
</g>
</g>
<!-- Node8&#45;&gt;Node13 -->
<g id="edge14_Node000008_Node000013" class="edge">
<title>Node8&#45;&gt;Node13</title>
<g id="a_edge14_Node000008_Node000013"><a xlink:title=" ">
<path fill="none" stroke="#63b8ff" d="M733.6,-131.95C768.04,-122.2 814.1,-109.16 850.52,-98.84"/>
<polygon fill="#63b8ff" stroke="#63b8ff" points="851.85,-102.1 860.52,-96.01 849.94,-95.37 851.85,-102.1"/>
</a>
</g>
</g>
<!-- Node14 -->
<g id="Node000014" class="node">
<title>Node14</title>
<g id="a_Node000014"><a xlink:href="quad_8hpp.html" target="_top" xlink:title="Quad precision floating&#45;point type and utilities.">
<polygon fill="white" stroke="#666666" points="656.5,-90.5 521.5,-90.5 521.5,-71.5 656.5,-71.5 656.5,-90.5"/>
<text text-anchor="middle" x="589" y="-78.5" font-family="Helvetica,sans-Serif" font-size="10.00">Clock/misc_lib/quad.hpp</text>
</a>
</g>
</g>
<!-- Node8&#45;&gt;Node14 -->
<g id="edge15_Node000008_Node000014" class="edge">
<title>Node8&#45;&gt;Node14</title>
<g id="a_edge15_Node000008_Node000014"><a xlink:title=" ">
<path fill="none" stroke="#63b8ff" d="M662.92,-131.8C647.29,-121.27 626.07,-106.97 610.37,-96.4"/>
<polygon fill="#63b8ff" stroke="#63b8ff" points="612.1,-93.34 601.85,-90.66 608.19,-99.15 612.1,-93.34"/>
</a>
</g>
</g>
<!-- Node16 -->
<g id="Node000016" class="node">
<title>Node16</title>
<g id="a_Node000016"><a xlink:href="time_8hpp.html" target="_top" xlink:title="DateTime data structure and utilities.">
<polygon fill="white" stroke="#666666" points="387,-90.5 253,-90.5 253,-71.5 387,-71.5 387,-90.5"/>
<text text-anchor="middle" x="320" y="-78.5" font-family="Helvetica,sans-Serif" font-size="10.00">Clock/misc_lib/time.hpp</text>
</a>
</g>
</g>
<!-- Node8&#45;&gt;Node16 -->
<g id="edge19_Node000008_Node000016" class="edge">
<title>Node8&#45;&gt;Node16</title>
<g id="a_edge19_Node000008_Node000016"><a xlink:title=" ">
<path fill="none" stroke="#63b8ff" d="M627.66,-133.69C624.74,-133.11 621.84,-132.54 619,-132 522.53,-113.66 497.83,-112.36 401,-96 393.94,-94.81 386.53,-93.54 379.19,-92.28"/>
<polygon fill="#63b8ff" stroke="#63b8ff" points="379.7,-88.82 369.25,-90.57 378.51,-95.72 379.7,-88.82"/>
</a>
</g>
</g>
<!-- Node14&#45;&gt;Node3 -->
<g id="edge16_Node000014_Node000003" class="edge">
<title>Node14&#45;&gt;Node3</title>
<g id="a_edge16_Node000014_Node000003"><a xlink:title=" ">
<path fill="none" stroke="#63b8ff" d="M632.73,-71.48C643.28,-69.56 654.52,-67.61 665,-66 794.24,-46.15 827.63,-49.01 957,-30 964.92,-28.84 973.26,-27.52 981.46,-26.17"/>
<polygon fill="#63b8ff" stroke="#63b8ff" points="982.08,-29.62 991.36,-24.52 980.92,-22.71 982.08,-29.62"/>
</a>
</g>
</g>
<!-- Node14&#45;&gt;Node10 -->
<g id="edge17_Node000014_Node000010" class="edge">
<title>Node14&#45;&gt;Node10</title>
<g id="a_edge17_Node000014_Node000010"><a xlink:title=" ">
<path fill="none" stroke="#63b8ff" d="M635.21,-71.46C645.04,-69.65 655.36,-67.75 665,-66 753.86,-49.82 777.14,-50.92 865,-30 868.42,-29.19 871.95,-28.27 875.48,-27.31"/>
<polygon fill="#63b8ff" stroke="#63b8ff" points="876.64,-30.62 885.3,-24.52 874.72,-23.89 876.64,-30.62"/>
</a>
</g>
</g>
<!-- Node15 -->
<g id="Node000015" class="node">
<title>Node15</title>
<g id="a_Node000015"><a xlink:title=" ">
<polygon fill="#e0e0e0" stroke="#999999" points="856,-30 740,-30 740,0 856,0 856,-30"/>
<text text-anchor="start" x="748" y="-18" font-family="Helvetica,sans-Serif" font-size="10.00">boost/multiprecision</text>
<text text-anchor="middle" x="798" y="-7" font-family="Helvetica,sans-Serif" font-size="10.00">/cpp_bin_float.hpp</text>
</a>
</g>
</g>
<!-- Node14&#45;&gt;Node15 -->
<g id="edge18_Node000014_Node000015" class="edge">
<title>Node14&#45;&gt;Node15</title>
<g id="a_edge18_Node000014_Node000015"><a xlink:title=" ">
<path fill="none" stroke="#63b8ff" d="M617.19,-71.37C649.1,-61.6 701.88,-45.43 742.2,-33.09"/>
<polygon fill="#63b8ff" stroke="#63b8ff" points="743.37,-36.39 751.9,-30.12 741.32,-29.7 743.37,-36.39"/>
</a>
</g>
</g>
<!-- Node16&#45;&gt;Node3 -->
<g id="edge20_Node000016_Node000003" class="edge">
<title>Node16&#45;&gt;Node3</title>
<g id="a_edge20_Node000016_Node000003"><a xlink:title=" ">
<path fill="none" stroke="#63b8ff" d="M384.44,-71.48C400.61,-69.51 417.92,-67.54 434,-66 665.93,-43.79 725.65,-57.64 957,-30 965.75,-28.95 974.99,-27.61 983.99,-26.17"/>
<polygon fill="#63b8ff" stroke="#63b8ff" points="984.71,-29.6 994,-24.52 983.57,-22.69 984.71,-29.6"/>
</a>
</g>
</g>
<!-- Node16&#45;&gt;Node5 -->
<g id="edge21_Node000016_Node000005" class="edge">
<title>Node16&#45;&gt;Node5</title>
<g id="a_edge21_Node000016_Node000005"><a xlink:title=" ">
<path fill="none" stroke="#63b8ff" d="M302.2,-71.37C279.86,-60.54 241.32,-41.85 215.26,-29.22"/>
<polygon fill="#63b8ff" stroke="#63b8ff" points="216.47,-25.91 205.94,-24.7 213.41,-32.21 216.47,-25.91"/>
</a>
</g>
</g>
<!-- Node16&#45;&gt;Node11 -->
<g id="edge23_Node000016_Node000011" class="edge">
<title>Node16&#45;&gt;Node11</title>
<g id="a_edge23_Node000016_Node000011"><a xlink:title=" ">
<path fill="none" stroke="#63b8ff" d="M362.56,-71.44C412.42,-61.4 496.09,-44.56 558.16,-32.07"/>
<polygon fill="#63b8ff" stroke="#63b8ff" points="559.2,-35.43 568.31,-30.02 557.82,-28.57 559.2,-35.43"/>
</a>
</g>
</g>
<!-- Node17 -->
<g id="Node000017" class="node">
<title>Node17</title>
<g id="a_Node000017"><a xlink:title=" ">
<polygon fill="#e0e0e0" stroke="#999999" points="385.5,-30 228.5,-30 228.5,0 385.5,0 385.5,-30"/>
<text text-anchor="start" x="236.5" y="-18" font-family="Helvetica,sans-Serif" font-size="10.00">boost/date_time/posix</text>
<text text-anchor="middle" x="307" y="-7" font-family="Helvetica,sans-Serif" font-size="10.00">_time/posix_time_config.hpp</text>
</a>
</g>
</g>
<!-- Node16&#45;&gt;Node17 -->
<g id="edge22_Node000016_Node000017" class="edge">
<title>Node16&#45;&gt;Node17</title>
<g id="a_edge22_Node000016_Node000017"><a xlink:title=" ">
<path fill="none" stroke="#63b8ff" d="M318.25,-71.37C316.63,-63.4 314.15,-51.2 311.93,-40.27"/>
<polygon fill="#63b8ff" stroke="#63b8ff" points="315.34,-39.46 309.92,-30.36 308.48,-40.86 315.34,-39.46"/>
</a>
</g>
</g>
<!-- Node16&#45;&gt;Node18 -->
<g id="edge24_Node000016_Node000018" class="edge">
<title>Node16&#45;&gt;Node18</title>
<g id="a_edge24_Node000016_Node000018"><a xlink:title=" ">
<path fill="none" stroke="#63b8ff" d="M287.08,-71.44C249.07,-61.55 185.64,-45.05 137.85,-32.61"/>
<polygon fill="#63b8ff" stroke="#63b8ff" points="138.47,-29.16 127.91,-30.02 136.7,-35.93 138.47,-29.16"/>
</a>
</g>
</g>
<!-- Node19 -->
<g id="Node000019" class="node">
<title>Node19</title>
<g id="a_Node000019"><a xlink:title=" ">
<polygon fill="#e0e0e0" stroke="#999999" points="536,-30 404,-30 404,0 536,0 536,-30"/>
<text text-anchor="start" x="412" y="-18" font-family="Helvetica,sans-Serif" font-size="10.00">boost/date_time/posix</text>
<text text-anchor="middle" x="470" y="-7" font-family="Helvetica,sans-Serif" font-size="10.00">_time/time_parsers.hpp</text>
</a>
</g>
</g>
<!-- Node16&#45;&gt;Node19 -->
<g id="edge25_Node000016_Node000019" class="edge">
<title>Node16&#45;&gt;Node19</title>
<g id="a_edge25_Node000016_Node000019"><a xlink:title=" ">
<path fill="none" stroke="#63b8ff" d="M340.23,-71.37C362.5,-61.87 398.94,-46.32 427.55,-34.11"/>
<polygon fill="#63b8ff" stroke="#63b8ff" points="429.09,-37.26 436.92,-30.12 426.35,-30.82 429.09,-37.26"/>
</a>
</g>
</g>
</g>
</svg>
