<?xml version="1.0" encoding="UTF-8" standalone="no"?>
<!DOCTYPE svg PUBLIC "-//W3C//DTD SVG 1.1//EN"
 "http://www.w3.org/Graphics/SVG/1.1/DTD/svg11.dtd">
<!-- Generated by graphviz version 2.43.0 (0)
 -->
<!-- Title: include/Clock/misc_lib/run_record.hpp Pages: 1 -->
<svg width="602pt" height="225pt"
 viewBox="0.00 0.00 602.00 225.00" xmlns="http://www.w3.org/2000/svg" xmlns:xlink="http://www.w3.org/1999/xlink">
<g id="graph0" class="graph" transform="scale(1 1) rotate(0) translate(4 221)">
<title>include/Clock/misc_lib/run_record.hpp</title>
<!-- Node1 -->
<g id="Node000001" class="node">
<title>Node1</title>
<g id="a_Node000001"><a xlink:title="Run record structure and utilities.">
<polygon fill="#999999" stroke="#666666" points="408.5,-217 298.5,-217 298.5,-187 408.5,-187 408.5,-217"/>
<text text-anchor="start" x="306.5" y="-205" font-family="Helvetica,sans-Serif" font-size="10.00">include/Clock/misc</text>
<text text-anchor="middle" x="353.5" y="-194" font-family="Helvetica,sans-Serif" font-size="10.00">_lib/run_record.hpp</text>
</a>
</g>
</g>
<!-- Node2 -->
<g id="Node000002" class="node">
<title>Node2</title>
<g id="a_Node000002"><a xlink:href="config_8hpp.html" target="_top" xlink:title="Configuration structure for the Si3 simulation.">
<polygon fill="white" stroke="#666666" points="351.5,-151 229.5,-151 229.5,-121 351.5,-121 351.5,-151"/>
<text text-anchor="start" x="237.5" y="-139" font-family="Helvetica,sans-Serif" font-size="10.00">include/Clock/si3_sim</text>
<text text-anchor="middle" x="290.5" y="-128" font-family="Helvetica,sans-Serif" font-size="10.00">/config.hpp</text>
</a>
</g>
</g>
<!-- Node1&#45;&gt;Node2 -->
<g id="edge1_Node000001_Node000002" class="edge">
<title>Node1&#45;&gt;Node2</title>
<g id="a_edge1_Node000001_Node000002"><a xlink:title=" ">
<path fill="none" stroke="#63b8ff" d="M332.48,-179.65C323.25,-170.27 312.67,-159.53 304.44,-151.16"/>
<polygon fill="#63b8ff" stroke="#63b8ff" points="330.01,-182.13 339.52,-186.8 335,-177.21 330.01,-182.13"/>
</a>
</g>
</g>
<!-- Node4 -->
<g id="Node000004" class="node">
<title>Node4</title>
<g id="a_Node000004"><a xlink:href="main_8cpp.html" target="_top" xlink:title="Main entry point for the Si3 simulation tool.">
<polygon fill="white" stroke="#666666" points="119,-19 0,-19 0,0 119,0 119,-19"/>
<text text-anchor="middle" x="59.5" y="-7" font-family="Helvetica,sans-Serif" font-size="10.00">src/si3_sim/main.cpp</text>
</a>
</g>
</g>
<!-- Node1&#45;&gt;Node4 -->
<g id="edge9_Node000001_Node000004" class="edge">
<title>Node1&#45;&gt;Node4</title>
<g id="a_edge9_Node000001_Node000004"><a xlink:title=" ">
<path fill="none" stroke="#63b8ff" d="M288.35,-196.05C218.28,-186.84 110.12,-160.46 59.5,-85 45.95,-64.81 52.3,-34.09 56.63,-19.2"/>
<polygon fill="#63b8ff" stroke="#63b8ff" points="288.05,-199.54 298.4,-197.29 288.91,-192.59 288.05,-199.54"/>
</a>
</g>
</g>
<!-- Node5 -->
<g id="Node000005" class="node">
<title>Node5</title>
<g id="a_Node000005"><a xlink:href="si3__sim_8cpp.html" target="_top" xlink:title="Implementation of the Si3Sim class.">
<polygon fill="white" stroke="#666666" points="445.5,-19 313.5,-19 313.5,0 445.5,0 445.5,-19"/>
<text text-anchor="middle" x="379.5" y="-7" font-family="Helvetica,sans-Serif" font-size="10.00">src/si3_sim/si3_sim.cpp</text>
</a>
</g>
</g>
<!-- Node1&#45;&gt;Node5 -->
<g id="edge10_Node000001_Node000005" class="edge">
<title>Node1&#45;&gt;Node5</title>
<g id="a_edge10_Node000001_Node000005"><a xlink:title=" ">
<path fill="none" stroke="#63b8ff" d="M360.99,-177.23C367.89,-153.99 377.64,-117.47 381.5,-85 383.08,-71.76 381.8,-68.33 381.5,-55 381.22,-42.47 380.49,-27.98 380,-19.03"/>
<polygon fill="#63b8ff" stroke="#63b8ff" points="357.61,-176.33 358.05,-186.91 364.31,-178.36 357.61,-176.33"/>
</a>
</g>
</g>
<!-- Node7 -->
<g id="Node000007" class="node">
<title>Node7</title>
<g id="a_Node000007"><a xlink:href="run__record_8cpp.html" target="_top" xlink:title="Implementation of run record utilities.">
<polygon fill="white" stroke="#666666" points="594,-145.5 445,-145.5 445,-126.5 594,-126.5 594,-145.5"/>
<text text-anchor="middle" x="519.5" y="-133.5" font-family="Helvetica,sans-Serif" font-size="10.00">src/misc_lib/run_record.cpp</text>
</a>
</g>
</g>
<!-- Node1&#45;&gt;Node7 -->
<g id="edge8_Node000001_Node000007" class="edge">
<title>Node1&#45;&gt;Node7</title>
<g id="a_edge8_Node000001_Node000007"><a xlink:title=" ">
<path fill="none" stroke="#63b8ff" d="M399.51,-183.26C431.44,-170.95 472.54,-155.11 497.41,-145.52"/>
<polygon fill="#63b8ff" stroke="#63b8ff" points="398,-180.09 389.93,-186.95 400.52,-186.62 398,-180.09"/>
</a>
</g>
</g>
<!-- Node3 -->
<g id="Node000003" class="node">
<title>Node3</title>
<g id="a_Node000003"><a xlink:href="si3__sim_8hpp.html" target="_top" xlink:title="Header file for the Si3Sim class.">
<polygon fill="white" stroke="#666666" points="351.5,-85 229.5,-85 229.5,-55 351.5,-55 351.5,-85"/>
<text text-anchor="start" x="237.5" y="-73" font-family="Helvetica,sans-Serif" font-size="10.00">include/Clock/si3_sim</text>
<text text-anchor="middle" x="290.5" y="-62" font-family="Helvetica,sans-Serif" font-size="10.00">/si3_sim.hpp</text>
</a>
</g>
</g>
<!-- Node2&#45;&gt;Node3 -->
<g id="edge2_Node000002_Node000003" class="edge">
<title>Node2&#45;&gt;Node3</title>
<g id="a_edge2_Node000002_Node000003"><a xlink:title=" ">
<path fill="none" stroke="#63b8ff" d="M290.5,-110.54C290.5,-101.96 290.5,-92.61 290.5,-85.16"/>
<polygon fill="#63b8ff" stroke="#63b8ff" points="287,-110.8 290.5,-120.8 294,-110.8 287,-110.8"/>
</a>
</g>
</g>
<!-- Node2&#45;&gt;Node4 -->
<g id="edge6_Node000002_Node000004" class="edge">
<title>Node2&#45;&gt;Node4</title>
<g id="a_edge6_Node000002_Node000004"><a xlink:title=" ">
<path fill="none" stroke="#63b8ff" d="M219.25,-126.2C165.74,-118.16 98.4,-104.54 78.5,-85 60.41,-67.23 58.7,-34.8 59.03,-19.26"/>
<polygon fill="#63b8ff" stroke="#63b8ff" points="219.01,-129.7 229.41,-127.68 220.02,-122.77 219.01,-129.7"/>
</a>
</g>
</g>
<!-- Node2&#45;&gt;Node5 -->
<g id="edge7_Node000002_Node000005" class="edge">
<title>Node2&#45;&gt;Node5</title>
<g id="a_edge7_Node000002_Node000005"><a xlink:title=" ">
<path fill="none" stroke="#63b8ff" d="M327.78,-115.41C339.8,-107.44 352.15,-97.2 360.5,-85 374.67,-64.29 378.28,-33.82 379.19,-19.09"/>
<polygon fill="#63b8ff" stroke="#63b8ff" points="325.77,-112.54 319.15,-120.81 329.48,-118.47 325.77,-112.54"/>
</a>
</g>
</g>
<!-- Node6 -->
<g id="Node000006" class="node">
<title>Node6</title>
<g id="a_Node000006"><a xlink:href="config_8cpp.html" target="_top" xlink:title="Implementation of configuration utilities.">
<polygon fill="white" stroke="#666666" points="211.5,-79.5 87.5,-79.5 87.5,-60.5 211.5,-60.5 211.5,-79.5"/>
<text text-anchor="middle" x="149.5" y="-67.5" font-family="Helvetica,sans-Serif" font-size="10.00">src/si3_sim/config.cpp</text>
</a>
</g>
</g>
<!-- Node2&#45;&gt;Node6 -->
<g id="edge5_Node000002_Node000006" class="edge">
<title>Node2&#45;&gt;Node6</title>
<g id="a_edge5_Node000002_Node000006"><a xlink:title=" ">
<path fill="none" stroke="#63b8ff" d="M250.36,-116.78C223.4,-104.54 189.12,-88.98 168.26,-79.52"/>
<polygon fill="#63b8ff" stroke="#63b8ff" points="249,-120.01 259.56,-120.95 251.9,-113.63 249,-120.01"/>
</a>
</g>
</g>
<!-- Node3&#45;&gt;Node4 -->
<g id="edge3_Node000003_Node000004" class="edge">
<title>Node3&#45;&gt;Node4</title>
<g id="a_edge3_Node000003_Node000004"><a xlink:title=" ">
<path fill="none" stroke="#63b8ff" d="M225.35,-52.5C182.37,-41.62 127.82,-27.8 93.28,-19.05"/>
<polygon fill="#63b8ff" stroke="#63b8ff" points="224.62,-55.93 235.17,-54.99 226.34,-49.14 224.62,-55.93"/>
</a>
</g>
</g>
<!-- Node3&#45;&gt;Node5 -->
<g id="edge4_Node000003_Node000005" class="edge">
<title>Node3&#45;&gt;Node5</title>
<g id="a_edge4_Node000003_Node000005"><a xlink:title=" ">
<path fill="none" stroke="#63b8ff" d="M320.83,-49.06C336.37,-38.85 354.48,-26.95 366.42,-19.09"/>
<polygon fill="#63b8ff" stroke="#63b8ff" points="318.48,-46.42 312.04,-54.84 322.32,-52.27 318.48,-46.42"/>
</a>
</g>
</g>
</g>
</svg>
