<?xml version="1.0" encoding="UTF-8" standalone="no"?>
<!DOCTYPE svg PUBLIC "-//W3C//DTD SVG 1.1//EN"
 "http://www.w3.org/Graphics/SVG/1.1/DTD/svg11.dtd">
<!-- Generated by graphviz version 2.43.0 (0)
 -->
<!-- Title: src/misc_lib/run_record.cpp Pages: 1 -->
<svg width="1253pt" height="291pt"
 viewBox="0.00 0.00 1253.00 291.00" xmlns="http://www.w3.org/2000/svg" xmlns:xlink="http://www.w3.org/1999/xlink">
<g id="graph0" class="graph" transform="scale(1 1) rotate(0) translate(4 287)">
<title>src/misc_lib/run_record.cpp</title>
<!-- Node1 -->
<g id="Node000001" class="node">
<title>Node1</title>
<g id="a_Node000001"><a xlink:title="Implementation of run record utilities.">
<polygon fill="#999999" stroke="#666666" points="1156.5,-283 1007.5,-283 1007.5,-264 1156.5,-264 1156.5,-283"/>
<text text-anchor="middle" x="1082" y="-271" font-family="Helvetica,sans-Serif" font-size="10.00">src/misc_lib/run_record.cpp</text>
</a>
</g>
</g>
<!-- Node2 -->
<g id="Node000002" class="node">
<title>Node2</title>
<g id="a_Node000002"><a xlink:href="run__record_8hpp.html" target="_top" xlink:title="Run record structure and utilities.">
<polygon fill="white" stroke="#666666" points="955,-228 849,-228 849,-198 955,-198 955,-228"/>
<text text-anchor="start" x="857" y="-216" font-family="Helvetica,sans-Serif" font-size="10.00">Clock/misc_lib/run</text>
<text text-anchor="middle" x="902" y="-205" font-family="Helvetica,sans-Serif" font-size="10.00">_record.hpp</text>
</a>
</g>
</g>
<!-- Node1&#45;&gt;Node2 -->
<g id="edge1_Node000001_Node000002" class="edge">
<title>Node1&#45;&gt;Node2</title>
<g id="a_edge1_Node000001_Node000002"><a xlink:title=" ">
<path fill="none" stroke="#63b8ff" d="M1055.83,-263.99C1029.47,-255.43 988.07,-241.97 954.85,-231.18"/>
<polygon fill="#63b8ff" stroke="#63b8ff" points="955.87,-227.83 945.27,-228.06 953.7,-234.48 955.87,-227.83"/>
</a>
</g>
</g>
<!-- Node6 -->
<g id="Node000006" class="node">
<title>Node6</title>
<g id="a_Node000006"><a xlink:title=" ">
<polygon fill="#e0e0e0" stroke="#999999" points="1142.5,-156.5 1021.5,-156.5 1021.5,-137.5 1142.5,-137.5 1142.5,-156.5"/>
<text text-anchor="middle" x="1082" y="-144.5" font-family="Helvetica,sans-Serif" font-size="10.00">boost/json/object.hpp</text>
</a>
</g>
</g>
<!-- Node1&#45;&gt;Node6 -->
<g id="edge29_Node000001_Node000006" class="edge">
<title>Node1&#45;&gt;Node6</title>
<g id="a_edge29_Node000001_Node000006"><a xlink:title=" ">
<path fill="none" stroke="#63b8ff" d="M1082,-263.94C1082,-244.04 1082,-194.26 1082,-166.85"/>
<polygon fill="#63b8ff" stroke="#63b8ff" points="1085.5,-166.62 1082,-156.62 1078.5,-166.62 1085.5,-166.62"/>
</a>
</g>
</g>
<!-- Node19 -->
<g id="Node000019" class="node">
<title>Node19</title>
<g id="a_Node000019"><a xlink:title=" ">
<polygon fill="#e0e0e0" stroke="#999999" points="1245,-30 1097,-30 1097,0 1245,0 1245,-30"/>
<text text-anchor="start" x="1105" y="-18" font-family="Helvetica,sans-Serif" font-size="10.00">boost/date_time/posix</text>
<text text-anchor="middle" x="1171" y="-7" font-family="Helvetica,sans-Serif" font-size="10.00">_time/time_formatters.hpp</text>
</a>
</g>
</g>
<!-- Node1&#45;&gt;Node19 -->
<g id="edge28_Node000001_Node000019" class="edge">
<title>Node1&#45;&gt;Node19</title>
<g id="a_edge28_Node000001_Node000019"><a xlink:title=" ">
<path fill="none" stroke="#63b8ff" d="M1089.46,-263.76C1104.21,-245.96 1136.94,-203.64 1152,-162 1166.8,-121.08 1170.32,-70.01 1171.01,-40.39"/>
<polygon fill="#63b8ff" stroke="#63b8ff" points="1174.52,-40.21 1171.16,-30.16 1167.52,-40.11 1174.52,-40.21"/>
</a>
</g>
</g>
<!-- Node3 -->
<g id="Node000003" class="node">
<title>Node3</title>
<g id="a_Node000003"><a xlink:title=" ">
<polygon fill="#e0e0e0" stroke="#999999" points="504.5,-24.5 359.5,-24.5 359.5,-5.5 504.5,-5.5 504.5,-24.5"/>
<text text-anchor="middle" x="432" y="-12.5" font-family="Helvetica,sans-Serif" font-size="10.00">Clock/misc_lib_export.hpp</text>
</a>
</g>
</g>
<!-- Node2&#45;&gt;Node3 -->
<g id="edge2_Node000002_Node000003" class="edge">
<title>Node2&#45;&gt;Node3</title>
<g id="a_edge2_Node000002_Node000003"><a xlink:title=" ">
<path fill="none" stroke="#63b8ff" d="M898.03,-197.86C892.64,-180.67 881.59,-151.54 864,-132 826.37,-90.19 808.88,-85.19 756,-66 653.78,-28.91 621.38,-47.15 514,-30 506.56,-28.81 498.75,-27.53 491.03,-26.23"/>
<polygon fill="#63b8ff" stroke="#63b8ff" points="491.41,-22.75 480.97,-24.54 490.25,-29.65 491.41,-22.75"/>
</a>
</g>
</g>
<!-- Node4 -->
<g id="Node000004" class="node">
<title>Node4</title>
<g id="a_Node000004"><a xlink:title=" ">
<polygon fill="#e0e0e0" stroke="#999999" points="1003,-156.5 949,-156.5 949,-137.5 1003,-137.5 1003,-156.5"/>
<text text-anchor="middle" x="976" y="-144.5" font-family="Helvetica,sans-Serif" font-size="10.00">random</text>
</a>
</g>
</g>
<!-- Node2&#45;&gt;Node4 -->
<g id="edge3_Node000002_Node000004" class="edge">
<title>Node2&#45;&gt;Node4</title>
<g id="a_edge3_Node000002_Node000004"><a xlink:title=" ">
<path fill="none" stroke="#63b8ff" d="M918.42,-197.8C930.19,-187.62 946.02,-173.93 958.1,-163.48"/>
<polygon fill="#63b8ff" stroke="#63b8ff" points="960.5,-166.03 965.77,-156.84 955.92,-160.74 960.5,-166.03"/>
</a>
</g>
</g>
<!-- Node5 -->
<g id="Node000005" class="node">
<title>Node5</title>
<g id="a_Node000005"><a xlink:title=" ">
<polygon fill="#e0e0e0" stroke="#999999" points="1079,-24.5 1035,-24.5 1035,-5.5 1079,-5.5 1079,-24.5"/>
<text text-anchor="middle" x="1057" y="-12.5" font-family="Helvetica,sans-Serif" font-size="10.00">string</text>
</a>
</g>
</g>
<!-- Node2&#45;&gt;Node5 -->
<g id="edge4_Node000002_Node000005" class="edge">
<title>Node2&#45;&gt;Node5</title>
<g id="a_edge4_Node000002_Node000005"><a xlink:title=" ">
<path fill="none" stroke="#63b8ff" d="M905.53,-197.83C910.54,-180.35 921.24,-150.64 940,-132 966.79,-105.37 989.94,-122.36 1017,-96 1034.69,-78.77 1045.83,-52.08 1051.74,-34.33"/>
<polygon fill="#63b8ff" stroke="#63b8ff" points="1055.14,-35.19 1054.75,-24.6 1048.45,-33.12 1055.14,-35.19"/>
</a>
</g>
</g>
<!-- Node2&#45;&gt;Node6 -->
<g id="edge5_Node000002_Node000006" class="edge">
<title>Node2&#45;&gt;Node6</title>
<g id="a_edge5_Node000002_Node000006"><a xlink:title=" ">
<path fill="none" stroke="#63b8ff" d="M941.5,-197.95C973.49,-186.58 1018.05,-170.74 1048.35,-159.96"/>
<polygon fill="#63b8ff" stroke="#63b8ff" points="1049.8,-163.17 1058.05,-156.52 1047.45,-156.57 1049.8,-163.17"/>
</a>
</g>
</g>
<!-- Node7 -->
<g id="Node000007" class="node">
<title>Node7</title>
<g id="a_Node000007"><a xlink:title=" ">
<polygon fill="#e0e0e0" stroke="#999999" points="680.5,-156.5 601.5,-156.5 601.5,-137.5 680.5,-137.5 680.5,-156.5"/>
<text text-anchor="middle" x="641" y="-144.5" font-family="Helvetica,sans-Serif" font-size="10.00">fmt/format.h</text>
</a>
</g>
</g>
<!-- Node2&#45;&gt;Node7 -->
<g id="edge6_Node000002_Node000007" class="edge">
<title>Node2&#45;&gt;Node7</title>
<g id="a_edge6_Node000002_Node000007"><a xlink:title=" ">
<path fill="none" stroke="#63b8ff" d="M848.68,-200.15C805.71,-190.43 743.79,-176.02 690,-162 686.65,-161.13 683.17,-160.19 679.69,-159.23"/>
<polygon fill="#63b8ff" stroke="#63b8ff" points="680.53,-155.84 669.96,-156.52 678.65,-162.58 680.53,-155.84"/>
</a>
</g>
</g>
<!-- Node8 -->
<g id="Node000008" class="node">
<title>Node8</title>
<g id="a_Node000008"><a xlink:href="date__time_8hpp.html" target="_top" xlink:title="DateTime data structure and utilities.">
<polygon fill="white" stroke="#666666" points="583,-162 471,-162 471,-132 583,-132 583,-162"/>
<text text-anchor="start" x="479" y="-150" font-family="Helvetica,sans-Serif" font-size="10.00">Clock/misc_lib/date</text>
<text text-anchor="middle" x="527" y="-139" font-family="Helvetica,sans-Serif" font-size="10.00">_time.hpp</text>
</a>
</g>
</g>
<!-- Node2&#45;&gt;Node8 -->
<g id="edge7_Node000002_Node000008" class="edge">
<title>Node2&#45;&gt;Node8</title>
<g id="a_edge7_Node000002_Node000008"><a xlink:title=" ">
<path fill="none" stroke="#63b8ff" d="M848.92,-204.3C789.12,-195.44 688.81,-179.98 593.17,-162.17"/>
<polygon fill="#63b8ff" stroke="#63b8ff" points="593.81,-158.72 583.33,-160.32 592.52,-165.6 593.81,-158.72"/>
</a>
</g>
</g>
<!-- Node21 -->
<g id="Node000021" class="node">
<title>Node21</title>
<g id="a_Node000021"><a xlink:title=" ">
<polygon fill="#e0e0e0" stroke="#999999" points="855,-156.5 699,-156.5 699,-137.5 855,-137.5 855,-156.5"/>
<text text-anchor="middle" x="777" y="-144.5" font-family="Helvetica,sans-Serif" font-size="10.00">internal_use_only/config.hpp</text>
</a>
</g>
</g>
<!-- Node2&#45;&gt;Node21 -->
<g id="edge27_Node000002_Node000021" class="edge">
<title>Node2&#45;&gt;Node21</title>
<g id="a_edge27_Node000002_Node000021"><a xlink:title=" ">
<path fill="none" stroke="#63b8ff" d="M874.57,-197.95C853.13,-186.98 823.55,-171.83 802.6,-161.11"/>
<polygon fill="#63b8ff" stroke="#63b8ff" points="804.13,-157.96 793.64,-156.52 800.94,-164.19 804.13,-157.96"/>
</a>
</g>
</g>
<!-- Node8&#45;&gt;Node3 -->
<g id="edge8_Node000008_Node000003" class="edge">
<title>Node8&#45;&gt;Node3</title>
<g id="a_edge8_Node000008_Node000003"><a xlink:title=" ">
<path fill="none" stroke="#63b8ff" d="M470.64,-145.15C433.3,-141.28 386.79,-129.41 362,-96 343.8,-71.47 378.38,-45.22 405.11,-29.73"/>
<polygon fill="#63b8ff" stroke="#63b8ff" points="407.1,-32.63 414.14,-24.72 403.7,-26.51 407.1,-32.63"/>
</a>
</g>
</g>
<!-- Node8&#45;&gt;Node5 -->
<g id="edge10_Node000008_Node000005" class="edge">
<title>Node8&#45;&gt;Node5</title>
<g id="a_edge10_Node000008_Node000005"><a xlink:title=" ">
<path fill="none" stroke="#63b8ff" d="M583.29,-133.44C586.23,-132.92 589.15,-132.44 592,-132 678.69,-118.74 906.6,-135.3 985,-96 1012.87,-82.03 1034.99,-52.3 1047.02,-33.28"/>
<polygon fill="#63b8ff" stroke="#63b8ff" points="1050.04,-35.05 1052.23,-24.68 1044.05,-31.42 1050.04,-35.05"/>
</a>
</g>
</g>
<!-- Node9 -->
<g id="Node000009" class="node">
<title>Node9</title>
<g id="a_Node000009"><a xlink:title=" ">
<polygon fill="#e0e0e0" stroke="#999999" points="431,-90.5 371,-90.5 371,-71.5 431,-71.5 431,-90.5"/>
<text text-anchor="middle" x="401" y="-78.5" font-family="Helvetica,sans-Serif" font-size="10.00">iostream</text>
</a>
</g>
</g>
<!-- Node8&#45;&gt;Node9 -->
<g id="edge9_Node000008_Node000009" class="edge">
<title>Node8&#45;&gt;Node9</title>
<g id="a_edge9_Node000008_Node000009"><a xlink:title=" ">
<path fill="none" stroke="#63b8ff" d="M499.35,-131.95C477.74,-120.98 447.92,-105.83 426.8,-95.11"/>
<polygon fill="#63b8ff" stroke="#63b8ff" points="428.27,-91.93 417.77,-90.52 425.1,-98.17 428.27,-91.93"/>
</a>
</g>
</g>
<!-- Node10 -->
<g id="Node000010" class="node">
<title>Node10</title>
<g id="a_Node000010"><a xlink:title=" ">
<polygon fill="#e0e0e0" stroke="#999999" points="341.5,-24.5 268.5,-24.5 268.5,-5.5 341.5,-5.5 341.5,-24.5"/>
<text text-anchor="middle" x="305" y="-12.5" font-family="Helvetica,sans-Serif" font-size="10.00">string_view</text>
</a>
</g>
</g>
<!-- Node8&#45;&gt;Node10 -->
<g id="edge11_Node000008_Node000010" class="edge">
<title>Node8&#45;&gt;Node10</title>
<g id="a_edge11_Node000008_Node000010"><a xlink:title=" ">
<path fill="none" stroke="#63b8ff" d="M470.89,-140.57C434.23,-134.62 387.02,-122.14 353,-96 332.39,-80.16 318.75,-52.74 311.45,-34.48"/>
<polygon fill="#63b8ff" stroke="#63b8ff" points="314.66,-33.08 307.88,-24.95 308.11,-35.54 314.66,-33.08"/>
</a>
</g>
</g>
<!-- Node11 -->
<g id="Node000011" class="node">
<title>Node11</title>
<g id="a_Node000011"><a xlink:title=" ">
<polygon fill="#e0e0e0" stroke="#999999" points="691,-30 523,-30 523,0 691,0 691,-30"/>
<text text-anchor="start" x="531" y="-18" font-family="Helvetica,sans-Serif" font-size="10.00">boost/date_time/posix</text>
<text text-anchor="middle" x="607" y="-7" font-family="Helvetica,sans-Serif" font-size="10.00">_time/posix_time_duration.hpp</text>
</a>
</g>
</g>
<!-- Node8&#45;&gt;Node11 -->
<g id="edge12_Node000008_Node000011" class="edge">
<title>Node8&#45;&gt;Node11</title>
<g id="a_edge12_Node000008_Node000011"><a xlink:title=" ">
<path fill="none" stroke="#63b8ff" d="M583.2,-133.84C650.89,-119.18 755.65,-96.43 756,-96 780.5,-65.58 739.29,-45.17 694.06,-32.58"/>
<polygon fill="#63b8ff" stroke="#63b8ff" points="694.93,-29.19 684.37,-30.02 693.14,-35.96 694.93,-29.19"/>
</a>
</g>
</g>
<!-- Node12 -->
<g id="Node000012" class="node">
<title>Node12</title>
<g id="a_Node000012"><a xlink:title=" ">
<polygon fill="#e0e0e0" stroke="#999999" points="604.5,-96 449.5,-96 449.5,-66 604.5,-66 604.5,-96"/>
<text text-anchor="start" x="457.5" y="-84" font-family="Helvetica,sans-Serif" font-size="10.00">boost/date_time/posix</text>
<text text-anchor="middle" x="527" y="-73" font-family="Helvetica,sans-Serif" font-size="10.00">_time/posix_time_types.hpp</text>
</a>
</g>
</g>
<!-- Node8&#45;&gt;Node12 -->
<g id="edge13_Node000008_Node000012" class="edge">
<title>Node8&#45;&gt;Node12</title>
<g id="a_edge13_Node000008_Node000012"><a xlink:title=" ">
<path fill="none" stroke="#63b8ff" d="M527,-131.8C527,-124.34 527,-114.99 527,-106.41"/>
<polygon fill="#63b8ff" stroke="#63b8ff" points="530.5,-106.16 527,-96.16 523.5,-106.16 530.5,-106.16"/>
</a>
</g>
</g>
<!-- Node13 -->
<g id="Node000013" class="node">
<title>Node13</title>
<g id="a_Node000013"><a xlink:title=" ">
<polygon fill="#e0e0e0" stroke="#999999" points="747.5,-96 622.5,-96 622.5,-66 747.5,-66 747.5,-96"/>
<text text-anchor="start" x="630.5" y="-84" font-family="Helvetica,sans-Serif" font-size="10.00">boost/date_time/posix</text>
<text text-anchor="middle" x="685" y="-73" font-family="Helvetica,sans-Serif" font-size="10.00">_time/ptime.hpp</text>
</a>
</g>
</g>
<!-- Node8&#45;&gt;Node13 -->
<g id="edge14_Node000008_Node000013" class="edge">
<title>Node8&#45;&gt;Node13</title>
<g id="a_edge14_Node000008_Node000013"><a xlink:title=" ">
<path fill="none" stroke="#63b8ff" d="M561.67,-131.95C585.03,-122.49 616.04,-109.93 641.11,-99.78"/>
<polygon fill="#63b8ff" stroke="#63b8ff" points="642.45,-103.01 650.41,-96.01 639.82,-96.52 642.45,-103.01"/>
</a>
</g>
</g>
<!-- Node14 -->
<g id="Node000014" class="node">
<title>Node14</title>
<g id="a_Node000014"><a xlink:href="quad_8hpp.html" target="_top" xlink:title="Quad precision floating&#45;point type and utilities.">
<polygon fill="white" stroke="#666666" points="276.5,-90.5 141.5,-90.5 141.5,-71.5 276.5,-71.5 276.5,-90.5"/>
<text text-anchor="middle" x="209" y="-78.5" font-family="Helvetica,sans-Serif" font-size="10.00">Clock/misc_lib/quad.hpp</text>
</a>
</g>
</g>
<!-- Node8&#45;&gt;Node14 -->
<g id="edge15_Node000008_Node000014" class="edge">
<title>Node8&#45;&gt;Node14</title>
<g id="a_edge15_Node000008_Node000014"><a xlink:title=" ">
<path fill="none" stroke="#63b8ff" d="M470.88,-134.71C411.67,-122.79 319.11,-104.16 261.36,-92.54"/>
<polygon fill="#63b8ff" stroke="#63b8ff" points="261.85,-89.07 251.35,-90.52 260.46,-95.93 261.85,-89.07"/>
</a>
</g>
</g>
<!-- Node17 -->
<g id="Node000017" class="node">
<title>Node17</title>
<g id="a_Node000017"><a xlink:href="time_8hpp.html" target="_top" xlink:title="Time data structure and utilities.">
<polygon fill="white" stroke="#666666" points="976,-90.5 842,-90.5 842,-71.5 976,-71.5 976,-90.5"/>
<text text-anchor="middle" x="909" y="-78.5" font-family="Helvetica,sans-Serif" font-size="10.00">Clock/misc_lib/time.hpp</text>
</a>
</g>
</g>
<!-- Node8&#45;&gt;Node17 -->
<g id="edge20_Node000008_Node000017" class="edge">
<title>Node8&#45;&gt;Node17</title>
<g id="a_edge20_Node000008_Node000017"><a xlink:title=" ">
<path fill="none" stroke="#63b8ff" d="M583.33,-133.65C586.26,-133.07 589.16,-132.52 592,-132 696.35,-112.82 723.27,-113.04 828,-96 835.35,-94.81 843.06,-93.52 850.69,-92.22"/>
<polygon fill="#63b8ff" stroke="#63b8ff" points="851.36,-95.66 860.63,-90.52 850.18,-88.76 851.36,-95.66"/>
</a>
</g>
</g>
<!-- Node14&#45;&gt;Node3 -->
<g id="edge16_Node000014_Node000003" class="edge">
<title>Node14&#45;&gt;Node3</title>
<g id="a_edge16_Node000014_Node000003"><a xlink:title=" ">
<path fill="none" stroke="#63b8ff" d="M239.07,-71.37C278.67,-60 348.39,-40 392.29,-27.4"/>
<polygon fill="#63b8ff" stroke="#63b8ff" points="393.4,-30.72 402.05,-24.6 391.47,-23.99 393.4,-30.72"/>
</a>
</g>
</g>
<!-- Node14&#45;&gt;Node10 -->
<g id="edge17_Node000014_Node000010" class="edge">
<title>Node14&#45;&gt;Node10</title>
<g id="a_edge17_Node000014_Node000010"><a xlink:title=" ">
<path fill="none" stroke="#63b8ff" d="M221.95,-71.37C237.69,-60.87 264.5,-43 283.4,-30.4"/>
<polygon fill="#63b8ff" stroke="#63b8ff" points="285.57,-33.16 291.95,-24.7 281.69,-27.33 285.57,-33.16"/>
</a>
</g>
</g>
<!-- Node15 -->
<g id="Node000015" class="node">
<title>Node15</title>
<g id="a_Node000015"><a xlink:title=" ">
<polygon fill="#e0e0e0" stroke="#999999" points="116,-30 0,-30 0,0 116,0 116,-30"/>
<text text-anchor="start" x="8" y="-18" font-family="Helvetica,sans-Serif" font-size="10.00">boost/multiprecision</text>
<text text-anchor="middle" x="58" y="-7" font-family="Helvetica,sans-Serif" font-size="10.00">/cpp_bin_float.hpp</text>
</a>
</g>
</g>
<!-- Node14&#45;&gt;Node15 -->
<g id="edge18_Node000014_Node000015" class="edge">
<title>Node14&#45;&gt;Node15</title>
<g id="a_edge18_Node000014_Node000015"><a xlink:title=" ">
<path fill="none" stroke="#63b8ff" d="M188.64,-71.37C166.21,-61.87 129.53,-46.32 100.73,-34.11"/>
<polygon fill="#63b8ff" stroke="#63b8ff" points="101.88,-30.8 91.3,-30.12 99.15,-37.24 101.88,-30.8"/>
</a>
</g>
</g>
<!-- Node16 -->
<g id="Node000016" class="node">
<title>Node16</title>
<g id="a_Node000016"><a xlink:title=" ">
<polygon fill="#e0e0e0" stroke="#999999" points="250,-30 134,-30 134,0 250,0 250,-30"/>
<text text-anchor="start" x="142" y="-18" font-family="Helvetica,sans-Serif" font-size="10.00">boost/multiprecision</text>
<text text-anchor="middle" x="192" y="-7" font-family="Helvetica,sans-Serif" font-size="10.00">/fwd.hpp</text>
</a>
</g>
</g>
<!-- Node14&#45;&gt;Node16 -->
<g id="edge19_Node000014_Node000016" class="edge">
<title>Node14&#45;&gt;Node16</title>
<g id="a_edge19_Node000014_Node000016"><a xlink:title=" ">
<path fill="none" stroke="#63b8ff" d="M206.71,-71.37C204.59,-63.4 201.35,-51.2 198.45,-40.27"/>
<polygon fill="#63b8ff" stroke="#63b8ff" points="201.76,-39.13 195.81,-30.36 195,-40.92 201.76,-39.13"/>
</a>
</g>
</g>
<!-- Node17&#45;&gt;Node3 -->
<g id="edge21_Node000017_Node000003" class="edge">
<title>Node17&#45;&gt;Node3</title>
<g id="a_edge21_Node000017_Node000003"><a xlink:title=" ">
<path fill="none" stroke="#63b8ff" d="M841.9,-71.86C746.29,-60.21 575.62,-39.16 514,-30 506.27,-28.85 498.14,-27.56 490.12,-26.24"/>
<polygon fill="#63b8ff" stroke="#63b8ff" points="490.51,-22.76 480.07,-24.57 489.36,-29.66 490.51,-22.76"/>
</a>
</g>
</g>
<!-- Node17&#45;&gt;Node5 -->
<g id="edge22_Node000017_Node000005" class="edge">
<title>Node17&#45;&gt;Node5</title>
<g id="a_edge22_Node000017_Node000005"><a xlink:title=" ">
<path fill="none" stroke="#63b8ff" d="M929.35,-71.45C952.73,-61.6 992.23,-44.84 1026,-30 1027,-29.56 1028.02,-29.11 1029.04,-28.66"/>
<polygon fill="#63b8ff" stroke="#63b8ff" points="1030.64,-31.78 1038.34,-24.5 1027.78,-25.39 1030.64,-31.78"/>
</a>
</g>
</g>
<!-- Node17&#45;&gt;Node11 -->
<g id="edge24_Node000017_Node000011" class="edge">
<title>Node17&#45;&gt;Node11</title>
<g id="a_edge24_Node000017_Node000011"><a xlink:title=" ">
<path fill="none" stroke="#63b8ff" d="M868.58,-71.44C821.33,-61.42 742.1,-44.63 683.19,-32.15"/>
<polygon fill="#63b8ff" stroke="#63b8ff" points="683.69,-28.67 673.18,-30.02 682.24,-35.52 683.69,-28.67"/>
</a>
</g>
</g>
<!-- Node18 -->
<g id="Node000018" class="node">
<title>Node18</title>
<g id="a_Node000018"><a xlink:title=" ">
<polygon fill="#e0e0e0" stroke="#999999" points="1016.5,-30 859.5,-30 859.5,0 1016.5,0 1016.5,-30"/>
<text text-anchor="start" x="867.5" y="-18" font-family="Helvetica,sans-Serif" font-size="10.00">boost/date_time/posix</text>
<text text-anchor="middle" x="938" y="-7" font-family="Helvetica,sans-Serif" font-size="10.00">_time/posix_time_config.hpp</text>
</a>
</g>
</g>
<!-- Node17&#45;&gt;Node18 -->
<g id="edge23_Node000017_Node000018" class="edge">
<title>Node17&#45;&gt;Node18</title>
<g id="a_edge23_Node000017_Node000018"><a xlink:title=" ">
<path fill="none" stroke="#63b8ff" d="M912.91,-71.37C916.59,-63.24 922.28,-50.69 927.31,-39.59"/>
<polygon fill="#63b8ff" stroke="#63b8ff" points="930.55,-40.91 931.49,-30.36 924.18,-38.02 930.55,-40.91"/>
</a>
</g>
</g>
<!-- Node17&#45;&gt;Node19 -->
<g id="edge25_Node000017_Node000019" class="edge">
<title>Node17&#45;&gt;Node19</title>
<g id="a_edge25_Node000017_Node000019"><a xlink:title=" ">
<path fill="none" stroke="#63b8ff" d="M944.06,-71.44C984.72,-61.5 1052.66,-44.91 1103.63,-32.46"/>
<polygon fill="#63b8ff" stroke="#63b8ff" points="1104.7,-35.8 1113.59,-30.02 1103.04,-29 1104.7,-35.8"/>
</a>
</g>
</g>
<!-- Node20 -->
<g id="Node000020" class="node">
<title>Node20</title>
<g id="a_Node000020"><a xlink:title=" ">
<polygon fill="#e0e0e0" stroke="#999999" points="841,-30 709,-30 709,0 841,0 841,-30"/>
<text text-anchor="start" x="717" y="-18" font-family="Helvetica,sans-Serif" font-size="10.00">boost/date_time/posix</text>
<text text-anchor="middle" x="775" y="-7" font-family="Helvetica,sans-Serif" font-size="10.00">_time/time_parsers.hpp</text>
</a>
</g>
</g>
<!-- Node17&#45;&gt;Node20 -->
<g id="edge26_Node000017_Node000020" class="edge">
<title>Node17&#45;&gt;Node20</title>
<g id="a_edge26_Node000017_Node000020"><a xlink:title=" ">
<path fill="none" stroke="#63b8ff" d="M890.93,-71.37C871.2,-61.95 839.04,-46.59 813.59,-34.43"/>
<polygon fill="#63b8ff" stroke="#63b8ff" points="815.09,-31.27 804.55,-30.12 812.07,-37.58 815.09,-31.27"/>
</a>
</g>
</g>
</g>
</svg>
