<?xml version="1.0" encoding="UTF-8" standalone="no"?>
<!DOCTYPE svg PUBLIC "-//W3C//DTD SVG 1.1//EN"
 "http://www.w3.org/Graphics/SVG/1.1/DTD/svg11.dtd">
<!-- Generated by graphviz version 2.43.0 (0)
 -->
<!-- Title: include/Clock/si3_sim/si3_sim.hpp Pages: 1 -->
<svg width="1493pt" height="357pt"
 viewBox="0.00 0.00 1492.50 357.00" xmlns="http://www.w3.org/2000/svg" xmlns:xlink="http://www.w3.org/1999/xlink">
<g id="graph0" class="graph" transform="scale(1 1) rotate(0) translate(4 353)">
<title>include/Clock/si3_sim/si3_sim.hpp</title>
<!-- Node1 -->
<g id="Node000001" class="node">
<title>Node1</title>
<g id="a_Node000001"><a xlink:title="Header file for the Si3Sim class.">
<polygon fill="#999999" stroke="#666666" points="1165,-349 1043,-349 1043,-319 1165,-319 1165,-349"/>
<text text-anchor="start" x="1051" y="-337" font-family="Helvetica,sans-Serif" font-size="10.00">include/Clock/si3_sim</text>
<text text-anchor="middle" x="1104" y="-326" font-family="Helvetica,sans-Serif" font-size="10.00">/si3_sim.hpp</text>
</a>
</g>
</g>
<!-- Node2 -->
<g id="Node000002" class="node">
<title>Node2</title>
<g id="a_Node000002"><a xlink:href="date__time_8hpp_source.html" target="_top" xlink:title=" ">
<polygon fill="white" stroke="#666666" points="812,-162 700,-162 700,-132 812,-132 812,-162"/>
<text text-anchor="start" x="708" y="-150" font-family="Helvetica,sans-Serif" font-size="10.00">Clock/misc_lib/date</text>
<text text-anchor="middle" x="756" y="-139" font-family="Helvetica,sans-Serif" font-size="10.00">_time.hpp</text>
</a>
</g>
</g>
<!-- Node1&#45;&gt;Node2 -->
<g id="edge1_Node000001_Node000002" class="edge">
<title>Node1&#45;&gt;Node2</title>
<g id="a_edge1_Node000001_Node000002"><a xlink:title=" ">
<path fill="none" stroke="#63b8ff" d="M1064.45,-318.85C1015.77,-300.73 931.3,-266.98 864,-228 833.7,-210.45 801.81,-185.98 780.6,-168.74"/>
<polygon fill="#63b8ff" stroke="#63b8ff" points="782.7,-165.93 772.75,-162.29 778.26,-171.34 782.7,-165.93"/>
</a>
</g>
</g>
<!-- Node16 -->
<g id="Node000016" class="node">
<title>Node16</title>
<g id="a_Node000016"><a xlink:href="config_8hpp.html" target="_top" xlink:title="Configuration structure for the Si3 simulation.">
<polygon fill="white" stroke="#666666" points="1172.5,-283 1035.5,-283 1035.5,-264 1172.5,-264 1172.5,-283"/>
<text text-anchor="middle" x="1104" y="-271" font-family="Helvetica,sans-Serif" font-size="10.00">Clock/si3_sim/config.hpp</text>
</a>
</g>
</g>
<!-- Node1&#45;&gt;Node16 -->
<g id="edge20_Node000001_Node000016" class="edge">
<title>Node1&#45;&gt;Node16</title>
<g id="a_edge20_Node000001_Node000016"><a xlink:title=" ">
<path fill="none" stroke="#63b8ff" d="M1104,-318.84C1104,-311.21 1104,-301.7 1104,-293.45"/>
<polygon fill="#63b8ff" stroke="#63b8ff" points="1107.5,-293.27 1104,-283.27 1100.5,-293.27 1107.5,-293.27"/>
</a>
</g>
</g>
<!-- Node18 -->
<g id="Node000018" class="node">
<title>Node18</title>
<g id="a_Node000018"><a xlink:title=" ">
<polygon fill="#e0e0e0" stroke="#999999" points="1484.5,-222.5 1427.5,-222.5 1427.5,-203.5 1484.5,-203.5 1484.5,-222.5"/>
<text text-anchor="middle" x="1456" y="-210.5" font-family="Helvetica,sans-Serif" font-size="10.00">ostream</text>
</a>
</g>
</g>
<!-- Node1&#45;&gt;Node18 -->
<g id="edge35_Node000001_Node000018" class="edge">
<title>Node1&#45;&gt;Node18</title>
<g id="a_edge35_Node000001_Node000018"><a xlink:title=" ">
<path fill="none" stroke="#63b8ff" d="M1145.41,-319C1215.28,-295.38 1355.33,-248.03 1420.78,-225.91"/>
<polygon fill="#63b8ff" stroke="#63b8ff" points="1422.27,-229.1 1430.62,-222.58 1420.03,-222.47 1422.27,-229.1"/>
</a>
</g>
</g>
<!-- Node3 -->
<g id="Node000003" class="node">
<title>Node3</title>
<g id="a_Node000003"><a xlink:title=" ">
<polygon fill="#e0e0e0" stroke="#999999" points="1194.5,-24.5 1049.5,-24.5 1049.5,-5.5 1194.5,-5.5 1194.5,-24.5"/>
<text text-anchor="middle" x="1122" y="-12.5" font-family="Helvetica,sans-Serif" font-size="10.00">Clock/misc_lib_export.hpp</text>
</a>
</g>
</g>
<!-- Node2&#45;&gt;Node3 -->
<g id="edge2_Node000002_Node000003" class="edge">
<title>Node2&#45;&gt;Node3</title>
<g id="a_edge2_Node000002_Node000003"><a xlink:title=" ">
<path fill="none" stroke="#63b8ff" d="M812.02,-138.79C859.28,-131.53 928.13,-118.17 985,-96 1029.3,-78.73 1076.16,-48.37 1101.98,-30.43"/>
<polygon fill="#63b8ff" stroke="#63b8ff" points="1104.03,-33.26 1110.19,-24.64 1100,-27.54 1104.03,-33.26"/>
</a>
</g>
</g>
<!-- Node4 -->
<g id="Node000004" class="node">
<title>Node4</title>
<g id="a_Node000004"><a xlink:title=" ">
<polygon fill="#e0e0e0" stroke="#999999" points="976,-90.5 916,-90.5 916,-71.5 976,-71.5 976,-90.5"/>
<text text-anchor="middle" x="946" y="-78.5" font-family="Helvetica,sans-Serif" font-size="10.00">iostream</text>
</a>
</g>
</g>
<!-- Node2&#45;&gt;Node4 -->
<g id="edge3_Node000002_Node000004" class="edge">
<title>Node2&#45;&gt;Node4</title>
<g id="a_edge3_Node000002_Node000004"><a xlink:title=" ">
<path fill="none" stroke="#63b8ff" d="M798.73,-131.94C828.77,-122.02 869.89,-108.34 906,-96 907.88,-95.36 909.81,-94.7 911.75,-94.02"/>
<polygon fill="#63b8ff" stroke="#63b8ff" points="913.18,-97.23 921.48,-90.65 910.89,-90.62 913.18,-97.23"/>
</a>
</g>
</g>
<!-- Node5 -->
<g id="Node000005" class="node">
<title>Node5</title>
<g id="a_Node000005"><a xlink:title=" ">
<polygon fill="#e0e0e0" stroke="#999999" points="722,-24.5 678,-24.5 678,-5.5 722,-5.5 722,-24.5"/>
<text text-anchor="middle" x="700" y="-12.5" font-family="Helvetica,sans-Serif" font-size="10.00">string</text>
</a>
</g>
</g>
<!-- Node2&#45;&gt;Node5 -->
<g id="edge4_Node000002_Node000005" class="edge">
<title>Node2&#45;&gt;Node5</title>
<g id="a_edge4_Node000002_Node000005"><a xlink:title=" ">
<path fill="none" stroke="#63b8ff" d="M699.72,-145.3C662.09,-141.52 615.04,-129.7 590,-96 582.05,-85.3 582.78,-77.21 590,-66 590.15,-65.77 638.82,-43.7 671.36,-28.96"/>
<polygon fill="#63b8ff" stroke="#63b8ff" points="673.21,-31.97 680.87,-24.65 670.32,-25.59 673.21,-31.97"/>
</a>
</g>
</g>
<!-- Node6 -->
<g id="Node000006" class="node">
<title>Node6</title>
<g id="a_Node000006"><a xlink:title=" ">
<polygon fill="#e0e0e0" stroke="#999999" points="1339.5,-24.5 1266.5,-24.5 1266.5,-5.5 1339.5,-5.5 1339.5,-24.5"/>
<text text-anchor="middle" x="1303" y="-12.5" font-family="Helvetica,sans-Serif" font-size="10.00">string_view</text>
</a>
</g>
</g>
<!-- Node2&#45;&gt;Node6 -->
<g id="edge5_Node000002_Node000006" class="edge">
<title>Node2&#45;&gt;Node6</title>
<g id="a_edge5_Node000002_Node000006"><a xlink:title=" ">
<path fill="none" stroke="#63b8ff" d="M812.03,-137.47C867.47,-128.62 954.57,-113.63 1029,-96 1115.57,-75.49 1215.48,-44.4 1267.44,-27.66"/>
<polygon fill="#63b8ff" stroke="#63b8ff" points="1268.73,-30.92 1277.17,-24.51 1266.58,-24.26 1268.73,-30.92"/>
</a>
</g>
</g>
<!-- Node7 -->
<g id="Node000007" class="node">
<title>Node7</title>
<g id="a_Node000007"><a xlink:title=" ">
<polygon fill="#e0e0e0" stroke="#999999" points="660,-30 492,-30 492,0 660,0 660,-30"/>
<text text-anchor="start" x="500" y="-18" font-family="Helvetica,sans-Serif" font-size="10.00">boost/date_time/posix</text>
<text text-anchor="middle" x="576" y="-7" font-family="Helvetica,sans-Serif" font-size="10.00">_time/posix_time_duration.hpp</text>
</a>
</g>
</g>
<!-- Node2&#45;&gt;Node7 -->
<g id="edge6_Node000002_Node000007" class="edge">
<title>Node2&#45;&gt;Node7</title>
<g id="a_edge6_Node000002_Node000007"><a xlink:title=" ">
<path fill="none" stroke="#63b8ff" d="M699.83,-137.13C654.54,-128.74 596,-114.65 581,-96 568.58,-80.56 568.43,-57.53 570.74,-40.14"/>
<polygon fill="#63b8ff" stroke="#63b8ff" points="574.22,-40.6 572.42,-30.16 567.31,-39.45 574.22,-40.6"/>
</a>
</g>
</g>
<!-- Node8 -->
<g id="Node000008" class="node">
<title>Node8</title>
<g id="a_Node000008"><a xlink:title=" ">
<polygon fill="#e0e0e0" stroke="#999999" points="754.5,-96 599.5,-96 599.5,-66 754.5,-66 754.5,-96"/>
<text text-anchor="start" x="607.5" y="-84" font-family="Helvetica,sans-Serif" font-size="10.00">boost/date_time/posix</text>
<text text-anchor="middle" x="677" y="-73" font-family="Helvetica,sans-Serif" font-size="10.00">_time/posix_time_types.hpp</text>
</a>
</g>
</g>
<!-- Node2&#45;&gt;Node8 -->
<g id="edge7_Node000002_Node000008" class="edge">
<title>Node2&#45;&gt;Node8</title>
<g id="a_edge7_Node000002_Node000008"><a xlink:title=" ">
<path fill="none" stroke="#63b8ff" d="M738.47,-131.8C727.83,-123.18 714.08,-112.04 702.28,-102.48"/>
<polygon fill="#63b8ff" stroke="#63b8ff" points="704.46,-99.74 694.48,-96.16 700.05,-105.18 704.46,-99.74"/>
</a>
</g>
</g>
<!-- Node9 -->
<g id="Node000009" class="node">
<title>Node9</title>
<g id="a_Node000009"><a xlink:title=" ">
<polygon fill="#e0e0e0" stroke="#999999" points="897.5,-96 772.5,-96 772.5,-66 897.5,-66 897.5,-96"/>
<text text-anchor="start" x="780.5" y="-84" font-family="Helvetica,sans-Serif" font-size="10.00">boost/date_time/posix</text>
<text text-anchor="middle" x="835" y="-73" font-family="Helvetica,sans-Serif" font-size="10.00">_time/ptime.hpp</text>
</a>
</g>
</g>
<!-- Node2&#45;&gt;Node9 -->
<g id="edge8_Node000002_Node000009" class="edge">
<title>Node2&#45;&gt;Node9</title>
<g id="a_edge8_Node000002_Node000009"><a xlink:title=" ">
<path fill="none" stroke="#63b8ff" d="M773.53,-131.8C784.17,-123.18 797.92,-112.04 809.72,-102.48"/>
<polygon fill="#63b8ff" stroke="#63b8ff" points="811.95,-105.18 817.52,-96.16 807.54,-99.74 811.95,-105.18"/>
</a>
</g>
</g>
<!-- Node10 -->
<g id="Node000010" class="node">
<title>Node10</title>
<g id="a_Node000010"><a xlink:href="quad_8hpp.html" target="_top" xlink:title="Quad precision floating&#45;point type and utilities.">
<polygon fill="white" stroke="#666666" points="1466.5,-90.5 1331.5,-90.5 1331.5,-71.5 1466.5,-71.5 1466.5,-90.5"/>
<text text-anchor="middle" x="1399" y="-78.5" font-family="Helvetica,sans-Serif" font-size="10.00">Clock/misc_lib/quad.hpp</text>
</a>
</g>
</g>
<!-- Node2&#45;&gt;Node10 -->
<g id="edge9_Node000002_Node000010" class="edge">
<title>Node2&#45;&gt;Node10</title>
<g id="a_edge9_Node000002_Node000010"><a xlink:title=" ">
<path fill="none" stroke="#63b8ff" d="M812.06,-137.79C827.27,-135.73 843.75,-133.63 859,-132 1062.02,-110.24 1114.38,-121.21 1317,-96 1325.64,-94.92 1334.76,-93.58 1343.66,-92.15"/>
<polygon fill="#63b8ff" stroke="#63b8ff" points="1344.27,-95.6 1353.57,-90.51 1343.13,-88.69 1344.27,-95.6"/>
</a>
</g>
</g>
<!-- Node12 -->
<g id="Node000012" class="node">
<title>Node12</title>
<g id="a_Node000012"><a xlink:href="time_8hpp.html" target="_top" xlink:title="DateTime data structure and utilities.">
<polygon fill="white" stroke="#666666" points="505,-90.5 371,-90.5 371,-71.5 505,-71.5 505,-90.5"/>
<text text-anchor="middle" x="438" y="-78.5" font-family="Helvetica,sans-Serif" font-size="10.00">Clock/misc_lib/time.hpp</text>
</a>
</g>
</g>
<!-- Node2&#45;&gt;Node12 -->
<g id="edge13_Node000002_Node000012" class="edge">
<title>Node2&#45;&gt;Node12</title>
<g id="a_edge13_Node000002_Node000012"><a xlink:title=" ">
<path fill="none" stroke="#63b8ff" d="M699.88,-134.71C640.67,-122.79 548.11,-104.16 490.36,-92.54"/>
<polygon fill="#63b8ff" stroke="#63b8ff" points="490.85,-89.07 480.35,-90.52 489.46,-95.93 490.85,-89.07"/>
</a>
</g>
</g>
<!-- Node10&#45;&gt;Node3 -->
<g id="edge10_Node000010_Node000003" class="edge">
<title>Node10&#45;&gt;Node3</title>
<g id="a_edge10_Node000010_Node000003"><a xlink:title=" ">
<path fill="none" stroke="#63b8ff" d="M1361.93,-71.44C1311.97,-59.89 1223.02,-39.34 1168.59,-26.77"/>
<polygon fill="#63b8ff" stroke="#63b8ff" points="1169.38,-23.36 1158.85,-24.51 1167.81,-30.18 1169.38,-23.36"/>
</a>
</g>
</g>
<!-- Node10&#45;&gt;Node6 -->
<g id="edge11_Node000010_Node000006" class="edge">
<title>Node10&#45;&gt;Node6</title>
<g id="a_edge11_Node000010_Node000006"><a xlink:title=" ">
<path fill="none" stroke="#63b8ff" d="M1386.05,-71.37C1370.31,-60.87 1343.5,-43 1324.6,-30.4"/>
<polygon fill="#63b8ff" stroke="#63b8ff" points="1326.31,-27.33 1316.05,-24.7 1322.43,-33.16 1326.31,-27.33"/>
</a>
</g>
</g>
<!-- Node11 -->
<g id="Node000011" class="node">
<title>Node11</title>
<g id="a_Node000011"><a xlink:title=" ">
<polygon fill="#e0e0e0" stroke="#999999" points="1474,-30 1358,-30 1358,0 1474,0 1474,-30"/>
<text text-anchor="start" x="1366" y="-18" font-family="Helvetica,sans-Serif" font-size="10.00">boost/multiprecision</text>
<text text-anchor="middle" x="1416" y="-7" font-family="Helvetica,sans-Serif" font-size="10.00">/cpp_bin_float.hpp</text>
</a>
</g>
</g>
<!-- Node10&#45;&gt;Node11 -->
<g id="edge12_Node000010_Node000011" class="edge">
<title>Node10&#45;&gt;Node11</title>
<g id="a_edge12_Node000010_Node000011"><a xlink:title=" ">
<path fill="none" stroke="#63b8ff" d="M1401.29,-71.37C1403.41,-63.4 1406.65,-51.2 1409.55,-40.27"/>
<polygon fill="#63b8ff" stroke="#63b8ff" points="1413,-40.92 1412.19,-30.36 1406.24,-39.13 1413,-40.92"/>
</a>
</g>
</g>
<!-- Node12&#45;&gt;Node3 -->
<g id="edge14_Node000012_Node000003" class="edge">
<title>Node12&#45;&gt;Node3</title>
<g id="a_edge14_Node000012_Node000003"><a xlink:title=" ">
<path fill="none" stroke="#63b8ff" d="M505.14,-73.72C631.08,-61.93 902.35,-36.55 1039.31,-23.74"/>
<polygon fill="#63b8ff" stroke="#63b8ff" points="1039.7,-27.22 1049.33,-22.8 1039.05,-20.25 1039.7,-27.22"/>
</a>
</g>
</g>
<!-- Node12&#45;&gt;Node5 -->
<g id="edge15_Node000012_Node000005" class="edge">
<title>Node12&#45;&gt;Node5</title>
<g id="a_edge15_Node000012_Node000005"><a xlink:title=" ">
<path fill="none" stroke="#63b8ff" d="M493.01,-71.46C540.36,-63.32 610.16,-49.41 669,-30 670.44,-29.53 671.9,-29.01 673.36,-28.46"/>
<polygon fill="#63b8ff" stroke="#63b8ff" points="674.98,-31.57 682.88,-24.51 672.3,-25.11 674.98,-31.57"/>
</a>
</g>
</g>
<!-- Node12&#45;&gt;Node7 -->
<g id="edge17_Node000012_Node000007" class="edge">
<title>Node12&#45;&gt;Node7</title>
<g id="a_edge17_Node000012_Node000007"><a xlink:title=" ">
<path fill="none" stroke="#63b8ff" d="M456.61,-71.37C476.92,-61.95 510.05,-46.59 536.26,-34.43"/>
<polygon fill="#63b8ff" stroke="#63b8ff" points="537.96,-37.5 545.56,-30.12 535.02,-31.15 537.96,-37.5"/>
</a>
</g>
</g>
<!-- Node13 -->
<g id="Node000013" class="node">
<title>Node13</title>
<g id="a_Node000013"><a xlink:title=" ">
<polygon fill="#e0e0e0" stroke="#999999" points="473.5,-30 316.5,-30 316.5,0 473.5,0 473.5,-30"/>
<text text-anchor="start" x="324.5" y="-18" font-family="Helvetica,sans-Serif" font-size="10.00">boost/date_time/posix</text>
<text text-anchor="middle" x="395" y="-7" font-family="Helvetica,sans-Serif" font-size="10.00">_time/posix_time_config.hpp</text>
</a>
</g>
</g>
<!-- Node12&#45;&gt;Node13 -->
<g id="edge16_Node000012_Node000013" class="edge">
<title>Node12&#45;&gt;Node13</title>
<g id="a_edge16_Node000012_Node000013"><a xlink:title=" ">
<path fill="none" stroke="#63b8ff" d="M432.2,-71.37C426.63,-63.08 417.97,-50.18 410.4,-38.92"/>
<polygon fill="#63b8ff" stroke="#63b8ff" points="413.13,-36.71 404.65,-30.36 407.32,-40.61 413.13,-36.71"/>
</a>
</g>
</g>
<!-- Node14 -->
<g id="Node000014" class="node">
<title>Node14</title>
<g id="a_Node000014"><a xlink:title=" ">
<polygon fill="#e0e0e0" stroke="#999999" points="148,-30 0,-30 0,0 148,0 148,-30"/>
<text text-anchor="start" x="8" y="-18" font-family="Helvetica,sans-Serif" font-size="10.00">boost/date_time/posix</text>
<text text-anchor="middle" x="74" y="-7" font-family="Helvetica,sans-Serif" font-size="10.00">_time/time_formatters.hpp</text>
</a>
</g>
</g>
<!-- Node12&#45;&gt;Node14 -->
<g id="edge18_Node000012_Node000014" class="edge">
<title>Node12&#45;&gt;Node14</title>
<g id="a_edge18_Node000012_Node000014"><a xlink:title=" ">
<path fill="none" stroke="#63b8ff" d="M389.29,-71.44C330.27,-61.06 229.84,-43.4 158.19,-30.8"/>
<polygon fill="#63b8ff" stroke="#63b8ff" points="158.74,-27.35 148.28,-29.06 157.53,-34.24 158.74,-27.35"/>
</a>
</g>
</g>
<!-- Node15 -->
<g id="Node000015" class="node">
<title>Node15</title>
<g id="a_Node000015"><a xlink:title=" ">
<polygon fill="#e0e0e0" stroke="#999999" points="298,-30 166,-30 166,0 298,0 298,-30"/>
<text text-anchor="start" x="174" y="-18" font-family="Helvetica,sans-Serif" font-size="10.00">boost/date_time/posix</text>
<text text-anchor="middle" x="232" y="-7" font-family="Helvetica,sans-Serif" font-size="10.00">_time/time_parsers.hpp</text>
</a>
</g>
</g>
<!-- Node12&#45;&gt;Node15 -->
<g id="edge19_Node000012_Node000015" class="edge">
<title>Node12&#45;&gt;Node15</title>
<g id="a_edge19_Node000012_Node000015"><a xlink:title=" ">
<path fill="none" stroke="#63b8ff" d="M410.22,-71.37C378.77,-61.6 326.74,-45.43 287,-33.09"/>
<polygon fill="#63b8ff" stroke="#63b8ff" points="288.02,-29.74 277.43,-30.12 285.95,-36.43 288.02,-29.74"/>
</a>
</g>
</g>
<!-- Node16&#45;&gt;Node2 -->
<g id="edge24_Node000016_Node000002" class="edge">
<title>Node16&#45;&gt;Node2</title>
<g id="a_edge24_Node000016_Node000002"><a xlink:title=" ">
<path fill="none" stroke="#63b8ff" d="M1066.16,-263.99C1032.4,-256 981.83,-243.04 939,-228 887.65,-209.96 830.47,-183.97 793.91,-166.55"/>
<polygon fill="#63b8ff" stroke="#63b8ff" points="795.16,-163.27 784.63,-162.1 792.13,-169.58 795.16,-163.27"/>
</a>
</g>
</g>
<!-- Node16&#45;&gt;Node10 -->
<g id="edge25_Node000016_Node000010" class="edge">
<title>Node16&#45;&gt;Node10</title>
<g id="a_edge25_Node000016_Node000010"><a xlink:title=" ">
<path fill="none" stroke="#63b8ff" d="M1144.93,-263.95C1199.59,-250.66 1296.63,-220.28 1358,-162 1375.99,-144.91 1387.45,-118.19 1393.55,-100.39"/>
<polygon fill="#63b8ff" stroke="#63b8ff" points="1396.96,-101.22 1396.67,-90.63 1390.29,-99.09 1396.96,-101.22"/>
</a>
</g>
</g>
<!-- Node16&#45;&gt;Node12 -->
<g id="edge34_Node000016_Node000012" class="edge">
<title>Node16&#45;&gt;Node12</title>
<g id="a_edge34_Node000016_Node000012"><a xlink:title=" ">
<path fill="none" stroke="#63b8ff" d="M1044.29,-263.93C995.4,-256.31 924.66,-243.93 864,-228 713.01,-188.36 538.38,-121.73 468.86,-94.33"/>
<polygon fill="#63b8ff" stroke="#63b8ff" points="469.97,-91.01 459.38,-90.58 467.39,-97.52 469.97,-91.01"/>
</a>
</g>
</g>
<!-- Node17 -->
<g id="Node000017" class="node">
<title>Node17</title>
<g id="a_Node000017"><a xlink:title=" ">
<polygon fill="#e0e0e0" stroke="#999999" points="1136,-222.5 1072,-222.5 1072,-203.5 1136,-203.5 1136,-222.5"/>
<text text-anchor="middle" x="1104" y="-210.5" font-family="Helvetica,sans-Serif" font-size="10.00">algorithm</text>
</a>
</g>
</g>
<!-- Node16&#45;&gt;Node17 -->
<g id="edge21_Node000016_Node000017" class="edge">
<title>Node16&#45;&gt;Node17</title>
<g id="a_edge21_Node000016_Node000017"><a xlink:title=" ">
<path fill="none" stroke="#63b8ff" d="M1104,-263.87C1104,-255.75 1104,-243.31 1104,-232.89"/>
<polygon fill="#63b8ff" stroke="#63b8ff" points="1107.5,-232.67 1104,-222.67 1100.5,-232.67 1107.5,-232.67"/>
</a>
</g>
</g>
<!-- Node16&#45;&gt;Node18 -->
<g id="edge22_Node000016_Node000018" class="edge">
<title>Node16&#45;&gt;Node18</title>
<g id="a_edge22_Node000016_Node000018"><a xlink:title=" ">
<path fill="none" stroke="#63b8ff" d="M1172.75,-266.02C1235.78,-259.27 1331.45,-247 1413,-228 1416.04,-227.29 1419.17,-226.47 1422.29,-225.58"/>
<polygon fill="#63b8ff" stroke="#63b8ff" points="1423.55,-228.85 1432.1,-222.59 1421.51,-222.16 1423.55,-228.85"/>
</a>
</g>
</g>
<!-- Node19 -->
<g id="Node000019" class="node">
<title>Node19</title>
<g id="a_Node000019"><a xlink:title=" ">
<polygon fill="#e0e0e0" stroke="#999999" points="1201.5,-222.5 1154.5,-222.5 1154.5,-203.5 1201.5,-203.5 1201.5,-222.5"/>
<text text-anchor="middle" x="1178" y="-210.5" font-family="Helvetica,sans-Serif" font-size="10.00">vector</text>
</a>
</g>
</g>
<!-- Node16&#45;&gt;Node19 -->
<g id="edge23_Node000016_Node000019" class="edge">
<title>Node16&#45;&gt;Node19</title>
<g id="a_edge23_Node000016_Node000019"><a xlink:title=" ">
<path fill="none" stroke="#63b8ff" d="M1114.92,-263.87C1126.51,-254.71 1145.03,-240.06 1159.02,-229.01"/>
<polygon fill="#63b8ff" stroke="#63b8ff" points="1161.36,-231.61 1167.04,-222.67 1157.02,-226.12 1161.36,-231.61"/>
</a>
</g>
</g>
<!-- Node20 -->
<g id="Node000020" class="node">
<title>Node20</title>
<g id="a_Node000020"><a xlink:href="run__record_8hpp.html" target="_top" xlink:title="Run record structure and utilities.">
<polygon fill="white" stroke="#666666" points="1054,-228 948,-228 948,-198 1054,-198 1054,-228"/>
<text text-anchor="start" x="956" y="-216" font-family="Helvetica,sans-Serif" font-size="10.00">Clock/misc_lib/run</text>
<text text-anchor="middle" x="1001" y="-205" font-family="Helvetica,sans-Serif" font-size="10.00">_record.hpp</text>
</a>
</g>
</g>
<!-- Node16&#45;&gt;Node20 -->
<g id="edge26_Node000016_Node000020" class="edge">
<title>Node16&#45;&gt;Node20</title>
<g id="a_edge26_Node000016_Node000020"><a xlink:title=" ">
<path fill="none" stroke="#63b8ff" d="M1088.8,-263.87C1074.7,-255.86 1053.2,-243.65 1035.01,-233.31"/>
<polygon fill="#63b8ff" stroke="#63b8ff" points="1036.28,-230.01 1025.85,-228.11 1032.82,-236.1 1036.28,-230.01"/>
</a>
</g>
</g>
<!-- Node20&#45;&gt;Node2 -->
<g id="edge32_Node000020_Node000002" class="edge">
<title>Node20&#45;&gt;Node2</title>
<g id="a_edge32_Node000020_Node000002"><a xlink:title=" ">
<path fill="none" stroke="#63b8ff" d="M947.84,-198.11C910.21,-188.28 859.58,-175.06 819.77,-164.66"/>
<polygon fill="#63b8ff" stroke="#63b8ff" points="820.46,-161.22 809.9,-162.08 818.69,-167.99 820.46,-161.22"/>
</a>
</g>
</g>
<!-- Node20&#45;&gt;Node3 -->
<g id="edge27_Node000020_Node000003" class="edge">
<title>Node20&#45;&gt;Node3</title>
<g id="a_edge27_Node000020_Node000003"><a xlink:title=" ">
<path fill="none" stroke="#63b8ff" d="M1054.03,-199.68C1057.06,-199.08 1060.07,-198.52 1063,-198 1124.56,-187.1 1300.72,-208.95 1342,-162 1350.8,-151.99 1348.89,-143.42 1342,-132 1305.75,-71.91 1226.86,-41.36 1174.08,-27.07"/>
<polygon fill="#63b8ff" stroke="#63b8ff" points="1174.77,-23.63 1164.21,-24.5 1173.01,-30.41 1174.77,-23.63"/>
</a>
</g>
</g>
<!-- Node20&#45;&gt;Node5 -->
<g id="edge29_Node000020_Node000005" class="edge">
<title>Node20&#45;&gt;Node5</title>
<g id="a_edge29_Node000020_Node000005"><a xlink:title=" ">
<path fill="none" stroke="#63b8ff" d="M947.98,-200.09C912.24,-190.87 869.72,-177.14 859,-162 807.4,-89.12 940.41,-155.11 985,-96 993.03,-85.36 993.57,-76.21 985,-66 953.03,-27.93 800.15,-18.84 732.42,-16.67"/>
<polygon fill="#63b8ff" stroke="#63b8ff" points="732.41,-13.17 722.32,-16.38 732.21,-20.17 732.41,-13.17"/>
</a>
</g>
</g>
<!-- Node21 -->
<g id="Node000021" class="node">
<title>Node21</title>
<g id="a_Node000021"><a xlink:title=" ">
<polygon fill="#e0e0e0" stroke="#999999" points="922,-156.5 868,-156.5 868,-137.5 922,-137.5 922,-156.5"/>
<text text-anchor="middle" x="895" y="-144.5" font-family="Helvetica,sans-Serif" font-size="10.00">random</text>
</a>
</g>
</g>
<!-- Node20&#45;&gt;Node21 -->
<g id="edge28_Node000020_Node000021" class="edge">
<title>Node20&#45;&gt;Node21</title>
<g id="a_edge28_Node000020_Node000021"><a xlink:title=" ">
<path fill="none" stroke="#63b8ff" d="M977.74,-197.95C959.89,-187.18 935.38,-172.38 917.67,-161.69"/>
<polygon fill="#63b8ff" stroke="#63b8ff" points="919.48,-158.69 909.11,-156.52 915.86,-164.68 919.48,-158.69"/>
</a>
</g>
</g>
<!-- Node22 -->
<g id="Node000022" class="node">
<title>Node22</title>
<g id="a_Node000022"><a xlink:title=" ">
<polygon fill="#e0e0e0" stroke="#999999" points="1061.5,-156.5 940.5,-156.5 940.5,-137.5 1061.5,-137.5 1061.5,-156.5"/>
<text text-anchor="middle" x="1001" y="-144.5" font-family="Helvetica,sans-Serif" font-size="10.00">boost/json/object.hpp</text>
</a>
</g>
</g>
<!-- Node20&#45;&gt;Node22 -->
<g id="edge30_Node000020_Node000022" class="edge">
<title>Node20&#45;&gt;Node22</title>
<g id="a_edge30_Node000020_Node000022"><a xlink:title=" ">
<path fill="none" stroke="#63b8ff" d="M1001,-197.8C1001,-188.7 1001,-176.79 1001,-166.9"/>
<polygon fill="#63b8ff" stroke="#63b8ff" points="1004.5,-166.84 1001,-156.84 997.5,-166.84 1004.5,-166.84"/>
</a>
</g>
</g>
<!-- Node23 -->
<g id="Node000023" class="node">
<title>Node23</title>
<g id="a_Node000023"><a xlink:title=" ">
<polygon fill="#e0e0e0" stroke="#999999" points="1158.5,-156.5 1079.5,-156.5 1079.5,-137.5 1158.5,-137.5 1158.5,-156.5"/>
<text text-anchor="middle" x="1119" y="-144.5" font-family="Helvetica,sans-Serif" font-size="10.00">fmt/format.h</text>
</a>
</g>
</g>
<!-- Node20&#45;&gt;Node23 -->
<g id="edge31_Node000020_Node000023" class="edge">
<title>Node20&#45;&gt;Node23</title>
<g id="a_edge31_Node000020_Node000023"><a xlink:title=" ">
<path fill="none" stroke="#63b8ff" d="M1026.9,-197.95C1046.95,-187.08 1074.55,-172.11 1094.3,-161.4"/>
<polygon fill="#63b8ff" stroke="#63b8ff" points="1096.17,-164.36 1103.3,-156.52 1092.84,-158.21 1096.17,-164.36"/>
</a>
</g>
</g>
<!-- Node24 -->
<g id="Node000024" class="node">
<title>Node24</title>
<g id="a_Node000024"><a xlink:title=" ">
<polygon fill="#e0e0e0" stroke="#999999" points="1333,-156.5 1177,-156.5 1177,-137.5 1333,-137.5 1333,-156.5"/>
<text text-anchor="middle" x="1255" y="-144.5" font-family="Helvetica,sans-Serif" font-size="10.00">internal_use_only/config.hpp</text>
</a>
</g>
</g>
<!-- Node20&#45;&gt;Node24 -->
<g id="edge33_Node000020_Node000024" class="edge">
<title>Node20&#45;&gt;Node24</title>
<g id="a_edge33_Node000020_Node000024"><a xlink:title=" ">
<path fill="none" stroke="#63b8ff" d="M1054.25,-198.58C1100.94,-186.82 1167.99,-169.92 1211.52,-158.95"/>
<polygon fill="#63b8ff" stroke="#63b8ff" points="1212.41,-162.34 1221.25,-156.5 1210.7,-155.55 1212.41,-162.34"/>
</a>
</g>
</g>
</g>
</svg>
