<?xml version="1.0" encoding="UTF-8" standalone="no"?>
<!DOCTYPE svg PUBLIC "-//W3C//DTD SVG 1.1//EN"
 "http://www.w3.org/Graphics/SVG/1.1/DTD/svg11.dtd">
<!-- Generated by graphviz version 2.43.0 (0)
 -->
<!-- Title: include/Clock/si3_sim/si3_sim.hpp Pages: 1 -->
<svg width="1253pt" height="357pt"
 viewBox="0.00 0.00 1253.00 357.00" xmlns="http://www.w3.org/2000/svg" xmlns:xlink="http://www.w3.org/1999/xlink">
<g id="graph0" class="graph" transform="scale(1 1) rotate(0) translate(4 353)">
<title>include/Clock/si3_sim/si3_sim.hpp</title>
<!-- Node1 -->
<g id="Node000001" class="node">
<title>Node1</title>
<g id="a_Node000001"><a xlink:title="Header file for the Si3Sim class.">
<polygon fill="#999999" stroke="#666666" points="775,-349 653,-349 653,-319 775,-319 775,-349"/>
<text text-anchor="start" x="661" y="-337" font-family="Helvetica,sans-Serif" font-size="10.00">include/Clock/si3_sim</text>
<text text-anchor="middle" x="714" y="-326" font-family="Helvetica,sans-Serif" font-size="10.00">/si3_sim.hpp</text>
</a>
</g>
</g>
<!-- Node2 -->
<g id="Node000002" class="node">
<title>Node2</title>
<g id="a_Node000002"><a xlink:href="date__time_8hpp.html" target="_top" xlink:title="DateTime data structure and utilities.">
<polygon fill="white" stroke="#666666" points="460,-162 348,-162 348,-132 460,-132 460,-162"/>
<text text-anchor="start" x="356" y="-150" font-family="Helvetica,sans-Serif" font-size="10.00">Clock/misc_lib/date</text>
<text text-anchor="middle" x="404" y="-139" font-family="Helvetica,sans-Serif" font-size="10.00">_time.hpp</text>
</a>
</g>
</g>
<!-- Node1&#45;&gt;Node2 -->
<g id="edge1_Node000001_Node000002" class="edge">
<title>Node1&#45;&gt;Node2</title>
<g id="a_edge1_Node000001_Node000002"><a xlink:title=" ">
<path fill="none" stroke="#63b8ff" d="M671.77,-318.91C623.75,-301.75 544.22,-269.8 484,-228 460.29,-211.54 437.44,-187.62 422.27,-170.22"/>
<polygon fill="#63b8ff" stroke="#63b8ff" points="424.63,-167.6 415.48,-162.27 419.31,-172.14 424.63,-167.6"/>
</a>
</g>
</g>
<!-- Node17 -->
<g id="Node000017" class="node">
<title>Node17</title>
<g id="a_Node000017"><a xlink:href="config_8hpp.html" target="_top" xlink:title="Configuration structure for the Si3 simulation.">
<polygon fill="white" stroke="#666666" points="782.5,-283 645.5,-283 645.5,-264 782.5,-264 782.5,-283"/>
<text text-anchor="middle" x="714" y="-271" font-family="Helvetica,sans-Serif" font-size="10.00">Clock/si3_sim/config.hpp</text>
</a>
</g>
</g>
<!-- Node1&#45;&gt;Node17 -->
<g id="edge21_Node000001_Node000017" class="edge">
<title>Node1&#45;&gt;Node17</title>
<g id="a_edge21_Node000001_Node000017"><a xlink:title=" ">
<path fill="none" stroke="#63b8ff" d="M714,-318.84C714,-311.21 714,-301.7 714,-293.45"/>
<polygon fill="#63b8ff" stroke="#63b8ff" points="717.5,-293.27 714,-283.27 710.5,-293.27 717.5,-293.27"/>
</a>
</g>
</g>
<!-- Node19 -->
<g id="Node000019" class="node">
<title>Node19</title>
<g id="a_Node000019"><a xlink:title=" ">
<polygon fill="#e0e0e0" stroke="#999999" points="1094.5,-222.5 1037.5,-222.5 1037.5,-203.5 1094.5,-203.5 1094.5,-222.5"/>
<text text-anchor="middle" x="1066" y="-210.5" font-family="Helvetica,sans-Serif" font-size="10.00">ostream</text>
</a>
</g>
</g>
<!-- Node1&#45;&gt;Node19 -->
<g id="edge36_Node000001_Node000019" class="edge">
<title>Node1&#45;&gt;Node19</title>
<g id="a_edge36_Node000001_Node000019"><a xlink:title=" ">
<path fill="none" stroke="#63b8ff" d="M755.41,-319C825.28,-295.38 965.33,-248.03 1030.78,-225.91"/>
<polygon fill="#63b8ff" stroke="#63b8ff" points="1032.27,-229.1 1040.62,-222.58 1030.03,-222.47 1032.27,-229.1"/>
</a>
</g>
</g>
<!-- Node3 -->
<g id="Node000003" class="node">
<title>Node3</title>
<g id="a_Node000003"><a xlink:title=" ">
<polygon fill="#e0e0e0" stroke="#999999" points="885.5,-24.5 740.5,-24.5 740.5,-5.5 885.5,-5.5 885.5,-24.5"/>
<text text-anchor="middle" x="813" y="-12.5" font-family="Helvetica,sans-Serif" font-size="10.00">Clock/misc_lib_export.hpp</text>
</a>
</g>
</g>
<!-- Node2&#45;&gt;Node3 -->
<g id="edge2_Node000002_Node000003" class="edge">
<title>Node2&#45;&gt;Node3</title>
<g id="a_edge2_Node000002_Node000003"><a xlink:title=" ">
<path fill="none" stroke="#63b8ff" d="M460.32,-133.58C463.25,-133.02 466.16,-132.49 469,-132 589.59,-111.1 633.9,-153.38 742,-96 769.24,-81.54 791.01,-52.18 802.95,-33.33"/>
<polygon fill="#63b8ff" stroke="#63b8ff" points="806.07,-34.93 808.28,-24.57 800.09,-31.3 806.07,-34.93"/>
</a>
</g>
</g>
<!-- Node4 -->
<g id="Node000004" class="node">
<title>Node4</title>
<g id="a_Node000004"><a xlink:title=" ">
<polygon fill="#e0e0e0" stroke="#999999" points="850,-90.5 790,-90.5 790,-71.5 850,-71.5 850,-90.5"/>
<text text-anchor="middle" x="820" y="-78.5" font-family="Helvetica,sans-Serif" font-size="10.00">iostream</text>
</a>
</g>
</g>
<!-- Node2&#45;&gt;Node4 -->
<g id="edge3_Node000002_Node000004" class="edge">
<title>Node2&#45;&gt;Node4</title>
<g id="a_edge3_Node000002_Node000004"><a xlink:title=" ">
<path fill="none" stroke="#63b8ff" d="M460.31,-133.53C463.24,-132.99 466.15,-132.47 469,-132 604.53,-109.51 641.71,-124.96 776,-96 779.39,-95.27 782.9,-94.38 786.38,-93.42"/>
<polygon fill="#63b8ff" stroke="#63b8ff" points="787.43,-96.76 796.02,-90.54 785.43,-90.05 787.43,-96.76"/>
</a>
</g>
</g>
<!-- Node5 -->
<g id="Node000005" class="node">
<title>Node5</title>
<g id="a_Node000005"><a xlink:title=" ">
<polygon fill="#e0e0e0" stroke="#999999" points="44,-24.5 0,-24.5 0,-5.5 44,-5.5 44,-24.5"/>
<text text-anchor="middle" x="22" y="-12.5" font-family="Helvetica,sans-Serif" font-size="10.00">string</text>
</a>
</g>
</g>
<!-- Node2&#45;&gt;Node5 -->
<g id="edge4_Node000002_Node000005" class="edge">
<title>Node2&#45;&gt;Node5</title>
<g id="a_edge4_Node000002_Node000005"><a xlink:title=" ">
<path fill="none" stroke="#63b8ff" d="M354.15,-131.97C320.6,-122.33 275.46,-108.98 236,-96 153.87,-68.99 133.13,-62.48 53,-30 51.83,-29.53 50.64,-29.03 49.44,-28.53"/>
<polygon fill="#63b8ff" stroke="#63b8ff" points="50.82,-25.31 40.26,-24.53 48.03,-31.73 50.82,-25.31"/>
</a>
</g>
</g>
<!-- Node6 -->
<g id="Node000006" class="node">
<title>Node6</title>
<g id="a_Node000006"><a xlink:title=" ">
<polygon fill="#e0e0e0" stroke="#999999" points="976.5,-24.5 903.5,-24.5 903.5,-5.5 976.5,-5.5 976.5,-24.5"/>
<text text-anchor="middle" x="940" y="-12.5" font-family="Helvetica,sans-Serif" font-size="10.00">string_view</text>
</a>
</g>
</g>
<!-- Node2&#45;&gt;Node6 -->
<g id="edge5_Node000002_Node000006" class="edge">
<title>Node2&#45;&gt;Node6</title>
<g id="a_edge5_Node000002_Node000006"><a xlink:title=" ">
<path fill="none" stroke="#63b8ff" d="M460.29,-133.44C463.23,-132.92 466.15,-132.44 469,-132 555.03,-118.81 780.09,-132.73 859,-96 889.03,-82.02 914.45,-52.06 928.43,-33.04"/>
<polygon fill="#63b8ff" stroke="#63b8ff" points="931.42,-34.87 934.35,-24.69 925.71,-30.83 931.42,-34.87"/>
</a>
</g>
</g>
<!-- Node7 -->
<g id="Node000007" class="node">
<title>Node7</title>
<g id="a_Node000007"><a xlink:title=" ">
<polygon fill="#e0e0e0" stroke="#999999" points="722,-30 554,-30 554,0 722,0 722,-30"/>
<text text-anchor="start" x="562" y="-18" font-family="Helvetica,sans-Serif" font-size="10.00">boost/date_time/posix</text>
<text text-anchor="middle" x="638" y="-7" font-family="Helvetica,sans-Serif" font-size="10.00">_time/posix_time_duration.hpp</text>
</a>
</g>
</g>
<!-- Node2&#45;&gt;Node7 -->
<g id="edge6_Node000002_Node000007" class="edge">
<title>Node2&#45;&gt;Node7</title>
<g id="a_edge6_Node000002_Node000007"><a xlink:title=" ">
<path fill="none" stroke="#63b8ff" d="M403.77,-131.99C404.28,-114.1 407.95,-83.39 426,-66 435.48,-56.86 497.44,-42.86 551.94,-31.99"/>
<polygon fill="#63b8ff" stroke="#63b8ff" points="552.89,-35.38 562.02,-30 551.53,-28.51 552.89,-35.38"/>
</a>
</g>
</g>
<!-- Node8 -->
<g id="Node000008" class="node">
<title>Node8</title>
<g id="a_Node000008"><a xlink:title=" ">
<polygon fill="#e0e0e0" stroke="#999999" points="590.5,-96 435.5,-96 435.5,-66 590.5,-66 590.5,-96"/>
<text text-anchor="start" x="443.5" y="-84" font-family="Helvetica,sans-Serif" font-size="10.00">boost/date_time/posix</text>
<text text-anchor="middle" x="513" y="-73" font-family="Helvetica,sans-Serif" font-size="10.00">_time/posix_time_types.hpp</text>
</a>
</g>
</g>
<!-- Node2&#45;&gt;Node8 -->
<g id="edge7_Node000002_Node000008" class="edge">
<title>Node2&#45;&gt;Node8</title>
<g id="a_edge7_Node000002_Node000008"><a xlink:title=" ">
<path fill="none" stroke="#63b8ff" d="M427.92,-131.95C443.25,-122.95 463.36,-111.14 480.18,-101.27"/>
<polygon fill="#63b8ff" stroke="#63b8ff" points="482.28,-104.09 489.14,-96.01 478.74,-98.06 482.28,-104.09"/>
</a>
</g>
</g>
<!-- Node9 -->
<g id="Node000009" class="node">
<title>Node9</title>
<g id="a_Node000009"><a xlink:title=" ">
<polygon fill="#e0e0e0" stroke="#999999" points="733.5,-96 608.5,-96 608.5,-66 733.5,-66 733.5,-96"/>
<text text-anchor="start" x="616.5" y="-84" font-family="Helvetica,sans-Serif" font-size="10.00">boost/date_time/posix</text>
<text text-anchor="middle" x="671" y="-73" font-family="Helvetica,sans-Serif" font-size="10.00">_time/ptime.hpp</text>
</a>
</g>
</g>
<!-- Node2&#45;&gt;Node9 -->
<g id="edge8_Node000002_Node000009" class="edge">
<title>Node2&#45;&gt;Node9</title>
<g id="a_edge8_Node000002_Node000009"><a xlink:title=" ">
<path fill="none" stroke="#63b8ff" d="M460.3,-132.51C501.83,-122.55 558.56,-108.95 602.69,-98.37"/>
<polygon fill="#63b8ff" stroke="#63b8ff" points="603.56,-101.76 612.47,-96.03 601.93,-94.96 603.56,-101.76"/>
</a>
</g>
</g>
<!-- Node10 -->
<g id="Node000010" class="node">
<title>Node10</title>
<g id="a_Node000010"><a xlink:href="quad_8hpp.html" target="_top" xlink:title="Quad precision floating&#45;point type and utilities.">
<polygon fill="white" stroke="#666666" points="1103.5,-90.5 968.5,-90.5 968.5,-71.5 1103.5,-71.5 1103.5,-90.5"/>
<text text-anchor="middle" x="1036" y="-78.5" font-family="Helvetica,sans-Serif" font-size="10.00">Clock/misc_lib/quad.hpp</text>
</a>
</g>
</g>
<!-- Node2&#45;&gt;Node10 -->
<g id="edge9_Node000002_Node000010" class="edge">
<title>Node2&#45;&gt;Node10</title>
<g id="a_edge9_Node000002_Node000010"><a xlink:title=" ">
<path fill="none" stroke="#63b8ff" d="M460.28,-133.38C463.23,-132.88 466.14,-132.41 469,-132 682.94,-101.17 739.45,-122.22 954,-96 962.64,-94.94 971.77,-93.61 980.66,-92.18"/>
<polygon fill="#63b8ff" stroke="#63b8ff" points="981.27,-95.63 990.57,-90.55 980.13,-88.72 981.27,-95.63"/>
</a>
</g>
</g>
<!-- Node13 -->
<g id="Node000013" class="node">
<title>Node13</title>
<g id="a_Node000013"><a xlink:href="time_8hpp.html" target="_top" xlink:title="Time data structure and utilities.">
<polygon fill="white" stroke="#666666" points="379,-90.5 245,-90.5 245,-71.5 379,-71.5 379,-90.5"/>
<text text-anchor="middle" x="312" y="-78.5" font-family="Helvetica,sans-Serif" font-size="10.00">Clock/misc_lib/time.hpp</text>
</a>
</g>
</g>
<!-- Node2&#45;&gt;Node13 -->
<g id="edge14_Node000002_Node000013" class="edge">
<title>Node2&#45;&gt;Node13</title>
<g id="a_edge14_Node000002_Node000013"><a xlink:title=" ">
<path fill="none" stroke="#63b8ff" d="M383.58,-131.8C368.45,-121.27 347.9,-106.97 332.7,-96.4"/>
<polygon fill="#63b8ff" stroke="#63b8ff" points="334.65,-93.5 324.45,-90.66 330.66,-99.24 334.65,-93.5"/>
</a>
</g>
</g>
<!-- Node10&#45;&gt;Node3 -->
<g id="edge10_Node000010_Node000003" class="edge">
<title>Node10&#45;&gt;Node3</title>
<g id="a_edge10_Node000010_Node000003"><a xlink:title=" ">
<path fill="none" stroke="#63b8ff" d="M1005.93,-71.37C966.33,-60 896.61,-40 852.71,-27.4"/>
<polygon fill="#63b8ff" stroke="#63b8ff" points="853.53,-23.99 842.95,-24.6 851.6,-30.72 853.53,-23.99"/>
</a>
</g>
</g>
<!-- Node10&#45;&gt;Node6 -->
<g id="edge11_Node000010_Node000006" class="edge">
<title>Node10&#45;&gt;Node6</title>
<g id="a_edge11_Node000010_Node000006"><a xlink:title=" ">
<path fill="none" stroke="#63b8ff" d="M1023.05,-71.37C1007.31,-60.87 980.5,-43 961.6,-30.4"/>
<polygon fill="#63b8ff" stroke="#63b8ff" points="963.31,-27.33 953.05,-24.7 959.43,-33.16 963.31,-27.33"/>
</a>
</g>
</g>
<!-- Node11 -->
<g id="Node000011" class="node">
<title>Node11</title>
<g id="a_Node000011"><a xlink:title=" ">
<polygon fill="#e0e0e0" stroke="#999999" points="1245,-30 1129,-30 1129,0 1245,0 1245,-30"/>
<text text-anchor="start" x="1137" y="-18" font-family="Helvetica,sans-Serif" font-size="10.00">boost/multiprecision</text>
<text text-anchor="middle" x="1187" y="-7" font-family="Helvetica,sans-Serif" font-size="10.00">/cpp_bin_float.hpp</text>
</a>
</g>
</g>
<!-- Node10&#45;&gt;Node11 -->
<g id="edge12_Node000010_Node000011" class="edge">
<title>Node10&#45;&gt;Node11</title>
<g id="a_edge12_Node000010_Node000011"><a xlink:title=" ">
<path fill="none" stroke="#63b8ff" d="M1056.36,-71.37C1078.79,-61.87 1115.47,-46.32 1144.27,-34.11"/>
<polygon fill="#63b8ff" stroke="#63b8ff" points="1145.85,-37.24 1153.7,-30.12 1143.12,-30.8 1145.85,-37.24"/>
</a>
</g>
</g>
<!-- Node12 -->
<g id="Node000012" class="node">
<title>Node12</title>
<g id="a_Node000012"><a xlink:title=" ">
<polygon fill="#e0e0e0" stroke="#999999" points="1111,-30 995,-30 995,0 1111,0 1111,-30"/>
<text text-anchor="start" x="1003" y="-18" font-family="Helvetica,sans-Serif" font-size="10.00">boost/multiprecision</text>
<text text-anchor="middle" x="1053" y="-7" font-family="Helvetica,sans-Serif" font-size="10.00">/fwd.hpp</text>
</a>
</g>
</g>
<!-- Node10&#45;&gt;Node12 -->
<g id="edge13_Node000010_Node000012" class="edge">
<title>Node10&#45;&gt;Node12</title>
<g id="a_edge13_Node000010_Node000012"><a xlink:title=" ">
<path fill="none" stroke="#63b8ff" d="M1038.29,-71.37C1040.41,-63.4 1043.65,-51.2 1046.55,-40.27"/>
<polygon fill="#63b8ff" stroke="#63b8ff" points="1050,-40.92 1049.19,-30.36 1043.24,-39.13 1050,-40.92"/>
</a>
</g>
</g>
<!-- Node13&#45;&gt;Node3 -->
<g id="edge15_Node000013_Node000003" class="edge">
<title>Node13&#45;&gt;Node3</title>
<g id="a_edge15_Node000013_Node000003"><a xlink:title=" ">
<path fill="none" stroke="#63b8ff" d="M379.21,-71.69C394.58,-69.81 410.86,-67.82 426,-66 561.52,-49.68 595.9,-49.49 731,-30 738.93,-28.86 747.27,-27.55 755.47,-26.21"/>
<polygon fill="#63b8ff" stroke="#63b8ff" points="756.08,-29.65 765.37,-24.56 754.93,-22.75 756.08,-29.65"/>
</a>
</g>
</g>
<!-- Node13&#45;&gt;Node5 -->
<g id="edge16_Node000013_Node000005" class="edge">
<title>Node13&#45;&gt;Node5</title>
<g id="a_edge16_Node000013_Node000005"><a xlink:title=" ">
<path fill="none" stroke="#63b8ff" d="M245.21,-71.49C192.26,-63.7 116.84,-50.27 53,-30 51.56,-29.54 50.09,-29.04 48.63,-28.49"/>
<polygon fill="#63b8ff" stroke="#63b8ff" points="49.68,-25.14 39.1,-24.58 47.02,-31.62 49.68,-25.14"/>
</a>
</g>
</g>
<!-- Node13&#45;&gt;Node7 -->
<g id="edge18_Node000013_Node000007" class="edge">
<title>Node13&#45;&gt;Node7</title>
<g id="a_edge18_Node000013_Node000007"><a xlink:title=" ">
<path fill="none" stroke="#63b8ff" d="M355.63,-71.44C406.85,-61.38 492.87,-44.49 556.54,-31.99"/>
<polygon fill="#63b8ff" stroke="#63b8ff" points="557.42,-35.39 566.56,-30.02 556.07,-28.52 557.42,-35.39"/>
</a>
</g>
</g>
<!-- Node14 -->
<g id="Node000014" class="node">
<title>Node14</title>
<g id="a_Node000014"><a xlink:title=" ">
<polygon fill="#e0e0e0" stroke="#999999" points="219.5,-30 62.5,-30 62.5,0 219.5,0 219.5,-30"/>
<text text-anchor="start" x="70.5" y="-18" font-family="Helvetica,sans-Serif" font-size="10.00">boost/date_time/posix</text>
<text text-anchor="middle" x="141" y="-7" font-family="Helvetica,sans-Serif" font-size="10.00">_time/posix_time_config.hpp</text>
</a>
</g>
</g>
<!-- Node13&#45;&gt;Node14 -->
<g id="edge17_Node000013_Node000014" class="edge">
<title>Node13&#45;&gt;Node14</title>
<g id="a_edge17_Node000013_Node000014"><a xlink:title=" ">
<path fill="none" stroke="#63b8ff" d="M288.94,-71.37C263.22,-61.74 220.92,-45.91 188.12,-33.64"/>
<polygon fill="#63b8ff" stroke="#63b8ff" points="189.31,-30.34 178.72,-30.12 186.85,-36.9 189.31,-30.34"/>
</a>
</g>
</g>
<!-- Node15 -->
<g id="Node000015" class="node">
<title>Node15</title>
<g id="a_Node000015"><a xlink:title=" ">
<polygon fill="#e0e0e0" stroke="#999999" points="386,-30 238,-30 238,0 386,0 386,-30"/>
<text text-anchor="start" x="246" y="-18" font-family="Helvetica,sans-Serif" font-size="10.00">boost/date_time/posix</text>
<text text-anchor="middle" x="312" y="-7" font-family="Helvetica,sans-Serif" font-size="10.00">_time/time_formatters.hpp</text>
</a>
</g>
</g>
<!-- Node13&#45;&gt;Node15 -->
<g id="edge19_Node000013_Node000015" class="edge">
<title>Node13&#45;&gt;Node15</title>
<g id="a_edge19_Node000013_Node000015"><a xlink:title=" ">
<path fill="none" stroke="#63b8ff" d="M312,-71.37C312,-63.49 312,-51.45 312,-40.6"/>
<polygon fill="#63b8ff" stroke="#63b8ff" points="315.5,-40.36 312,-30.36 308.5,-40.36 315.5,-40.36"/>
</a>
</g>
</g>
<!-- Node16 -->
<g id="Node000016" class="node">
<title>Node16</title>
<g id="a_Node000016"><a xlink:title=" ">
<polygon fill="#e0e0e0" stroke="#999999" points="536,-30 404,-30 404,0 536,0 536,-30"/>
<text text-anchor="start" x="412" y="-18" font-family="Helvetica,sans-Serif" font-size="10.00">boost/date_time/posix</text>
<text text-anchor="middle" x="470" y="-7" font-family="Helvetica,sans-Serif" font-size="10.00">_time/time_parsers.hpp</text>
</a>
</g>
</g>
<!-- Node13&#45;&gt;Node16 -->
<g id="edge20_Node000013_Node000016" class="edge">
<title>Node13&#45;&gt;Node16</title>
<g id="a_edge20_Node000013_Node000016"><a xlink:title=" ">
<path fill="none" stroke="#63b8ff" d="M333.31,-71.37C356.87,-61.82 395.49,-46.18 425.68,-33.95"/>
<polygon fill="#63b8ff" stroke="#63b8ff" points="427.2,-37.11 435.15,-30.12 424.57,-30.63 427.2,-37.11"/>
</a>
</g>
</g>
<!-- Node17&#45;&gt;Node2 -->
<g id="edge25_Node000017_Node000002" class="edge">
<title>Node17&#45;&gt;Node2</title>
<g id="a_edge25_Node000017_Node000002"><a xlink:title=" ">
<path fill="none" stroke="#63b8ff" d="M671.38,-263.97C637.51,-256.5 589.3,-244.28 549,-228 507.62,-211.29 463.12,-185.44 434.49,-167.67"/>
<polygon fill="#63b8ff" stroke="#63b8ff" points="436.11,-164.55 425.78,-162.21 432.39,-170.48 436.11,-164.55"/>
</a>
</g>
</g>
<!-- Node17&#45;&gt;Node10 -->
<g id="edge26_Node000017_Node000010" class="edge">
<title>Node17&#45;&gt;Node10</title>
<g id="a_edge26_Node000017_Node000010"><a xlink:title=" ">
<path fill="none" stroke="#63b8ff" d="M747.09,-263.91C798.78,-249.33 900.07,-215.95 971,-162 994.07,-144.45 1013.97,-117.07 1025.48,-99.34"/>
<polygon fill="#63b8ff" stroke="#63b8ff" points="1028.61,-100.93 1030.97,-90.6 1022.69,-97.2 1028.61,-100.93"/>
</a>
</g>
</g>
<!-- Node17&#45;&gt;Node13 -->
<g id="edge35_Node000017_Node000013" class="edge">
<title>Node17&#45;&gt;Node13</title>
<g id="a_edge35_Node000017_Node000013"><a xlink:title=" ">
<path fill="none" stroke="#63b8ff" d="M645.39,-272.63C560.46,-268.85 417.47,-248.89 339,-162 323.45,-144.78 316.81,-118.28 314,-100.55"/>
<polygon fill="#63b8ff" stroke="#63b8ff" points="317.46,-100.04 312.68,-90.58 310.53,-100.96 317.46,-100.04"/>
</a>
</g>
</g>
<!-- Node18 -->
<g id="Node000018" class="node">
<title>Node18</title>
<g id="a_Node000018"><a xlink:title=" ">
<polygon fill="#e0e0e0" stroke="#999999" points="746,-222.5 682,-222.5 682,-203.5 746,-203.5 746,-222.5"/>
<text text-anchor="middle" x="714" y="-210.5" font-family="Helvetica,sans-Serif" font-size="10.00">algorithm</text>
</a>
</g>
</g>
<!-- Node17&#45;&gt;Node18 -->
<g id="edge22_Node000017_Node000018" class="edge">
<title>Node17&#45;&gt;Node18</title>
<g id="a_edge22_Node000017_Node000018"><a xlink:title=" ">
<path fill="none" stroke="#63b8ff" d="M714,-263.87C714,-255.75 714,-243.31 714,-232.89"/>
<polygon fill="#63b8ff" stroke="#63b8ff" points="717.5,-232.67 714,-222.67 710.5,-232.67 717.5,-232.67"/>
</a>
</g>
</g>
<!-- Node17&#45;&gt;Node19 -->
<g id="edge23_Node000017_Node000019" class="edge">
<title>Node17&#45;&gt;Node19</title>
<g id="a_edge23_Node000017_Node000019"><a xlink:title=" ">
<path fill="none" stroke="#63b8ff" d="M782.75,-266.02C845.78,-259.27 941.45,-247 1023,-228 1026.04,-227.29 1029.17,-226.47 1032.29,-225.58"/>
<polygon fill="#63b8ff" stroke="#63b8ff" points="1033.55,-228.85 1042.1,-222.59 1031.51,-222.16 1033.55,-228.85"/>
</a>
</g>
</g>
<!-- Node20 -->
<g id="Node000020" class="node">
<title>Node20</title>
<g id="a_Node000020"><a xlink:title=" ">
<polygon fill="#e0e0e0" stroke="#999999" points="811.5,-222.5 764.5,-222.5 764.5,-203.5 811.5,-203.5 811.5,-222.5"/>
<text text-anchor="middle" x="788" y="-210.5" font-family="Helvetica,sans-Serif" font-size="10.00">vector</text>
</a>
</g>
</g>
<!-- Node17&#45;&gt;Node20 -->
<g id="edge24_Node000017_Node000020" class="edge">
<title>Node17&#45;&gt;Node20</title>
<g id="a_edge24_Node000017_Node000020"><a xlink:title=" ">
<path fill="none" stroke="#63b8ff" d="M724.92,-263.87C736.51,-254.71 755.03,-240.06 769.02,-229.01"/>
<polygon fill="#63b8ff" stroke="#63b8ff" points="771.36,-231.61 777.04,-222.67 767.02,-226.12 771.36,-231.61"/>
</a>
</g>
</g>
<!-- Node21 -->
<g id="Node000021" class="node">
<title>Node21</title>
<g id="a_Node000021"><a xlink:href="run__record_8hpp.html" target="_top" xlink:title="Run record structure and utilities.">
<polygon fill="white" stroke="#666666" points="664,-228 558,-228 558,-198 664,-198 664,-228"/>
<text text-anchor="start" x="566" y="-216" font-family="Helvetica,sans-Serif" font-size="10.00">Clock/misc_lib/run</text>
<text text-anchor="middle" x="611" y="-205" font-family="Helvetica,sans-Serif" font-size="10.00">_record.hpp</text>
</a>
</g>
</g>
<!-- Node17&#45;&gt;Node21 -->
<g id="edge27_Node000017_Node000021" class="edge">
<title>Node17&#45;&gt;Node21</title>
<g id="a_edge27_Node000017_Node000021"><a xlink:title=" ">
<path fill="none" stroke="#63b8ff" d="M698.8,-263.87C684.7,-255.86 663.2,-243.65 645.01,-233.31"/>
<polygon fill="#63b8ff" stroke="#63b8ff" points="646.28,-230.01 635.85,-228.11 642.82,-236.1 646.28,-230.01"/>
</a>
</g>
</g>
<!-- Node21&#45;&gt;Node2 -->
<g id="edge33_Node000021_Node000002" class="edge">
<title>Node21&#45;&gt;Node2</title>
<g id="a_edge33_Node000021_Node000002"><a xlink:title=" ">
<path fill="none" stroke="#63b8ff" d="M565.57,-197.95C534.16,-188.24 492.2,-175.27 458.91,-164.98"/>
<polygon fill="#63b8ff" stroke="#63b8ff" points="459.91,-161.62 449.32,-162.01 457.84,-168.31 459.91,-161.62"/>
</a>
</g>
</g>
<!-- Node21&#45;&gt;Node3 -->
<g id="edge28_Node000021_Node000003" class="edge">
<title>Node21&#45;&gt;Node3</title>
<g id="a_edge28_Node000021_Node000003"><a xlink:title=" ">
<path fill="none" stroke="#63b8ff" d="M664.03,-199.68C667.06,-199.08 670.07,-198.52 673,-198 734.56,-187.1 910.72,-208.95 952,-162 996.6,-111.28 894.96,-54.06 842.22,-28.96"/>
<polygon fill="#63b8ff" stroke="#63b8ff" points="843.53,-25.71 832.99,-24.66 840.58,-32.06 843.53,-25.71"/>
</a>
</g>
</g>
<!-- Node21&#45;&gt;Node5 -->
<g id="edge30_Node000021_Node000005" class="edge">
<title>Node21&#45;&gt;Node5</title>
<g id="a_edge30_Node000021_Node000005"><a xlink:title=" ">
<path fill="none" stroke="#63b8ff" d="M557.98,-206.24C468.53,-194.94 283.64,-164.72 143,-96 104.65,-77.26 64.04,-48.27 40.97,-30.81"/>
<polygon fill="#63b8ff" stroke="#63b8ff" points="42.83,-27.82 32.76,-24.52 38.57,-33.38 42.83,-27.82"/>
</a>
</g>
</g>
<!-- Node22 -->
<g id="Node000022" class="node">
<title>Node22</title>
<g id="a_Node000022"><a xlink:title=" ">
<polygon fill="#e0e0e0" stroke="#999999" points="532,-156.5 478,-156.5 478,-137.5 532,-137.5 532,-156.5"/>
<text text-anchor="middle" x="505" y="-144.5" font-family="Helvetica,sans-Serif" font-size="10.00">random</text>
</a>
</g>
</g>
<!-- Node21&#45;&gt;Node22 -->
<g id="edge29_Node000021_Node000022" class="edge">
<title>Node21&#45;&gt;Node22</title>
<g id="a_edge29_Node000021_Node000022"><a xlink:title=" ">
<path fill="none" stroke="#63b8ff" d="M587.74,-197.95C569.89,-187.18 545.38,-172.38 527.67,-161.69"/>
<polygon fill="#63b8ff" stroke="#63b8ff" points="529.48,-158.69 519.11,-156.52 525.86,-164.68 529.48,-158.69"/>
</a>
</g>
</g>
<!-- Node23 -->
<g id="Node000023" class="node">
<title>Node23</title>
<g id="a_Node000023"><a xlink:title=" ">
<polygon fill="#e0e0e0" stroke="#999999" points="671.5,-156.5 550.5,-156.5 550.5,-137.5 671.5,-137.5 671.5,-156.5"/>
<text text-anchor="middle" x="611" y="-144.5" font-family="Helvetica,sans-Serif" font-size="10.00">boost/json/object.hpp</text>
</a>
</g>
</g>
<!-- Node21&#45;&gt;Node23 -->
<g id="edge31_Node000021_Node000023" class="edge">
<title>Node21&#45;&gt;Node23</title>
<g id="a_edge31_Node000021_Node000023"><a xlink:title=" ">
<path fill="none" stroke="#63b8ff" d="M611,-197.8C611,-188.7 611,-176.79 611,-166.9"/>
<polygon fill="#63b8ff" stroke="#63b8ff" points="614.5,-166.84 611,-156.84 607.5,-166.84 614.5,-166.84"/>
</a>
</g>
</g>
<!-- Node24 -->
<g id="Node000024" class="node">
<title>Node24</title>
<g id="a_Node000024"><a xlink:title=" ">
<polygon fill="#e0e0e0" stroke="#999999" points="768.5,-156.5 689.5,-156.5 689.5,-137.5 768.5,-137.5 768.5,-156.5"/>
<text text-anchor="middle" x="729" y="-144.5" font-family="Helvetica,sans-Serif" font-size="10.00">fmt/format.h</text>
</a>
</g>
</g>
<!-- Node21&#45;&gt;Node24 -->
<g id="edge32_Node000021_Node000024" class="edge">
<title>Node21&#45;&gt;Node24</title>
<g id="a_edge32_Node000021_Node000024"><a xlink:title=" ">
<path fill="none" stroke="#63b8ff" d="M636.9,-197.95C656.95,-187.08 684.55,-172.11 704.3,-161.4"/>
<polygon fill="#63b8ff" stroke="#63b8ff" points="706.17,-164.36 713.3,-156.52 702.84,-158.21 706.17,-164.36"/>
</a>
</g>
</g>
<!-- Node25 -->
<g id="Node000025" class="node">
<title>Node25</title>
<g id="a_Node000025"><a xlink:title=" ">
<polygon fill="#e0e0e0" stroke="#999999" points="943,-156.5 787,-156.5 787,-137.5 943,-137.5 943,-156.5"/>
<text text-anchor="middle" x="865" y="-144.5" font-family="Helvetica,sans-Serif" font-size="10.00">internal_use_only/config.hpp</text>
</a>
</g>
</g>
<!-- Node21&#45;&gt;Node25 -->
<g id="edge34_Node000021_Node000025" class="edge">
<title>Node21&#45;&gt;Node25</title>
<g id="a_edge34_Node000021_Node000025"><a xlink:title=" ">
<path fill="none" stroke="#63b8ff" d="M664.25,-198.58C710.94,-186.82 777.99,-169.92 821.52,-158.95"/>
<polygon fill="#63b8ff" stroke="#63b8ff" points="822.41,-162.34 831.25,-156.5 820.7,-155.55 822.41,-162.34"/>
</a>
</g>
</g>
</g>
</svg>
