<?xml version="1.0" encoding="UTF-8" standalone="no"?>
<!DOCTYPE svg PUBLIC "-//W3C//DTD SVG 1.1//EN"
 "http://www.w3.org/Graphics/SVG/1.1/DTD/svg11.dtd">
<!-- Generated by graphviz version 2.43.0 (0)
 -->
<!-- Title: src/si3_sim/si3_sim.cpp Pages: 1 -->
<svg width="1557pt" height="412pt"
 viewBox="0.00 0.00 1556.50 412.00" xmlns="http://www.w3.org/2000/svg" xmlns:xlink="http://www.w3.org/1999/xlink">
<g id="graph0" class="graph" transform="scale(1 1) rotate(0) translate(4 408)">
<title>src/si3_sim/si3_sim.cpp</title>
<!-- Node1 -->
<g id="Node000001" class="node">
<title>Node1</title>
<g id="a_Node000001"><a xlink:title="Implementation of the Si3Sim class.">
<polygon fill="#999999" stroke="#666666" points="1152,-404 1020,-404 1020,-385 1152,-385 1152,-404"/>
<text text-anchor="middle" x="1086" y="-392" font-family="Helvetica,sans-Serif" font-size="10.00">src/si3_sim/si3_sim.cpp</text>
</a>
</g>
</g>
<!-- Node2 -->
<g id="Node000002" class="node">
<title>Node2</title>
<g id="a_Node000002"><a xlink:href="si3__sim_8hpp.html" target="_top" xlink:title="Header file for the Si3Sim class.">
<polygon fill="white" stroke="#666666" points="1039,-343.5 893,-343.5 893,-324.5 1039,-324.5 1039,-343.5"/>
<text text-anchor="middle" x="966" y="-331.5" font-family="Helvetica,sans-Serif" font-size="10.00">Clock/si3_sim/si3_sim.hpp</text>
</a>
</g>
</g>
<!-- Node1&#45;&gt;Node2 -->
<g id="edge1_Node000001_Node000002" class="edge">
<title>Node1&#45;&gt;Node2</title>
<g id="a_edge1_Node000001_Node000002"><a xlink:title=" ">
<path fill="none" stroke="#63b8ff" d="M1068.55,-384.99C1048.64,-375.29 1015.86,-359.31 992.73,-348.03"/>
<polygon fill="#63b8ff" stroke="#63b8ff" points="993.99,-344.75 983.47,-343.52 990.93,-351.04 993.99,-344.75"/>
</a>
</g>
</g>
<!-- Node3 -->
<g id="Node000003" class="node">
<title>Node3</title>
<g id="a_Node000003"><a xlink:href="date__time_8hpp.html" target="_top" xlink:title="DateTime data structure and utilities.">
<polygon fill="white" stroke="#666666" points="935,-162 823,-162 823,-132 935,-132 935,-162"/>
<text text-anchor="start" x="831" y="-150" font-family="Helvetica,sans-Serif" font-size="10.00">Clock/misc_lib/date</text>
<text text-anchor="middle" x="879" y="-139" font-family="Helvetica,sans-Serif" font-size="10.00">_time.hpp</text>
</a>
</g>
</g>
<!-- Node1&#45;&gt;Node3 -->
<g id="edge45_Node000001_Node000003" class="edge">
<title>Node1&#45;&gt;Node3</title>
<g id="a_edge45_Node000001_Node000003"><a xlink:title=" ">
<path fill="none" stroke="#63b8ff" d="M1086.08,-384.7C1085.89,-354.37 1081.11,-253.02 1028,-198 1006.3,-175.52 974.21,-163.15 945.36,-156.34"/>
<polygon fill="#63b8ff" stroke="#63b8ff" points="945.82,-152.86 935.31,-154.15 944.34,-159.7 945.82,-152.86"/>
</a>
</g>
</g>
<!-- Node5 -->
<g id="Node000005" class="node">
<title>Node5</title>
<g id="a_Node000005"><a xlink:title=" ">
<polygon fill="#e0e0e0" stroke="#999999" points="1314,-90.5 1254,-90.5 1254,-71.5 1314,-71.5 1314,-90.5"/>
<text text-anchor="middle" x="1284" y="-78.5" font-family="Helvetica,sans-Serif" font-size="10.00">iostream</text>
</a>
</g>
</g>
<!-- Node1&#45;&gt;Node5 -->
<g id="edge41_Node000001_Node000005" class="edge">
<title>Node1&#45;&gt;Node5</title>
<g id="a_edge41_Node000001_Node000005"><a xlink:title=" ">
<path fill="none" stroke="#63b8ff" d="M1088.33,-384.91C1093.4,-365.44 1105,-316.34 1105,-274.5 1105,-274.5 1105,-274.5 1105,-212 1105,-174.93 1206.8,-119.84 1256.86,-94.99"/>
<polygon fill="#63b8ff" stroke="#63b8ff" points="1258.42,-98.12 1265.85,-90.57 1255.33,-91.84 1258.42,-98.12"/>
</a>
</g>
</g>
<!-- Node6 -->
<g id="Node000006" class="node">
<title>Node6</title>
<g id="a_Node000006"><a xlink:title=" ">
<polygon fill="#e0e0e0" stroke="#999999" points="44,-24.5 0,-24.5 0,-5.5 44,-5.5 44,-24.5"/>
<text text-anchor="middle" x="22" y="-12.5" font-family="Helvetica,sans-Serif" font-size="10.00">string</text>
</a>
</g>
</g>
<!-- Node1&#45;&gt;Node6 -->
<g id="edge43_Node000001_Node000006" class="edge">
<title>Node1&#45;&gt;Node6</title>
<g id="a_edge43_Node000001_Node000006"><a xlink:title=" ">
<path fill="none" stroke="#63b8ff" d="M1019.9,-392.94C790.41,-390.12 42,-373.35 42,-274.5 42,-274.5 42,-274.5 42,-146 42,-106 32.64,-59.87 26.72,-34.73"/>
<polygon fill="#63b8ff" stroke="#63b8ff" points="30.06,-33.64 24.29,-24.76 23.26,-35.3 30.06,-33.64"/>
</a>
</g>
</g>
<!-- Node11 -->
<g id="Node000011" class="node">
<title>Node11</title>
<g id="a_Node000011"><a xlink:href="quad_8hpp.html" target="_top" xlink:title="Quad precision floating&#45;point type and utilities.">
<polygon fill="white" stroke="#666666" points="880.5,-90.5 745.5,-90.5 745.5,-71.5 880.5,-71.5 880.5,-90.5"/>
<text text-anchor="middle" x="813" y="-78.5" font-family="Helvetica,sans-Serif" font-size="10.00">Clock/misc_lib/quad.hpp</text>
</a>
</g>
</g>
<!-- Node1&#45;&gt;Node11 -->
<g id="edge46_Node000001_Node000011" class="edge">
<title>Node1&#45;&gt;Node11</title>
<g id="a_edge46_Node000001_Node000011"><a xlink:title=" ">
<path fill="none" stroke="#63b8ff" d="M1019.77,-389.06C898.47,-379.09 653,-349.63 653,-274.5 653,-274.5 653,-274.5 653,-212 653,-149.35 727.81,-111.59 775.12,-93.98"/>
<polygon fill="#63b8ff" stroke="#63b8ff" points="776.53,-97.2 784.76,-90.53 774.17,-90.61 776.53,-97.2"/>
</a>
</g>
</g>
<!-- Node18 -->
<g id="Node000018" class="node">
<title>Node18</title>
<g id="a_Node000018"><a xlink:href="config_8hpp.html" target="_top" xlink:title="Configuration structure for the Si3 simulation.">
<polygon fill="white" stroke="#666666" points="901.5,-283 764.5,-283 764.5,-264 901.5,-264 901.5,-283"/>
<text text-anchor="middle" x="833" y="-271" font-family="Helvetica,sans-Serif" font-size="10.00">Clock/si3_sim/config.hpp</text>
</a>
</g>
</g>
<!-- Node1&#45;&gt;Node18 -->
<g id="edge48_Node000001_Node000018" class="edge">
<title>Node1&#45;&gt;Node18</title>
<g id="a_edge48_Node000001_Node000018"><a xlink:title=" ">
<path fill="none" stroke="#63b8ff" d="M1019.74,-391.2C977.76,-386.93 924.04,-376.02 884,-349 863.45,-335.13 848.82,-309.96 840.65,-292.75"/>
<polygon fill="#63b8ff" stroke="#63b8ff" points="843.67,-290.93 836.39,-283.23 837.28,-293.79 843.67,-290.93"/>
</a>
</g>
</g>
<!-- Node22 -->
<g id="Node000022" class="node">
<title>Node22</title>
<g id="a_Node000022"><a xlink:href="run__record_8hpp.html" target="_top" xlink:title="Run record structure and utilities.">
<polygon fill="white" stroke="#666666" points="613,-228 507,-228 507,-198 613,-198 613,-228"/>
<text text-anchor="start" x="515" y="-216" font-family="Helvetica,sans-Serif" font-size="10.00">Clock/misc_lib/run</text>
<text text-anchor="middle" x="560" y="-205" font-family="Helvetica,sans-Serif" font-size="10.00">_record.hpp</text>
</a>
</g>
</g>
<!-- Node1&#45;&gt;Node22 -->
<g id="edge47_Node000001_Node000022" class="edge">
<title>Node1&#45;&gt;Node22</title>
<g id="a_edge47_Node000001_Node000022"><a xlink:title=" ">
<path fill="none" stroke="#63b8ff" d="M1019.9,-394.12C911.16,-393.98 700.46,-388.42 639,-349 598.75,-323.18 576.49,-269.01 566.52,-237.7"/>
<polygon fill="#63b8ff" stroke="#63b8ff" points="569.84,-236.6 563.6,-228.04 563.14,-238.62 569.84,-236.6"/>
</a>
</g>
</g>
<!-- Node27 -->
<g id="Node000027" class="node">
<title>Node27</title>
<g id="a_Node000027"><a xlink:title=" ">
<polygon fill="#e0e0e0" stroke="#999999" points="1198.5,-343.5 1133.5,-343.5 1133.5,-324.5 1198.5,-324.5 1198.5,-343.5"/>
<text text-anchor="middle" x="1166" y="-331.5" font-family="Helvetica,sans-Serif" font-size="10.00">exception</text>
</a>
</g>
</g>
<!-- Node1&#45;&gt;Node27 -->
<g id="edge38_Node000001_Node000027" class="edge">
<title>Node1&#45;&gt;Node27</title>
<g id="a_edge38_Node000001_Node000027"><a xlink:title=" ">
<path fill="none" stroke="#63b8ff" d="M1097.8,-384.87C1110.45,-375.62 1130.74,-360.78 1145.91,-349.69"/>
<polygon fill="#63b8ff" stroke="#63b8ff" points="1148.14,-352.4 1154.15,-343.67 1144.01,-346.74 1148.14,-352.4"/>
</a>
</g>
</g>
<!-- Node28 -->
<g id="Node000028" class="node">
<title>Node28</title>
<g id="a_Node000028"><a xlink:title=" ">
<polygon fill="#e0e0e0" stroke="#999999" points="1273,-343.5 1217,-343.5 1217,-324.5 1273,-324.5 1273,-343.5"/>
<text text-anchor="middle" x="1245" y="-331.5" font-family="Helvetica,sans-Serif" font-size="10.00">iomanip</text>
</a>
</g>
</g>
<!-- Node1&#45;&gt;Node28 -->
<g id="edge39_Node000001_Node000028" class="edge">
<title>Node1&#45;&gt;Node28</title>
<g id="a_edge39_Node000001_Node000028"><a xlink:title=" ">
<path fill="none" stroke="#63b8ff" d="M1109.88,-384.89C1134.49,-375.98 1173.97,-361.64 1208,-349 1209.59,-348.41 1211.22,-347.8 1212.87,-347.18"/>
<polygon fill="#63b8ff" stroke="#63b8ff" points="1214.19,-350.43 1222.32,-343.63 1211.73,-343.87 1214.19,-350.43"/>
</a>
</g>
</g>
<!-- Node29 -->
<g id="Node000029" class="node">
<title>Node29</title>
<g id="a_Node000029"><a xlink:title=" ">
<polygon fill="#e0e0e0" stroke="#999999" points="1322.5,-343.5 1291.5,-343.5 1291.5,-324.5 1322.5,-324.5 1322.5,-343.5"/>
<text text-anchor="middle" x="1307" y="-331.5" font-family="Helvetica,sans-Serif" font-size="10.00">ios</text>
</a>
</g>
</g>
<!-- Node1&#45;&gt;Node29 -->
<g id="edge40_Node000001_Node000029" class="edge">
<title>Node1&#45;&gt;Node29</title>
<g id="a_edge40_Node000001_Node000029"><a xlink:title=" ">
<path fill="none" stroke="#63b8ff" d="M1143.46,-384.94C1183.22,-377.94 1236.89,-366.34 1282,-349 1282.71,-348.73 1283.43,-348.43 1284.15,-348.13"/>
<polygon fill="#63b8ff" stroke="#63b8ff" points="1285.92,-351.16 1293.33,-343.58 1282.81,-344.88 1285.92,-351.16"/>
</a>
</g>
</g>
<!-- Node30 -->
<g id="Node000030" class="node">
<title>Node30</title>
<g id="a_Node000030"><a xlink:title=" ">
<polygon fill="#e0e0e0" stroke="#999999" points="1405.5,-343.5 1340.5,-343.5 1340.5,-324.5 1405.5,-324.5 1405.5,-343.5"/>
<text text-anchor="middle" x="1373" y="-331.5" font-family="Helvetica,sans-Serif" font-size="10.00">stdexcept</text>
</a>
</g>
</g>
<!-- Node1&#45;&gt;Node30 -->
<g id="edge42_Node000001_Node000030" class="edge">
<title>Node1&#45;&gt;Node30</title>
<g id="a_edge42_Node000001_Node000030"><a xlink:title=" ">
<path fill="none" stroke="#63b8ff" d="M1147.72,-384.96C1197.81,-377.41 1270.04,-365.09 1332,-349 1334.64,-348.31 1337.35,-347.54 1340.07,-346.72"/>
<polygon fill="#63b8ff" stroke="#63b8ff" points="1341.32,-350 1349.77,-343.61 1339.18,-343.33 1341.32,-350"/>
</a>
</g>
</g>
<!-- Node31 -->
<g id="Node000031" class="node">
<title>Node31</title>
<g id="a_Node000031"><a xlink:title=" ">
<polygon fill="#e0e0e0" stroke="#999999" points="1548.5,-349 1423.5,-349 1423.5,-319 1548.5,-319 1548.5,-349"/>
<text text-anchor="start" x="1431.5" y="-337" font-family="Helvetica,sans-Serif" font-size="10.00">boost/range/algorithm</text>
<text text-anchor="middle" x="1486" y="-326" font-family="Helvetica,sans-Serif" font-size="10.00">/find_if.hpp</text>
</a>
</g>
</g>
<!-- Node1&#45;&gt;Node31 -->
<g id="edge44_Node000001_Node000031" class="edge">
<title>Node1&#45;&gt;Node31</title>
<g id="a_edge44_Node000001_Node000031"><a xlink:title=" ">
<path fill="none" stroke="#63b8ff" d="M1152.03,-385.76C1216.37,-377.94 1317.2,-364.98 1413.42,-349.21"/>
<polygon fill="#63b8ff" stroke="#63b8ff" points="1414.02,-352.66 1423.32,-347.57 1412.88,-345.75 1414.02,-352.66"/>
</a>
</g>
</g>
<!-- Node2&#45;&gt;Node3 -->
<g id="edge2_Node000002_Node000003" class="edge">
<title>Node2&#45;&gt;Node3</title>
<g id="a_edge2_Node000002_Node000003"><a xlink:title=" ">
<path fill="none" stroke="#63b8ff" d="M973.56,-324.34C992.36,-301.73 1037.69,-239.77 1009,-198 994.38,-176.71 969.34,-164.49 945.11,-157.46"/>
<polygon fill="#63b8ff" stroke="#63b8ff" points="945.73,-154.01 935.17,-154.85 943.95,-160.78 945.73,-154.01"/>
</a>
</g>
</g>
<!-- Node2&#45;&gt;Node18 -->
<g id="edge22_Node000002_Node000018" class="edge">
<title>Node2&#45;&gt;Node18</title>
<g id="a_edge22_Node000002_Node000018"><a xlink:title=" ">
<path fill="none" stroke="#63b8ff" d="M946.66,-324.49C924.3,-314.66 887.29,-298.38 861.6,-287.08"/>
<polygon fill="#63b8ff" stroke="#63b8ff" points="862.93,-283.84 852.36,-283.02 860.11,-290.25 862.93,-283.84"/>
</a>
</g>
</g>
<!-- Node20 -->
<g id="Node000020" class="node">
<title>Node20</title>
<g id="a_Node000020"><a xlink:title=" ">
<polygon fill="#e0e0e0" stroke="#999999" points="1000.5,-222.5 943.5,-222.5 943.5,-203.5 1000.5,-203.5 1000.5,-222.5"/>
<text text-anchor="middle" x="972" y="-210.5" font-family="Helvetica,sans-Serif" font-size="10.00">ostream</text>
</a>
</g>
</g>
<!-- Node2&#45;&gt;Node20 -->
<g id="edge37_Node000002_Node000020" class="edge">
<title>Node2&#45;&gt;Node20</title>
<g id="a_edge37_Node000002_Node000020"><a xlink:title=" ">
<path fill="none" stroke="#63b8ff" d="M966.43,-324.44C967.39,-305.41 969.72,-259.19 971.04,-232.97"/>
<polygon fill="#63b8ff" stroke="#63b8ff" points="974.55,-232.97 971.56,-222.8 967.56,-232.61 974.55,-232.97"/>
</a>
</g>
</g>
<!-- Node4 -->
<g id="Node000004" class="node">
<title>Node4</title>
<g id="a_Node000004"><a xlink:title=" ">
<polygon fill="#e0e0e0" stroke="#999999" points="885.5,-24.5 740.5,-24.5 740.5,-5.5 885.5,-5.5 885.5,-24.5"/>
<text text-anchor="middle" x="813" y="-12.5" font-family="Helvetica,sans-Serif" font-size="10.00">Clock/misc_lib_export.hpp</text>
</a>
</g>
</g>
<!-- Node3&#45;&gt;Node4 -->
<g id="edge3_Node000003_Node000004" class="edge">
<title>Node3&#45;&gt;Node4</title>
<g id="a_edge3_Node000003_Node000004"><a xlink:title=" ">
<path fill="none" stroke="#63b8ff" d="M822.84,-141.72C791.79,-136.15 755.64,-123.67 736,-96 728.28,-85.13 729.64,-77.72 736,-66 745.22,-49.02 762.97,-36.91 779.11,-28.87"/>
<polygon fill="#63b8ff" stroke="#63b8ff" points="780.74,-31.97 788.34,-24.59 777.8,-25.62 780.74,-31.97"/>
</a>
</g>
</g>
<!-- Node3&#45;&gt;Node5 -->
<g id="edge4_Node000003_Node000005" class="edge">
<title>Node3&#45;&gt;Node5</title>
<g id="a_edge4_Node000003_Node000005"><a xlink:title=" ">
<path fill="none" stroke="#63b8ff" d="M935.17,-141.99C1007.6,-135.99 1137.08,-122.43 1245,-96 1247.66,-95.35 1250.39,-94.58 1253.11,-93.75"/>
<polygon fill="#63b8ff" stroke="#63b8ff" points="1254.41,-97 1262.79,-90.52 1252.2,-90.36 1254.41,-97"/>
</a>
</g>
</g>
<!-- Node3&#45;&gt;Node6 -->
<g id="edge5_Node000003_Node000006" class="edge">
<title>Node3&#45;&gt;Node6</title>
<g id="a_edge5_Node000003_Node000006"><a xlink:title=" ">
<path fill="none" stroke="#63b8ff" d="M822.75,-144.47C687.18,-139.42 332.88,-118.12 53,-30 51.56,-29.55 50.09,-29.04 48.62,-28.5"/>
<polygon fill="#63b8ff" stroke="#63b8ff" points="49.67,-25.15 39.09,-24.6 47.02,-31.63 49.67,-25.15"/>
</a>
</g>
</g>
<!-- Node7 -->
<g id="Node000007" class="node">
<title>Node7</title>
<g id="a_Node000007"><a xlink:title=" ">
<polygon fill="#e0e0e0" stroke="#999999" points="1245.5,-24.5 1172.5,-24.5 1172.5,-5.5 1245.5,-5.5 1245.5,-24.5"/>
<text text-anchor="middle" x="1209" y="-12.5" font-family="Helvetica,sans-Serif" font-size="10.00">string_view</text>
</a>
</g>
</g>
<!-- Node3&#45;&gt;Node7 -->
<g id="edge6_Node000003_Node000007" class="edge">
<title>Node3&#45;&gt;Node7</title>
<g id="a_edge6_Node000003_Node000007"><a xlink:title=" ">
<path fill="none" stroke="#63b8ff" d="M883.48,-131.78C890.08,-113.37 904.26,-81.78 928,-66 1016,-7.51 1059.97,-53.44 1163,-30 1166.44,-29.22 1170,-28.31 1173.55,-27.34"/>
<polygon fill="#63b8ff" stroke="#63b8ff" points="1174.75,-30.64 1183.39,-24.51 1172.81,-23.91 1174.75,-30.64"/>
</a>
</g>
</g>
<!-- Node8 -->
<g id="Node000008" class="node">
<title>Node8</title>
<g id="a_Node000008"><a xlink:title=" ">
<polygon fill="#e0e0e0" stroke="#999999" points="722,-30 554,-30 554,0 722,0 722,-30"/>
<text text-anchor="start" x="562" y="-18" font-family="Helvetica,sans-Serif" font-size="10.00">boost/date_time/posix</text>
<text text-anchor="middle" x="638" y="-7" font-family="Helvetica,sans-Serif" font-size="10.00">_time/posix_time_duration.hpp</text>
</a>
</g>
</g>
<!-- Node3&#45;&gt;Node8 -->
<g id="edge7_Node000003_Node000008" class="edge">
<title>Node3&#45;&gt;Node8</title>
<g id="a_edge7_Node000003_Node000008"><a xlink:title=" ">
<path fill="none" stroke="#63b8ff" d="M822.85,-133.5C793.11,-125.44 756.69,-113.2 727,-96 700.03,-80.38 674.1,-55.59 657.26,-37.75"/>
<polygon fill="#63b8ff" stroke="#63b8ff" points="659.55,-35.06 650.19,-30.09 654.41,-39.81 659.55,-35.06"/>
</a>
</g>
</g>
<!-- Node9 -->
<g id="Node000009" class="node">
<title>Node9</title>
<g id="a_Node000009"><a xlink:title=" ">
<polygon fill="#e0e0e0" stroke="#999999" points="1092.5,-96 937.5,-96 937.5,-66 1092.5,-66 1092.5,-96"/>
<text text-anchor="start" x="945.5" y="-84" font-family="Helvetica,sans-Serif" font-size="10.00">boost/date_time/posix</text>
<text text-anchor="middle" x="1015" y="-73" font-family="Helvetica,sans-Serif" font-size="10.00">_time/posix_time_types.hpp</text>
</a>
</g>
</g>
<!-- Node3&#45;&gt;Node9 -->
<g id="edge8_Node000003_Node000009" class="edge">
<title>Node3&#45;&gt;Node9</title>
<g id="a_edge8_Node000003_Node000009"><a xlink:title=" ">
<path fill="none" stroke="#63b8ff" d="M908.85,-131.95C928.6,-122.66 954.7,-110.38 976.08,-100.32"/>
<polygon fill="#63b8ff" stroke="#63b8ff" points="977.67,-103.44 985.22,-96.01 974.69,-97.1 977.67,-103.44"/>
</a>
</g>
</g>
<!-- Node10 -->
<g id="Node000010" class="node">
<title>Node10</title>
<g id="a_Node000010"><a xlink:title=" ">
<polygon fill="#e0e0e0" stroke="#999999" points="1235.5,-96 1110.5,-96 1110.5,-66 1235.5,-66 1235.5,-96"/>
<text text-anchor="start" x="1118.5" y="-84" font-family="Helvetica,sans-Serif" font-size="10.00">boost/date_time/posix</text>
<text text-anchor="middle" x="1173" y="-73" font-family="Helvetica,sans-Serif" font-size="10.00">_time/ptime.hpp</text>
</a>
</g>
</g>
<!-- Node3&#45;&gt;Node10 -->
<g id="edge9_Node000003_Node000010" class="edge">
<title>Node3&#45;&gt;Node10</title>
<g id="a_edge9_Node000003_Node000010"><a xlink:title=" ">
<path fill="none" stroke="#63b8ff" d="M935.34,-133.74C982.31,-123.51 1049.54,-108.87 1100.52,-97.78"/>
<polygon fill="#63b8ff" stroke="#63b8ff" points="1101.46,-101.15 1110.49,-95.61 1099.97,-94.31 1101.46,-101.15"/>
</a>
</g>
</g>
<!-- Node3&#45;&gt;Node11 -->
<g id="edge10_Node000003_Node000011" class="edge">
<title>Node3&#45;&gt;Node11</title>
<g id="a_edge10_Node000003_Node000011"><a xlink:title=" ">
<path fill="none" stroke="#63b8ff" d="M864.35,-131.8C854.06,-121.82 840.28,-108.46 829.59,-98.09"/>
<polygon fill="#63b8ff" stroke="#63b8ff" points="831.74,-95.29 822.12,-90.84 826.86,-100.32 831.74,-95.29"/>
</a>
</g>
</g>
<!-- Node14 -->
<g id="Node000014" class="node">
<title>Node14</title>
<g id="a_Node000014"><a xlink:href="time_8hpp.html" target="_top" xlink:title="Time data structure and utilities.">
<polygon fill="white" stroke="#666666" points="547,-90.5 413,-90.5 413,-71.5 547,-71.5 547,-90.5"/>
<text text-anchor="middle" x="480" y="-78.5" font-family="Helvetica,sans-Serif" font-size="10.00">Clock/misc_lib/time.hpp</text>
</a>
</g>
</g>
<!-- Node3&#45;&gt;Node14 -->
<g id="edge15_Node000003_Node000014" class="edge">
<title>Node3&#45;&gt;Node14</title>
<g id="a_edge15_Node000003_Node000014"><a xlink:title=" ">
<path fill="none" stroke="#63b8ff" d="M822.68,-136.97C748.98,-125.14 620.17,-104.48 543.21,-92.14"/>
<polygon fill="#63b8ff" stroke="#63b8ff" points="543.6,-88.66 533.17,-90.53 542.49,-95.57 543.6,-88.66"/>
</a>
</g>
</g>
<!-- Node11&#45;&gt;Node4 -->
<g id="edge11_Node000011_Node000004" class="edge">
<title>Node11&#45;&gt;Node4</title>
<g id="a_edge11_Node000011_Node000004"><a xlink:title=" ">
<path fill="none" stroke="#63b8ff" d="M813,-71.37C813,-62.16 813,-47.29 813,-35.27"/>
<polygon fill="#63b8ff" stroke="#63b8ff" points="816.5,-34.91 813,-24.91 809.5,-34.91 816.5,-34.91"/>
</a>
</g>
</g>
<!-- Node11&#45;&gt;Node7 -->
<g id="edge12_Node000011_Node000007" class="edge">
<title>Node11&#45;&gt;Node7</title>
<g id="a_edge12_Node000011_Node000007"><a xlink:title=" ">
<path fill="none" stroke="#63b8ff" d="M861.08,-71.5C872.21,-69.61 884.01,-67.68 895,-66 1013.81,-47.88 1045.57,-55.58 1163,-30 1166.45,-29.25 1170.01,-28.36 1173.56,-27.41"/>
<polygon fill="#63b8ff" stroke="#63b8ff" points="1174.75,-30.71 1183.4,-24.59 1172.83,-23.98 1174.75,-30.71"/>
</a>
</g>
</g>
<!-- Node12 -->
<g id="Node000012" class="node">
<title>Node12</title>
<g id="a_Node000012"><a xlink:title=" ">
<polygon fill="#e0e0e0" stroke="#999999" points="1020,-30 904,-30 904,0 1020,0 1020,-30"/>
<text text-anchor="start" x="912" y="-18" font-family="Helvetica,sans-Serif" font-size="10.00">boost/multiprecision</text>
<text text-anchor="middle" x="962" y="-7" font-family="Helvetica,sans-Serif" font-size="10.00">/cpp_bin_float.hpp</text>
</a>
</g>
</g>
<!-- Node11&#45;&gt;Node12 -->
<g id="edge13_Node000011_Node000012" class="edge">
<title>Node11&#45;&gt;Node12</title>
<g id="a_edge13_Node000011_Node000012"><a xlink:title=" ">
<path fill="none" stroke="#63b8ff" d="M833.09,-71.37C855.22,-61.87 891.42,-46.32 919.83,-34.11"/>
<polygon fill="#63b8ff" stroke="#63b8ff" points="921.33,-37.28 929.14,-30.12 918.57,-30.85 921.33,-37.28"/>
</a>
</g>
</g>
<!-- Node13 -->
<g id="Node000013" class="node">
<title>Node13</title>
<g id="a_Node000013"><a xlink:title=" ">
<polygon fill="#e0e0e0" stroke="#999999" points="1154,-30 1038,-30 1038,0 1154,0 1154,-30"/>
<text text-anchor="start" x="1046" y="-18" font-family="Helvetica,sans-Serif" font-size="10.00">boost/multiprecision</text>
<text text-anchor="middle" x="1096" y="-7" font-family="Helvetica,sans-Serif" font-size="10.00">/fwd.hpp</text>
</a>
</g>
</g>
<!-- Node11&#45;&gt;Node13 -->
<g id="edge14_Node000011_Node000013" class="edge">
<title>Node11&#45;&gt;Node13</title>
<g id="a_edge14_Node000011_Node000013"><a xlink:title=" ">
<path fill="none" stroke="#63b8ff" d="M850.87,-71.44C896.13,-61.2 972.68,-43.89 1028.22,-31.33"/>
<polygon fill="#63b8ff" stroke="#63b8ff" points="1029,-34.74 1037.98,-29.12 1027.46,-27.91 1029,-34.74"/>
</a>
</g>
</g>
<!-- Node14&#45;&gt;Node4 -->
<g id="edge16_Node000014_Node000004" class="edge">
<title>Node14&#45;&gt;Node4</title>
<g id="a_edge16_Node000014_Node000004"><a xlink:title=" ">
<path fill="none" stroke="#63b8ff" d="M524.56,-71.44C585.13,-59.8 693.33,-39 758.61,-26.45"/>
<polygon fill="#63b8ff" stroke="#63b8ff" points="759.54,-29.84 768.7,-24.51 758.22,-22.96 759.54,-29.84"/>
</a>
</g>
</g>
<!-- Node14&#45;&gt;Node6 -->
<g id="edge17_Node000014_Node000006" class="edge">
<title>Node14&#45;&gt;Node6</title>
<g id="a_edge17_Node000014_Node000006"><a xlink:title=" ">
<path fill="none" stroke="#63b8ff" d="M412.95,-74.68C310.29,-66.1 119.08,-48.32 53,-30 51.32,-29.53 49.61,-28.99 47.91,-28.39"/>
<polygon fill="#63b8ff" stroke="#63b8ff" points="48.96,-25.04 38.38,-24.53 46.33,-31.53 48.96,-25.04"/>
</a>
</g>
</g>
<!-- Node14&#45;&gt;Node8 -->
<g id="edge19_Node000014_Node000008" class="edge">
<title>Node14&#45;&gt;Node8</title>
<g id="a_edge19_Node000014_Node000008"><a xlink:title=" ">
<path fill="none" stroke="#63b8ff" d="M501.31,-71.37C524.87,-61.82 563.49,-46.18 593.68,-33.95"/>
<polygon fill="#63b8ff" stroke="#63b8ff" points="595.2,-37.11 603.15,-30.12 592.57,-30.63 595.2,-37.11"/>
</a>
</g>
</g>
<!-- Node15 -->
<g id="Node000015" class="node">
<title>Node15</title>
<g id="a_Node000015"><a xlink:title=" ">
<polygon fill="#e0e0e0" stroke="#999999" points="535.5,-30 378.5,-30 378.5,0 535.5,0 535.5,-30"/>
<text text-anchor="start" x="386.5" y="-18" font-family="Helvetica,sans-Serif" font-size="10.00">boost/date_time/posix</text>
<text text-anchor="middle" x="457" y="-7" font-family="Helvetica,sans-Serif" font-size="10.00">_time/posix_time_config.hpp</text>
</a>
</g>
</g>
<!-- Node14&#45;&gt;Node15 -->
<g id="edge18_Node000014_Node000015" class="edge">
<title>Node14&#45;&gt;Node15</title>
<g id="a_edge18_Node000014_Node000015"><a xlink:title=" ">
<path fill="none" stroke="#63b8ff" d="M476.9,-71.37C474.01,-63.32 469.56,-50.94 465.6,-39.93"/>
<polygon fill="#63b8ff" stroke="#63b8ff" points="468.84,-38.59 462.16,-30.36 462.25,-40.95 468.84,-38.59"/>
</a>
</g>
</g>
<!-- Node16 -->
<g id="Node000016" class="node">
<title>Node16</title>
<g id="a_Node000016"><a xlink:title=" ">
<polygon fill="#e0e0e0" stroke="#999999" points="210,-30 62,-30 62,0 210,0 210,-30"/>
<text text-anchor="start" x="70" y="-18" font-family="Helvetica,sans-Serif" font-size="10.00">boost/date_time/posix</text>
<text text-anchor="middle" x="136" y="-7" font-family="Helvetica,sans-Serif" font-size="10.00">_time/time_formatters.hpp</text>
</a>
</g>
</g>
<!-- Node14&#45;&gt;Node16 -->
<g id="edge20_Node000014_Node000016" class="edge">
<title>Node14&#45;&gt;Node16</title>
<g id="a_edge20_Node000014_Node000016"><a xlink:title=" ">
<path fill="none" stroke="#63b8ff" d="M433.96,-71.44C379.46,-61.29 287.59,-44.2 220.25,-31.67"/>
<polygon fill="#63b8ff" stroke="#63b8ff" points="220.55,-28.17 210.08,-29.78 219.27,-35.05 220.55,-28.17"/>
</a>
</g>
</g>
<!-- Node17 -->
<g id="Node000017" class="node">
<title>Node17</title>
<g id="a_Node000017"><a xlink:title=" ">
<polygon fill="#e0e0e0" stroke="#999999" points="360,-30 228,-30 228,0 360,0 360,-30"/>
<text text-anchor="start" x="236" y="-18" font-family="Helvetica,sans-Serif" font-size="10.00">boost/date_time/posix</text>
<text text-anchor="middle" x="294" y="-7" font-family="Helvetica,sans-Serif" font-size="10.00">_time/time_parsers.hpp</text>
</a>
</g>
</g>
<!-- Node14&#45;&gt;Node17 -->
<g id="edge21_Node000014_Node000017" class="edge">
<title>Node14&#45;&gt;Node17</title>
<g id="a_edge21_Node000014_Node000017"><a xlink:title=" ">
<path fill="none" stroke="#63b8ff" d="M454.92,-71.37C426.82,-61.7 380.53,-45.77 344.8,-33.48"/>
<polygon fill="#63b8ff" stroke="#63b8ff" points="345.62,-30.06 335.02,-30.12 343.34,-36.68 345.62,-30.06"/>
</a>
</g>
</g>
<!-- Node18&#45;&gt;Node3 -->
<g id="edge26_Node000018_Node000003" class="edge">
<title>Node18&#45;&gt;Node3</title>
<g id="a_edge26_Node000018_Node000003"><a xlink:title=" ">
<path fill="none" stroke="#63b8ff" d="M834.54,-263.56C837.16,-249.35 843.06,-220.88 852,-198 855.55,-188.92 860.38,-179.4 864.97,-171.13"/>
<polygon fill="#63b8ff" stroke="#63b8ff" points="868.03,-172.84 869.98,-162.42 861.96,-169.35 868.03,-172.84"/>
</a>
</g>
</g>
<!-- Node18&#45;&gt;Node11 -->
<g id="edge27_Node000018_Node000011" class="edge">
<title>Node18&#45;&gt;Node11</title>
<g id="a_edge27_Node000018_Node000011"><a xlink:title=" ">
<path fill="none" stroke="#63b8ff" d="M831.06,-263.96C826.96,-245.49 817.52,-200.38 814,-162 812.1,-141.3 812.08,-117.46 812.39,-101.22"/>
<polygon fill="#63b8ff" stroke="#63b8ff" points="815.9,-100.99 812.65,-90.9 808.9,-100.81 815.9,-100.99"/>
</a>
</g>
</g>
<!-- Node18&#45;&gt;Node14 -->
<g id="edge36_Node000018_Node000014" class="edge">
<title>Node18&#45;&gt;Node14</title>
<g id="a_edge36_Node000018_Node000014"><a xlink:title=" ">
<path fill="none" stroke="#63b8ff" d="M799.76,-263.94C774.19,-256.55 738.52,-244.46 710,-228 652.63,-194.89 652.35,-166.82 596,-132 570.37,-116.17 538.84,-102.93 515.13,-94.06"/>
<polygon fill="#63b8ff" stroke="#63b8ff" points="516.08,-90.68 505.48,-90.53 513.67,-97.25 516.08,-90.68"/>
</a>
</g>
</g>
<!-- Node19 -->
<g id="Node000019" class="node">
<title>Node19</title>
<g id="a_Node000019"><a xlink:title=" ">
<polygon fill="#e0e0e0" stroke="#999999" points="925,-222.5 861,-222.5 861,-203.5 925,-203.5 925,-222.5"/>
<text text-anchor="middle" x="893" y="-210.5" font-family="Helvetica,sans-Serif" font-size="10.00">algorithm</text>
</a>
</g>
</g>
<!-- Node18&#45;&gt;Node19 -->
<g id="edge23_Node000018_Node000019" class="edge">
<title>Node18&#45;&gt;Node19</title>
<g id="a_edge23_Node000018_Node000019"><a xlink:title=" ">
<path fill="none" stroke="#63b8ff" d="M841.85,-263.87C850.98,-254.97 865.42,-240.89 876.64,-229.95"/>
<polygon fill="#63b8ff" stroke="#63b8ff" points="879.39,-232.15 884.11,-222.67 874.51,-227.14 879.39,-232.15"/>
</a>
</g>
</g>
<!-- Node18&#45;&gt;Node20 -->
<g id="edge24_Node000018_Node000020" class="edge">
<title>Node18&#45;&gt;Node20</title>
<g id="a_edge24_Node000018_Node000020"><a xlink:title=" ">
<path fill="none" stroke="#63b8ff" d="M853.21,-263.99C876.68,-254.12 915.61,-237.73 942.46,-226.43"/>
<polygon fill="#63b8ff" stroke="#63b8ff" points="943.9,-229.62 951.76,-222.52 941.19,-223.17 943.9,-229.62"/>
</a>
</g>
</g>
<!-- Node21 -->
<g id="Node000021" class="node">
<title>Node21</title>
<g id="a_Node000021"><a xlink:title=" ">
<polygon fill="#e0e0e0" stroke="#999999" points="766.5,-222.5 719.5,-222.5 719.5,-203.5 766.5,-203.5 766.5,-222.5"/>
<text text-anchor="middle" x="743" y="-210.5" font-family="Helvetica,sans-Serif" font-size="10.00">vector</text>
</a>
</g>
</g>
<!-- Node18&#45;&gt;Node21 -->
<g id="edge25_Node000018_Node000021" class="edge">
<title>Node18&#45;&gt;Node21</title>
<g id="a_edge25_Node000018_Node000021"><a xlink:title=" ">
<path fill="none" stroke="#63b8ff" d="M819.72,-263.87C805.36,-254.54 782.24,-239.51 765.13,-228.38"/>
<polygon fill="#63b8ff" stroke="#63b8ff" points="766.63,-225.18 756.33,-222.67 762.81,-231.05 766.63,-225.18"/>
</a>
</g>
</g>
<!-- Node18&#45;&gt;Node22 -->
<g id="edge28_Node000018_Node000022" class="edge">
<title>Node18&#45;&gt;Node22</title>
<g id="a_edge28_Node000018_Node000022"><a xlink:title=" ">
<path fill="none" stroke="#63b8ff" d="M793.3,-263.99C748.71,-254.44 675.71,-238.79 623.24,-227.55"/>
<polygon fill="#63b8ff" stroke="#63b8ff" points="623.87,-224.11 613.36,-225.43 622.4,-230.95 623.87,-224.11"/>
</a>
</g>
</g>
<!-- Node22&#45;&gt;Node3 -->
<g id="edge34_Node000022_Node000003" class="edge">
<title>Node22&#45;&gt;Node3</title>
<g id="a_edge34_Node000022_Node000003"><a xlink:title=" ">
<path fill="none" stroke="#63b8ff" d="M613.03,-201.36C667.88,-190.36 753.64,-173.15 812.88,-161.27"/>
<polygon fill="#63b8ff" stroke="#63b8ff" points="813.77,-164.66 822.88,-159.26 812.39,-157.79 813.77,-164.66"/>
</a>
</g>
</g>
<!-- Node22&#45;&gt;Node4 -->
<g id="edge29_Node000022_Node000004" class="edge">
<title>Node22&#45;&gt;Node4</title>
<g id="a_edge29_Node000022_Node000004"><a xlink:title=" ">
<path fill="none" stroke="#63b8ff" d="M572.83,-197.78C587.99,-181.28 614.29,-153.56 639,-132 675.83,-99.85 686.24,-93 727,-66 746.92,-52.8 770.44,-39.26 787.83,-29.61"/>
<polygon fill="#63b8ff" stroke="#63b8ff" points="789.74,-32.56 796.81,-24.67 786.36,-26.42 789.74,-32.56"/>
</a>
</g>
</g>
<!-- Node22&#45;&gt;Node6 -->
<g id="edge31_Node000022_Node000006" class="edge">
<title>Node22&#45;&gt;Node6</title>
<g id="a_edge31_Node000022_Node000006"><a xlink:title=" ">
<path fill="none" stroke="#63b8ff" d="M506.85,-211.87C402.84,-210.69 176.97,-203.29 113,-162 71.31,-135.09 82.63,-107.87 56,-66 48.91,-54.86 40.58,-42.59 33.94,-33"/>
<polygon fill="#63b8ff" stroke="#63b8ff" points="36.77,-30.94 28.18,-24.74 31.03,-34.95 36.77,-30.94"/>
</a>
</g>
</g>
<!-- Node23 -->
<g id="Node000023" class="node">
<title>Node23</title>
<g id="a_Node000023"><a xlink:title=" ">
<polygon fill="#e0e0e0" stroke="#999999" points="587,-156.5 533,-156.5 533,-137.5 587,-137.5 587,-156.5"/>
<text text-anchor="middle" x="560" y="-144.5" font-family="Helvetica,sans-Serif" font-size="10.00">random</text>
</a>
</g>
</g>
<!-- Node22&#45;&gt;Node23 -->
<g id="edge30_Node000022_Node000023" class="edge">
<title>Node22&#45;&gt;Node23</title>
<g id="a_edge30_Node000022_Node000023"><a xlink:title=" ">
<path fill="none" stroke="#63b8ff" d="M560,-197.8C560,-188.7 560,-176.79 560,-166.9"/>
<polygon fill="#63b8ff" stroke="#63b8ff" points="563.5,-166.84 560,-156.84 556.5,-166.84 563.5,-166.84"/>
</a>
</g>
</g>
<!-- Node24 -->
<g id="Node000024" class="node">
<title>Node24</title>
<g id="a_Node000024"><a xlink:title=" ">
<polygon fill="#e0e0e0" stroke="#999999" points="243.5,-156.5 122.5,-156.5 122.5,-137.5 243.5,-137.5 243.5,-156.5"/>
<text text-anchor="middle" x="183" y="-144.5" font-family="Helvetica,sans-Serif" font-size="10.00">boost/json/object.hpp</text>
</a>
</g>
</g>
<!-- Node22&#45;&gt;Node24 -->
<g id="edge32_Node000022_Node000024" class="edge">
<title>Node22&#45;&gt;Node24</title>
<g id="a_edge32_Node000022_Node000024"><a xlink:title=" ">
<path fill="none" stroke="#63b8ff" d="M506.75,-204.01C445.26,-194.62 341.13,-178.27 252,-162 246.15,-160.93 240.02,-159.76 233.94,-158.57"/>
<polygon fill="#63b8ff" stroke="#63b8ff" points="234.3,-155.07 223.81,-156.56 232.94,-161.94 234.3,-155.07"/>
</a>
</g>
</g>
<!-- Node25 -->
<g id="Node000025" class="node">
<title>Node25</title>
<g id="a_Node000025"><a xlink:title=" ">
<polygon fill="#e0e0e0" stroke="#999999" points="340.5,-156.5 261.5,-156.5 261.5,-137.5 340.5,-137.5 340.5,-156.5"/>
<text text-anchor="middle" x="301" y="-144.5" font-family="Helvetica,sans-Serif" font-size="10.00">fmt/format.h</text>
</a>
</g>
</g>
<!-- Node22&#45;&gt;Node25 -->
<g id="edge33_Node000022_Node000025" class="edge">
<title>Node22&#45;&gt;Node25</title>
<g id="a_edge33_Node000022_Node000025"><a xlink:title=" ">
<path fill="none" stroke="#63b8ff" d="M506.76,-200.01C464.21,-190.27 403.11,-175.9 350,-162 346.65,-161.12 343.17,-160.18 339.69,-159.23"/>
<polygon fill="#63b8ff" stroke="#63b8ff" points="340.53,-155.83 329.96,-156.51 338.65,-162.57 340.53,-155.83"/>
</a>
</g>
</g>
<!-- Node26 -->
<g id="Node000026" class="node">
<title>Node26</title>
<g id="a_Node000026"><a xlink:title=" ">
<polygon fill="#e0e0e0" stroke="#999999" points="515,-156.5 359,-156.5 359,-137.5 515,-137.5 515,-156.5"/>
<text text-anchor="middle" x="437" y="-144.5" font-family="Helvetica,sans-Serif" font-size="10.00">internal_use_only/config.hpp</text>
</a>
</g>
</g>
<!-- Node22&#45;&gt;Node26 -->
<g id="edge35_Node000022_Node000026" class="edge">
<title>Node22&#45;&gt;Node26</title>
<g id="a_edge35_Node000022_Node000026"><a xlink:title=" ">
<path fill="none" stroke="#63b8ff" d="M533.01,-197.95C512.01,-187.03 483.07,-171.97 462.47,-161.25"/>
<polygon fill="#63b8ff" stroke="#63b8ff" points="463.86,-158.03 453.37,-156.52 460.62,-164.24 463.86,-158.03"/>
</a>
</g>
</g>
</g>
</svg>
