<?xml version="1.0" encoding="UTF-8" standalone="no"?>
<!DOCTYPE svg PUBLIC "-//W3C//DTD SVG 1.1//EN"
 "http://www.w3.org/Graphics/SVG/1.1/DTD/svg11.dtd">
<!-- Generated by graphviz version 2.43.0 (0)
 -->
<!-- Title: src/si3_sim/si3_sim.cpp Pages: 1 -->
<svg width="1472pt" height="412pt"
 viewBox="0.00 0.00 1471.50 412.00" xmlns="http://www.w3.org/2000/svg" xmlns:xlink="http://www.w3.org/1999/xlink">
<g id="graph0" class="graph" transform="scale(1 1) rotate(0) translate(4 408)">
<title>src/si3_sim/si3_sim.cpp</title>
<!-- Node1 -->
<g id="Node000001" class="node">
<title>Node1</title>
<g id="a_Node000001"><a xlink:title="Implementation of the Si3Sim class.">
<polygon fill="#999999" stroke="#666666" points="1067,-404 935,-404 935,-385 1067,-385 1067,-404"/>
<text text-anchor="middle" x="1001" y="-392" font-family="Helvetica,sans-Serif" font-size="10.00">src/si3_sim/si3_sim.cpp</text>
</a>
</g>
</g>
<!-- Node2 -->
<g id="Node000002" class="node">
<title>Node2</title>
<g id="a_Node000002"><a xlink:href="si3__sim_8hpp.html" target="_top" xlink:title="Header file for the Si3Sim class.">
<polygon fill="white" stroke="#666666" points="954,-343.5 808,-343.5 808,-324.5 954,-324.5 954,-343.5"/>
<text text-anchor="middle" x="881" y="-331.5" font-family="Helvetica,sans-Serif" font-size="10.00">Clock/si3_sim/si3_sim.hpp</text>
</a>
</g>
</g>
<!-- Node1&#45;&gt;Node2 -->
<g id="edge1_Node000001_Node000002" class="edge">
<title>Node1&#45;&gt;Node2</title>
<g id="a_edge1_Node000001_Node000002"><a xlink:title=" ">
<path fill="none" stroke="#63b8ff" d="M983.55,-384.99C963.64,-375.29 930.86,-359.31 907.73,-348.03"/>
<polygon fill="#63b8ff" stroke="#63b8ff" points="908.99,-344.75 898.47,-343.52 905.93,-351.04 908.99,-344.75"/>
</a>
</g>
</g>
<!-- Node3 -->
<g id="Node000003" class="node">
<title>Node3</title>
<g id="a_Node000003"><a xlink:href="date__time_8hpp_source.html" target="_top" xlink:title=" ">
<polygon fill="white" stroke="#666666" points="854,-162 742,-162 742,-132 854,-132 854,-162"/>
<text text-anchor="start" x="750" y="-150" font-family="Helvetica,sans-Serif" font-size="10.00">Clock/misc_lib/date</text>
<text text-anchor="middle" x="798" y="-139" font-family="Helvetica,sans-Serif" font-size="10.00">_time.hpp</text>
</a>
</g>
</g>
<!-- Node1&#45;&gt;Node3 -->
<g id="edge44_Node000001_Node000003" class="edge">
<title>Node1&#45;&gt;Node3</title>
<g id="a_edge44_Node000001_Node000003"><a xlink:title=" ">
<path fill="none" stroke="#63b8ff" d="M1001.07,-384.72C1000.82,-354.44 995.88,-253.24 943,-198 922.34,-176.41 891.93,-164.15 864.29,-157.17"/>
<polygon fill="#63b8ff" stroke="#63b8ff" points="864.78,-153.69 854.25,-154.84 863.2,-160.51 864.78,-153.69"/>
</a>
</g>
</g>
<!-- Node5 -->
<g id="Node000005" class="node">
<title>Node5</title>
<g id="a_Node000005"><a xlink:title=" ">
<polygon fill="#e0e0e0" stroke="#999999" points="1241,-90.5 1181,-90.5 1181,-71.5 1241,-71.5 1241,-90.5"/>
<text text-anchor="middle" x="1211" y="-78.5" font-family="Helvetica,sans-Serif" font-size="10.00">iostream</text>
</a>
</g>
</g>
<!-- Node1&#45;&gt;Node5 -->
<g id="edge40_Node000001_Node000005" class="edge">
<title>Node1&#45;&gt;Node5</title>
<g id="a_edge40_Node000001_Node000005"><a xlink:title=" ">
<path fill="none" stroke="#63b8ff" d="M1003.33,-384.91C1008.4,-365.44 1020,-316.34 1020,-274.5 1020,-274.5 1020,-274.5 1020,-212 1020,-173.29 1128.55,-119.07 1181.98,-94.72"/>
<polygon fill="#63b8ff" stroke="#63b8ff" points="1183.6,-97.83 1191.28,-90.53 1180.72,-91.44 1183.6,-97.83"/>
</a>
</g>
</g>
<!-- Node6 -->
<g id="Node000006" class="node">
<title>Node6</title>
<g id="a_Node000006"><a xlink:title=" ">
<polygon fill="#e0e0e0" stroke="#999999" points="44,-24.5 0,-24.5 0,-5.5 44,-5.5 44,-24.5"/>
<text text-anchor="middle" x="22" y="-12.5" font-family="Helvetica,sans-Serif" font-size="10.00">string</text>
</a>
</g>
</g>
<!-- Node1&#45;&gt;Node6 -->
<g id="edge42_Node000001_Node000006" class="edge">
<title>Node1&#45;&gt;Node6</title>
<g id="a_edge42_Node000001_Node000006"><a xlink:title=" ">
<path fill="none" stroke="#63b8ff" d="M934.76,-392.53C712.77,-388.42 9,-368 9,-274.5 9,-274.5 9,-274.5 9,-146 9,-106.27 15.09,-60.04 18.93,-34.81"/>
<polygon fill="#63b8ff" stroke="#63b8ff" points="22.41,-35.22 20.51,-24.8 15.49,-34.13 22.41,-35.22"/>
</a>
</g>
</g>
<!-- Node11 -->
<g id="Node000011" class="node">
<title>Node11</title>
<g id="a_Node000011"><a xlink:href="quad_8hpp.html" target="_top" xlink:title="Quad precision floating&#45;point type and utilities.">
<polygon fill="white" stroke="#666666" points="731.5,-90.5 596.5,-90.5 596.5,-71.5 731.5,-71.5 731.5,-90.5"/>
<text text-anchor="middle" x="664" y="-78.5" font-family="Helvetica,sans-Serif" font-size="10.00">Clock/misc_lib/quad.hpp</text>
</a>
</g>
</g>
<!-- Node1&#45;&gt;Node11 -->
<g id="edge45_Node000001_Node000011" class="edge">
<title>Node1&#45;&gt;Node11</title>
<g id="a_edge45_Node000001_Node000011"><a xlink:title=" ">
<path fill="none" stroke="#63b8ff" d="M934.89,-388.2C886.85,-382.63 821.06,-371.39 767,-349 718.82,-329.05 708.46,-318.21 670,-283 646.7,-261.67 635.62,-257.75 625,-228 620.52,-215.44 622.85,-211.16 625,-198 630.86,-162.16 646.28,-122.47 655.88,-100.04"/>
<polygon fill="#63b8ff" stroke="#63b8ff" points="659.14,-101.34 659.95,-90.77 652.73,-98.53 659.14,-101.34"/>
</a>
</g>
</g>
<!-- Node17 -->
<g id="Node000017" class="node">
<title>Node17</title>
<g id="a_Node000017"><a xlink:href="config_8hpp.html" target="_top" xlink:title="Configuration structure for the Si3 simulation.">
<polygon fill="white" stroke="#666666" points="816.5,-283 679.5,-283 679.5,-264 816.5,-264 816.5,-283"/>
<text text-anchor="middle" x="748" y="-271" font-family="Helvetica,sans-Serif" font-size="10.00">Clock/si3_sim/config.hpp</text>
</a>
</g>
</g>
<!-- Node1&#45;&gt;Node17 -->
<g id="edge47_Node000001_Node000017" class="edge">
<title>Node1&#45;&gt;Node17</title>
<g id="a_edge47_Node000001_Node000017"><a xlink:title=" ">
<path fill="none" stroke="#63b8ff" d="M934.74,-391.2C892.76,-386.93 839.04,-376.02 799,-349 778.45,-335.13 763.82,-309.96 755.65,-292.75"/>
<polygon fill="#63b8ff" stroke="#63b8ff" points="758.67,-290.93 751.39,-283.23 752.28,-293.79 758.67,-290.93"/>
</a>
</g>
</g>
<!-- Node21 -->
<g id="Node000021" class="node">
<title>Node21</title>
<g id="a_Node000021"><a xlink:href="run__record_8hpp.html" target="_top" xlink:title="Run record structure and utilities.">
<polygon fill="white" stroke="#666666" points="540,-228 434,-228 434,-198 540,-198 540,-228"/>
<text text-anchor="start" x="442" y="-216" font-family="Helvetica,sans-Serif" font-size="10.00">Clock/misc_lib/run</text>
<text text-anchor="middle" x="487" y="-205" font-family="Helvetica,sans-Serif" font-size="10.00">_record.hpp</text>
</a>
</g>
</g>
<!-- Node1&#45;&gt;Node21 -->
<g id="edge46_Node000001_Node000021" class="edge">
<title>Node1&#45;&gt;Node21</title>
<g id="a_edge46_Node000001_Node000021"><a xlink:title=" ">
<path fill="none" stroke="#63b8ff" d="M934.65,-390.42C817.77,-384.48 584.6,-370.14 554,-349 516.45,-323.05 498.97,-269.79 491.64,-238.48"/>
<polygon fill="#63b8ff" stroke="#63b8ff" points="494.99,-237.43 489.45,-228.4 488.15,-238.92 494.99,-237.43"/>
</a>
</g>
</g>
<!-- Node26 -->
<g id="Node000026" class="node">
<title>Node26</title>
<g id="a_Node000026"><a xlink:title=" ">
<polygon fill="#e0e0e0" stroke="#999999" points="1113.5,-343.5 1048.5,-343.5 1048.5,-324.5 1113.5,-324.5 1113.5,-343.5"/>
<text text-anchor="middle" x="1081" y="-331.5" font-family="Helvetica,sans-Serif" font-size="10.00">exception</text>
</a>
</g>
</g>
<!-- Node1&#45;&gt;Node26 -->
<g id="edge37_Node000001_Node000026" class="edge">
<title>Node1&#45;&gt;Node26</title>
<g id="a_edge37_Node000001_Node000026"><a xlink:title=" ">
<path fill="none" stroke="#63b8ff" d="M1012.8,-384.87C1025.45,-375.62 1045.74,-360.78 1060.91,-349.69"/>
<polygon fill="#63b8ff" stroke="#63b8ff" points="1063.14,-352.4 1069.15,-343.67 1059.01,-346.74 1063.14,-352.4"/>
</a>
</g>
</g>
<!-- Node27 -->
<g id="Node000027" class="node">
<title>Node27</title>
<g id="a_Node000027"><a xlink:title=" ">
<polygon fill="#e0e0e0" stroke="#999999" points="1188,-343.5 1132,-343.5 1132,-324.5 1188,-324.5 1188,-343.5"/>
<text text-anchor="middle" x="1160" y="-331.5" font-family="Helvetica,sans-Serif" font-size="10.00">iomanip</text>
</a>
</g>
</g>
<!-- Node1&#45;&gt;Node27 -->
<g id="edge38_Node000001_Node000027" class="edge">
<title>Node1&#45;&gt;Node27</title>
<g id="a_edge38_Node000001_Node000027"><a xlink:title=" ">
<path fill="none" stroke="#63b8ff" d="M1024.88,-384.89C1049.49,-375.98 1088.97,-361.64 1123,-349 1124.59,-348.41 1126.22,-347.8 1127.87,-347.18"/>
<polygon fill="#63b8ff" stroke="#63b8ff" points="1129.19,-350.43 1137.32,-343.63 1126.73,-343.87 1129.19,-350.43"/>
</a>
</g>
</g>
<!-- Node28 -->
<g id="Node000028" class="node">
<title>Node28</title>
<g id="a_Node000028"><a xlink:title=" ">
<polygon fill="#e0e0e0" stroke="#999999" points="1237.5,-343.5 1206.5,-343.5 1206.5,-324.5 1237.5,-324.5 1237.5,-343.5"/>
<text text-anchor="middle" x="1222" y="-331.5" font-family="Helvetica,sans-Serif" font-size="10.00">ios</text>
</a>
</g>
</g>
<!-- Node1&#45;&gt;Node28 -->
<g id="edge39_Node000001_Node000028" class="edge">
<title>Node1&#45;&gt;Node28</title>
<g id="a_edge39_Node000001_Node000028"><a xlink:title=" ">
<path fill="none" stroke="#63b8ff" d="M1058.46,-384.94C1098.22,-377.94 1151.89,-366.34 1197,-349 1197.71,-348.73 1198.43,-348.43 1199.15,-348.13"/>
<polygon fill="#63b8ff" stroke="#63b8ff" points="1200.92,-351.16 1208.33,-343.58 1197.81,-344.88 1200.92,-351.16"/>
</a>
</g>
</g>
<!-- Node29 -->
<g id="Node000029" class="node">
<title>Node29</title>
<g id="a_Node000029"><a xlink:title=" ">
<polygon fill="#e0e0e0" stroke="#999999" points="1320.5,-343.5 1255.5,-343.5 1255.5,-324.5 1320.5,-324.5 1320.5,-343.5"/>
<text text-anchor="middle" x="1288" y="-331.5" font-family="Helvetica,sans-Serif" font-size="10.00">stdexcept</text>
</a>
</g>
</g>
<!-- Node1&#45;&gt;Node29 -->
<g id="edge41_Node000001_Node000029" class="edge">
<title>Node1&#45;&gt;Node29</title>
<g id="a_edge41_Node000001_Node000029"><a xlink:title=" ">
<path fill="none" stroke="#63b8ff" d="M1062.72,-384.96C1112.81,-377.41 1185.04,-365.09 1247,-349 1249.64,-348.31 1252.35,-347.54 1255.07,-346.72"/>
<polygon fill="#63b8ff" stroke="#63b8ff" points="1256.32,-350 1264.77,-343.61 1254.18,-343.33 1256.32,-350"/>
</a>
</g>
</g>
<!-- Node30 -->
<g id="Node000030" class="node">
<title>Node30</title>
<g id="a_Node000030"><a xlink:title=" ">
<polygon fill="#e0e0e0" stroke="#999999" points="1463.5,-349 1338.5,-349 1338.5,-319 1463.5,-319 1463.5,-349"/>
<text text-anchor="start" x="1346.5" y="-337" font-family="Helvetica,sans-Serif" font-size="10.00">boost/range/algorithm</text>
<text text-anchor="middle" x="1401" y="-326" font-family="Helvetica,sans-Serif" font-size="10.00">/find_if.hpp</text>
</a>
</g>
</g>
<!-- Node1&#45;&gt;Node30 -->
<g id="edge43_Node000001_Node000030" class="edge">
<title>Node1&#45;&gt;Node30</title>
<g id="a_edge43_Node000001_Node000030"><a xlink:title=" ">
<path fill="none" stroke="#63b8ff" d="M1067.03,-385.76C1131.37,-377.94 1232.2,-364.98 1328.42,-349.21"/>
<polygon fill="#63b8ff" stroke="#63b8ff" points="1329.02,-352.66 1338.32,-347.57 1327.88,-345.75 1329.02,-352.66"/>
</a>
</g>
</g>
<!-- Node2&#45;&gt;Node3 -->
<g id="edge2_Node000002_Node000003" class="edge">
<title>Node2&#45;&gt;Node3</title>
<g id="a_edge2_Node000002_Node000003"><a xlink:title=" ">
<path fill="none" stroke="#63b8ff" d="M888.54,-324.36C907.28,-301.79 952.47,-239.92 924,-198 910.23,-177.73 886.82,-165.67 863.89,-158.51"/>
<polygon fill="#63b8ff" stroke="#63b8ff" points="864.69,-155.1 854.12,-155.73 862.78,-161.83 864.69,-155.1"/>
</a>
</g>
</g>
<!-- Node2&#45;&gt;Node17 -->
<g id="edge21_Node000002_Node000017" class="edge">
<title>Node2&#45;&gt;Node17</title>
<g id="a_edge21_Node000002_Node000017"><a xlink:title=" ">
<path fill="none" stroke="#63b8ff" d="M861.66,-324.49C839.3,-314.66 802.29,-298.38 776.6,-287.08"/>
<polygon fill="#63b8ff" stroke="#63b8ff" points="777.93,-283.84 767.36,-283.02 775.11,-290.25 777.93,-283.84"/>
</a>
</g>
</g>
<!-- Node19 -->
<g id="Node000019" class="node">
<title>Node19</title>
<g id="a_Node000019"><a xlink:title=" ">
<polygon fill="#e0e0e0" stroke="#999999" points="915.5,-222.5 858.5,-222.5 858.5,-203.5 915.5,-203.5 915.5,-222.5"/>
<text text-anchor="middle" x="887" y="-210.5" font-family="Helvetica,sans-Serif" font-size="10.00">ostream</text>
</a>
</g>
</g>
<!-- Node2&#45;&gt;Node19 -->
<g id="edge36_Node000002_Node000019" class="edge">
<title>Node2&#45;&gt;Node19</title>
<g id="a_edge36_Node000002_Node000019"><a xlink:title=" ">
<path fill="none" stroke="#63b8ff" d="M881.43,-324.44C882.39,-305.41 884.72,-259.19 886.04,-232.97"/>
<polygon fill="#63b8ff" stroke="#63b8ff" points="889.55,-232.97 886.56,-222.8 882.56,-232.61 889.55,-232.97"/>
</a>
</g>
</g>
<!-- Node4 -->
<g id="Node000004" class="node">
<title>Node4</title>
<g id="a_Node000004"><a xlink:title=" ">
<polygon fill="#e0e0e0" stroke="#999999" points="699.5,-24.5 554.5,-24.5 554.5,-5.5 699.5,-5.5 699.5,-24.5"/>
<text text-anchor="middle" x="627" y="-12.5" font-family="Helvetica,sans-Serif" font-size="10.00">Clock/misc_lib_export.hpp</text>
</a>
</g>
</g>
<!-- Node3&#45;&gt;Node4 -->
<g id="edge3_Node000003_Node000004" class="edge">
<title>Node3&#45;&gt;Node4</title>
<g id="a_edge3_Node000003_Node000004"><a xlink:title=" ">
<path fill="none" stroke="#63b8ff" d="M790.77,-131.81C781.24,-114.29 762.94,-84.55 740,-66 718.4,-48.53 689.74,-35.94 666.68,-27.76"/>
<polygon fill="#63b8ff" stroke="#63b8ff" points="667.78,-24.44 657.18,-24.53 665.52,-31.07 667.78,-24.44"/>
</a>
</g>
</g>
<!-- Node3&#45;&gt;Node5 -->
<g id="edge4_Node000003_Node000005" class="edge">
<title>Node3&#45;&gt;Node5</title>
<g id="a_edge4_Node000003_Node000005"><a xlink:title=" ">
<path fill="none" stroke="#63b8ff" d="M854.13,-142.22C927.89,-136.41 1061.09,-123 1172,-96 1174.66,-95.35 1177.39,-94.59 1180.11,-93.76"/>
<polygon fill="#63b8ff" stroke="#63b8ff" points="1181.41,-97.01 1189.79,-90.53 1179.2,-90.37 1181.41,-97.01"/>
</a>
</g>
</g>
<!-- Node3&#45;&gt;Node6 -->
<g id="edge5_Node000003_Node000006" class="edge">
<title>Node3&#45;&gt;Node6</title>
<g id="a_edge5_Node000003_Node000006"><a xlink:title=" ">
<path fill="none" stroke="#63b8ff" d="M741.98,-143.17C616.04,-135.54 302.1,-109.46 53,-30 51.56,-29.54 50.09,-29.03 48.63,-28.49"/>
<polygon fill="#63b8ff" stroke="#63b8ff" points="49.68,-25.14 39.1,-24.57 47.02,-31.61 49.68,-25.14"/>
</a>
</g>
</g>
<!-- Node7 -->
<g id="Node000007" class="node">
<title>Node7</title>
<g id="a_Node000007"><a xlink:title=" ">
<polygon fill="#e0e0e0" stroke="#999999" points="1111.5,-24.5 1038.5,-24.5 1038.5,-5.5 1111.5,-5.5 1111.5,-24.5"/>
<text text-anchor="middle" x="1075" y="-12.5" font-family="Helvetica,sans-Serif" font-size="10.00">string_view</text>
</a>
</g>
</g>
<!-- Node3&#45;&gt;Node7 -->
<g id="edge6_Node000003_Node000007" class="edge">
<title>Node3&#45;&gt;Node7</title>
<g id="a_edge6_Node000003_Node000007"><a xlink:title=" ">
<path fill="none" stroke="#63b8ff" d="M804,-131.94C812.54,-113.7 830,-82.3 855,-66 921.15,-22.86 952.48,-49.52 1029,-30 1032.15,-29.2 1035.42,-28.31 1038.68,-27.39"/>
<polygon fill="#63b8ff" stroke="#63b8ff" points="1039.74,-30.72 1048.36,-24.56 1037.78,-24.01 1039.74,-30.72"/>
</a>
</g>
</g>
<!-- Node8 -->
<g id="Node000008" class="node">
<title>Node8</title>
<g id="a_Node000008"><a xlink:title=" ">
<polygon fill="#e0e0e0" stroke="#999999" points="886,-30 718,-30 718,0 886,0 886,-30"/>
<text text-anchor="start" x="726" y="-18" font-family="Helvetica,sans-Serif" font-size="10.00">boost/date_time/posix</text>
<text text-anchor="middle" x="802" y="-7" font-family="Helvetica,sans-Serif" font-size="10.00">_time/posix_time_duration.hpp</text>
</a>
</g>
</g>
<!-- Node3&#45;&gt;Node8 -->
<g id="edge7_Node000003_Node000008" class="edge">
<title>Node3&#45;&gt;Node8</title>
<g id="a_edge7_Node000003_Node000008"><a xlink:title=" ">
<path fill="none" stroke="#63b8ff" d="M798.44,-131.84C799.11,-109.86 800.42,-67.27 801.25,-40.3"/>
<polygon fill="#63b8ff" stroke="#63b8ff" points="804.76,-40.25 801.56,-30.14 797.76,-40.03 804.76,-40.25"/>
</a>
</g>
</g>
<!-- Node9 -->
<g id="Node000009" class="node">
<title>Node9</title>
<g id="a_Node000009"><a xlink:title=" ">
<polygon fill="#e0e0e0" stroke="#999999" points="1019.5,-96 864.5,-96 864.5,-66 1019.5,-66 1019.5,-96"/>
<text text-anchor="start" x="872.5" y="-84" font-family="Helvetica,sans-Serif" font-size="10.00">boost/date_time/posix</text>
<text text-anchor="middle" x="942" y="-73" font-family="Helvetica,sans-Serif" font-size="10.00">_time/posix_time_types.hpp</text>
</a>
</g>
</g>
<!-- Node3&#45;&gt;Node9 -->
<g id="edge8_Node000003_Node000009" class="edge">
<title>Node3&#45;&gt;Node9</title>
<g id="a_edge8_Node000003_Node000009"><a xlink:title=" ">
<path fill="none" stroke="#63b8ff" d="M829.6,-131.95C850.61,-122.62 878.4,-110.27 901.09,-100.18"/>
<polygon fill="#63b8ff" stroke="#63b8ff" points="902.76,-103.27 910.47,-96.01 899.91,-96.88 902.76,-103.27"/>
</a>
</g>
</g>
<!-- Node10 -->
<g id="Node000010" class="node">
<title>Node10</title>
<g id="a_Node000010"><a xlink:title=" ">
<polygon fill="#e0e0e0" stroke="#999999" points="1162.5,-96 1037.5,-96 1037.5,-66 1162.5,-66 1162.5,-96"/>
<text text-anchor="start" x="1045.5" y="-84" font-family="Helvetica,sans-Serif" font-size="10.00">boost/date_time/posix</text>
<text text-anchor="middle" x="1100" y="-73" font-family="Helvetica,sans-Serif" font-size="10.00">_time/ptime.hpp</text>
</a>
</g>
</g>
<!-- Node3&#45;&gt;Node10 -->
<g id="edge9_Node000003_Node000010" class="edge">
<title>Node3&#45;&gt;Node10</title>
<g id="a_edge9_Node000003_Node000010"><a xlink:title=" ">
<path fill="none" stroke="#63b8ff" d="M854.1,-134.11C902.97,-123.75 974.16,-108.67 1027.38,-97.39"/>
<polygon fill="#63b8ff" stroke="#63b8ff" points="1028.37,-100.76 1037.43,-95.26 1026.92,-93.91 1028.37,-100.76"/>
</a>
</g>
</g>
<!-- Node3&#45;&gt;Node11 -->
<g id="edge10_Node000003_Node000011" class="edge">
<title>Node3&#45;&gt;Node11</title>
<g id="a_edge10_Node000003_Node000011"><a xlink:title=" ">
<path fill="none" stroke="#63b8ff" d="M768.59,-131.95C745.51,-120.93 713.62,-105.7 691.14,-94.96"/>
<polygon fill="#63b8ff" stroke="#63b8ff" points="692.37,-91.67 681.83,-90.52 689.35,-97.99 692.37,-91.67"/>
</a>
</g>
</g>
<!-- Node13 -->
<g id="Node000013" class="node">
<title>Node13</title>
<g id="a_Node000013"><a xlink:href="time_8hpp.html" target="_top" xlink:title="DateTime data structure and utilities.">
<polygon fill="white" stroke="#666666" points="533,-90.5 399,-90.5 399,-71.5 533,-71.5 533,-90.5"/>
<text text-anchor="middle" x="466" y="-78.5" font-family="Helvetica,sans-Serif" font-size="10.00">Clock/misc_lib/time.hpp</text>
</a>
</g>
</g>
<!-- Node3&#45;&gt;Node13 -->
<g id="edge14_Node000003_Node000013" class="edge">
<title>Node3&#45;&gt;Node13</title>
<g id="a_edge14_Node000003_Node000013"><a xlink:title=" ">
<path fill="none" stroke="#63b8ff" d="M741.68,-135.14C679.86,-123.23 581.3,-104.23 520.3,-92.47"/>
<polygon fill="#63b8ff" stroke="#63b8ff" points="520.58,-88.96 510.1,-90.5 519.26,-95.83 520.58,-88.96"/>
</a>
</g>
</g>
<!-- Node11&#45;&gt;Node4 -->
<g id="edge11_Node000011_Node000004" class="edge">
<title>Node11&#45;&gt;Node4</title>
<g id="a_edge11_Node000011_Node000004"><a xlink:title=" ">
<path fill="none" stroke="#63b8ff" d="M659.01,-71.37C653.47,-61.78 644.37,-46.05 637.29,-33.8"/>
<polygon fill="#63b8ff" stroke="#63b8ff" points="640.18,-31.81 632.15,-24.91 634.12,-35.31 640.18,-31.81"/>
</a>
</g>
</g>
<!-- Node11&#45;&gt;Node7 -->
<g id="edge12_Node000011_Node000007" class="edge">
<title>Node11&#45;&gt;Node7</title>
<g id="a_edge12_Node000011_Node000007"><a xlink:title=" ">
<path fill="none" stroke="#63b8ff" d="M731.5,-74C805.19,-66.71 926.38,-52.49 1029,-30 1032.45,-29.24 1036.01,-28.36 1039.56,-27.4"/>
<polygon fill="#63b8ff" stroke="#63b8ff" points="1040.75,-30.7 1049.4,-24.58 1038.82,-23.97 1040.75,-30.7"/>
</a>
</g>
</g>
<!-- Node12 -->
<g id="Node000012" class="node">
<title>Node12</title>
<g id="a_Node000012"><a xlink:title=" ">
<polygon fill="#e0e0e0" stroke="#999999" points="1020,-30 904,-30 904,0 1020,0 1020,-30"/>
<text text-anchor="start" x="912" y="-18" font-family="Helvetica,sans-Serif" font-size="10.00">boost/multiprecision</text>
<text text-anchor="middle" x="962" y="-7" font-family="Helvetica,sans-Serif" font-size="10.00">/cpp_bin_float.hpp</text>
</a>
</g>
</g>
<!-- Node11&#45;&gt;Node12 -->
<g id="edge13_Node000011_Node000012" class="edge">
<title>Node11&#45;&gt;Node12</title>
<g id="a_edge13_Node000011_Node000012"><a xlink:title=" ">
<path fill="none" stroke="#63b8ff" d="M703.88,-71.44C752.46,-61 835.28,-43.21 894,-30.6"/>
<polygon fill="#63b8ff" stroke="#63b8ff" points="894.9,-33.99 903.94,-28.47 893.43,-27.15 894.9,-33.99"/>
</a>
</g>
</g>
<!-- Node13&#45;&gt;Node4 -->
<g id="edge15_Node000013_Node000004" class="edge">
<title>Node13&#45;&gt;Node4</title>
<g id="a_edge15_Node000013_Node000004"><a xlink:title=" ">
<path fill="none" stroke="#63b8ff" d="M487.71,-71.37C515.52,-60.32 563.9,-41.08 595.68,-28.45"/>
<polygon fill="#63b8ff" stroke="#63b8ff" points="597.37,-31.54 605.37,-24.6 594.79,-25.04 597.37,-31.54"/>
</a>
</g>
</g>
<!-- Node13&#45;&gt;Node6 -->
<g id="edge16_Node000013_Node000006" class="edge">
<title>Node13&#45;&gt;Node6</title>
<g id="a_edge16_Node000013_Node000006"><a xlink:title=" ">
<path fill="none" stroke="#63b8ff" d="M398.98,-78.11C316.27,-74.37 171.95,-63.22 53,-30 51.32,-29.53 49.61,-28.98 47.91,-28.38"/>
<polygon fill="#63b8ff" stroke="#63b8ff" points="48.97,-25.03 38.38,-24.51 46.33,-31.52 48.97,-25.03"/>
</a>
</g>
</g>
<!-- Node13&#45;&gt;Node8 -->
<g id="edge18_Node000013_Node000008" class="edge">
<title>Node13&#45;&gt;Node8</title>
<g id="a_edge18_Node000013_Node000008"><a xlink:title=" ">
<path fill="none" stroke="#63b8ff" d="M510.97,-71.44C563.86,-61.36 652.79,-44.42 718.45,-31.91"/>
<polygon fill="#63b8ff" stroke="#63b8ff" points="719.2,-35.33 728.37,-30.02 717.89,-28.46 719.2,-35.33"/>
</a>
</g>
</g>
<!-- Node14 -->
<g id="Node000014" class="node">
<title>Node14</title>
<g id="a_Node000014"><a xlink:title=" ">
<polygon fill="#e0e0e0" stroke="#999999" points="369.5,-30 212.5,-30 212.5,0 369.5,0 369.5,-30"/>
<text text-anchor="start" x="220.5" y="-18" font-family="Helvetica,sans-Serif" font-size="10.00">boost/date_time/posix</text>
<text text-anchor="middle" x="291" y="-7" font-family="Helvetica,sans-Serif" font-size="10.00">_time/posix_time_config.hpp</text>
</a>
</g>
</g>
<!-- Node13&#45;&gt;Node14 -->
<g id="edge17_Node000013_Node000014" class="edge">
<title>Node13&#45;&gt;Node14</title>
<g id="a_edge17_Node000013_Node000014"><a xlink:title=" ">
<path fill="none" stroke="#63b8ff" d="M442.4,-71.37C416.08,-61.74 372.79,-45.91 339.23,-33.64"/>
<polygon fill="#63b8ff" stroke="#63b8ff" points="340.19,-30.26 329.6,-30.12 337.79,-36.84 340.19,-30.26"/>
</a>
</g>
</g>
<!-- Node15 -->
<g id="Node000015" class="node">
<title>Node15</title>
<g id="a_Node000015"><a xlink:title=" ">
<polygon fill="#e0e0e0" stroke="#999999" points="536,-30 388,-30 388,0 536,0 536,-30"/>
<text text-anchor="start" x="396" y="-18" font-family="Helvetica,sans-Serif" font-size="10.00">boost/date_time/posix</text>
<text text-anchor="middle" x="462" y="-7" font-family="Helvetica,sans-Serif" font-size="10.00">_time/time_formatters.hpp</text>
</a>
</g>
</g>
<!-- Node13&#45;&gt;Node15 -->
<g id="edge19_Node000013_Node000015" class="edge">
<title>Node13&#45;&gt;Node15</title>
<g id="a_edge19_Node000013_Node000015"><a xlink:title=" ">
<path fill="none" stroke="#63b8ff" d="M465.46,-71.37C464.97,-63.49 464.22,-51.45 463.54,-40.6"/>
<polygon fill="#63b8ff" stroke="#63b8ff" points="467.01,-40.12 462.9,-30.36 460.03,-40.56 467.01,-40.12"/>
</a>
</g>
</g>
<!-- Node16 -->
<g id="Node000016" class="node">
<title>Node16</title>
<g id="a_Node000016"><a xlink:title=" ">
<polygon fill="#e0e0e0" stroke="#999999" points="194,-30 62,-30 62,0 194,0 194,-30"/>
<text text-anchor="start" x="70" y="-18" font-family="Helvetica,sans-Serif" font-size="10.00">boost/date_time/posix</text>
<text text-anchor="middle" x="128" y="-7" font-family="Helvetica,sans-Serif" font-size="10.00">_time/time_parsers.hpp</text>
</a>
</g>
</g>
<!-- Node13&#45;&gt;Node16 -->
<g id="edge20_Node000013_Node000016" class="edge">
<title>Node13&#45;&gt;Node16</title>
<g id="a_edge20_Node000013_Node000016"><a xlink:title=" ">
<path fill="none" stroke="#63b8ff" d="M420.77,-71.44C365.41,-60.95 270.85,-43.05 204.2,-30.43"/>
<polygon fill="#63b8ff" stroke="#63b8ff" points="204.64,-26.95 194.17,-28.53 203.34,-33.83 204.64,-26.95"/>
</a>
</g>
</g>
<!-- Node17&#45;&gt;Node3 -->
<g id="edge25_Node000017_Node000003" class="edge">
<title>Node17&#45;&gt;Node3</title>
<g id="a_edge25_Node000017_Node000003"><a xlink:title=" ">
<path fill="none" stroke="#63b8ff" d="M749.3,-263.96C751.65,-249.82 757.28,-220.84 767,-198 770.99,-188.61 776.59,-178.94 781.93,-170.63"/>
<polygon fill="#63b8ff" stroke="#63b8ff" points="784.9,-172.49 787.54,-162.23 779.07,-168.61 784.9,-172.49"/>
</a>
</g>
</g>
<!-- Node17&#45;&gt;Node11 -->
<g id="edge26_Node000017_Node000011" class="edge">
<title>Node17&#45;&gt;Node11</title>
<g id="a_edge26_Node000017_Node000011"><a xlink:title=" ">
<path fill="none" stroke="#63b8ff" d="M744.17,-263.82C731.33,-234.69 689.57,-140 671.96,-100.04"/>
<polygon fill="#63b8ff" stroke="#63b8ff" points="675.09,-98.47 667.85,-90.73 668.68,-101.29 675.09,-98.47"/>
</a>
</g>
</g>
<!-- Node17&#45;&gt;Node13 -->
<g id="edge35_Node000017_Node000013" class="edge">
<title>Node17&#45;&gt;Node13</title>
<g id="a_edge35_Node000017_Node000013"><a xlink:title=" ">
<path fill="none" stroke="#63b8ff" d="M707.64,-263.93C682.24,-257.14 649.69,-245.78 625,-228 580.84,-196.2 589.85,-167.95 549,-132 532.16,-117.18 510.36,-104.24 493.32,-95.24"/>
<polygon fill="#63b8ff" stroke="#63b8ff" points="494.9,-92.11 484.41,-90.65 491.7,-98.34 494.9,-92.11"/>
</a>
</g>
</g>
<!-- Node18 -->
<g id="Node000018" class="node">
<title>Node18</title>
<g id="a_Node000018"><a xlink:title=" ">
<polygon fill="#e0e0e0" stroke="#999999" points="840,-222.5 776,-222.5 776,-203.5 840,-203.5 840,-222.5"/>
<text text-anchor="middle" x="808" y="-210.5" font-family="Helvetica,sans-Serif" font-size="10.00">algorithm</text>
</a>
</g>
</g>
<!-- Node17&#45;&gt;Node18 -->
<g id="edge22_Node000017_Node000018" class="edge">
<title>Node17&#45;&gt;Node18</title>
<g id="a_edge22_Node000017_Node000018"><a xlink:title=" ">
<path fill="none" stroke="#63b8ff" d="M756.85,-263.87C765.98,-254.97 780.42,-240.89 791.64,-229.95"/>
<polygon fill="#63b8ff" stroke="#63b8ff" points="794.39,-232.15 799.11,-222.67 789.51,-227.14 794.39,-232.15"/>
</a>
</g>
</g>
<!-- Node17&#45;&gt;Node19 -->
<g id="edge23_Node000017_Node000019" class="edge">
<title>Node17&#45;&gt;Node19</title>
<g id="a_edge23_Node000017_Node000019"><a xlink:title=" ">
<path fill="none" stroke="#63b8ff" d="M768.21,-263.99C791.68,-254.12 830.61,-237.73 857.46,-226.43"/>
<polygon fill="#63b8ff" stroke="#63b8ff" points="858.9,-229.62 866.76,-222.52 856.19,-223.17 858.9,-229.62"/>
</a>
</g>
</g>
<!-- Node20 -->
<g id="Node000020" class="node">
<title>Node20</title>
<g id="a_Node000020"><a xlink:title=" ">
<polygon fill="#e0e0e0" stroke="#999999" points="681.5,-222.5 634.5,-222.5 634.5,-203.5 681.5,-203.5 681.5,-222.5"/>
<text text-anchor="middle" x="658" y="-210.5" font-family="Helvetica,sans-Serif" font-size="10.00">vector</text>
</a>
</g>
</g>
<!-- Node17&#45;&gt;Node20 -->
<g id="edge24_Node000017_Node000020" class="edge">
<title>Node17&#45;&gt;Node20</title>
<g id="a_edge24_Node000017_Node000020"><a xlink:title=" ">
<path fill="none" stroke="#63b8ff" d="M734.72,-263.87C720.36,-254.54 697.24,-239.51 680.13,-228.38"/>
<polygon fill="#63b8ff" stroke="#63b8ff" points="681.63,-225.18 671.33,-222.67 677.81,-231.05 681.63,-225.18"/>
</a>
</g>
</g>
<!-- Node17&#45;&gt;Node21 -->
<g id="edge27_Node000017_Node000021" class="edge">
<title>Node17&#45;&gt;Node21</title>
<g id="a_edge27_Node000017_Node000021"><a xlink:title=" ">
<path fill="none" stroke="#63b8ff" d="M710.05,-263.99C668.25,-254.63 600.36,-239.41 550.44,-228.22"/>
<polygon fill="#63b8ff" stroke="#63b8ff" points="550.92,-224.74 540.39,-225.97 549.39,-231.57 550.92,-224.74"/>
</a>
</g>
</g>
<!-- Node21&#45;&gt;Node3 -->
<g id="edge33_Node000021_Node000003" class="edge">
<title>Node21&#45;&gt;Node3</title>
<g id="a_edge33_Node000021_Node000003"><a xlink:title=" ">
<path fill="none" stroke="#63b8ff" d="M540.11,-201.07C593.14,-190.16 674.76,-173.36 731.94,-161.6"/>
<polygon fill="#63b8ff" stroke="#63b8ff" points="732.87,-164.98 741.96,-159.53 731.46,-158.12 732.87,-164.98"/>
</a>
</g>
</g>
<!-- Node21&#45;&gt;Node4 -->
<g id="edge28_Node000021_Node000004" class="edge">
<title>Node21&#45;&gt;Node4</title>
<g id="a_edge28_Node000021_Node000004"><a xlink:title=" ">
<path fill="none" stroke="#63b8ff" d="M509.83,-197.9C522.77,-188.95 538.43,-176.37 549,-162 576.2,-125.04 563.97,-105.69 587,-66 594.01,-53.93 603.76,-41.67 611.89,-32.31"/>
<polygon fill="#63b8ff" stroke="#63b8ff" points="614.7,-34.41 618.76,-24.62 609.49,-29.74 614.7,-34.41"/>
</a>
</g>
</g>
<!-- Node21&#45;&gt;Node6 -->
<g id="edge30_Node000021_Node000006" class="edge">
<title>Node21&#45;&gt;Node6</title>
<g id="a_edge30_Node000021_Node000006"><a xlink:title=" ">
<path fill="none" stroke="#63b8ff" d="M433.73,-212.7C333.16,-212.92 120.55,-207.77 66,-162 27.89,-130.02 22.02,-66.32 21.59,-34.7"/>
<polygon fill="#63b8ff" stroke="#63b8ff" points="25.09,-34.63 21.63,-24.62 18.09,-34.61 25.09,-34.63"/>
</a>
</g>
</g>
<!-- Node22 -->
<g id="Node000022" class="node">
<title>Node22</title>
<g id="a_Node000022"><a xlink:title=" ">
<polygon fill="#e0e0e0" stroke="#999999" points="540,-156.5 486,-156.5 486,-137.5 540,-137.5 540,-156.5"/>
<text text-anchor="middle" x="513" y="-144.5" font-family="Helvetica,sans-Serif" font-size="10.00">random</text>
</a>
</g>
</g>
<!-- Node21&#45;&gt;Node22 -->
<g id="edge29_Node000021_Node000022" class="edge">
<title>Node21&#45;&gt;Node22</title>
<g id="a_edge29_Node000021_Node000022"><a xlink:title=" ">
<path fill="none" stroke="#63b8ff" d="M492.77,-197.8C496.55,-188.5 501.51,-176.27 505.58,-166.26"/>
<polygon fill="#63b8ff" stroke="#63b8ff" points="508.89,-167.43 509.41,-156.84 502.4,-164.79 508.89,-167.43"/>
</a>
</g>
</g>
<!-- Node23 -->
<g id="Node000023" class="node">
<title>Node23</title>
<g id="a_Node000023"><a xlink:title=" ">
<polygon fill="#e0e0e0" stroke="#999999" points="196.5,-156.5 75.5,-156.5 75.5,-137.5 196.5,-137.5 196.5,-156.5"/>
<text text-anchor="middle" x="136" y="-144.5" font-family="Helvetica,sans-Serif" font-size="10.00">boost/json/object.hpp</text>
</a>
</g>
</g>
<!-- Node21&#45;&gt;Node23 -->
<g id="edge31_Node000021_Node000023" class="edge">
<title>Node21&#45;&gt;Node23</title>
<g id="a_edge31_Node000021_Node000023"><a xlink:title=" ">
<path fill="none" stroke="#63b8ff" d="M433.91,-202.99C377.18,-193.27 284.62,-177.13 205,-162 199.23,-160.9 193.2,-159.73 187.2,-158.53"/>
<polygon fill="#63b8ff" stroke="#63b8ff" points="187.69,-155.06 177.2,-156.53 186.31,-161.93 187.69,-155.06"/>
</a>
</g>
</g>
<!-- Node24 -->
<g id="Node000024" class="node">
<title>Node24</title>
<g id="a_Node000024"><a xlink:title=" ">
<polygon fill="#e0e0e0" stroke="#999999" points="293.5,-156.5 214.5,-156.5 214.5,-137.5 293.5,-137.5 293.5,-156.5"/>
<text text-anchor="middle" x="254" y="-144.5" font-family="Helvetica,sans-Serif" font-size="10.00">fmt/format.h</text>
</a>
</g>
</g>
<!-- Node21&#45;&gt;Node24 -->
<g id="edge32_Node000021_Node000024" class="edge">
<title>Node21&#45;&gt;Node24</title>
<g id="a_edge32_Node000021_Node000024"><a xlink:title=" ">
<path fill="none" stroke="#63b8ff" d="M434.6,-197.96C397.76,-188.03 347.32,-174.35 303,-162 299.85,-161.12 296.58,-160.2 293.3,-159.28"/>
<polygon fill="#63b8ff" stroke="#63b8ff" points="294.1,-155.87 283.52,-156.5 292.19,-162.6 294.1,-155.87"/>
</a>
</g>
</g>
<!-- Node25 -->
<g id="Node000025" class="node">
<title>Node25</title>
<g id="a_Node000025"><a xlink:title=" ">
<polygon fill="#e0e0e0" stroke="#999999" points="468,-156.5 312,-156.5 312,-137.5 468,-137.5 468,-156.5"/>
<text text-anchor="middle" x="390" y="-144.5" font-family="Helvetica,sans-Serif" font-size="10.00">internal_use_only/config.hpp</text>
</a>
</g>
</g>
<!-- Node21&#45;&gt;Node25 -->
<g id="edge34_Node000021_Node000025" class="edge">
<title>Node21&#45;&gt;Node25</title>
<g id="a_edge34_Node000021_Node000025"><a xlink:title=" ">
<path fill="none" stroke="#63b8ff" d="M465.47,-197.8C449.52,-187.27 427.85,-172.97 411.82,-162.4"/>
<polygon fill="#63b8ff" stroke="#63b8ff" points="413.4,-159.24 403.12,-156.66 409.54,-165.09 413.4,-159.24"/>
</a>
</g>
</g>
</g>
</svg>
