<?xml version="1.0" encoding="UTF-8" standalone="no"?>
<!DOCTYPE svg PUBLIC "-//W3C//DTD SVG 1.1//EN"
 "http://www.w3.org/Graphics/SVG/1.1/DTD/svg11.dtd">
<!-- Generated by graphviz version 2.43.0 (0)
 -->
<!-- Title: clk::misc_lib::DateTime::seconds Pages: 1 -->
<svg width="456pt" height="86pt"
 viewBox="0.00 0.00 456.00 86.00" xmlns="http://www.w3.org/2000/svg" xmlns:xlink="http://www.w3.org/1999/xlink">
<g id="graph0" class="graph" transform="scale(1 1) rotate(0) translate(4 82)">
<title>clk::misc_lib::DateTime::seconds</title>
<!-- Node1 -->
<g id="Node000001" class="node">
<title>Node1</title>
<g id="a_Node000001"><a xlink:title="Get the second of the time point.">
<polygon fill="#999999" stroke="#666666" points="448,-54 317,-54 317,-24 448,-24 448,-54"/>
<text text-anchor="start" x="325" y="-42" font-family="Helvetica,sans-Serif" font-size="10.00">clk::misc_lib::DateTime</text>
<text text-anchor="middle" x="382.5" y="-31" font-family="Helvetica,sans-Serif" font-size="10.00">::seconds</text>
</a>
</g>
</g>
<!-- Node2 -->
<g id="Node000002" class="node">
<title>Node2</title>
<g id="a_Node000002"><a xlink:href="structclk_1_1misc__lib_1_1DateTime.html#a49e6638a8d3e6f4e78bf79b7fcd6585d" target="_top" xlink:title="Seconds increment operator.">
<polygon fill="white" stroke="#666666" points="281,-78 150,-78 150,-48 281,-48 281,-78"/>
<text text-anchor="start" x="158" y="-66" font-family="Helvetica,sans-Serif" font-size="10.00">clk::misc_lib::DateTime</text>
<text text-anchor="middle" x="215.5" y="-55" font-family="Helvetica,sans-Serif" font-size="10.00">::operator+=</text>
</a>
</g>
</g>
<!-- Node1&#45;&gt;Node2 -->
<g id="edge1_Node000001_Node000002" class="edge">
<title>Node1&#45;&gt;Node2</title>
<g id="a_edge1_Node000001_Node000002"><a xlink:title=" ">
<path fill="none" stroke="#63b8ff" d="M306.76,-49.87C298.18,-51.12 289.48,-52.38 281.05,-53.61"/>
<polygon fill="#63b8ff" stroke="#63b8ff" points="307.37,-53.32 316.76,-48.42 306.36,-46.39 307.37,-53.32"/>
</a>
</g>
</g>
<!-- Node3 -->
<g id="Node000003" class="node">
<title>Node3</title>
<g id="a_Node000003"><a xlink:href="structclk_1_1misc__lib_1_1DateTime.html#ac4e7544ff9c40a8b93aab2fbdd5ea707" target="_top" xlink:title="Convert the DateTime object to a simple string representation.">
<polygon fill="white" stroke="#666666" points="281,-30 150,-30 150,0 281,0 281,-30"/>
<text text-anchor="start" x="158" y="-18" font-family="Helvetica,sans-Serif" font-size="10.00">clk::misc_lib::DateTime</text>
<text text-anchor="middle" x="215.5" y="-7" font-family="Helvetica,sans-Serif" font-size="10.00">::toSimpleString</text>
</a>
</g>
</g>
<!-- Node1&#45;&gt;Node3 -->
<g id="edge2_Node000001_Node000003" class="edge">
<title>Node1&#45;&gt;Node3</title>
<g id="a_edge2_Node000001_Node000003"><a xlink:title=" ">
<path fill="none" stroke="#63b8ff" d="M306.76,-28.13C298.18,-26.88 289.48,-25.62 281.05,-24.39"/>
<polygon fill="#63b8ff" stroke="#63b8ff" points="306.36,-31.61 316.76,-29.58 307.37,-24.68 306.36,-31.61"/>
</a>
</g>
</g>
<!-- Node4 -->
<g id="Node000004" class="node">
<title>Node4</title>
<g id="a_Node000004"><a xlink:href="structclk_1_1si3__sim_1_1Si3Sim.html#a64baf869324064ea80664905356dc872" target="_top" xlink:title="Generate the data for the si3 sim.">
<polygon fill="white" stroke="#666666" points="114,-30 0,-30 0,0 114,0 114,-30"/>
<text text-anchor="start" x="8" y="-18" font-family="Helvetica,sans-Serif" font-size="10.00">clk::si3_sim::Si3Sim</text>
<text text-anchor="middle" x="57" y="-7" font-family="Helvetica,sans-Serif" font-size="10.00">::generateData</text>
</a>
</g>
</g>
<!-- Node3&#45;&gt;Node4 -->
<g id="edge3_Node000003_Node000004" class="edge">
<title>Node3&#45;&gt;Node4</title>
<g id="a_edge3_Node000003_Node000004"><a xlink:title=" ">
<path fill="none" stroke="#63b8ff" d="M139.92,-15C131.34,-15 122.7,-15 114.41,-15"/>
<polygon fill="#63b8ff" stroke="#63b8ff" points="139.94,-18.5 149.94,-15 139.94,-11.5 139.94,-18.5"/>
</a>
</g>
</g>
</g>
</svg>
