<?xml version="1.0" encoding="UTF-8" standalone="no"?>
<!DOCTYPE svg PUBLIC "-//W3C//DTD SVG 1.1//EN"
 "http://www.w3.org/Graphics/SVG/1.1/DTD/svg11.dtd">
<!-- Generated by graphviz version 2.43.0 (0)
 -->
<!-- Title: clk::si3_sim::Config::readFromFile Pages: 1 -->
<svg width="605pt" height="107pt"
 viewBox="0.00 0.00 605.00 107.00" xmlns="http://www.w3.org/2000/svg" xmlns:xlink="http://www.w3.org/1999/xlink">
<g id="graph0" class="graph" transform="scale(1 1) rotate(0) translate(4 103)">
<title>clk::si3_sim::Config::readFromFile</title>
<!-- Node1 -->
<g id="Node000001" class="node">
<title>Node1</title>
<g id="a_Node000001"><a xlink:title="Read a configuration from a file.">
<polygon fill="#999999" stroke="#666666" points="111,-78 0,-78 0,-48 111,-48 111,-78"/>
<text text-anchor="start" x="8" y="-66" font-family="Helvetica,sans-Serif" font-size="10.00">clk::si3_sim::Config</text>
<text text-anchor="middle" x="55.5" y="-55" font-family="Helvetica,sans-Serif" font-size="10.00">::readFromFile</text>
</a>
</g>
</g>
<!-- Node2 -->
<g id="Node000002" class="node">
<title>Node2</title>
<g id="a_Node000002"><a xlink:href="structclk_1_1si3__sim_1_1Config.html#ae133c6ff4f7f1fb61db327e051de8812" target="_top" xlink:title="read a configuration from a stream.">
<polygon fill="white" stroke="#666666" points="258,-78 147,-78 147,-48 258,-48 258,-78"/>
<text text-anchor="start" x="155" y="-66" font-family="Helvetica,sans-Serif" font-size="10.00">clk::si3_sim::Config</text>
<text text-anchor="middle" x="202.5" y="-55" font-family="Helvetica,sans-Serif" font-size="10.00">::read</text>
</a>
</g>
</g>
<!-- Node1&#45;&gt;Node2 -->
<g id="edge1_Node000001_Node000002" class="edge">
<title>Node1&#45;&gt;Node2</title>
<g id="a_edge1_Node000001_Node000002"><a xlink:title=" ">
<path fill="none" stroke="#63b8ff" d="M111.32,-63C119.53,-63 128.06,-63 136.46,-63"/>
<polygon fill="#63b8ff" stroke="#63b8ff" points="136.6,-66.5 146.6,-63 136.6,-59.5 136.6,-66.5"/>
</a>
</g>
</g>
<!-- Node3 -->
<g id="Node000003" class="node">
<title>Node3</title>
<g id="a_Node000003"><a xlink:href="structclk_1_1misc__lib_1_1DateTime.html#a8285a717c550e0188b22488da5945c69" target="_top" xlink:title="Factory method to create a DateTime object from an ISO 8601 string.">
<polygon fill="white" stroke="#666666" points="597,-99 466,-99 466,-69 597,-69 597,-99"/>
<text text-anchor="start" x="474" y="-87" font-family="Helvetica,sans-Serif" font-size="10.00">clk::misc_lib::DateTime</text>
<text text-anchor="middle" x="531.5" y="-76" font-family="Helvetica,sans-Serif" font-size="10.00">::fromISO</text>
</a>
</g>
</g>
<!-- Node2&#45;&gt;Node3 -->
<g id="edge2_Node000002_Node000003" class="edge">
<title>Node2&#45;&gt;Node3</title>
<g id="a_edge2_Node000002_Node000003"><a xlink:title=" ">
<path fill="none" stroke="#63b8ff" d="M250.94,-78.05C264.69,-81.74 279.82,-85.15 294,-87 347.87,-94.02 409.22,-92.98 455.93,-90.34"/>
<polygon fill="#63b8ff" stroke="#63b8ff" points="456.2,-93.83 465.97,-89.74 455.78,-86.85 456.2,-93.83"/>
</a>
</g>
</g>
<!-- Node4 -->
<g id="Node000004" class="node">
<title>Node4</title>
<g id="a_Node000004"><a xlink:href="structclk_1_1misc__lib_1_1RunRecord.html#acabfa9ce270724aa81b06ef1b4e8cf15" target="_top" xlink:title="Factory method to construct a RunRecord from a JSON object.">
<polygon fill="white" stroke="#666666" points="430,-78 294,-78 294,-48 430,-48 430,-78"/>
<text text-anchor="start" x="302" y="-66" font-family="Helvetica,sans-Serif" font-size="10.00">clk::misc_lib::RunRecord</text>
<text text-anchor="middle" x="362" y="-55" font-family="Helvetica,sans-Serif" font-size="10.00">::fromJson</text>
</a>
</g>
</g>
<!-- Node2&#45;&gt;Node4 -->
<g id="edge3_Node000002_Node000004" class="edge">
<title>Node2&#45;&gt;Node4</title>
<g id="a_edge3_Node000002_Node000004"><a xlink:title=" ">
<path fill="none" stroke="#63b8ff" d="M258.14,-63C266.45,-63 275.14,-63 283.81,-63"/>
<polygon fill="#63b8ff" stroke="#63b8ff" points="283.96,-66.5 293.96,-63 283.96,-59.5 283.96,-66.5"/>
</a>
</g>
</g>
<!-- Node5 -->
<g id="Node000005" class="node">
<title>Node5</title>
<g id="a_Node000005"><a xlink:href="structclk_1_1misc__lib_1_1Time.html#a6c199b196b0cb96045ea55916072d867" target="_top" xlink:title="Read a Time object from a string.">
<polygon fill="white" stroke="#666666" points="416,-30 308,-30 308,0 416,0 416,-30"/>
<text text-anchor="start" x="316" y="-18" font-family="Helvetica,sans-Serif" font-size="10.00">clk::misc_lib::Time</text>
<text text-anchor="middle" x="362" y="-7" font-family="Helvetica,sans-Serif" font-size="10.00">::fromString</text>
</a>
</g>
</g>
<!-- Node2&#45;&gt;Node5 -->
<g id="edge5_Node000002_Node000005" class="edge">
<title>Node2&#45;&gt;Node5</title>
<g id="a_edge5_Node000002_Node000005"><a xlink:title=" ">
<path fill="none" stroke="#63b8ff" d="M252.9,-47.94C268.44,-43.21 285.76,-37.93 301.9,-33.01"/>
<polygon fill="#63b8ff" stroke="#63b8ff" points="303.23,-36.27 311.77,-30 301.19,-29.57 303.23,-36.27"/>
</a>
</g>
</g>
<!-- Node4&#45;&gt;Node3 -->
<g id="edge4_Node000004_Node000003" class="edge">
<title>Node4&#45;&gt;Node3</title>
<g id="a_edge4_Node000004_Node000003"><a xlink:title=" ">
<path fill="none" stroke="#63b8ff" d="M430.16,-71.42C438.6,-72.48 447.28,-73.57 455.82,-74.64"/>
<polygon fill="#63b8ff" stroke="#63b8ff" points="455.41,-78.11 465.77,-75.88 456.29,-71.17 455.41,-78.11"/>
</a>
</g>
</g>
<!-- Node6 -->
<g id="Node000006" class="node">
<title>Node6</title>
<g id="a_Node000006"><a xlink:href="structclk_1_1misc__lib_1_1Time.html#a48fe39d72cb179cc36f510aab72578e2" target="_top" xlink:title="Default constructor for Time. Initializes the time to 00:00:00.">
<polygon fill="white" stroke="#666666" points="585.5,-30 477.5,-30 477.5,0 585.5,0 585.5,-30"/>
<text text-anchor="start" x="485.5" y="-18" font-family="Helvetica,sans-Serif" font-size="10.00">clk::misc_lib::Time</text>
<text text-anchor="middle" x="531.5" y="-7" font-family="Helvetica,sans-Serif" font-size="10.00">::Time</text>
</a>
</g>
</g>
<!-- Node5&#45;&gt;Node6 -->
<g id="edge6_Node000005_Node000006" class="edge">
<title>Node5&#45;&gt;Node6</title>
<g id="a_edge6_Node000005_Node000006"><a xlink:title=" ">
<path fill="none" stroke="#63b8ff" d="M416.46,-15C432.55,-15 450.37,-15 467.05,-15"/>
<polygon fill="#63b8ff" stroke="#63b8ff" points="467.26,-18.5 477.26,-15 467.26,-11.5 467.26,-18.5"/>
</a>
</g>
</g>
</g>
</svg>
