<?xml version="1.0" encoding="UTF-8" standalone="no"?>
<!DOCTYPE svg PUBLIC "-//W3C//DTD SVG 1.1//EN"
 "http://www.w3.org/Graphics/SVG/1.1/DTD/svg11.dtd">
<!-- Generated by graphviz version 2.43.0 (0)
 -->
<!-- Title: clk::misc_lib::DateTime::setTime Pages: 1 -->
<svg width="516pt" height="59pt"
 viewBox="0.00 0.00 516.00 59.00" xmlns="http://www.w3.org/2000/svg" xmlns:xlink="http://www.w3.org/1999/xlink">
<g id="graph0" class="graph" transform="scale(1 1) rotate(0) translate(4 55)">
<title>clk::misc_lib::DateTime::setTime</title>
<!-- Node1 -->
<g id="Node000001" class="node">
<title>Node1</title>
<g id="a_Node000001"><a xlink:title="Set the time of day for the time point.">
<polygon fill="#999999" stroke="#666666" points="508,-51 377,-51 377,-21 508,-21 508,-51"/>
<text text-anchor="start" x="385" y="-39" font-family="Helvetica,sans-Serif" font-size="10.00">clk::misc_lib::DateTime</text>
<text text-anchor="middle" x="442.5" y="-28" font-family="Helvetica,sans-Serif" font-size="10.00">::setTime</text>
</a>
</g>
</g>
<!-- Node2 -->
<g id="Node000002" class="node">
<title>Node2</title>
<g id="a_Node000002"><a xlink:href="structclk_1_1si3__sim_1_1Si3Sim.html#a64baf869324064ea80664905356dc872" target="_top" xlink:title="Generate the data for the si3 sim.">
<polygon fill="white" stroke="#666666" points="191,-51 77,-51 77,-21 191,-21 191,-51"/>
<text text-anchor="start" x="85" y="-39" font-family="Helvetica,sans-Serif" font-size="10.00">clk::si3_sim::Si3Sim</text>
<text text-anchor="middle" x="134" y="-28" font-family="Helvetica,sans-Serif" font-size="10.00">::generateData</text>
</a>
</g>
</g>
<!-- Node1&#45;&gt;Node2 -->
<g id="edge1_Node000001_Node000002" class="edge">
<title>Node1&#45;&gt;Node2</title>
<g id="a_edge1_Node000001_Node000002"><a xlink:title=" ">
<path fill="none" stroke="#63b8ff" d="M366.76,-38.48C358.07,-38.69 349.34,-38.88 341,-39 290.34,-39.76 277.66,-39.83 227,-39 215.5,-38.81 203.18,-38.49 191.43,-38.13"/>
<polygon fill="#63b8ff" stroke="#63b8ff" points="367,-41.97 376.9,-38.21 366.81,-34.98 367,-41.97"/>
</a>
</g>
</g>
<!-- Node4 -->
<g id="Node000004" class="node">
<title>Node4</title>
<g id="a_Node000004"><a xlink:href="structclk_1_1si3__sim_1_1Si3Sim.html#a9e67ccf25001ad917a3d183febee082a" target="_top" xlink:title="Get the start time for the next occurance of the measurement event.">
<polygon fill="white" stroke="#666666" points="341,-30 227,-30 227,0 341,0 341,-30"/>
<text text-anchor="start" x="235" y="-18" font-family="Helvetica,sans-Serif" font-size="10.00">clk::si3_sim::Si3Sim</text>
<text text-anchor="middle" x="284" y="-7" font-family="Helvetica,sans-Serif" font-size="10.00">::nextStart</text>
</a>
</g>
</g>
<!-- Node1&#45;&gt;Node4 -->
<g id="edge3_Node000001_Node000004" class="edge">
<title>Node1&#45;&gt;Node4</title>
<g id="a_edge3_Node000001_Node000004"><a xlink:title=" ">
<path fill="none" stroke="#63b8ff" d="M366.92,-25.99C358.34,-24.84 349.7,-23.68 341.41,-22.57"/>
<polygon fill="#63b8ff" stroke="#63b8ff" points="366.57,-29.48 376.94,-27.34 367.5,-22.54 366.57,-29.48"/>
</a>
</g>
</g>
<!-- Node3 -->
<g id="Node000003" class="node">
<title>Node3</title>
<g id="a_Node000003"><a xlink:href="main_8cpp.html#a3c04138a5bfe5d72780bb7e82a18e627" target="_top" xlink:title="Main entry point for the Si3 simulation tool.">
<polygon fill="white" stroke="#666666" points="41,-45.5 0,-45.5 0,-26.5 41,-26.5 41,-45.5"/>
<text text-anchor="middle" x="20.5" y="-33.5" font-family="Helvetica,sans-Serif" font-size="10.00">main</text>
</a>
</g>
</g>
<!-- Node2&#45;&gt;Node3 -->
<g id="edge2_Node000002_Node000003" class="edge">
<title>Node2&#45;&gt;Node3</title>
<g id="a_edge2_Node000002_Node000003"><a xlink:title=" ">
<path fill="none" stroke="#63b8ff" d="M66.7,-36C57.37,-36 48.45,-36 41.04,-36"/>
<polygon fill="#63b8ff" stroke="#63b8ff" points="66.92,-39.5 76.92,-36 66.92,-32.5 66.92,-39.5"/>
</a>
</g>
</g>
<!-- Node4&#45;&gt;Node2 -->
<g id="edge4_Node000004_Node000002" class="edge">
<title>Node4&#45;&gt;Node2</title>
<g id="a_edge4_Node000004_Node000002"><a xlink:title=" ">
<path fill="none" stroke="#63b8ff" d="M216.72,-24.4C208.2,-25.61 199.55,-26.84 191.22,-28.02"/>
<polygon fill="#63b8ff" stroke="#63b8ff" points="217.22,-27.87 226.63,-23 216.23,-20.94 217.22,-27.87"/>
</a>
</g>
</g>
</g>
</svg>
