<?xml version="1.0" encoding="UTF-8" standalone="no"?>
<!DOCTYPE svg PUBLIC "-//W3C//DTD SVG 1.1//EN"
 "http://www.w3.org/Graphics/SVG/1.1/DTD/svg11.dtd">
<!-- Generated by graphviz version 2.43.0 (0)
 -->
<!-- Title: clk::misc_lib::DateTime::timeOfDay Pages: 1 -->
<svg width="465pt" height="172pt"
 viewBox="0.00 0.00 465.00 172.00" xmlns="http://www.w3.org/2000/svg" xmlns:xlink="http://www.w3.org/1999/xlink">
<g id="graph0" class="graph" transform="scale(1 1) rotate(0) translate(4 168)">
<title>clk::misc_lib::DateTime::timeOfDay</title>
<!-- Node1 -->
<g id="Node000001" class="node">
<title>Node1</title>
<g id="a_Node000001"><a xlink:title="Get the time of day of the time point.">
<polygon fill="#999999" stroke="#666666" points="457,-99 326,-99 326,-69 457,-69 457,-99"/>
<text text-anchor="start" x="334" y="-87" font-family="Helvetica,sans-Serif" font-size="10.00">clk::misc_lib::DateTime</text>
<text text-anchor="middle" x="391.5" y="-76" font-family="Helvetica,sans-Serif" font-size="10.00">::timeOfDay</text>
</a>
</g>
</g>
<!-- Node2 -->
<g id="Node000002" class="node">
<title>Node2</title>
<g id="a_Node000002"><a xlink:href="structclk_1_1misc__lib_1_1DateTime.html#a24ca9963d82f1d8eee2abc048fd90b15" target="_top" xlink:title="Get the fractional Modified Julian Date (MJD) of the time point.">
<polygon fill="white" stroke="#666666" points="285.5,-164 154.5,-164 154.5,-134 285.5,-134 285.5,-164"/>
<text text-anchor="start" x="162.5" y="-152" font-family="Helvetica,sans-Serif" font-size="10.00">clk::misc_lib::DateTime</text>
<text text-anchor="middle" x="220" y="-141" font-family="Helvetica,sans-Serif" font-size="10.00">::fractionalMJD</text>
</a>
</g>
</g>
<!-- Node1&#45;&gt;Node2 -->
<g id="edge1_Node000001_Node000002" class="edge">
<title>Node1&#45;&gt;Node2</title>
<g id="a_edge1_Node000001_Node000002"><a xlink:title=" ">
<path fill="none" stroke="#63b8ff" d="M341.6,-102.75C315.81,-112.64 284.6,-124.61 260.39,-133.89"/>
<polygon fill="#63b8ff" stroke="#63b8ff" points="343.1,-105.92 351.19,-99.08 340.6,-99.39 343.1,-105.92"/>
</a>
</g>
</g>
<!-- Node3 -->
<g id="Node000003" class="node">
<title>Node3</title>
<g id="a_Node000003"><a xlink:href="structclk_1_1si3__sim_1_1Si3Sim.html#a64baf869324064ea80664905356dc872" target="_top" xlink:title="Generate the data for the si3 sim.">
<polygon fill="white" stroke="#666666" points="114,-78 0,-78 0,-48 114,-48 114,-78"/>
<text text-anchor="start" x="8" y="-66" font-family="Helvetica,sans-Serif" font-size="10.00">clk::si3_sim::Si3Sim</text>
<text text-anchor="middle" x="57" y="-55" font-family="Helvetica,sans-Serif" font-size="10.00">::generateData</text>
</a>
</g>
</g>
<!-- Node1&#45;&gt;Node3 -->
<g id="edge2_Node000001_Node000003" class="edge">
<title>Node1&#45;&gt;Node3</title>
<g id="a_edge2_Node000001_Node000003"><a xlink:title=" ">
<path fill="none" stroke="#63b8ff" d="M315.68,-90.29C268.06,-92.98 205.18,-94.08 150,-87 135.59,-85.15 120.22,-81.74 106.25,-78.05"/>
<polygon fill="#63b8ff" stroke="#63b8ff" points="316.14,-93.77 325.91,-89.68 315.72,-86.78 316.14,-93.77"/>
</a>
</g>
</g>
<!-- Node4 -->
<g id="Node000004" class="node">
<title>Node4</title>
<g id="a_Node000004"><a xlink:href="structclk_1_1si3__sim_1_1Si3Sim.html#ac25a7d32cb0802f01b1796c979cd9771" target="_top" xlink:title="find the first measurement event after the current time">
<polygon fill="white" stroke="#666666" points="290,-78 150,-78 150,-48 290,-48 290,-78"/>
<text text-anchor="start" x="158" y="-66" font-family="Helvetica,sans-Serif" font-size="10.00">clk::si3_sim::Si3Sim</text>
<text text-anchor="middle" x="220" y="-55" font-family="Helvetica,sans-Serif" font-size="10.00">::nextMeasurementEvent</text>
</a>
</g>
</g>
<!-- Node1&#45;&gt;Node4 -->
<g id="edge3_Node000001_Node000004" class="edge">
<title>Node1&#45;&gt;Node4</title>
<g id="a_edge3_Node000001_Node000004"><a xlink:title=" ">
<path fill="none" stroke="#63b8ff" d="M315.96,-74.77C307.39,-73.7 298.68,-72.62 290.18,-71.57"/>
<polygon fill="#63b8ff" stroke="#63b8ff" points="315.58,-78.24 325.94,-76 316.44,-71.3 315.58,-78.24"/>
</a>
</g>
</g>
<!-- Node5 -->
<g id="Node000005" class="node">
<title>Node5</title>
<g id="a_Node000005"><a xlink:href="structclk_1_1si3__sim_1_1Si3Sim.html#a9e67ccf25001ad917a3d183febee082a" target="_top" xlink:title="Get the start time for the next occurance of the measurement event.">
<polygon fill="white" stroke="#666666" points="277,-30 163,-30 163,0 277,0 277,-30"/>
<text text-anchor="start" x="171" y="-18" font-family="Helvetica,sans-Serif" font-size="10.00">clk::si3_sim::Si3Sim</text>
<text text-anchor="middle" x="220" y="-7" font-family="Helvetica,sans-Serif" font-size="10.00">::nextStart</text>
</a>
</g>
</g>
<!-- Node1&#45;&gt;Node5 -->
<g id="edge5_Node000001_Node000005" class="edge">
<title>Node1&#45;&gt;Node5</title>
<g id="a_edge5_Node000001_Node000005"><a xlink:title=" ">
<path fill="none" stroke="#63b8ff" d="M349.55,-64.7C331.45,-56.42 309.82,-46.87 290,-39 282.34,-35.96 274.12,-32.91 266.12,-30.06"/>
<polygon fill="#63b8ff" stroke="#63b8ff" points="348.12,-67.9 358.67,-68.9 351.05,-61.54 348.12,-67.9"/>
</a>
</g>
</g>
<!-- Node4&#45;&gt;Node3 -->
<g id="edge4_Node000004_Node000003" class="edge">
<title>Node4&#45;&gt;Node3</title>
<g id="a_edge4_Node000004_Node000003"><a xlink:title=" ">
<path fill="none" stroke="#63b8ff" d="M139.66,-63C131.01,-63 122.34,-63 114.06,-63"/>
<polygon fill="#63b8ff" stroke="#63b8ff" points="139.79,-66.5 149.79,-63 139.79,-59.5 139.79,-66.5"/>
</a>
</g>
</g>
<!-- Node5&#45;&gt;Node3 -->
<g id="edge6_Node000005_Node000003" class="edge">
<title>Node5&#45;&gt;Node3</title>
<g id="a_edge6_Node000005_Node000003"><a xlink:title=" ">
<path fill="none" stroke="#63b8ff" d="M158.87,-32.93C142.23,-37.89 124.34,-43.22 108.32,-48"/>
<polygon fill="#63b8ff" stroke="#63b8ff" points="159.92,-36.27 168.5,-30.06 157.92,-29.56 159.92,-36.27"/>
</a>
</g>
</g>
</g>
</svg>
