<?xml version="1.0" encoding="UTF-8" standalone="no"?>
<!DOCTYPE svg PUBLIC "-//W3C//DTD SVG 1.1//EN"
 "http://www.w3.org/Graphics/SVG/1.1/DTD/svg11.dtd">
<!-- Generated by graphviz version 2.43.0 (0)
 -->
<!-- Title: clk::misc_lib::DateTime::toString Pages: 1 -->
<svg width="608pt" height="134pt"
 viewBox="0.00 0.00 608.00 134.00" xmlns="http://www.w3.org/2000/svg" xmlns:xlink="http://www.w3.org/1999/xlink">
<g id="graph0" class="graph" transform="scale(1 1) rotate(0) translate(4 130)">
<title>clk::misc_lib::DateTime::toString</title>
<!-- Node1 -->
<g id="Node000001" class="node">
<title>Node1</title>
<g id="a_Node000001"><a xlink:title="Convert the Time object to an ISO 8601 string.">
<polygon fill="#999999" stroke="#666666" points="600,-78 469,-78 469,-48 600,-48 600,-78"/>
<text text-anchor="start" x="477" y="-66" font-family="Helvetica,sans-Serif" font-size="10.00">clk::misc_lib::DateTime</text>
<text text-anchor="middle" x="534.5" y="-55" font-family="Helvetica,sans-Serif" font-size="10.00">::toString</text>
</a>
</g>
</g>
<!-- Node2 -->
<g id="Node000002" class="node">
<title>Node2</title>
<g id="a_Node000002"><a xlink:href="structclk_1_1misc__lib_1_1DateTime.html#a8026e9cfa161ae17575dd92e53d405a8" target="_top" xlink:title="Overloaded output stream operator for DateTime.">
<polygon fill="white" stroke="#666666" points="430.5,-126 299.5,-126 299.5,-96 430.5,-96 430.5,-126"/>
<text text-anchor="start" x="307.5" y="-114" font-family="Helvetica,sans-Serif" font-size="10.00">clk::misc_lib::DateTime</text>
<text text-anchor="middle" x="365" y="-103" font-family="Helvetica,sans-Serif" font-size="10.00">::operator&lt;&lt;</text>
</a>
</g>
</g>
<!-- Node1&#45;&gt;Node2 -->
<g id="edge1_Node000001_Node000002" class="edge">
<title>Node1&#45;&gt;Node2</title>
<g id="a_edge1_Node000001_Node000002"><a xlink:title=" ">
<path fill="none" stroke="#63b8ff" d="M470.94,-80.93C453.63,-85.89 435.02,-91.22 418.35,-96"/>
<polygon fill="#63b8ff" stroke="#63b8ff" points="472.31,-84.18 480.96,-78.06 470.38,-77.45 472.31,-84.18"/>
</a>
</g>
</g>
<!-- Node3 -->
<g id="Node000003" class="node">
<title>Node3</title>
<g id="a_Node000003"><a xlink:href="structclk_1_1misc__lib_1_1RunRecord.html#acdf40452c2d8223e8cd8cbfaf29880f2" target="_top" xlink:title="Convert the run record to a JSON object.">
<polygon fill="white" stroke="#666666" points="433,-78 297,-78 297,-48 433,-48 433,-78"/>
<text text-anchor="start" x="305" y="-66" font-family="Helvetica,sans-Serif" font-size="10.00">clk::misc_lib::RunRecord</text>
<text text-anchor="middle" x="365" y="-55" font-family="Helvetica,sans-Serif" font-size="10.00">::toJson</text>
</a>
</g>
</g>
<!-- Node1&#45;&gt;Node3 -->
<g id="edge2_Node000001_Node000003" class="edge">
<title>Node1&#45;&gt;Node3</title>
<g id="a_edge2_Node000001_Node000003"><a xlink:title=" ">
<path fill="none" stroke="#63b8ff" d="M458.49,-63C450.03,-63 441.44,-63 433.08,-63"/>
<polygon fill="#63b8ff" stroke="#63b8ff" points="458.74,-66.5 468.74,-63 458.74,-59.5 458.74,-66.5"/>
</a>
</g>
</g>
<!-- Node4 -->
<g id="Node000004" class="node">
<title>Node4</title>
<g id="a_Node000004"><a xlink:href="structclk_1_1si3__sim_1_1Config.html#a7a987d6de2f2cc60fcfc53a1ffb94cf4" target="_top" xlink:title="write the configuration to a stream.">
<polygon fill="white" stroke="#666666" points="420.5,-30 309.5,-30 309.5,0 420.5,0 420.5,-30"/>
<text text-anchor="start" x="317.5" y="-18" font-family="Helvetica,sans-Serif" font-size="10.00">clk::si3_sim::Config</text>
<text text-anchor="middle" x="365" y="-7" font-family="Helvetica,sans-Serif" font-size="10.00">::write</text>
</a>
</g>
</g>
<!-- Node1&#45;&gt;Node4 -->
<g id="edge3_Node000001_Node000004" class="edge">
<title>Node1&#45;&gt;Node4</title>
<g id="a_edge3_Node000001_Node000004"><a xlink:title=" ">
<path fill="none" stroke="#63b8ff" d="M470.94,-45.07C453.63,-40.11 435.02,-34.78 418.35,-30"/>
<polygon fill="#63b8ff" stroke="#63b8ff" points="470.38,-48.55 480.96,-47.94 472.31,-41.82 470.38,-48.55"/>
</a>
</g>
</g>
<!-- Node5 -->
<g id="Node000005" class="node">
<title>Node5</title>
<g id="a_Node000005"><a xlink:href="structclk_1_1si3__sim_1_1Config.html#a52d2c0f38234645a9b0b431e867108d0" target="_top" xlink:title="Write the configuration to a file.">
<polygon fill="white" stroke="#666666" points="261,-30 150,-30 150,0 261,0 261,-30"/>
<text text-anchor="start" x="158" y="-18" font-family="Helvetica,sans-Serif" font-size="10.00">clk::si3_sim::Config</text>
<text text-anchor="middle" x="205.5" y="-7" font-family="Helvetica,sans-Serif" font-size="10.00">::writeToFile</text>
</a>
</g>
</g>
<!-- Node4&#45;&gt;Node5 -->
<g id="edge4_Node000004_Node000005" class="edge">
<title>Node4&#45;&gt;Node5</title>
<g id="a_edge4_Node000004_Node000005"><a xlink:title=" ">
<path fill="none" stroke="#63b8ff" d="M299.3,-15C286.59,-15 273.38,-15 261.05,-15"/>
<polygon fill="#63b8ff" stroke="#63b8ff" points="299.36,-18.5 309.36,-15 299.36,-11.5 299.36,-18.5"/>
</a>
</g>
</g>
<!-- Node6 -->
<g id="Node000006" class="node">
<title>Node6</title>
<g id="a_Node000006"><a xlink:href="structclk_1_1si3__sim_1_1Si3Sim.html#a39de0c823b2732da108b81f240a85c7e" target="_top" xlink:title="Destructor.">
<polygon fill="white" stroke="#666666" points="114,-30 0,-30 0,0 114,0 114,-30"/>
<text text-anchor="start" x="8" y="-18" font-family="Helvetica,sans-Serif" font-size="10.00">clk::si3_sim::Si3Sim</text>
<text text-anchor="middle" x="57" y="-7" font-family="Helvetica,sans-Serif" font-size="10.00">::~Si3Sim</text>
</a>
</g>
</g>
<!-- Node5&#45;&gt;Node6 -->
<g id="edge5_Node000005_Node000006" class="edge">
<title>Node5&#45;&gt;Node6</title>
<g id="a_edge5_Node000005_Node000006"><a xlink:title=" ">
<path fill="none" stroke="#63b8ff" d="M139.93,-15C131.31,-15 122.53,-15 114.06,-15"/>
<polygon fill="#63b8ff" stroke="#63b8ff" points="139.95,-18.5 149.95,-15 139.95,-11.5 139.95,-18.5"/>
</a>
</g>
</g>
</g>
</svg>
