<?xml version="1.0" encoding="UTF-8" standalone="no"?>
<!DOCTYPE svg PUBLIC "-//W3C//DTD SVG 1.1//EN"
 "http://www.w3.org/Graphics/SVG/1.1/DTD/svg11.dtd">
<!-- Generated by graphviz version 2.43.0 (0)
 -->
<!-- Title: clk::misc_lib::DateTime::mjd Pages: 1 -->
<svg width="657pt" height="110pt"
 viewBox="0.00 0.00 657.00 110.00" xmlns="http://www.w3.org/2000/svg" xmlns:xlink="http://www.w3.org/1999/xlink">
<g id="graph0" class="graph" transform="scale(1 1) rotate(0) translate(4 106)">
<title>clk::misc_lib::DateTime::mjd</title>
<!-- Node1 -->
<g id="Node000001" class="node">
<title>Node1</title>
<g id="a_Node000001"><a xlink:title="Get the Modified Julian Date (MJD) of the time point.">
<polygon fill="#999999" stroke="#666666" points="649,-72.5 493,-72.5 493,-53.5 649,-53.5 649,-72.5"/>
<text text-anchor="middle" x="571" y="-60.5" font-family="Helvetica,sans-Serif" font-size="10.00">clk::misc_lib::DateTime::mjd</text>
</a>
</g>
</g>
<!-- Node2 -->
<g id="Node000002" class="node">
<title>Node2</title>
<g id="a_Node000002"><a xlink:href="structclk_1_1misc__lib_1_1DateTime.html#a24ca9963d82f1d8eee2abc048fd90b15" target="_top" xlink:title="Get the fractional Modified Julian Date (MJD) of the time point.">
<polygon fill="white" stroke="#666666" points="457,-102 326,-102 326,-72 457,-72 457,-102"/>
<text text-anchor="start" x="334" y="-90" font-family="Helvetica,sans-Serif" font-size="10.00">clk::misc_lib::DateTime</text>
<text text-anchor="middle" x="391.5" y="-79" font-family="Helvetica,sans-Serif" font-size="10.00">::fractionalMJD</text>
</a>
</g>
</g>
<!-- Node1&#45;&gt;Node2 -->
<g id="edge1_Node000001_Node000002" class="edge">
<title>Node1&#45;&gt;Node2</title>
<g id="a_edge1_Node000001_Node000002"><a xlink:title=" ">
<path fill="none" stroke="#63b8ff" d="M489.64,-73.87C478.73,-75.34 467.64,-76.84 457.06,-78.27"/>
<polygon fill="#63b8ff" stroke="#63b8ff" points="490.15,-77.33 499.59,-72.52 489.21,-70.39 490.15,-77.33"/>
</a>
</g>
</g>
<!-- Node3 -->
<g id="Node000003" class="node">
<title>Node3</title>
<g id="a_Node000003"><a xlink:href="structclk_1_1si3__sim_1_1Si3Sim.html#aad0b41bfeec82f9da4e8447639bb8819" target="_top" xlink:title="Get the current schedule day.">
<polygon fill="white" stroke="#666666" points="448.5,-54 334.5,-54 334.5,-24 448.5,-24 448.5,-54"/>
<text text-anchor="start" x="342.5" y="-42" font-family="Helvetica,sans-Serif" font-size="10.00">clk::si3_sim::Si3Sim</text>
<text text-anchor="middle" x="391.5" y="-31" font-family="Helvetica,sans-Serif" font-size="10.00">::scheduleDay</text>
</a>
</g>
</g>
<!-- Node1&#45;&gt;Node3 -->
<g id="edge2_Node000001_Node000003" class="edge">
<title>Node1&#45;&gt;Node3</title>
<g id="a_edge2_Node000001_Node000003"><a xlink:title=" ">
<path fill="none" stroke="#63b8ff" d="M489.58,-52.13C475.74,-50.25 461.62,-48.35 448.6,-46.58"/>
<polygon fill="#63b8ff" stroke="#63b8ff" points="489.21,-55.61 499.59,-53.48 490.15,-48.67 489.21,-55.61"/>
</a>
</g>
</g>
<!-- Node4 -->
<g id="Node000004" class="node">
<title>Node4</title>
<g id="a_Node000004"><a xlink:href="structclk_1_1si3__sim_1_1Si3Sim.html#ac25a7d32cb0802f01b1796c979cd9771" target="_top" xlink:title="find the first measurement event after the current time">
<polygon fill="white" stroke="#666666" points="290,-78 150,-78 150,-48 290,-48 290,-78"/>
<text text-anchor="start" x="158" y="-66" font-family="Helvetica,sans-Serif" font-size="10.00">clk::si3_sim::Si3Sim</text>
<text text-anchor="middle" x="220" y="-55" font-family="Helvetica,sans-Serif" font-size="10.00">::nextMeasurementEvent</text>
</a>
</g>
</g>
<!-- Node3&#45;&gt;Node4 -->
<g id="edge3_Node000003_Node000004" class="edge">
<title>Node3&#45;&gt;Node4</title>
<g id="a_edge3_Node000003_Node000004"><a xlink:title=" ">
<path fill="none" stroke="#63b8ff" d="M324,-48.42C312.89,-49.99 301.34,-51.62 290.17,-53.21"/>
<polygon fill="#63b8ff" stroke="#63b8ff" points="324.65,-51.86 334.06,-46.99 323.67,-44.93 324.65,-51.86"/>
</a>
</g>
</g>
<!-- Node6 -->
<g id="Node000006" class="node">
<title>Node6</title>
<g id="a_Node000006"><a xlink:href="structclk_1_1si3__sim_1_1Si3Sim.html#a9e67ccf25001ad917a3d183febee082a" target="_top" xlink:title="Get the start time for the next occurance of the measurement event.">
<polygon fill="white" stroke="#666666" points="277,-30 163,-30 163,0 277,0 277,-30"/>
<text text-anchor="start" x="171" y="-18" font-family="Helvetica,sans-Serif" font-size="10.00">clk::si3_sim::Si3Sim</text>
<text text-anchor="middle" x="220" y="-7" font-family="Helvetica,sans-Serif" font-size="10.00">::nextStart</text>
</a>
</g>
</g>
<!-- Node3&#45;&gt;Node6 -->
<g id="edge5_Node000003_Node000006" class="edge">
<title>Node3&#45;&gt;Node6</title>
<g id="a_edge5_Node000003_Node000006"><a xlink:title=" ">
<path fill="none" stroke="#63b8ff" d="M324.03,-29.59C308.54,-27.39 292.19,-25.08 277.19,-22.96"/>
<polygon fill="#63b8ff" stroke="#63b8ff" points="323.67,-33.07 334.06,-31.01 324.65,-26.14 323.67,-33.07"/>
</a>
</g>
</g>
<!-- Node5 -->
<g id="Node000005" class="node">
<title>Node5</title>
<g id="a_Node000005"><a xlink:href="structclk_1_1si3__sim_1_1Si3Sim.html#a64baf869324064ea80664905356dc872" target="_top" xlink:title="Generate the data for the si3 sim.">
<polygon fill="white" stroke="#666666" points="114,-54 0,-54 0,-24 114,-24 114,-54"/>
<text text-anchor="start" x="8" y="-42" font-family="Helvetica,sans-Serif" font-size="10.00">clk::si3_sim::Si3Sim</text>
<text text-anchor="middle" x="57" y="-31" font-family="Helvetica,sans-Serif" font-size="10.00">::generateData</text>
</a>
</g>
</g>
<!-- Node4&#45;&gt;Node5 -->
<g id="edge4_Node000004_Node000005" class="edge">
<title>Node4&#45;&gt;Node5</title>
<g id="a_edge4_Node000004_Node000005"><a xlink:title=" ">
<path fill="none" stroke="#63b8ff" d="M139.66,-51.17C131.01,-49.88 122.34,-48.59 114.06,-47.36"/>
<polygon fill="#63b8ff" stroke="#63b8ff" points="139.38,-54.67 149.79,-52.68 140.41,-47.75 139.38,-54.67"/>
</a>
</g>
</g>
<!-- Node6&#45;&gt;Node5 -->
<g id="edge6_Node000006_Node000005" class="edge">
<title>Node6&#45;&gt;Node5</title>
<g id="a_edge6_Node000006_Node000005"><a xlink:title=" ">
<path fill="none" stroke="#63b8ff" d="M152.55,-24.91C139.74,-26.82 126.44,-28.8 114.01,-30.65"/>
<polygon fill="#63b8ff" stroke="#63b8ff" points="153.32,-28.33 162.69,-23.39 152.28,-21.41 153.32,-28.33"/>
</a>
</g>
</g>
</g>
</svg>
