<?xml version="1.0" encoding="UTF-8" standalone="no"?>
<!DOCTYPE svg PUBLIC "-//W3C//DTD SVG 1.1//EN"
 "http://www.w3.org/Graphics/SVG/1.1/DTD/svg11.dtd">
<!-- Generated by graphviz version 2.43.0 (0)
 -->
<!-- Title: clk::si3_sim::Si3Sim::scheduleDay Pages: 1 -->
<svg width="525pt" height="86pt"
 viewBox="0.00 0.00 525.00 86.00" xmlns="http://www.w3.org/2000/svg" xmlns:xlink="http://www.w3.org/1999/xlink">
<g id="graph0" class="graph" transform="scale(1 1) rotate(0) translate(4 82)">
<title>clk::si3_sim::Si3Sim::scheduleDay</title>
<!-- Node1 -->
<g id="Node000001" class="node">
<title>Node1</title>
<g id="a_Node000001"><a xlink:title="Get the current schedule day.">
<polygon fill="#999999" stroke="#666666" points="517,-54 403,-54 403,-24 517,-24 517,-54"/>
<text text-anchor="start" x="411" y="-42" font-family="Helvetica,sans-Serif" font-size="10.00">clk::si3_sim::Si3Sim</text>
<text text-anchor="middle" x="460" y="-31" font-family="Helvetica,sans-Serif" font-size="10.00">::scheduleDay</text>
</a>
</g>
</g>
<!-- Node2 -->
<g id="Node000002" class="node">
<title>Node2</title>
<g id="a_Node000002"><a xlink:href="structclk_1_1si3__sim_1_1Si3Sim.html#ac25a7d32cb0802f01b1796c979cd9771" target="_top" xlink:title="find the first measurement event after the current time">
<polygon fill="white" stroke="#666666" points="367,-78 227,-78 227,-48 367,-48 367,-78"/>
<text text-anchor="start" x="235" y="-66" font-family="Helvetica,sans-Serif" font-size="10.00">clk::si3_sim::Si3Sim</text>
<text text-anchor="middle" x="297" y="-55" font-family="Helvetica,sans-Serif" font-size="10.00">::nextMeasurementEvent</text>
</a>
</g>
</g>
<!-- Node1&#45;&gt;Node2 -->
<g id="edge1_Node000001_Node000002" class="edge">
<title>Node1&#45;&gt;Node2</title>
<g id="a_edge1_Node000001_Node000002"><a xlink:title=" ">
<path fill="none" stroke="#63b8ff" d="M392.55,-48.91C384.12,-50.16 375.49,-51.45 367.03,-52.71"/>
<polygon fill="#63b8ff" stroke="#63b8ff" points="393.32,-52.33 402.69,-47.39 392.28,-45.41 393.32,-52.33"/>
</a>
</g>
</g>
<!-- Node5 -->
<g id="Node000005" class="node">
<title>Node5</title>
<g id="a_Node000005"><a xlink:href="structclk_1_1si3__sim_1_1Si3Sim.html#a9e67ccf25001ad917a3d183febee082a" target="_top" xlink:title="Get the start time for the next occurance of the measurement event.">
<polygon fill="white" stroke="#666666" points="354,-30 240,-30 240,0 354,0 354,-30"/>
<text text-anchor="start" x="248" y="-18" font-family="Helvetica,sans-Serif" font-size="10.00">clk::si3_sim::Si3Sim</text>
<text text-anchor="middle" x="297" y="-7" font-family="Helvetica,sans-Serif" font-size="10.00">::nextStart</text>
</a>
</g>
</g>
<!-- Node1&#45;&gt;Node5 -->
<g id="edge4_Node000001_Node000005" class="edge">
<title>Node1&#45;&gt;Node5</title>
<g id="a_edge4_Node000001_Node000005"><a xlink:title=" ">
<path fill="none" stroke="#63b8ff" d="M392.55,-29.09C379.74,-27.18 366.44,-25.2 354.01,-23.35"/>
<polygon fill="#63b8ff" stroke="#63b8ff" points="392.28,-32.59 402.69,-30.61 393.32,-25.67 392.28,-32.59"/>
</a>
</g>
</g>
<!-- Node3 -->
<g id="Node000003" class="node">
<title>Node3</title>
<g id="a_Node000003"><a xlink:href="structclk_1_1si3__sim_1_1Si3Sim.html#a64baf869324064ea80664905356dc872" target="_top" xlink:title="Generate the data for the si3 sim.">
<polygon fill="white" stroke="#666666" points="191,-54 77,-54 77,-24 191,-24 191,-54"/>
<text text-anchor="start" x="85" y="-42" font-family="Helvetica,sans-Serif" font-size="10.00">clk::si3_sim::Si3Sim</text>
<text text-anchor="middle" x="134" y="-31" font-family="Helvetica,sans-Serif" font-size="10.00">::generateData</text>
</a>
</g>
</g>
<!-- Node2&#45;&gt;Node3 -->
<g id="edge2_Node000002_Node000003" class="edge">
<title>Node2&#45;&gt;Node3</title>
<g id="a_edge2_Node000002_Node000003"><a xlink:title=" ">
<path fill="none" stroke="#63b8ff" d="M216.66,-51.17C208.01,-49.88 199.34,-48.59 191.06,-47.36"/>
<polygon fill="#63b8ff" stroke="#63b8ff" points="216.38,-54.67 226.79,-52.68 217.41,-47.75 216.38,-54.67"/>
</a>
</g>
</g>
<!-- Node4 -->
<g id="Node000004" class="node">
<title>Node4</title>
<g id="a_Node000004"><a xlink:href="main_8cpp.html#a3c04138a5bfe5d72780bb7e82a18e627" target="_top" xlink:title="Main entry point for the Si3 simulation tool.">
<polygon fill="white" stroke="#666666" points="41,-48.5 0,-48.5 0,-29.5 41,-29.5 41,-48.5"/>
<text text-anchor="middle" x="20.5" y="-36.5" font-family="Helvetica,sans-Serif" font-size="10.00">main</text>
</a>
</g>
</g>
<!-- Node3&#45;&gt;Node4 -->
<g id="edge3_Node000003_Node000004" class="edge">
<title>Node3&#45;&gt;Node4</title>
<g id="a_edge3_Node000003_Node000004"><a xlink:title=" ">
<path fill="none" stroke="#63b8ff" d="M66.7,-39C57.37,-39 48.45,-39 41.04,-39"/>
<polygon fill="#63b8ff" stroke="#63b8ff" points="66.92,-42.5 76.92,-39 66.92,-35.5 66.92,-42.5"/>
</a>
</g>
</g>
<!-- Node5&#45;&gt;Node3 -->
<g id="edge5_Node000005_Node000003" class="edge">
<title>Node5&#45;&gt;Node3</title>
<g id="a_edge5_Node000005_Node000003"><a xlink:title=" ">
<path fill="none" stroke="#63b8ff" d="M229.55,-24.91C216.74,-26.82 203.44,-28.8 191.01,-30.65"/>
<polygon fill="#63b8ff" stroke="#63b8ff" points="230.32,-28.33 239.69,-23.39 229.28,-21.41 230.32,-28.33"/>
</a>
</g>
</g>
</g>
</svg>
