<?xml version="1.0" encoding="UTF-8" standalone="no"?>
<!DOCTYPE svg PUBLIC "-//W3C//DTD SVG 1.1//EN"
 "http://www.w3.org/Graphics/SVG/1.1/DTD/svg11.dtd">
<!-- Generated by graphviz version 2.43.0 (0)
 -->
<!-- Title: clk::si3_sim::Si3Sim::~Si3Sim Pages: 1 -->
<svg width="601pt" height="134pt"
 viewBox="0.00 0.00 601.00 134.00" xmlns="http://www.w3.org/2000/svg" xmlns:xlink="http://www.w3.org/1999/xlink">
<g id="graph0" class="graph" transform="scale(1 1) rotate(0) translate(4 130)">
<title>clk::si3_sim::Si3Sim::~Si3Sim</title>
<!-- Node1 -->
<g id="Node000001" class="node">
<title>Node1</title>
<g id="a_Node000001"><a xlink:title="Destructor.">
<polygon fill="#999999" stroke="#666666" points="114,-78 0,-78 0,-48 114,-48 114,-78"/>
<text text-anchor="start" x="8" y="-66" font-family="Helvetica,sans-Serif" font-size="10.00">clk::si3_sim::Si3Sim</text>
<text text-anchor="middle" x="57" y="-55" font-family="Helvetica,sans-Serif" font-size="10.00">::~Si3Sim</text>
</a>
</g>
</g>
<!-- Node2 -->
<g id="Node000002" class="node">
<title>Node2</title>
<g id="a_Node000002"><a xlink:href="structclk_1_1si3__sim_1_1Config.html#a448cc5eca66f692912a052a70765be43" target="_top" xlink:title=" ">
<polygon fill="white" stroke="#666666" points="270,-126 159,-126 159,-96 270,-96 270,-126"/>
<text text-anchor="start" x="167" y="-114" font-family="Helvetica,sans-Serif" font-size="10.00">clk::si3_sim::Config</text>
<text text-anchor="middle" x="214.5" y="-103" font-family="Helvetica,sans-Serif" font-size="10.00">::lastRunRecord</text>
</a>
</g>
</g>
<!-- Node1&#45;&gt;Node2 -->
<g id="edge1_Node000001_Node000002" class="edge">
<title>Node1&#45;&gt;Node2</title>
<g id="a_edge1_Node000001_Node000002"><a xlink:title=" ">
<path fill="none" stroke="#63b8ff" d="M106.77,-78.06C122.12,-82.79 139.22,-88.07 155.15,-92.99"/>
<polygon fill="#63b8ff" stroke="#63b8ff" points="154.31,-96.39 164.9,-96 156.38,-89.7 154.31,-96.39"/>
</a>
</g>
</g>
<!-- Node3 -->
<g id="Node000003" class="node">
<title>Node3</title>
<g id="a_Node000003"><a xlink:href="structclk_1_1si3__sim_1_1Config.html#a79c68f770974d265b018338fd42b259f" target="_top" xlink:title="Update the last run record for the simulation.">
<polygon fill="white" stroke="#666666" points="279,-78 150,-78 150,-48 279,-48 279,-78"/>
<text text-anchor="start" x="158" y="-66" font-family="Helvetica,sans-Serif" font-size="10.00">clk::si3_sim::Config</text>
<text text-anchor="middle" x="214.5" y="-55" font-family="Helvetica,sans-Serif" font-size="10.00">::updateLastRunRecord</text>
</a>
</g>
</g>
<!-- Node1&#45;&gt;Node3 -->
<g id="edge2_Node000001_Node000003" class="edge">
<title>Node1&#45;&gt;Node3</title>
<g id="a_edge2_Node000001_Node000003"><a xlink:title=" ">
<path fill="none" stroke="#63b8ff" d="M114.14,-63C122.46,-63 131.13,-63 139.74,-63"/>
<polygon fill="#63b8ff" stroke="#63b8ff" points="139.79,-66.5 149.79,-63 139.79,-59.5 139.79,-66.5"/>
</a>
</g>
</g>
<!-- Node4 -->
<g id="Node000004" class="node">
<title>Node4</title>
<g id="a_Node000004"><a xlink:href="structclk_1_1si3__sim_1_1Config.html#a52d2c0f38234645a9b0b431e867108d0" target="_top" xlink:title="Write the configuration to a file.">
<polygon fill="white" stroke="#666666" points="270,-30 159,-30 159,0 270,0 270,-30"/>
<text text-anchor="start" x="167" y="-18" font-family="Helvetica,sans-Serif" font-size="10.00">clk::si3_sim::Config</text>
<text text-anchor="middle" x="214.5" y="-7" font-family="Helvetica,sans-Serif" font-size="10.00">::writeToFile</text>
</a>
</g>
</g>
<!-- Node1&#45;&gt;Node4 -->
<g id="edge3_Node000001_Node000004" class="edge">
<title>Node1&#45;&gt;Node4</title>
<g id="a_edge3_Node000001_Node000004"><a xlink:title=" ">
<path fill="none" stroke="#63b8ff" d="M106.77,-47.94C122.12,-43.21 139.22,-37.93 155.15,-33.01"/>
<polygon fill="#63b8ff" stroke="#63b8ff" points="156.38,-36.3 164.9,-30 154.31,-29.61 156.38,-36.3"/>
</a>
</g>
</g>
<!-- Node5 -->
<g id="Node000005" class="node">
<title>Node5</title>
<g id="a_Node000005"><a xlink:href="structclk_1_1si3__sim_1_1Config.html#a7a987d6de2f2cc60fcfc53a1ffb94cf4" target="_top" xlink:title="write the configuration to a stream.">
<polygon fill="white" stroke="#666666" points="426,-30 315,-30 315,0 426,0 426,-30"/>
<text text-anchor="start" x="323" y="-18" font-family="Helvetica,sans-Serif" font-size="10.00">clk::si3_sim::Config</text>
<text text-anchor="middle" x="370.5" y="-7" font-family="Helvetica,sans-Serif" font-size="10.00">::write</text>
</a>
</g>
</g>
<!-- Node4&#45;&gt;Node5 -->
<g id="edge4_Node000004_Node000005" class="edge">
<title>Node4&#45;&gt;Node5</title>
<g id="a_edge4_Node000004_Node000005"><a xlink:title=" ">
<path fill="none" stroke="#63b8ff" d="M270.23,-15C281.46,-15 293.39,-15 304.93,-15"/>
<polygon fill="#63b8ff" stroke="#63b8ff" points="304.95,-18.5 314.95,-15 304.95,-11.5 304.95,-18.5"/>
</a>
</g>
</g>
<!-- Node6 -->
<g id="Node000006" class="node">
<title>Node6</title>
<g id="a_Node000006"><a xlink:href="structclk_1_1misc__lib_1_1DateTime.html#a8b223c0f6e3f0282852414c2a6d0fd54" target="_top" xlink:title="Convert the DateTime object to an ISO 8601 string.">
<polygon fill="white" stroke="#666666" points="593,-30 462,-30 462,0 593,0 593,-30"/>
<text text-anchor="start" x="470" y="-18" font-family="Helvetica,sans-Serif" font-size="10.00">clk::misc_lib::DateTime</text>
<text text-anchor="middle" x="527.5" y="-7" font-family="Helvetica,sans-Serif" font-size="10.00">::toString</text>
</a>
</g>
</g>
<!-- Node5&#45;&gt;Node6 -->
<g id="edge5_Node000005_Node000006" class="edge">
<title>Node5&#45;&gt;Node6</title>
<g id="a_edge5_Node000005_Node000006"><a xlink:title=" ">
<path fill="none" stroke="#63b8ff" d="M426.15,-15C434.48,-15 443.2,-15 451.87,-15"/>
<polygon fill="#63b8ff" stroke="#63b8ff" points="452,-18.5 462,-15 452,-11.5 452,-18.5"/>
</a>
</g>
</g>
</g>
</svg>
