<?xml version="1.0" encoding="UTF-8" standalone="no"?>
<!DOCTYPE svg PUBLIC "-//W3C//DTD SVG 1.1//EN"
 "http://www.w3.org/Graphics/SVG/1.1/DTD/svg11.dtd">
<!-- Generated by graphviz version 2.43.0 (0)
 -->
<!-- Title: clk::si3_sim::Config::read Pages: 1 -->
<svg width="458pt" height="107pt"
 viewBox="0.00 0.00 458.00 107.00" xmlns="http://www.w3.org/2000/svg" xmlns:xlink="http://www.w3.org/1999/xlink">
<g id="graph0" class="graph" transform="scale(1 1) rotate(0) translate(4 103)">
<title>clk::si3_sim::Config::read</title>
<!-- Node1 -->
<g id="Node000001" class="node">
<title>Node1</title>
<g id="a_Node000001"><a xlink:title="read a configuration from a stream.">
<polygon fill="#999999" stroke="#666666" points="111,-78 0,-78 0,-48 111,-48 111,-78"/>
<text text-anchor="start" x="8" y="-66" font-family="Helvetica,sans-Serif" font-size="10.00">clk::si3_sim::Config</text>
<text text-anchor="middle" x="55.5" y="-55" font-family="Helvetica,sans-Serif" font-size="10.00">::read</text>
</a>
</g>
</g>
<!-- Node2 -->
<g id="Node000002" class="node">
<title>Node2</title>
<g id="a_Node000002"><a xlink:href="structclk_1_1misc__lib_1_1DateTime.html#a8285a717c550e0188b22488da5945c69" target="_top" xlink:title="Factory method to create a DateTime object from an ISO 8601 string.">
<polygon fill="white" stroke="#666666" points="450,-99 319,-99 319,-69 450,-69 450,-99"/>
<text text-anchor="start" x="327" y="-87" font-family="Helvetica,sans-Serif" font-size="10.00">clk::misc_lib::DateTime</text>
<text text-anchor="middle" x="384.5" y="-76" font-family="Helvetica,sans-Serif" font-size="10.00">::fromISO</text>
</a>
</g>
</g>
<!-- Node1&#45;&gt;Node2 -->
<g id="edge1_Node000001_Node000002" class="edge">
<title>Node1&#45;&gt;Node2</title>
<g id="a_edge1_Node000001_Node000002"><a xlink:title=" ">
<path fill="none" stroke="#63b8ff" d="M103.94,-78.05C117.69,-81.74 132.82,-85.15 147,-87 200.87,-94.02 262.22,-92.98 308.93,-90.34"/>
<polygon fill="#63b8ff" stroke="#63b8ff" points="309.2,-93.83 318.97,-89.74 308.78,-86.85 309.2,-93.83"/>
</a>
</g>
</g>
<!-- Node3 -->
<g id="Node000003" class="node">
<title>Node3</title>
<g id="a_Node000003"><a xlink:href="structclk_1_1misc__lib_1_1RunRecord.html#acabfa9ce270724aa81b06ef1b4e8cf15" target="_top" xlink:title="Factory method to construct a RunRecord from a JSON object.">
<polygon fill="white" stroke="#666666" points="283,-78 147,-78 147,-48 283,-48 283,-78"/>
<text text-anchor="start" x="155" y="-66" font-family="Helvetica,sans-Serif" font-size="10.00">clk::misc_lib::RunRecord</text>
<text text-anchor="middle" x="215" y="-55" font-family="Helvetica,sans-Serif" font-size="10.00">::fromJson</text>
</a>
</g>
</g>
<!-- Node1&#45;&gt;Node3 -->
<g id="edge2_Node000001_Node000003" class="edge">
<title>Node1&#45;&gt;Node3</title>
<g id="a_edge2_Node000001_Node000003"><a xlink:title=" ">
<path fill="none" stroke="#63b8ff" d="M111.14,-63C119.45,-63 128.14,-63 136.81,-63"/>
<polygon fill="#63b8ff" stroke="#63b8ff" points="136.96,-66.5 146.96,-63 136.96,-59.5 136.96,-66.5"/>
</a>
</g>
</g>
<!-- Node4 -->
<g id="Node000004" class="node">
<title>Node4</title>
<g id="a_Node000004"><a xlink:href="structclk_1_1misc__lib_1_1Time.html#a6c199b196b0cb96045ea55916072d867" target="_top" xlink:title="Read a Time object from a string.">
<polygon fill="white" stroke="#666666" points="269,-30 161,-30 161,0 269,0 269,-30"/>
<text text-anchor="start" x="169" y="-18" font-family="Helvetica,sans-Serif" font-size="10.00">clk::misc_lib::Time</text>
<text text-anchor="middle" x="215" y="-7" font-family="Helvetica,sans-Serif" font-size="10.00">::fromString</text>
</a>
</g>
</g>
<!-- Node1&#45;&gt;Node4 -->
<g id="edge4_Node000001_Node000004" class="edge">
<title>Node1&#45;&gt;Node4</title>
<g id="a_edge4_Node000001_Node000004"><a xlink:title=" ">
<path fill="none" stroke="#63b8ff" d="M105.9,-47.94C121.44,-43.21 138.76,-37.93 154.9,-33.01"/>
<polygon fill="#63b8ff" stroke="#63b8ff" points="156.23,-36.27 164.77,-30 154.19,-29.57 156.23,-36.27"/>
</a>
</g>
</g>
<!-- Node3&#45;&gt;Node2 -->
<g id="edge3_Node000003_Node000002" class="edge">
<title>Node3&#45;&gt;Node2</title>
<g id="a_edge3_Node000003_Node000002"><a xlink:title=" ">
<path fill="none" stroke="#63b8ff" d="M283.16,-71.42C291.6,-72.48 300.28,-73.57 308.82,-74.64"/>
<polygon fill="#63b8ff" stroke="#63b8ff" points="308.41,-78.11 318.77,-75.88 309.29,-71.17 308.41,-78.11"/>
</a>
</g>
</g>
<!-- Node5 -->
<g id="Node000005" class="node">
<title>Node5</title>
<g id="a_Node000005"><a xlink:href="structclk_1_1misc__lib_1_1Time.html#a48fe39d72cb179cc36f510aab72578e2" target="_top" xlink:title="Default constructor for Time. Initializes the time to 00:00:00.">
<polygon fill="white" stroke="#666666" points="438.5,-30 330.5,-30 330.5,0 438.5,0 438.5,-30"/>
<text text-anchor="start" x="338.5" y="-18" font-family="Helvetica,sans-Serif" font-size="10.00">clk::misc_lib::Time</text>
<text text-anchor="middle" x="384.5" y="-7" font-family="Helvetica,sans-Serif" font-size="10.00">::Time</text>
</a>
</g>
</g>
<!-- Node4&#45;&gt;Node5 -->
<g id="edge5_Node000004_Node000005" class="edge">
<title>Node4&#45;&gt;Node5</title>
<g id="a_edge5_Node000004_Node000005"><a xlink:title=" ">
<path fill="none" stroke="#63b8ff" d="M269.46,-15C285.55,-15 303.37,-15 320.05,-15"/>
<polygon fill="#63b8ff" stroke="#63b8ff" points="320.26,-18.5 330.26,-15 320.26,-11.5 320.26,-18.5"/>
</a>
</g>
</g>
</g>
</svg>
