<?xml version="1.0" encoding="UTF-8" standalone="no"?>
<!DOCTYPE svg PUBLIC "-//W3C//DTD SVG 1.1//EN"
 "http://www.w3.org/Graphics/SVG/1.1/DTD/svg11.dtd">
<!-- Generated by graphviz version 2.43.0 (0)
 -->
<!-- Title: clk::misc_lib::DateTime::timeOfDay Pages: 1 -->
<svg width="542pt" height="172pt"
 viewBox="0.00 0.00 542.00 172.00" xmlns="http://www.w3.org/2000/svg" xmlns:xlink="http://www.w3.org/1999/xlink">
<g id="graph0" class="graph" transform="scale(1 1) rotate(0) translate(4 168)">
<title>clk::misc_lib::DateTime::timeOfDay</title>
<!-- Node1 -->
<g id="Node000001" class="node">
<title>Node1</title>
<g id="a_Node000001"><a xlink:title="Get the time of day of the time point.">
<polygon fill="#999999" stroke="#666666" points="534,-99 403,-99 403,-69 534,-69 534,-99"/>
<text text-anchor="start" x="411" y="-87" font-family="Helvetica,sans-Serif" font-size="10.00">clk::misc_lib::DateTime</text>
<text text-anchor="middle" x="468.5" y="-76" font-family="Helvetica,sans-Serif" font-size="10.00">::timeOfDay</text>
</a>
</g>
</g>
<!-- Node2 -->
<g id="Node000002" class="node">
<title>Node2</title>
<g id="a_Node000002"><a xlink:href="structclk_1_1misc__lib_1_1DateTime.html#a24ca9963d82f1d8eee2abc048fd90b15" target="_top" xlink:title="Get the fractional Modified Julian Date (MJD) of the time point.">
<polygon fill="white" stroke="#666666" points="362.5,-164 231.5,-164 231.5,-134 362.5,-134 362.5,-164"/>
<text text-anchor="start" x="239.5" y="-152" font-family="Helvetica,sans-Serif" font-size="10.00">clk::misc_lib::DateTime</text>
<text text-anchor="middle" x="297" y="-141" font-family="Helvetica,sans-Serif" font-size="10.00">::fractionalMJD</text>
</a>
</g>
</g>
<!-- Node1&#45;&gt;Node2 -->
<g id="edge1_Node000001_Node000002" class="edge">
<title>Node1&#45;&gt;Node2</title>
<g id="a_edge1_Node000001_Node000002"><a xlink:title=" ">
<path fill="none" stroke="#63b8ff" d="M418.6,-102.75C392.81,-112.64 361.6,-124.61 337.39,-133.89"/>
<polygon fill="#63b8ff" stroke="#63b8ff" points="420.1,-105.92 428.19,-99.08 417.6,-99.39 420.1,-105.92"/>
</a>
</g>
</g>
<!-- Node3 -->
<g id="Node000003" class="node">
<title>Node3</title>
<g id="a_Node000003"><a xlink:href="structclk_1_1si3__sim_1_1Si3Sim.html#a64baf869324064ea80664905356dc872" target="_top" xlink:title="Generate the data for the si3 sim.">
<polygon fill="white" stroke="#666666" points="191,-78 77,-78 77,-48 191,-48 191,-78"/>
<text text-anchor="start" x="85" y="-66" font-family="Helvetica,sans-Serif" font-size="10.00">clk::si3_sim::Si3Sim</text>
<text text-anchor="middle" x="134" y="-55" font-family="Helvetica,sans-Serif" font-size="10.00">::generateData</text>
</a>
</g>
</g>
<!-- Node1&#45;&gt;Node3 -->
<g id="edge2_Node000001_Node000003" class="edge">
<title>Node1&#45;&gt;Node3</title>
<g id="a_edge2_Node000001_Node000003"><a xlink:title=" ">
<path fill="none" stroke="#63b8ff" d="M392.68,-90.29C345.06,-92.98 282.18,-94.08 227,-87 212.59,-85.15 197.22,-81.74 183.25,-78.05"/>
<polygon fill="#63b8ff" stroke="#63b8ff" points="393.14,-93.77 402.91,-89.68 392.72,-86.78 393.14,-93.77"/>
</a>
</g>
</g>
<!-- Node5 -->
<g id="Node000005" class="node">
<title>Node5</title>
<g id="a_Node000005"><a xlink:href="structclk_1_1si3__sim_1_1Si3Sim.html#ac25a7d32cb0802f01b1796c979cd9771" target="_top" xlink:title="find the first measurement event after the current time">
<polygon fill="white" stroke="#666666" points="367,-78 227,-78 227,-48 367,-48 367,-78"/>
<text text-anchor="start" x="235" y="-66" font-family="Helvetica,sans-Serif" font-size="10.00">clk::si3_sim::Si3Sim</text>
<text text-anchor="middle" x="297" y="-55" font-family="Helvetica,sans-Serif" font-size="10.00">::nextMeasurementEvent</text>
</a>
</g>
</g>
<!-- Node1&#45;&gt;Node5 -->
<g id="edge4_Node000001_Node000005" class="edge">
<title>Node1&#45;&gt;Node5</title>
<g id="a_edge4_Node000001_Node000005"><a xlink:title=" ">
<path fill="none" stroke="#63b8ff" d="M392.96,-74.77C384.39,-73.7 375.68,-72.62 367.18,-71.57"/>
<polygon fill="#63b8ff" stroke="#63b8ff" points="392.58,-78.24 402.94,-76 393.44,-71.3 392.58,-78.24"/>
</a>
</g>
</g>
<!-- Node6 -->
<g id="Node000006" class="node">
<title>Node6</title>
<g id="a_Node000006"><a xlink:href="structclk_1_1si3__sim_1_1Si3Sim.html#a9e67ccf25001ad917a3d183febee082a" target="_top" xlink:title="Get the start time for the next occurance of the measurement event.">
<polygon fill="white" stroke="#666666" points="354,-30 240,-30 240,0 354,0 354,-30"/>
<text text-anchor="start" x="248" y="-18" font-family="Helvetica,sans-Serif" font-size="10.00">clk::si3_sim::Si3Sim</text>
<text text-anchor="middle" x="297" y="-7" font-family="Helvetica,sans-Serif" font-size="10.00">::nextStart</text>
</a>
</g>
</g>
<!-- Node1&#45;&gt;Node6 -->
<g id="edge6_Node000001_Node000006" class="edge">
<title>Node1&#45;&gt;Node6</title>
<g id="a_edge6_Node000001_Node000006"><a xlink:title=" ">
<path fill="none" stroke="#63b8ff" d="M426.55,-64.7C408.45,-56.42 386.82,-46.87 367,-39 359.34,-35.96 351.12,-32.91 343.12,-30.06"/>
<polygon fill="#63b8ff" stroke="#63b8ff" points="425.12,-67.9 435.67,-68.9 428.05,-61.54 425.12,-67.9"/>
</a>
</g>
</g>
<!-- Node4 -->
<g id="Node000004" class="node">
<title>Node4</title>
<g id="a_Node000004"><a xlink:href="main_8cpp.html#a3c04138a5bfe5d72780bb7e82a18e627" target="_top" xlink:title="Main entry point for the Si3 simulation tool.">
<polygon fill="white" stroke="#666666" points="41,-72.5 0,-72.5 0,-53.5 41,-53.5 41,-72.5"/>
<text text-anchor="middle" x="20.5" y="-60.5" font-family="Helvetica,sans-Serif" font-size="10.00">main</text>
</a>
</g>
</g>
<!-- Node3&#45;&gt;Node4 -->
<g id="edge3_Node000003_Node000004" class="edge">
<title>Node3&#45;&gt;Node4</title>
<g id="a_edge3_Node000003_Node000004"><a xlink:title=" ">
<path fill="none" stroke="#63b8ff" d="M66.7,-63C57.37,-63 48.45,-63 41.04,-63"/>
<polygon fill="#63b8ff" stroke="#63b8ff" points="66.92,-66.5 76.92,-63 66.92,-59.5 66.92,-66.5"/>
</a>
</g>
</g>
<!-- Node5&#45;&gt;Node3 -->
<g id="edge5_Node000005_Node000003" class="edge">
<title>Node5&#45;&gt;Node3</title>
<g id="a_edge5_Node000005_Node000003"><a xlink:title=" ">
<path fill="none" stroke="#63b8ff" d="M216.66,-63C208.01,-63 199.34,-63 191.06,-63"/>
<polygon fill="#63b8ff" stroke="#63b8ff" points="216.79,-66.5 226.79,-63 216.79,-59.5 216.79,-66.5"/>
</a>
</g>
</g>
<!-- Node6&#45;&gt;Node3 -->
<g id="edge7_Node000006_Node000003" class="edge">
<title>Node6&#45;&gt;Node3</title>
<g id="a_edge7_Node000006_Node000003"><a xlink:title=" ">
<path fill="none" stroke="#63b8ff" d="M235.87,-32.93C219.23,-37.89 201.34,-43.22 185.32,-48"/>
<polygon fill="#63b8ff" stroke="#63b8ff" points="236.92,-36.27 245.5,-30.06 234.92,-29.56 236.92,-36.27"/>
</a>
</g>
</g>
</g>
</svg>
