<?xml version="1.0" encoding="UTF-8" standalone="no"?>
<!DOCTYPE svg PUBLIC "-//W3C//DTD SVG 1.1//EN"
 "http://www.w3.org/Graphics/SVG/1.1/DTD/svg11.dtd">
<!-- Generated by graphviz version 2.43.0 (0)
 -->
<!-- Title: clk::si3_sim::Config::interval Pages: 1 -->
<svg width="595pt" height="86pt"
 viewBox="0.00 0.00 595.00 86.00" xmlns="http://www.w3.org/2000/svg" xmlns:xlink="http://www.w3.org/1999/xlink">
<g id="graph0" class="graph" transform="scale(1 1) rotate(0) translate(4 82)">
<title>clk::si3_sim::Config::interval</title>
<!-- Node1 -->
<g id="Node000001" class="node">
<title>Node1</title>
<g id="a_Node000001"><a xlink:title="Get the interval for the current schedule.">
<polygon fill="#999999" stroke="#666666" points="587,-56 476,-56 476,-26 587,-26 587,-56"/>
<text text-anchor="start" x="484" y="-44" font-family="Helvetica,sans-Serif" font-size="10.00">clk::si3_sim::Config</text>
<text text-anchor="middle" x="531.5" y="-33" font-family="Helvetica,sans-Serif" font-size="10.00">::interval</text>
</a>
</g>
</g>
<!-- Node2 -->
<g id="Node000002" class="node">
<title>Node2</title>
<g id="a_Node000002"><a xlink:href="structclk_1_1si3__sim_1_1Si3Sim.html#a9e67ccf25001ad917a3d183febee082a" target="_top" xlink:title="Get the start time for the next occurance of the measurement event.">
<polygon fill="white" stroke="#666666" points="277,-78 163,-78 163,-48 277,-48 277,-78"/>
<text text-anchor="start" x="171" y="-66" font-family="Helvetica,sans-Serif" font-size="10.00">clk::si3_sim::Si3Sim</text>
<text text-anchor="middle" x="220" y="-55" font-family="Helvetica,sans-Serif" font-size="10.00">::nextStart</text>
</a>
</g>
</g>
<!-- Node1&#45;&gt;Node2 -->
<g id="edge1_Node000001_Node000002" class="edge">
<title>Node1&#45;&gt;Node2</title>
<g id="a_edge1_Node000001_Node000002"><a xlink:title=" ">
<path fill="none" stroke="#63b8ff" d="M465.76,-45.6C409.98,-49.57 330.29,-55.23 277.16,-59.01"/>
<polygon fill="#63b8ff" stroke="#63b8ff" points="466.15,-49.08 475.88,-44.88 465.66,-42.1 466.15,-49.08"/>
</a>
</g>
</g>
<!-- Node4 -->
<g id="Node000004" class="node">
<title>Node4</title>
<g id="a_Node000004"><a xlink:href="structclk_1_1si3__sim_1_1Si3Sim.html#aad0b41bfeec82f9da4e8447639bb8819" target="_top" xlink:title="Get the current schedule day.">
<polygon fill="white" stroke="#666666" points="440,-35 326,-35 326,-5 440,-5 440,-35"/>
<text text-anchor="start" x="334" y="-23" font-family="Helvetica,sans-Serif" font-size="10.00">clk::si3_sim::Si3Sim</text>
<text text-anchor="middle" x="383" y="-12" font-family="Helvetica,sans-Serif" font-size="10.00">::scheduleDay</text>
</a>
</g>
</g>
<!-- Node1&#45;&gt;Node4 -->
<g id="edge3_Node000001_Node000004" class="edge">
<title>Node1&#45;&gt;Node4</title>
<g id="a_edge3_Node000001_Node000004"><a xlink:title=" ">
<path fill="none" stroke="#63b8ff" d="M465.93,-31.74C457.31,-30.51 448.53,-29.25 440.06,-28.04"/>
<polygon fill="#63b8ff" stroke="#63b8ff" points="465.55,-35.23 475.95,-33.18 466.55,-28.3 465.55,-35.23"/>
</a>
</g>
</g>
<!-- Node3 -->
<g id="Node000003" class="node">
<title>Node3</title>
<g id="a_Node000003"><a xlink:href="structclk_1_1si3__sim_1_1Si3Sim.html#a64baf869324064ea80664905356dc872" target="_top" xlink:title="Generate the data for the si3 sim.">
<polygon fill="white" stroke="#666666" points="114,-54 0,-54 0,-24 114,-24 114,-54"/>
<text text-anchor="start" x="8" y="-42" font-family="Helvetica,sans-Serif" font-size="10.00">clk::si3_sim::Si3Sim</text>
<text text-anchor="middle" x="57" y="-31" font-family="Helvetica,sans-Serif" font-size="10.00">::generateData</text>
</a>
</g>
</g>
<!-- Node2&#45;&gt;Node3 -->
<g id="edge2_Node000002_Node000003" class="edge">
<title>Node2&#45;&gt;Node3</title>
<g id="a_edge2_Node000002_Node000003"><a xlink:title=" ">
<path fill="none" stroke="#63b8ff" d="M152.55,-53.09C139.74,-51.18 126.44,-49.2 114.01,-47.35"/>
<polygon fill="#63b8ff" stroke="#63b8ff" points="152.28,-56.59 162.69,-54.61 153.32,-49.67 152.28,-56.59"/>
</a>
</g>
</g>
<!-- Node4&#45;&gt;Node2 -->
<g id="edge6_Node000004_Node000002" class="edge">
<title>Node4&#45;&gt;Node2</title>
<g id="a_edge6_Node000004_Node000002"><a xlink:title=" ">
<path fill="none" stroke="#63b8ff" d="M315.93,-37.65C303,-41.1 289.57,-44.69 277.01,-48.04"/>
<polygon fill="#63b8ff" stroke="#63b8ff" points="316.93,-41 325.69,-35.04 315.13,-34.24 316.93,-41"/>
</a>
</g>
</g>
<!-- Node5 -->
<g id="Node000005" class="node">
<title>Node5</title>
<g id="a_Node000005"><a xlink:href="structclk_1_1si3__sim_1_1Si3Sim.html#ac25a7d32cb0802f01b1796c979cd9771" target="_top" xlink:title="find the first measurement event after the current time">
<polygon fill="white" stroke="#666666" points="290,-30 150,-30 150,0 290,0 290,-30"/>
<text text-anchor="start" x="158" y="-18" font-family="Helvetica,sans-Serif" font-size="10.00">clk::si3_sim::Si3Sim</text>
<text text-anchor="middle" x="220" y="-7" font-family="Helvetica,sans-Serif" font-size="10.00">::nextMeasurementEvent</text>
</a>
</g>
</g>
<!-- Node4&#45;&gt;Node5 -->
<g id="edge4_Node000004_Node000005" class="edge">
<title>Node4&#45;&gt;Node5</title>
<g id="a_edge4_Node000004_Node000005"><a xlink:title=" ">
<path fill="none" stroke="#63b8ff" d="M315.55,-17.94C307.12,-17.67 298.49,-17.41 290.03,-17.14"/>
<polygon fill="#63b8ff" stroke="#63b8ff" points="315.59,-21.44 325.69,-18.25 315.8,-14.44 315.59,-21.44"/>
</a>
</g>
</g>
<!-- Node5&#45;&gt;Node3 -->
<g id="edge5_Node000005_Node000003" class="edge">
<title>Node5&#45;&gt;Node3</title>
<g id="a_edge5_Node000005_Node000003"><a xlink:title=" ">
<path fill="none" stroke="#63b8ff" d="M139.66,-26.83C131.01,-28.12 122.34,-29.41 114.06,-30.64"/>
<polygon fill="#63b8ff" stroke="#63b8ff" points="140.41,-30.25 149.79,-25.32 139.38,-23.33 140.41,-30.25"/>
</a>
</g>
</g>
</g>
</svg>
