<?xml version="1.0" encoding="UTF-8" standalone="no"?>
<!DOCTYPE svg PUBLIC "-//W3C//DTD SVG 1.1//EN"
 "http://www.w3.org/Graphics/SVG/1.1/DTD/svg11.dtd">
<!-- Generated by graphviz version 2.43.0 (0)
 -->
<!-- Title: clk::misc_lib::DateTime::fromISO Pages: 1 -->
<svg width="682pt" height="60pt"
 viewBox="0.00 0.00 682.00 60.00" xmlns="http://www.w3.org/2000/svg" xmlns:xlink="http://www.w3.org/1999/xlink">
<g id="graph0" class="graph" transform="scale(1 1) rotate(0) translate(4 56)">
<title>clk::misc_lib::DateTime::fromISO</title>
<!-- Node1 -->
<g id="Node000001" class="node">
<title>Node1</title>
<g id="a_Node000001"><a xlink:title="Factory method to create a DateTime object from an ISO 8601 string.">
<polygon fill="#999999" stroke="#666666" points="674,-30 543,-30 543,0 674,0 674,-30"/>
<text text-anchor="start" x="551" y="-18" font-family="Helvetica,sans-Serif" font-size="10.00">clk::misc_lib::DateTime</text>
<text text-anchor="middle" x="608.5" y="-7" font-family="Helvetica,sans-Serif" font-size="10.00">::fromISO</text>
</a>
</g>
</g>
<!-- Node2 -->
<g id="Node000002" class="node">
<title>Node2</title>
<g id="a_Node000002"><a xlink:href="structclk_1_1misc__lib_1_1RunRecord.html#acabfa9ce270724aa81b06ef1b4e8cf15" target="_top" xlink:title="Factory method to construct a RunRecord from a JSON object.">
<polygon fill="white" stroke="#666666" points="507,-52 371,-52 371,-22 507,-22 507,-52"/>
<text text-anchor="start" x="379" y="-40" font-family="Helvetica,sans-Serif" font-size="10.00">clk::misc_lib::RunRecord</text>
<text text-anchor="middle" x="439" y="-29" font-family="Helvetica,sans-Serif" font-size="10.00">::fromJson</text>
</a>
</g>
</g>
<!-- Node1&#45;&gt;Node2 -->
<g id="edge1_Node000001_Node000002" class="edge">
<title>Node1&#45;&gt;Node2</title>
<g id="a_edge1_Node000001_Node000002"><a xlink:title=" ">
<path fill="none" stroke="#63b8ff" d="M532.77,-24.81C524.22,-25.94 515.53,-27.08 507.08,-28.19"/>
<polygon fill="#63b8ff" stroke="#63b8ff" points="533.28,-28.28 542.74,-23.51 532.37,-21.34 533.28,-28.28"/>
</a>
</g>
</g>
<!-- Node3 -->
<g id="Node000003" class="node">
<title>Node3</title>
<g id="a_Node000003"><a xlink:href="structclk_1_1si3__sim_1_1Config.html#ae133c6ff4f7f1fb61db327e051de8812" target="_top" xlink:title="read a configuration from a stream.">
<polygon fill="white" stroke="#666666" points="335,-30 224,-30 224,0 335,0 335,-30"/>
<text text-anchor="start" x="232" y="-18" font-family="Helvetica,sans-Serif" font-size="10.00">clk::si3_sim::Config</text>
<text text-anchor="middle" x="279.5" y="-7" font-family="Helvetica,sans-Serif" font-size="10.00">::read</text>
</a>
</g>
</g>
<!-- Node1&#45;&gt;Node3 -->
<g id="edge5_Node000001_Node000003" class="edge">
<title>Node1&#45;&gt;Node3</title>
<g id="a_edge5_Node000001_Node000003"><a xlink:title=" ">
<path fill="none" stroke="#63b8ff" d="M532.75,-13.35C524.07,-13.2 515.34,-13.08 507,-13 446.56,-12.4 431.44,-12.33 371,-13 359.37,-13.13 346.9,-13.35 335.05,-13.6"/>
<polygon fill="#63b8ff" stroke="#63b8ff" points="532.84,-16.85 542.9,-13.52 532.96,-9.85 532.84,-16.85"/>
</a>
</g>
</g>
<!-- Node2&#45;&gt;Node3 -->
<g id="edge2_Node000002_Node000003" class="edge">
<title>Node2&#45;&gt;Node3</title>
<g id="a_edge2_Node000002_Node000003"><a xlink:title=" ">
<path fill="none" stroke="#63b8ff" d="M360.67,-26.2C352.06,-25 343.42,-23.79 335.17,-22.64"/>
<polygon fill="#63b8ff" stroke="#63b8ff" points="360.36,-29.69 370.75,-27.61 361.33,-22.76 360.36,-29.69"/>
</a>
</g>
</g>
<!-- Node4 -->
<g id="Node000004" class="node">
<title>Node4</title>
<g id="a_Node000004"><a xlink:href="structclk_1_1si3__sim_1_1Config.html#a09f0cc8c38c23a276f293cf8edcd1925" target="_top" xlink:title="Read a configuration from a file.">
<polygon fill="white" stroke="#666666" points="188,-30 77,-30 77,0 188,0 188,-30"/>
<text text-anchor="start" x="85" y="-18" font-family="Helvetica,sans-Serif" font-size="10.00">clk::si3_sim::Config</text>
<text text-anchor="middle" x="132.5" y="-7" font-family="Helvetica,sans-Serif" font-size="10.00">::readFromFile</text>
</a>
</g>
</g>
<!-- Node3&#45;&gt;Node4 -->
<g id="edge3_Node000003_Node000004" class="edge">
<title>Node3&#45;&gt;Node4</title>
<g id="a_edge3_Node000003_Node000004"><a xlink:title=" ">
<path fill="none" stroke="#63b8ff" d="M213.54,-15C205.14,-15 196.61,-15 188.4,-15"/>
<polygon fill="#63b8ff" stroke="#63b8ff" points="213.68,-18.5 223.68,-15 213.68,-11.5 213.68,-18.5"/>
</a>
</g>
</g>
<!-- Node5 -->
<g id="Node000005" class="node">
<title>Node5</title>
<g id="a_Node000005"><a xlink:href="main_8cpp.html#a3c04138a5bfe5d72780bb7e82a18e627" target="_top" xlink:title="Main entry point for the Si3 simulation tool.">
<polygon fill="white" stroke="#666666" points="41,-24.5 0,-24.5 0,-5.5 41,-5.5 41,-24.5"/>
<text text-anchor="middle" x="20.5" y="-12.5" font-family="Helvetica,sans-Serif" font-size="10.00">main</text>
</a>
</g>
</g>
<!-- Node4&#45;&gt;Node5 -->
<g id="edge4_Node000004_Node000005" class="edge">
<title>Node4&#45;&gt;Node5</title>
<g id="a_edge4_Node000004_Node000005"><a xlink:title=" ">
<path fill="none" stroke="#63b8ff" d="M66.64,-15C57.35,-15 48.45,-15 41.05,-15"/>
<polygon fill="#63b8ff" stroke="#63b8ff" points="66.82,-18.5 76.82,-15 66.82,-11.5 66.82,-18.5"/>
</a>
</g>
</g>
</g>
</svg>
