<?xml version="1.0" encoding="UTF-8" standalone="no"?>
<!DOCTYPE svg PUBLIC "-//W3C//DTD SVG 1.1//EN"
 "http://www.w3.org/Graphics/SVG/1.1/DTD/svg11.dtd">
<!-- Generated by graphviz version 2.43.0 (0)
 -->
<!-- Title: clk::misc_lib::RunRecord::toJson Pages: 1 -->
<svg width="311pt" height="86pt"
 viewBox="0.00 0.00 311.00 86.00" xmlns="http://www.w3.org/2000/svg" xmlns:xlink="http://www.w3.org/1999/xlink">
<g id="graph0" class="graph" transform="scale(1 1) rotate(0) translate(4 82)">
<title>clk::misc_lib::RunRecord::toJson</title>
<!-- Node1 -->
<g id="Node000001" class="node">
<title>Node1</title>
<g id="a_Node000001"><a xlink:title="Convert the run record to a JSON object.">
<polygon fill="#999999" stroke="#666666" points="136,-54 0,-54 0,-24 136,-24 136,-54"/>
<text text-anchor="start" x="8" y="-42" font-family="Helvetica,sans-Serif" font-size="10.00">clk::misc_lib::RunRecord</text>
<text text-anchor="middle" x="68" y="-31" font-family="Helvetica,sans-Serif" font-size="10.00">::toJson</text>
</a>
</g>
</g>
<!-- Node2 -->
<g id="Node000002" class="node">
<title>Node2</title>
<g id="a_Node000002"><a xlink:href="structclk_1_1misc__lib_1_1DateTime.html#a8e60cf5338c8ecc50dd48146469f137c" target="_top" xlink:title="Get the time point as a boost::posix_time::ptime object.">
<polygon fill="white" stroke="#666666" points="303,-78 172,-78 172,-48 303,-48 303,-78"/>
<text text-anchor="start" x="180" y="-66" font-family="Helvetica,sans-Serif" font-size="10.00">clk::misc_lib::DateTime</text>
<text text-anchor="middle" x="237.5" y="-55" font-family="Helvetica,sans-Serif" font-size="10.00">::timePoint</text>
</a>
</g>
</g>
<!-- Node1&#45;&gt;Node2 -->
<g id="edge1_Node000001_Node000002" class="edge">
<title>Node1&#45;&gt;Node2</title>
<g id="a_edge1_Node000001_Node000002"><a xlink:title=" ">
<path fill="none" stroke="#63b8ff" d="M136.16,-48.62C144.6,-49.83 153.28,-51.08 161.82,-52.3"/>
<polygon fill="#63b8ff" stroke="#63b8ff" points="161.38,-55.77 171.77,-53.73 162.37,-48.84 161.38,-55.77"/>
</a>
</g>
</g>
<!-- Node3 -->
<g id="Node000003" class="node">
<title>Node3</title>
<g id="a_Node000003"><a xlink:href="structclk_1_1misc__lib_1_1DateTime.html#a8b223c0f6e3f0282852414c2a6d0fd54" target="_top" xlink:title="Convert the DateTime object to an ISO 8601 string.">
<polygon fill="white" stroke="#666666" points="303,-30 172,-30 172,0 303,0 303,-30"/>
<text text-anchor="start" x="180" y="-18" font-family="Helvetica,sans-Serif" font-size="10.00">clk::misc_lib::DateTime</text>
<text text-anchor="middle" x="237.5" y="-7" font-family="Helvetica,sans-Serif" font-size="10.00">::toString</text>
</a>
</g>
</g>
<!-- Node1&#45;&gt;Node3 -->
<g id="edge2_Node000001_Node000003" class="edge">
<title>Node1&#45;&gt;Node3</title>
<g id="a_edge2_Node000001_Node000003"><a xlink:title=" ">
<path fill="none" stroke="#63b8ff" d="M136.16,-29.38C144.6,-28.17 153.28,-26.92 161.82,-25.7"/>
<polygon fill="#63b8ff" stroke="#63b8ff" points="162.37,-29.16 171.77,-24.27 161.38,-22.23 162.37,-29.16"/>
</a>
</g>
</g>
</g>
</svg>
