<?xml version="1.0" encoding="UTF-8" standalone="no"?>
<!DOCTYPE svg PUBLIC "-//W3C//DTD SVG 1.1//EN"
 "http://www.w3.org/Graphics/SVG/1.1/DTD/svg11.dtd">
<!-- Generated by graphviz version 2.43.0 (0)
 -->
<!-- Title: include/Clock/misc_lib/time.hpp Pages: 1 -->
<svg width="650pt" height="357pt"
 viewBox="0.00 0.00 650.00 357.00" xmlns="http://www.w3.org/2000/svg" xmlns:xlink="http://www.w3.org/1999/xlink">
<g id="graph0" class="graph" transform="scale(1 1) rotate(0) translate(4 353)">
<title>include/Clock/misc_lib/time.hpp</title>
<!-- Node1 -->
<g id="Node000001" class="node">
<title>Node1</title>
<g id="a_Node000001"><a xlink:title="Time data structure and utilities.">
<polygon fill="#999999" stroke="#666666" points="529,-349 421,-349 421,-319 529,-319 529,-349"/>
<text text-anchor="start" x="429" y="-337" font-family="Helvetica,sans-Serif" font-size="10.00">include/Clock/misc</text>
<text text-anchor="middle" x="475" y="-326" font-family="Helvetica,sans-Serif" font-size="10.00">_lib/time.hpp</text>
</a>
</g>
</g>
<!-- Node2 -->
<g id="Node000002" class="node">
<title>Node2</title>
<g id="a_Node000002"><a xlink:href="date__time_8hpp.html" target="_top" xlink:title="DateTime data structure and utilities.">
<polygon fill="white" stroke="#666666" points="332,-283 224,-283 224,-253 332,-253 332,-283"/>
<text text-anchor="start" x="232" y="-271" font-family="Helvetica,sans-Serif" font-size="10.00">include/Clock/misc</text>
<text text-anchor="middle" x="278" y="-260" font-family="Helvetica,sans-Serif" font-size="10.00">_lib/date_time.hpp</text>
</a>
</g>
</g>
<!-- Node1&#45;&gt;Node2 -->
<g id="edge1_Node000001_Node000002" class="edge">
<title>Node1&#45;&gt;Node2</title>
<g id="a_edge1_Node000001_Node000002"><a xlink:title=" ">
<path fill="none" stroke="#63b8ff" d="M422.23,-315.86C390.6,-305.58 350.88,-292.68 321.13,-283.01"/>
<polygon fill="#63b8ff" stroke="#63b8ff" points="421.18,-319.19 431.77,-318.95 423.34,-312.54 421.18,-319.19"/>
</a>
</g>
</g>
<!-- Node4 -->
<g id="Node000004" class="node">
<title>Node4</title>
<g id="a_Node000004"><a xlink:href="config_8hpp.html" target="_top" xlink:title="Configuration structure for the Si3 simulation.">
<polygon fill="white" stroke="#666666" points="390,-151 268,-151 268,-121 390,-121 390,-151"/>
<text text-anchor="start" x="276" y="-139" font-family="Helvetica,sans-Serif" font-size="10.00">include/Clock/si3_sim</text>
<text text-anchor="middle" x="329" y="-128" font-family="Helvetica,sans-Serif" font-size="10.00">/config.hpp</text>
</a>
</g>
</g>
<!-- Node1&#45;&gt;Node4 -->
<g id="edge18_Node000001_Node000004" class="edge">
<title>Node1&#45;&gt;Node4</title>
<g id="a_edge18_Node000001_Node000004"><a xlink:title=" ">
<path fill="none" stroke="#63b8ff" d="M461.3,-310.01C443.33,-280.5 410.18,-228.19 377,-187 366.73,-174.26 353.83,-160.94 343.99,-151.26"/>
<polygon fill="#63b8ff" stroke="#63b8ff" points="458.41,-312 466.58,-318.75 464.4,-308.38 458.41,-312"/>
</a>
</g>
</g>
<!-- Node8 -->
<g id="Node000008" class="node">
<title>Node8</title>
<g id="a_Node000008"><a xlink:href="config_8cpp.html" target="_top" xlink:title="Implementation of configuration utilities.">
<polygon fill="white" stroke="#666666" points="480,-79.5 356,-79.5 356,-60.5 480,-60.5 480,-79.5"/>
<text text-anchor="middle" x="418" y="-67.5" font-family="Helvetica,sans-Serif" font-size="10.00">src/si3_sim/config.cpp</text>
</a>
</g>
</g>
<!-- Node1&#45;&gt;Node8 -->
<g id="edge20_Node000001_Node000008" class="edge">
<title>Node1&#45;&gt;Node8</title>
<g id="a_edge20_Node000001_Node000008"><a xlink:title=" ">
<path fill="none" stroke="#63b8ff" d="M469.74,-308.82C457.52,-252.66 427.68,-115.5 419.89,-79.68"/>
<polygon fill="#63b8ff" stroke="#63b8ff" points="466.39,-309.89 471.94,-318.91 473.23,-308.4 466.39,-309.89"/>
</a>
</g>
</g>
<!-- Node11 -->
<g id="Node000011" class="node">
<title>Node11</title>
<g id="a_Node000011"><a xlink:href="time_8cpp.html" target="_top" xlink:title="Implementation of time utilities.">
<polygon fill="white" stroke="#666666" points="642,-277.5 522,-277.5 522,-258.5 642,-258.5 642,-277.5"/>
<text text-anchor="middle" x="582" y="-265.5" font-family="Helvetica,sans-Serif" font-size="10.00">src/misc_lib/time.cpp</text>
</a>
</g>
</g>
<!-- Node1&#45;&gt;Node11 -->
<g id="edge19_Node000001_Node000011" class="edge">
<title>Node1&#45;&gt;Node11</title>
<g id="a_edge19_Node000001_Node000011"><a xlink:title=" ">
<path fill="none" stroke="#63b8ff" d="M507.08,-313.81C527.28,-301.73 552.35,-286.73 567.76,-277.52"/>
<polygon fill="#63b8ff" stroke="#63b8ff" points="505.27,-310.82 498.48,-318.95 508.86,-316.83 505.27,-310.82"/>
</a>
</g>
</g>
<!-- Node3 -->
<g id="Node000003" class="node">
<title>Node3</title>
<g id="a_Node000003"><a xlink:href="run__record_8hpp.html" target="_top" xlink:title="Run record structure and utilities.">
<polygon fill="white" stroke="#666666" points="186,-217 76,-217 76,-187 186,-187 186,-217"/>
<text text-anchor="start" x="84" y="-205" font-family="Helvetica,sans-Serif" font-size="10.00">include/Clock/misc</text>
<text text-anchor="middle" x="131" y="-194" font-family="Helvetica,sans-Serif" font-size="10.00">_lib/run_record.hpp</text>
</a>
</g>
</g>
<!-- Node2&#45;&gt;Node3 -->
<g id="edge2_Node000002_Node000003" class="edge">
<title>Node2&#45;&gt;Node3</title>
<g id="a_edge2_Node000002_Node000003"><a xlink:title=" ">
<path fill="none" stroke="#63b8ff" d="M236.47,-248.92C213.24,-238.8 184.71,-226.38 163.18,-217.01"/>
<polygon fill="#63b8ff" stroke="#63b8ff" points="235.17,-252.17 245.74,-252.95 237.97,-245.75 235.17,-252.17"/>
</a>
</g>
</g>
<!-- Node2&#45;&gt;Node4 -->
<g id="edge13_Node000002_Node000004" class="edge">
<title>Node2&#45;&gt;Node4</title>
<g id="a_edge13_Node000002_Node000004"><a xlink:title=" ">
<path fill="none" stroke="#63b8ff" d="M327.61,-248.07C340.8,-240.5 353.47,-230.33 361,-217 373.36,-195.12 355.72,-167.5 342.13,-151.1"/>
<polygon fill="#63b8ff" stroke="#63b8ff" points="325.65,-245.15 318.44,-252.91 328.92,-251.34 325.65,-245.15"/>
</a>
</g>
</g>
<!-- Node5 -->
<g id="Node000005" class="node">
<title>Node5</title>
<g id="a_Node000005"><a xlink:href="si3__sim_8hpp.html" target="_top" xlink:title="Header file for the Si3Sim class.">
<polygon fill="white" stroke="#666666" points="199,-85 77,-85 77,-55 199,-55 199,-85"/>
<text text-anchor="start" x="85" y="-73" font-family="Helvetica,sans-Serif" font-size="10.00">include/Clock/si3_sim</text>
<text text-anchor="middle" x="138" y="-62" font-family="Helvetica,sans-Serif" font-size="10.00">/si3_sim.hpp</text>
</a>
</g>
</g>
<!-- Node2&#45;&gt;Node5 -->
<g id="edge14_Node000002_Node000005" class="edge">
<title>Node2&#45;&gt;Node5</title>
<g id="a_edge14_Node000002_Node000005"><a xlink:title=" ">
<path fill="none" stroke="#63b8ff" d="M213.87,-259.55C159.4,-251.88 86.97,-238.05 67,-217 37.41,-185.8 33.85,-158.44 55,-121 64.27,-104.6 81.31,-92.98 97.56,-85.09"/>
<polygon fill="#63b8ff" stroke="#63b8ff" points="213.43,-263.02 223.81,-260.91 214.38,-256.09 213.43,-263.02"/>
</a>
</g>
</g>
<!-- Node7 -->
<g id="Node000007" class="node">
<title>Node7</title>
<g id="a_Node000007"><a xlink:href="si3__sim_8cpp.html" target="_top" xlink:title="Implementation of the Si3Sim class.">
<polygon fill="white" stroke="#666666" points="132,-19 0,-19 0,0 132,0 132,-19"/>
<text text-anchor="middle" x="66" y="-7" font-family="Helvetica,sans-Serif" font-size="10.00">src/si3_sim/si3_sim.cpp</text>
</a>
</g>
</g>
<!-- Node2&#45;&gt;Node7 -->
<g id="edge17_Node000002_Node000007" class="edge">
<title>Node2&#45;&gt;Node7</title>
<g id="a_edge17_Node000002_Node000007"><a xlink:title=" ">
<path fill="none" stroke="#63b8ff" d="M213.76,-262.01C151.72,-255.74 64.01,-242.55 42,-217 -5,-162.46 21.2,-124.22 41,-55 44.85,-41.54 53.47,-27.74 59.51,-19.15"/>
<polygon fill="#63b8ff" stroke="#63b8ff" points="213.57,-265.51 223.86,-262.99 214.25,-258.54 213.57,-265.51"/>
</a>
</g>
</g>
<!-- Node2&#45;&gt;Node8 -->
<g id="edge16_Node000002_Node000008" class="edge">
<title>Node2&#45;&gt;Node8</title>
<g id="a_edge16_Node000002_Node000008"><a xlink:title=" ">
<path fill="none" stroke="#63b8ff" d="M332.52,-248.74C348.66,-241.09 365.16,-230.7 377,-217 412.97,-175.36 417.53,-104.4 418,-79.75"/>
<polygon fill="#63b8ff" stroke="#63b8ff" points="330.81,-245.67 323.1,-252.93 333.66,-252.06 330.81,-245.67"/>
</a>
</g>
</g>
<!-- Node10 -->
<g id="Node000010" class="node">
<title>Node10</title>
<g id="a_Node000010"><a xlink:href="date__time_8cpp.html" target="_top" xlink:title="Implementation of date and time utilities.">
<polygon fill="white" stroke="#666666" points="351.5,-211.5 204.5,-211.5 204.5,-192.5 351.5,-192.5 351.5,-211.5"/>
<text text-anchor="middle" x="278" y="-199.5" font-family="Helvetica,sans-Serif" font-size="10.00">src/misc_lib/date_time.cpp</text>
</a>
</g>
</g>
<!-- Node2&#45;&gt;Node10 -->
<g id="edge15_Node000002_Node000010" class="edge">
<title>Node2&#45;&gt;Node10</title>
<g id="a_edge15_Node000002_Node000010"><a xlink:title=" ">
<path fill="none" stroke="#63b8ff" d="M278,-242.6C278,-231.8 278,-219.78 278,-211.84"/>
<polygon fill="#63b8ff" stroke="#63b8ff" points="274.5,-242.8 278,-252.8 281.5,-242.8 274.5,-242.8"/>
</a>
</g>
</g>
<!-- Node3&#45;&gt;Node4 -->
<g id="edge3_Node000003_Node000004" class="edge">
<title>Node3&#45;&gt;Node4</title>
<g id="a_edge3_Node000003_Node000004"><a xlink:title=" ">
<path fill="none" stroke="#63b8ff" d="M184.04,-183.86C215.83,-173.58 255.75,-160.68 285.65,-151.01"/>
<polygon fill="#63b8ff" stroke="#63b8ff" points="182.89,-180.55 174.45,-186.95 185.04,-187.21 182.89,-180.55"/>
</a>
</g>
</g>
<!-- Node6 -->
<g id="Node000006" class="node">
<title>Node6</title>
<g id="a_Node000006"><a xlink:href="main_8cpp.html" target="_top" xlink:title="Main entry point for the Si3 simulation tool.">
<polygon fill="white" stroke="#666666" points="299.5,-19 180.5,-19 180.5,0 299.5,0 299.5,-19"/>
<text text-anchor="middle" x="240" y="-7" font-family="Helvetica,sans-Serif" font-size="10.00">src/si3_sim/main.cpp</text>
</a>
</g>
</g>
<!-- Node3&#45;&gt;Node6 -->
<g id="edge11_Node000003_Node000006" class="edge">
<title>Node3&#45;&gt;Node6</title>
<g id="a_edge11_Node000003_Node000006"><a xlink:title=" ">
<path fill="none" stroke="#63b8ff" d="M183.73,-182.59C198.31,-175 212.67,-164.7 222,-151 250.79,-108.72 244.68,-42.39 241.38,-19.01"/>
<polygon fill="#63b8ff" stroke="#63b8ff" points="182.15,-179.46 174.67,-186.97 185.2,-185.77 182.15,-179.46"/>
</a>
</g>
</g>
<!-- Node3&#45;&gt;Node7 -->
<g id="edge12_Node000003_Node000007" class="edge">
<title>Node3&#45;&gt;Node7</title>
<g id="a_edge12_Node000003_Node000007"><a xlink:title=" ">
<path fill="none" stroke="#63b8ff" d="M86.42,-181.81C73.99,-174.14 62,-163.98 55,-151 30.97,-106.42 52.99,-42.07 62.3,-19.07"/>
<polygon fill="#63b8ff" stroke="#63b8ff" points="85.05,-185.06 95.47,-186.96 88.51,-178.98 85.05,-185.06"/>
</a>
</g>
</g>
<!-- Node9 -->
<g id="Node000009" class="node">
<title>Node9</title>
<g id="a_Node000009"><a xlink:href="run__record_8cpp.html" target="_top" xlink:title="Implementation of run record utilities.">
<polygon fill="white" stroke="#666666" points="212.5,-145.5 63.5,-145.5 63.5,-126.5 212.5,-126.5 212.5,-145.5"/>
<text text-anchor="middle" x="138" y="-133.5" font-family="Helvetica,sans-Serif" font-size="10.00">src/misc_lib/run_record.cpp</text>
</a>
</g>
</g>
<!-- Node3&#45;&gt;Node9 -->
<g id="edge10_Node000003_Node000009" class="edge">
<title>Node3&#45;&gt;Node9</title>
<g id="a_edge10_Node000003_Node000009"><a xlink:title=" ">
<path fill="none" stroke="#63b8ff" d="M133.67,-176.6C134.85,-165.8 136.16,-153.78 137.03,-145.84"/>
<polygon fill="#63b8ff" stroke="#63b8ff" points="130.16,-176.48 132.55,-186.8 137.12,-177.24 130.16,-176.48"/>
</a>
</g>
</g>
<!-- Node4&#45;&gt;Node5 -->
<g id="edge4_Node000004_Node000005" class="edge">
<title>Node4&#45;&gt;Node5</title>
<g id="a_edge4_Node000004_Node000005"><a xlink:title=" ">
<path fill="none" stroke="#63b8ff" d="M277.44,-117.72C246.84,-107.47 208.53,-94.63 179.82,-85.01"/>
<polygon fill="#63b8ff" stroke="#63b8ff" points="276.49,-121.1 287.08,-120.95 278.71,-114.46 276.49,-121.1"/>
</a>
</g>
</g>
<!-- Node4&#45;&gt;Node6 -->
<g id="edge8_Node000004_Node000006" class="edge">
<title>Node4&#45;&gt;Node6</title>
<g id="a_edge8_Node000004_Node000006"><a xlink:title=" ">
<path fill="none" stroke="#63b8ff" d="M322.31,-111.28C316.8,-94.46 307.79,-71.96 295,-55 283.76,-40.09 266.48,-27.2 254.29,-19.19"/>
<polygon fill="#63b8ff" stroke="#63b8ff" points="318.99,-112.4 325.3,-120.92 325.68,-110.33 318.99,-112.4"/>
</a>
</g>
</g>
<!-- Node4&#45;&gt;Node7 -->
<g id="edge9_Node000004_Node000007" class="edge">
<title>Node4&#45;&gt;Node7</title>
<g id="a_edge9_Node000004_Node000007"><a xlink:title=" ">
<path fill="none" stroke="#63b8ff" d="M302.98,-114.67C279.31,-96.95 242.84,-71.57 208,-55 173.82,-38.74 132.26,-26.52 102.95,-19.04"/>
<polygon fill="#63b8ff" stroke="#63b8ff" points="301.02,-117.57 311.1,-120.82 305.24,-111.99 301.02,-117.57"/>
</a>
</g>
</g>
<!-- Node4&#45;&gt;Node8 -->
<g id="edge7_Node000004_Node000008" class="edge">
<title>Node4&#45;&gt;Node8</title>
<g id="a_edge7_Node000004_Node000008"><a xlink:title=" ">
<path fill="none" stroke="#63b8ff" d="M356.99,-114.87C373.46,-103.03 393.46,-88.65 405.96,-79.66"/>
<polygon fill="#63b8ff" stroke="#63b8ff" points="354.83,-112.12 348.75,-120.8 358.91,-117.8 354.83,-112.12"/>
</a>
</g>
</g>
<!-- Node5&#45;&gt;Node6 -->
<g id="edge5_Node000005_Node000006" class="edge">
<title>Node5&#45;&gt;Node6</title>
<g id="a_edge5_Node000005_Node000006"><a xlink:title=" ">
<path fill="none" stroke="#63b8ff" d="M171.51,-49.78C189.55,-39.43 210.92,-27.18 224.94,-19.14"/>
<polygon fill="#63b8ff" stroke="#63b8ff" points="169.36,-46.98 162.43,-54.99 172.85,-53.05 169.36,-46.98"/>
</a>
</g>
</g>
<!-- Node5&#45;&gt;Node7 -->
<g id="edge6_Node000005_Node000007" class="edge">
<title>Node5&#45;&gt;Node7</title>
<g id="a_edge6_Node000005_Node000007"><a xlink:title=" ">
<path fill="none" stroke="#63b8ff" d="M112.81,-48.53C100.48,-38.51 86.28,-26.98 76.79,-19.27"/>
<polygon fill="#63b8ff" stroke="#63b8ff" points="110.6,-51.25 120.57,-54.84 115.02,-45.82 110.6,-51.25"/>
</a>
</g>
</g>
</g>
</svg>
