<?xml version="1.0" encoding="UTF-8" standalone="no"?>
<!DOCTYPE svg PUBLIC "-//W3C//DTD SVG 1.1//EN"
 "http://www.w3.org/Graphics/SVG/1.1/DTD/svg11.dtd">
<!-- Generated by graphviz version 2.43.0 (0)
 -->
<!-- Title: src/misc_lib/time.cpp Pages: 1 -->
<svg width="893pt" height="148pt"
 viewBox="0.00 0.00 892.50 148.00" xmlns="http://www.w3.org/2000/svg" xmlns:xlink="http://www.w3.org/1999/xlink">
<g id="graph0" class="graph" transform="scale(1 1) rotate(0) translate(4 144)">
<title>src/misc_lib/time.cpp</title>
<!-- Node1 -->
<g id="Node000001" class="node">
<title>Node1</title>
<g id="a_Node000001"><a xlink:title="Implementation of time utilities.">
<polygon fill="#999999" stroke="#666666" points="524.5,-140 404.5,-140 404.5,-121 524.5,-121 524.5,-140"/>
<text text-anchor="middle" x="464.5" y="-128" font-family="Helvetica,sans-Serif" font-size="10.00">src/misc_lib/time.cpp</text>
</a>
</g>
</g>
<!-- Node2 -->
<g id="Node000002" class="node">
<title>Node2</title>
<g id="a_Node000002"><a xlink:href="time_8hpp.html" target="_top" xlink:title="Time data structure and utilities.">
<polygon fill="white" stroke="#666666" points="484.5,-85 350.5,-85 350.5,-66 484.5,-66 484.5,-85"/>
<text text-anchor="middle" x="417.5" y="-73" font-family="Helvetica,sans-Serif" font-size="10.00">Clock/misc_lib/time.hpp</text>
</a>
</g>
</g>
<!-- Node1&#45;&gt;Node2 -->
<g id="edge1_Node000001_Node000002" class="edge">
<title>Node1&#45;&gt;Node2</title>
<g id="a_edge1_Node000001_Node000002"><a xlink:title=" ">
<path fill="none" stroke="#63b8ff" d="M456.74,-120.75C450.03,-113.18 440.16,-102.05 431.99,-92.84"/>
<polygon fill="#63b8ff" stroke="#63b8ff" points="434.37,-90.25 425.12,-85.09 429.13,-94.89 434.37,-90.25"/>
</a>
</g>
</g>
<!-- Node5 -->
<g id="Node000005" class="node">
<title>Node5</title>
<g id="a_Node000005"><a xlink:title=" ">
<polygon fill="#e0e0e0" stroke="#999999" points="157,-30 0,-30 0,0 157,0 157,-30"/>
<text text-anchor="start" x="8" y="-18" font-family="Helvetica,sans-Serif" font-size="10.00">boost/date_time/posix</text>
<text text-anchor="middle" x="78.5" y="-7" font-family="Helvetica,sans-Serif" font-size="10.00">_time/posix_time_config.hpp</text>
</a>
</g>
</g>
<!-- Node1&#45;&gt;Node5 -->
<g id="edge9_Node000001_Node000005" class="edge">
<title>Node1&#45;&gt;Node5</title>
<g id="a_edge9_Node000001_Node000005"><a xlink:title=" ">
<path fill="none" stroke="#63b8ff" d="M435.49,-120.97C371.99,-102.3 219.71,-57.52 136.01,-32.91"/>
<polygon fill="#63b8ff" stroke="#63b8ff" points="136.99,-29.55 126.4,-30.09 135.01,-36.26 136.99,-29.55"/>
</a>
</g>
</g>
<!-- Node6 -->
<g id="Node000006" class="node">
<title>Node6</title>
<g id="a_Node000006"><a xlink:title=" ">
<polygon fill="#e0e0e0" stroke="#999999" points="884.5,-30 716.5,-30 716.5,0 884.5,0 884.5,-30"/>
<text text-anchor="start" x="724.5" y="-18" font-family="Helvetica,sans-Serif" font-size="10.00">boost/date_time/posix</text>
<text text-anchor="middle" x="800.5" y="-7" font-family="Helvetica,sans-Serif" font-size="10.00">_time/posix_time_duration.hpp</text>
</a>
</g>
</g>
<!-- Node1&#45;&gt;Node6 -->
<g id="edge10_Node000001_Node000006" class="edge">
<title>Node1&#45;&gt;Node6</title>
<g id="a_edge10_Node000001_Node000006"><a xlink:title=" ">
<path fill="none" stroke="#63b8ff" d="M470.96,-120.89C481.94,-106.93 505.68,-79.55 532.5,-66 548.16,-58.09 635.59,-42.57 706.39,-30.91"/>
<polygon fill="#63b8ff" stroke="#63b8ff" points="706.96,-34.36 716.26,-29.29 705.83,-27.45 706.96,-34.36"/>
</a>
</g>
</g>
<!-- Node9 -->
<g id="Node000009" class="node">
<title>Node9</title>
<g id="a_Node000009"><a xlink:title=" ">
<polygon fill="#e0e0e0" stroke="#999999" points="588,-85 541,-85 541,-66 588,-66 588,-85"/>
<text text-anchor="middle" x="564.5" y="-73" font-family="Helvetica,sans-Serif" font-size="10.00">cmath</text>
</a>
</g>
</g>
<!-- Node1&#45;&gt;Node9 -->
<g id="edge8_Node000001_Node000009" class="edge">
<title>Node1&#45;&gt;Node9</title>
<g id="a_edge8_Node000001_Node000009"><a xlink:title=" ">
<path fill="none" stroke="#63b8ff" d="M480.57,-120.98C496.36,-112.61 520.72,-99.7 539.13,-89.95"/>
<polygon fill="#63b8ff" stroke="#63b8ff" points="540.94,-92.95 548.14,-85.17 537.67,-86.76 540.94,-92.95"/>
</a>
</g>
</g>
<!-- Node3 -->
<g id="Node000003" class="node">
<title>Node3</title>
<g id="a_Node000003"><a xlink:title=" ">
<polygon fill="#e0e0e0" stroke="#999999" points="320,-24.5 175,-24.5 175,-5.5 320,-5.5 320,-24.5"/>
<text text-anchor="middle" x="247.5" y="-12.5" font-family="Helvetica,sans-Serif" font-size="10.00">Clock/misc_lib_export.hpp</text>
</a>
</g>
</g>
<!-- Node2&#45;&gt;Node3 -->
<g id="edge2_Node000002_Node000003" class="edge">
<title>Node2&#45;&gt;Node3</title>
<g id="a_edge2_Node000002_Node000003"><a xlink:title=" ">
<path fill="none" stroke="#63b8ff" d="M392.78,-65.99C363.57,-55.94 314.8,-39.16 281.91,-27.84"/>
<polygon fill="#63b8ff" stroke="#63b8ff" points="282.84,-24.46 272.25,-24.52 280.57,-31.08 282.84,-24.46"/>
</a>
</g>
</g>
<!-- Node4 -->
<g id="Node000004" class="node">
<title>Node4</title>
<g id="a_Node000004"><a xlink:title=" ">
<polygon fill="#e0e0e0" stroke="#999999" points="382.5,-24.5 338.5,-24.5 338.5,-5.5 382.5,-5.5 382.5,-24.5"/>
<text text-anchor="middle" x="360.5" y="-12.5" font-family="Helvetica,sans-Serif" font-size="10.00">string</text>
</a>
</g>
</g>
<!-- Node2&#45;&gt;Node4 -->
<g id="edge3_Node000002_Node000004" class="edge">
<title>Node2&#45;&gt;Node4</title>
<g id="a_edge3_Node000002_Node000004"><a xlink:title=" ">
<path fill="none" stroke="#63b8ff" d="M409.09,-65.87C400.42,-56.97 386.7,-42.89 376.04,-31.95"/>
<polygon fill="#63b8ff" stroke="#63b8ff" points="378.43,-29.39 368.95,-24.67 373.42,-34.27 378.43,-29.39"/>
</a>
</g>
</g>
<!-- Node2&#45;&gt;Node5 -->
<g id="edge4_Node000002_Node000005" class="edge">
<title>Node2&#45;&gt;Node5</title>
<g id="a_edge4_Node000002_Node000005"><a xlink:title=" ">
<path fill="none" stroke="#63b8ff" d="M368.21,-65.99C315.65,-56.92 231.33,-42.37 167.18,-31.3"/>
<polygon fill="#63b8ff" stroke="#63b8ff" points="167.52,-27.81 157.07,-29.56 166.33,-34.71 167.52,-27.81"/>
</a>
</g>
</g>
<!-- Node2&#45;&gt;Node6 -->
<g id="edge5_Node000002_Node000006" class="edge">
<title>Node2&#45;&gt;Node6</title>
<g id="a_edge5_Node000002_Node000006"><a xlink:title=" ">
<path fill="none" stroke="#63b8ff" d="M473.19,-65.99C534.22,-56.67 633.17,-41.56 706.31,-30.39"/>
<polygon fill="#63b8ff" stroke="#63b8ff" points="707.1,-33.81 716.46,-28.84 706.04,-26.89 707.1,-33.81"/>
</a>
</g>
</g>
<!-- Node7 -->
<g id="Node000007" class="node">
<title>Node7</title>
<g id="a_Node000007"><a xlink:title=" ">
<polygon fill="#e0e0e0" stroke="#999999" points="548.5,-30 400.5,-30 400.5,0 548.5,0 548.5,-30"/>
<text text-anchor="start" x="408.5" y="-18" font-family="Helvetica,sans-Serif" font-size="10.00">boost/date_time/posix</text>
<text text-anchor="middle" x="474.5" y="-7" font-family="Helvetica,sans-Serif" font-size="10.00">_time/time_formatters.hpp</text>
</a>
</g>
</g>
<!-- Node2&#45;&gt;Node7 -->
<g id="edge6_Node000002_Node000007" class="edge">
<title>Node2&#45;&gt;Node7</title>
<g id="a_edge6_Node000002_Node000007"><a xlink:title=" ">
<path fill="none" stroke="#63b8ff" d="M425.91,-65.87C433.22,-58.37 444.1,-47.2 453.72,-37.33"/>
<polygon fill="#63b8ff" stroke="#63b8ff" points="456.28,-39.72 460.75,-30.11 451.26,-34.83 456.28,-39.72"/>
</a>
</g>
</g>
<!-- Node8 -->
<g id="Node000008" class="node">
<title>Node8</title>
<g id="a_Node000008"><a xlink:title=" ">
<polygon fill="#e0e0e0" stroke="#999999" points="698.5,-30 566.5,-30 566.5,0 698.5,0 698.5,-30"/>
<text text-anchor="start" x="574.5" y="-18" font-family="Helvetica,sans-Serif" font-size="10.00">boost/date_time/posix</text>
<text text-anchor="middle" x="632.5" y="-7" font-family="Helvetica,sans-Serif" font-size="10.00">_time/time_parsers.hpp</text>
</a>
</g>
</g>
<!-- Node2&#45;&gt;Node8 -->
<g id="edge7_Node000002_Node000008" class="edge">
<title>Node2&#45;&gt;Node8</title>
<g id="a_edge7_Node000002_Node000008"><a xlink:title=" ">
<path fill="none" stroke="#63b8ff" d="M448.76,-65.99C480.72,-57.3 531.19,-43.57 571.16,-32.69"/>
<polygon fill="#63b8ff" stroke="#63b8ff" points="572.08,-36.07 580.81,-30.06 570.24,-29.31 572.08,-36.07"/>
</a>
</g>
</g>
</g>
</svg>
