<?xml version="1.0" encoding="UTF-8" standalone="no"?>
<!DOCTYPE svg PUBLIC "-//W3C//DTD SVG 1.1//EN"
 "http://www.w3.org/Graphics/SVG/1.1/DTD/svg11.dtd">
<!-- Generated by graphviz version 2.43.0 (0)
 -->
<!-- Title: include/Clock/misc_lib/time.hpp Pages: 1 -->
<svg width="894pt" height="104pt"
 viewBox="0.00 0.00 893.50 104.00" xmlns="http://www.w3.org/2000/svg" xmlns:xlink="http://www.w3.org/1999/xlink">
<g id="graph0" class="graph" transform="scale(1 1) rotate(0) translate(4 100)">
<title>include/Clock/misc_lib/time.hpp</title>
<!-- Node1 -->
<g id="Node000001" class="node">
<title>Node1</title>
<g id="a_Node000001"><a xlink:title="DateTime data structure and utilities.">
<polygon fill="#999999" stroke="#666666" points="448.5,-96 340.5,-96 340.5,-66 448.5,-66 448.5,-96"/>
<text text-anchor="start" x="348.5" y="-84" font-family="Helvetica,sans-Serif" font-size="10.00">include/Clock/misc</text>
<text text-anchor="middle" x="394.5" y="-73" font-family="Helvetica,sans-Serif" font-size="10.00">_lib/time.hpp</text>
</a>
</g>
</g>
<!-- Node2 -->
<g id="Node000002" class="node">
<title>Node2</title>
<g id="a_Node000002"><a xlink:title=" ">
<polygon fill="#e0e0e0" stroke="#999999" points="145,-24.5 0,-24.5 0,-5.5 145,-5.5 145,-24.5"/>
<text text-anchor="middle" x="72.5" y="-12.5" font-family="Helvetica,sans-Serif" font-size="10.00">Clock/misc_lib_export.hpp</text>
</a>
</g>
</g>
<!-- Node1&#45;&gt;Node2 -->
<g id="edge1_Node000001_Node000002" class="edge">
<title>Node1&#45;&gt;Node2</title>
<g id="a_edge1_Node000001_Node000002"><a xlink:title=" ">
<path fill="none" stroke="#63b8ff" d="M340.24,-69.22C280.43,-57.33 184.85,-38.33 125.54,-26.54"/>
<polygon fill="#63b8ff" stroke="#63b8ff" points="126.11,-23.09 115.62,-24.57 124.75,-29.95 126.11,-23.09"/>
</a>
</g>
</g>
<!-- Node3 -->
<g id="Node000003" class="node">
<title>Node3</title>
<g id="a_Node000003"><a xlink:title=" ">
<polygon fill="#e0e0e0" stroke="#999999" points="207.5,-24.5 163.5,-24.5 163.5,-5.5 207.5,-5.5 207.5,-24.5"/>
<text text-anchor="middle" x="185.5" y="-12.5" font-family="Helvetica,sans-Serif" font-size="10.00">string</text>
</a>
</g>
</g>
<!-- Node1&#45;&gt;Node3 -->
<g id="edge2_Node000001_Node000003" class="edge">
<title>Node1&#45;&gt;Node3</title>
<g id="a_edge2_Node000001_Node000003"><a xlink:title=" ">
<path fill="none" stroke="#63b8ff" d="M340.48,-67.08C304.84,-58.01 257.37,-44.87 216.5,-30 215.28,-29.56 214.05,-29.09 212.8,-28.6"/>
<polygon fill="#63b8ff" stroke="#63b8ff" points="213.92,-25.27 203.34,-24.61 211.2,-31.72 213.92,-25.27"/>
</a>
</g>
</g>
<!-- Node4 -->
<g id="Node000004" class="node">
<title>Node4</title>
<g id="a_Node000004"><a xlink:title=" ">
<polygon fill="#e0e0e0" stroke="#999999" points="383,-30 226,-30 226,0 383,0 383,-30"/>
<text text-anchor="start" x="234" y="-18" font-family="Helvetica,sans-Serif" font-size="10.00">boost/date_time/posix</text>
<text text-anchor="middle" x="304.5" y="-7" font-family="Helvetica,sans-Serif" font-size="10.00">_time/posix_time_config.hpp</text>
</a>
</g>
</g>
<!-- Node1&#45;&gt;Node4 -->
<g id="edge3_Node000001_Node000004" class="edge">
<title>Node1&#45;&gt;Node4</title>
<g id="a_edge3_Node000001_Node000004"><a xlink:title=" ">
<path fill="none" stroke="#63b8ff" d="M374.53,-65.8C362.29,-57.1 346.44,-45.82 332.91,-36.2"/>
<polygon fill="#63b8ff" stroke="#63b8ff" points="334.6,-33.11 324.42,-30.16 330.54,-38.81 334.6,-33.11"/>
</a>
</g>
</g>
<!-- Node5 -->
<g id="Node000005" class="node">
<title>Node5</title>
<g id="a_Node000005"><a xlink:title=" ">
<polygon fill="#e0e0e0" stroke="#999999" points="569.5,-30 401.5,-30 401.5,0 569.5,0 569.5,-30"/>
<text text-anchor="start" x="409.5" y="-18" font-family="Helvetica,sans-Serif" font-size="10.00">boost/date_time/posix</text>
<text text-anchor="middle" x="485.5" y="-7" font-family="Helvetica,sans-Serif" font-size="10.00">_time/posix_time_duration.hpp</text>
</a>
</g>
</g>
<!-- Node1&#45;&gt;Node5 -->
<g id="edge4_Node000001_Node000005" class="edge">
<title>Node1&#45;&gt;Node5</title>
<g id="a_edge4_Node000001_Node000005"><a xlink:title=" ">
<path fill="none" stroke="#63b8ff" d="M414.7,-65.8C427.18,-57.01 443.4,-45.61 457.16,-35.93"/>
<polygon fill="#63b8ff" stroke="#63b8ff" points="459.19,-38.78 465.36,-30.16 455.17,-33.05 459.19,-38.78"/>
</a>
</g>
</g>
<!-- Node6 -->
<g id="Node000006" class="node">
<title>Node6</title>
<g id="a_Node000006"><a xlink:title=" ">
<polygon fill="#e0e0e0" stroke="#999999" points="735.5,-30 587.5,-30 587.5,0 735.5,0 735.5,-30"/>
<text text-anchor="start" x="595.5" y="-18" font-family="Helvetica,sans-Serif" font-size="10.00">boost/date_time/posix</text>
<text text-anchor="middle" x="661.5" y="-7" font-family="Helvetica,sans-Serif" font-size="10.00">_time/time_formatters.hpp</text>
</a>
</g>
</g>
<!-- Node1&#45;&gt;Node6 -->
<g id="edge5_Node000001_Node000006" class="edge">
<title>Node1&#45;&gt;Node6</title>
<g id="a_edge5_Node000001_Node000006"><a xlink:title=" ">
<path fill="none" stroke="#63b8ff" d="M448.53,-67.05C490.18,-57.07 548.06,-43.19 592.96,-32.43"/>
<polygon fill="#63b8ff" stroke="#63b8ff" points="594.01,-35.78 602.92,-30.04 592.38,-28.97 594.01,-35.78"/>
</a>
</g>
</g>
<!-- Node7 -->
<g id="Node000007" class="node">
<title>Node7</title>
<g id="a_Node000007"><a xlink:title=" ">
<polygon fill="#e0e0e0" stroke="#999999" points="885.5,-30 753.5,-30 753.5,0 885.5,0 885.5,-30"/>
<text text-anchor="start" x="761.5" y="-18" font-family="Helvetica,sans-Serif" font-size="10.00">boost/date_time/posix</text>
<text text-anchor="middle" x="819.5" y="-7" font-family="Helvetica,sans-Serif" font-size="10.00">_time/time_parsers.hpp</text>
</a>
</g>
</g>
<!-- Node1&#45;&gt;Node7 -->
<g id="edge6_Node000001_Node000007" class="edge">
<title>Node1&#45;&gt;Node7</title>
<g id="a_edge6_Node000001_Node000007"><a xlink:title=" ">
<path fill="none" stroke="#63b8ff" d="M448.57,-73C515.41,-64.19 632.89,-48.18 743.3,-30.16"/>
<polygon fill="#63b8ff" stroke="#63b8ff" points="743.97,-33.59 753.27,-28.52 742.84,-26.69 743.97,-33.59"/>
</a>
</g>
</g>
</g>
</svg>
